<?xml version="1.0" encoding="utf-8" standalone="no"?>
<!DOCTYPE svg PUBLIC "-//W3C//DTD SVG 1.1//EN"
  "http://www.w3.org/Graphics/SVG/1.1/DTD/svg11.dtd">
<!-- Created with matplotlib (https://matplotlib.org/) -->
<svg height="576pt" version="1.1" viewBox="0 0 1440 576" width="1440pt" xmlns="http://www.w3.org/2000/svg" xmlns:xlink="http://www.w3.org/1999/xlink">
 <defs>
  <style type="text/css">
*{stroke-linecap:butt;stroke-linejoin:round;white-space:pre;}
  </style>
 </defs>
 <g id="figure_1">
  <g id="patch_1">
   <path d="M 0 576 
L 1440 576 
L 1440 0 
L 0 0 
z
" style="fill:#ffffff;"/>
  </g>
  <g id="axes_1">
   <g id="patch_2">
    <path d="M 95.175 496.2 
L 1429.2 496.2 
L 1429.2 10.8 
L 95.175 10.8 
z
" style="fill:#ffffff;"/>
   </g>
   <g id="patch_3">
    <path clip-path="url(#p41be35d4f5)" d="M 155.8125 496.2 
L 155.8125 10.8 
L 156.759221 10.8 
L 156.759221 496.2 
z
" style="fill:#0000ff;"/>
   </g>
   <g id="patch_4">
    <path clip-path="url(#p41be35d4f5)" d="M 160.546107 496.2 
L 160.546107 10.8 
L 161.492828 10.8 
L 161.492828 496.2 
z
" style="fill:#0000ff;"/>
   </g>
   <g id="patch_5">
    <path clip-path="url(#p41be35d4f5)" d="M 198.414959 496.2 
L 198.414959 10.8 
L 199.36168 10.8 
L 199.36168 496.2 
z
" style="fill:#0000ff;"/>
   </g>
   <g id="patch_6">
    <path clip-path="url(#p41be35d4f5)" d="M 330.955943 496.2 
L 330.955943 10.8 
L 331.902664 10.8 
L 331.902664 496.2 
z
" style="fill:#0000ff;"/>
   </g>
   <g id="patch_7">
    <path clip-path="url(#p41be35d4f5)" d="M 596.03791 496.2 
L 596.03791 10.8 
L 596.984631 10.8 
L 596.984631 496.2 
z
" style="fill:#0000ff;"/>
   </g>
   <g id="patch_8">
    <path clip-path="url(#p41be35d4f5)" d="M 927.390369 496.2 
L 927.390369 10.8 
L 928.33709 10.8 
L 928.33709 496.2 
z
" style="fill:#0000ff;"/>
   </g>
   <g id="patch_9">
    <path clip-path="url(#p41be35d4f5)" d="M 1192.472336 496.2 
L 1192.472336 10.8 
L 1193.419057 10.8 
L 1193.419057 496.2 
z
" style="fill:#0000ff;"/>
   </g>
   <g id="patch_10">
    <path clip-path="url(#p41be35d4f5)" d="M 1325.01332 496.2 
L 1325.01332 10.8 
L 1325.960041 10.8 
L 1325.960041 496.2 
z
" style="fill:#0000ff;"/>
   </g>
   <g id="patch_11">
    <path clip-path="url(#p41be35d4f5)" d="M 1362.882172 496.2 
L 1362.882172 10.8 
L 1363.828893 10.8 
L 1363.828893 496.2 
z
" style="fill:#0000ff;"/>
   </g>
   <g id="patch_12">
    <path clip-path="url(#p41be35d4f5)" d="M 1367.615779 496.2 
L 1367.615779 10.8 
L 1368.5625 10.8 
L 1368.5625 496.2 
z
" style="fill:#0000ff;"/>
   </g>
   <g id="matplotlib.axis_1">
    <g id="xtick_1">
     <g id="line2d_1">
      <defs>
       <path d="M 0 0 
L 0 3.5 
" id="m277bfa99c4" style="stroke:#000000;stroke-width:0.8;"/>
      </defs>
      <g>
       <use style="stroke:#000000;stroke-width:0.8;" x="156.759221" xlink:href="#m277bfa99c4" y="496.2"/>
      </g>
     </g>
     <g id="text_1">
      <!-- 0 -->
      <defs>
       <path d="M 31.78125 66.40625 
Q 24.171875 66.40625 20.328125 58.90625 
Q 16.5 51.421875 16.5 36.375 
Q 16.5 21.390625 20.328125 13.890625 
Q 24.171875 6.390625 31.78125 6.390625 
Q 39.453125 6.390625 43.28125 13.890625 
Q 47.125 21.390625 47.125 36.375 
Q 47.125 51.421875 43.28125 58.90625 
Q 39.453125 66.40625 31.78125 66.40625 
z
M 31.78125 74.21875 
Q 44.046875 74.21875 50.515625 64.515625 
Q 56.984375 54.828125 56.984375 36.375 
Q 56.984375 17.96875 50.515625 8.265625 
Q 44.046875 -1.421875 31.78125 -1.421875 
Q 19.53125 -1.421875 13.0625 8.265625 
Q 6.59375 17.96875 6.59375 36.375 
Q 6.59375 54.828125 13.0625 64.515625 
Q 19.53125 74.21875 31.78125 74.21875 
z
" id="DejaVuSans-48"/>
      </defs>
      <g transform="translate(147.215471 525.995312)scale(0.3 -0.3)">
       <use xlink:href="#DejaVuSans-48"/>
      </g>
     </g>
    </g>
    <g id="xtick_2">
     <g id="line2d_2">
      <g>
       <use style="stroke:#000000;stroke-width:0.8;" x="393.439549" xlink:href="#m277bfa99c4" y="496.2"/>
      </g>
     </g>
     <g id="text_2">
      <!-- 50 -->
      <defs>
       <path d="M 10.796875 72.90625 
L 49.515625 72.90625 
L 49.515625 64.59375 
L 19.828125 64.59375 
L 19.828125 46.734375 
Q 21.96875 47.46875 24.109375 47.828125 
Q 26.265625 48.1875 28.421875 48.1875 
Q 40.625 48.1875 47.75 41.5 
Q 54.890625 34.8125 54.890625 23.390625 
Q 54.890625 11.625 47.5625 5.09375 
Q 40.234375 -1.421875 26.90625 -1.421875 
Q 22.3125 -1.421875 17.546875 -0.640625 
Q 12.796875 0.140625 7.71875 1.703125 
L 7.71875 11.625 
Q 12.109375 9.234375 16.796875 8.0625 
Q 21.484375 6.890625 26.703125 6.890625 
Q 35.15625 6.890625 40.078125 11.328125 
Q 45.015625 15.765625 45.015625 23.390625 
Q 45.015625 31 40.078125 35.4375 
Q 35.15625 39.890625 26.703125 39.890625 
Q 22.75 39.890625 18.8125 39.015625 
Q 14.890625 38.140625 10.796875 36.28125 
z
" id="DejaVuSans-53"/>
      </defs>
      <g transform="translate(374.352049 525.995312)scale(0.3 -0.3)">
       <use xlink:href="#DejaVuSans-53"/>
       <use x="63.623047" xlink:href="#DejaVuSans-48"/>
      </g>
     </g>
    </g>
    <g id="xtick_3">
     <g id="line2d_3">
      <g>
       <use style="stroke:#000000;stroke-width:0.8;" x="630.119877" xlink:href="#m277bfa99c4" y="496.2"/>
      </g>
     </g>
     <g id="text_3">
      <!-- 100 -->
      <defs>
       <path d="M 12.40625 8.296875 
L 28.515625 8.296875 
L 28.515625 63.921875 
L 10.984375 60.40625 
L 10.984375 69.390625 
L 28.421875 72.90625 
L 38.28125 72.90625 
L 38.28125 8.296875 
L 54.390625 8.296875 
L 54.390625 0 
L 12.40625 0 
z
" id="DejaVuSans-49"/>
      </defs>
      <g transform="translate(601.488627 525.995312)scale(0.3 -0.3)">
       <use xlink:href="#DejaVuSans-49"/>
       <use x="63.623047" xlink:href="#DejaVuSans-48"/>
       <use x="127.246094" xlink:href="#DejaVuSans-48"/>
      </g>
     </g>
    </g>
    <g id="xtick_4">
     <g id="line2d_4">
      <g>
       <use style="stroke:#000000;stroke-width:0.8;" x="866.800205" xlink:href="#m277bfa99c4" y="496.2"/>
      </g>
     </g>
     <g id="text_4">
      <!-- 150 -->
      <g transform="translate(838.168955 525.995312)scale(0.3 -0.3)">
       <use xlink:href="#DejaVuSans-49"/>
       <use x="63.623047" xlink:href="#DejaVuSans-53"/>
       <use x="127.246094" xlink:href="#DejaVuSans-48"/>
      </g>
     </g>
    </g>
    <g id="xtick_5">
     <g id="line2d_5">
      <g>
       <use style="stroke:#000000;stroke-width:0.8;" x="1103.480533" xlink:href="#m277bfa99c4" y="496.2"/>
      </g>
     </g>
     <g id="text_5">
      <!-- 200 -->
      <defs>
       <path d="M 19.1875 8.296875 
L 53.609375 8.296875 
L 53.609375 0 
L 7.328125 0 
L 7.328125 8.296875 
Q 12.9375 14.109375 22.625 23.890625 
Q 32.328125 33.6875 34.8125 36.53125 
Q 39.546875 41.84375 41.421875 45.53125 
Q 43.3125 49.21875 43.3125 52.78125 
Q 43.3125 58.59375 39.234375 62.25 
Q 35.15625 65.921875 28.609375 65.921875 
Q 23.96875 65.921875 18.8125 64.3125 
Q 13.671875 62.703125 7.8125 59.421875 
L 7.8125 69.390625 
Q 13.765625 71.78125 18.9375 73 
Q 24.125 74.21875 28.421875 74.21875 
Q 39.75 74.21875 46.484375 68.546875 
Q 53.21875 62.890625 53.21875 53.421875 
Q 53.21875 48.921875 51.53125 44.890625 
Q 49.859375 40.875 45.40625 35.40625 
Q 44.1875 33.984375 37.640625 27.21875 
Q 31.109375 20.453125 19.1875 8.296875 
z
" id="DejaVuSans-50"/>
      </defs>
      <g transform="translate(1074.849283 525.995312)scale(0.3 -0.3)">
       <use xlink:href="#DejaVuSans-50"/>
       <use x="63.623047" xlink:href="#DejaVuSans-48"/>
       <use x="127.246094" xlink:href="#DejaVuSans-48"/>
      </g>
     </g>
    </g>
    <g id="xtick_6">
     <g id="line2d_6">
      <g>
       <use style="stroke:#000000;stroke-width:0.8;" x="1340.160861" xlink:href="#m277bfa99c4" y="496.2"/>
      </g>
     </g>
     <g id="text_6">
      <!-- 250 -->
      <g transform="translate(1311.529611 525.995312)scale(0.3 -0.3)">
       <use xlink:href="#DejaVuSans-50"/>
       <use x="63.623047" xlink:href="#DejaVuSans-53"/>
       <use x="127.246094" xlink:href="#DejaVuSans-48"/>
      </g>
     </g>
    </g>
    <g id="text_7">
     <!-- Bit Interaction -->
     <defs>
      <path d="M 19.671875 34.8125 
L 19.671875 8.109375 
L 35.5 8.109375 
Q 43.453125 8.109375 47.28125 11.40625 
Q 51.125 14.703125 51.125 21.484375 
Q 51.125 28.328125 47.28125 31.5625 
Q 43.453125 34.8125 35.5 34.8125 
z
M 19.671875 64.796875 
L 19.671875 42.828125 
L 34.28125 42.828125 
Q 41.5 42.828125 45.03125 45.53125 
Q 48.578125 48.25 48.578125 53.8125 
Q 48.578125 59.328125 45.03125 62.0625 
Q 41.5 64.796875 34.28125 64.796875 
z
M 9.8125 72.90625 
L 35.015625 72.90625 
Q 46.296875 72.90625 52.390625 68.21875 
Q 58.5 63.53125 58.5 54.890625 
Q 58.5 48.1875 55.375 44.234375 
Q 52.25 40.28125 46.1875 39.3125 
Q 53.46875 37.75 57.5 32.78125 
Q 61.53125 27.828125 61.53125 20.40625 
Q 61.53125 10.640625 54.890625 5.3125 
Q 48.25 0 35.984375 0 
L 9.8125 0 
z
" id="DejaVuSans-66"/>
      <path d="M 9.421875 54.6875 
L 18.40625 54.6875 
L 18.40625 0 
L 9.421875 0 
z
M 9.421875 75.984375 
L 18.40625 75.984375 
L 18.40625 64.59375 
L 9.421875 64.59375 
z
" id="DejaVuSans-105"/>
      <path d="M 18.3125 70.21875 
L 18.3125 54.6875 
L 36.8125 54.6875 
L 36.8125 47.703125 
L 18.3125 47.703125 
L 18.3125 18.015625 
Q 18.3125 11.328125 20.140625 9.421875 
Q 21.96875 7.515625 27.59375 7.515625 
L 36.8125 7.515625 
L 36.8125 0 
L 27.59375 0 
Q 17.1875 0 13.234375 3.875 
Q 9.28125 7.765625 9.28125 18.015625 
L 9.28125 47.703125 
L 2.6875 47.703125 
L 2.6875 54.6875 
L 9.28125 54.6875 
L 9.28125 70.21875 
z
" id="DejaVuSans-116"/>
      <path id="DejaVuSans-32"/>
      <path d="M 9.8125 72.90625 
L 19.671875 72.90625 
L 19.671875 0 
L 9.8125 0 
z
" id="DejaVuSans-73"/>
      <path d="M 54.890625 33.015625 
L 54.890625 0 
L 45.90625 0 
L 45.90625 32.71875 
Q 45.90625 40.484375 42.875 44.328125 
Q 39.84375 48.1875 33.796875 48.1875 
Q 26.515625 48.1875 22.3125 43.546875 
Q 18.109375 38.921875 18.109375 30.90625 
L 18.109375 0 
L 9.078125 0 
L 9.078125 54.6875 
L 18.109375 54.6875 
L 18.109375 46.1875 
Q 21.34375 51.125 25.703125 53.5625 
Q 30.078125 56 35.796875 56 
Q 45.21875 56 50.046875 50.171875 
Q 54.890625 44.34375 54.890625 33.015625 
z
" id="DejaVuSans-110"/>
      <path d="M 56.203125 29.59375 
L 56.203125 25.203125 
L 14.890625 25.203125 
Q 15.484375 15.921875 20.484375 11.0625 
Q 25.484375 6.203125 34.421875 6.203125 
Q 39.59375 6.203125 44.453125 7.46875 
Q 49.3125 8.734375 54.109375 11.28125 
L 54.109375 2.78125 
Q 49.265625 0.734375 44.1875 -0.34375 
Q 39.109375 -1.421875 33.890625 -1.421875 
Q 20.796875 -1.421875 13.15625 6.1875 
Q 5.515625 13.8125 5.515625 26.8125 
Q 5.515625 40.234375 12.765625 48.109375 
Q 20.015625 56 32.328125 56 
Q 43.359375 56 49.78125 48.890625 
Q 56.203125 41.796875 56.203125 29.59375 
z
M 47.21875 32.234375 
Q 47.125 39.59375 43.09375 43.984375 
Q 39.0625 48.390625 32.421875 48.390625 
Q 24.90625 48.390625 20.390625 44.140625 
Q 15.875 39.890625 15.1875 32.171875 
z
" id="DejaVuSans-101"/>
      <path d="M 41.109375 46.296875 
Q 39.59375 47.171875 37.8125 47.578125 
Q 36.03125 48 33.890625 48 
Q 26.265625 48 22.1875 43.046875 
Q 18.109375 38.09375 18.109375 28.8125 
L 18.109375 0 
L 9.078125 0 
L 9.078125 54.6875 
L 18.109375 54.6875 
L 18.109375 46.1875 
Q 20.953125 51.171875 25.484375 53.578125 
Q 30.03125 56 36.53125 56 
Q 37.453125 56 38.578125 55.875 
Q 39.703125 55.765625 41.0625 55.515625 
z
" id="DejaVuSans-114"/>
      <path d="M 34.28125 27.484375 
Q 23.390625 27.484375 19.1875 25 
Q 14.984375 22.515625 14.984375 16.5 
Q 14.984375 11.71875 18.140625 8.90625 
Q 21.296875 6.109375 26.703125 6.109375 
Q 34.1875 6.109375 38.703125 11.40625 
Q 43.21875 16.703125 43.21875 25.484375 
L 43.21875 27.484375 
z
M 52.203125 31.203125 
L 52.203125 0 
L 43.21875 0 
L 43.21875 8.296875 
Q 40.140625 3.328125 35.546875 0.953125 
Q 30.953125 -1.421875 24.3125 -1.421875 
Q 15.921875 -1.421875 10.953125 3.296875 
Q 6 8.015625 6 15.921875 
Q 6 25.140625 12.171875 29.828125 
Q 18.359375 34.515625 30.609375 34.515625 
L 43.21875 34.515625 
L 43.21875 35.40625 
Q 43.21875 41.609375 39.140625 45 
Q 35.0625 48.390625 27.6875 48.390625 
Q 23 48.390625 18.546875 47.265625 
Q 14.109375 46.140625 10.015625 43.890625 
L 10.015625 52.203125 
Q 14.9375 54.109375 19.578125 55.046875 
Q 24.21875 56 28.609375 56 
Q 40.484375 56 46.34375 49.84375 
Q 52.203125 43.703125 52.203125 31.203125 
z
" id="DejaVuSans-97"/>
      <path d="M 48.78125 52.59375 
L 48.78125 44.1875 
Q 44.96875 46.296875 41.140625 47.34375 
Q 37.3125 48.390625 33.40625 48.390625 
Q 24.65625 48.390625 19.8125 42.84375 
Q 14.984375 37.3125 14.984375 27.296875 
Q 14.984375 17.28125 19.8125 11.734375 
Q 24.65625 6.203125 33.40625 6.203125 
Q 37.3125 6.203125 41.140625 7.25 
Q 44.96875 8.296875 48.78125 10.40625 
L 48.78125 2.09375 
Q 45.015625 0.34375 40.984375 -0.53125 
Q 36.96875 -1.421875 32.421875 -1.421875 
Q 20.0625 -1.421875 12.78125 6.34375 
Q 5.515625 14.109375 5.515625 27.296875 
Q 5.515625 40.671875 12.859375 48.328125 
Q 20.21875 56 33.015625 56 
Q 37.15625 56 41.109375 55.140625 
Q 45.0625 54.296875 48.78125 52.59375 
z
" id="DejaVuSans-99"/>
      <path d="M 30.609375 48.390625 
Q 23.390625 48.390625 19.1875 42.75 
Q 14.984375 37.109375 14.984375 27.296875 
Q 14.984375 17.484375 19.15625 11.84375 
Q 23.34375 6.203125 30.609375 6.203125 
Q 37.796875 6.203125 41.984375 11.859375 
Q 46.1875 17.53125 46.1875 27.296875 
Q 46.1875 37.015625 41.984375 42.703125 
Q 37.796875 48.390625 30.609375 48.390625 
z
M 30.609375 56 
Q 42.328125 56 49.015625 48.375 
Q 55.71875 40.765625 55.71875 27.296875 
Q 55.71875 13.875 49.015625 6.21875 
Q 42.328125 -1.421875 30.609375 -1.421875 
Q 18.84375 -1.421875 12.171875 6.21875 
Q 5.515625 13.875 5.515625 27.296875 
Q 5.515625 40.765625 12.171875 48.375 
Q 18.84375 56 30.609375 56 
z
" id="DejaVuSans-111"/>
     </defs>
     <g transform="translate(655.701563 559.029688)scale(0.3 -0.3)">
      <use xlink:href="#DejaVuSans-66"/>
      <use x="68.603516" xlink:href="#DejaVuSans-105"/>
      <use x="96.386719" xlink:href="#DejaVuSans-116"/>
      <use x="135.595703" xlink:href="#DejaVuSans-32"/>
      <use x="167.382812" xlink:href="#DejaVuSans-73"/>
      <use x="196.875" xlink:href="#DejaVuSans-110"/>
      <use x="260.253906" xlink:href="#DejaVuSans-116"/>
      <use x="299.462891" xlink:href="#DejaVuSans-101"/>
      <use x="360.986328" xlink:href="#DejaVuSans-114"/>
      <use x="402.099609" xlink:href="#DejaVuSans-97"/>
      <use x="463.378906" xlink:href="#DejaVuSans-99"/>
      <use x="518.359375" xlink:href="#DejaVuSans-116"/>
      <use x="557.568359" xlink:href="#DejaVuSans-105"/>
      <use x="585.351562" xlink:href="#DejaVuSans-111"/>
      <use x="646.533203" xlink:href="#DejaVuSans-110"/>
     </g>
    </g>
   </g>
   <g id="matplotlib.axis_2">
    <g id="ytick_1">
     <g id="line2d_7">
      <defs>
       <path d="M 0 0 
L -3.5 0 
" id="m5ff7ea0b0a" style="stroke:#000000;stroke-width:0.8;"/>
      </defs>
      <g>
       <use style="stroke:#000000;stroke-width:0.8;" x="95.175" xlink:href="#m5ff7ea0b0a" y="482.268087"/>
      </g>
     </g>
     <g id="text_8">
      <!-- −7 -->
      <defs>
       <path d="M 10.59375 35.5 
L 73.1875 35.5 
L 73.1875 27.203125 
L 10.59375 27.203125 
z
" id="DejaVuSans-8722"/>
       <path d="M 8.203125 72.90625 
L 55.078125 72.90625 
L 55.078125 68.703125 
L 28.609375 0 
L 18.3125 0 
L 43.21875 64.59375 
L 8.203125 64.59375 
z
" id="DejaVuSans-55"/>
      </defs>
      <g transform="translate(43.948438 493.665744)scale(0.3 -0.3)">
       <use xlink:href="#DejaVuSans-8722"/>
       <use x="83.789062" xlink:href="#DejaVuSans-55"/>
      </g>
     </g>
    </g>
    <g id="ytick_2">
     <g id="line2d_8">
      <g>
       <use style="stroke:#000000;stroke-width:0.8;" x="95.175" xlink:href="#m5ff7ea0b0a" y="423.037406"/>
      </g>
     </g>
     <g id="text_9">
      <!-- −6 -->
      <defs>
       <path d="M 33.015625 40.375 
Q 26.375 40.375 22.484375 35.828125 
Q 18.609375 31.296875 18.609375 23.390625 
Q 18.609375 15.53125 22.484375 10.953125 
Q 26.375 6.390625 33.015625 6.390625 
Q 39.65625 6.390625 43.53125 10.953125 
Q 47.40625 15.53125 47.40625 23.390625 
Q 47.40625 31.296875 43.53125 35.828125 
Q 39.65625 40.375 33.015625 40.375 
z
M 52.59375 71.296875 
L 52.59375 62.3125 
Q 48.875 64.0625 45.09375 64.984375 
Q 41.3125 65.921875 37.59375 65.921875 
Q 27.828125 65.921875 22.671875 59.328125 
Q 17.53125 52.734375 16.796875 39.40625 
Q 19.671875 43.65625 24.015625 45.921875 
Q 28.375 48.1875 33.59375 48.1875 
Q 44.578125 48.1875 50.953125 41.515625 
Q 57.328125 34.859375 57.328125 23.390625 
Q 57.328125 12.15625 50.6875 5.359375 
Q 44.046875 -1.421875 33.015625 -1.421875 
Q 20.359375 -1.421875 13.671875 8.265625 
Q 6.984375 17.96875 6.984375 36.375 
Q 6.984375 53.65625 15.1875 63.9375 
Q 23.390625 74.21875 37.203125 74.21875 
Q 40.921875 74.21875 44.703125 73.484375 
Q 48.484375 72.75 52.59375 71.296875 
z
" id="DejaVuSans-54"/>
      </defs>
      <g transform="translate(43.948438 434.435062)scale(0.3 -0.3)">
       <use xlink:href="#DejaVuSans-8722"/>
       <use x="83.789062" xlink:href="#DejaVuSans-54"/>
      </g>
     </g>
    </g>
    <g id="ytick_3">
     <g id="line2d_9">
      <g>
       <use style="stroke:#000000;stroke-width:0.8;" x="95.175" xlink:href="#m5ff7ea0b0a" y="363.806725"/>
      </g>
     </g>
     <g id="text_10">
      <!-- −5 -->
      <g transform="translate(43.948438 375.204381)scale(0.3 -0.3)">
       <use xlink:href="#DejaVuSans-8722"/>
       <use x="83.789062" xlink:href="#DejaVuSans-53"/>
      </g>
     </g>
    </g>
    <g id="ytick_4">
     <g id="line2d_10">
      <g>
       <use style="stroke:#000000;stroke-width:0.8;" x="95.175" xlink:href="#m5ff7ea0b0a" y="304.576043"/>
      </g>
     </g>
     <g id="text_11">
      <!-- −4 -->
      <defs>
       <path d="M 37.796875 64.3125 
L 12.890625 25.390625 
L 37.796875 25.390625 
z
M 35.203125 72.90625 
L 47.609375 72.90625 
L 47.609375 25.390625 
L 58.015625 25.390625 
L 58.015625 17.1875 
L 47.609375 17.1875 
L 47.609375 0 
L 37.796875 0 
L 37.796875 17.1875 
L 4.890625 17.1875 
L 4.890625 26.703125 
z
" id="DejaVuSans-52"/>
      </defs>
      <g transform="translate(43.948438 315.9737)scale(0.3 -0.3)">
       <use xlink:href="#DejaVuSans-8722"/>
       <use x="83.789062" xlink:href="#DejaVuSans-52"/>
      </g>
     </g>
    </g>
    <g id="ytick_5">
     <g id="line2d_11">
      <g>
       <use style="stroke:#000000;stroke-width:0.8;" x="95.175" xlink:href="#m5ff7ea0b0a" y="245.345362"/>
      </g>
     </g>
     <g id="text_12">
      <!-- −3 -->
      <defs>
       <path d="M 40.578125 39.3125 
Q 47.65625 37.796875 51.625 33 
Q 55.609375 28.21875 55.609375 21.1875 
Q 55.609375 10.40625 48.1875 4.484375 
Q 40.765625 -1.421875 27.09375 -1.421875 
Q 22.515625 -1.421875 17.65625 -0.515625 
Q 12.796875 0.390625 7.625 2.203125 
L 7.625 11.71875 
Q 11.71875 9.328125 16.59375 8.109375 
Q 21.484375 6.890625 26.8125 6.890625 
Q 36.078125 6.890625 40.9375 10.546875 
Q 45.796875 14.203125 45.796875 21.1875 
Q 45.796875 27.640625 41.28125 31.265625 
Q 36.765625 34.90625 28.71875 34.90625 
L 20.21875 34.90625 
L 20.21875 43.015625 
L 29.109375 43.015625 
Q 36.375 43.015625 40.234375 45.921875 
Q 44.09375 48.828125 44.09375 54.296875 
Q 44.09375 59.90625 40.109375 62.90625 
Q 36.140625 65.921875 28.71875 65.921875 
Q 24.65625 65.921875 20.015625 65.03125 
Q 15.375 64.15625 9.8125 62.3125 
L 9.8125 71.09375 
Q 15.4375 72.65625 20.34375 73.4375 
Q 25.25 74.21875 29.59375 74.21875 
Q 40.828125 74.21875 47.359375 69.109375 
Q 53.90625 64.015625 53.90625 55.328125 
Q 53.90625 49.265625 50.4375 45.09375 
Q 46.96875 40.921875 40.578125 39.3125 
z
" id="DejaVuSans-51"/>
      </defs>
      <g transform="translate(43.948438 256.743018)scale(0.3 -0.3)">
       <use xlink:href="#DejaVuSans-8722"/>
       <use x="83.789062" xlink:href="#DejaVuSans-51"/>
      </g>
     </g>
    </g>
    <g id="ytick_6">
     <g id="line2d_12">
      <g>
       <use style="stroke:#000000;stroke-width:0.8;" x="95.175" xlink:href="#m5ff7ea0b0a" y="186.114681"/>
      </g>
     </g>
     <g id="text_13">
      <!-- −2 -->
      <g transform="translate(43.948438 197.512337)scale(0.3 -0.3)">
       <use xlink:href="#DejaVuSans-8722"/>
       <use x="83.789062" xlink:href="#DejaVuSans-50"/>
      </g>
     </g>
    </g>
    <g id="ytick_7">
     <g id="line2d_13">
      <g>
       <use style="stroke:#000000;stroke-width:0.8;" x="95.175" xlink:href="#m5ff7ea0b0a" y="126.883999"/>
      </g>
     </g>
     <g id="text_14">
      <!-- −1 -->
      <g transform="translate(43.948438 138.281655)scale(0.3 -0.3)">
       <use xlink:href="#DejaVuSans-8722"/>
       <use x="83.789062" xlink:href="#DejaVuSans-49"/>
      </g>
     </g>
    </g>
    <g id="ytick_8">
     <g id="line2d_14">
      <g>
       <use style="stroke:#000000;stroke-width:0.8;" x="95.175" xlink:href="#m5ff7ea0b0a" y="67.653318"/>
      </g>
     </g>
     <g id="text_15">
      <!-- 0 -->
      <g transform="translate(69.0875 79.050974)scale(0.3 -0.3)">
       <use xlink:href="#DejaVuSans-48"/>
      </g>
     </g>
    </g>
    <g id="text_16">
     <!-- Weight Value -->
     <defs>
      <path d="M 3.328125 72.90625 
L 13.28125 72.90625 
L 28.609375 11.28125 
L 43.890625 72.90625 
L 54.984375 72.90625 
L 70.3125 11.28125 
L 85.59375 72.90625 
L 95.609375 72.90625 
L 77.296875 0 
L 64.890625 0 
L 49.515625 63.28125 
L 33.984375 0 
L 21.578125 0 
z
" id="DejaVuSans-87"/>
      <path d="M 45.40625 27.984375 
Q 45.40625 37.75 41.375 43.109375 
Q 37.359375 48.484375 30.078125 48.484375 
Q 22.859375 48.484375 18.828125 43.109375 
Q 14.796875 37.75 14.796875 27.984375 
Q 14.796875 18.265625 18.828125 12.890625 
Q 22.859375 7.515625 30.078125 7.515625 
Q 37.359375 7.515625 41.375 12.890625 
Q 45.40625 18.265625 45.40625 27.984375 
z
M 54.390625 6.78125 
Q 54.390625 -7.171875 48.1875 -13.984375 
Q 42 -20.796875 29.203125 -20.796875 
Q 24.46875 -20.796875 20.265625 -20.09375 
Q 16.0625 -19.390625 12.109375 -17.921875 
L 12.109375 -9.1875 
Q 16.0625 -11.328125 19.921875 -12.34375 
Q 23.78125 -13.375 27.78125 -13.375 
Q 36.625 -13.375 41.015625 -8.765625 
Q 45.40625 -4.15625 45.40625 5.171875 
L 45.40625 9.625 
Q 42.625 4.78125 38.28125 2.390625 
Q 33.9375 0 27.875 0 
Q 17.828125 0 11.671875 7.65625 
Q 5.515625 15.328125 5.515625 27.984375 
Q 5.515625 40.671875 11.671875 48.328125 
Q 17.828125 56 27.875 56 
Q 33.9375 56 38.28125 53.609375 
Q 42.625 51.21875 45.40625 46.390625 
L 45.40625 54.6875 
L 54.390625 54.6875 
z
" id="DejaVuSans-103"/>
      <path d="M 54.890625 33.015625 
L 54.890625 0 
L 45.90625 0 
L 45.90625 32.71875 
Q 45.90625 40.484375 42.875 44.328125 
Q 39.84375 48.1875 33.796875 48.1875 
Q 26.515625 48.1875 22.3125 43.546875 
Q 18.109375 38.921875 18.109375 30.90625 
L 18.109375 0 
L 9.078125 0 
L 9.078125 75.984375 
L 18.109375 75.984375 
L 18.109375 46.1875 
Q 21.34375 51.125 25.703125 53.5625 
Q 30.078125 56 35.796875 56 
Q 45.21875 56 50.046875 50.171875 
Q 54.890625 44.34375 54.890625 33.015625 
z
" id="DejaVuSans-104"/>
      <path d="M 28.609375 0 
L 0.78125 72.90625 
L 11.078125 72.90625 
L 34.1875 11.53125 
L 57.328125 72.90625 
L 67.578125 72.90625 
L 39.796875 0 
z
" id="DejaVuSans-86"/>
      <path d="M 9.421875 75.984375 
L 18.40625 75.984375 
L 18.40625 0 
L 9.421875 0 
z
" id="DejaVuSans-108"/>
      <path d="M 8.5 21.578125 
L 8.5 54.6875 
L 17.484375 54.6875 
L 17.484375 21.921875 
Q 17.484375 14.15625 20.5 10.265625 
Q 23.53125 6.390625 29.59375 6.390625 
Q 36.859375 6.390625 41.078125 11.03125 
Q 45.3125 15.671875 45.3125 23.6875 
L 45.3125 54.6875 
L 54.296875 54.6875 
L 54.296875 0 
L 45.3125 0 
L 45.3125 8.40625 
Q 42.046875 3.421875 37.71875 1 
Q 33.40625 -1.421875 27.6875 -1.421875 
Q 18.265625 -1.421875 13.375 4.4375 
Q 8.5 10.296875 8.5 21.578125 
z
M 31.109375 56 
z
" id="DejaVuSans-117"/>
     </defs>
     <g transform="translate(33.709375 353.732813)rotate(-90)scale(0.3 -0.3)">
      <use xlink:href="#DejaVuSans-87"/>
      <use x="98.798828" xlink:href="#DejaVuSans-101"/>
      <use x="160.322266" xlink:href="#DejaVuSans-105"/>
      <use x="188.105469" xlink:href="#DejaVuSans-103"/>
      <use x="251.582031" xlink:href="#DejaVuSans-104"/>
      <use x="314.960938" xlink:href="#DejaVuSans-116"/>
      <use x="354.169922" xlink:href="#DejaVuSans-32"/>
      <use x="385.957031" xlink:href="#DejaVuSans-86"/>
      <use x="454.255859" xlink:href="#DejaVuSans-97"/>
      <use x="515.535156" xlink:href="#DejaVuSans-108"/>
      <use x="543.318359" xlink:href="#DejaVuSans-117"/>
      <use x="606.697266" xlink:href="#DejaVuSans-101"/>
     </g>
    </g>
   </g>
   <g id="line2d_15">
    <path clip-path="url(#p41be35d4f5)" d="M 156.759221 59.896655 
L 161.492828 64.308013 
L 166.226434 73.234067 
L 170.960041 77.193536 
L 175.693648 49.366426 
L 180.427254 64.458435 
L 185.160861 78.971633 
L 189.894467 48.594468 
L 194.628074 66.227305 
L 199.36168 70.493998 
L 204.095287 70.126564 
L 208.828893 94.511357 
L 213.5625 72.056869 
L 218.296107 66.609686 
L 223.029713 65.51363 
L 227.76332 71.732407 
L 232.496926 67.811708 
L 237.230533 60.068286 
L 241.964139 59.239349 
L 246.697746 85.267574 
L 251.431352 72.255298 
L 256.164959 58.234312 
L 260.898566 49.015111 
L 265.632172 63.003261 
L 270.365779 69.452057 
L 275.099385 78.31971 
L 279.832992 66.465104 
L 284.566598 70.719857 
L 289.300205 49.289473 
L 294.033811 64.53811 
L 298.767418 81.038006 
L 303.501025 71.806002 
L 308.234631 90.915336 
L 312.968238 61.51084 
L 317.701844 89.481125 
L 322.435451 65.49411 
L 327.169057 48.289346 
L 331.902664 103.34181 
L 336.63627 64.825331 
L 341.369877 66.972189 
L 346.103484 70.232186 
L 350.83709 53.870772 
L 355.570697 76.329345 
L 360.304303 74.995722 
L 365.03791 66.511546 
L 369.771516 86.849123 
L 374.505123 67.788661 
L 379.23873 33.794065 
L 383.972336 79.227584 
L 388.705943 84.549693 
L 393.439549 47.187485 
L 398.173156 84.753301 
L 402.906762 75.24771 
L 407.640369 57.777717 
L 412.373975 63.511412 
L 417.107582 93.295719 
L 421.841189 77.90293 
L 426.574795 80.564423 
L 431.308402 78.610773 
L 436.042008 78.235126 
L 440.775615 41.376978 
L 445.509221 72.891537 
L 450.242828 37.78778 
L 454.976434 59.685682 
L 459.710041 49.578743 
L 469.177254 68.203584 
L 473.910861 57.709276 
L 478.644467 57.186895 
L 483.378074 69.438849 
L 488.11168 64.925071 
L 492.845287 53.663165 
L 497.578893 55.264809 
L 502.3125 63.841186 
L 507.046107 62.400248 
L 511.779713 62.086621 
L 516.51332 62.942114 
L 521.246926 86.995517 
L 525.980533 93.087396 
L 530.714139 69.667759 
L 535.447746 68.41623 
L 540.181352 74.350586 
L 544.914959 62.040396 
L 549.648566 46.814517 
L 554.382172 62.503468 
L 559.115779 66.881664 
L 563.849385 57.564866 
L 568.582992 82.688992 
L 573.316598 50.36806 
L 578.050205 78.273253 
L 582.783811 81.826611 
L 587.517418 70.801357 
L 592.251025 77.164861 
L 596.984631 88.083497 
L 601.718238 77.102307 
L 606.451844 74.478606 
L 611.185451 68.969369 
L 615.919057 47.246011 
L 620.652664 84.931979 
L 625.38627 74.67302 
L 630.119877 62.394375 
L 634.853484 68.161042 
L 639.58709 67.054626 
L 644.320697 54.394162 
L 649.054303 54.687795 
L 653.78791 80.121712 
L 658.521516 59.597121 
L 663.255123 38.414523 
L 667.98873 67.313074 
L 672.722336 94.954125 
L 677.455943 72.89973 
L 682.189549 46.482579 
L 686.923156 54.098372 
L 691.656762 75.124731 
L 696.390369 60.064679 
L 701.123975 85.558566 
L 705.857582 84.966886 
L 710.591189 70.474675 
L 715.324795 83.537932 
L 720.058402 62.612067 
L 724.792008 80.277106 
L 729.525615 74.978622 
L 734.259221 72.725077 
L 738.992828 82.704063 
L 743.726434 60.797392 
L 748.460041 68.706336 
L 753.193648 73.555159 
L 757.927254 68.393333 
L 762.660861 75.251205 
L 767.394467 59.940113 
L 772.128074 77.418567 
L 776.86168 75.102014 
L 781.595287 60.370503 
L 786.328893 75.196494 
L 791.0625 71.579002 
L 795.796107 46.183076 
L 800.529713 89.799897 
L 805.26332 76.281091 
L 809.996926 66.518614 
L 814.730533 32.863636 
L 819.464139 81.387663 
L 824.197746 86.213599 
L 828.931352 87.802521 
L 833.664959 89.55063 
L 838.398566 78.478348 
L 843.132172 65.123934 
L 847.865779 37.871963 
L 852.599385 58.309815 
L 857.332992 51.627498 
L 862.066598 78.49884 
L 866.800205 69.705933 
L 871.533811 77.166813 
L 876.267418 79.435455 
L 881.001025 67.523709 
L 885.734631 45.399389 
L 890.468238 87.389573 
L 895.201844 61.166951 
L 899.935451 73.37075 
L 904.669057 79.925115 
L 909.402664 82.018505 
L 914.13627 85.05123 
L 918.869877 65.232506 
L 923.603484 82.441229 
L 928.33709 55.041905 
L 933.070697 58.813535 
L 937.804303 78.891524 
L 942.53791 67.77179 
L 947.271516 78.048981 
L 952.005123 60.55561 
L 956.73873 47.557696 
L 961.472336 86.845797 
L 966.205943 67.809233 
L 970.939549 55.445608 
L 975.673156 76.283767 
L 980.406762 46.760449 
L 985.140369 85.794702 
L 989.873975 52.807544 
L 994.607582 60.194982 
L 999.341189 73.502492 
L 1004.074795 56.520551 
L 1008.808402 74.100583 
L 1013.542008 67.710695 
L 1018.275615 46.927335 
L 1023.009221 82.18715 
L 1027.742828 82.158329 
L 1032.476434 86.118151 
L 1037.210041 62.190497 
L 1041.943648 81.112087 
L 1046.677254 56.245055 
L 1051.410861 81.519029 
L 1056.144467 70.13085 
L 1060.878074 50.16709 
L 1065.61168 77.551742 
L 1070.345287 66.325315 
L 1075.078893 71.105093 
L 1079.8125 65.187361 
L 1084.546107 58.415956 
L 1089.279713 79.967012 
L 1094.01332 64.997972 
L 1098.746926 56.424969 
L 1103.480533 69.896394 
L 1108.214139 102.471179 
L 1112.947746 72.882254 
L 1117.681352 60.70042 
L 1122.414959 66.733682 
L 1127.148566 70.954411 
L 1131.882172 74.562994 
L 1136.615779 64.18175 
L 1141.349385 56.112661 
L 1146.082992 55.853912 
L 1150.816598 75.038753 
L 1155.550205 35.658634 
L 1160.283811 35.583549 
L 1165.017418 53.412789 
L 1169.751025 80.034063 
L 1174.484631 67.365068 
L 1179.218238 76.979944 
L 1183.951844 47.366167 
L 1188.685451 80.194133 
L 1193.419057 68.033179 
L 1198.152664 62.072229 
L 1202.88627 63.388521 
L 1207.619877 57.155945 
L 1212.353484 85.257285 
L 1217.08709 40.816553 
L 1221.820697 62.354816 
L 1226.554303 58.99793 
L 1231.28791 56.362907 
L 1236.021516 60.982021 
L 1240.755123 43.381828 
L 1245.48873 53.086192 
L 1250.222336 74.030224 
L 1254.955943 70.310771 
L 1259.689549 84.24528 
L 1264.423156 58.672212 
L 1269.156762 71.033664 
L 1273.890369 79.297461 
L 1278.623975 53.919814 
L 1283.357582 63.334909 
L 1288.091189 64.574167 
L 1292.824795 58.341441 
L 1297.558402 64.870583 
L 1302.292008 63.152748 
L 1307.025615 55.543536 
L 1311.759221 67.592092 
L 1316.492828 66.338452 
L 1321.226434 72.294192 
L 1325.960041 72.52216 
L 1330.693648 70.652273 
L 1335.427254 57.821064 
L 1340.160861 61.818968 
L 1344.894467 55.636425 
L 1349.628074 80.948873 
L 1354.36168 63.655526 
L 1359.095287 60.167333 
L 1363.828893 42.983306 
L 1363.828893 42.983306 
" style="fill:none;stroke:#1f77b4;stroke-linecap:square;stroke-width:1.5;"/>
   </g>
   <g id="line2d_16">
    <path clip-path="url(#p41be35d4f5)" d="M 156.759221 63.16517 
L 161.492828 62.422742 
L 170.960041 53.829173 
L 175.693648 449.826035 
L 180.427254 85.559904 
L 185.160861 86.852023 
L 189.894467 474.136364 
L 194.628074 61.879614 
L 199.36168 49.47721 
L 204.095287 75.93348 
L 208.828893 65.790814 
L 213.5625 90.293542 
L 218.296107 66.272661 
L 223.029713 55.330276 
L 227.76332 57.182467 
L 232.496926 77.232417 
L 237.230533 62.074631 
L 241.964139 78.105581 
L 246.697746 67.562707 
L 251.431352 87.900015 
L 256.164959 52.492181 
L 260.898566 77.174033 
L 265.632172 63.457077 
L 270.365779 62.465544 
L 275.099385 61.022713 
L 279.832992 63.944388 
L 284.566598 55.057243 
L 289.300205 75.498219 
L 294.033811 94.812059 
L 298.767418 44.146761 
L 303.501025 63.762893 
L 308.234631 56.955143 
L 312.968238 84.614612 
L 317.701844 43.285184 
L 322.435451 62.952185 
L 327.169057 64.11064 
L 331.902664 71.750267 
L 336.63627 55.104589 
L 341.369877 60.02716 
L 346.103484 64.698607 
L 350.83709 76.919138 
L 355.570697 70.026714 
L 360.304303 64.903707 
L 365.03791 61.721578 
L 369.771516 73.871901 
L 374.505123 73.578326 
L 379.23873 46.551984 
L 383.972336 69.404934 
L 388.705943 71.799985 
L 393.439549 96.419325 
L 398.173156 72.340073 
L 402.906762 67.352867 
L 407.640369 79.941785 
L 412.373975 62.524185 
L 417.107582 71.195044 
L 421.841189 94.199635 
L 426.574795 63.663557 
L 431.308402 81.551162 
L 436.042008 62.391747 
L 440.775615 55.522194 
L 445.509221 48.035929 
L 450.242828 59.635279 
L 454.976434 76.033022 
L 459.710041 63.84257 
L 464.443648 61.557371 
L 469.177254 53.224978 
L 473.910861 61.718282 
L 478.644467 77.969956 
L 483.378074 76.98335 
L 488.11168 69.651154 
L 492.845287 81.479432 
L 497.578893 84.934218 
L 502.3125 80.023923 
L 507.046107 68.80789 
L 511.779713 55.545846 
L 516.51332 78.609376 
L 521.246926 71.818939 
L 525.980533 64.279201 
L 530.714139 55.876778 
L 535.447746 72.151392 
L 540.181352 42.277093 
L 544.914959 58.147081 
L 549.648566 66.154188 
L 554.382172 96.695575 
L 559.115779 72.898 
L 563.849385 78.187626 
L 568.582992 52.130394 
L 573.316598 69.430533 
L 578.050205 67.181602 
L 582.783811 74.749086 
L 587.517418 46.785864 
L 592.251025 67.5592 
L 596.984631 55.775967 
L 601.718238 72.875772 
L 606.451844 90.430171 
L 611.185451 45.30758 
L 615.919057 57.235172 
L 620.652664 73.92871 
L 625.38627 38.534544 
L 630.119877 56.438979 
L 634.853484 95.735591 
L 639.58709 63.40774 
L 644.320697 80.294665 
L 649.054303 51.941603 
L 653.78791 72.360897 
L 658.521516 70.553639 
L 663.255123 59.094159 
L 667.98873 75.637869 
L 672.722336 62.490679 
L 677.455943 81.823946 
L 682.189549 64.546243 
L 686.923156 98.13339 
L 691.656762 77.667391 
L 696.390369 67.601641 
L 701.123975 69.821692 
L 705.857582 71.70345 
L 710.591189 54.727644 
L 715.324795 58.778109 
L 720.058402 75.416155 
L 724.792008 57.75033 
L 729.525615 50.13747 
L 734.259221 69.830996 
L 738.992828 74.726705 
L 743.726434 66.62444 
L 748.460041 57.463413 
L 753.193648 64.08292 
L 757.927254 67.613835 
L 762.660861 63.399617 
L 767.394467 67.841459 
L 772.128074 62.038306 
L 776.86168 62.43836 
L 781.595287 66.939326 
L 786.328893 57.739175 
L 791.0625 75.033954 
L 795.796107 71.698781 
L 800.529713 64.460885 
L 805.26332 74.223886 
L 809.996926 53.325944 
L 814.730533 80.022506 
L 819.464139 79.65758 
L 824.197746 72.868023 
L 828.931352 87.259379 
L 833.664959 65.736658 
L 838.398566 54.881338 
L 843.132172 68.71866 
L 847.865779 78.440027 
L 852.599385 73.338942 
L 857.332992 67.146694 
L 862.066598 62.899063 
L 866.800205 85.606091 
L 871.533811 62.860089 
L 876.267418 79.223945 
L 881.001025 82.602878 
L 885.734631 62.780725 
L 890.468238 52.93502 
L 895.201844 55.542345 
L 899.935451 92.047909 
L 904.669057 81.746295 
L 909.402664 70.44651 
L 914.13627 70.279353 
L 918.869877 82.358007 
L 923.603484 73.362459 
L 928.33709 86.41003 
L 933.070697 64.703003 
L 937.804303 63.467692 
L 942.53791 76.086447 
L 947.271516 82.461691 
L 952.005123 57.907444 
L 956.73873 69.259968 
L 961.472336 83.365811 
L 966.205943 96.725826 
L 970.939549 53.289925 
L 975.673156 66.112688 
L 980.406762 60.748368 
L 985.140369 71.147748 
L 989.873975 84.412718 
L 994.607582 63.321665 
L 999.341189 78.672026 
L 1004.074795 61.879576 
L 1008.808402 66.029437 
L 1013.542008 62.015603 
L 1018.275615 72.793898 
L 1023.009221 58.733973 
L 1027.742828 78.521167 
L 1032.476434 65.752687 
L 1037.210041 79.476475 
L 1041.943648 55.394315 
L 1046.677254 88.411802 
L 1051.410861 64.678258 
L 1056.144467 77.876594 
L 1060.878074 50.904306 
L 1065.61168 71.288265 
L 1070.345287 82.726771 
L 1075.078893 62.511434 
L 1079.8125 66.329948 
L 1084.546107 66.526247 
L 1089.279713 73.648085 
L 1094.01332 59.940519 
L 1098.746926 47.798488 
L 1103.480533 65.272356 
L 1108.214139 67.822085 
L 1112.947746 82.098767 
L 1117.681352 58.035335 
L 1122.414959 69.271891 
L 1127.148566 57.71305 
L 1131.882172 73.680722 
L 1136.615779 62.071832 
L 1141.349385 82.697897 
L 1146.082992 97.988473 
L 1150.816598 77.815598 
L 1155.550205 92.621721 
L 1160.283811 63.485875 
L 1165.017418 80.247708 
L 1169.751025 58.435554 
L 1174.484631 45.553916 
L 1179.218238 73.266377 
L 1183.951844 53.802938 
L 1188.685451 72.806215 
L 1193.419057 89.058642 
L 1198.152664 54.593409 
L 1202.88627 68.249466 
L 1207.619877 69.926137 
L 1212.353484 67.908948 
L 1217.08709 72.191575 
L 1221.820697 83.951916 
L 1226.554303 54.154727 
L 1231.28791 68.510629 
L 1236.021516 72.250994 
L 1240.755123 93.353856 
L 1245.48873 55.357804 
L 1250.222336 56.553532 
L 1254.955943 92.754987 
L 1259.689549 59.487465 
L 1264.423156 77.352125 
L 1269.156762 48.906085 
L 1273.890369 63.271173 
L 1278.623975 59.347131 
L 1283.357582 82.061433 
L 1288.091189 57.112657 
L 1292.824795 49.235212 
L 1297.558402 63.006154 
L 1302.292008 56.824642 
L 1307.025615 56.981863 
L 1311.759221 66.379514 
L 1316.492828 78.443426 
L 1321.226434 64.686843 
L 1325.960041 56.51398 
L 1330.693648 66.040748 
L 1335.427254 86.283493 
L 1340.160861 70.491484 
L 1344.894467 63.242467 
L 1349.628074 70.42039 
L 1354.36168 62.599972 
L 1359.095287 75.989628 
L 1363.828893 61.388526 
L 1363.828893 61.388526 
" style="fill:none;stroke:#ff7f0e;stroke-linecap:square;stroke-width:1.5;"/>
   </g>
   <g id="line2d_17">
    <path clip-path="url(#p41be35d4f5)" d="M 156.759221 67.333713 
L 161.492828 79.554326 
L 166.226434 62.075709 
L 170.960041 56.897179 
L 175.693648 69.037937 
L 180.427254 68.828935 
L 185.160861 57.179716 
L 189.894467 78.318477 
L 194.628074 53.939199 
L 199.36168 86.450918 
L 204.095287 52.4179 
L 208.828893 84.785802 
L 213.5625 60.532793 
L 218.296107 68.153461 
L 223.029713 59.723301 
L 227.76332 68.63175 
L 232.496926 93.704724 
L 237.230533 83.131601 
L 241.964139 63.796825 
L 246.697746 67.20384 
L 251.431352 64.958184 
L 256.164959 42.395378 
L 260.898566 78.087719 
L 265.632172 63.956528 
L 270.365779 86.828371 
L 275.099385 57.831187 
L 279.832992 57.21826 
L 284.566598 77.946363 
L 289.300205 47.142444 
L 294.033811 73.308765 
L 298.767418 74.685814 
L 303.501025 80.394005 
L 308.234631 67.767795 
L 312.968238 92.534655 
L 317.701844 77.440617 
L 322.435451 79.956574 
L 327.169057 89.08478 
L 331.902664 63.265939 
L 336.63627 64.807785 
L 341.369877 57.333269 
L 346.103484 80.695823 
L 350.83709 78.190958 
L 355.570697 80.982026 
L 360.304303 62.129631 
L 365.03791 72.733652 
L 369.771516 65.336243 
L 374.505123 52.54503 
L 379.23873 91.689641 
L 383.972336 87.070595 
L 388.705943 53.239201 
L 393.439549 69.335987 
L 398.173156 63.549437 
L 402.906762 53.286428 
L 407.640369 58.147949 
L 412.373975 93.670933 
L 417.107582 78.870018 
L 421.841189 72.301002 
L 426.574795 49.161737 
L 431.308402 69.645078 
L 436.042008 88.938769 
L 440.775615 39.533684 
L 445.509221 43.18388 
L 450.242828 71.059958 
L 454.976434 52.496483 
L 459.710041 52.348491 
L 464.443648 47.69746 
L 469.177254 57.166252 
L 473.910861 61.322183 
L 478.644467 71.227548 
L 483.378074 56.248649 
L 488.11168 67.565368 
L 492.845287 77.073282 
L 497.578893 61.893473 
L 502.3125 66.978975 
L 507.046107 60.010283 
L 511.779713 51.6685 
L 516.51332 54.856363 
L 521.246926 53.800623 
L 525.980533 59.787997 
L 530.714139 45.716956 
L 535.447746 58.453023 
L 540.181352 81.369815 
L 544.914959 59.834051 
L 549.648566 83.350081 
L 559.115779 56.78356 
L 563.849385 68.732231 
L 568.582992 52.50738 
L 573.316598 68.498449 
L 578.050205 54.723505 
L 582.783811 91.032843 
L 587.517418 54.117886 
L 592.251025 72.655975 
L 596.984631 82.17411 
L 601.718238 62.505667 
L 606.451844 52.051251 
L 611.185451 49.586127 
L 615.919057 53.690202 
L 620.652664 71.801556 
L 625.38627 76.179334 
L 630.119877 66.64491 
L 634.853484 92.280989 
L 639.58709 64.386897 
L 644.320697 70.327182 
L 649.054303 58.08478 
L 653.78791 77.438651 
L 658.521516 74.794701 
L 663.255123 36.296726 
L 667.98873 77.281879 
L 672.722336 68.097317 
L 677.455943 61.15649 
L 682.189549 75.582646 
L 686.923156 62.664931 
L 691.656762 96.790644 
L 696.390369 81.829673 
L 701.123975 64.312751 
L 705.857582 75.624893 
L 710.591189 66.361315 
L 715.324795 65.191773 
L 720.058402 64.607002 
L 724.792008 65.300093 
L 729.525615 72.144299 
L 734.259221 93.729045 
L 738.992828 83.537241 
L 743.726434 70.5914 
L 748.460041 54.063457 
L 753.193648 67.387594 
L 757.927254 76.537976 
L 762.660861 60.238074 
L 767.394467 78.999012 
L 772.128074 90.800901 
L 776.86168 84.818252 
L 781.595287 54.659044 
L 786.328893 54.917315 
L 791.0625 82.329615 
L 795.796107 66.167946 
L 800.529713 69.773541 
L 805.26332 84.314402 
L 809.996926 70.257025 
L 814.730533 77.660288 
L 819.464139 74.308244 
L 824.197746 82.264746 
L 828.931352 64.389413 
L 833.664959 46.020869 
L 838.398566 88.118219 
L 843.132172 68.458664 
L 847.865779 40.221428 
L 852.599385 80.693616 
L 857.332992 54.803083 
L 862.066598 69.453382 
L 866.800205 102.470777 
L 871.533811 70.266323 
L 876.267418 67.521139 
L 881.001025 64.316099 
L 885.734631 86.183601 
L 890.468238 62.875339 
L 895.201844 61.623408 
L 899.935451 55.728035 
L 904.669057 47.376705 
L 909.402664 77.898142 
L 914.13627 67.103392 
L 918.869877 62.703281 
L 923.603484 65.670184 
L 928.33709 77.175812 
L 933.070697 70.224367 
L 937.804303 74.062566 
L 942.53791 88.260075 
L 947.271516 49.92159 
L 952.005123 56.422715 
L 956.73873 57.937289 
L 961.472336 78.044158 
L 966.205943 71.08348 
L 970.939549 59.411825 
L 975.673156 66.307834 
L 985.140369 73.712191 
L 989.873975 59.347677 
L 994.607582 52.793637 
L 999.341189 53.825562 
L 1004.074795 70.464409 
L 1008.808402 74.639375 
L 1013.542008 44.273519 
L 1018.275615 54.430448 
L 1023.009221 83.215615 
L 1027.742828 47.455082 
L 1032.476434 66.368025 
L 1037.210041 70.314243 
L 1041.943648 51.381863 
L 1046.677254 64.539881 
L 1051.410861 67.586453 
L 1056.144467 77.757153 
L 1060.878074 72.954904 
L 1065.61168 69.873374 
L 1070.345287 77.000748 
L 1075.078893 57.629288 
L 1079.8125 62.621427 
L 1084.546107 54.061106 
L 1089.279713 53.181134 
L 1094.01332 70.130611 
L 1098.746926 76.754954 
L 1103.480533 64.189053 
L 1108.214139 73.490419 
L 1112.947746 55.236065 
L 1117.681352 87.584498 
L 1122.414959 84.99402 
L 1127.148566 71.641192 
L 1131.882172 92.366122 
L 1136.615779 49.87833 
L 1141.349385 50.593906 
L 1146.082992 75.411222 
L 1150.816598 87.410824 
L 1155.550205 98.774296 
L 1160.283811 54.245278 
L 1165.017418 73.586227 
L 1169.751025 57.403234 
L 1174.484631 56.647601 
L 1179.218238 69.434215 
L 1183.951844 71.383172 
L 1188.685451 79.409393 
L 1193.419057 80.048125 
L 1198.152664 94.451336 
L 1202.88627 61.836672 
L 1207.619877 66.801005 
L 1212.353484 65.392125 
L 1217.08709 57.598646 
L 1221.820697 106.559533 
L 1226.554303 44.880835 
L 1231.28791 70.428762 
L 1236.021516 63.910548 
L 1240.755123 56.346376 
L 1245.48873 71.965808 
L 1250.222336 71.368791 
L 1254.955943 95.080523 
L 1259.689549 68.509067 
L 1264.423156 64.688371 
L 1269.156762 64.809651 
L 1273.890369 68.350745 
L 1278.623975 69.169139 
L 1283.357582 67.217753 
L 1288.091189 51.562499 
L 1292.824795 41.532535 
L 1297.558402 66.184016 
L 1302.292008 59.836037 
L 1307.025615 72.518975 
L 1311.759221 44.80109 
L 1316.492828 62.445607 
L 1321.226434 66.129583 
L 1325.960041 39.95006 
L 1330.693648 51.327751 
L 1335.427254 65.608221 
L 1340.160861 54.289548 
L 1344.894467 85.908623 
L 1349.628074 68.872559 
L 1354.36168 46.882218 
L 1359.095287 69.068852 
L 1363.828893 81.478495 
L 1363.828893 81.478495 
" style="fill:none;stroke:#2ca02c;stroke-linecap:square;stroke-width:1.5;"/>
   </g>
   <g id="patch_13">
    <path d="M 95.175 496.2 
L 95.175 10.8 
" style="fill:none;stroke:#000000;stroke-linecap:square;stroke-linejoin:miter;stroke-width:0.8;"/>
   </g>
   <g id="patch_14">
    <path d="M 1429.2 496.2 
L 1429.2 10.8 
" style="fill:none;stroke:#000000;stroke-linecap:square;stroke-linejoin:miter;stroke-width:0.8;"/>
   </g>
   <g id="patch_15">
    <path d="M 95.175 496.2 
L 1429.2 496.2 
" style="fill:none;stroke:#000000;stroke-linecap:square;stroke-linejoin:miter;stroke-width:0.8;"/>
   </g>
   <g id="patch_16">
    <path d="M 95.175 10.8 
L 1429.2 10.8 
" style="fill:none;stroke:#000000;stroke-linecap:square;stroke-linejoin:miter;stroke-width:0.8;"/>
   </g>
  </g>
 </g>
 <defs>
  <clipPath id="p41be35d4f5">
   <rect height="485.4" width="1334.025" x="95.175" y="10.8"/>
  </clipPath>
 </defs>
</svg>
