<?xml version="1.0" encoding="utf-8" standalone="no"?>
<!DOCTYPE svg PUBLIC "-//W3C//DTD SVG 1.1//EN"
  "http://www.w3.org/Graphics/SVG/1.1/DTD/svg11.dtd">
<!-- Created with matplotlib (https://matplotlib.org/) -->
<svg height="576pt" version="1.1" viewBox="0 0 1440 576" width="1440pt" xmlns="http://www.w3.org/2000/svg" xmlns:xlink="http://www.w3.org/1999/xlink">
 <defs>
  <style type="text/css">
*{stroke-linecap:butt;stroke-linejoin:round;white-space:pre;}
  </style>
 </defs>
 <g id="figure_1">
  <g id="patch_1">
   <path d="M 0 576 
L 1440 576 
L 1440 0 
L 0 0 
z
" style="fill:#ffffff;"/>
  </g>
  <g id="axes_1">
   <g id="patch_2">
    <path d="M 95.05 496.2 
L 1429.2 496.2 
L 1429.2 19.955291 
L 95.05 19.955291 
z
" style="fill:#ffffff;"/>
   </g>
   <g id="patch_3">
    <path clip-path="url(#pb8c8313f6a)" d="M 155.693182 496.2 
L 155.693182 19.955291 
L 156.639992 19.955291 
L 156.639992 496.2 
z
" style="fill:#0000ff;"/>
   </g>
   <g id="patch_4">
    <path clip-path="url(#pb8c8313f6a)" d="M 160.427232 496.2 
L 160.427232 19.955291 
L 161.374042 19.955291 
L 161.374042 496.2 
z
" style="fill:#0000ff;"/>
   </g>
   <g id="patch_5">
    <path clip-path="url(#pb8c8313f6a)" d="M 198.299633 496.2 
L 198.299633 19.955291 
L 199.246443 19.955291 
L 199.246443 496.2 
z
" style="fill:#0000ff;"/>
   </g>
   <g id="patch_6">
    <path clip-path="url(#pb8c8313f6a)" d="M 330.853036 496.2 
L 330.853036 19.955291 
L 331.799846 19.955291 
L 331.799846 496.2 
z
" style="fill:#0000ff;"/>
   </g>
   <g id="patch_7">
    <path clip-path="url(#pb8c8313f6a)" d="M 595.959841 496.2 
L 595.959841 19.955291 
L 596.906651 19.955291 
L 596.906651 496.2 
z
" style="fill:#0000ff;"/>
   </g>
   <g id="patch_8">
    <path clip-path="url(#pb8c8313f6a)" d="M 927.343349 496.2 
L 927.343349 19.955291 
L 928.290159 19.955291 
L 928.290159 496.2 
z
" style="fill:#0000ff;"/>
   </g>
   <g id="patch_9">
    <path clip-path="url(#pb8c8313f6a)" d="M 1192.450154 496.2 
L 1192.450154 19.955291 
L 1193.396964 19.955291 
L 1193.396964 496.2 
z
" style="fill:#0000ff;"/>
   </g>
   <g id="patch_10">
    <path clip-path="url(#pb8c8313f6a)" d="M 1325.003557 496.2 
L 1325.003557 19.955291 
L 1325.950367 19.955291 
L 1325.950367 496.2 
z
" style="fill:#0000ff;"/>
   </g>
   <g id="patch_11">
    <path clip-path="url(#pb8c8313f6a)" d="M 1362.875958 496.2 
L 1362.875958 19.955291 
L 1363.822768 19.955291 
L 1363.822768 496.2 
z
" style="fill:#0000ff;"/>
   </g>
   <g id="patch_12">
    <path clip-path="url(#pb8c8313f6a)" d="M 1367.610008 496.2 
L 1367.610008 19.955291 
L 1368.556818 19.955291 
L 1368.556818 496.2 
z
" style="fill:#0000ff;"/>
   </g>
   <g id="matplotlib.axis_1">
    <g id="xtick_1">
     <g id="line2d_1">
      <defs>
       <path d="M 0 0 
L 0 3.5 
" id="m8baf96c8b7" style="stroke:#000000;stroke-width:0.8;"/>
      </defs>
      <g>
       <use style="stroke:#000000;stroke-width:0.8;" x="156.639992" xlink:href="#m8baf96c8b7" y="496.2"/>
      </g>
     </g>
     <g id="text_1">
      <!-- 0 -->
      <defs>
       <path d="M 31.78125 66.40625 
Q 24.171875 66.40625 20.328125 58.90625 
Q 16.5 51.421875 16.5 36.375 
Q 16.5 21.390625 20.328125 13.890625 
Q 24.171875 6.390625 31.78125 6.390625 
Q 39.453125 6.390625 43.28125 13.890625 
Q 47.125 21.390625 47.125 36.375 
Q 47.125 51.421875 43.28125 58.90625 
Q 39.453125 66.40625 31.78125 66.40625 
z
M 31.78125 74.21875 
Q 44.046875 74.21875 50.515625 64.515625 
Q 56.984375 54.828125 56.984375 36.375 
Q 56.984375 17.96875 50.515625 8.265625 
Q 44.046875 -1.421875 31.78125 -1.421875 
Q 19.53125 -1.421875 13.0625 8.265625 
Q 6.59375 17.96875 6.59375 36.375 
Q 6.59375 54.828125 13.0625 64.515625 
Q 19.53125 74.21875 31.78125 74.21875 
z
" id="DejaVuSans-48"/>
      </defs>
      <g transform="translate(147.096242 525.995312)scale(0.3 -0.3)">
       <use xlink:href="#DejaVuSans-48"/>
      </g>
     </g>
    </g>
    <g id="xtick_2">
     <g id="line2d_2">
      <g>
       <use style="stroke:#000000;stroke-width:0.8;" x="393.342497" xlink:href="#m8baf96c8b7" y="496.2"/>
      </g>
     </g>
     <g id="text_2">
      <!-- 50 -->
      <defs>
       <path d="M 10.796875 72.90625 
L 49.515625 72.90625 
L 49.515625 64.59375 
L 19.828125 64.59375 
L 19.828125 46.734375 
Q 21.96875 47.46875 24.109375 47.828125 
Q 26.265625 48.1875 28.421875 48.1875 
Q 40.625 48.1875 47.75 41.5 
Q 54.890625 34.8125 54.890625 23.390625 
Q 54.890625 11.625 47.5625 5.09375 
Q 40.234375 -1.421875 26.90625 -1.421875 
Q 22.3125 -1.421875 17.546875 -0.640625 
Q 12.796875 0.140625 7.71875 1.703125 
L 7.71875 11.625 
Q 12.109375 9.234375 16.796875 8.0625 
Q 21.484375 6.890625 26.703125 6.890625 
Q 35.15625 6.890625 40.078125 11.328125 
Q 45.015625 15.765625 45.015625 23.390625 
Q 45.015625 31 40.078125 35.4375 
Q 35.15625 39.890625 26.703125 39.890625 
Q 22.75 39.890625 18.8125 39.015625 
Q 14.890625 38.140625 10.796875 36.28125 
z
" id="DejaVuSans-53"/>
      </defs>
      <g transform="translate(374.254997 525.995312)scale(0.3 -0.3)">
       <use xlink:href="#DejaVuSans-53"/>
       <use x="63.623047" xlink:href="#DejaVuSans-48"/>
      </g>
     </g>
    </g>
    <g id="xtick_3">
     <g id="line2d_3">
      <g>
       <use style="stroke:#000000;stroke-width:0.8;" x="630.045002" xlink:href="#m8baf96c8b7" y="496.2"/>
      </g>
     </g>
     <g id="text_3">
      <!-- 100 -->
      <defs>
       <path d="M 12.40625 8.296875 
L 28.515625 8.296875 
L 28.515625 63.921875 
L 10.984375 60.40625 
L 10.984375 69.390625 
L 28.421875 72.90625 
L 38.28125 72.90625 
L 38.28125 8.296875 
L 54.390625 8.296875 
L 54.390625 0 
L 12.40625 0 
z
" id="DejaVuSans-49"/>
      </defs>
      <g transform="translate(601.413752 525.995312)scale(0.3 -0.3)">
       <use xlink:href="#DejaVuSans-49"/>
       <use x="63.623047" xlink:href="#DejaVuSans-48"/>
       <use x="127.246094" xlink:href="#DejaVuSans-48"/>
      </g>
     </g>
    </g>
    <g id="xtick_4">
     <g id="line2d_4">
      <g>
       <use style="stroke:#000000;stroke-width:0.8;" x="866.747507" xlink:href="#m8baf96c8b7" y="496.2"/>
      </g>
     </g>
     <g id="text_4">
      <!-- 150 -->
      <g transform="translate(838.116257 525.995312)scale(0.3 -0.3)">
       <use xlink:href="#DejaVuSans-49"/>
       <use x="63.623047" xlink:href="#DejaVuSans-53"/>
       <use x="127.246094" xlink:href="#DejaVuSans-48"/>
      </g>
     </g>
    </g>
    <g id="xtick_5">
     <g id="line2d_5">
      <g>
       <use style="stroke:#000000;stroke-width:0.8;" x="1103.450012" xlink:href="#m8baf96c8b7" y="496.2"/>
      </g>
     </g>
     <g id="text_5">
      <!-- 200 -->
      <defs>
       <path d="M 19.1875 8.296875 
L 53.609375 8.296875 
L 53.609375 0 
L 7.328125 0 
L 7.328125 8.296875 
Q 12.9375 14.109375 22.625 23.890625 
Q 32.328125 33.6875 34.8125 36.53125 
Q 39.546875 41.84375 41.421875 45.53125 
Q 43.3125 49.21875 43.3125 52.78125 
Q 43.3125 58.59375 39.234375 62.25 
Q 35.15625 65.921875 28.609375 65.921875 
Q 23.96875 65.921875 18.8125 64.3125 
Q 13.671875 62.703125 7.8125 59.421875 
L 7.8125 69.390625 
Q 13.765625 71.78125 18.9375 73 
Q 24.125 74.21875 28.421875 74.21875 
Q 39.75 74.21875 46.484375 68.546875 
Q 53.21875 62.890625 53.21875 53.421875 
Q 53.21875 48.921875 51.53125 44.890625 
Q 49.859375 40.875 45.40625 35.40625 
Q 44.1875 33.984375 37.640625 27.21875 
Q 31.109375 20.453125 19.1875 8.296875 
z
" id="DejaVuSans-50"/>
      </defs>
      <g transform="translate(1074.818762 525.995312)scale(0.3 -0.3)">
       <use xlink:href="#DejaVuSans-50"/>
       <use x="63.623047" xlink:href="#DejaVuSans-48"/>
       <use x="127.246094" xlink:href="#DejaVuSans-48"/>
      </g>
     </g>
    </g>
    <g id="xtick_6">
     <g id="line2d_6">
      <g>
       <use style="stroke:#000000;stroke-width:0.8;" x="1340.152518" xlink:href="#m8baf96c8b7" y="496.2"/>
      </g>
     </g>
     <g id="text_6">
      <!-- 250 -->
      <g transform="translate(1311.521268 525.995312)scale(0.3 -0.3)">
       <use xlink:href="#DejaVuSans-50"/>
       <use x="63.623047" xlink:href="#DejaVuSans-53"/>
       <use x="127.246094" xlink:href="#DejaVuSans-48"/>
      </g>
     </g>
    </g>
    <g id="text_7">
     <!-- Bit Interaction -->
     <defs>
      <path d="M 19.671875 34.8125 
L 19.671875 8.109375 
L 35.5 8.109375 
Q 43.453125 8.109375 47.28125 11.40625 
Q 51.125 14.703125 51.125 21.484375 
Q 51.125 28.328125 47.28125 31.5625 
Q 43.453125 34.8125 35.5 34.8125 
z
M 19.671875 64.796875 
L 19.671875 42.828125 
L 34.28125 42.828125 
Q 41.5 42.828125 45.03125 45.53125 
Q 48.578125 48.25 48.578125 53.8125 
Q 48.578125 59.328125 45.03125 62.0625 
Q 41.5 64.796875 34.28125 64.796875 
z
M 9.8125 72.90625 
L 35.015625 72.90625 
Q 46.296875 72.90625 52.390625 68.21875 
Q 58.5 63.53125 58.5 54.890625 
Q 58.5 48.1875 55.375 44.234375 
Q 52.25 40.28125 46.1875 39.3125 
Q 53.46875 37.75 57.5 32.78125 
Q 61.53125 27.828125 61.53125 20.40625 
Q 61.53125 10.640625 54.890625 5.3125 
Q 48.25 0 35.984375 0 
L 9.8125 0 
z
" id="DejaVuSans-66"/>
      <path d="M 9.421875 54.6875 
L 18.40625 54.6875 
L 18.40625 0 
L 9.421875 0 
z
M 9.421875 75.984375 
L 18.40625 75.984375 
L 18.40625 64.59375 
L 9.421875 64.59375 
z
" id="DejaVuSans-105"/>
      <path d="M 18.3125 70.21875 
L 18.3125 54.6875 
L 36.8125 54.6875 
L 36.8125 47.703125 
L 18.3125 47.703125 
L 18.3125 18.015625 
Q 18.3125 11.328125 20.140625 9.421875 
Q 21.96875 7.515625 27.59375 7.515625 
L 36.8125 7.515625 
L 36.8125 0 
L 27.59375 0 
Q 17.1875 0 13.234375 3.875 
Q 9.28125 7.765625 9.28125 18.015625 
L 9.28125 47.703125 
L 2.6875 47.703125 
L 2.6875 54.6875 
L 9.28125 54.6875 
L 9.28125 70.21875 
z
" id="DejaVuSans-116"/>
      <path id="DejaVuSans-32"/>
      <path d="M 9.8125 72.90625 
L 19.671875 72.90625 
L 19.671875 0 
L 9.8125 0 
z
" id="DejaVuSans-73"/>
      <path d="M 54.890625 33.015625 
L 54.890625 0 
L 45.90625 0 
L 45.90625 32.71875 
Q 45.90625 40.484375 42.875 44.328125 
Q 39.84375 48.1875 33.796875 48.1875 
Q 26.515625 48.1875 22.3125 43.546875 
Q 18.109375 38.921875 18.109375 30.90625 
L 18.109375 0 
L 9.078125 0 
L 9.078125 54.6875 
L 18.109375 54.6875 
L 18.109375 46.1875 
Q 21.34375 51.125 25.703125 53.5625 
Q 30.078125 56 35.796875 56 
Q 45.21875 56 50.046875 50.171875 
Q 54.890625 44.34375 54.890625 33.015625 
z
" id="DejaVuSans-110"/>
      <path d="M 56.203125 29.59375 
L 56.203125 25.203125 
L 14.890625 25.203125 
Q 15.484375 15.921875 20.484375 11.0625 
Q 25.484375 6.203125 34.421875 6.203125 
Q 39.59375 6.203125 44.453125 7.46875 
Q 49.3125 8.734375 54.109375 11.28125 
L 54.109375 2.78125 
Q 49.265625 0.734375 44.1875 -0.34375 
Q 39.109375 -1.421875 33.890625 -1.421875 
Q 20.796875 -1.421875 13.15625 6.1875 
Q 5.515625 13.8125 5.515625 26.8125 
Q 5.515625 40.234375 12.765625 48.109375 
Q 20.015625 56 32.328125 56 
Q 43.359375 56 49.78125 48.890625 
Q 56.203125 41.796875 56.203125 29.59375 
z
M 47.21875 32.234375 
Q 47.125 39.59375 43.09375 43.984375 
Q 39.0625 48.390625 32.421875 48.390625 
Q 24.90625 48.390625 20.390625 44.140625 
Q 15.875 39.890625 15.1875 32.171875 
z
" id="DejaVuSans-101"/>
      <path d="M 41.109375 46.296875 
Q 39.59375 47.171875 37.8125 47.578125 
Q 36.03125 48 33.890625 48 
Q 26.265625 48 22.1875 43.046875 
Q 18.109375 38.09375 18.109375 28.8125 
L 18.109375 0 
L 9.078125 0 
L 9.078125 54.6875 
L 18.109375 54.6875 
L 18.109375 46.1875 
Q 20.953125 51.171875 25.484375 53.578125 
Q 30.03125 56 36.53125 56 
Q 37.453125 56 38.578125 55.875 
Q 39.703125 55.765625 41.0625 55.515625 
z
" id="DejaVuSans-114"/>
      <path d="M 34.28125 27.484375 
Q 23.390625 27.484375 19.1875 25 
Q 14.984375 22.515625 14.984375 16.5 
Q 14.984375 11.71875 18.140625 8.90625 
Q 21.296875 6.109375 26.703125 6.109375 
Q 34.1875 6.109375 38.703125 11.40625 
Q 43.21875 16.703125 43.21875 25.484375 
L 43.21875 27.484375 
z
M 52.203125 31.203125 
L 52.203125 0 
L 43.21875 0 
L 43.21875 8.296875 
Q 40.140625 3.328125 35.546875 0.953125 
Q 30.953125 -1.421875 24.3125 -1.421875 
Q 15.921875 -1.421875 10.953125 3.296875 
Q 6 8.015625 6 15.921875 
Q 6 25.140625 12.171875 29.828125 
Q 18.359375 34.515625 30.609375 34.515625 
L 43.21875 34.515625 
L 43.21875 35.40625 
Q 43.21875 41.609375 39.140625 45 
Q 35.0625 48.390625 27.6875 48.390625 
Q 23 48.390625 18.546875 47.265625 
Q 14.109375 46.140625 10.015625 43.890625 
L 10.015625 52.203125 
Q 14.9375 54.109375 19.578125 55.046875 
Q 24.21875 56 28.609375 56 
Q 40.484375 56 46.34375 49.84375 
Q 52.203125 43.703125 52.203125 31.203125 
z
" id="DejaVuSans-97"/>
      <path d="M 48.78125 52.59375 
L 48.78125 44.1875 
Q 44.96875 46.296875 41.140625 47.34375 
Q 37.3125 48.390625 33.40625 48.390625 
Q 24.65625 48.390625 19.8125 42.84375 
Q 14.984375 37.3125 14.984375 27.296875 
Q 14.984375 17.28125 19.8125 11.734375 
Q 24.65625 6.203125 33.40625 6.203125 
Q 37.3125 6.203125 41.140625 7.25 
Q 44.96875 8.296875 48.78125 10.40625 
L 48.78125 2.09375 
Q 45.015625 0.34375 40.984375 -0.53125 
Q 36.96875 -1.421875 32.421875 -1.421875 
Q 20.0625 -1.421875 12.78125 6.34375 
Q 5.515625 14.109375 5.515625 27.296875 
Q 5.515625 40.671875 12.859375 48.328125 
Q 20.21875 56 33.015625 56 
Q 37.15625 56 41.109375 55.140625 
Q 45.0625 54.296875 48.78125 52.59375 
z
" id="DejaVuSans-99"/>
      <path d="M 30.609375 48.390625 
Q 23.390625 48.390625 19.1875 42.75 
Q 14.984375 37.109375 14.984375 27.296875 
Q 14.984375 17.484375 19.15625 11.84375 
Q 23.34375 6.203125 30.609375 6.203125 
Q 37.796875 6.203125 41.984375 11.859375 
Q 46.1875 17.53125 46.1875 27.296875 
Q 46.1875 37.015625 41.984375 42.703125 
Q 37.796875 48.390625 30.609375 48.390625 
z
M 30.609375 56 
Q 42.328125 56 49.015625 48.375 
Q 55.71875 40.765625 55.71875 27.296875 
Q 55.71875 13.875 49.015625 6.21875 
Q 42.328125 -1.421875 30.609375 -1.421875 
Q 18.84375 -1.421875 12.171875 6.21875 
Q 5.515625 13.875 5.515625 27.296875 
Q 5.515625 40.765625 12.171875 48.375 
Q 18.84375 56 30.609375 56 
z
" id="DejaVuSans-111"/>
     </defs>
     <g transform="translate(655.639063 559.029688)scale(0.3 -0.3)">
      <use xlink:href="#DejaVuSans-66"/>
      <use x="68.603516" xlink:href="#DejaVuSans-105"/>
      <use x="96.386719" xlink:href="#DejaVuSans-116"/>
      <use x="135.595703" xlink:href="#DejaVuSans-32"/>
      <use x="167.382812" xlink:href="#DejaVuSans-73"/>
      <use x="196.875" xlink:href="#DejaVuSans-110"/>
      <use x="260.253906" xlink:href="#DejaVuSans-116"/>
      <use x="299.462891" xlink:href="#DejaVuSans-101"/>
      <use x="360.986328" xlink:href="#DejaVuSans-114"/>
      <use x="402.099609" xlink:href="#DejaVuSans-97"/>
      <use x="463.378906" xlink:href="#DejaVuSans-99"/>
      <use x="518.359375" xlink:href="#DejaVuSans-116"/>
      <use x="557.568359" xlink:href="#DejaVuSans-105"/>
      <use x="585.351562" xlink:href="#DejaVuSans-111"/>
      <use x="646.533203" xlink:href="#DejaVuSans-110"/>
     </g>
    </g>
   </g>
   <g id="matplotlib.axis_2">
    <g id="ytick_1">
     <g id="line2d_7">
      <defs>
       <path d="M 0 0 
L -3.5 0 
" id="m7d86beb831" style="stroke:#000000;stroke-width:0.8;"/>
      </defs>
      <g>
       <use style="stroke:#000000;stroke-width:0.8;" x="95.05" xlink:href="#m7d86beb831" y="441.510421"/>
      </g>
     </g>
     <g id="text_8">
      <!-- −6 -->
      <defs>
       <path d="M 10.59375 35.5 
L 73.1875 35.5 
L 73.1875 27.203125 
L 10.59375 27.203125 
z
" id="DejaVuSans-8722"/>
       <path d="M 33.015625 40.375 
Q 26.375 40.375 22.484375 35.828125 
Q 18.609375 31.296875 18.609375 23.390625 
Q 18.609375 15.53125 22.484375 10.953125 
Q 26.375 6.390625 33.015625 6.390625 
Q 39.65625 6.390625 43.53125 10.953125 
Q 47.40625 15.53125 47.40625 23.390625 
Q 47.40625 31.296875 43.53125 35.828125 
Q 39.65625 40.375 33.015625 40.375 
z
M 52.59375 71.296875 
L 52.59375 62.3125 
Q 48.875 64.0625 45.09375 64.984375 
Q 41.3125 65.921875 37.59375 65.921875 
Q 27.828125 65.921875 22.671875 59.328125 
Q 17.53125 52.734375 16.796875 39.40625 
Q 19.671875 43.65625 24.015625 45.921875 
Q 28.375 48.1875 33.59375 48.1875 
Q 44.578125 48.1875 50.953125 41.515625 
Q 57.328125 34.859375 57.328125 23.390625 
Q 57.328125 12.15625 50.6875 5.359375 
Q 44.046875 -1.421875 33.015625 -1.421875 
Q 20.359375 -1.421875 13.671875 8.265625 
Q 6.984375 17.96875 6.984375 36.375 
Q 6.984375 53.65625 15.1875 63.9375 
Q 23.390625 74.21875 37.203125 74.21875 
Q 40.921875 74.21875 44.703125 73.484375 
Q 48.484375 72.75 52.59375 71.296875 
z
" id="DejaVuSans-54"/>
      </defs>
      <g transform="translate(43.823438 452.908077)scale(0.3 -0.3)">
       <use xlink:href="#DejaVuSans-8722"/>
       <use x="83.789062" xlink:href="#DejaVuSans-54"/>
      </g>
     </g>
    </g>
    <g id="ytick_2">
     <g id="line2d_8">
      <g>
       <use style="stroke:#000000;stroke-width:0.8;" x="95.05" xlink:href="#m7d86beb831" y="381.655078"/>
      </g>
     </g>
     <g id="text_9">
      <!-- −5 -->
      <g transform="translate(43.823438 393.052734)scale(0.3 -0.3)">
       <use xlink:href="#DejaVuSans-8722"/>
       <use x="83.789062" xlink:href="#DejaVuSans-53"/>
      </g>
     </g>
    </g>
    <g id="ytick_3">
     <g id="line2d_9">
      <g>
       <use style="stroke:#000000;stroke-width:0.8;" x="95.05" xlink:href="#m7d86beb831" y="321.799736"/>
      </g>
     </g>
     <g id="text_10">
      <!-- −4 -->
      <defs>
       <path d="M 37.796875 64.3125 
L 12.890625 25.390625 
L 37.796875 25.390625 
z
M 35.203125 72.90625 
L 47.609375 72.90625 
L 47.609375 25.390625 
L 58.015625 25.390625 
L 58.015625 17.1875 
L 47.609375 17.1875 
L 47.609375 0 
L 37.796875 0 
L 37.796875 17.1875 
L 4.890625 17.1875 
L 4.890625 26.703125 
z
" id="DejaVuSans-52"/>
      </defs>
      <g transform="translate(43.823438 333.197392)scale(0.3 -0.3)">
       <use xlink:href="#DejaVuSans-8722"/>
       <use x="83.789062" xlink:href="#DejaVuSans-52"/>
      </g>
     </g>
    </g>
    <g id="ytick_4">
     <g id="line2d_10">
      <g>
       <use style="stroke:#000000;stroke-width:0.8;" x="95.05" xlink:href="#m7d86beb831" y="261.944393"/>
      </g>
     </g>
     <g id="text_11">
      <!-- −3 -->
      <defs>
       <path d="M 40.578125 39.3125 
Q 47.65625 37.796875 51.625 33 
Q 55.609375 28.21875 55.609375 21.1875 
Q 55.609375 10.40625 48.1875 4.484375 
Q 40.765625 -1.421875 27.09375 -1.421875 
Q 22.515625 -1.421875 17.65625 -0.515625 
Q 12.796875 0.390625 7.625 2.203125 
L 7.625 11.71875 
Q 11.71875 9.328125 16.59375 8.109375 
Q 21.484375 6.890625 26.8125 6.890625 
Q 36.078125 6.890625 40.9375 10.546875 
Q 45.796875 14.203125 45.796875 21.1875 
Q 45.796875 27.640625 41.28125 31.265625 
Q 36.765625 34.90625 28.71875 34.90625 
L 20.21875 34.90625 
L 20.21875 43.015625 
L 29.109375 43.015625 
Q 36.375 43.015625 40.234375 45.921875 
Q 44.09375 48.828125 44.09375 54.296875 
Q 44.09375 59.90625 40.109375 62.90625 
Q 36.140625 65.921875 28.71875 65.921875 
Q 24.65625 65.921875 20.015625 65.03125 
Q 15.375 64.15625 9.8125 62.3125 
L 9.8125 71.09375 
Q 15.4375 72.65625 20.34375 73.4375 
Q 25.25 74.21875 29.59375 74.21875 
Q 40.828125 74.21875 47.359375 69.109375 
Q 53.90625 64.015625 53.90625 55.328125 
Q 53.90625 49.265625 50.4375 45.09375 
Q 46.96875 40.921875 40.578125 39.3125 
z
" id="DejaVuSans-51"/>
      </defs>
      <g transform="translate(43.823438 273.342049)scale(0.3 -0.3)">
       <use xlink:href="#DejaVuSans-8722"/>
       <use x="83.789062" xlink:href="#DejaVuSans-51"/>
      </g>
     </g>
    </g>
    <g id="ytick_5">
     <g id="line2d_11">
      <g>
       <use style="stroke:#000000;stroke-width:0.8;" x="95.05" xlink:href="#m7d86beb831" y="202.08905"/>
      </g>
     </g>
     <g id="text_12">
      <!-- −2 -->
      <g transform="translate(43.823438 213.486707)scale(0.3 -0.3)">
       <use xlink:href="#DejaVuSans-8722"/>
       <use x="83.789062" xlink:href="#DejaVuSans-50"/>
      </g>
     </g>
    </g>
    <g id="ytick_6">
     <g id="line2d_12">
      <g>
       <use style="stroke:#000000;stroke-width:0.8;" x="95.05" xlink:href="#m7d86beb831" y="142.233708"/>
      </g>
     </g>
     <g id="text_13">
      <!-- −1 -->
      <g transform="translate(43.823438 153.631364)scale(0.3 -0.3)">
       <use xlink:href="#DejaVuSans-8722"/>
       <use x="83.789062" xlink:href="#DejaVuSans-49"/>
      </g>
     </g>
    </g>
    <g id="ytick_7">
     <g id="line2d_13">
      <g>
       <use style="stroke:#000000;stroke-width:0.8;" x="95.05" xlink:href="#m7d86beb831" y="82.378365"/>
      </g>
     </g>
     <g id="text_14">
      <!-- 0 -->
      <g transform="translate(68.9625 93.776022)scale(0.3 -0.3)">
       <use xlink:href="#DejaVuSans-48"/>
      </g>
     </g>
    </g>
    <g id="ytick_8">
     <g id="line2d_14">
      <g>
       <use style="stroke:#000000;stroke-width:0.8;" x="95.05" xlink:href="#m7d86beb831" y="22.523023"/>
      </g>
     </g>
     <g id="text_15">
      <!-- 1 -->
      <g transform="translate(68.9625 33.920679)scale(0.3 -0.3)">
       <use xlink:href="#DejaVuSans-49"/>
      </g>
     </g>
    </g>
    <g id="text_16">
     <!-- Weight Value -->
     <defs>
      <path d="M 3.328125 72.90625 
L 13.28125 72.90625 
L 28.609375 11.28125 
L 43.890625 72.90625 
L 54.984375 72.90625 
L 70.3125 11.28125 
L 85.59375 72.90625 
L 95.609375 72.90625 
L 77.296875 0 
L 64.890625 0 
L 49.515625 63.28125 
L 33.984375 0 
L 21.578125 0 
z
" id="DejaVuSans-87"/>
      <path d="M 45.40625 27.984375 
Q 45.40625 37.75 41.375 43.109375 
Q 37.359375 48.484375 30.078125 48.484375 
Q 22.859375 48.484375 18.828125 43.109375 
Q 14.796875 37.75 14.796875 27.984375 
Q 14.796875 18.265625 18.828125 12.890625 
Q 22.859375 7.515625 30.078125 7.515625 
Q 37.359375 7.515625 41.375 12.890625 
Q 45.40625 18.265625 45.40625 27.984375 
z
M 54.390625 6.78125 
Q 54.390625 -7.171875 48.1875 -13.984375 
Q 42 -20.796875 29.203125 -20.796875 
Q 24.46875 -20.796875 20.265625 -20.09375 
Q 16.0625 -19.390625 12.109375 -17.921875 
L 12.109375 -9.1875 
Q 16.0625 -11.328125 19.921875 -12.34375 
Q 23.78125 -13.375 27.78125 -13.375 
Q 36.625 -13.375 41.015625 -8.765625 
Q 45.40625 -4.15625 45.40625 5.171875 
L 45.40625 9.625 
Q 42.625 4.78125 38.28125 2.390625 
Q 33.9375 0 27.875 0 
Q 17.828125 0 11.671875 7.65625 
Q 5.515625 15.328125 5.515625 27.984375 
Q 5.515625 40.671875 11.671875 48.328125 
Q 17.828125 56 27.875 56 
Q 33.9375 56 38.28125 53.609375 
Q 42.625 51.21875 45.40625 46.390625 
L 45.40625 54.6875 
L 54.390625 54.6875 
z
" id="DejaVuSans-103"/>
      <path d="M 54.890625 33.015625 
L 54.890625 0 
L 45.90625 0 
L 45.90625 32.71875 
Q 45.90625 40.484375 42.875 44.328125 
Q 39.84375 48.1875 33.796875 48.1875 
Q 26.515625 48.1875 22.3125 43.546875 
Q 18.109375 38.921875 18.109375 30.90625 
L 18.109375 0 
L 9.078125 0 
L 9.078125 75.984375 
L 18.109375 75.984375 
L 18.109375 46.1875 
Q 21.34375 51.125 25.703125 53.5625 
Q 30.078125 56 35.796875 56 
Q 45.21875 56 50.046875 50.171875 
Q 54.890625 44.34375 54.890625 33.015625 
z
" id="DejaVuSans-104"/>
      <path d="M 28.609375 0 
L 0.78125 72.90625 
L 11.078125 72.90625 
L 34.1875 11.53125 
L 57.328125 72.90625 
L 67.578125 72.90625 
L 39.796875 0 
z
" id="DejaVuSans-86"/>
      <path d="M 9.421875 75.984375 
L 18.40625 75.984375 
L 18.40625 0 
L 9.421875 0 
z
" id="DejaVuSans-108"/>
      <path d="M 8.5 21.578125 
L 8.5 54.6875 
L 17.484375 54.6875 
L 17.484375 21.921875 
Q 17.484375 14.15625 20.5 10.265625 
Q 23.53125 6.390625 29.59375 6.390625 
Q 36.859375 6.390625 41.078125 11.03125 
Q 45.3125 15.671875 45.3125 23.6875 
L 45.3125 54.6875 
L 54.296875 54.6875 
L 54.296875 0 
L 45.3125 0 
L 45.3125 8.40625 
Q 42.046875 3.421875 37.71875 1 
Q 33.40625 -1.421875 27.6875 -1.421875 
Q 18.265625 -1.421875 13.375 4.4375 
Q 8.5 10.296875 8.5 21.578125 
z
M 31.109375 56 
z
" id="DejaVuSans-117"/>
     </defs>
     <g transform="translate(33.584375 358.310458)rotate(-90)scale(0.3 -0.3)">
      <use xlink:href="#DejaVuSans-87"/>
      <use x="98.798828" xlink:href="#DejaVuSans-101"/>
      <use x="160.322266" xlink:href="#DejaVuSans-105"/>
      <use x="188.105469" xlink:href="#DejaVuSans-103"/>
      <use x="251.582031" xlink:href="#DejaVuSans-104"/>
      <use x="314.960938" xlink:href="#DejaVuSans-116"/>
      <use x="354.169922" xlink:href="#DejaVuSans-32"/>
      <use x="385.957031" xlink:href="#DejaVuSans-86"/>
      <use x="454.255859" xlink:href="#DejaVuSans-97"/>
      <use x="515.535156" xlink:href="#DejaVuSans-108"/>
      <use x="543.318359" xlink:href="#DejaVuSans-117"/>
      <use x="606.697266" xlink:href="#DejaVuSans-101"/>
     </g>
    </g>
   </g>
   <g id="line2d_15">
    <path clip-path="url(#pb8c8313f6a)" d="M 156.639992 74.836525 
L 161.374042 81.684555 
L 166.108092 68.061254 
L 170.842142 94.488766 
L 175.576192 73.182628 
L 180.310242 74.166086 
L 185.044292 88.427066 
L 189.778343 83.725921 
L 194.512393 77.085976 
L 199.246443 68.484748 
L 203.980493 77.308232 
L 208.714543 98.321615 
L 213.448593 78.889135 
L 218.182643 87.017885 
L 222.916693 76.575164 
L 227.650743 66.494082 
L 232.384793 68.385803 
L 237.118844 69.395436 
L 241.852894 75.488543 
L 246.586944 83.952563 
L 251.320994 76.231229 
L 256.055044 69.23189 
L 260.789094 80.858814 
L 265.523144 62.438848 
L 270.257194 64.339301 
L 274.991244 116.050877 
L 279.725295 74.460754 
L 284.459345 92.740249 
L 289.193395 76.471427 
L 293.927445 80.147738 
L 298.661495 73.365642 
L 303.395545 70.124347 
L 308.129595 99.426801 
L 312.863645 90.398749 
L 317.597695 71.228835 
L 322.331745 78.191069 
L 327.065796 75.77452 
L 331.799846 101.108521 
L 336.533896 84.660298 
L 341.267946 57.057488 
L 346.001996 81.946312 
L 350.736046 79.438763 
L 355.470096 92.078705 
L 360.204146 88.447284 
L 364.938196 108.909745 
L 369.672246 92.968418 
L 374.406297 80.587414 
L 379.140347 63.656114 
L 383.874397 72.90846 
L 388.608447 90.227685 
L 393.342497 92.98882 
L 398.076547 72.914549 
L 402.810597 91.583575 
L 407.544647 67.899657 
L 412.278697 89.701752 
L 417.012747 85.808629 
L 421.746798 107.948638 
L 426.480848 80.535569 
L 431.214898 85.531201 
L 435.948948 76.090044 
L 440.682998 75.762914 
L 445.417048 88.98797 
L 450.151098 85.615633 
L 454.885148 66.264269 
L 459.619198 76.882786 
L 464.353249 74.715702 
L 469.087299 96.142205 
L 473.821349 60.294663 
L 478.555399 83.753283 
L 483.289449 92.821928 
L 488.023499 65.070251 
L 492.757549 70.469745 
L 497.491599 93.610869 
L 502.225649 70.836663 
L 506.959699 79.611682 
L 511.69375 70.941156 
L 516.4278 67.110974 
L 521.16185 76.430953 
L 525.8959 76.367201 
L 530.62995 70.562314 
L 535.364 83.241517 
L 540.09805 82.493097 
L 544.8321 79.376449 
L 549.56615 55.34238 
L 554.3002 83.496333 
L 559.034251 104.492575 
L 563.768301 62.591131 
L 568.502351 69.082994 
L 573.236401 70.768636 
L 577.970451 85.660011 
L 582.704501 88.302706 
L 587.438551 87.728906 
L 592.172601 81.475827 
L 596.906651 73.287382 
L 601.640702 89.79199 
L 606.374752 89.986048 
L 611.108802 90.903204 
L 615.842852 41.602778 
L 620.576902 81.126587 
L 625.310952 93.271938 
L 630.045002 73.050973 
L 634.779052 85.095748 
L 639.513102 72.284814 
L 644.247152 79.088619 
L 648.981203 69.540352 
L 653.715253 99.074141 
L 658.449303 61.473699 
L 663.183353 80.515554 
L 667.917403 96.258855 
L 672.651453 95.803519 
L 677.385503 102.625413 
L 682.119553 55.170882 
L 686.853603 75.820618 
L 691.587653 64.817688 
L 696.321704 73.720449 
L 701.055754 65.082039 
L 705.789804 60.283302 
L 710.523854 71.91496 
L 715.257904 88.462058 
L 719.991954 78.055938 
L 724.726004 104.733199 
L 729.460054 84.769087 
L 734.194104 89.800789 
L 738.928154 111.407763 
L 743.662205 84.905282 
L 748.396255 76.597073 
L 753.130305 77.750236 
L 757.864355 86.923313 
L 762.598405 83.931832 
L 767.332455 91.637134 
L 772.066505 72.004736 
L 776.800555 76.484662 
L 781.534605 81.980766 
L 786.268656 63.437858 
L 791.002706 79.622732 
L 795.736756 77.373673 
L 800.470806 84.021611 
L 805.204856 84.61817 
L 809.938906 95.503457 
L 814.672956 64.516389 
L 819.407006 89.710354 
L 824.141056 69.665444 
L 828.875106 80.725371 
L 833.609157 105.706052 
L 838.343207 74.422794 
L 843.077257 69.218676 
L 847.811307 61.422092 
L 852.545357 84.309435 
L 857.279407 55.82354 
L 862.013457 92.238516 
L 866.747507 94.728954 
L 871.481557 87.906033 
L 876.215607 77.743474 
L 880.949658 87.145641 
L 885.683708 66.193655 
L 890.417758 81.388451 
L 895.151808 88.506359 
L 899.885858 62.584298 
L 904.619908 80.547543 
L 909.353958 70.490401 
L 914.088008 95.026318 
L 918.822058 61.38316 
L 923.556109 93.788523 
L 928.290159 82.391191 
L 933.024209 74.302156 
L 937.758259 48.035562 
L 942.492309 82.400497 
L 947.226359 121.237879 
L 951.960409 97.152073 
L 956.694459 77.531861 
L 961.428509 91.956615 
L 966.162559 97.676671 
L 970.89661 91.453669 
L 975.63066 77.937817 
L 980.36471 58.895869 
L 985.09876 86.379442 
L 989.83281 73.115714 
L 994.56686 78.213081 
L 999.30091 79.723976 
L 1004.03496 69.218065 
L 1008.76901 96.97584 
L 1013.50306 73.037649 
L 1018.237111 70.385133 
L 1022.971161 97.377651 
L 1027.705211 84.204969 
L 1032.439261 78.686448 
L 1037.173311 88.556737 
L 1041.907361 52.075958 
L 1046.641411 93.316216 
L 1051.375461 83.111129 
L 1056.109511 90.646848 
L 1060.843561 66.927959 
L 1065.577612 79.027362 
L 1070.311662 88.369861 
L 1075.045712 75.718886 
L 1079.779762 90.0619 
L 1084.513812 65.49263 
L 1089.247862 96.435547 
L 1093.981912 70.640918 
L 1098.715962 104.331483 
L 1103.450012 73.219565 
L 1108.184063 105.877123 
L 1112.918113 93.050436 
L 1117.652163 61.756398 
L 1122.386213 87.922252 
L 1127.120263 78.986772 
L 1136.588363 96.942546 
L 1141.322413 84.593106 
L 1146.056463 77.686923 
L 1150.790513 86.092525 
L 1155.524564 74.282419 
L 1160.258614 67.665505 
L 1164.992664 68.673856 
L 1169.726714 91.04817 
L 1174.460764 64.852235 
L 1179.194814 97.529753 
L 1183.928864 65.762794 
L 1188.662914 98.189766 
L 1193.396964 56.351047 
L 1198.131014 63.786485 
L 1202.865065 95.953702 
L 1207.599115 83.434043 
L 1212.333165 82.251186 
L 1217.067215 81.529536 
L 1221.801265 64.269266 
L 1226.535315 73.707272 
L 1231.269365 58.336915 
L 1236.003415 75.635067 
L 1240.737465 43.023076 
L 1245.471516 60.809995 
L 1250.205566 88.623675 
L 1254.939616 93.987279 
L 1259.673666 108.612016 
L 1264.407716 79.724061 
L 1269.141766 83.648326 
L 1273.875816 84.772808 
L 1278.609866 70.611574 
L 1283.343916 80.030217 
L 1288.077966 83.718454 
L 1292.812017 88.104403 
L 1297.546067 82.328401 
L 1302.280117 91.494551 
L 1307.014167 83.993818 
L 1311.748217 78.369315 
L 1316.482267 98.374731 
L 1321.216317 79.501755 
L 1325.950367 70.521973 
L 1330.684417 91.372611 
L 1335.418467 96.439471 
L 1340.152518 94.893264 
L 1344.886568 80.051187 
L 1349.620618 90.377444 
L 1354.354668 79.80546 
L 1359.088718 85.186994 
L 1363.822768 89.350287 
L 1363.822768 89.350287 
" style="fill:none;stroke:#1f77b4;stroke-linecap:square;stroke-width:1.5;"/>
   </g>
   <g id="line2d_16">
    <path clip-path="url(#pb8c8313f6a)" d="M 156.639992 88.36666 
L 161.374042 96.879808 
L 166.108092 90.66324 
L 170.842142 86.68709 
L 175.576192 474.552513 
L 180.310242 80.128106 
L 185.044292 102.114086 
L 189.778343 470.156847 
L 194.512393 94.249122 
L 199.246443 74.46768 
L 203.980493 84.667937 
L 208.714543 82.398419 
L 213.448593 86.429704 
L 218.182643 70.784636 
L 222.916693 90.289335 
L 227.650743 80.098107 
L 232.384793 81.401837 
L 237.118844 79.241655 
L 241.852894 73.753188 
L 246.586944 85.233171 
L 251.320994 83.273265 
L 256.055044 73.673551 
L 260.789094 82.928564 
L 265.523144 84.635528 
L 270.257194 83.982263 
L 274.991244 86.830434 
L 279.725295 87.738089 
L 284.459345 84.476244 
L 289.193395 92.735676 
L 293.927445 76.448408 
L 298.661495 60.610108 
L 303.395545 86.555617 
L 308.129595 86.899621 
L 312.863645 93.69263 
L 317.597695 68.426281 
L 322.331745 89.394136 
L 327.065796 89.457731 
L 331.799846 87.121723 
L 336.533896 71.246033 
L 341.267946 90.926549 
L 346.001996 76.630173 
L 350.736046 88.913864 
L 355.470096 81.023706 
L 360.204146 68.882135 
L 364.938196 81.884238 
L 369.672246 71.70437 
L 374.406297 88.533236 
L 379.140347 73.080965 
L 383.874397 89.345554 
L 388.608447 79.027736 
L 393.342497 101.936656 
L 398.076547 93.649167 
L 402.810597 107.220036 
L 407.544647 83.079144 
L 412.278697 84.793621 
L 417.012747 80.418119 
L 421.746798 93.139964 
L 426.480848 72.671566 
L 431.214898 67.390024 
L 435.948948 77.586514 
L 440.682998 56.945401 
L 445.417048 56.706168 
L 450.151098 87.898098 
L 454.885148 73.912409 
L 459.619198 79.20321 
L 464.353249 80.776433 
L 469.087299 72.897513 
L 473.821349 107.469493 
L 478.555399 81.796817 
L 483.289449 82.47735 
L 488.023499 82.886694 
L 492.757549 92.307028 
L 497.491599 75.833532 
L 502.225649 79.581512 
L 506.959699 64.859979 
L 511.69375 91.226844 
L 516.4278 83.720474 
L 521.16185 79.261257 
L 525.8959 77.556173 
L 530.62995 78.438916 
L 535.364 92.705173 
L 540.09805 84.417718 
L 544.8321 77.007456 
L 549.56615 71.224307 
L 554.3002 90.047834 
L 559.034251 73.525745 
L 563.768301 93.896204 
L 568.502351 74.585483 
L 573.236401 81.130621 
L 577.970451 98.690434 
L 582.704501 76.894729 
L 587.438551 59.427874 
L 592.172601 88.775095 
L 596.906651 74.302131 
L 601.640702 79.895186 
L 606.374752 105.291245 
L 611.108802 84.207779 
L 615.842852 64.242122 
L 620.576902 82.362348 
L 625.310952 77.584276 
L 630.045002 88.708206 
L 634.779052 74.652579 
L 639.513102 91.173548 
L 644.247152 83.666967 
L 648.981203 76.705845 
L 653.715253 83.237031 
L 658.449303 76.879789 
L 663.183353 84.495843 
L 667.917403 82.505594 
L 672.651453 77.194084 
L 677.385503 93.94628 
L 682.119553 80.628774 
L 686.853603 84.144207 
L 691.587653 67.691939 
L 696.321704 85.783412 
L 701.055754 83.069318 
L 705.789804 93.413638 
L 710.523854 69.207761 
L 715.257904 69.519472 
L 719.991954 89.770477 
L 724.726004 92.696385 
L 729.460054 85.247841 
L 734.194104 69.861772 
L 738.928154 95.595115 
L 743.662205 78.080304 
L 748.396255 71.804989 
L 753.130305 89.096914 
L 757.864355 90.705787 
L 762.598405 59.833438 
L 767.332455 83.091465 
L 772.066505 74.892009 
L 776.800555 78.914597 
L 781.534605 93.574087 
L 786.268656 63.684258 
L 791.002706 86.961359 
L 795.736756 89.908044 
L 800.470806 94.344345 
L 805.204856 85.997983 
L 809.938906 61.317972 
L 814.672956 74.812716 
L 819.407006 85.867878 
L 824.141056 91.818412 
L 828.875106 104.826445 
L 833.609157 89.441917 
L 838.343207 87.773409 
L 843.077257 75.25009 
L 847.811307 84.428968 
L 852.545357 97.857952 
L 857.279407 59.023794 
L 862.013457 89.790148 
L 866.747507 77.206237 
L 871.481557 82.618746 
L 876.215607 95.569874 
L 880.949658 99.326944 
L 885.683708 88.564733 
L 890.417758 61.562118 
L 895.151808 87.967904 
L 899.885858 87.933474 
L 904.619908 76.129371 
L 909.353958 87.941508 
L 914.088008 76.334437 
L 918.822058 90.245513 
L 923.556109 92.209535 
L 928.290159 84.719157 
L 933.024209 88.059497 
L 937.758259 76.372639 
L 942.492309 90.957426 
L 947.226359 73.043667 
L 951.960409 83.729597 
L 956.694459 77.118879 
L 961.428509 90.563936 
L 966.162559 77.0344 
L 970.89661 71.8339 
L 975.63066 91.910022 
L 980.36471 102.652428 
L 985.09876 90.795505 
L 989.83281 94.011794 
L 994.56686 79.705027 
L 999.30091 79.214244 
L 1004.03496 74.518437 
L 1008.76901 81.642268 
L 1013.50306 78.409794 
L 1018.237111 86.760041 
L 1022.971161 58.52725 
L 1027.705211 92.68962 
L 1032.439261 86.871504 
L 1037.173311 84.894889 
L 1041.907361 87.835896 
L 1046.641411 73.485868 
L 1051.375461 88.141307 
L 1056.109511 83.500555 
L 1060.843561 69.890723 
L 1065.577612 97.217178 
L 1070.311662 87.102248 
L 1075.045712 83.750508 
L 1079.779762 84.047862 
L 1084.513812 87.126545 
L 1089.247862 76.738896 
L 1093.981912 90.236892 
L 1098.715962 78.644612 
L 1103.450012 88.214105 
L 1108.184063 88.102206 
L 1112.918113 81.39451 
L 1117.652163 74.396183 
L 1122.386213 88.522674 
L 1127.120263 90.770094 
L 1131.854313 88.878922 
L 1136.588363 80.558265 
L 1141.322413 89.207484 
L 1146.056463 69.786609 
L 1150.790513 95.378341 
L 1155.524564 99.683374 
L 1160.258614 77.933178 
L 1164.992664 85.041856 
L 1169.726714 60.982878 
L 1174.460764 79.814749 
L 1179.194814 95.374241 
L 1183.928864 77.504058 
L 1188.662914 82.246683 
L 1193.396964 80.301922 
L 1198.131014 86.176071 
L 1202.865065 79.801185 
L 1207.599115 72.757951 
L 1212.333165 49.443663 
L 1217.067215 76.026018 
L 1221.801265 88.923443 
L 1226.535315 76.401776 
L 1231.269365 64.47763 
L 1236.003415 69.795536 
L 1240.737465 110.511759 
L 1245.471516 84.704565 
L 1250.205566 68.891902 
L 1254.939616 101.738389 
L 1259.673666 96.197698 
L 1264.407716 84.876061 
L 1269.141766 87.087706 
L 1273.875816 89.759632 
L 1278.609866 83.752133 
L 1283.343916 77.159557 
L 1288.077966 88.945955 
L 1292.812017 65.227936 
L 1297.546067 70.942789 
L 1302.280117 67.511607 
L 1307.014167 74.526046 
L 1311.748217 67.356315 
L 1316.482267 90.61012 
L 1321.216317 91.932441 
L 1325.950367 55.573949 
L 1330.684417 89.683047 
L 1335.418467 81.973103 
L 1340.152518 80.615077 
L 1344.886568 89.214184 
L 1349.620618 81.473617 
L 1354.354668 91.780921 
L 1359.088718 78.279516 
L 1363.822768 86.267498 
L 1363.822768 86.267498 
" style="fill:none;stroke:#ff7f0e;stroke-linecap:square;stroke-width:1.5;"/>
   </g>
   <g id="line2d_17">
    <path clip-path="url(#pb8c8313f6a)" d="M 156.639992 79.185321 
L 161.374042 88.949044 
L 166.108092 58.723654 
L 170.842142 97.427677 
L 175.576192 84.153103 
L 180.310242 71.957058 
L 185.044292 74.365198 
L 189.778343 100.562066 
L 194.512393 56.847037 
L 199.246443 101.147053 
L 203.980493 78.176974 
L 208.714543 88.919408 
L 213.448593 109.547202 
L 218.182643 93.26688 
L 222.916693 121.73694 
L 227.650743 86.945847 
L 232.384793 74.556821 
L 237.118844 110.000458 
L 241.852894 72.50444 
L 246.586944 84.049563 
L 251.320994 76.376787 
L 256.055044 58.065838 
L 260.789094 79.468993 
L 265.523144 64.838974 
L 270.257194 94.588601 
L 274.991244 79.630685 
L 279.725295 93.182323 
L 284.459345 91.923982 
L 289.193395 69.294963 
L 293.927445 77.736921 
L 298.661495 71.961611 
L 303.395545 71.209387 
L 308.129595 68.351042 
L 312.863645 80.223488 
L 317.597695 86.892476 
L 322.331745 105.332845 
L 327.065796 112.493053 
L 331.799846 102.048559 
L 336.533896 109.94232 
L 341.267946 95.910023 
L 346.001996 103.305071 
L 350.736046 70.514916 
L 355.470096 90.293375 
L 360.204146 86.691027 
L 364.938196 71.180778 
L 369.672246 73.609399 
L 374.406297 81.149235 
L 379.140347 85.843289 
L 383.874397 99.488146 
L 388.608447 88.361967 
L 393.342497 76.081266 
L 398.076547 91.342709 
L 402.810597 104.865835 
L 407.544647 96.753682 
L 412.278697 76.645078 
L 417.012747 101.254589 
L 421.746798 71.86404 
L 426.480848 80.284227 
L 431.214898 90.77162 
L 435.948948 80.5446 
L 440.682998 71.259708 
L 445.417048 91.963134 
L 450.151098 87.317052 
L 454.885148 71.279851 
L 459.619198 74.677812 
L 464.353249 96.308454 
L 469.087299 72.689773 
L 473.821349 91.00866 
L 478.555399 71.128173 
L 483.289449 57.093132 
L 488.023499 104.797047 
L 492.757549 103.482883 
L 497.491599 63.736579 
L 502.225649 91.825713 
L 506.959699 65.255851 
L 511.69375 70.651189 
L 516.4278 85.055733 
L 521.16185 71.228832 
L 525.8959 96.389807 
L 530.62995 48.562206 
L 535.364 85.572501 
L 544.8321 93.108596 
L 549.56615 88.425327 
L 554.3002 93.481585 
L 559.034251 90.135211 
L 563.768301 74.731504 
L 568.502351 81.349183 
L 573.236401 81.547536 
L 577.970451 62.516762 
L 582.704501 88.561308 
L 587.438551 66.760559 
L 592.172601 91.187485 
L 596.906651 79.145448 
L 601.640702 87.657287 
L 606.374752 77.816338 
L 611.108802 79.609892 
L 615.842852 75.702735 
L 620.576902 83.214582 
L 625.310952 89.556634 
L 630.045002 76.353064 
L 634.779052 96.740799 
L 639.513102 89.923757 
L 644.247152 102.333137 
L 648.981203 97.169258 
L 653.715253 82.922999 
L 658.449303 89.451177 
L 663.183353 83.180076 
L 667.917403 88.101306 
L 672.651453 88.300364 
L 677.385503 71.69165 
L 682.119553 88.036516 
L 686.853603 71.391404 
L 691.587653 90.480742 
L 696.321704 78.14089 
L 701.055754 97.269678 
L 705.789804 61.56193 
L 710.523854 84.930956 
L 715.257904 86.288767 
L 719.991954 75.383228 
L 724.726004 60.403336 
L 729.460054 95.388594 
L 734.194104 101.005633 
L 738.928154 66.61401 
L 743.662205 69.626251 
L 748.396255 82.214935 
L 753.130305 95.634599 
L 757.864355 97.115884 
L 762.598405 89.91268 
L 767.332455 65.511142 
L 772.066505 91.793308 
L 776.800555 80.682643 
L 781.534605 68.525882 
L 786.268656 81.950861 
L 791.002706 71.018477 
L 795.736756 63.306982 
L 800.470806 79.072389 
L 805.204856 79.813141 
L 814.672956 99.045445 
L 819.407006 93.994695 
L 824.141056 66.723592 
L 828.875106 76.470668 
L 833.609157 61.18017 
L 838.343207 92.845056 
L 843.077257 75.774248 
L 847.811307 80.178389 
L 852.545357 92.110005 
L 857.279407 81.638636 
L 862.013457 85.375047 
L 866.747507 109.069134 
L 871.481557 107.213644 
L 876.215607 84.87692 
L 880.949658 88.672539 
L 885.683708 88.557205 
L 890.417758 86.375107 
L 895.151808 85.895929 
L 899.885858 85.822206 
L 904.619908 65.023395 
L 909.353958 72.063154 
L 914.088008 69.67888 
L 918.822058 78.946646 
L 923.556109 93.541967 
L 928.290159 82.515244 
L 933.024209 87.787306 
L 937.758259 94.107124 
L 942.492309 77.487992 
L 947.226359 63.234328 
L 951.960409 82.459716 
L 956.694459 73.600817 
L 961.428509 73.539415 
L 966.162559 97.34602 
L 970.89661 72.374371 
L 975.63066 74.039029 
L 980.36471 91.641744 
L 985.09876 82.513171 
L 989.83281 61.914941 
L 994.56686 55.111907 
L 999.30091 90.903004 
L 1004.03496 91.630164 
L 1008.76901 78.151101 
L 1013.50306 85.14309 
L 1018.237111 64.880329 
L 1022.971161 81.059332 
L 1027.705211 70.283396 
L 1032.439261 85.428355 
L 1037.173311 67.991879 
L 1041.907361 93.047033 
L 1046.641411 83.272254 
L 1051.375461 73.959899 
L 1056.109511 66.276868 
L 1060.843561 81.813817 
L 1065.577612 81.943571 
L 1070.311662 82.994002 
L 1075.045712 104.118998 
L 1079.779762 91.908525 
L 1084.513812 77.301574 
L 1089.247862 77.627533 
L 1093.981912 85.854054 
L 1098.715962 96.194482 
L 1103.450012 70.802933 
L 1108.184063 66.140805 
L 1112.918113 76.889994 
L 1117.652163 95.94854 
L 1122.386213 99.720028 
L 1127.120263 92.288216 
L 1131.854313 94.354314 
L 1136.588363 84.557302 
L 1141.322413 93.192993 
L 1146.056463 79.087212 
L 1150.790513 78.424695 
L 1155.524564 96.073757 
L 1160.258614 84.942138 
L 1164.992664 84.121517 
L 1169.726714 74.547257 
L 1174.460764 104.633108 
L 1179.194814 78.240845 
L 1183.928864 88.917573 
L 1188.662914 85.436837 
L 1193.396964 106.805554 
L 1198.131014 88.463356 
L 1202.865065 89.786713 
L 1207.599115 86.042315 
L 1212.333165 63.071629 
L 1217.067215 52.065673 
L 1221.801265 79.52952 
L 1226.535315 59.744752 
L 1231.269365 79.396605 
L 1236.003415 76.683064 
L 1240.737465 84.555755 
L 1245.471516 79.565486 
L 1250.205566 86.108467 
L 1254.939616 88.487202 
L 1259.673666 84.442564 
L 1264.407716 76.320644 
L 1269.141766 100.77536 
L 1273.875816 96.778817 
L 1278.609866 90.244585 
L 1283.343916 88.064633 
L 1288.077966 78.944727 
L 1292.812017 64.492637 
L 1297.546067 86.59861 
L 1302.280117 85.395016 
L 1307.014167 85.656471 
L 1311.748217 110.484696 
L 1316.482267 70.479359 
L 1321.216317 51.241398 
L 1325.950367 80.495316 
L 1330.684417 96.266246 
L 1335.418467 74.519561 
L 1340.152518 70.746708 
L 1344.886568 83.002206 
L 1349.620618 74.707099 
L 1354.354668 94.061685 
L 1359.088718 95.893347 
L 1363.822768 102.813077 
L 1363.822768 102.813077 
" style="fill:none;stroke:#2ca02c;stroke-linecap:square;stroke-width:1.5;"/>
   </g>
   <g id="patch_13">
    <path d="M 95.05 496.2 
L 95.05 19.955291 
" style="fill:none;stroke:#000000;stroke-linecap:square;stroke-linejoin:miter;stroke-width:0.8;"/>
   </g>
   <g id="patch_14">
    <path d="M 1429.2 496.2 
L 1429.2 19.955291 
" style="fill:none;stroke:#000000;stroke-linecap:square;stroke-linejoin:miter;stroke-width:0.8;"/>
   </g>
   <g id="patch_15">
    <path d="M 95.05 496.2 
L 1429.2 496.2 
" style="fill:none;stroke:#000000;stroke-linecap:square;stroke-linejoin:miter;stroke-width:0.8;"/>
   </g>
   <g id="patch_16">
    <path d="M 95.05 19.955291 
L 1429.2 19.955291 
" style="fill:none;stroke:#000000;stroke-linecap:square;stroke-linejoin:miter;stroke-width:0.8;"/>
   </g>
  </g>
 </g>
 <defs>
  <clipPath id="pb8c8313f6a">
   <rect height="476.244709" width="1334.15" x="95.05" y="19.955291"/>
  </clipPath>
 </defs>
</svg>
