<?xml version="1.0" encoding="utf-8" standalone="no"?>
<!DOCTYPE svg PUBLIC "-//W3C//DTD SVG 1.1//EN"
  "http://www.w3.org/Graphics/SVG/1.1/DTD/svg11.dtd">
<!-- Created with matplotlib (https://matplotlib.org/) -->
<svg height="576pt" version="1.1" viewBox="0 0 1440 576" width="1440pt" xmlns="http://www.w3.org/2000/svg" xmlns:xlink="http://www.w3.org/1999/xlink">
 <defs>
  <style type="text/css">
*{stroke-linecap:butt;stroke-linejoin:round;white-space:pre;}
  </style>
 </defs>
 <g id="figure_1">
  <g id="patch_1">
   <path d="M 0 576 
L 1440 576 
L 1440 0 
L 0 0 
z
" style="fill:#ffffff;"/>
  </g>
  <g id="axes_1">
   <g id="patch_2">
    <path d="M 114.175 496.2 
L 1429.2 496.2 
L 1429.2 10.8 
L 114.175 10.8 
z
" style="fill:#ffffff;"/>
   </g>
   <g id="patch_3">
    <path clip-path="url(#p84eff66b87)" d="M 173.948864 496.2 
L 173.948864 10.8 
L 174.882101 10.8 
L 174.882101 496.2 
z
" style="fill:#0000ff;"/>
   </g>
   <g id="patch_4">
    <path clip-path="url(#p84eff66b87)" d="M 178.615051 496.2 
L 178.615051 10.8 
L 179.548289 10.8 
L 179.548289 496.2 
z
" style="fill:#0000ff;"/>
   </g>
   <g id="patch_5">
    <path clip-path="url(#p84eff66b87)" d="M 215.944552 496.2 
L 215.944552 10.8 
L 216.87779 10.8 
L 216.87779 496.2 
z
" style="fill:#0000ff;"/>
   </g>
   <g id="patch_6">
    <path clip-path="url(#p84eff66b87)" d="M 346.597806 496.2 
L 346.597806 10.8 
L 347.531044 10.8 
L 347.531044 496.2 
z
" style="fill:#0000ff;"/>
   </g>
   <g id="patch_7">
    <path clip-path="url(#p84eff66b87)" d="M 607.904314 496.2 
L 607.904314 10.8 
L 608.837551 10.8 
L 608.837551 496.2 
z
" style="fill:#0000ff;"/>
   </g>
   <g id="patch_8">
    <path clip-path="url(#p84eff66b87)" d="M 934.537449 496.2 
L 934.537449 10.8 
L 935.470686 10.8 
L 935.470686 496.2 
z
" style="fill:#0000ff;"/>
   </g>
   <g id="patch_9">
    <path clip-path="url(#p84eff66b87)" d="M 1195.843956 496.2 
L 1195.843956 10.8 
L 1196.777194 10.8 
L 1196.777194 496.2 
z
" style="fill:#0000ff;"/>
   </g>
   <g id="patch_10">
    <path clip-path="url(#p84eff66b87)" d="M 1326.49721 496.2 
L 1326.49721 10.8 
L 1327.430448 10.8 
L 1327.430448 496.2 
z
" style="fill:#0000ff;"/>
   </g>
   <g id="patch_11">
    <path clip-path="url(#p84eff66b87)" d="M 1363.826711 496.2 
L 1363.826711 10.8 
L 1364.759949 10.8 
L 1364.759949 496.2 
z
" style="fill:#0000ff;"/>
   </g>
   <g id="patch_12">
    <path clip-path="url(#p84eff66b87)" d="M 1368.492899 496.2 
L 1368.492899 10.8 
L 1369.426136 10.8 
L 1369.426136 496.2 
z
" style="fill:#0000ff;"/>
   </g>
   <g id="matplotlib.axis_1">
    <g id="xtick_1">
     <g id="line2d_1">
      <defs>
       <path d="M 0 0 
L 0 3.5 
" id="m92b69991b1" style="stroke:#000000;stroke-width:0.8;"/>
      </defs>
      <g>
       <use style="stroke:#000000;stroke-width:0.8;" x="174.882101" xlink:href="#m92b69991b1" y="496.2"/>
      </g>
     </g>
     <g id="text_1">
      <!-- 0 -->
      <defs>
       <path d="M 31.78125 66.40625 
Q 24.171875 66.40625 20.328125 58.90625 
Q 16.5 51.421875 16.5 36.375 
Q 16.5 21.390625 20.328125 13.890625 
Q 24.171875 6.390625 31.78125 6.390625 
Q 39.453125 6.390625 43.28125 13.890625 
Q 47.125 21.390625 47.125 36.375 
Q 47.125 51.421875 43.28125 58.90625 
Q 39.453125 66.40625 31.78125 66.40625 
z
M 31.78125 74.21875 
Q 44.046875 74.21875 50.515625 64.515625 
Q 56.984375 54.828125 56.984375 36.375 
Q 56.984375 17.96875 50.515625 8.265625 
Q 44.046875 -1.421875 31.78125 -1.421875 
Q 19.53125 -1.421875 13.0625 8.265625 
Q 6.59375 17.96875 6.59375 36.375 
Q 6.59375 54.828125 13.0625 64.515625 
Q 19.53125 74.21875 31.78125 74.21875 
z
" id="DejaVuSans-48"/>
      </defs>
      <g transform="translate(165.338351 525.995312)scale(0.3 -0.3)">
       <use xlink:href="#DejaVuSans-48"/>
      </g>
     </g>
    </g>
    <g id="xtick_2">
     <g id="line2d_2">
      <g>
       <use style="stroke:#000000;stroke-width:0.8;" x="408.191483" xlink:href="#m92b69991b1" y="496.2"/>
      </g>
     </g>
     <g id="text_2">
      <!-- 50 -->
      <defs>
       <path d="M 10.796875 72.90625 
L 49.515625 72.90625 
L 49.515625 64.59375 
L 19.828125 64.59375 
L 19.828125 46.734375 
Q 21.96875 47.46875 24.109375 47.828125 
Q 26.265625 48.1875 28.421875 48.1875 
Q 40.625 48.1875 47.75 41.5 
Q 54.890625 34.8125 54.890625 23.390625 
Q 54.890625 11.625 47.5625 5.09375 
Q 40.234375 -1.421875 26.90625 -1.421875 
Q 22.3125 -1.421875 17.546875 -0.640625 
Q 12.796875 0.140625 7.71875 1.703125 
L 7.71875 11.625 
Q 12.109375 9.234375 16.796875 8.0625 
Q 21.484375 6.890625 26.703125 6.890625 
Q 35.15625 6.890625 40.078125 11.328125 
Q 45.015625 15.765625 45.015625 23.390625 
Q 45.015625 31 40.078125 35.4375 
Q 35.15625 39.890625 26.703125 39.890625 
Q 22.75 39.890625 18.8125 39.015625 
Q 14.890625 38.140625 10.796875 36.28125 
z
" id="DejaVuSans-53"/>
      </defs>
      <g transform="translate(389.103983 525.995312)scale(0.3 -0.3)">
       <use xlink:href="#DejaVuSans-53"/>
       <use x="63.623047" xlink:href="#DejaVuSans-48"/>
      </g>
     </g>
    </g>
    <g id="xtick_3">
     <g id="line2d_3">
      <g>
       <use style="stroke:#000000;stroke-width:0.8;" x="641.500865" xlink:href="#m92b69991b1" y="496.2"/>
      </g>
     </g>
     <g id="text_3">
      <!-- 100 -->
      <defs>
       <path d="M 12.40625 8.296875 
L 28.515625 8.296875 
L 28.515625 63.921875 
L 10.984375 60.40625 
L 10.984375 69.390625 
L 28.421875 72.90625 
L 38.28125 72.90625 
L 38.28125 8.296875 
L 54.390625 8.296875 
L 54.390625 0 
L 12.40625 0 
z
" id="DejaVuSans-49"/>
      </defs>
      <g transform="translate(612.869615 525.995312)scale(0.3 -0.3)">
       <use xlink:href="#DejaVuSans-49"/>
       <use x="63.623047" xlink:href="#DejaVuSans-48"/>
       <use x="127.246094" xlink:href="#DejaVuSans-48"/>
      </g>
     </g>
    </g>
    <g id="xtick_4">
     <g id="line2d_4">
      <g>
       <use style="stroke:#000000;stroke-width:0.8;" x="874.810247" xlink:href="#m92b69991b1" y="496.2"/>
      </g>
     </g>
     <g id="text_4">
      <!-- 150 -->
      <g transform="translate(846.178997 525.995312)scale(0.3 -0.3)">
       <use xlink:href="#DejaVuSans-49"/>
       <use x="63.623047" xlink:href="#DejaVuSans-53"/>
       <use x="127.246094" xlink:href="#DejaVuSans-48"/>
      </g>
     </g>
    </g>
    <g id="xtick_5">
     <g id="line2d_5">
      <g>
       <use style="stroke:#000000;stroke-width:0.8;" x="1108.119629" xlink:href="#m92b69991b1" y="496.2"/>
      </g>
     </g>
     <g id="text_5">
      <!-- 200 -->
      <defs>
       <path d="M 19.1875 8.296875 
L 53.609375 8.296875 
L 53.609375 0 
L 7.328125 0 
L 7.328125 8.296875 
Q 12.9375 14.109375 22.625 23.890625 
Q 32.328125 33.6875 34.8125 36.53125 
Q 39.546875 41.84375 41.421875 45.53125 
Q 43.3125 49.21875 43.3125 52.78125 
Q 43.3125 58.59375 39.234375 62.25 
Q 35.15625 65.921875 28.609375 65.921875 
Q 23.96875 65.921875 18.8125 64.3125 
Q 13.671875 62.703125 7.8125 59.421875 
L 7.8125 69.390625 
Q 13.765625 71.78125 18.9375 73 
Q 24.125 74.21875 28.421875 74.21875 
Q 39.75 74.21875 46.484375 68.546875 
Q 53.21875 62.890625 53.21875 53.421875 
Q 53.21875 48.921875 51.53125 44.890625 
Q 49.859375 40.875 45.40625 35.40625 
Q 44.1875 33.984375 37.640625 27.21875 
Q 31.109375 20.453125 19.1875 8.296875 
z
" id="DejaVuSans-50"/>
      </defs>
      <g transform="translate(1079.488379 525.995312)scale(0.3 -0.3)">
       <use xlink:href="#DejaVuSans-50"/>
       <use x="63.623047" xlink:href="#DejaVuSans-48"/>
       <use x="127.246094" xlink:href="#DejaVuSans-48"/>
      </g>
     </g>
    </g>
    <g id="xtick_6">
     <g id="line2d_6">
      <g>
       <use style="stroke:#000000;stroke-width:0.8;" x="1341.429011" xlink:href="#m92b69991b1" y="496.2"/>
      </g>
     </g>
     <g id="text_6">
      <!-- 250 -->
      <g transform="translate(1312.797761 525.995312)scale(0.3 -0.3)">
       <use xlink:href="#DejaVuSans-50"/>
       <use x="63.623047" xlink:href="#DejaVuSans-53"/>
       <use x="127.246094" xlink:href="#DejaVuSans-48"/>
      </g>
     </g>
    </g>
    <g id="text_7">
     <!-- Bit Interaction -->
     <defs>
      <path d="M 19.671875 34.8125 
L 19.671875 8.109375 
L 35.5 8.109375 
Q 43.453125 8.109375 47.28125 11.40625 
Q 51.125 14.703125 51.125 21.484375 
Q 51.125 28.328125 47.28125 31.5625 
Q 43.453125 34.8125 35.5 34.8125 
z
M 19.671875 64.796875 
L 19.671875 42.828125 
L 34.28125 42.828125 
Q 41.5 42.828125 45.03125 45.53125 
Q 48.578125 48.25 48.578125 53.8125 
Q 48.578125 59.328125 45.03125 62.0625 
Q 41.5 64.796875 34.28125 64.796875 
z
M 9.8125 72.90625 
L 35.015625 72.90625 
Q 46.296875 72.90625 52.390625 68.21875 
Q 58.5 63.53125 58.5 54.890625 
Q 58.5 48.1875 55.375 44.234375 
Q 52.25 40.28125 46.1875 39.3125 
Q 53.46875 37.75 57.5 32.78125 
Q 61.53125 27.828125 61.53125 20.40625 
Q 61.53125 10.640625 54.890625 5.3125 
Q 48.25 0 35.984375 0 
L 9.8125 0 
z
" id="DejaVuSans-66"/>
      <path d="M 9.421875 54.6875 
L 18.40625 54.6875 
L 18.40625 0 
L 9.421875 0 
z
M 9.421875 75.984375 
L 18.40625 75.984375 
L 18.40625 64.59375 
L 9.421875 64.59375 
z
" id="DejaVuSans-105"/>
      <path d="M 18.3125 70.21875 
L 18.3125 54.6875 
L 36.8125 54.6875 
L 36.8125 47.703125 
L 18.3125 47.703125 
L 18.3125 18.015625 
Q 18.3125 11.328125 20.140625 9.421875 
Q 21.96875 7.515625 27.59375 7.515625 
L 36.8125 7.515625 
L 36.8125 0 
L 27.59375 0 
Q 17.1875 0 13.234375 3.875 
Q 9.28125 7.765625 9.28125 18.015625 
L 9.28125 47.703125 
L 2.6875 47.703125 
L 2.6875 54.6875 
L 9.28125 54.6875 
L 9.28125 70.21875 
z
" id="DejaVuSans-116"/>
      <path id="DejaVuSans-32"/>
      <path d="M 9.8125 72.90625 
L 19.671875 72.90625 
L 19.671875 0 
L 9.8125 0 
z
" id="DejaVuSans-73"/>
      <path d="M 54.890625 33.015625 
L 54.890625 0 
L 45.90625 0 
L 45.90625 32.71875 
Q 45.90625 40.484375 42.875 44.328125 
Q 39.84375 48.1875 33.796875 48.1875 
Q 26.515625 48.1875 22.3125 43.546875 
Q 18.109375 38.921875 18.109375 30.90625 
L 18.109375 0 
L 9.078125 0 
L 9.078125 54.6875 
L 18.109375 54.6875 
L 18.109375 46.1875 
Q 21.34375 51.125 25.703125 53.5625 
Q 30.078125 56 35.796875 56 
Q 45.21875 56 50.046875 50.171875 
Q 54.890625 44.34375 54.890625 33.015625 
z
" id="DejaVuSans-110"/>
      <path d="M 56.203125 29.59375 
L 56.203125 25.203125 
L 14.890625 25.203125 
Q 15.484375 15.921875 20.484375 11.0625 
Q 25.484375 6.203125 34.421875 6.203125 
Q 39.59375 6.203125 44.453125 7.46875 
Q 49.3125 8.734375 54.109375 11.28125 
L 54.109375 2.78125 
Q 49.265625 0.734375 44.1875 -0.34375 
Q 39.109375 -1.421875 33.890625 -1.421875 
Q 20.796875 -1.421875 13.15625 6.1875 
Q 5.515625 13.8125 5.515625 26.8125 
Q 5.515625 40.234375 12.765625 48.109375 
Q 20.015625 56 32.328125 56 
Q 43.359375 56 49.78125 48.890625 
Q 56.203125 41.796875 56.203125 29.59375 
z
M 47.21875 32.234375 
Q 47.125 39.59375 43.09375 43.984375 
Q 39.0625 48.390625 32.421875 48.390625 
Q 24.90625 48.390625 20.390625 44.140625 
Q 15.875 39.890625 15.1875 32.171875 
z
" id="DejaVuSans-101"/>
      <path d="M 41.109375 46.296875 
Q 39.59375 47.171875 37.8125 47.578125 
Q 36.03125 48 33.890625 48 
Q 26.265625 48 22.1875 43.046875 
Q 18.109375 38.09375 18.109375 28.8125 
L 18.109375 0 
L 9.078125 0 
L 9.078125 54.6875 
L 18.109375 54.6875 
L 18.109375 46.1875 
Q 20.953125 51.171875 25.484375 53.578125 
Q 30.03125 56 36.53125 56 
Q 37.453125 56 38.578125 55.875 
Q 39.703125 55.765625 41.0625 55.515625 
z
" id="DejaVuSans-114"/>
      <path d="M 34.28125 27.484375 
Q 23.390625 27.484375 19.1875 25 
Q 14.984375 22.515625 14.984375 16.5 
Q 14.984375 11.71875 18.140625 8.90625 
Q 21.296875 6.109375 26.703125 6.109375 
Q 34.1875 6.109375 38.703125 11.40625 
Q 43.21875 16.703125 43.21875 25.484375 
L 43.21875 27.484375 
z
M 52.203125 31.203125 
L 52.203125 0 
L 43.21875 0 
L 43.21875 8.296875 
Q 40.140625 3.328125 35.546875 0.953125 
Q 30.953125 -1.421875 24.3125 -1.421875 
Q 15.921875 -1.421875 10.953125 3.296875 
Q 6 8.015625 6 15.921875 
Q 6 25.140625 12.171875 29.828125 
Q 18.359375 34.515625 30.609375 34.515625 
L 43.21875 34.515625 
L 43.21875 35.40625 
Q 43.21875 41.609375 39.140625 45 
Q 35.0625 48.390625 27.6875 48.390625 
Q 23 48.390625 18.546875 47.265625 
Q 14.109375 46.140625 10.015625 43.890625 
L 10.015625 52.203125 
Q 14.9375 54.109375 19.578125 55.046875 
Q 24.21875 56 28.609375 56 
Q 40.484375 56 46.34375 49.84375 
Q 52.203125 43.703125 52.203125 31.203125 
z
" id="DejaVuSans-97"/>
      <path d="M 48.78125 52.59375 
L 48.78125 44.1875 
Q 44.96875 46.296875 41.140625 47.34375 
Q 37.3125 48.390625 33.40625 48.390625 
Q 24.65625 48.390625 19.8125 42.84375 
Q 14.984375 37.3125 14.984375 27.296875 
Q 14.984375 17.28125 19.8125 11.734375 
Q 24.65625 6.203125 33.40625 6.203125 
Q 37.3125 6.203125 41.140625 7.25 
Q 44.96875 8.296875 48.78125 10.40625 
L 48.78125 2.09375 
Q 45.015625 0.34375 40.984375 -0.53125 
Q 36.96875 -1.421875 32.421875 -1.421875 
Q 20.0625 -1.421875 12.78125 6.34375 
Q 5.515625 14.109375 5.515625 27.296875 
Q 5.515625 40.671875 12.859375 48.328125 
Q 20.21875 56 33.015625 56 
Q 37.15625 56 41.109375 55.140625 
Q 45.0625 54.296875 48.78125 52.59375 
z
" id="DejaVuSans-99"/>
      <path d="M 30.609375 48.390625 
Q 23.390625 48.390625 19.1875 42.75 
Q 14.984375 37.109375 14.984375 27.296875 
Q 14.984375 17.484375 19.15625 11.84375 
Q 23.34375 6.203125 30.609375 6.203125 
Q 37.796875 6.203125 41.984375 11.859375 
Q 46.1875 17.53125 46.1875 27.296875 
Q 46.1875 37.015625 41.984375 42.703125 
Q 37.796875 48.390625 30.609375 48.390625 
z
M 30.609375 56 
Q 42.328125 56 49.015625 48.375 
Q 55.71875 40.765625 55.71875 27.296875 
Q 55.71875 13.875 49.015625 6.21875 
Q 42.328125 -1.421875 30.609375 -1.421875 
Q 18.84375 -1.421875 12.171875 6.21875 
Q 5.515625 13.875 5.515625 27.296875 
Q 5.515625 40.765625 12.171875 48.375 
Q 18.84375 56 30.609375 56 
z
" id="DejaVuSans-111"/>
     </defs>
     <g transform="translate(665.201563 559.029688)scale(0.3 -0.3)">
      <use xlink:href="#DejaVuSans-66"/>
      <use x="68.603516" xlink:href="#DejaVuSans-105"/>
      <use x="96.386719" xlink:href="#DejaVuSans-116"/>
      <use x="135.595703" xlink:href="#DejaVuSans-32"/>
      <use x="167.382812" xlink:href="#DejaVuSans-73"/>
      <use x="196.875" xlink:href="#DejaVuSans-110"/>
      <use x="260.253906" xlink:href="#DejaVuSans-116"/>
      <use x="299.462891" xlink:href="#DejaVuSans-101"/>
      <use x="360.986328" xlink:href="#DejaVuSans-114"/>
      <use x="402.099609" xlink:href="#DejaVuSans-97"/>
      <use x="463.378906" xlink:href="#DejaVuSans-99"/>
      <use x="518.359375" xlink:href="#DejaVuSans-116"/>
      <use x="557.568359" xlink:href="#DejaVuSans-105"/>
      <use x="585.351562" xlink:href="#DejaVuSans-111"/>
      <use x="646.533203" xlink:href="#DejaVuSans-110"/>
     </g>
    </g>
   </g>
   <g id="matplotlib.axis_2">
    <g id="ytick_1">
     <g id="line2d_7">
      <defs>
       <path d="M 0 0 
L -3.5 0 
" id="m67860dddaf" style="stroke:#000000;stroke-width:0.8;"/>
      </defs>
      <g>
       <use style="stroke:#000000;stroke-width:0.8;" x="114.175" xlink:href="#m67860dddaf" y="434.242139"/>
      </g>
     </g>
     <g id="text_8">
      <!-- −10 -->
      <defs>
       <path d="M 10.59375 35.5 
L 73.1875 35.5 
L 73.1875 27.203125 
L 10.59375 27.203125 
z
" id="DejaVuSans-8722"/>
      </defs>
      <g transform="translate(43.860937 445.639795)scale(0.3 -0.3)">
       <use xlink:href="#DejaVuSans-8722"/>
       <use x="83.789062" xlink:href="#DejaVuSans-49"/>
       <use x="147.412109" xlink:href="#DejaVuSans-48"/>
      </g>
     </g>
    </g>
    <g id="ytick_2">
     <g id="line2d_8">
      <g>
       <use style="stroke:#000000;stroke-width:0.8;" x="114.175" xlink:href="#m67860dddaf" y="359.514757"/>
      </g>
     </g>
     <g id="text_9">
      <!-- −8 -->
      <defs>
       <path d="M 31.78125 34.625 
Q 24.75 34.625 20.71875 30.859375 
Q 16.703125 27.09375 16.703125 20.515625 
Q 16.703125 13.921875 20.71875 10.15625 
Q 24.75 6.390625 31.78125 6.390625 
Q 38.8125 6.390625 42.859375 10.171875 
Q 46.921875 13.96875 46.921875 20.515625 
Q 46.921875 27.09375 42.890625 30.859375 
Q 38.875 34.625 31.78125 34.625 
z
M 21.921875 38.8125 
Q 15.578125 40.375 12.03125 44.71875 
Q 8.5 49.078125 8.5 55.328125 
Q 8.5 64.0625 14.71875 69.140625 
Q 20.953125 74.21875 31.78125 74.21875 
Q 42.671875 74.21875 48.875 69.140625 
Q 55.078125 64.0625 55.078125 55.328125 
Q 55.078125 49.078125 51.53125 44.71875 
Q 48 40.375 41.703125 38.8125 
Q 48.828125 37.15625 52.796875 32.3125 
Q 56.78125 27.484375 56.78125 20.515625 
Q 56.78125 9.90625 50.3125 4.234375 
Q 43.84375 -1.421875 31.78125 -1.421875 
Q 19.734375 -1.421875 13.25 4.234375 
Q 6.78125 9.90625 6.78125 20.515625 
Q 6.78125 27.484375 10.78125 32.3125 
Q 14.796875 37.15625 21.921875 38.8125 
z
M 18.3125 54.390625 
Q 18.3125 48.734375 21.84375 45.5625 
Q 25.390625 42.390625 31.78125 42.390625 
Q 38.140625 42.390625 41.71875 45.5625 
Q 45.3125 48.734375 45.3125 54.390625 
Q 45.3125 60.0625 41.71875 63.234375 
Q 38.140625 66.40625 31.78125 66.40625 
Q 25.390625 66.40625 21.84375 63.234375 
Q 18.3125 60.0625 18.3125 54.390625 
z
" id="DejaVuSans-56"/>
      </defs>
      <g transform="translate(62.948437 370.912413)scale(0.3 -0.3)">
       <use xlink:href="#DejaVuSans-8722"/>
       <use x="83.789062" xlink:href="#DejaVuSans-56"/>
      </g>
     </g>
    </g>
    <g id="ytick_3">
     <g id="line2d_9">
      <g>
       <use style="stroke:#000000;stroke-width:0.8;" x="114.175" xlink:href="#m67860dddaf" y="284.787376"/>
      </g>
     </g>
     <g id="text_10">
      <!-- −6 -->
      <defs>
       <path d="M 33.015625 40.375 
Q 26.375 40.375 22.484375 35.828125 
Q 18.609375 31.296875 18.609375 23.390625 
Q 18.609375 15.53125 22.484375 10.953125 
Q 26.375 6.390625 33.015625 6.390625 
Q 39.65625 6.390625 43.53125 10.953125 
Q 47.40625 15.53125 47.40625 23.390625 
Q 47.40625 31.296875 43.53125 35.828125 
Q 39.65625 40.375 33.015625 40.375 
z
M 52.59375 71.296875 
L 52.59375 62.3125 
Q 48.875 64.0625 45.09375 64.984375 
Q 41.3125 65.921875 37.59375 65.921875 
Q 27.828125 65.921875 22.671875 59.328125 
Q 17.53125 52.734375 16.796875 39.40625 
Q 19.671875 43.65625 24.015625 45.921875 
Q 28.375 48.1875 33.59375 48.1875 
Q 44.578125 48.1875 50.953125 41.515625 
Q 57.328125 34.859375 57.328125 23.390625 
Q 57.328125 12.15625 50.6875 5.359375 
Q 44.046875 -1.421875 33.015625 -1.421875 
Q 20.359375 -1.421875 13.671875 8.265625 
Q 6.984375 17.96875 6.984375 36.375 
Q 6.984375 53.65625 15.1875 63.9375 
Q 23.390625 74.21875 37.203125 74.21875 
Q 40.921875 74.21875 44.703125 73.484375 
Q 48.484375 72.75 52.59375 71.296875 
z
" id="DejaVuSans-54"/>
      </defs>
      <g transform="translate(62.948437 296.185032)scale(0.3 -0.3)">
       <use xlink:href="#DejaVuSans-8722"/>
       <use x="83.789062" xlink:href="#DejaVuSans-54"/>
      </g>
     </g>
    </g>
    <g id="ytick_4">
     <g id="line2d_10">
      <g>
       <use style="stroke:#000000;stroke-width:0.8;" x="114.175" xlink:href="#m67860dddaf" y="210.059994"/>
      </g>
     </g>
     <g id="text_11">
      <!-- −4 -->
      <defs>
       <path d="M 37.796875 64.3125 
L 12.890625 25.390625 
L 37.796875 25.390625 
z
M 35.203125 72.90625 
L 47.609375 72.90625 
L 47.609375 25.390625 
L 58.015625 25.390625 
L 58.015625 17.1875 
L 47.609375 17.1875 
L 47.609375 0 
L 37.796875 0 
L 37.796875 17.1875 
L 4.890625 17.1875 
L 4.890625 26.703125 
z
" id="DejaVuSans-52"/>
      </defs>
      <g transform="translate(62.948437 221.45765)scale(0.3 -0.3)">
       <use xlink:href="#DejaVuSans-8722"/>
       <use x="83.789062" xlink:href="#DejaVuSans-52"/>
      </g>
     </g>
    </g>
    <g id="ytick_5">
     <g id="line2d_11">
      <g>
       <use style="stroke:#000000;stroke-width:0.8;" x="114.175" xlink:href="#m67860dddaf" y="135.332612"/>
      </g>
     </g>
     <g id="text_12">
      <!-- −2 -->
      <g transform="translate(62.948437 146.730268)scale(0.3 -0.3)">
       <use xlink:href="#DejaVuSans-8722"/>
       <use x="83.789062" xlink:href="#DejaVuSans-50"/>
      </g>
     </g>
    </g>
    <g id="ytick_6">
     <g id="line2d_12">
      <g>
       <use style="stroke:#000000;stroke-width:0.8;" x="114.175" xlink:href="#m67860dddaf" y="60.605231"/>
      </g>
     </g>
     <g id="text_13">
      <!-- 0 -->
      <g transform="translate(88.0875 72.002887)scale(0.3 -0.3)">
       <use xlink:href="#DejaVuSans-48"/>
      </g>
     </g>
    </g>
    <g id="text_14">
     <!-- Weight Value -->
     <defs>
      <path d="M 3.328125 72.90625 
L 13.28125 72.90625 
L 28.609375 11.28125 
L 43.890625 72.90625 
L 54.984375 72.90625 
L 70.3125 11.28125 
L 85.59375 72.90625 
L 95.609375 72.90625 
L 77.296875 0 
L 64.890625 0 
L 49.515625 63.28125 
L 33.984375 0 
L 21.578125 0 
z
" id="DejaVuSans-87"/>
      <path d="M 45.40625 27.984375 
Q 45.40625 37.75 41.375 43.109375 
Q 37.359375 48.484375 30.078125 48.484375 
Q 22.859375 48.484375 18.828125 43.109375 
Q 14.796875 37.75 14.796875 27.984375 
Q 14.796875 18.265625 18.828125 12.890625 
Q 22.859375 7.515625 30.078125 7.515625 
Q 37.359375 7.515625 41.375 12.890625 
Q 45.40625 18.265625 45.40625 27.984375 
z
M 54.390625 6.78125 
Q 54.390625 -7.171875 48.1875 -13.984375 
Q 42 -20.796875 29.203125 -20.796875 
Q 24.46875 -20.796875 20.265625 -20.09375 
Q 16.0625 -19.390625 12.109375 -17.921875 
L 12.109375 -9.1875 
Q 16.0625 -11.328125 19.921875 -12.34375 
Q 23.78125 -13.375 27.78125 -13.375 
Q 36.625 -13.375 41.015625 -8.765625 
Q 45.40625 -4.15625 45.40625 5.171875 
L 45.40625 9.625 
Q 42.625 4.78125 38.28125 2.390625 
Q 33.9375 0 27.875 0 
Q 17.828125 0 11.671875 7.65625 
Q 5.515625 15.328125 5.515625 27.984375 
Q 5.515625 40.671875 11.671875 48.328125 
Q 17.828125 56 27.875 56 
Q 33.9375 56 38.28125 53.609375 
Q 42.625 51.21875 45.40625 46.390625 
L 45.40625 54.6875 
L 54.390625 54.6875 
z
" id="DejaVuSans-103"/>
      <path d="M 54.890625 33.015625 
L 54.890625 0 
L 45.90625 0 
L 45.90625 32.71875 
Q 45.90625 40.484375 42.875 44.328125 
Q 39.84375 48.1875 33.796875 48.1875 
Q 26.515625 48.1875 22.3125 43.546875 
Q 18.109375 38.921875 18.109375 30.90625 
L 18.109375 0 
L 9.078125 0 
L 9.078125 75.984375 
L 18.109375 75.984375 
L 18.109375 46.1875 
Q 21.34375 51.125 25.703125 53.5625 
Q 30.078125 56 35.796875 56 
Q 45.21875 56 50.046875 50.171875 
Q 54.890625 44.34375 54.890625 33.015625 
z
" id="DejaVuSans-104"/>
      <path d="M 28.609375 0 
L 0.78125 72.90625 
L 11.078125 72.90625 
L 34.1875 11.53125 
L 57.328125 72.90625 
L 67.578125 72.90625 
L 39.796875 0 
z
" id="DejaVuSans-86"/>
      <path d="M 9.421875 75.984375 
L 18.40625 75.984375 
L 18.40625 0 
L 9.421875 0 
z
" id="DejaVuSans-108"/>
      <path d="M 8.5 21.578125 
L 8.5 54.6875 
L 17.484375 54.6875 
L 17.484375 21.921875 
Q 17.484375 14.15625 20.5 10.265625 
Q 23.53125 6.390625 29.59375 6.390625 
Q 36.859375 6.390625 41.078125 11.03125 
Q 45.3125 15.671875 45.3125 23.6875 
L 45.3125 54.6875 
L 54.296875 54.6875 
L 54.296875 0 
L 45.3125 0 
L 45.3125 8.40625 
Q 42.046875 3.421875 37.71875 1 
Q 33.40625 -1.421875 27.6875 -1.421875 
Q 18.265625 -1.421875 13.375 4.4375 
Q 8.5 10.296875 8.5 21.578125 
z
M 31.109375 56 
z
" id="DejaVuSans-117"/>
     </defs>
     <g transform="translate(33.621875 353.732813)rotate(-90)scale(0.3 -0.3)">
      <use xlink:href="#DejaVuSans-87"/>
      <use x="98.798828" xlink:href="#DejaVuSans-101"/>
      <use x="160.322266" xlink:href="#DejaVuSans-105"/>
      <use x="188.105469" xlink:href="#DejaVuSans-103"/>
      <use x="251.582031" xlink:href="#DejaVuSans-104"/>
      <use x="314.960938" xlink:href="#DejaVuSans-116"/>
      <use x="354.169922" xlink:href="#DejaVuSans-32"/>
      <use x="385.957031" xlink:href="#DejaVuSans-86"/>
      <use x="454.255859" xlink:href="#DejaVuSans-97"/>
      <use x="515.535156" xlink:href="#DejaVuSans-108"/>
      <use x="543.318359" xlink:href="#DejaVuSans-117"/>
      <use x="606.697266" xlink:href="#DejaVuSans-101"/>
     </g>
    </g>
   </g>
   <g id="line2d_13">
    <path clip-path="url(#p84eff66b87)" d="M 174.882101 67.976606 
L 179.548289 58.858103 
L 184.214476 62.303043 
L 188.880664 59.719024 
L 193.546852 51.52285 
L 198.213039 69.622566 
L 202.879227 48.458508 
L 207.545415 67.327062 
L 212.211602 63.653112 
L 216.87779 70.646656 
L 221.543978 59.688634 
L 226.210165 68.54943 
L 230.876353 60.870155 
L 235.54254 56.349591 
L 240.208728 61.910012 
L 244.874916 60.778628 
L 249.541103 65.231921 
L 254.207291 55.476079 
L 258.873479 59.768122 
L 263.539666 64.562148 
L 268.205854 60.420036 
L 272.872042 68.743092 
L 277.538229 60.644601 
L 282.204417 60.694539 
L 286.870604 59.836721 
L 291.536792 53.121328 
L 296.20298 68.977402 
L 300.869167 62.042841 
L 305.535355 65.491546 
L 310.201543 61.158645 
L 314.86773 66.496921 
L 319.533918 57.679833 
L 324.200106 65.203703 
L 328.866293 68.119298 
L 333.532481 59.241387 
L 338.198668 44.209201 
L 342.864856 65.701723 
L 347.531044 52.766555 
L 352.197231 60.207411 
L 356.863419 64.771255 
L 361.529607 53.474729 
L 366.195794 68.510387 
L 370.861982 75.565513 
L 375.52817 76.397383 
L 380.194357 61.799321 
L 384.860545 50.425386 
L 389.526732 66.245774 
L 394.19292 71.944938 
L 398.859108 54.84834 
L 403.525295 69.003511 
L 408.191483 47.039283 
L 412.857671 63.898668 
L 417.523858 57.426657 
L 422.190046 62.21812 
L 426.856234 58.79869 
L 431.522421 59.437624 
L 436.188609 78.641183 
L 440.854797 61.51961 
L 445.520984 59.173132 
L 450.187172 59.976035 
L 454.853359 53.094449 
L 459.519547 59.148766 
L 464.185735 58.024867 
L 468.851922 57.101029 
L 473.51811 64.55991 
L 478.184298 68.232227 
L 482.850485 59.019549 
L 487.516673 74.28766 
L 492.182861 62.447242 
L 496.849048 56.430779 
L 501.515236 69.917269 
L 506.181423 64.678412 
L 510.847611 64.756724 
L 515.513799 51.759276 
L 520.179986 74.03457 
L 524.846174 64.278153 
L 529.512362 75.127499 
L 534.178549 57.971755 
L 538.844737 68.944074 
L 543.510925 63.34735 
L 548.177112 62.174731 
L 552.8433 67.235541 
L 557.509487 55.236687 
L 562.175675 61.092971 
L 566.841863 77.914935 
L 571.50805 56.532554 
L 576.174238 71.643757 
L 580.840426 65.263235 
L 585.506613 48.084333 
L 590.172801 57.288618 
L 594.838989 49.674732 
L 599.505176 54.135739 
L 604.171364 57.988044 
L 608.837551 74.085404 
L 613.503739 55.948349 
L 618.169927 69.33372 
L 622.836114 76.09493 
L 627.502302 67.765294 
L 632.16849 63.183218 
L 636.834677 60.429436 
L 641.500865 56.608201 
L 646.167053 56.506364 
L 650.83324 62.504405 
L 655.499428 65.558047 
L 660.165615 51.923728 
L 664.831803 65.84411 
L 669.497991 65.961475 
L 674.164178 64.70493 
L 678.830366 56.994515 
L 683.496554 53.090109 
L 688.162741 66.886075 
L 692.828929 66.317709 
L 697.495117 57.684134 
L 702.161304 52.691643 
L 706.827492 53.865581 
L 711.493679 60.860969 
L 716.159867 48.970891 
L 720.826055 58.186842 
L 725.492242 58.529839 
L 730.15843 67.294789 
L 734.824618 57.867696 
L 739.490805 53.896606 
L 744.156993 48.376521 
L 748.823181 52.859512 
L 753.489368 59.563069 
L 758.155556 57.799113 
L 762.821743 67.423578 
L 767.487931 78.822656 
L 772.154119 39.430315 
L 776.820306 65.275466 
L 781.486494 55.888187 
L 786.152682 51.847398 
L 790.818869 68.648731 
L 795.485057 69.186605 
L 800.151245 66.193729 
L 804.817432 67.850462 
L 809.48362 60.784826 
L 814.149808 70.400989 
L 818.815995 68.454182 
L 823.482183 67.129396 
L 828.14837 48.421553 
L 832.814558 69.325883 
L 837.480746 69.240283 
L 842.146933 63.710901 
L 846.813121 51.001333 
L 851.479309 65.60547 
L 856.145496 57.374686 
L 860.811684 49.758034 
L 865.477872 69.423847 
L 870.144059 57.092999 
L 874.810247 78.385108 
L 879.476434 70.604558 
L 884.142622 63.846716 
L 888.80881 59.621559 
L 893.474997 66.662952 
L 898.141185 54.518292 
L 902.807373 54.795715 
L 907.47356 58.175987 
L 912.139748 59.865729 
L 916.805936 66.816519 
L 921.472123 65.830273 
L 926.138311 56.511303 
L 930.804498 48.587315 
L 935.470686 55.355244 
L 940.136874 59.635459 
L 944.803061 62.252533 
L 949.469249 58.903487 
L 954.135437 64.190091 
L 958.801624 67.636438 
L 963.467812 58.044655 
L 968.134 68.22566 
L 972.800187 49.412154 
L 977.466375 48.040882 
L 982.132562 60.630229 
L 986.79875 52.860969 
L 991.464938 46.633372 
L 996.131125 59.609312 
L 1000.797313 61.33833 
L 1005.463501 74.951874 
L 1010.129688 75.100222 
L 1014.795876 65.170356 
L 1019.462064 44.898958 
L 1024.128251 64.56635 
L 1028.794439 66.940607 
L 1033.460626 61.479523 
L 1038.126814 62.052321 
L 1042.793002 52.026615 
L 1047.459189 59.25211 
L 1052.125377 69.869855 
L 1056.791565 62.145265 
L 1061.457752 59.238508 
L 1066.12394 60.957719 
L 1070.790128 58.556292 
L 1075.456315 57.148929 
L 1080.122503 59.895458 
L 1084.78869 53.348243 
L 1089.454878 70.887308 
L 1094.121066 58.47876 
L 1098.787253 54.687982 
L 1103.453441 56.457093 
L 1108.119629 59.013843 
L 1112.785816 69.918459 
L 1117.452004 57.290975 
L 1122.118192 56.217297 
L 1126.784379 69.061192 
L 1131.450567 62.828421 
L 1136.116754 60.494144 
L 1145.44913 52.167164 
L 1150.115317 67.416739 
L 1154.781505 56.88601 
L 1159.447693 57.517377 
L 1164.11388 54.415138 
L 1168.780068 50.570481 
L 1173.446256 59.800319 
L 1178.112443 47.414032 
L 1182.778631 61.912869 
L 1187.444819 52.937067 
L 1192.111006 66.585033 
L 1196.777194 51.225084 
L 1201.443381 58.775217 
L 1206.109569 61.855199 
L 1210.775757 59.936086 
L 1215.441944 51.750314 
L 1220.108132 61.947515 
L 1224.77432 52.022493 
L 1229.440507 50.487941 
L 1234.106695 69.375471 
L 1238.772883 79.971829 
L 1243.43907 68.322629 
L 1248.105258 58.947559 
L 1252.771445 56.797215 
L 1257.437633 52.333893 
L 1262.103821 72.190622 
L 1266.770008 62.441009 
L 1271.436196 62.915343 
L 1276.102384 48.359106 
L 1280.768571 66.816517 
L 1285.434759 57.173294 
L 1290.100947 62.769252 
L 1294.767134 59.89992 
L 1299.433322 69.017561 
L 1304.099509 73.123463 
L 1308.765697 64.256949 
L 1313.431885 71.427936 
L 1318.098072 64.936923 
L 1322.76426 49.027582 
L 1327.430448 52.798261 
L 1332.096635 55.195301 
L 1336.762823 65.032071 
L 1341.429011 48.599243 
L 1346.095198 60.835528 
L 1350.761386 71.724117 
L 1355.427573 54.761482 
L 1360.093761 70.59012 
L 1364.759949 66.890072 
L 1364.759949 66.890072 
" style="fill:none;stroke:#1f77b4;stroke-linecap:square;stroke-width:1.5;"/>
   </g>
   <g id="line2d_14">
    <path clip-path="url(#p84eff66b87)" d="M 174.882101 53.371241 
L 179.548289 61.418106 
L 184.214476 55.984255 
L 188.880664 58.783254 
L 193.546852 474.136364 
L 198.213039 75.276685 
L 202.879227 51.785644 
L 207.545415 464.753466 
L 212.211602 59.547424 
L 216.87779 67.39863 
L 221.543978 65.73126 
L 226.210165 46.518382 
L 230.876353 61.270056 
L 235.54254 51.798059 
L 240.208728 54.521844 
L 244.874916 57.030968 
L 249.541103 57.971021 
L 254.207291 58.777737 
L 258.873479 70.949027 
L 263.539666 53.9605 
L 268.205854 56.63916 
L 272.872042 73.563604 
L 277.538229 67.655136 
L 282.204417 61.466017 
L 286.870604 65.454408 
L 291.536792 64.480185 
L 296.20298 50.616019 
L 300.869167 74.13297 
L 305.535355 59.30359 
L 310.201543 66.277258 
L 314.86773 67.582204 
L 319.533918 54.078908 
L 324.200106 65.217818 
L 328.866293 60.956848 
L 333.532481 56.510766 
L 338.198668 49.643775 
L 342.864856 71.805613 
L 347.531044 65.703706 
L 352.197231 71.164634 
L 356.863419 67.409963 
L 361.529607 53.720806 
L 366.195794 65.184808 
L 370.861982 57.084788 
L 375.52817 40.944978 
L 380.194357 63.331658 
L 384.860545 50.905331 
L 389.526732 32.863636 
L 394.19292 73.018384 
L 398.859108 60.260185 
L 403.525295 70.625302 
L 408.191483 65.219624 
L 412.857671 51.88834 
L 417.523858 64.454212 
L 422.190046 51.278755 
L 426.856234 54.964144 
L 431.522421 44.996935 
L 436.188609 48.267249 
L 440.854797 44.811043 
L 445.520984 47.438445 
L 450.187172 58.682692 
L 454.853359 47.108237 
L 459.519547 75.329167 
L 464.185735 70.059843 
L 468.851922 56.671991 
L 473.51811 63.53748 
L 478.184298 60.283145 
L 482.850485 67.689516 
L 487.516673 61.110914 
L 492.182861 72.769395 
L 496.849048 59.96123 
L 501.515236 52.540544 
L 506.181423 57.983865 
L 510.847611 59.507154 
L 515.513799 69.509663 
L 520.179986 71.565862 
L 524.846174 57.649266 
L 529.512362 62.005617 
L 534.178549 73.95774 
L 538.844737 57.682728 
L 543.510925 50.0273 
L 548.177112 77.983597 
L 552.8433 65.263281 
L 557.509487 63.463559 
L 562.175675 58.818841 
L 566.841863 52.327859 
L 571.50805 59.885835 
L 576.174238 74.242998 
L 580.840426 69.67165 
L 585.506613 37.684248 
L 590.172801 65.305593 
L 594.838989 65.600429 
L 599.505176 51.621676 
L 604.171364 59.156748 
L 608.837551 64.879305 
L 613.503739 56.54641 
L 618.169927 50.369615 
L 622.836114 55.315897 
L 627.502302 75.992935 
L 632.16849 54.320747 
L 636.834677 38.791978 
L 641.500865 66.048036 
L 646.167053 66.26802 
L 650.83324 60.03307 
L 655.499428 70.73947 
L 660.165615 59.780873 
L 664.831803 61.016464 
L 669.497991 64.6663 
L 674.164178 53.492795 
L 678.830366 61.592995 
L 683.496554 71.736118 
L 688.162741 59.216582 
L 692.828929 70.308966 
L 697.495117 58.387536 
L 702.161304 53.903836 
L 706.827492 62.156013 
L 711.493679 74.186471 
L 716.159867 70.87715 
L 720.826055 57.522049 
L 725.492242 59.605087 
L 730.15843 60.274819 
L 734.824618 63.912712 
L 739.490805 63.953723 
L 744.156993 58.488656 
L 748.823181 67.229855 
L 753.489368 54.156226 
L 758.155556 68.509564 
L 762.821743 50.422972 
L 767.487931 61.723935 
L 772.154119 47.049307 
L 776.820306 46.790962 
L 781.486494 74.119975 
L 786.152682 59.674554 
L 790.818869 75.534996 
L 795.485057 59.270688 
L 800.151245 54.433375 
L 804.817432 69.656226 
L 809.48362 66.152098 
L 814.149808 55.570931 
L 818.815995 71.211564 
L 823.482183 49.577925 
L 828.14837 45.43997 
L 832.814558 61.893396 
L 837.480746 55.628805 
L 842.146933 57.463763 
L 846.813121 52.804823 
L 851.479309 66.752523 
L 856.145496 59.673078 
L 860.811684 56.980385 
L 865.477872 58.080856 
L 870.144059 74.48884 
L 874.810247 59.31665 
L 879.476434 33.97713 
L 884.142622 55.394675 
L 888.80881 67.0375 
L 893.474997 65.080465 
L 898.141185 67.07499 
L 902.807373 53.464269 
L 907.47356 60.615304 
L 912.139748 67.027089 
L 916.805936 57.730616 
L 921.472123 54.932781 
L 926.138311 48.692345 
L 930.804498 46.411301 
L 935.470686 65.170692 
L 940.136874 46.549093 
L 944.803061 47.82045 
L 949.469249 64.491301 
L 954.135437 57.428448 
L 958.801624 57.014047 
L 963.467812 67.597476 
L 968.134 54.459344 
L 972.800187 58.082459 
L 977.466375 56.523726 
L 982.132562 81.045835 
L 986.79875 44.105609 
L 991.464938 55.003191 
L 996.131125 44.828129 
L 1000.797313 60.422003 
L 1005.463501 46.732508 
L 1010.129688 64.518655 
L 1014.795876 60.104835 
L 1019.462064 70.042109 
L 1028.794439 41.944084 
L 1033.460626 66.7331 
L 1038.126814 47.611167 
L 1042.793002 74.621824 
L 1047.459189 54.605769 
L 1052.125377 57.567607 
L 1056.791565 58.712236 
L 1061.457752 64.591561 
L 1066.12394 52.906619 
L 1070.790128 79.447138 
L 1075.456315 65.240792 
L 1080.122503 61.518843 
L 1084.78869 40.65949 
L 1089.454878 83.489198 
L 1094.121066 55.007612 
L 1098.787253 62.171436 
L 1103.453441 72.030714 
L 1108.119629 55.256866 
L 1112.785816 62.454467 
L 1117.452004 47.786442 
L 1122.118192 66.944919 
L 1126.784379 60.193541 
L 1131.450567 70.580382 
L 1136.116754 59.369737 
L 1140.782942 68.314078 
L 1145.44913 58.033525 
L 1150.115317 54.050511 
L 1154.781505 48.875494 
L 1159.447693 51.29923 
L 1164.11388 65.786317 
L 1168.780068 89.412176 
L 1173.446256 69.349413 
L 1178.112443 61.720153 
L 1182.778631 67.321336 
L 1187.444819 51.863778 
L 1192.111006 60.699807 
L 1196.777194 70.872742 
L 1201.443381 53.273017 
L 1206.109569 64.689051 
L 1210.775757 48.024959 
L 1215.441944 61.240868 
L 1220.108132 69.059038 
L 1224.77432 44.422138 
L 1229.440507 68.11144 
L 1234.106695 60.810412 
L 1238.772883 62.297974 
L 1243.43907 55.819479 
L 1248.105258 54.505868 
L 1252.771445 75.387186 
L 1257.437633 56.687006 
L 1262.103821 58.820959 
L 1266.770008 66.099604 
L 1271.436196 77.01624 
L 1276.102384 68.603373 
L 1280.768571 68.29991 
L 1285.434759 63.918419 
L 1290.100947 52.874211 
L 1294.767134 47.467585 
L 1299.433322 69.797113 
L 1304.099509 50.882295 
L 1308.765697 50.874447 
L 1313.431885 62.352392 
L 1318.098072 61.426963 
L 1322.76426 84.415071 
L 1327.430448 80.300615 
L 1332.096635 79.387262 
L 1336.762823 70.711312 
L 1341.429011 52.260366 
L 1346.095198 59.708565 
L 1350.761386 52.860357 
L 1355.427573 58.082363 
L 1360.093761 74.298891 
L 1364.759949 61.490738 
L 1364.759949 61.490738 
" style="fill:none;stroke:#ff7f0e;stroke-linecap:square;stroke-width:1.5;"/>
   </g>
   <g id="line2d_15">
    <path clip-path="url(#p84eff66b87)" d="M 174.882101 55.813489 
L 179.548289 43.684235 
L 184.214476 49.467037 
L 188.880664 78.206267 
L 193.546852 50.584727 
L 198.213039 70.937298 
L 202.879227 41.355975 
L 207.545415 60.127939 
L 212.211602 58.377336 
L 216.87779 39.703264 
L 221.543978 52.866798 
L 226.210165 58.538185 
L 230.876353 62.2229 
L 235.54254 70.580115 
L 240.208728 68.174064 
L 244.874916 53.297587 
L 249.541103 59.743022 
L 254.207291 60.834999 
L 258.873479 52.772547 
L 263.539666 60.839257 
L 268.205854 69.569633 
L 272.872042 54.447689 
L 277.538229 58.620909 
L 282.204417 63.268177 
L 286.870604 59.824841 
L 291.536792 57.714774 
L 296.20298 48.022946 
L 300.869167 57.701959 
L 305.535355 41.596877 
L 310.201543 75.343512 
L 314.86773 44.148505 
L 319.533918 53.018874 
L 324.200106 60.861553 
L 328.866293 67.798433 
L 333.532481 55.377615 
L 338.198668 61.944159 
L 342.864856 45.269324 
L 347.531044 61.325667 
L 352.197231 56.906909 
L 356.863419 65.971812 
L 361.529607 62.76481 
L 366.195794 68.877373 
L 370.861982 69.166818 
L 375.52817 61.252407 
L 380.194357 69.258053 
L 384.860545 60.759524 
L 389.526732 70.801864 
L 394.19292 54.601026 
L 398.859108 59.064177 
L 403.525295 67.293408 
L 408.191483 54.874125 
L 412.857671 47.206535 
L 417.523858 66.465017 
L 422.190046 58.633907 
L 426.856234 57.683287 
L 431.522421 55.664242 
L 436.188609 62.286058 
L 440.854797 62.393246 
L 445.520984 49.13661 
L 450.187172 73.669795 
L 454.853359 57.780876 
L 459.519547 40.154927 
L 464.185735 55.054796 
L 468.851922 65.675124 
L 473.51811 64.54394 
L 478.184298 61.510435 
L 482.850485 65.811955 
L 487.516673 61.910594 
L 492.182861 68.873093 
L 496.849048 62.184519 
L 501.515236 75.927051 
L 506.181423 58.152422 
L 510.847611 59.134083 
L 515.513799 49.647655 
L 520.179986 56.783957 
L 524.846174 72.533911 
L 529.512362 62.169936 
L 534.178549 54.967591 
L 538.844737 56.92772 
L 543.510925 51.88698 
L 548.177112 59.840444 
L 552.8433 57.365796 
L 557.509487 68.765066 
L 562.175675 63.044766 
L 566.841863 52.060174 
L 571.50805 70.939574 
L 576.174238 72.069302 
L 580.840426 61.233011 
L 585.506613 62.714374 
L 590.172801 60.231476 
L 594.838989 52.421422 
L 599.505176 72.581947 
L 604.171364 67.956785 
L 608.837551 61.655175 
L 613.503739 58.723549 
L 618.169927 54.540135 
L 622.836114 67.472713 
L 627.502302 58.392082 
L 632.16849 65.472642 
L 636.834677 59.843419 
L 641.500865 65.569282 
L 646.167053 64.886416 
L 650.83324 75.293208 
L 660.165615 46.705041 
L 664.831803 63.528896 
L 669.497991 59.856012 
L 674.164178 48.28442 
L 683.496554 74.751906 
L 688.162741 56.537425 
L 692.828929 53.615081 
L 697.495117 62.533528 
L 702.161304 57.673146 
L 706.827492 65.633001 
L 711.493679 57.259957 
L 716.159867 71.511629 
L 720.826055 62.309013 
L 725.492242 56.591149 
L 730.15843 63.152048 
L 734.824618 53.250692 
L 739.490805 54.708381 
L 744.156993 78.825879 
L 748.823181 54.007323 
L 753.489368 69.116243 
L 758.155556 51.185215 
L 762.821743 52.479962 
L 767.487931 55.34404 
L 772.154119 66.349924 
L 776.820306 69.300537 
L 781.486494 67.201377 
L 786.152682 62.861576 
L 790.818869 76.018541 
L 795.485057 60.429954 
L 800.151245 48.813782 
L 804.817432 73.186732 
L 809.48362 67.941245 
L 814.149808 55.088768 
L 818.815995 55.946798 
L 823.482183 54.123477 
L 828.14837 46.331243 
L 832.814558 56.24846 
L 842.146933 59.499072 
L 846.813121 45.215362 
L 851.479309 55.5433 
L 856.145496 66.427881 
L 860.811684 73.276052 
L 865.477872 60.560321 
L 870.144059 73.743333 
L 874.810247 55.182095 
L 879.476434 46.760133 
L 884.142622 67.206335 
L 888.80881 64.051079 
L 893.474997 55.150155 
L 898.141185 67.088501 
L 902.807373 57.812433 
L 907.47356 60.281343 
L 912.139748 54.016675 
L 916.805936 57.330923 
L 921.472123 59.789813 
L 926.138311 52.010359 
L 930.804498 67.442478 
L 935.470686 60.322082 
L 940.136874 67.407071 
L 944.803061 61.094462 
L 949.469249 60.773689 
L 954.135437 79.525043 
L 958.801624 47.716303 
L 963.467812 66.054131 
L 968.134 48.750116 
L 972.800187 63.933713 
L 977.466375 64.323641 
L 982.132562 68.18084 
L 986.79875 64.406088 
L 991.464938 59.52671 
L 996.131125 53.417684 
L 1000.797313 62.614898 
L 1005.463501 60.730913 
L 1010.129688 59.897289 
L 1014.795876 57.066088 
L 1019.462064 59.650262 
L 1024.128251 51.272213 
L 1028.794439 62.136125 
L 1033.460626 57.189009 
L 1038.126814 56.954304 
L 1042.793002 61.912695 
L 1047.459189 55.047718 
L 1052.125377 68.667393 
L 1061.457752 49.44241 
L 1066.12394 62.179908 
L 1070.790128 58.969846 
L 1075.456315 45.488486 
L 1080.122503 64.54763 
L 1084.78869 60.212908 
L 1089.454878 66.989023 
L 1094.121066 65.967632 
L 1098.787253 62.487791 
L 1103.453441 64.165652 
L 1108.119629 62.966593 
L 1112.785816 48.976204 
L 1117.452004 55.975827 
L 1122.118192 44.834055 
L 1126.784379 57.859211 
L 1131.450567 56.342881 
L 1136.116754 70.138965 
L 1140.782942 58.302944 
L 1145.44913 60.178047 
L 1150.115317 43.591019 
L 1154.781505 44.794586 
L 1159.447693 53.382291 
L 1164.11388 72.921309 
L 1168.780068 76.067635 
L 1173.446256 68.7891 
L 1178.112443 66.216692 
L 1182.778631 70.637124 
L 1187.444819 67.271442 
L 1192.111006 61.231689 
L 1196.777194 54.833729 
L 1201.443381 57.49791 
L 1206.109569 57.42314 
L 1210.775757 54.312139 
L 1215.441944 60.107708 
L 1220.108132 70.892044 
L 1224.77432 61.017063 
L 1229.440507 59.672335 
L 1234.106695 47.263799 
L 1238.772883 69.83106 
L 1243.43907 76.41864 
L 1248.105258 60.229234 
L 1252.771445 56.691631 
L 1257.437633 62.571674 
L 1262.103821 61.53709 
L 1266.770008 55.15352 
L 1271.436196 50.562832 
L 1276.102384 77.055531 
L 1280.768571 58.020225 
L 1285.434759 55.08402 
L 1290.100947 61.266319 
L 1294.767134 58.069828 
L 1299.433322 62.582778 
L 1304.099509 60.913886 
L 1308.765697 51.639923 
L 1313.431885 61.132291 
L 1318.098072 75.129163 
L 1322.76426 65.196326 
L 1327.430448 65.321461 
L 1332.096635 59.35248 
L 1336.762823 56.050659 
L 1341.429011 68.604217 
L 1346.095198 49.695318 
L 1350.761386 49.142263 
L 1355.427573 53.121972 
L 1360.093761 50.166434 
L 1364.759949 59.191966 
L 1364.759949 59.191966 
" style="fill:none;stroke:#2ca02c;stroke-linecap:square;stroke-width:1.5;"/>
   </g>
   <g id="patch_13">
    <path d="M 114.175 496.2 
L 114.175 10.8 
" style="fill:none;stroke:#000000;stroke-linecap:square;stroke-linejoin:miter;stroke-width:0.8;"/>
   </g>
   <g id="patch_14">
    <path d="M 1429.2 496.2 
L 1429.2 10.8 
" style="fill:none;stroke:#000000;stroke-linecap:square;stroke-linejoin:miter;stroke-width:0.8;"/>
   </g>
   <g id="patch_15">
    <path d="M 114.175 496.2 
L 1429.2 496.2 
" style="fill:none;stroke:#000000;stroke-linecap:square;stroke-linejoin:miter;stroke-width:0.8;"/>
   </g>
   <g id="patch_16">
    <path d="M 114.175 10.8 
L 1429.2 10.8 
" style="fill:none;stroke:#000000;stroke-linecap:square;stroke-linejoin:miter;stroke-width:0.8;"/>
   </g>
  </g>
 </g>
 <defs>
  <clipPath id="p84eff66b87">
   <rect height="485.4" width="1315.025" x="114.175" y="10.8"/>
  </clipPath>
 </defs>
</svg>
