<?xml version="1.0" encoding="utf-8" standalone="no"?>
<!DOCTYPE svg PUBLIC "-//W3C//DTD SVG 1.1//EN"
  "http://www.w3.org/Graphics/SVG/1.1/DTD/svg11.dtd">
<!-- Created with matplotlib (https://matplotlib.org/) -->
<svg height="576pt" version="1.1" viewBox="0 0 1440 576" width="1440pt" xmlns="http://www.w3.org/2000/svg" xmlns:xlink="http://www.w3.org/1999/xlink">
 <defs>
  <style type="text/css">
*{stroke-linecap:butt;stroke-linejoin:round;white-space:pre;}
  </style>
 </defs>
 <g id="figure_1">
  <g id="patch_1">
   <path d="M 0 576 
L 1440 576 
L 1440 0 
L 0 0 
z
" style="fill:#ffffff;"/>
  </g>
  <g id="axes_1">
   <g id="patch_2">
    <path d="M 114.175 496.2 
L 1429.2 496.2 
L 1429.2 10.8 
L 114.175 10.8 
z
" style="fill:#ffffff;"/>
   </g>
   <g id="patch_3">
    <path clip-path="url(#p3eb43ab51a)" d="M 173.948864 496.2 
L 173.948864 10.8 
L 174.882101 10.8 
L 174.882101 496.2 
z
" style="fill:#0000ff;"/>
   </g>
   <g id="patch_4">
    <path clip-path="url(#p3eb43ab51a)" d="M 178.615051 496.2 
L 178.615051 10.8 
L 179.548289 10.8 
L 179.548289 496.2 
z
" style="fill:#0000ff;"/>
   </g>
   <g id="patch_5">
    <path clip-path="url(#p3eb43ab51a)" d="M 215.944552 496.2 
L 215.944552 10.8 
L 216.87779 10.8 
L 216.87779 496.2 
z
" style="fill:#0000ff;"/>
   </g>
   <g id="patch_6">
    <path clip-path="url(#p3eb43ab51a)" d="M 346.597806 496.2 
L 346.597806 10.8 
L 347.531044 10.8 
L 347.531044 496.2 
z
" style="fill:#0000ff;"/>
   </g>
   <g id="patch_7">
    <path clip-path="url(#p3eb43ab51a)" d="M 607.904314 496.2 
L 607.904314 10.8 
L 608.837551 10.8 
L 608.837551 496.2 
z
" style="fill:#0000ff;"/>
   </g>
   <g id="patch_8">
    <path clip-path="url(#p3eb43ab51a)" d="M 934.537449 496.2 
L 934.537449 10.8 
L 935.470686 10.8 
L 935.470686 496.2 
z
" style="fill:#0000ff;"/>
   </g>
   <g id="patch_9">
    <path clip-path="url(#p3eb43ab51a)" d="M 1195.843956 496.2 
L 1195.843956 10.8 
L 1196.777194 10.8 
L 1196.777194 496.2 
z
" style="fill:#0000ff;"/>
   </g>
   <g id="patch_10">
    <path clip-path="url(#p3eb43ab51a)" d="M 1326.49721 496.2 
L 1326.49721 10.8 
L 1327.430448 10.8 
L 1327.430448 496.2 
z
" style="fill:#0000ff;"/>
   </g>
   <g id="patch_11">
    <path clip-path="url(#p3eb43ab51a)" d="M 1363.826711 496.2 
L 1363.826711 10.8 
L 1364.759949 10.8 
L 1364.759949 496.2 
z
" style="fill:#0000ff;"/>
   </g>
   <g id="patch_12">
    <path clip-path="url(#p3eb43ab51a)" d="M 1368.492899 496.2 
L 1368.492899 10.8 
L 1369.426136 10.8 
L 1369.426136 496.2 
z
" style="fill:#0000ff;"/>
   </g>
   <g id="matplotlib.axis_1">
    <g id="xtick_1">
     <g id="line2d_1">
      <defs>
       <path d="M 0 0 
L 0 3.5 
" id="m9025ea7c43" style="stroke:#000000;stroke-width:0.8;"/>
      </defs>
      <g>
       <use style="stroke:#000000;stroke-width:0.8;" x="174.882101" xlink:href="#m9025ea7c43" y="496.2"/>
      </g>
     </g>
     <g id="text_1">
      <!-- 0 -->
      <defs>
       <path d="M 31.78125 66.40625 
Q 24.171875 66.40625 20.328125 58.90625 
Q 16.5 51.421875 16.5 36.375 
Q 16.5 21.390625 20.328125 13.890625 
Q 24.171875 6.390625 31.78125 6.390625 
Q 39.453125 6.390625 43.28125 13.890625 
Q 47.125 21.390625 47.125 36.375 
Q 47.125 51.421875 43.28125 58.90625 
Q 39.453125 66.40625 31.78125 66.40625 
z
M 31.78125 74.21875 
Q 44.046875 74.21875 50.515625 64.515625 
Q 56.984375 54.828125 56.984375 36.375 
Q 56.984375 17.96875 50.515625 8.265625 
Q 44.046875 -1.421875 31.78125 -1.421875 
Q 19.53125 -1.421875 13.0625 8.265625 
Q 6.59375 17.96875 6.59375 36.375 
Q 6.59375 54.828125 13.0625 64.515625 
Q 19.53125 74.21875 31.78125 74.21875 
z
" id="DejaVuSans-48"/>
      </defs>
      <g transform="translate(165.338351 525.995312)scale(0.3 -0.3)">
       <use xlink:href="#DejaVuSans-48"/>
      </g>
     </g>
    </g>
    <g id="xtick_2">
     <g id="line2d_2">
      <g>
       <use style="stroke:#000000;stroke-width:0.8;" x="408.191483" xlink:href="#m9025ea7c43" y="496.2"/>
      </g>
     </g>
     <g id="text_2">
      <!-- 50 -->
      <defs>
       <path d="M 10.796875 72.90625 
L 49.515625 72.90625 
L 49.515625 64.59375 
L 19.828125 64.59375 
L 19.828125 46.734375 
Q 21.96875 47.46875 24.109375 47.828125 
Q 26.265625 48.1875 28.421875 48.1875 
Q 40.625 48.1875 47.75 41.5 
Q 54.890625 34.8125 54.890625 23.390625 
Q 54.890625 11.625 47.5625 5.09375 
Q 40.234375 -1.421875 26.90625 -1.421875 
Q 22.3125 -1.421875 17.546875 -0.640625 
Q 12.796875 0.140625 7.71875 1.703125 
L 7.71875 11.625 
Q 12.109375 9.234375 16.796875 8.0625 
Q 21.484375 6.890625 26.703125 6.890625 
Q 35.15625 6.890625 40.078125 11.328125 
Q 45.015625 15.765625 45.015625 23.390625 
Q 45.015625 31 40.078125 35.4375 
Q 35.15625 39.890625 26.703125 39.890625 
Q 22.75 39.890625 18.8125 39.015625 
Q 14.890625 38.140625 10.796875 36.28125 
z
" id="DejaVuSans-53"/>
      </defs>
      <g transform="translate(389.103983 525.995312)scale(0.3 -0.3)">
       <use xlink:href="#DejaVuSans-53"/>
       <use x="63.623047" xlink:href="#DejaVuSans-48"/>
      </g>
     </g>
    </g>
    <g id="xtick_3">
     <g id="line2d_3">
      <g>
       <use style="stroke:#000000;stroke-width:0.8;" x="641.500865" xlink:href="#m9025ea7c43" y="496.2"/>
      </g>
     </g>
     <g id="text_3">
      <!-- 100 -->
      <defs>
       <path d="M 12.40625 8.296875 
L 28.515625 8.296875 
L 28.515625 63.921875 
L 10.984375 60.40625 
L 10.984375 69.390625 
L 28.421875 72.90625 
L 38.28125 72.90625 
L 38.28125 8.296875 
L 54.390625 8.296875 
L 54.390625 0 
L 12.40625 0 
z
" id="DejaVuSans-49"/>
      </defs>
      <g transform="translate(612.869615 525.995312)scale(0.3 -0.3)">
       <use xlink:href="#DejaVuSans-49"/>
       <use x="63.623047" xlink:href="#DejaVuSans-48"/>
       <use x="127.246094" xlink:href="#DejaVuSans-48"/>
      </g>
     </g>
    </g>
    <g id="xtick_4">
     <g id="line2d_4">
      <g>
       <use style="stroke:#000000;stroke-width:0.8;" x="874.810247" xlink:href="#m9025ea7c43" y="496.2"/>
      </g>
     </g>
     <g id="text_4">
      <!-- 150 -->
      <g transform="translate(846.178997 525.995312)scale(0.3 -0.3)">
       <use xlink:href="#DejaVuSans-49"/>
       <use x="63.623047" xlink:href="#DejaVuSans-53"/>
       <use x="127.246094" xlink:href="#DejaVuSans-48"/>
      </g>
     </g>
    </g>
    <g id="xtick_5">
     <g id="line2d_5">
      <g>
       <use style="stroke:#000000;stroke-width:0.8;" x="1108.119629" xlink:href="#m9025ea7c43" y="496.2"/>
      </g>
     </g>
     <g id="text_5">
      <!-- 200 -->
      <defs>
       <path d="M 19.1875 8.296875 
L 53.609375 8.296875 
L 53.609375 0 
L 7.328125 0 
L 7.328125 8.296875 
Q 12.9375 14.109375 22.625 23.890625 
Q 32.328125 33.6875 34.8125 36.53125 
Q 39.546875 41.84375 41.421875 45.53125 
Q 43.3125 49.21875 43.3125 52.78125 
Q 43.3125 58.59375 39.234375 62.25 
Q 35.15625 65.921875 28.609375 65.921875 
Q 23.96875 65.921875 18.8125 64.3125 
Q 13.671875 62.703125 7.8125 59.421875 
L 7.8125 69.390625 
Q 13.765625 71.78125 18.9375 73 
Q 24.125 74.21875 28.421875 74.21875 
Q 39.75 74.21875 46.484375 68.546875 
Q 53.21875 62.890625 53.21875 53.421875 
Q 53.21875 48.921875 51.53125 44.890625 
Q 49.859375 40.875 45.40625 35.40625 
Q 44.1875 33.984375 37.640625 27.21875 
Q 31.109375 20.453125 19.1875 8.296875 
z
" id="DejaVuSans-50"/>
      </defs>
      <g transform="translate(1079.488379 525.995312)scale(0.3 -0.3)">
       <use xlink:href="#DejaVuSans-50"/>
       <use x="63.623047" xlink:href="#DejaVuSans-48"/>
       <use x="127.246094" xlink:href="#DejaVuSans-48"/>
      </g>
     </g>
    </g>
    <g id="xtick_6">
     <g id="line2d_6">
      <g>
       <use style="stroke:#000000;stroke-width:0.8;" x="1341.429011" xlink:href="#m9025ea7c43" y="496.2"/>
      </g>
     </g>
     <g id="text_6">
      <!-- 250 -->
      <g transform="translate(1312.797761 525.995312)scale(0.3 -0.3)">
       <use xlink:href="#DejaVuSans-50"/>
       <use x="63.623047" xlink:href="#DejaVuSans-53"/>
       <use x="127.246094" xlink:href="#DejaVuSans-48"/>
      </g>
     </g>
    </g>
    <g id="text_7">
     <!-- Bit Interaction -->
     <defs>
      <path d="M 19.671875 34.8125 
L 19.671875 8.109375 
L 35.5 8.109375 
Q 43.453125 8.109375 47.28125 11.40625 
Q 51.125 14.703125 51.125 21.484375 
Q 51.125 28.328125 47.28125 31.5625 
Q 43.453125 34.8125 35.5 34.8125 
z
M 19.671875 64.796875 
L 19.671875 42.828125 
L 34.28125 42.828125 
Q 41.5 42.828125 45.03125 45.53125 
Q 48.578125 48.25 48.578125 53.8125 
Q 48.578125 59.328125 45.03125 62.0625 
Q 41.5 64.796875 34.28125 64.796875 
z
M 9.8125 72.90625 
L 35.015625 72.90625 
Q 46.296875 72.90625 52.390625 68.21875 
Q 58.5 63.53125 58.5 54.890625 
Q 58.5 48.1875 55.375 44.234375 
Q 52.25 40.28125 46.1875 39.3125 
Q 53.46875 37.75 57.5 32.78125 
Q 61.53125 27.828125 61.53125 20.40625 
Q 61.53125 10.640625 54.890625 5.3125 
Q 48.25 0 35.984375 0 
L 9.8125 0 
z
" id="DejaVuSans-66"/>
      <path d="M 9.421875 54.6875 
L 18.40625 54.6875 
L 18.40625 0 
L 9.421875 0 
z
M 9.421875 75.984375 
L 18.40625 75.984375 
L 18.40625 64.59375 
L 9.421875 64.59375 
z
" id="DejaVuSans-105"/>
      <path d="M 18.3125 70.21875 
L 18.3125 54.6875 
L 36.8125 54.6875 
L 36.8125 47.703125 
L 18.3125 47.703125 
L 18.3125 18.015625 
Q 18.3125 11.328125 20.140625 9.421875 
Q 21.96875 7.515625 27.59375 7.515625 
L 36.8125 7.515625 
L 36.8125 0 
L 27.59375 0 
Q 17.1875 0 13.234375 3.875 
Q 9.28125 7.765625 9.28125 18.015625 
L 9.28125 47.703125 
L 2.6875 47.703125 
L 2.6875 54.6875 
L 9.28125 54.6875 
L 9.28125 70.21875 
z
" id="DejaVuSans-116"/>
      <path id="DejaVuSans-32"/>
      <path d="M 9.8125 72.90625 
L 19.671875 72.90625 
L 19.671875 0 
L 9.8125 0 
z
" id="DejaVuSans-73"/>
      <path d="M 54.890625 33.015625 
L 54.890625 0 
L 45.90625 0 
L 45.90625 32.71875 
Q 45.90625 40.484375 42.875 44.328125 
Q 39.84375 48.1875 33.796875 48.1875 
Q 26.515625 48.1875 22.3125 43.546875 
Q 18.109375 38.921875 18.109375 30.90625 
L 18.109375 0 
L 9.078125 0 
L 9.078125 54.6875 
L 18.109375 54.6875 
L 18.109375 46.1875 
Q 21.34375 51.125 25.703125 53.5625 
Q 30.078125 56 35.796875 56 
Q 45.21875 56 50.046875 50.171875 
Q 54.890625 44.34375 54.890625 33.015625 
z
" id="DejaVuSans-110"/>
      <path d="M 56.203125 29.59375 
L 56.203125 25.203125 
L 14.890625 25.203125 
Q 15.484375 15.921875 20.484375 11.0625 
Q 25.484375 6.203125 34.421875 6.203125 
Q 39.59375 6.203125 44.453125 7.46875 
Q 49.3125 8.734375 54.109375 11.28125 
L 54.109375 2.78125 
Q 49.265625 0.734375 44.1875 -0.34375 
Q 39.109375 -1.421875 33.890625 -1.421875 
Q 20.796875 -1.421875 13.15625 6.1875 
Q 5.515625 13.8125 5.515625 26.8125 
Q 5.515625 40.234375 12.765625 48.109375 
Q 20.015625 56 32.328125 56 
Q 43.359375 56 49.78125 48.890625 
Q 56.203125 41.796875 56.203125 29.59375 
z
M 47.21875 32.234375 
Q 47.125 39.59375 43.09375 43.984375 
Q 39.0625 48.390625 32.421875 48.390625 
Q 24.90625 48.390625 20.390625 44.140625 
Q 15.875 39.890625 15.1875 32.171875 
z
" id="DejaVuSans-101"/>
      <path d="M 41.109375 46.296875 
Q 39.59375 47.171875 37.8125 47.578125 
Q 36.03125 48 33.890625 48 
Q 26.265625 48 22.1875 43.046875 
Q 18.109375 38.09375 18.109375 28.8125 
L 18.109375 0 
L 9.078125 0 
L 9.078125 54.6875 
L 18.109375 54.6875 
L 18.109375 46.1875 
Q 20.953125 51.171875 25.484375 53.578125 
Q 30.03125 56 36.53125 56 
Q 37.453125 56 38.578125 55.875 
Q 39.703125 55.765625 41.0625 55.515625 
z
" id="DejaVuSans-114"/>
      <path d="M 34.28125 27.484375 
Q 23.390625 27.484375 19.1875 25 
Q 14.984375 22.515625 14.984375 16.5 
Q 14.984375 11.71875 18.140625 8.90625 
Q 21.296875 6.109375 26.703125 6.109375 
Q 34.1875 6.109375 38.703125 11.40625 
Q 43.21875 16.703125 43.21875 25.484375 
L 43.21875 27.484375 
z
M 52.203125 31.203125 
L 52.203125 0 
L 43.21875 0 
L 43.21875 8.296875 
Q 40.140625 3.328125 35.546875 0.953125 
Q 30.953125 -1.421875 24.3125 -1.421875 
Q 15.921875 -1.421875 10.953125 3.296875 
Q 6 8.015625 6 15.921875 
Q 6 25.140625 12.171875 29.828125 
Q 18.359375 34.515625 30.609375 34.515625 
L 43.21875 34.515625 
L 43.21875 35.40625 
Q 43.21875 41.609375 39.140625 45 
Q 35.0625 48.390625 27.6875 48.390625 
Q 23 48.390625 18.546875 47.265625 
Q 14.109375 46.140625 10.015625 43.890625 
L 10.015625 52.203125 
Q 14.9375 54.109375 19.578125 55.046875 
Q 24.21875 56 28.609375 56 
Q 40.484375 56 46.34375 49.84375 
Q 52.203125 43.703125 52.203125 31.203125 
z
" id="DejaVuSans-97"/>
      <path d="M 48.78125 52.59375 
L 48.78125 44.1875 
Q 44.96875 46.296875 41.140625 47.34375 
Q 37.3125 48.390625 33.40625 48.390625 
Q 24.65625 48.390625 19.8125 42.84375 
Q 14.984375 37.3125 14.984375 27.296875 
Q 14.984375 17.28125 19.8125 11.734375 
Q 24.65625 6.203125 33.40625 6.203125 
Q 37.3125 6.203125 41.140625 7.25 
Q 44.96875 8.296875 48.78125 10.40625 
L 48.78125 2.09375 
Q 45.015625 0.34375 40.984375 -0.53125 
Q 36.96875 -1.421875 32.421875 -1.421875 
Q 20.0625 -1.421875 12.78125 6.34375 
Q 5.515625 14.109375 5.515625 27.296875 
Q 5.515625 40.671875 12.859375 48.328125 
Q 20.21875 56 33.015625 56 
Q 37.15625 56 41.109375 55.140625 
Q 45.0625 54.296875 48.78125 52.59375 
z
" id="DejaVuSans-99"/>
      <path d="M 30.609375 48.390625 
Q 23.390625 48.390625 19.1875 42.75 
Q 14.984375 37.109375 14.984375 27.296875 
Q 14.984375 17.484375 19.15625 11.84375 
Q 23.34375 6.203125 30.609375 6.203125 
Q 37.796875 6.203125 41.984375 11.859375 
Q 46.1875 17.53125 46.1875 27.296875 
Q 46.1875 37.015625 41.984375 42.703125 
Q 37.796875 48.390625 30.609375 48.390625 
z
M 30.609375 56 
Q 42.328125 56 49.015625 48.375 
Q 55.71875 40.765625 55.71875 27.296875 
Q 55.71875 13.875 49.015625 6.21875 
Q 42.328125 -1.421875 30.609375 -1.421875 
Q 18.84375 -1.421875 12.171875 6.21875 
Q 5.515625 13.875 5.515625 27.296875 
Q 5.515625 40.765625 12.171875 48.375 
Q 18.84375 56 30.609375 56 
z
" id="DejaVuSans-111"/>
     </defs>
     <g transform="translate(665.201563 559.029688)scale(0.3 -0.3)">
      <use xlink:href="#DejaVuSans-66"/>
      <use x="68.603516" xlink:href="#DejaVuSans-105"/>
      <use x="96.386719" xlink:href="#DejaVuSans-116"/>
      <use x="135.595703" xlink:href="#DejaVuSans-32"/>
      <use x="167.382812" xlink:href="#DejaVuSans-73"/>
      <use x="196.875" xlink:href="#DejaVuSans-110"/>
      <use x="260.253906" xlink:href="#DejaVuSans-116"/>
      <use x="299.462891" xlink:href="#DejaVuSans-101"/>
      <use x="360.986328" xlink:href="#DejaVuSans-114"/>
      <use x="402.099609" xlink:href="#DejaVuSans-97"/>
      <use x="463.378906" xlink:href="#DejaVuSans-99"/>
      <use x="518.359375" xlink:href="#DejaVuSans-116"/>
      <use x="557.568359" xlink:href="#DejaVuSans-105"/>
      <use x="585.351562" xlink:href="#DejaVuSans-111"/>
      <use x="646.533203" xlink:href="#DejaVuSans-110"/>
     </g>
    </g>
   </g>
   <g id="matplotlib.axis_2">
    <g id="ytick_1">
     <g id="line2d_7">
      <defs>
       <path d="M 0 0 
L -3.5 0 
" id="me9de76d877" style="stroke:#000000;stroke-width:0.8;"/>
      </defs>
      <g>
       <use style="stroke:#000000;stroke-width:0.8;" x="114.175" xlink:href="#me9de76d877" y="494.752094"/>
      </g>
     </g>
     <g id="text_8">
      <!-- −12 -->
      <defs>
       <path d="M 10.59375 35.5 
L 73.1875 35.5 
L 73.1875 27.203125 
L 10.59375 27.203125 
z
" id="DejaVuSans-8722"/>
      </defs>
      <g transform="translate(43.860937 506.14975)scale(0.3 -0.3)">
       <use xlink:href="#DejaVuSans-8722"/>
       <use x="83.789062" xlink:href="#DejaVuSans-49"/>
       <use x="147.412109" xlink:href="#DejaVuSans-50"/>
      </g>
     </g>
    </g>
    <g id="ytick_2">
     <g id="line2d_8">
      <g>
       <use style="stroke:#000000;stroke-width:0.8;" x="114.175" xlink:href="#me9de76d877" y="421.932227"/>
      </g>
     </g>
     <g id="text_9">
      <!-- −10 -->
      <g transform="translate(43.860937 433.329883)scale(0.3 -0.3)">
       <use xlink:href="#DejaVuSans-8722"/>
       <use x="83.789062" xlink:href="#DejaVuSans-49"/>
       <use x="147.412109" xlink:href="#DejaVuSans-48"/>
      </g>
     </g>
    </g>
    <g id="ytick_3">
     <g id="line2d_9">
      <g>
       <use style="stroke:#000000;stroke-width:0.8;" x="114.175" xlink:href="#me9de76d877" y="349.112359"/>
      </g>
     </g>
     <g id="text_10">
      <!-- −8 -->
      <defs>
       <path d="M 31.78125 34.625 
Q 24.75 34.625 20.71875 30.859375 
Q 16.703125 27.09375 16.703125 20.515625 
Q 16.703125 13.921875 20.71875 10.15625 
Q 24.75 6.390625 31.78125 6.390625 
Q 38.8125 6.390625 42.859375 10.171875 
Q 46.921875 13.96875 46.921875 20.515625 
Q 46.921875 27.09375 42.890625 30.859375 
Q 38.875 34.625 31.78125 34.625 
z
M 21.921875 38.8125 
Q 15.578125 40.375 12.03125 44.71875 
Q 8.5 49.078125 8.5 55.328125 
Q 8.5 64.0625 14.71875 69.140625 
Q 20.953125 74.21875 31.78125 74.21875 
Q 42.671875 74.21875 48.875 69.140625 
Q 55.078125 64.0625 55.078125 55.328125 
Q 55.078125 49.078125 51.53125 44.71875 
Q 48 40.375 41.703125 38.8125 
Q 48.828125 37.15625 52.796875 32.3125 
Q 56.78125 27.484375 56.78125 20.515625 
Q 56.78125 9.90625 50.3125 4.234375 
Q 43.84375 -1.421875 31.78125 -1.421875 
Q 19.734375 -1.421875 13.25 4.234375 
Q 6.78125 9.90625 6.78125 20.515625 
Q 6.78125 27.484375 10.78125 32.3125 
Q 14.796875 37.15625 21.921875 38.8125 
z
M 18.3125 54.390625 
Q 18.3125 48.734375 21.84375 45.5625 
Q 25.390625 42.390625 31.78125 42.390625 
Q 38.140625 42.390625 41.71875 45.5625 
Q 45.3125 48.734375 45.3125 54.390625 
Q 45.3125 60.0625 41.71875 63.234375 
Q 38.140625 66.40625 31.78125 66.40625 
Q 25.390625 66.40625 21.84375 63.234375 
Q 18.3125 60.0625 18.3125 54.390625 
z
" id="DejaVuSans-56"/>
      </defs>
      <g transform="translate(62.948437 360.510016)scale(0.3 -0.3)">
       <use xlink:href="#DejaVuSans-8722"/>
       <use x="83.789062" xlink:href="#DejaVuSans-56"/>
      </g>
     </g>
    </g>
    <g id="ytick_4">
     <g id="line2d_10">
      <g>
       <use style="stroke:#000000;stroke-width:0.8;" x="114.175" xlink:href="#me9de76d877" y="276.292492"/>
      </g>
     </g>
     <g id="text_11">
      <!-- −6 -->
      <defs>
       <path d="M 33.015625 40.375 
Q 26.375 40.375 22.484375 35.828125 
Q 18.609375 31.296875 18.609375 23.390625 
Q 18.609375 15.53125 22.484375 10.953125 
Q 26.375 6.390625 33.015625 6.390625 
Q 39.65625 6.390625 43.53125 10.953125 
Q 47.40625 15.53125 47.40625 23.390625 
Q 47.40625 31.296875 43.53125 35.828125 
Q 39.65625 40.375 33.015625 40.375 
z
M 52.59375 71.296875 
L 52.59375 62.3125 
Q 48.875 64.0625 45.09375 64.984375 
Q 41.3125 65.921875 37.59375 65.921875 
Q 27.828125 65.921875 22.671875 59.328125 
Q 17.53125 52.734375 16.796875 39.40625 
Q 19.671875 43.65625 24.015625 45.921875 
Q 28.375 48.1875 33.59375 48.1875 
Q 44.578125 48.1875 50.953125 41.515625 
Q 57.328125 34.859375 57.328125 23.390625 
Q 57.328125 12.15625 50.6875 5.359375 
Q 44.046875 -1.421875 33.015625 -1.421875 
Q 20.359375 -1.421875 13.671875 8.265625 
Q 6.984375 17.96875 6.984375 36.375 
Q 6.984375 53.65625 15.1875 63.9375 
Q 23.390625 74.21875 37.203125 74.21875 
Q 40.921875 74.21875 44.703125 73.484375 
Q 48.484375 72.75 52.59375 71.296875 
z
" id="DejaVuSans-54"/>
      </defs>
      <g transform="translate(62.948437 287.690148)scale(0.3 -0.3)">
       <use xlink:href="#DejaVuSans-8722"/>
       <use x="83.789062" xlink:href="#DejaVuSans-54"/>
      </g>
     </g>
    </g>
    <g id="ytick_5">
     <g id="line2d_11">
      <g>
       <use style="stroke:#000000;stroke-width:0.8;" x="114.175" xlink:href="#me9de76d877" y="203.472625"/>
      </g>
     </g>
     <g id="text_12">
      <!-- −4 -->
      <defs>
       <path d="M 37.796875 64.3125 
L 12.890625 25.390625 
L 37.796875 25.390625 
z
M 35.203125 72.90625 
L 47.609375 72.90625 
L 47.609375 25.390625 
L 58.015625 25.390625 
L 58.015625 17.1875 
L 47.609375 17.1875 
L 47.609375 0 
L 37.796875 0 
L 37.796875 17.1875 
L 4.890625 17.1875 
L 4.890625 26.703125 
z
" id="DejaVuSans-52"/>
      </defs>
      <g transform="translate(62.948437 214.870281)scale(0.3 -0.3)">
       <use xlink:href="#DejaVuSans-8722"/>
       <use x="83.789062" xlink:href="#DejaVuSans-52"/>
      </g>
     </g>
    </g>
    <g id="ytick_6">
     <g id="line2d_12">
      <g>
       <use style="stroke:#000000;stroke-width:0.8;" x="114.175" xlink:href="#me9de76d877" y="130.652757"/>
      </g>
     </g>
     <g id="text_13">
      <!-- −2 -->
      <g transform="translate(62.948437 142.050414)scale(0.3 -0.3)">
       <use xlink:href="#DejaVuSans-8722"/>
       <use x="83.789062" xlink:href="#DejaVuSans-50"/>
      </g>
     </g>
    </g>
    <g id="ytick_7">
     <g id="line2d_13">
      <g>
       <use style="stroke:#000000;stroke-width:0.8;" x="114.175" xlink:href="#me9de76d877" y="57.83289"/>
      </g>
     </g>
     <g id="text_14">
      <!-- 0 -->
      <g transform="translate(88.0875 69.230546)scale(0.3 -0.3)">
       <use xlink:href="#DejaVuSans-48"/>
      </g>
     </g>
    </g>
    <g id="text_15">
     <!-- Weight Value -->
     <defs>
      <path d="M 3.328125 72.90625 
L 13.28125 72.90625 
L 28.609375 11.28125 
L 43.890625 72.90625 
L 54.984375 72.90625 
L 70.3125 11.28125 
L 85.59375 72.90625 
L 95.609375 72.90625 
L 77.296875 0 
L 64.890625 0 
L 49.515625 63.28125 
L 33.984375 0 
L 21.578125 0 
z
" id="DejaVuSans-87"/>
      <path d="M 45.40625 27.984375 
Q 45.40625 37.75 41.375 43.109375 
Q 37.359375 48.484375 30.078125 48.484375 
Q 22.859375 48.484375 18.828125 43.109375 
Q 14.796875 37.75 14.796875 27.984375 
Q 14.796875 18.265625 18.828125 12.890625 
Q 22.859375 7.515625 30.078125 7.515625 
Q 37.359375 7.515625 41.375 12.890625 
Q 45.40625 18.265625 45.40625 27.984375 
z
M 54.390625 6.78125 
Q 54.390625 -7.171875 48.1875 -13.984375 
Q 42 -20.796875 29.203125 -20.796875 
Q 24.46875 -20.796875 20.265625 -20.09375 
Q 16.0625 -19.390625 12.109375 -17.921875 
L 12.109375 -9.1875 
Q 16.0625 -11.328125 19.921875 -12.34375 
Q 23.78125 -13.375 27.78125 -13.375 
Q 36.625 -13.375 41.015625 -8.765625 
Q 45.40625 -4.15625 45.40625 5.171875 
L 45.40625 9.625 
Q 42.625 4.78125 38.28125 2.390625 
Q 33.9375 0 27.875 0 
Q 17.828125 0 11.671875 7.65625 
Q 5.515625 15.328125 5.515625 27.984375 
Q 5.515625 40.671875 11.671875 48.328125 
Q 17.828125 56 27.875 56 
Q 33.9375 56 38.28125 53.609375 
Q 42.625 51.21875 45.40625 46.390625 
L 45.40625 54.6875 
L 54.390625 54.6875 
z
" id="DejaVuSans-103"/>
      <path d="M 54.890625 33.015625 
L 54.890625 0 
L 45.90625 0 
L 45.90625 32.71875 
Q 45.90625 40.484375 42.875 44.328125 
Q 39.84375 48.1875 33.796875 48.1875 
Q 26.515625 48.1875 22.3125 43.546875 
Q 18.109375 38.921875 18.109375 30.90625 
L 18.109375 0 
L 9.078125 0 
L 9.078125 75.984375 
L 18.109375 75.984375 
L 18.109375 46.1875 
Q 21.34375 51.125 25.703125 53.5625 
Q 30.078125 56 35.796875 56 
Q 45.21875 56 50.046875 50.171875 
Q 54.890625 44.34375 54.890625 33.015625 
z
" id="DejaVuSans-104"/>
      <path d="M 28.609375 0 
L 0.78125 72.90625 
L 11.078125 72.90625 
L 34.1875 11.53125 
L 57.328125 72.90625 
L 67.578125 72.90625 
L 39.796875 0 
z
" id="DejaVuSans-86"/>
      <path d="M 9.421875 75.984375 
L 18.40625 75.984375 
L 18.40625 0 
L 9.421875 0 
z
" id="DejaVuSans-108"/>
      <path d="M 8.5 21.578125 
L 8.5 54.6875 
L 17.484375 54.6875 
L 17.484375 21.921875 
Q 17.484375 14.15625 20.5 10.265625 
Q 23.53125 6.390625 29.59375 6.390625 
Q 36.859375 6.390625 41.078125 11.03125 
Q 45.3125 15.671875 45.3125 23.6875 
L 45.3125 54.6875 
L 54.296875 54.6875 
L 54.296875 0 
L 45.3125 0 
L 45.3125 8.40625 
Q 42.046875 3.421875 37.71875 1 
Q 33.40625 -1.421875 27.6875 -1.421875 
Q 18.265625 -1.421875 13.375 4.4375 
Q 8.5 10.296875 8.5 21.578125 
z
M 31.109375 56 
z
" id="DejaVuSans-117"/>
     </defs>
     <g transform="translate(33.621875 353.732813)rotate(-90)scale(0.3 -0.3)">
      <use xlink:href="#DejaVuSans-87"/>
      <use x="98.798828" xlink:href="#DejaVuSans-101"/>
      <use x="160.322266" xlink:href="#DejaVuSans-105"/>
      <use x="188.105469" xlink:href="#DejaVuSans-103"/>
      <use x="251.582031" xlink:href="#DejaVuSans-104"/>
      <use x="314.960938" xlink:href="#DejaVuSans-116"/>
      <use x="354.169922" xlink:href="#DejaVuSans-32"/>
      <use x="385.957031" xlink:href="#DejaVuSans-86"/>
      <use x="454.255859" xlink:href="#DejaVuSans-97"/>
      <use x="515.535156" xlink:href="#DejaVuSans-108"/>
      <use x="543.318359" xlink:href="#DejaVuSans-117"/>
      <use x="606.697266" xlink:href="#DejaVuSans-101"/>
     </g>
    </g>
   </g>
   <g id="line2d_14">
    <path clip-path="url(#p3eb43ab51a)" d="M 174.882101 55.471627 
L 179.548289 39.417598 
L 184.214476 43.735905 
L 188.880664 53.760547 
L 193.546852 57.451399 
L 198.213039 62.300882 
L 202.879227 56.128314 
L 207.545415 54.536303 
L 212.211602 67.690304 
L 216.87779 54.571142 
L 221.543978 60.785944 
L 226.210165 63.721002 
L 230.876353 54.256024 
L 235.54254 53.642479 
L 240.208728 64.709438 
L 244.874916 65.297508 
L 249.541103 32.863636 
L 254.207291 55.10891 
L 258.873479 66.672616 
L 263.539666 73.283752 
L 268.205854 42.327622 
L 272.872042 60.480902 
L 277.538229 45.371717 
L 282.204417 63.140092 
L 286.870604 62.684359 
L 291.536792 57.428181 
L 296.20298 55.15936 
L 300.869167 62.835243 
L 305.535355 62.916936 
L 310.201543 56.21059 
L 314.86773 59.303086 
L 319.533918 56.148594 
L 324.200106 43.142413 
L 328.866293 51.576789 
L 333.532481 50.912758 
L 338.198668 44.647311 
L 342.864856 69.892645 
L 347.531044 58.74234 
L 352.197231 59.769514 
L 356.863419 58.187284 
L 361.529607 47.771751 
L 366.195794 65.947004 
L 370.861982 58.045145 
L 375.52817 67.729676 
L 380.194357 53.008881 
L 384.860545 61.424153 
L 389.526732 73.992334 
L 394.19292 59.224218 
L 398.859108 53.30019 
L 403.525295 52.229155 
L 408.191483 52.503862 
L 412.857671 44.47111 
L 417.523858 56.362857 
L 422.190046 60.347416 
L 426.856234 55.385275 
L 431.522421 63.655307 
L 436.188609 62.836778 
L 440.854797 61.40785 
L 445.520984 57.500117 
L 450.187172 48.549748 
L 454.853359 47.941516 
L 459.519547 40.469192 
L 464.185735 56.06814 
L 468.851922 70.46997 
L 473.51811 55.059073 
L 478.184298 70.909968 
L 482.850485 68.907192 
L 487.516673 63.743424 
L 492.182861 69.774461 
L 496.849048 59.966513 
L 501.515236 44.586958 
L 506.181423 58.763032 
L 510.847611 61.91836 
L 515.513799 55.864683 
L 520.179986 64.521077 
L 524.846174 66.81062 
L 529.512362 58.881707 
L 534.178549 48.495299 
L 538.844737 82.639661 
L 543.510925 56.886978 
L 548.177112 63.504611 
L 552.8433 43.634915 
L 557.509487 55.99586 
L 562.175675 44.739321 
L 566.841863 60.400726 
L 571.50805 69.875055 
L 576.174238 59.517334 
L 580.840426 46.235043 
L 585.506613 65.434075 
L 590.172801 56.260913 
L 594.838989 64.727251 
L 599.505176 65.340967 
L 604.171364 65.246283 
L 608.837551 83.24444 
L 613.503739 60.681706 
L 618.169927 55.478936 
L 622.836114 63.749478 
L 627.502302 63.5128 
L 632.16849 55.285387 
L 636.834677 56.91682 
L 641.500865 56.469709 
L 646.167053 63.094454 
L 650.83324 62.978757 
L 655.499428 51.280605 
L 660.165615 63.268105 
L 664.831803 50.814078 
L 669.497991 59.455619 
L 674.164178 41.726413 
L 678.830366 63.648845 
L 683.496554 47.424591 
L 688.162741 65.408514 
L 692.828929 57.990605 
L 697.495117 59.157026 
L 702.161304 56.720097 
L 706.827492 47.120845 
L 711.493679 55.871099 
L 716.159867 53.987831 
L 720.826055 51.143409 
L 725.492242 44.689124 
L 730.15843 65.073539 
L 734.824618 48.478317 
L 739.490805 56.595853 
L 744.156993 48.642134 
L 748.823181 58.353976 
L 753.489368 63.089445 
L 758.155556 60.032682 
L 762.821743 65.863963 
L 767.487931 61.389832 
L 772.154119 40.017332 
L 776.820306 61.554575 
L 781.486494 43.981088 
L 786.152682 55.331762 
L 790.818869 64.144052 
L 795.485057 53.938269 
L 800.151245 72.58837 
L 804.817432 59.601253 
L 809.48362 55.01489 
L 814.149808 67.630923 
L 818.815995 68.090326 
L 823.482183 48.924231 
L 828.14837 46.816158 
L 832.814558 75.981429 
L 837.480746 55.974908 
L 842.146933 58.550193 
L 846.813121 57.578053 
L 851.479309 56.260337 
L 856.145496 59.911087 
L 860.811684 69.801813 
L 865.477872 62.061317 
L 870.144059 36.59049 
L 874.810247 71.397606 
L 879.476434 58.131139 
L 884.142622 65.738308 
L 888.80881 56.359718 
L 893.474997 47.616768 
L 898.141185 45.577015 
L 902.807373 66.771714 
L 907.47356 41.630092 
L 912.139748 58.735247 
L 916.805936 59.810857 
L 921.472123 53.42311 
L 926.138311 54.381212 
L 930.804498 57.451285 
L 935.470686 50.45073 
L 940.136874 40.003925 
L 944.803061 63.935832 
L 949.469249 61.758574 
L 954.135437 69.01933 
L 958.801624 59.858871 
L 963.467812 47.836861 
L 968.134 59.09609 
L 972.800187 56.183216 
L 977.466375 60.278665 
L 982.132562 51.917899 
L 986.79875 36.403408 
L 991.464938 49.479613 
L 996.131125 52.417938 
L 1000.797313 66.478695 
L 1005.463501 61.527363 
L 1010.129688 63.138404 
L 1014.795876 63.690232 
L 1019.462064 50.983353 
L 1024.128251 52.218332 
L 1028.794439 49.932585 
L 1033.460626 62.669199 
L 1038.126814 53.327277 
L 1042.793002 47.482439 
L 1047.459189 59.653787 
L 1052.125377 59.538585 
L 1056.791565 63.69014 
L 1061.457752 48.592219 
L 1066.12394 43.309804 
L 1070.790128 71.795693 
L 1075.456315 65.675384 
L 1080.122503 44.223182 
L 1084.78869 46.52958 
L 1089.454878 62.935532 
L 1094.121066 68.397327 
L 1098.787253 46.953947 
L 1103.453441 56.961237 
L 1108.119629 62.107004 
L 1112.785816 58.581207 
L 1117.452004 55.197298 
L 1122.118192 59.801573 
L 1126.784379 58.815554 
L 1131.450567 61.224992 
L 1136.116754 45.217275 
L 1140.782942 53.374311 
L 1145.44913 60.121572 
L 1150.115317 61.840434 
L 1154.781505 64.906182 
L 1159.447693 56.445761 
L 1164.11388 64.060933 
L 1168.780068 56.801233 
L 1173.446256 58.118839 
L 1178.112443 49.904601 
L 1182.778631 55.611746 
L 1187.444819 50.070498 
L 1192.111006 60.119306 
L 1196.777194 57.793462 
L 1201.443381 64.809441 
L 1206.109569 60.036856 
L 1210.775757 61.015592 
L 1215.441944 58.063486 
L 1220.108132 58.73201 
L 1224.77432 62.877285 
L 1229.440507 46.453568 
L 1234.106695 61.254224 
L 1238.772883 63.560148 
L 1243.43907 59.857315 
L 1248.105258 51.378997 
L 1252.771445 56.616641 
L 1257.437633 55.334499 
L 1262.103821 56.735231 
L 1266.770008 62.859621 
L 1271.436196 74.689996 
L 1276.102384 55.756121 
L 1280.768571 68.952368 
L 1285.434759 52.176997 
L 1290.100947 61.00949 
L 1294.767134 59.297191 
L 1299.433322 72.819468 
L 1304.099509 74.458083 
L 1308.765697 62.073254 
L 1313.431885 51.396776 
L 1318.098072 69.910908 
L 1322.76426 45.871785 
L 1327.430448 59.554185 
L 1332.096635 61.5979 
L 1336.762823 65.25472 
L 1341.429011 43.86314 
L 1346.095198 57.656434 
L 1350.761386 73.60046 
L 1355.427573 54.121765 
L 1364.759949 62.53464 
L 1364.759949 62.53464 
" style="fill:none;stroke:#1f77b4;stroke-linecap:square;stroke-width:1.5;"/>
   </g>
   <g id="line2d_15">
    <path clip-path="url(#p3eb43ab51a)" d="M 174.882101 61.067536 
L 179.548289 57.250394 
L 184.214476 65.45457 
L 188.880664 52.602683 
L 193.546852 463.342234 
L 198.213039 52.080519 
L 202.879227 63.331128 
L 207.545415 474.136364 
L 212.211602 54.898138 
L 216.87779 53.704725 
L 221.543978 61.635791 
L 226.210165 60.927027 
L 230.876353 60.487343 
L 235.54254 61.310646 
L 240.208728 54.374665 
L 244.874916 56.860553 
L 249.541103 56.240287 
L 254.207291 59.440156 
L 258.873479 54.479116 
L 263.539666 69.138633 
L 268.205854 57.507943 
L 272.872042 46.181192 
L 277.538229 55.633111 
L 282.204417 48.472475 
L 286.870604 48.228319 
L 291.536792 54.320643 
L 296.20298 72.540927 
L 300.869167 51.778907 
L 305.535355 58.789276 
L 310.201543 56.225384 
L 314.86773 62.145188 
L 319.533918 56.705291 
L 324.200106 52.774466 
L 328.866293 59.436057 
L 333.532481 52.023945 
L 338.198668 56.327401 
L 342.864856 53.835763 
L 347.531044 58.199082 
L 352.197231 50.51879 
L 356.863419 54.609506 
L 361.529607 61.117862 
L 366.195794 61.420829 
L 370.861982 54.056649 
L 375.52817 66.156931 
L 380.194357 52.803918 
L 384.860545 62.826511 
L 394.19292 53.929529 
L 398.859108 54.977065 
L 403.525295 57.587173 
L 408.191483 53.037541 
L 412.857671 65.299615 
L 417.523858 55.114211 
L 422.190046 59.546906 
L 426.856234 63.369507 
L 431.522421 56.6151 
L 436.188609 54.748948 
L 440.854797 60.066525 
L 445.520984 66.377925 
L 450.187172 55.18633 
L 454.853359 57.955869 
L 459.519547 50.295649 
L 464.185735 56.709314 
L 468.851922 51.68556 
L 473.51811 59.344278 
L 478.184298 52.32973 
L 482.850485 59.468602 
L 487.516673 60.225314 
L 492.182861 55.769689 
L 496.849048 53.507284 
L 501.515236 55.555381 
L 506.181423 55.664623 
L 510.847611 57.89919 
L 515.513799 59.470336 
L 520.179986 62.35079 
L 524.846174 61.462375 
L 529.512362 48.209056 
L 534.178549 65.273906 
L 538.844737 52.363871 
L 543.510925 54.615464 
L 548.177112 59.277771 
L 552.8433 61.978103 
L 557.509487 67.467515 
L 562.175675 64.448886 
L 566.841863 55.269039 
L 571.50805 57.282738 
L 576.174238 50.60278 
L 580.840426 56.059488 
L 585.506613 64.398118 
L 590.172801 50.287822 
L 594.838989 63.986842 
L 599.505176 50.079894 
L 604.171364 50.666042 
L 608.837551 59.736091 
L 613.503739 49.500102 
L 618.169927 53.731279 
L 622.836114 69.289886 
L 627.502302 59.646099 
L 632.16849 63.166907 
L 636.834677 58.635012 
L 641.500865 58.759856 
L 646.167053 62.828381 
L 650.83324 54.541446 
L 655.499428 53.891253 
L 660.165615 67.11597 
L 664.831803 58.415455 
L 669.497991 57.675288 
L 674.164178 63.533889 
L 678.830366 64.504744 
L 683.496554 50.750176 
L 688.162741 55.541276 
L 692.828929 54.87019 
L 697.495117 50.144422 
L 702.161304 55.014435 
L 706.827492 67.033514 
L 711.493679 62.965702 
L 716.159867 57.712351 
L 720.826055 53.305896 
L 725.492242 55.304781 
L 730.15843 59.069052 
L 734.824618 55.903269 
L 739.490805 62.000281 
L 744.156993 61.796257 
L 748.823181 59.888524 
L 753.489368 59.7936 
L 758.155556 54.01199 
L 762.821743 54.91915 
L 767.487931 64.581191 
L 772.154119 58.601615 
L 776.820306 61.305513 
L 781.486494 56.879695 
L 786.152682 64.808617 
L 790.818869 49.761235 
L 795.485057 58.459099 
L 800.151245 65.310255 
L 804.817432 60.103363 
L 809.48362 57.812094 
L 814.149808 59.716532 
L 818.815995 56.426865 
L 823.482183 55.784733 
L 828.14837 61.612062 
L 832.814558 54.037715 
L 837.480746 57.283046 
L 842.146933 52.719462 
L 846.813121 59.34166 
L 851.479309 58.472831 
L 856.145496 57.423853 
L 860.811684 64.833006 
L 865.477872 54.446339 
L 870.144059 63.43424 
L 874.810247 63.640567 
L 879.476434 57.104958 
L 884.142622 57.793393 
L 888.80881 55.78835 
L 893.474997 55.664667 
L 898.141185 58.120719 
L 902.807373 62.223484 
L 907.47356 61.126398 
L 912.139748 54.74113 
L 916.805936 63.237723 
L 921.472123 53.210449 
L 926.138311 65.539824 
L 930.804498 57.019241 
L 935.470686 52.757079 
L 940.136874 58.944735 
L 944.803061 60.182372 
L 949.469249 51.143788 
L 954.135437 67.341059 
L 958.801624 50.971001 
L 963.467812 59.553672 
L 968.134 59.690502 
L 972.800187 62.720213 
L 977.466375 62.996086 
L 982.132562 57.551661 
L 986.79875 55.851444 
L 991.464938 53.211461 
L 996.131125 61.906366 
L 1000.797313 61.236616 
L 1005.463501 59.734187 
L 1010.129688 55.683402 
L 1014.795876 55.46201 
L 1019.462064 56.328227 
L 1024.128251 61.359885 
L 1028.794439 62.160992 
L 1033.460626 63.96957 
L 1038.126814 58.246358 
L 1042.793002 49.758738 
L 1047.459189 59.243044 
L 1052.125377 55.722715 
L 1056.791565 54.327624 
L 1061.457752 61.42406 
L 1066.12394 57.470015 
L 1070.790128 54.384249 
L 1075.456315 57.595622 
L 1080.122503 52.194925 
L 1084.78869 67.32808 
L 1089.454878 56.379384 
L 1094.121066 66.31381 
L 1098.787253 64.442594 
L 1103.453441 60.124257 
L 1108.119629 59.294429 
L 1112.785816 60.391703 
L 1117.452004 55.973267 
L 1122.118192 55.13221 
L 1126.784379 59.800624 
L 1131.450567 52.47151 
L 1136.116754 57.926832 
L 1140.782942 61.439759 
L 1145.44913 60.025277 
L 1150.115317 61.926402 
L 1154.781505 69.562711 
L 1159.447693 58.344618 
L 1164.11388 47.790442 
L 1168.780068 54.326155 
L 1173.446256 56.527354 
L 1178.112443 55.01137 
L 1182.778631 59.769865 
L 1187.444819 59.0374 
L 1192.111006 54.406789 
L 1196.777194 55.478307 
L 1201.443381 52.809046 
L 1206.109569 56.624959 
L 1210.775757 57.259224 
L 1215.441944 59.351645 
L 1220.108132 64.820459 
L 1224.77432 59.518405 
L 1229.440507 56.020356 
L 1234.106695 56.590405 
L 1238.772883 63.425442 
L 1243.43907 58.622821 
L 1248.105258 53.379159 
L 1252.771445 57.797129 
L 1257.437633 59.473851 
L 1262.103821 59.98811 
L 1266.770008 61.348013 
L 1271.436196 62.028207 
L 1276.102384 57.310432 
L 1280.768571 49.012731 
L 1285.434759 60.530758 
L 1290.100947 63.266596 
L 1294.767134 53.20434 
L 1299.433322 56.526977 
L 1304.099509 61.309019 
L 1308.765697 60.977495 
L 1313.431885 56.74367 
L 1318.098072 54.381467 
L 1322.76426 54.541821 
L 1327.430448 55.367373 
L 1332.096635 55.432319 
L 1336.762823 51.303556 
L 1341.429011 58.599448 
L 1346.095198 54.33453 
L 1350.761386 66.474974 
L 1355.427573 59.386916 
L 1360.093761 47.023884 
L 1364.759949 62.156458 
L 1364.759949 62.156458 
" style="fill:none;stroke:#ff7f0e;stroke-linecap:square;stroke-width:1.5;"/>
   </g>
   <g id="line2d_16">
    <path clip-path="url(#p3eb43ab51a)" d="M 174.882101 53.258402 
L 179.548289 58.23904 
L 184.214476 68.21187 
L 188.880664 69.740161 
L 193.546852 65.574835 
L 198.213039 54.738278 
L 202.879227 58.922353 
L 207.545415 53.796141 
L 212.211602 61.826167 
L 216.87779 46.312521 
L 221.543978 48.197217 
L 226.210165 60.027535 
L 230.876353 68.344607 
L 235.54254 60.140031 
L 240.208728 56.719688 
L 244.874916 50.357443 
L 249.541103 53.260383 
L 254.207291 57.20866 
L 258.873479 63.634763 
L 263.539666 57.441365 
L 268.205854 75.855164 
L 272.872042 49.152929 
L 277.538229 55.031753 
L 282.204417 63.465142 
L 286.870604 68.24855 
L 291.536792 57.451338 
L 296.20298 47.022122 
L 300.869167 58.994699 
L 305.535355 51.666946 
L 310.201543 61.779008 
L 314.86773 43.176905 
L 319.533918 58.087364 
L 324.200106 63.325555 
L 328.866293 61.636953 
L 333.532481 79.671275 
L 338.198668 50.294491 
L 342.864856 68.46837 
L 347.531044 54.721037 
L 352.197231 58.191132 
L 356.863419 56.687241 
L 361.529607 63.327163 
L 366.195794 57.371068 
L 370.861982 69.412209 
L 375.52817 57.873373 
L 380.194357 56.048789 
L 384.860545 66.894305 
L 389.526732 63.399162 
L 394.19292 61.472784 
L 403.525295 42.557102 
L 408.191483 58.514401 
L 412.857671 50.612802 
L 417.523858 79.022389 
L 422.190046 52.061204 
L 426.856234 59.586962 
L 431.522421 57.793639 
L 436.188609 66.317898 
L 440.854797 58.51616 
L 445.520984 57.889141 
L 450.187172 51.732976 
L 454.853359 44.040925 
L 459.519547 56.865065 
L 464.185735 53.035566 
L 468.851922 70.853943 
L 473.51811 61.038478 
L 478.184298 49.09615 
L 482.850485 68.371716 
L 487.516673 53.318528 
L 492.182861 60.966649 
L 496.849048 59.301226 
L 501.515236 57.281631 
L 506.181423 64.603887 
L 510.847611 56.58849 
L 515.513799 50.390352 
L 520.179986 46.117413 
L 524.846174 59.660993 
L 529.512362 60.182392 
L 534.178549 61.288814 
L 538.844737 59.606012 
L 543.510925 56.074153 
L 548.177112 55.862182 
L 552.8433 70.766481 
L 557.509487 70.340635 
L 562.175675 46.196095 
L 566.841863 38.242699 
L 571.50805 59.595833 
L 576.174238 73.644561 
L 580.840426 57.060389 
L 585.506613 55.815801 
L 590.172801 62.031135 
L 594.838989 64.295877 
L 599.505176 63.387028 
L 604.171364 61.254526 
L 608.837551 63.907941 
L 613.503739 65.035991 
L 618.169927 50.452742 
L 622.836114 57.80413 
L 627.502302 63.134878 
L 632.16849 54.168702 
L 636.834677 65.414837 
L 641.500865 69.024619 
L 646.167053 47.244138 
L 650.83324 48.44777 
L 655.499428 67.062382 
L 660.165615 53.090006 
L 664.831803 58.317048 
L 669.497991 59.172768 
L 674.164178 53.598009 
L 678.830366 50.606011 
L 683.496554 64.007728 
L 688.162741 57.458857 
L 692.828929 53.344533 
L 697.495117 65.854199 
L 702.161304 65.338774 
L 706.827492 60.231703 
L 711.493679 59.826851 
L 716.159867 76.258278 
L 720.826055 61.023301 
L 725.492242 60.42435 
L 730.15843 58.68341 
L 734.824618 68.242979 
L 739.490805 45.368801 
L 744.156993 63.250725 
L 748.823181 52.313983 
L 753.489368 53.22072 
L 758.155556 67.574247 
L 762.821743 67.084694 
L 767.487931 55.528473 
L 772.154119 54.699403 
L 776.820306 73.862209 
L 781.486494 59.313657 
L 786.152682 48.422365 
L 790.818869 66.010909 
L 795.485057 57.498397 
L 800.151245 68.120026 
L 804.817432 63.798625 
L 809.48362 65.526095 
L 814.149808 70.057786 
L 818.815995 49.254754 
L 823.482183 60.254179 
L 828.14837 60.295904 
L 832.814558 54.496903 
L 837.480746 57.787643 
L 842.146933 56.471937 
L 846.813121 41.296874 
L 851.479309 60.207235 
L 856.145496 57.663706 
L 860.811684 64.833897 
L 865.477872 60.269407 
L 870.144059 59.019657 
L 874.810247 64.827736 
L 879.476434 45.484129 
L 884.142622 56.047401 
L 888.80881 63.03593 
L 893.474997 59.363501 
L 898.141185 68.217225 
L 902.807373 56.177281 
L 907.47356 44.50542 
L 912.139748 57.511219 
L 916.805936 58.76554 
L 921.472123 57.995237 
L 930.804498 53.032412 
L 935.470686 60.083475 
L 940.136874 52.507333 
L 944.803061 65.813014 
L 949.469249 57.442656 
L 954.135437 64.487426 
L 958.801624 55.636146 
L 963.467812 60.097362 
L 968.134 51.156699 
L 972.800187 45.141366 
L 977.466375 51.530909 
L 982.132562 63.147374 
L 986.79875 65.540648 
L 991.464938 50.356906 
L 996.131125 53.24465 
L 1000.797313 57.758949 
L 1005.463501 52.726668 
L 1010.129688 51.445995 
L 1014.795876 49.019398 
L 1019.462064 63.00638 
L 1024.128251 48.350269 
L 1028.794439 62.458374 
L 1033.460626 57.282774 
L 1038.126814 58.714762 
L 1042.793002 72.977035 
L 1047.459189 64.983235 
L 1052.125377 67.882064 
L 1056.791565 52.030545 
L 1061.457752 52.932809 
L 1066.12394 50.238012 
L 1070.790128 71.184541 
L 1075.456315 55.29475 
L 1080.122503 45.447844 
L 1084.78869 47.459307 
L 1089.454878 55.429795 
L 1094.121066 55.447097 
L 1098.787253 51.613199 
L 1103.453441 52.388118 
L 1108.119629 59.749233 
L 1112.785816 48.077962 
L 1117.452004 49.940506 
L 1122.118192 38.985275 
L 1126.784379 53.131136 
L 1131.450567 65.024942 
L 1136.116754 52.425827 
L 1140.782942 60.342991 
L 1145.44913 44.977189 
L 1150.115317 62.078173 
L 1154.781505 53.982038 
L 1159.447693 51.147275 
L 1164.11388 52.242118 
L 1168.780068 69.755757 
L 1173.446256 60.443565 
L 1178.112443 44.242818 
L 1182.778631 73.449793 
L 1187.444819 63.557701 
L 1192.111006 62.297519 
L 1196.777194 59.746483 
L 1201.443381 56.37596 
L 1206.109569 54.598223 
L 1210.775757 51.18092 
L 1215.441944 55.93911 
L 1220.108132 64.10094 
L 1224.77432 48.384905 
L 1229.440507 58.049034 
L 1234.106695 57.952919 
L 1238.772883 46.233958 
L 1243.43907 52.285767 
L 1248.105258 57.481016 
L 1252.771445 57.867685 
L 1257.437633 61.078408 
L 1262.103821 59.392072 
L 1266.770008 60.271364 
L 1271.436196 52.229825 
L 1276.102384 66.137627 
L 1280.768571 59.535294 
L 1285.434759 42.270798 
L 1290.100947 55.159651 
L 1294.767134 49.303722 
L 1299.433322 58.159816 
L 1304.099509 54.279151 
L 1308.765697 53.824971 
L 1313.431885 46.021494 
L 1318.098072 64.795734 
L 1322.76426 59.767563 
L 1327.430448 60.513462 
L 1332.096635 66.825777 
L 1336.762823 70.719755 
L 1341.429011 56.301297 
L 1346.095198 61.360965 
L 1350.761386 58.501882 
L 1355.427573 62.03926 
L 1360.093761 64.521032 
L 1364.759949 62.43292 
L 1364.759949 62.43292 
" style="fill:none;stroke:#2ca02c;stroke-linecap:square;stroke-width:1.5;"/>
   </g>
   <g id="patch_13">
    <path d="M 114.175 496.2 
L 114.175 10.8 
" style="fill:none;stroke:#000000;stroke-linecap:square;stroke-linejoin:miter;stroke-width:0.8;"/>
   </g>
   <g id="patch_14">
    <path d="M 1429.2 496.2 
L 1429.2 10.8 
" style="fill:none;stroke:#000000;stroke-linecap:square;stroke-linejoin:miter;stroke-width:0.8;"/>
   </g>
   <g id="patch_15">
    <path d="M 114.175 496.2 
L 1429.2 496.2 
" style="fill:none;stroke:#000000;stroke-linecap:square;stroke-linejoin:miter;stroke-width:0.8;"/>
   </g>
   <g id="patch_16">
    <path d="M 114.175 10.8 
L 1429.2 10.8 
" style="fill:none;stroke:#000000;stroke-linecap:square;stroke-linejoin:miter;stroke-width:0.8;"/>
   </g>
  </g>
 </g>
 <defs>
  <clipPath id="p3eb43ab51a">
   <rect height="485.4" width="1315.025" x="114.175" y="10.8"/>
  </clipPath>
 </defs>
</svg>
