<?xml version="1.0" encoding="utf-8" standalone="no"?>
<!DOCTYPE svg PUBLIC "-//W3C//DTD SVG 1.1//EN"
  "http://www.w3.org/Graphics/SVG/1.1/DTD/svg11.dtd">
<!-- Created with matplotlib (https://matplotlib.org/) -->
<svg height="576pt" version="1.1" viewBox="0 0 1440 576" width="1440pt" xmlns="http://www.w3.org/2000/svg" xmlns:xlink="http://www.w3.org/1999/xlink">
 <defs>
  <style type="text/css">
*{stroke-linecap:butt;stroke-linejoin:round;white-space:pre;}
  </style>
 </defs>
 <g id="figure_1">
  <g id="patch_1">
   <path d="M 0 576 
L 1440 576 
L 1440 0 
L 0 0 
z
" style="fill:#ffffff;"/>
  </g>
  <g id="axes_1">
   <g id="patch_2">
    <path d="M 95.05 496.2 
L 1429.2 496.2 
L 1429.2 17.093086 
L 95.05 17.093086 
z
" style="fill:#ffffff;"/>
   </g>
   <g id="patch_3">
    <path clip-path="url(#pe1e560ae9e)" d="M 155.693182 496.2 
L 155.693182 17.093086 
L 156.639992 17.093086 
L 156.639992 496.2 
z
" style="fill:#0000ff;"/>
   </g>
   <g id="patch_4">
    <path clip-path="url(#pe1e560ae9e)" d="M 160.427232 496.2 
L 160.427232 17.093086 
L 161.374042 17.093086 
L 161.374042 496.2 
z
" style="fill:#0000ff;"/>
   </g>
   <g id="patch_5">
    <path clip-path="url(#pe1e560ae9e)" d="M 198.299633 496.2 
L 198.299633 17.093086 
L 199.246443 17.093086 
L 199.246443 496.2 
z
" style="fill:#0000ff;"/>
   </g>
   <g id="patch_6">
    <path clip-path="url(#pe1e560ae9e)" d="M 330.853036 496.2 
L 330.853036 17.093086 
L 331.799846 17.093086 
L 331.799846 496.2 
z
" style="fill:#0000ff;"/>
   </g>
   <g id="patch_7">
    <path clip-path="url(#pe1e560ae9e)" d="M 595.959841 496.2 
L 595.959841 17.093086 
L 596.906651 17.093086 
L 596.906651 496.2 
z
" style="fill:#0000ff;"/>
   </g>
   <g id="patch_8">
    <path clip-path="url(#pe1e560ae9e)" d="M 927.343349 496.2 
L 927.343349 17.093086 
L 928.290159 17.093086 
L 928.290159 496.2 
z
" style="fill:#0000ff;"/>
   </g>
   <g id="patch_9">
    <path clip-path="url(#pe1e560ae9e)" d="M 1192.450154 496.2 
L 1192.450154 17.093086 
L 1193.396964 17.093086 
L 1193.396964 496.2 
z
" style="fill:#0000ff;"/>
   </g>
   <g id="patch_10">
    <path clip-path="url(#pe1e560ae9e)" d="M 1325.003557 496.2 
L 1325.003557 17.093086 
L 1325.950367 17.093086 
L 1325.950367 496.2 
z
" style="fill:#0000ff;"/>
   </g>
   <g id="patch_11">
    <path clip-path="url(#pe1e560ae9e)" d="M 1362.875958 496.2 
L 1362.875958 17.093086 
L 1363.822768 17.093086 
L 1363.822768 496.2 
z
" style="fill:#0000ff;"/>
   </g>
   <g id="patch_12">
    <path clip-path="url(#pe1e560ae9e)" d="M 1367.610008 496.2 
L 1367.610008 17.093086 
L 1368.556818 17.093086 
L 1368.556818 496.2 
z
" style="fill:#0000ff;"/>
   </g>
   <g id="matplotlib.axis_1">
    <g id="xtick_1">
     <g id="line2d_1">
      <defs>
       <path d="M 0 0 
L 0 3.5 
" id="m8d8f384653" style="stroke:#000000;stroke-width:0.8;"/>
      </defs>
      <g>
       <use style="stroke:#000000;stroke-width:0.8;" x="156.639992" xlink:href="#m8d8f384653" y="496.2"/>
      </g>
     </g>
     <g id="text_1">
      <!-- 0 -->
      <defs>
       <path d="M 31.78125 66.40625 
Q 24.171875 66.40625 20.328125 58.90625 
Q 16.5 51.421875 16.5 36.375 
Q 16.5 21.390625 20.328125 13.890625 
Q 24.171875 6.390625 31.78125 6.390625 
Q 39.453125 6.390625 43.28125 13.890625 
Q 47.125 21.390625 47.125 36.375 
Q 47.125 51.421875 43.28125 58.90625 
Q 39.453125 66.40625 31.78125 66.40625 
z
M 31.78125 74.21875 
Q 44.046875 74.21875 50.515625 64.515625 
Q 56.984375 54.828125 56.984375 36.375 
Q 56.984375 17.96875 50.515625 8.265625 
Q 44.046875 -1.421875 31.78125 -1.421875 
Q 19.53125 -1.421875 13.0625 8.265625 
Q 6.59375 17.96875 6.59375 36.375 
Q 6.59375 54.828125 13.0625 64.515625 
Q 19.53125 74.21875 31.78125 74.21875 
z
" id="DejaVuSans-48"/>
      </defs>
      <g transform="translate(147.096242 525.995312)scale(0.3 -0.3)">
       <use xlink:href="#DejaVuSans-48"/>
      </g>
     </g>
    </g>
    <g id="xtick_2">
     <g id="line2d_2">
      <g>
       <use style="stroke:#000000;stroke-width:0.8;" x="393.342497" xlink:href="#m8d8f384653" y="496.2"/>
      </g>
     </g>
     <g id="text_2">
      <!-- 50 -->
      <defs>
       <path d="M 10.796875 72.90625 
L 49.515625 72.90625 
L 49.515625 64.59375 
L 19.828125 64.59375 
L 19.828125 46.734375 
Q 21.96875 47.46875 24.109375 47.828125 
Q 26.265625 48.1875 28.421875 48.1875 
Q 40.625 48.1875 47.75 41.5 
Q 54.890625 34.8125 54.890625 23.390625 
Q 54.890625 11.625 47.5625 5.09375 
Q 40.234375 -1.421875 26.90625 -1.421875 
Q 22.3125 -1.421875 17.546875 -0.640625 
Q 12.796875 0.140625 7.71875 1.703125 
L 7.71875 11.625 
Q 12.109375 9.234375 16.796875 8.0625 
Q 21.484375 6.890625 26.703125 6.890625 
Q 35.15625 6.890625 40.078125 11.328125 
Q 45.015625 15.765625 45.015625 23.390625 
Q 45.015625 31 40.078125 35.4375 
Q 35.15625 39.890625 26.703125 39.890625 
Q 22.75 39.890625 18.8125 39.015625 
Q 14.890625 38.140625 10.796875 36.28125 
z
" id="DejaVuSans-53"/>
      </defs>
      <g transform="translate(374.254997 525.995312)scale(0.3 -0.3)">
       <use xlink:href="#DejaVuSans-53"/>
       <use x="63.623047" xlink:href="#DejaVuSans-48"/>
      </g>
     </g>
    </g>
    <g id="xtick_3">
     <g id="line2d_3">
      <g>
       <use style="stroke:#000000;stroke-width:0.8;" x="630.045002" xlink:href="#m8d8f384653" y="496.2"/>
      </g>
     </g>
     <g id="text_3">
      <!-- 100 -->
      <defs>
       <path d="M 12.40625 8.296875 
L 28.515625 8.296875 
L 28.515625 63.921875 
L 10.984375 60.40625 
L 10.984375 69.390625 
L 28.421875 72.90625 
L 38.28125 72.90625 
L 38.28125 8.296875 
L 54.390625 8.296875 
L 54.390625 0 
L 12.40625 0 
z
" id="DejaVuSans-49"/>
      </defs>
      <g transform="translate(601.413752 525.995312)scale(0.3 -0.3)">
       <use xlink:href="#DejaVuSans-49"/>
       <use x="63.623047" xlink:href="#DejaVuSans-48"/>
       <use x="127.246094" xlink:href="#DejaVuSans-48"/>
      </g>
     </g>
    </g>
    <g id="xtick_4">
     <g id="line2d_4">
      <g>
       <use style="stroke:#000000;stroke-width:0.8;" x="866.747507" xlink:href="#m8d8f384653" y="496.2"/>
      </g>
     </g>
     <g id="text_4">
      <!-- 150 -->
      <g transform="translate(838.116257 525.995312)scale(0.3 -0.3)">
       <use xlink:href="#DejaVuSans-49"/>
       <use x="63.623047" xlink:href="#DejaVuSans-53"/>
       <use x="127.246094" xlink:href="#DejaVuSans-48"/>
      </g>
     </g>
    </g>
    <g id="xtick_5">
     <g id="line2d_5">
      <g>
       <use style="stroke:#000000;stroke-width:0.8;" x="1103.450012" xlink:href="#m8d8f384653" y="496.2"/>
      </g>
     </g>
     <g id="text_5">
      <!-- 200 -->
      <defs>
       <path d="M 19.1875 8.296875 
L 53.609375 8.296875 
L 53.609375 0 
L 7.328125 0 
L 7.328125 8.296875 
Q 12.9375 14.109375 22.625 23.890625 
Q 32.328125 33.6875 34.8125 36.53125 
Q 39.546875 41.84375 41.421875 45.53125 
Q 43.3125 49.21875 43.3125 52.78125 
Q 43.3125 58.59375 39.234375 62.25 
Q 35.15625 65.921875 28.609375 65.921875 
Q 23.96875 65.921875 18.8125 64.3125 
Q 13.671875 62.703125 7.8125 59.421875 
L 7.8125 69.390625 
Q 13.765625 71.78125 18.9375 73 
Q 24.125 74.21875 28.421875 74.21875 
Q 39.75 74.21875 46.484375 68.546875 
Q 53.21875 62.890625 53.21875 53.421875 
Q 53.21875 48.921875 51.53125 44.890625 
Q 49.859375 40.875 45.40625 35.40625 
Q 44.1875 33.984375 37.640625 27.21875 
Q 31.109375 20.453125 19.1875 8.296875 
z
" id="DejaVuSans-50"/>
      </defs>
      <g transform="translate(1074.818762 525.995312)scale(0.3 -0.3)">
       <use xlink:href="#DejaVuSans-50"/>
       <use x="63.623047" xlink:href="#DejaVuSans-48"/>
       <use x="127.246094" xlink:href="#DejaVuSans-48"/>
      </g>
     </g>
    </g>
    <g id="xtick_6">
     <g id="line2d_6">
      <g>
       <use style="stroke:#000000;stroke-width:0.8;" x="1340.152518" xlink:href="#m8d8f384653" y="496.2"/>
      </g>
     </g>
     <g id="text_6">
      <!-- 250 -->
      <g transform="translate(1311.521268 525.995312)scale(0.3 -0.3)">
       <use xlink:href="#DejaVuSans-50"/>
       <use x="63.623047" xlink:href="#DejaVuSans-53"/>
       <use x="127.246094" xlink:href="#DejaVuSans-48"/>
      </g>
     </g>
    </g>
    <g id="text_7">
     <!-- Bit Interaction -->
     <defs>
      <path d="M 19.671875 34.8125 
L 19.671875 8.109375 
L 35.5 8.109375 
Q 43.453125 8.109375 47.28125 11.40625 
Q 51.125 14.703125 51.125 21.484375 
Q 51.125 28.328125 47.28125 31.5625 
Q 43.453125 34.8125 35.5 34.8125 
z
M 19.671875 64.796875 
L 19.671875 42.828125 
L 34.28125 42.828125 
Q 41.5 42.828125 45.03125 45.53125 
Q 48.578125 48.25 48.578125 53.8125 
Q 48.578125 59.328125 45.03125 62.0625 
Q 41.5 64.796875 34.28125 64.796875 
z
M 9.8125 72.90625 
L 35.015625 72.90625 
Q 46.296875 72.90625 52.390625 68.21875 
Q 58.5 63.53125 58.5 54.890625 
Q 58.5 48.1875 55.375 44.234375 
Q 52.25 40.28125 46.1875 39.3125 
Q 53.46875 37.75 57.5 32.78125 
Q 61.53125 27.828125 61.53125 20.40625 
Q 61.53125 10.640625 54.890625 5.3125 
Q 48.25 0 35.984375 0 
L 9.8125 0 
z
" id="DejaVuSans-66"/>
      <path d="M 9.421875 54.6875 
L 18.40625 54.6875 
L 18.40625 0 
L 9.421875 0 
z
M 9.421875 75.984375 
L 18.40625 75.984375 
L 18.40625 64.59375 
L 9.421875 64.59375 
z
" id="DejaVuSans-105"/>
      <path d="M 18.3125 70.21875 
L 18.3125 54.6875 
L 36.8125 54.6875 
L 36.8125 47.703125 
L 18.3125 47.703125 
L 18.3125 18.015625 
Q 18.3125 11.328125 20.140625 9.421875 
Q 21.96875 7.515625 27.59375 7.515625 
L 36.8125 7.515625 
L 36.8125 0 
L 27.59375 0 
Q 17.1875 0 13.234375 3.875 
Q 9.28125 7.765625 9.28125 18.015625 
L 9.28125 47.703125 
L 2.6875 47.703125 
L 2.6875 54.6875 
L 9.28125 54.6875 
L 9.28125 70.21875 
z
" id="DejaVuSans-116"/>
      <path id="DejaVuSans-32"/>
      <path d="M 9.8125 72.90625 
L 19.671875 72.90625 
L 19.671875 0 
L 9.8125 0 
z
" id="DejaVuSans-73"/>
      <path d="M 54.890625 33.015625 
L 54.890625 0 
L 45.90625 0 
L 45.90625 32.71875 
Q 45.90625 40.484375 42.875 44.328125 
Q 39.84375 48.1875 33.796875 48.1875 
Q 26.515625 48.1875 22.3125 43.546875 
Q 18.109375 38.921875 18.109375 30.90625 
L 18.109375 0 
L 9.078125 0 
L 9.078125 54.6875 
L 18.109375 54.6875 
L 18.109375 46.1875 
Q 21.34375 51.125 25.703125 53.5625 
Q 30.078125 56 35.796875 56 
Q 45.21875 56 50.046875 50.171875 
Q 54.890625 44.34375 54.890625 33.015625 
z
" id="DejaVuSans-110"/>
      <path d="M 56.203125 29.59375 
L 56.203125 25.203125 
L 14.890625 25.203125 
Q 15.484375 15.921875 20.484375 11.0625 
Q 25.484375 6.203125 34.421875 6.203125 
Q 39.59375 6.203125 44.453125 7.46875 
Q 49.3125 8.734375 54.109375 11.28125 
L 54.109375 2.78125 
Q 49.265625 0.734375 44.1875 -0.34375 
Q 39.109375 -1.421875 33.890625 -1.421875 
Q 20.796875 -1.421875 13.15625 6.1875 
Q 5.515625 13.8125 5.515625 26.8125 
Q 5.515625 40.234375 12.765625 48.109375 
Q 20.015625 56 32.328125 56 
Q 43.359375 56 49.78125 48.890625 
Q 56.203125 41.796875 56.203125 29.59375 
z
M 47.21875 32.234375 
Q 47.125 39.59375 43.09375 43.984375 
Q 39.0625 48.390625 32.421875 48.390625 
Q 24.90625 48.390625 20.390625 44.140625 
Q 15.875 39.890625 15.1875 32.171875 
z
" id="DejaVuSans-101"/>
      <path d="M 41.109375 46.296875 
Q 39.59375 47.171875 37.8125 47.578125 
Q 36.03125 48 33.890625 48 
Q 26.265625 48 22.1875 43.046875 
Q 18.109375 38.09375 18.109375 28.8125 
L 18.109375 0 
L 9.078125 0 
L 9.078125 54.6875 
L 18.109375 54.6875 
L 18.109375 46.1875 
Q 20.953125 51.171875 25.484375 53.578125 
Q 30.03125 56 36.53125 56 
Q 37.453125 56 38.578125 55.875 
Q 39.703125 55.765625 41.0625 55.515625 
z
" id="DejaVuSans-114"/>
      <path d="M 34.28125 27.484375 
Q 23.390625 27.484375 19.1875 25 
Q 14.984375 22.515625 14.984375 16.5 
Q 14.984375 11.71875 18.140625 8.90625 
Q 21.296875 6.109375 26.703125 6.109375 
Q 34.1875 6.109375 38.703125 11.40625 
Q 43.21875 16.703125 43.21875 25.484375 
L 43.21875 27.484375 
z
M 52.203125 31.203125 
L 52.203125 0 
L 43.21875 0 
L 43.21875 8.296875 
Q 40.140625 3.328125 35.546875 0.953125 
Q 30.953125 -1.421875 24.3125 -1.421875 
Q 15.921875 -1.421875 10.953125 3.296875 
Q 6 8.015625 6 15.921875 
Q 6 25.140625 12.171875 29.828125 
Q 18.359375 34.515625 30.609375 34.515625 
L 43.21875 34.515625 
L 43.21875 35.40625 
Q 43.21875 41.609375 39.140625 45 
Q 35.0625 48.390625 27.6875 48.390625 
Q 23 48.390625 18.546875 47.265625 
Q 14.109375 46.140625 10.015625 43.890625 
L 10.015625 52.203125 
Q 14.9375 54.109375 19.578125 55.046875 
Q 24.21875 56 28.609375 56 
Q 40.484375 56 46.34375 49.84375 
Q 52.203125 43.703125 52.203125 31.203125 
z
" id="DejaVuSans-97"/>
      <path d="M 48.78125 52.59375 
L 48.78125 44.1875 
Q 44.96875 46.296875 41.140625 47.34375 
Q 37.3125 48.390625 33.40625 48.390625 
Q 24.65625 48.390625 19.8125 42.84375 
Q 14.984375 37.3125 14.984375 27.296875 
Q 14.984375 17.28125 19.8125 11.734375 
Q 24.65625 6.203125 33.40625 6.203125 
Q 37.3125 6.203125 41.140625 7.25 
Q 44.96875 8.296875 48.78125 10.40625 
L 48.78125 2.09375 
Q 45.015625 0.34375 40.984375 -0.53125 
Q 36.96875 -1.421875 32.421875 -1.421875 
Q 20.0625 -1.421875 12.78125 6.34375 
Q 5.515625 14.109375 5.515625 27.296875 
Q 5.515625 40.671875 12.859375 48.328125 
Q 20.21875 56 33.015625 56 
Q 37.15625 56 41.109375 55.140625 
Q 45.0625 54.296875 48.78125 52.59375 
z
" id="DejaVuSans-99"/>
      <path d="M 30.609375 48.390625 
Q 23.390625 48.390625 19.1875 42.75 
Q 14.984375 37.109375 14.984375 27.296875 
Q 14.984375 17.484375 19.15625 11.84375 
Q 23.34375 6.203125 30.609375 6.203125 
Q 37.796875 6.203125 41.984375 11.859375 
Q 46.1875 17.53125 46.1875 27.296875 
Q 46.1875 37.015625 41.984375 42.703125 
Q 37.796875 48.390625 30.609375 48.390625 
z
M 30.609375 56 
Q 42.328125 56 49.015625 48.375 
Q 55.71875 40.765625 55.71875 27.296875 
Q 55.71875 13.875 49.015625 6.21875 
Q 42.328125 -1.421875 30.609375 -1.421875 
Q 18.84375 -1.421875 12.171875 6.21875 
Q 5.515625 13.875 5.515625 27.296875 
Q 5.515625 40.765625 12.171875 48.375 
Q 18.84375 56 30.609375 56 
z
" id="DejaVuSans-111"/>
     </defs>
     <g transform="translate(655.639063 559.029688)scale(0.3 -0.3)">
      <use xlink:href="#DejaVuSans-66"/>
      <use x="68.603516" xlink:href="#DejaVuSans-105"/>
      <use x="96.386719" xlink:href="#DejaVuSans-116"/>
      <use x="135.595703" xlink:href="#DejaVuSans-32"/>
      <use x="167.382812" xlink:href="#DejaVuSans-73"/>
      <use x="196.875" xlink:href="#DejaVuSans-110"/>
      <use x="260.253906" xlink:href="#DejaVuSans-116"/>
      <use x="299.462891" xlink:href="#DejaVuSans-101"/>
      <use x="360.986328" xlink:href="#DejaVuSans-114"/>
      <use x="402.099609" xlink:href="#DejaVuSans-97"/>
      <use x="463.378906" xlink:href="#DejaVuSans-99"/>
      <use x="518.359375" xlink:href="#DejaVuSans-116"/>
      <use x="557.568359" xlink:href="#DejaVuSans-105"/>
      <use x="585.351562" xlink:href="#DejaVuSans-111"/>
      <use x="646.533203" xlink:href="#DejaVuSans-110"/>
     </g>
    </g>
   </g>
   <g id="matplotlib.axis_2">
    <g id="ytick_1">
     <g id="line2d_7">
      <defs>
       <path d="M 0 0 
L -3.5 0 
" id="mf91166c8fc" style="stroke:#000000;stroke-width:0.8;"/>
      </defs>
      <g>
       <use style="stroke:#000000;stroke-width:0.8;" x="95.05" xlink:href="#mf91166c8fc" y="457.884837"/>
      </g>
     </g>
     <g id="text_8">
      <!-- −5 -->
      <defs>
       <path d="M 10.59375 35.5 
L 73.1875 35.5 
L 73.1875 27.203125 
L 10.59375 27.203125 
z
" id="DejaVuSans-8722"/>
      </defs>
      <g transform="translate(43.823438 469.282493)scale(0.3 -0.3)">
       <use xlink:href="#DejaVuSans-8722"/>
       <use x="83.789062" xlink:href="#DejaVuSans-53"/>
      </g>
     </g>
    </g>
    <g id="ytick_2">
     <g id="line2d_8">
      <g>
       <use style="stroke:#000000;stroke-width:0.8;" x="95.05" xlink:href="#mf91166c8fc" y="385.375621"/>
      </g>
     </g>
     <g id="text_9">
      <!-- −4 -->
      <defs>
       <path d="M 37.796875 64.3125 
L 12.890625 25.390625 
L 37.796875 25.390625 
z
M 35.203125 72.90625 
L 47.609375 72.90625 
L 47.609375 25.390625 
L 58.015625 25.390625 
L 58.015625 17.1875 
L 47.609375 17.1875 
L 47.609375 0 
L 37.796875 0 
L 37.796875 17.1875 
L 4.890625 17.1875 
L 4.890625 26.703125 
z
" id="DejaVuSans-52"/>
      </defs>
      <g transform="translate(43.823438 396.773277)scale(0.3 -0.3)">
       <use xlink:href="#DejaVuSans-8722"/>
       <use x="83.789062" xlink:href="#DejaVuSans-52"/>
      </g>
     </g>
    </g>
    <g id="ytick_3">
     <g id="line2d_9">
      <g>
       <use style="stroke:#000000;stroke-width:0.8;" x="95.05" xlink:href="#mf91166c8fc" y="312.866404"/>
      </g>
     </g>
     <g id="text_10">
      <!-- −3 -->
      <defs>
       <path d="M 40.578125 39.3125 
Q 47.65625 37.796875 51.625 33 
Q 55.609375 28.21875 55.609375 21.1875 
Q 55.609375 10.40625 48.1875 4.484375 
Q 40.765625 -1.421875 27.09375 -1.421875 
Q 22.515625 -1.421875 17.65625 -0.515625 
Q 12.796875 0.390625 7.625 2.203125 
L 7.625 11.71875 
Q 11.71875 9.328125 16.59375 8.109375 
Q 21.484375 6.890625 26.8125 6.890625 
Q 36.078125 6.890625 40.9375 10.546875 
Q 45.796875 14.203125 45.796875 21.1875 
Q 45.796875 27.640625 41.28125 31.265625 
Q 36.765625 34.90625 28.71875 34.90625 
L 20.21875 34.90625 
L 20.21875 43.015625 
L 29.109375 43.015625 
Q 36.375 43.015625 40.234375 45.921875 
Q 44.09375 48.828125 44.09375 54.296875 
Q 44.09375 59.90625 40.109375 62.90625 
Q 36.140625 65.921875 28.71875 65.921875 
Q 24.65625 65.921875 20.015625 65.03125 
Q 15.375 64.15625 9.8125 62.3125 
L 9.8125 71.09375 
Q 15.4375 72.65625 20.34375 73.4375 
Q 25.25 74.21875 29.59375 74.21875 
Q 40.828125 74.21875 47.359375 69.109375 
Q 53.90625 64.015625 53.90625 55.328125 
Q 53.90625 49.265625 50.4375 45.09375 
Q 46.96875 40.921875 40.578125 39.3125 
z
" id="DejaVuSans-51"/>
      </defs>
      <g transform="translate(43.823438 324.26406)scale(0.3 -0.3)">
       <use xlink:href="#DejaVuSans-8722"/>
       <use x="83.789062" xlink:href="#DejaVuSans-51"/>
      </g>
     </g>
    </g>
    <g id="ytick_4">
     <g id="line2d_10">
      <g>
       <use style="stroke:#000000;stroke-width:0.8;" x="95.05" xlink:href="#mf91166c8fc" y="240.357188"/>
      </g>
     </g>
     <g id="text_11">
      <!-- −2 -->
      <g transform="translate(43.823438 251.754844)scale(0.3 -0.3)">
       <use xlink:href="#DejaVuSans-8722"/>
       <use x="83.789062" xlink:href="#DejaVuSans-50"/>
      </g>
     </g>
    </g>
    <g id="ytick_5">
     <g id="line2d_11">
      <g>
       <use style="stroke:#000000;stroke-width:0.8;" x="95.05" xlink:href="#mf91166c8fc" y="167.847971"/>
      </g>
     </g>
     <g id="text_12">
      <!-- −1 -->
      <g transform="translate(43.823438 179.245628)scale(0.3 -0.3)">
       <use xlink:href="#DejaVuSans-8722"/>
       <use x="83.789062" xlink:href="#DejaVuSans-49"/>
      </g>
     </g>
    </g>
    <g id="ytick_6">
     <g id="line2d_12">
      <g>
       <use style="stroke:#000000;stroke-width:0.8;" x="95.05" xlink:href="#mf91166c8fc" y="95.338755"/>
      </g>
     </g>
     <g id="text_13">
      <!-- 0 -->
      <g transform="translate(68.9625 106.736411)scale(0.3 -0.3)">
       <use xlink:href="#DejaVuSans-48"/>
      </g>
     </g>
    </g>
    <g id="ytick_7">
     <g id="line2d_13">
      <g>
       <use style="stroke:#000000;stroke-width:0.8;" x="95.05" xlink:href="#mf91166c8fc" y="22.829539"/>
      </g>
     </g>
     <g id="text_14">
      <!-- 1 -->
      <g transform="translate(68.9625 34.227195)scale(0.3 -0.3)">
       <use xlink:href="#DejaVuSans-49"/>
      </g>
     </g>
    </g>
    <g id="text_15">
     <!-- Weight Value -->
     <defs>
      <path d="M 3.328125 72.90625 
L 13.28125 72.90625 
L 28.609375 11.28125 
L 43.890625 72.90625 
L 54.984375 72.90625 
L 70.3125 11.28125 
L 85.59375 72.90625 
L 95.609375 72.90625 
L 77.296875 0 
L 64.890625 0 
L 49.515625 63.28125 
L 33.984375 0 
L 21.578125 0 
z
" id="DejaVuSans-87"/>
      <path d="M 45.40625 27.984375 
Q 45.40625 37.75 41.375 43.109375 
Q 37.359375 48.484375 30.078125 48.484375 
Q 22.859375 48.484375 18.828125 43.109375 
Q 14.796875 37.75 14.796875 27.984375 
Q 14.796875 18.265625 18.828125 12.890625 
Q 22.859375 7.515625 30.078125 7.515625 
Q 37.359375 7.515625 41.375 12.890625 
Q 45.40625 18.265625 45.40625 27.984375 
z
M 54.390625 6.78125 
Q 54.390625 -7.171875 48.1875 -13.984375 
Q 42 -20.796875 29.203125 -20.796875 
Q 24.46875 -20.796875 20.265625 -20.09375 
Q 16.0625 -19.390625 12.109375 -17.921875 
L 12.109375 -9.1875 
Q 16.0625 -11.328125 19.921875 -12.34375 
Q 23.78125 -13.375 27.78125 -13.375 
Q 36.625 -13.375 41.015625 -8.765625 
Q 45.40625 -4.15625 45.40625 5.171875 
L 45.40625 9.625 
Q 42.625 4.78125 38.28125 2.390625 
Q 33.9375 0 27.875 0 
Q 17.828125 0 11.671875 7.65625 
Q 5.515625 15.328125 5.515625 27.984375 
Q 5.515625 40.671875 11.671875 48.328125 
Q 17.828125 56 27.875 56 
Q 33.9375 56 38.28125 53.609375 
Q 42.625 51.21875 45.40625 46.390625 
L 45.40625 54.6875 
L 54.390625 54.6875 
z
" id="DejaVuSans-103"/>
      <path d="M 54.890625 33.015625 
L 54.890625 0 
L 45.90625 0 
L 45.90625 32.71875 
Q 45.90625 40.484375 42.875 44.328125 
Q 39.84375 48.1875 33.796875 48.1875 
Q 26.515625 48.1875 22.3125 43.546875 
Q 18.109375 38.921875 18.109375 30.90625 
L 18.109375 0 
L 9.078125 0 
L 9.078125 75.984375 
L 18.109375 75.984375 
L 18.109375 46.1875 
Q 21.34375 51.125 25.703125 53.5625 
Q 30.078125 56 35.796875 56 
Q 45.21875 56 50.046875 50.171875 
Q 54.890625 44.34375 54.890625 33.015625 
z
" id="DejaVuSans-104"/>
      <path d="M 28.609375 0 
L 0.78125 72.90625 
L 11.078125 72.90625 
L 34.1875 11.53125 
L 57.328125 72.90625 
L 67.578125 72.90625 
L 39.796875 0 
z
" id="DejaVuSans-86"/>
      <path d="M 9.421875 75.984375 
L 18.40625 75.984375 
L 18.40625 0 
L 9.421875 0 
z
" id="DejaVuSans-108"/>
      <path d="M 8.5 21.578125 
L 8.5 54.6875 
L 17.484375 54.6875 
L 17.484375 21.921875 
Q 17.484375 14.15625 20.5 10.265625 
Q 23.53125 6.390625 29.59375 6.390625 
Q 36.859375 6.390625 41.078125 11.03125 
Q 45.3125 15.671875 45.3125 23.6875 
L 45.3125 54.6875 
L 54.296875 54.6875 
L 54.296875 0 
L 45.3125 0 
L 45.3125 8.40625 
Q 42.046875 3.421875 37.71875 1 
Q 33.40625 -1.421875 27.6875 -1.421875 
Q 18.265625 -1.421875 13.375 4.4375 
Q 8.5 10.296875 8.5 21.578125 
z
M 31.109375 56 
z
" id="DejaVuSans-117"/>
     </defs>
     <g transform="translate(33.584375 356.879355)rotate(-90)scale(0.3 -0.3)">
      <use xlink:href="#DejaVuSans-87"/>
      <use x="98.798828" xlink:href="#DejaVuSans-101"/>
      <use x="160.322266" xlink:href="#DejaVuSans-105"/>
      <use x="188.105469" xlink:href="#DejaVuSans-103"/>
      <use x="251.582031" xlink:href="#DejaVuSans-104"/>
      <use x="314.960938" xlink:href="#DejaVuSans-116"/>
      <use x="354.169922" xlink:href="#DejaVuSans-32"/>
      <use x="385.957031" xlink:href="#DejaVuSans-86"/>
      <use x="454.255859" xlink:href="#DejaVuSans-97"/>
      <use x="515.535156" xlink:href="#DejaVuSans-108"/>
      <use x="543.318359" xlink:href="#DejaVuSans-117"/>
      <use x="606.697266" xlink:href="#DejaVuSans-101"/>
     </g>
    </g>
   </g>
   <g id="line2d_14">
    <path clip-path="url(#pe1e560ae9e)" d="M 156.639992 105.167095 
L 161.374042 87.439844 
L 166.108092 94.793798 
L 170.842142 86.654693 
L 175.576192 102.327558 
L 180.310242 105.406043 
L 185.044292 74.520902 
L 189.778343 122.123123 
L 194.512393 113.268628 
L 199.246443 105.187898 
L 203.980493 96.075766 
L 208.714543 101.503276 
L 213.448593 106.474088 
L 218.182643 76.42962 
L 222.916693 106.717997 
L 227.650743 70.416374 
L 232.384793 103.079215 
L 237.118844 115.909926 
L 241.852894 86.839353 
L 246.586944 105.304105 
L 251.320994 118.391994 
L 256.055044 107.014044 
L 260.789094 76.145775 
L 265.523144 71.658705 
L 270.257194 109.783036 
L 274.991244 98.82748 
L 279.725295 84.842576 
L 284.459345 98.963026 
L 289.193395 107.293333 
L 293.927445 82.658782 
L 298.661495 70.410272 
L 303.395545 87.890919 
L 308.129595 129.456599 
L 312.863645 119.85968 
L 317.597695 82.434133 
L 322.331745 70.166753 
L 327.065796 77.617274 
L 331.799846 105.836679 
L 336.533896 93.784797 
L 341.267946 52.69222 
L 346.001996 112.059702 
L 350.736046 95.790132 
L 355.470096 119.704669 
L 360.204146 78.99314 
L 364.938196 107.757107 
L 369.672246 96.312025 
L 374.406297 81.119523 
L 379.140347 120.659856 
L 383.874397 92.444983 
L 388.608447 110.266255 
L 393.342497 87.409042 
L 398.076547 96.074156 
L 402.810597 90.744096 
L 407.544647 109.401472 
L 412.278697 117.972114 
L 417.012747 70.448071 
L 421.746798 114.089761 
L 426.480848 116.004331 
L 431.214898 88.571886 
L 435.948948 81.461465 
L 440.682998 112.285545 
L 445.417048 69.185622 
L 450.151098 89.290846 
L 454.885148 103.684643 
L 459.619198 124.156858 
L 464.353249 108.156925 
L 469.087299 103.125076 
L 473.821349 82.147112 
L 478.555399 92.39618 
L 483.289449 123.142898 
L 488.023499 108.378705 
L 492.757549 113.813696 
L 497.491599 75.138279 
L 502.225649 97.118606 
L 506.959699 130.33494 
L 511.69375 117.111388 
L 516.4278 110.583239 
L 521.16185 109.37232 
L 525.8959 76.781851 
L 530.62995 95.275269 
L 535.364 78.218195 
L 540.09805 83.821448 
L 544.8321 84.962313 
L 549.56615 92.199243 
L 554.3002 66.572623 
L 559.034251 74.057762 
L 563.768301 106.454568 
L 568.502351 96.951823 
L 573.236401 95.402626 
L 577.970451 76.167644 
L 582.704501 106.204149 
L 587.438551 105.858231 
L 592.172601 164.875655 
L 596.906651 78.12035 
L 601.640702 84.3724 
L 606.374752 108.216926 
L 611.108802 94.059866 
L 615.842852 87.239802 
L 620.576902 76.287818 
L 625.310952 85.295 
L 630.045002 88.094492 
L 634.779052 86.908572 
L 639.513102 75.252396 
L 644.247152 83.818249 
L 648.981203 93.148625 
L 653.715253 125.858354 
L 658.449303 101.171126 
L 663.183353 97.604286 
L 667.917403 93.853352 
L 672.651453 98.23032 
L 677.385503 96.228472 
L 682.119553 106.195687 
L 686.853603 79.567244 
L 691.587653 91.187774 
L 696.321704 92.219376 
L 701.055754 92.261462 
L 705.789804 106.190361 
L 710.523854 97.615254 
L 715.257904 109.120594 
L 719.991954 96.475646 
L 724.726004 106.022274 
L 729.460054 92.486111 
L 734.194104 90.016382 
L 738.928154 99.243239 
L 743.662205 108.12899 
L 748.396255 98.836863 
L 753.130305 107.479163 
L 757.864355 76.642401 
L 762.598405 109.184102 
L 767.332455 90.99576 
L 772.066505 81.293808 
L 776.800555 101.431671 
L 781.534605 108.163726 
L 786.268656 91.853245 
L 791.002706 89.60327 
L 795.736756 82.16533 
L 800.470806 89.458139 
L 805.204856 104.949317 
L 809.938906 108.881878 
L 814.672956 113.082464 
L 819.407006 111.707462 
L 824.141056 96.294745 
L 828.875106 98.215703 
L 833.609157 123.31205 
L 838.343207 64.056274 
L 843.077257 113.812553 
L 847.811307 90.394084 
L 852.545357 97.621756 
L 857.279407 97.515923 
L 862.013457 60.980191 
L 866.747507 96.690032 
L 871.481557 94.141508 
L 876.215607 106.086899 
L 880.949658 81.237856 
L 885.683708 107.795898 
L 890.417758 77.271089 
L 895.151808 93.88904 
L 899.885858 97.911474 
L 904.619908 97.498994 
L 909.353958 89.061577 
L 914.088008 110.743995 
L 918.822058 107.678218 
L 923.556109 97.94869 
L 928.290159 116.390366 
L 933.024209 70.787676 
L 937.758259 92.603396 
L 942.492309 103.86044 
L 947.226359 76.686519 
L 951.960409 115.046921 
L 956.694459 108.910309 
L 961.428509 123.226367 
L 966.162559 98.247412 
L 970.89661 82.110314 
L 975.63066 96.413395 
L 980.36471 81.265427 
L 985.09876 68.421515 
L 989.83281 94.443224 
L 994.56686 73.795205 
L 999.30091 101.996228 
L 1004.03496 80.769851 
L 1008.76901 99.928431 
L 1013.50306 108.873693 
L 1018.237111 89.823353 
L 1022.971161 72.80754 
L 1027.705211 112.103659 
L 1032.439261 102.052096 
L 1037.173311 87.730903 
L 1041.907361 109.303817 
L 1046.641411 70.526051 
L 1051.375461 109.074702 
L 1056.109511 111.333253 
L 1060.843561 107.041655 
L 1065.577612 105.607858 
L 1070.311662 95.045416 
L 1075.045712 81.796369 
L 1079.779762 115.330017 
L 1084.513812 76.023326 
L 1089.247862 86.614932 
L 1093.981912 78.985244 
L 1098.715962 125.973321 
L 1103.450012 101.606612 
L 1108.184063 106.960286 
L 1112.918113 90.300989 
L 1117.652163 112.214151 
L 1122.386213 90.970694 
L 1127.120263 130.130247 
L 1131.854313 93.774677 
L 1136.588363 114.247573 
L 1141.322413 77.418886 
L 1146.056463 99.068632 
L 1150.790513 87.197107 
L 1155.524564 101.011573 
L 1160.258614 76.465705 
L 1164.992664 81.34944 
L 1169.726714 54.999666 
L 1174.460764 105.127472 
L 1179.194814 74.71274 
L 1183.928864 103.714471 
L 1188.662914 83.128537 
L 1193.396964 93.274013 
L 1198.131014 81.368669 
L 1202.865065 112.394111 
L 1207.599115 92.082473 
L 1212.333165 83.143159 
L 1217.067215 103.180912 
L 1221.801265 94.815498 
L 1226.535315 114.597499 
L 1231.269365 99.726685 
L 1236.003415 102.82212 
L 1240.737465 81.900976 
L 1245.471516 107.53463 
L 1250.205566 99.060497 
L 1254.939616 74.542548 
L 1259.673666 132.336101 
L 1264.407716 98.655721 
L 1269.141766 132.803798 
L 1273.875816 90.219221 
L 1278.609866 105.044725 
L 1283.343916 110.956817 
L 1288.077966 99.400853 
L 1292.812017 81.324942 
L 1297.546067 38.870673 
L 1302.280117 77.171257 
L 1307.014167 105.033186 
L 1311.748217 92.218707 
L 1316.482267 106.056839 
L 1321.216317 91.347061 
L 1325.950367 69.424216 
L 1335.418467 102.115849 
L 1340.152518 105.166707 
L 1344.886568 84.314352 
L 1349.620618 93.454164 
L 1354.354668 113.959997 
L 1359.088718 72.260456 
L 1363.822768 69.040897 
L 1363.822768 69.040897 
" style="fill:none;stroke:#1f77b4;stroke-linecap:square;stroke-width:1.5;"/>
   </g>
   <g id="line2d_15">
    <path clip-path="url(#pe1e560ae9e)" d="M 156.639992 97.221928 
L 161.374042 95.526311 
L 166.108092 460.242858 
L 170.842142 82.433557 
L 175.576192 464.696475 
L 180.310242 87.105684 
L 185.044292 90.829117 
L 189.778343 474.422413 
L 194.512393 110.301681 
L 199.246443 468.74629 
L 203.980493 97.491071 
L 208.714543 87.618244 
L 213.448593 99.516263 
L 218.182643 102.383284 
L 222.916693 89.371423 
L 227.650743 111.056065 
L 232.384793 98.833352 
L 237.118844 101.503793 
L 241.852894 65.8683 
L 246.586944 83.20593 
L 251.320994 88.285963 
L 256.055044 99.183521 
L 260.789094 91.618212 
L 265.523144 75.351171 
L 270.257194 86.76035 
L 274.991244 103.195162 
L 279.725295 100.568748 
L 284.459345 108.814659 
L 289.193395 89.285028 
L 293.927445 98.650951 
L 298.661495 65.619277 
L 303.395545 99.578421 
L 308.129595 79.982144 
L 312.863645 74.937311 
L 317.597695 85.940657 
L 322.331745 85.43411 
L 327.065796 99.484875 
L 331.799846 458.441012 
L 336.533896 75.854238 
L 341.267946 102.330575 
L 346.001996 76.843429 
L 350.736046 98.660374 
L 355.470096 80.75256 
L 360.204146 73.083503 
L 364.938196 103.552564 
L 369.672246 105.543052 
L 374.406297 106.366445 
L 383.874397 83.507279 
L 388.608447 100.93793 
L 393.342497 104.994246 
L 398.076547 84.624256 
L 402.810597 94.288022 
L 407.544647 83.957226 
L 412.278697 91.189607 
L 417.012747 93.673106 
L 421.746798 107.600102 
L 426.480848 88.52307 
L 431.214898 115.496903 
L 435.948948 92.483265 
L 440.682998 90.039501 
L 445.417048 93.064632 
L 450.151098 100.034837 
L 454.885148 92.788606 
L 459.619198 93.306248 
L 464.353249 96.929037 
L 469.087299 91.517982 
L 473.821349 100.72358 
L 478.555399 104.713683 
L 483.289449 90.647772 
L 488.023499 82.944737 
L 497.491599 98.033806 
L 502.225649 91.969135 
L 506.959699 115.275062 
L 511.69375 91.617818 
L 516.4278 99.957763 
L 521.16185 96.283156 
L 525.8959 93.157472 
L 530.62995 109.565435 
L 535.364 104.59867 
L 540.09805 93.943434 
L 544.8321 81.743664 
L 549.56615 117.071351 
L 554.3002 101.481405 
L 559.034251 104.260233 
L 563.768301 99.663855 
L 568.502351 86.888992 
L 573.236401 98.44634 
L 577.970451 90.391963 
L 582.704501 77.554602 
L 587.438551 88.159642 
L 592.172601 91.540933 
L 596.906651 461.336503 
L 601.640702 102.72683 
L 606.374752 98.16112 
L 611.108802 88.492787 
L 615.842852 102.360561 
L 620.576902 87.038436 
L 625.310952 75.114632 
L 630.045002 106.987767 
L 634.779052 92.543274 
L 639.513102 88.050159 
L 644.247152 103.547916 
L 648.981203 106.119271 
L 653.715253 82.318907 
L 658.449303 100.021233 
L 663.183353 93.399575 
L 667.917403 91.531065 
L 672.651453 104.954095 
L 677.385503 78.706356 
L 682.119553 95.52267 
L 686.853603 81.847593 
L 691.587653 89.638342 
L 696.321704 82.545724 
L 701.055754 91.174005 
L 705.789804 102.335334 
L 710.523854 114.032721 
L 715.257904 99.59731 
L 719.991954 80.824825 
L 724.726004 98.683769 
L 729.460054 98.695838 
L 734.194104 85.485835 
L 738.928154 99.010068 
L 743.662205 72.567025 
L 748.396255 109.403944 
L 753.130305 99.700082 
L 757.864355 107.020256 
L 762.598405 110.464 
L 767.332455 109.06109 
L 772.066505 94.216276 
L 776.800555 97.197447 
L 781.534605 97.071608 
L 786.268656 87.299488 
L 791.002706 102.026642 
L 795.736756 105.764675 
L 800.470806 106.449887 
L 805.204856 112.899028 
L 809.938906 95.929709 
L 814.672956 98.553193 
L 819.407006 102.168647 
L 824.141056 105.413013 
L 828.875106 106.865506 
L 833.609157 86.103883 
L 838.343207 106.674321 
L 843.077257 102.890108 
L 847.811307 74.755878 
L 852.545357 105.737397 
L 857.279407 100.527181 
L 862.013457 84.189753 
L 866.747507 80.38286 
L 871.481557 108.686512 
L 876.215607 100.036122 
L 880.949658 90.403711 
L 885.683708 89.185956 
L 890.417758 94.785381 
L 895.151808 78.110236 
L 899.885858 89.758965 
L 904.619908 110.999888 
L 909.353958 88.867967 
L 914.088008 111.747417 
L 918.822058 113.076606 
L 923.556109 77.99681 
L 928.290159 453.598494 
L 933.024209 116.382788 
L 937.758259 99.683213 
L 942.492309 72.397968 
L 947.226359 99.277189 
L 951.960409 79.936997 
L 956.694459 103.698322 
L 961.428509 88.662951 
L 966.162559 109.680975 
L 970.89661 86.694981 
L 975.63066 78.98014 
L 980.36471 103.072314 
L 985.09876 89.152973 
L 989.83281 101.600477 
L 994.56686 84.788764 
L 999.30091 103.573671 
L 1004.03496 95.609901 
L 1008.76901 82.014469 
L 1013.50306 94.327176 
L 1018.237111 87.965467 
L 1022.971161 109.183722 
L 1027.705211 102.946836 
L 1032.439261 82.21423 
L 1037.173311 94.908364 
L 1041.907361 99.073892 
L 1046.641411 91.906573 
L 1051.375461 85.733376 
L 1056.109511 100.197124 
L 1060.843561 87.542893 
L 1065.577612 103.123735 
L 1070.311662 103.050427 
L 1075.045712 91.007626 
L 1079.779762 98.934782 
L 1084.513812 118.935546 
L 1089.247862 102.663189 
L 1093.981912 94.702615 
L 1098.715962 101.002284 
L 1103.450012 103.669456 
L 1108.184063 101.723007 
L 1112.918113 105.312831 
L 1117.652163 80.215943 
L 1122.386213 87.384623 
L 1127.120263 94.776587 
L 1131.854313 95.772656 
L 1136.588363 104.781731 
L 1141.322413 87.698231 
L 1146.056463 86.986395 
L 1150.790513 123.008989 
L 1155.524564 90.769699 
L 1160.258614 75.509179 
L 1164.992664 81.89752 
L 1169.726714 72.686881 
L 1174.460764 97.172895 
L 1179.194814 100.895723 
L 1183.928864 89.4748 
L 1188.662914 109.828585 
L 1193.396964 454.750259 
L 1198.131014 103.908353 
L 1202.865065 108.423538 
L 1207.599115 84.103206 
L 1212.333165 95.574748 
L 1217.067215 100.009834 
L 1221.801265 103.163467 
L 1226.535315 97.948721 
L 1231.269365 106.390729 
L 1236.003415 103.371798 
L 1240.737465 100.980902 
L 1245.471516 92.915027 
L 1250.205566 110.487026 
L 1254.939616 94.781509 
L 1259.673666 97.978419 
L 1264.407716 100.455154 
L 1269.141766 97.624363 
L 1273.875816 88.874387 
L 1278.609866 94.117297 
L 1283.343916 97.412472 
L 1288.077966 101.881574 
L 1292.812017 104.327192 
L 1297.546067 97.591675 
L 1302.280117 93.253169 
L 1307.014167 86.468038 
L 1311.748217 97.326178 
L 1316.482267 96.867858 
L 1321.216317 90.870297 
L 1325.950367 456.240584 
L 1330.684417 113.602767 
L 1335.418467 92.247289 
L 1340.152518 89.785592 
L 1344.886568 96.000557 
L 1349.620618 94.071315 
L 1354.354668 88.837174 
L 1359.088718 69.562322 
L 1363.822768 458.758999 
L 1363.822768 458.758999 
" style="fill:none;stroke:#ff7f0e;stroke-linecap:square;stroke-width:1.5;"/>
   </g>
   <g id="line2d_16">
    <path clip-path="url(#pe1e560ae9e)" d="M 156.639992 89.582295 
L 161.374042 89.465773 
L 166.108092 108.417767 
L 170.842142 93.041742 
L 175.576192 96.198678 
L 180.310242 101.358387 
L 185.044292 87.73518 
L 189.778343 110.072984 
L 194.512393 105.395862 
L 199.246443 115.139429 
L 203.980493 82.530333 
L 208.714543 103.271341 
L 213.448593 80.011191 
L 218.182643 86.968863 
L 222.916693 94.719536 
L 227.650743 99.565306 
L 232.384793 104.040607 
L 237.118844 101.6054 
L 241.852894 106.712418 
L 246.586944 112.624394 
L 251.320994 87.399513 
L 256.055044 101.992372 
L 260.789094 105.270153 
L 265.523144 82.731406 
L 270.257194 99.87398 
L 274.991244 101.099638 
L 279.725295 99.558356 
L 284.459345 112.236514 
L 289.193395 105.61054 
L 293.927445 62.087968 
L 298.661495 109.564939 
L 303.395545 128.381052 
L 308.129595 98.405078 
L 312.863645 94.924358 
L 317.597695 98.561608 
L 322.331745 73.984677 
L 327.065796 73.797394 
L 331.799846 101.117442 
L 336.533896 91.774057 
L 341.267946 86.217002 
L 346.001996 67.537771 
L 350.736046 77.987917 
L 355.470096 119.622852 
L 360.204146 94.262918 
L 364.938196 104.994285 
L 369.672246 105.855204 
L 374.406297 100.421792 
L 379.140347 81.817022 
L 383.874397 104.861618 
L 388.608447 81.149517 
L 393.342497 91.433623 
L 398.076547 107.003306 
L 402.810597 106.4373 
L 407.544647 88.194459 
L 412.278697 74.736184 
L 417.012747 82.124765 
L 421.746798 80.798634 
L 426.480848 77.65283 
L 431.214898 102.668456 
L 435.948948 107.827169 
L 440.682998 102.274645 
L 445.417048 93.349206 
L 450.151098 100.025195 
L 454.885148 96.469846 
L 459.619198 110.349284 
L 464.353249 81.192204 
L 469.087299 120.461903 
L 473.821349 87.429536 
L 478.555399 108.179956 
L 483.289449 117.768518 
L 488.023499 120.426889 
L 492.757549 99.447093 
L 497.491599 102.880742 
L 502.225649 104.858726 
L 506.959699 69.863793 
L 511.69375 95.556828 
L 516.4278 96.401432 
L 521.16185 99.701608 
L 525.8959 82.90703 
L 530.62995 126.130186 
L 535.364 87.714916 
L 540.09805 86.295233 
L 544.8321 73.609658 
L 549.56615 76.336008 
L 554.3002 98.037494 
L 559.034251 96.494972 
L 563.768301 90.430251 
L 568.502351 79.975903 
L 573.236401 95.085459 
L 577.970451 82.966431 
L 582.704501 91.178874 
L 587.438551 101.195303 
L 592.172601 85.644752 
L 596.906651 94.660643 
L 601.640702 107.458954 
L 606.374752 90.032698 
L 611.108802 100.906255 
L 615.842852 65.703362 
L 620.576902 77.456334 
L 625.310952 90.592157 
L 630.045002 89.12907 
L 634.779052 75.924054 
L 639.513102 105.064485 
L 644.247152 94.243477 
L 648.981203 114.217434 
L 653.715253 69.600184 
L 658.449303 92.868989 
L 663.183353 109.575961 
L 667.917403 104.518642 
L 672.651453 111.902427 
L 677.385503 105.528505 
L 682.119553 112.061302 
L 686.853603 86.615292 
L 691.587653 114.024324 
L 696.321704 103.759756 
L 701.055754 107.341614 
L 705.789804 110.670971 
L 710.523854 90.169039 
L 715.257904 90.017964 
L 719.991954 76.572674 
L 724.726004 100.886835 
L 729.460054 74.352482 
L 734.194104 87.205678 
L 738.928154 94.076715 
L 743.662205 102.784221 
L 748.396255 80.321146 
L 753.130305 81.443516 
L 757.864355 101.011752 
L 762.598405 101.852018 
L 767.332455 90.371339 
L 772.066505 91.940594 
L 776.800555 121.716181 
L 781.534605 96.778092 
L 786.268656 101.984739 
L 791.002706 89.165887 
L 795.736756 86.471421 
L 800.470806 91.160802 
L 805.204856 104.971785 
L 809.938906 80.279609 
L 814.672956 98.235905 
L 819.407006 84.400257 
L 824.141056 112.82312 
L 828.875106 101.787549 
L 833.609157 108.371857 
L 838.343207 92.771611 
L 843.077257 92.122263 
L 847.811307 95.09307 
L 852.545357 64.956665 
L 857.279407 102.463543 
L 862.013457 80.760671 
L 866.747507 86.314711 
L 871.481557 102.593272 
L 876.215607 61.38349 
L 880.949658 95.192282 
L 885.683708 86.839164 
L 890.417758 91.556014 
L 895.151808 139.09216 
L 904.619908 75.94438 
L 909.353958 77.200804 
L 914.088008 114.94481 
L 918.822058 83.399147 
L 923.556109 115.234977 
L 928.290159 122.283599 
L 933.024209 113.972921 
L 937.758259 78.026209 
L 942.492309 84.323579 
L 947.226359 110.093134 
L 951.960409 87.27083 
L 956.694459 66.786258 
L 961.428509 89.685049 
L 966.162559 96.470689 
L 970.89661 106.295313 
L 975.63066 83.292112 
L 980.36471 78.337359 
L 985.09876 87.531245 
L 989.83281 78.530361 
L 994.56686 112.927018 
L 999.30091 100.027051 
L 1004.03496 88.902816 
L 1008.76901 100.981805 
L 1013.50306 70.729916 
L 1018.237111 88.053335 
L 1022.971161 122.4924 
L 1027.705211 116.073738 
L 1032.439261 72.606715 
L 1037.173311 113.514367 
L 1041.907361 88.291909 
L 1046.641411 85.192004 
L 1051.375461 83.731281 
L 1056.109511 92.765234 
L 1060.843561 102.207218 
L 1065.577612 100.931925 
L 1070.311662 91.866339 
L 1075.045712 101.786574 
L 1079.779762 110.273302 
L 1084.513812 85.621626 
L 1089.247862 107.574792 
L 1093.981912 114.584537 
L 1098.715962 90.294674 
L 1103.450012 84.300017 
L 1108.184063 80.894115 
L 1112.918113 73.049695 
L 1117.652163 80.806547 
L 1122.386213 90.194352 
L 1127.120263 123.035011 
L 1131.854313 91.167951 
L 1136.588363 99.288878 
L 1141.322413 95.779421 
L 1146.056463 64.01492 
L 1150.790513 119.550741 
L 1155.524564 87.78058 
L 1160.258614 109.78369 
L 1164.992664 86.37851 
L 1169.726714 97.781891 
L 1174.460764 106.802373 
L 1179.194814 101.408543 
L 1183.928864 68.2352 
L 1188.662914 103.402202 
L 1193.396964 91.107453 
L 1198.131014 98.568438 
L 1202.865065 90.318535 
L 1207.599115 76.036157 
L 1212.333165 74.440813 
L 1217.067215 77.297398 
L 1221.801265 74.787659 
L 1226.535315 101.669825 
L 1231.269365 86.692746 
L 1236.003415 140.60565 
L 1240.737465 98.705044 
L 1245.471516 97.224058 
L 1250.205566 103.49526 
L 1254.939616 103.985614 
L 1259.673666 81.221932 
L 1264.407716 47.11888 
L 1269.141766 105.806786 
L 1273.875816 78.562197 
L 1278.609866 106.137984 
L 1283.343916 90.060905 
L 1288.077966 97.603408 
L 1292.812017 76.175391 
L 1297.546067 100.853924 
L 1302.280117 88.71325 
L 1307.014167 108.979588 
L 1311.748217 106.78136 
L 1316.482267 89.756046 
L 1321.216317 103.351954 
L 1325.950367 99.162034 
L 1330.684417 108.223518 
L 1335.418467 87.95547 
L 1340.152518 89.484706 
L 1344.886568 129.183551 
L 1349.620618 133.755166 
L 1354.354668 82.647355 
L 1359.088718 78.964097 
L 1363.822768 106.971579 
L 1363.822768 106.971579 
" style="fill:none;stroke:#2ca02c;stroke-linecap:square;stroke-width:1.5;"/>
   </g>
   <g id="patch_13">
    <path d="M 95.05 496.2 
L 95.05 17.093086 
" style="fill:none;stroke:#000000;stroke-linecap:square;stroke-linejoin:miter;stroke-width:0.8;"/>
   </g>
   <g id="patch_14">
    <path d="M 1429.2 496.2 
L 1429.2 17.093086 
" style="fill:none;stroke:#000000;stroke-linecap:square;stroke-linejoin:miter;stroke-width:0.8;"/>
   </g>
   <g id="patch_15">
    <path d="M 95.05 496.2 
L 1429.2 496.2 
" style="fill:none;stroke:#000000;stroke-linecap:square;stroke-linejoin:miter;stroke-width:0.8;"/>
   </g>
   <g id="patch_16">
    <path d="M 95.05 17.093086 
L 1429.2 17.093086 
" style="fill:none;stroke:#000000;stroke-linecap:square;stroke-linejoin:miter;stroke-width:0.8;"/>
   </g>
  </g>
 </g>
 <defs>
  <clipPath id="pe1e560ae9e">
   <rect height="479.106914" width="1334.15" x="95.05" y="17.093086"/>
  </clipPath>
 </defs>
</svg>
