<?xml version="1.0" encoding="utf-8" standalone="no"?>
<!DOCTYPE svg PUBLIC "-//W3C//DTD SVG 1.1//EN"
  "http://www.w3.org/Graphics/SVG/1.1/DTD/svg11.dtd">
<!-- Created with matplotlib (https://matplotlib.org/) -->
<svg height="576pt" version="1.1" viewBox="0 0 1440 576" width="1440pt" xmlns="http://www.w3.org/2000/svg" xmlns:xlink="http://www.w3.org/1999/xlink">
 <defs>
  <style type="text/css">
*{stroke-linecap:butt;stroke-linejoin:round;white-space:pre;}
  </style>
 </defs>
 <g id="figure_1">
  <g id="patch_1">
   <path d="M 0 576 
L 1440 576 
L 1440 0 
L 0 0 
z
" style="fill:#ffffff;"/>
  </g>
  <g id="axes_1">
   <g id="patch_2">
    <path d="M 95.05 496.2 
L 1429.2 496.2 
L 1429.2 10.8 
L 95.05 10.8 
z
" style="fill:#ffffff;"/>
   </g>
   <g id="patch_3">
    <path clip-path="url(#pdeb203e647)" d="M 155.693182 496.2 
L 155.693182 10.8 
L 156.639992 10.8 
L 156.639992 496.2 
z
" style="fill:#0000ff;"/>
   </g>
   <g id="patch_4">
    <path clip-path="url(#pdeb203e647)" d="M 160.427232 496.2 
L 160.427232 10.8 
L 161.374042 10.8 
L 161.374042 496.2 
z
" style="fill:#0000ff;"/>
   </g>
   <g id="patch_5">
    <path clip-path="url(#pdeb203e647)" d="M 198.299633 496.2 
L 198.299633 10.8 
L 199.246443 10.8 
L 199.246443 496.2 
z
" style="fill:#0000ff;"/>
   </g>
   <g id="patch_6">
    <path clip-path="url(#pdeb203e647)" d="M 330.853036 496.2 
L 330.853036 10.8 
L 331.799846 10.8 
L 331.799846 496.2 
z
" style="fill:#0000ff;"/>
   </g>
   <g id="patch_7">
    <path clip-path="url(#pdeb203e647)" d="M 595.959841 496.2 
L 595.959841 10.8 
L 596.906651 10.8 
L 596.906651 496.2 
z
" style="fill:#0000ff;"/>
   </g>
   <g id="patch_8">
    <path clip-path="url(#pdeb203e647)" d="M 927.343349 496.2 
L 927.343349 10.8 
L 928.290159 10.8 
L 928.290159 496.2 
z
" style="fill:#0000ff;"/>
   </g>
   <g id="patch_9">
    <path clip-path="url(#pdeb203e647)" d="M 1192.450154 496.2 
L 1192.450154 10.8 
L 1193.396964 10.8 
L 1193.396964 496.2 
z
" style="fill:#0000ff;"/>
   </g>
   <g id="patch_10">
    <path clip-path="url(#pdeb203e647)" d="M 1325.003557 496.2 
L 1325.003557 10.8 
L 1325.950367 10.8 
L 1325.950367 496.2 
z
" style="fill:#0000ff;"/>
   </g>
   <g id="patch_11">
    <path clip-path="url(#pdeb203e647)" d="M 1362.875958 496.2 
L 1362.875958 10.8 
L 1363.822768 10.8 
L 1363.822768 496.2 
z
" style="fill:#0000ff;"/>
   </g>
   <g id="patch_12">
    <path clip-path="url(#pdeb203e647)" d="M 1367.610008 496.2 
L 1367.610008 10.8 
L 1368.556818 10.8 
L 1368.556818 496.2 
z
" style="fill:#0000ff;"/>
   </g>
   <g id="matplotlib.axis_1">
    <g id="xtick_1">
     <g id="line2d_1">
      <defs>
       <path d="M 0 0 
L 0 3.5 
" id="ma458485552" style="stroke:#000000;stroke-width:0.8;"/>
      </defs>
      <g>
       <use style="stroke:#000000;stroke-width:0.8;" x="156.639992" xlink:href="#ma458485552" y="496.2"/>
      </g>
     </g>
     <g id="text_1">
      <!-- 0 -->
      <defs>
       <path d="M 31.78125 66.40625 
Q 24.171875 66.40625 20.328125 58.90625 
Q 16.5 51.421875 16.5 36.375 
Q 16.5 21.390625 20.328125 13.890625 
Q 24.171875 6.390625 31.78125 6.390625 
Q 39.453125 6.390625 43.28125 13.890625 
Q 47.125 21.390625 47.125 36.375 
Q 47.125 51.421875 43.28125 58.90625 
Q 39.453125 66.40625 31.78125 66.40625 
z
M 31.78125 74.21875 
Q 44.046875 74.21875 50.515625 64.515625 
Q 56.984375 54.828125 56.984375 36.375 
Q 56.984375 17.96875 50.515625 8.265625 
Q 44.046875 -1.421875 31.78125 -1.421875 
Q 19.53125 -1.421875 13.0625 8.265625 
Q 6.59375 17.96875 6.59375 36.375 
Q 6.59375 54.828125 13.0625 64.515625 
Q 19.53125 74.21875 31.78125 74.21875 
z
" id="DejaVuSans-48"/>
      </defs>
      <g transform="translate(147.096242 525.995312)scale(0.3 -0.3)">
       <use xlink:href="#DejaVuSans-48"/>
      </g>
     </g>
    </g>
    <g id="xtick_2">
     <g id="line2d_2">
      <g>
       <use style="stroke:#000000;stroke-width:0.8;" x="393.342497" xlink:href="#ma458485552" y="496.2"/>
      </g>
     </g>
     <g id="text_2">
      <!-- 50 -->
      <defs>
       <path d="M 10.796875 72.90625 
L 49.515625 72.90625 
L 49.515625 64.59375 
L 19.828125 64.59375 
L 19.828125 46.734375 
Q 21.96875 47.46875 24.109375 47.828125 
Q 26.265625 48.1875 28.421875 48.1875 
Q 40.625 48.1875 47.75 41.5 
Q 54.890625 34.8125 54.890625 23.390625 
Q 54.890625 11.625 47.5625 5.09375 
Q 40.234375 -1.421875 26.90625 -1.421875 
Q 22.3125 -1.421875 17.546875 -0.640625 
Q 12.796875 0.140625 7.71875 1.703125 
L 7.71875 11.625 
Q 12.109375 9.234375 16.796875 8.0625 
Q 21.484375 6.890625 26.703125 6.890625 
Q 35.15625 6.890625 40.078125 11.328125 
Q 45.015625 15.765625 45.015625 23.390625 
Q 45.015625 31 40.078125 35.4375 
Q 35.15625 39.890625 26.703125 39.890625 
Q 22.75 39.890625 18.8125 39.015625 
Q 14.890625 38.140625 10.796875 36.28125 
z
" id="DejaVuSans-53"/>
      </defs>
      <g transform="translate(374.254997 525.995312)scale(0.3 -0.3)">
       <use xlink:href="#DejaVuSans-53"/>
       <use x="63.623047" xlink:href="#DejaVuSans-48"/>
      </g>
     </g>
    </g>
    <g id="xtick_3">
     <g id="line2d_3">
      <g>
       <use style="stroke:#000000;stroke-width:0.8;" x="630.045002" xlink:href="#ma458485552" y="496.2"/>
      </g>
     </g>
     <g id="text_3">
      <!-- 100 -->
      <defs>
       <path d="M 12.40625 8.296875 
L 28.515625 8.296875 
L 28.515625 63.921875 
L 10.984375 60.40625 
L 10.984375 69.390625 
L 28.421875 72.90625 
L 38.28125 72.90625 
L 38.28125 8.296875 
L 54.390625 8.296875 
L 54.390625 0 
L 12.40625 0 
z
" id="DejaVuSans-49"/>
      </defs>
      <g transform="translate(601.413752 525.995312)scale(0.3 -0.3)">
       <use xlink:href="#DejaVuSans-49"/>
       <use x="63.623047" xlink:href="#DejaVuSans-48"/>
       <use x="127.246094" xlink:href="#DejaVuSans-48"/>
      </g>
     </g>
    </g>
    <g id="xtick_4">
     <g id="line2d_4">
      <g>
       <use style="stroke:#000000;stroke-width:0.8;" x="866.747507" xlink:href="#ma458485552" y="496.2"/>
      </g>
     </g>
     <g id="text_4">
      <!-- 150 -->
      <g transform="translate(838.116257 525.995312)scale(0.3 -0.3)">
       <use xlink:href="#DejaVuSans-49"/>
       <use x="63.623047" xlink:href="#DejaVuSans-53"/>
       <use x="127.246094" xlink:href="#DejaVuSans-48"/>
      </g>
     </g>
    </g>
    <g id="xtick_5">
     <g id="line2d_5">
      <g>
       <use style="stroke:#000000;stroke-width:0.8;" x="1103.450012" xlink:href="#ma458485552" y="496.2"/>
      </g>
     </g>
     <g id="text_5">
      <!-- 200 -->
      <defs>
       <path d="M 19.1875 8.296875 
L 53.609375 8.296875 
L 53.609375 0 
L 7.328125 0 
L 7.328125 8.296875 
Q 12.9375 14.109375 22.625 23.890625 
Q 32.328125 33.6875 34.8125 36.53125 
Q 39.546875 41.84375 41.421875 45.53125 
Q 43.3125 49.21875 43.3125 52.78125 
Q 43.3125 58.59375 39.234375 62.25 
Q 35.15625 65.921875 28.609375 65.921875 
Q 23.96875 65.921875 18.8125 64.3125 
Q 13.671875 62.703125 7.8125 59.421875 
L 7.8125 69.390625 
Q 13.765625 71.78125 18.9375 73 
Q 24.125 74.21875 28.421875 74.21875 
Q 39.75 74.21875 46.484375 68.546875 
Q 53.21875 62.890625 53.21875 53.421875 
Q 53.21875 48.921875 51.53125 44.890625 
Q 49.859375 40.875 45.40625 35.40625 
Q 44.1875 33.984375 37.640625 27.21875 
Q 31.109375 20.453125 19.1875 8.296875 
z
" id="DejaVuSans-50"/>
      </defs>
      <g transform="translate(1074.818762 525.995312)scale(0.3 -0.3)">
       <use xlink:href="#DejaVuSans-50"/>
       <use x="63.623047" xlink:href="#DejaVuSans-48"/>
       <use x="127.246094" xlink:href="#DejaVuSans-48"/>
      </g>
     </g>
    </g>
    <g id="xtick_6">
     <g id="line2d_6">
      <g>
       <use style="stroke:#000000;stroke-width:0.8;" x="1340.152518" xlink:href="#ma458485552" y="496.2"/>
      </g>
     </g>
     <g id="text_6">
      <!-- 250 -->
      <g transform="translate(1311.521268 525.995312)scale(0.3 -0.3)">
       <use xlink:href="#DejaVuSans-50"/>
       <use x="63.623047" xlink:href="#DejaVuSans-53"/>
       <use x="127.246094" xlink:href="#DejaVuSans-48"/>
      </g>
     </g>
    </g>
    <g id="text_7">
     <!-- Bit Interaction -->
     <defs>
      <path d="M 19.671875 34.8125 
L 19.671875 8.109375 
L 35.5 8.109375 
Q 43.453125 8.109375 47.28125 11.40625 
Q 51.125 14.703125 51.125 21.484375 
Q 51.125 28.328125 47.28125 31.5625 
Q 43.453125 34.8125 35.5 34.8125 
z
M 19.671875 64.796875 
L 19.671875 42.828125 
L 34.28125 42.828125 
Q 41.5 42.828125 45.03125 45.53125 
Q 48.578125 48.25 48.578125 53.8125 
Q 48.578125 59.328125 45.03125 62.0625 
Q 41.5 64.796875 34.28125 64.796875 
z
M 9.8125 72.90625 
L 35.015625 72.90625 
Q 46.296875 72.90625 52.390625 68.21875 
Q 58.5 63.53125 58.5 54.890625 
Q 58.5 48.1875 55.375 44.234375 
Q 52.25 40.28125 46.1875 39.3125 
Q 53.46875 37.75 57.5 32.78125 
Q 61.53125 27.828125 61.53125 20.40625 
Q 61.53125 10.640625 54.890625 5.3125 
Q 48.25 0 35.984375 0 
L 9.8125 0 
z
" id="DejaVuSans-66"/>
      <path d="M 9.421875 54.6875 
L 18.40625 54.6875 
L 18.40625 0 
L 9.421875 0 
z
M 9.421875 75.984375 
L 18.40625 75.984375 
L 18.40625 64.59375 
L 9.421875 64.59375 
z
" id="DejaVuSans-105"/>
      <path d="M 18.3125 70.21875 
L 18.3125 54.6875 
L 36.8125 54.6875 
L 36.8125 47.703125 
L 18.3125 47.703125 
L 18.3125 18.015625 
Q 18.3125 11.328125 20.140625 9.421875 
Q 21.96875 7.515625 27.59375 7.515625 
L 36.8125 7.515625 
L 36.8125 0 
L 27.59375 0 
Q 17.1875 0 13.234375 3.875 
Q 9.28125 7.765625 9.28125 18.015625 
L 9.28125 47.703125 
L 2.6875 47.703125 
L 2.6875 54.6875 
L 9.28125 54.6875 
L 9.28125 70.21875 
z
" id="DejaVuSans-116"/>
      <path id="DejaVuSans-32"/>
      <path d="M 9.8125 72.90625 
L 19.671875 72.90625 
L 19.671875 0 
L 9.8125 0 
z
" id="DejaVuSans-73"/>
      <path d="M 54.890625 33.015625 
L 54.890625 0 
L 45.90625 0 
L 45.90625 32.71875 
Q 45.90625 40.484375 42.875 44.328125 
Q 39.84375 48.1875 33.796875 48.1875 
Q 26.515625 48.1875 22.3125 43.546875 
Q 18.109375 38.921875 18.109375 30.90625 
L 18.109375 0 
L 9.078125 0 
L 9.078125 54.6875 
L 18.109375 54.6875 
L 18.109375 46.1875 
Q 21.34375 51.125 25.703125 53.5625 
Q 30.078125 56 35.796875 56 
Q 45.21875 56 50.046875 50.171875 
Q 54.890625 44.34375 54.890625 33.015625 
z
" id="DejaVuSans-110"/>
      <path d="M 56.203125 29.59375 
L 56.203125 25.203125 
L 14.890625 25.203125 
Q 15.484375 15.921875 20.484375 11.0625 
Q 25.484375 6.203125 34.421875 6.203125 
Q 39.59375 6.203125 44.453125 7.46875 
Q 49.3125 8.734375 54.109375 11.28125 
L 54.109375 2.78125 
Q 49.265625 0.734375 44.1875 -0.34375 
Q 39.109375 -1.421875 33.890625 -1.421875 
Q 20.796875 -1.421875 13.15625 6.1875 
Q 5.515625 13.8125 5.515625 26.8125 
Q 5.515625 40.234375 12.765625 48.109375 
Q 20.015625 56 32.328125 56 
Q 43.359375 56 49.78125 48.890625 
Q 56.203125 41.796875 56.203125 29.59375 
z
M 47.21875 32.234375 
Q 47.125 39.59375 43.09375 43.984375 
Q 39.0625 48.390625 32.421875 48.390625 
Q 24.90625 48.390625 20.390625 44.140625 
Q 15.875 39.890625 15.1875 32.171875 
z
" id="DejaVuSans-101"/>
      <path d="M 41.109375 46.296875 
Q 39.59375 47.171875 37.8125 47.578125 
Q 36.03125 48 33.890625 48 
Q 26.265625 48 22.1875 43.046875 
Q 18.109375 38.09375 18.109375 28.8125 
L 18.109375 0 
L 9.078125 0 
L 9.078125 54.6875 
L 18.109375 54.6875 
L 18.109375 46.1875 
Q 20.953125 51.171875 25.484375 53.578125 
Q 30.03125 56 36.53125 56 
Q 37.453125 56 38.578125 55.875 
Q 39.703125 55.765625 41.0625 55.515625 
z
" id="DejaVuSans-114"/>
      <path d="M 34.28125 27.484375 
Q 23.390625 27.484375 19.1875 25 
Q 14.984375 22.515625 14.984375 16.5 
Q 14.984375 11.71875 18.140625 8.90625 
Q 21.296875 6.109375 26.703125 6.109375 
Q 34.1875 6.109375 38.703125 11.40625 
Q 43.21875 16.703125 43.21875 25.484375 
L 43.21875 27.484375 
z
M 52.203125 31.203125 
L 52.203125 0 
L 43.21875 0 
L 43.21875 8.296875 
Q 40.140625 3.328125 35.546875 0.953125 
Q 30.953125 -1.421875 24.3125 -1.421875 
Q 15.921875 -1.421875 10.953125 3.296875 
Q 6 8.015625 6 15.921875 
Q 6 25.140625 12.171875 29.828125 
Q 18.359375 34.515625 30.609375 34.515625 
L 43.21875 34.515625 
L 43.21875 35.40625 
Q 43.21875 41.609375 39.140625 45 
Q 35.0625 48.390625 27.6875 48.390625 
Q 23 48.390625 18.546875 47.265625 
Q 14.109375 46.140625 10.015625 43.890625 
L 10.015625 52.203125 
Q 14.9375 54.109375 19.578125 55.046875 
Q 24.21875 56 28.609375 56 
Q 40.484375 56 46.34375 49.84375 
Q 52.203125 43.703125 52.203125 31.203125 
z
" id="DejaVuSans-97"/>
      <path d="M 48.78125 52.59375 
L 48.78125 44.1875 
Q 44.96875 46.296875 41.140625 47.34375 
Q 37.3125 48.390625 33.40625 48.390625 
Q 24.65625 48.390625 19.8125 42.84375 
Q 14.984375 37.3125 14.984375 27.296875 
Q 14.984375 17.28125 19.8125 11.734375 
Q 24.65625 6.203125 33.40625 6.203125 
Q 37.3125 6.203125 41.140625 7.25 
Q 44.96875 8.296875 48.78125 10.40625 
L 48.78125 2.09375 
Q 45.015625 0.34375 40.984375 -0.53125 
Q 36.96875 -1.421875 32.421875 -1.421875 
Q 20.0625 -1.421875 12.78125 6.34375 
Q 5.515625 14.109375 5.515625 27.296875 
Q 5.515625 40.671875 12.859375 48.328125 
Q 20.21875 56 33.015625 56 
Q 37.15625 56 41.109375 55.140625 
Q 45.0625 54.296875 48.78125 52.59375 
z
" id="DejaVuSans-99"/>
      <path d="M 30.609375 48.390625 
Q 23.390625 48.390625 19.1875 42.75 
Q 14.984375 37.109375 14.984375 27.296875 
Q 14.984375 17.484375 19.15625 11.84375 
Q 23.34375 6.203125 30.609375 6.203125 
Q 37.796875 6.203125 41.984375 11.859375 
Q 46.1875 17.53125 46.1875 27.296875 
Q 46.1875 37.015625 41.984375 42.703125 
Q 37.796875 48.390625 30.609375 48.390625 
z
M 30.609375 56 
Q 42.328125 56 49.015625 48.375 
Q 55.71875 40.765625 55.71875 27.296875 
Q 55.71875 13.875 49.015625 6.21875 
Q 42.328125 -1.421875 30.609375 -1.421875 
Q 18.84375 -1.421875 12.171875 6.21875 
Q 5.515625 13.875 5.515625 27.296875 
Q 5.515625 40.765625 12.171875 48.375 
Q 18.84375 56 30.609375 56 
z
" id="DejaVuSans-111"/>
     </defs>
     <g transform="translate(655.639063 559.029688)scale(0.3 -0.3)">
      <use xlink:href="#DejaVuSans-66"/>
      <use x="68.603516" xlink:href="#DejaVuSans-105"/>
      <use x="96.386719" xlink:href="#DejaVuSans-116"/>
      <use x="135.595703" xlink:href="#DejaVuSans-32"/>
      <use x="167.382812" xlink:href="#DejaVuSans-73"/>
      <use x="196.875" xlink:href="#DejaVuSans-110"/>
      <use x="260.253906" xlink:href="#DejaVuSans-116"/>
      <use x="299.462891" xlink:href="#DejaVuSans-101"/>
      <use x="360.986328" xlink:href="#DejaVuSans-114"/>
      <use x="402.099609" xlink:href="#DejaVuSans-97"/>
      <use x="463.378906" xlink:href="#DejaVuSans-99"/>
      <use x="518.359375" xlink:href="#DejaVuSans-116"/>
      <use x="557.568359" xlink:href="#DejaVuSans-105"/>
      <use x="585.351562" xlink:href="#DejaVuSans-111"/>
      <use x="646.533203" xlink:href="#DejaVuSans-110"/>
     </g>
    </g>
   </g>
   <g id="matplotlib.axis_2">
    <g id="ytick_1">
     <g id="line2d_7">
      <defs>
       <path d="M 0 0 
L -3.5 0 
" id="m18d18a74a9" style="stroke:#000000;stroke-width:0.8;"/>
      </defs>
      <g>
       <use style="stroke:#000000;stroke-width:0.8;" x="95.05" xlink:href="#m18d18a74a9" y="441.642743"/>
      </g>
     </g>
     <g id="text_8">
      <!-- −5 -->
      <defs>
       <path d="M 10.59375 35.5 
L 73.1875 35.5 
L 73.1875 27.203125 
L 10.59375 27.203125 
z
" id="DejaVuSans-8722"/>
      </defs>
      <g transform="translate(43.823438 453.0404)scale(0.3 -0.3)">
       <use xlink:href="#DejaVuSans-8722"/>
       <use x="83.789062" xlink:href="#DejaVuSans-53"/>
      </g>
     </g>
    </g>
    <g id="ytick_2">
     <g id="line2d_8">
      <g>
       <use style="stroke:#000000;stroke-width:0.8;" x="95.05" xlink:href="#m18d18a74a9" y="372.128913"/>
      </g>
     </g>
     <g id="text_9">
      <!-- −4 -->
      <defs>
       <path d="M 37.796875 64.3125 
L 12.890625 25.390625 
L 37.796875 25.390625 
z
M 35.203125 72.90625 
L 47.609375 72.90625 
L 47.609375 25.390625 
L 58.015625 25.390625 
L 58.015625 17.1875 
L 47.609375 17.1875 
L 47.609375 0 
L 37.796875 0 
L 37.796875 17.1875 
L 4.890625 17.1875 
L 4.890625 26.703125 
z
" id="DejaVuSans-52"/>
      </defs>
      <g transform="translate(43.823438 383.526569)scale(0.3 -0.3)">
       <use xlink:href="#DejaVuSans-8722"/>
       <use x="83.789062" xlink:href="#DejaVuSans-52"/>
      </g>
     </g>
    </g>
    <g id="ytick_3">
     <g id="line2d_9">
      <g>
       <use style="stroke:#000000;stroke-width:0.8;" x="95.05" xlink:href="#m18d18a74a9" y="302.615082"/>
      </g>
     </g>
     <g id="text_10">
      <!-- −3 -->
      <defs>
       <path d="M 40.578125 39.3125 
Q 47.65625 37.796875 51.625 33 
Q 55.609375 28.21875 55.609375 21.1875 
Q 55.609375 10.40625 48.1875 4.484375 
Q 40.765625 -1.421875 27.09375 -1.421875 
Q 22.515625 -1.421875 17.65625 -0.515625 
Q 12.796875 0.390625 7.625 2.203125 
L 7.625 11.71875 
Q 11.71875 9.328125 16.59375 8.109375 
Q 21.484375 6.890625 26.8125 6.890625 
Q 36.078125 6.890625 40.9375 10.546875 
Q 45.796875 14.203125 45.796875 21.1875 
Q 45.796875 27.640625 41.28125 31.265625 
Q 36.765625 34.90625 28.71875 34.90625 
L 20.21875 34.90625 
L 20.21875 43.015625 
L 29.109375 43.015625 
Q 36.375 43.015625 40.234375 45.921875 
Q 44.09375 48.828125 44.09375 54.296875 
Q 44.09375 59.90625 40.109375 62.90625 
Q 36.140625 65.921875 28.71875 65.921875 
Q 24.65625 65.921875 20.015625 65.03125 
Q 15.375 64.15625 9.8125 62.3125 
L 9.8125 71.09375 
Q 15.4375 72.65625 20.34375 73.4375 
Q 25.25 74.21875 29.59375 74.21875 
Q 40.828125 74.21875 47.359375 69.109375 
Q 53.90625 64.015625 53.90625 55.328125 
Q 53.90625 49.265625 50.4375 45.09375 
Q 46.96875 40.921875 40.578125 39.3125 
z
" id="DejaVuSans-51"/>
      </defs>
      <g transform="translate(43.823438 314.012738)scale(0.3 -0.3)">
       <use xlink:href="#DejaVuSans-8722"/>
       <use x="83.789062" xlink:href="#DejaVuSans-51"/>
      </g>
     </g>
    </g>
    <g id="ytick_4">
     <g id="line2d_10">
      <g>
       <use style="stroke:#000000;stroke-width:0.8;" x="95.05" xlink:href="#m18d18a74a9" y="233.101251"/>
      </g>
     </g>
     <g id="text_11">
      <!-- −2 -->
      <g transform="translate(43.823438 244.498908)scale(0.3 -0.3)">
       <use xlink:href="#DejaVuSans-8722"/>
       <use x="83.789062" xlink:href="#DejaVuSans-50"/>
      </g>
     </g>
    </g>
    <g id="ytick_5">
     <g id="line2d_11">
      <g>
       <use style="stroke:#000000;stroke-width:0.8;" x="95.05" xlink:href="#m18d18a74a9" y="163.587421"/>
      </g>
     </g>
     <g id="text_12">
      <!-- −1 -->
      <g transform="translate(43.823438 174.985077)scale(0.3 -0.3)">
       <use xlink:href="#DejaVuSans-8722"/>
       <use x="83.789062" xlink:href="#DejaVuSans-49"/>
      </g>
     </g>
    </g>
    <g id="ytick_6">
     <g id="line2d_12">
      <g>
       <use style="stroke:#000000;stroke-width:0.8;" x="95.05" xlink:href="#m18d18a74a9" y="94.07359"/>
      </g>
     </g>
     <g id="text_13">
      <!-- 0 -->
      <g transform="translate(68.9625 105.471246)scale(0.3 -0.3)">
       <use xlink:href="#DejaVuSans-48"/>
      </g>
     </g>
    </g>
    <g id="ytick_7">
     <g id="line2d_13">
      <g>
       <use style="stroke:#000000;stroke-width:0.8;" x="95.05" xlink:href="#m18d18a74a9" y="24.55976"/>
      </g>
     </g>
     <g id="text_14">
      <!-- 1 -->
      <g transform="translate(68.9625 35.957416)scale(0.3 -0.3)">
       <use xlink:href="#DejaVuSans-49"/>
      </g>
     </g>
    </g>
    <g id="text_15">
     <!-- Weight Value -->
     <defs>
      <path d="M 3.328125 72.90625 
L 13.28125 72.90625 
L 28.609375 11.28125 
L 43.890625 72.90625 
L 54.984375 72.90625 
L 70.3125 11.28125 
L 85.59375 72.90625 
L 95.609375 72.90625 
L 77.296875 0 
L 64.890625 0 
L 49.515625 63.28125 
L 33.984375 0 
L 21.578125 0 
z
" id="DejaVuSans-87"/>
      <path d="M 45.40625 27.984375 
Q 45.40625 37.75 41.375 43.109375 
Q 37.359375 48.484375 30.078125 48.484375 
Q 22.859375 48.484375 18.828125 43.109375 
Q 14.796875 37.75 14.796875 27.984375 
Q 14.796875 18.265625 18.828125 12.890625 
Q 22.859375 7.515625 30.078125 7.515625 
Q 37.359375 7.515625 41.375 12.890625 
Q 45.40625 18.265625 45.40625 27.984375 
z
M 54.390625 6.78125 
Q 54.390625 -7.171875 48.1875 -13.984375 
Q 42 -20.796875 29.203125 -20.796875 
Q 24.46875 -20.796875 20.265625 -20.09375 
Q 16.0625 -19.390625 12.109375 -17.921875 
L 12.109375 -9.1875 
Q 16.0625 -11.328125 19.921875 -12.34375 
Q 23.78125 -13.375 27.78125 -13.375 
Q 36.625 -13.375 41.015625 -8.765625 
Q 45.40625 -4.15625 45.40625 5.171875 
L 45.40625 9.625 
Q 42.625 4.78125 38.28125 2.390625 
Q 33.9375 0 27.875 0 
Q 17.828125 0 11.671875 7.65625 
Q 5.515625 15.328125 5.515625 27.984375 
Q 5.515625 40.671875 11.671875 48.328125 
Q 17.828125 56 27.875 56 
Q 33.9375 56 38.28125 53.609375 
Q 42.625 51.21875 45.40625 46.390625 
L 45.40625 54.6875 
L 54.390625 54.6875 
z
" id="DejaVuSans-103"/>
      <path d="M 54.890625 33.015625 
L 54.890625 0 
L 45.90625 0 
L 45.90625 32.71875 
Q 45.90625 40.484375 42.875 44.328125 
Q 39.84375 48.1875 33.796875 48.1875 
Q 26.515625 48.1875 22.3125 43.546875 
Q 18.109375 38.921875 18.109375 30.90625 
L 18.109375 0 
L 9.078125 0 
L 9.078125 75.984375 
L 18.109375 75.984375 
L 18.109375 46.1875 
Q 21.34375 51.125 25.703125 53.5625 
Q 30.078125 56 35.796875 56 
Q 45.21875 56 50.046875 50.171875 
Q 54.890625 44.34375 54.890625 33.015625 
z
" id="DejaVuSans-104"/>
      <path d="M 28.609375 0 
L 0.78125 72.90625 
L 11.078125 72.90625 
L 34.1875 11.53125 
L 57.328125 72.90625 
L 67.578125 72.90625 
L 39.796875 0 
z
" id="DejaVuSans-86"/>
      <path d="M 9.421875 75.984375 
L 18.40625 75.984375 
L 18.40625 0 
L 9.421875 0 
z
" id="DejaVuSans-108"/>
      <path d="M 8.5 21.578125 
L 8.5 54.6875 
L 17.484375 54.6875 
L 17.484375 21.921875 
Q 17.484375 14.15625 20.5 10.265625 
Q 23.53125 6.390625 29.59375 6.390625 
Q 36.859375 6.390625 41.078125 11.03125 
Q 45.3125 15.671875 45.3125 23.6875 
L 45.3125 54.6875 
L 54.296875 54.6875 
L 54.296875 0 
L 45.3125 0 
L 45.3125 8.40625 
Q 42.046875 3.421875 37.71875 1 
Q 33.40625 -1.421875 27.6875 -1.421875 
Q 18.265625 -1.421875 13.375 4.4375 
Q 8.5 10.296875 8.5 21.578125 
z
M 31.109375 56 
z
" id="DejaVuSans-117"/>
     </defs>
     <g transform="translate(33.584375 353.732813)rotate(-90)scale(0.3 -0.3)">
      <use xlink:href="#DejaVuSans-87"/>
      <use x="98.798828" xlink:href="#DejaVuSans-101"/>
      <use x="160.322266" xlink:href="#DejaVuSans-105"/>
      <use x="188.105469" xlink:href="#DejaVuSans-103"/>
      <use x="251.582031" xlink:href="#DejaVuSans-104"/>
      <use x="314.960938" xlink:href="#DejaVuSans-116"/>
      <use x="354.169922" xlink:href="#DejaVuSans-32"/>
      <use x="385.957031" xlink:href="#DejaVuSans-86"/>
      <use x="454.255859" xlink:href="#DejaVuSans-97"/>
      <use x="515.535156" xlink:href="#DejaVuSans-108"/>
      <use x="543.318359" xlink:href="#DejaVuSans-117"/>
      <use x="606.697266" xlink:href="#DejaVuSans-101"/>
     </g>
    </g>
   </g>
   <g id="line2d_14">
    <path clip-path="url(#pdeb203e647)" d="M 156.639992 95.044654 
L 161.374042 89.392611 
L 166.108092 91.867864 
L 170.842142 101.918989 
L 175.576192 93.709403 
L 180.310242 73.561863 
L 185.044292 94.341873 
L 189.778343 84.470919 
L 194.512393 105.816976 
L 199.246443 97.01378 
L 203.980493 103.537049 
L 208.714543 98.409663 
L 213.448593 84.471232 
L 218.182643 106.761649 
L 222.916693 98.977915 
L 227.650743 90.148176 
L 232.384793 108.715695 
L 237.118844 79.981423 
L 241.852894 83.436453 
L 246.586944 83.119184 
L 251.320994 95.56699 
L 256.055044 84.745158 
L 260.789094 87.856593 
L 265.523144 64.622105 
L 270.257194 83.476709 
L 274.991244 70.860241 
L 279.725295 74.496157 
L 284.459345 98.336412 
L 289.193395 102.559428 
L 293.927445 90.782823 
L 298.661495 86.704573 
L 303.395545 83.295908 
L 308.129595 111.162723 
L 312.863645 116.659009 
L 317.597695 88.89635 
L 322.331745 79.297067 
L 327.065796 84.968056 
L 331.799846 114.368977 
L 336.533896 74.353835 
L 341.267946 74.55887 
L 346.001996 72.896982 
L 350.736046 87.702291 
L 355.470096 90.99115 
L 360.204146 86.460752 
L 364.938196 90.496022 
L 369.672246 87.095694 
L 374.406297 80.733858 
L 379.140347 92.114351 
L 383.874397 73.785604 
L 388.608447 86.536914 
L 393.342497 69.262208 
L 398.076547 73.079836 
L 402.810597 94.761502 
L 407.544647 107.701152 
L 412.278697 101.194966 
L 417.012747 63.940553 
L 421.746798 95.555467 
L 426.480848 93.954863 
L 431.214898 94.438402 
L 435.948948 74.5836 
L 440.682998 84.365331 
L 445.417048 90.181115 
L 450.151098 83.280264 
L 454.885148 88.110153 
L 459.619198 108.413817 
L 464.353249 108.86482 
L 469.087299 99.892303 
L 473.821349 81.254505 
L 478.555399 118.760782 
L 483.289449 110.507591 
L 488.023499 100.663355 
L 492.757549 94.22662 
L 497.491599 88.207908 
L 502.225649 79.498948 
L 506.959699 130.947408 
L 511.69375 101.511883 
L 516.4278 132.044931 
L 521.16185 83.756569 
L 525.8959 77.470804 
L 530.62995 117.97349 
L 535.364 97.73112 
L 540.09805 76.71875 
L 544.8321 104.498876 
L 549.56615 89.409576 
L 554.3002 72.936199 
L 559.034251 92.509811 
L 563.768301 89.56965 
L 568.502351 94.150179 
L 573.236401 113.534256 
L 577.970451 84.134033 
L 582.704501 105.386312 
L 587.438551 96.572937 
L 592.172601 123.43553 
L 596.906651 71.667481 
L 601.640702 92.639187 
L 606.374752 66.12495 
L 611.108802 98.315454 
L 615.842852 94.440863 
L 620.576902 95.503088 
L 625.310952 103.792644 
L 630.045002 91.0455 
L 634.779052 118.062926 
L 639.513102 106.435723 
L 644.247152 68.008205 
L 648.981203 108.209302 
L 653.715253 111.270255 
L 658.449303 99.507889 
L 663.183353 67.416912 
L 667.917403 100.04869 
L 672.651453 109.234542 
L 677.385503 104.204829 
L 682.119553 95.365336 
L 686.853603 105.022721 
L 691.587653 76.359074 
L 696.321704 99.658524 
L 701.055754 72.033747 
L 705.789804 119.587752 
L 710.523854 83.391967 
L 715.257904 78.624067 
L 719.991954 87.241161 
L 724.726004 113.515242 
L 729.460054 109.47031 
L 734.194104 107.666007 
L 738.928154 98.227168 
L 743.662205 82.41449 
L 748.396255 110.887675 
L 753.130305 102.293767 
L 757.864355 81.683593 
L 762.598405 109.874669 
L 767.332455 103.042518 
L 772.066505 80.269566 
L 776.800555 115.438634 
L 781.534605 123.616329 
L 786.268656 106.513026 
L 791.002706 102.771824 
L 795.736756 65.049188 
L 800.470806 88.698366 
L 805.204856 82.627779 
L 809.938906 94.575987 
L 814.672956 103.920393 
L 819.407006 119.493044 
L 824.141056 78.064127 
L 828.875106 101.466289 
L 833.609157 89.45345 
L 838.343207 90.492822 
L 843.077257 92.941395 
L 847.811307 111.296612 
L 852.545357 95.878266 
L 857.279407 98.472265 
L 862.013457 76.214316 
L 866.747507 96.120249 
L 871.481557 91.920646 
L 876.215607 59.448114 
L 880.949658 96.001827 
L 885.683708 91.771131 
L 890.417758 93.185426 
L 895.151808 91.602811 
L 899.885858 104.769212 
L 904.619908 72.235609 
L 909.353958 92.049707 
L 914.088008 80.706358 
L 918.822058 86.611152 
L 923.556109 101.22855 
L 928.290159 118.114397 
L 933.024209 57.316623 
L 937.758259 86.656063 
L 942.492309 103.693548 
L 947.226359 80.214204 
L 951.960409 102.424306 
L 956.694459 77.159014 
L 961.428509 126.281966 
L 966.162559 103.639136 
L 970.89661 82.440507 
L 975.63066 108.336114 
L 980.36471 79.16265 
L 985.09876 74.621567 
L 989.83281 77.986909 
L 994.56686 56.719865 
L 999.30091 55.297839 
L 1004.03496 97.418263 
L 1008.76901 95.915185 
L 1013.50306 111.738651 
L 1018.237111 102.828796 
L 1022.971161 95.965138 
L 1027.705211 102.172965 
L 1032.439261 88.434265 
L 1037.173311 105.435423 
L 1041.907361 118.217806 
L 1046.641411 105.991406 
L 1051.375461 114.660596 
L 1056.109511 83.784291 
L 1060.843561 78.798497 
L 1065.577612 87.647393 
L 1070.311662 87.100113 
L 1075.045712 85.892227 
L 1079.779762 88.593554 
L 1084.513812 85.654819 
L 1089.247862 76.41769 
L 1093.981912 88.001486 
L 1098.715962 104.419296 
L 1103.450012 85.218812 
L 1108.184063 116.366155 
L 1112.918113 70.786958 
L 1117.652163 98.178836 
L 1122.386213 107.170073 
L 1127.120263 103.967908 
L 1131.854313 108.222698 
L 1136.588363 111.611542 
L 1141.322413 94.496995 
L 1146.056463 70.576463 
L 1150.790513 113.426989 
L 1155.524564 72.701366 
L 1160.258614 85.262445 
L 1164.992664 107.792532 
L 1169.726714 77.415984 
L 1174.460764 97.519144 
L 1179.194814 99.833364 
L 1183.928864 111.722441 
L 1188.662914 75.251298 
L 1193.396964 86.20917 
L 1198.131014 60.831713 
L 1202.865065 92.371783 
L 1207.599115 103.518609 
L 1212.333165 104.703539 
L 1217.067215 99.334275 
L 1221.801265 92.032243 
L 1226.535315 117.221609 
L 1231.269365 101.153496 
L 1236.003415 90.004789 
L 1240.737465 99.639804 
L 1245.471516 96.564442 
L 1250.205566 72.223757 
L 1254.939616 88.479881 
L 1259.673666 122.923431 
L 1264.407716 77.189795 
L 1269.141766 112.32045 
L 1273.875816 118.742269 
L 1278.609866 74.206715 
L 1283.343916 100.388787 
L 1288.077966 96.617043 
L 1292.812017 100.72028 
L 1297.546067 95.726679 
L 1302.280117 88.897933 
L 1307.014167 130.93245 
L 1311.748217 77.261267 
L 1316.482267 115.237323 
L 1321.216317 110.819337 
L 1325.950367 64.469631 
L 1330.684417 89.419842 
L 1335.418467 87.242976 
L 1340.152518 92.463337 
L 1344.886568 112.230164 
L 1349.620618 73.643508 
L 1354.354668 83.523487 
L 1359.088718 111.528718 
L 1363.822768 82.12734 
L 1363.822768 82.12734 
" style="fill:none;stroke:#1f77b4;stroke-linecap:square;stroke-width:1.5;"/>
   </g>
   <g id="line2d_15">
    <path clip-path="url(#pdeb203e647)" d="M 156.639992 91.334132 
L 161.374042 71.701914 
L 166.108092 443.452392 
L 170.842142 107.14845 
L 175.576192 419.938863 
L 180.310242 112.946448 
L 185.044292 85.541553 
L 189.778343 474.136364 
L 194.512393 100.687874 
L 199.246443 467.838244 
L 203.980493 108.769074 
L 208.714543 46.659503 
L 213.448593 83.79565 
L 218.182643 85.421734 
L 222.916693 133.156939 
L 227.650743 80.852858 
L 232.384793 101.393499 
L 237.118844 98.906801 
L 241.852894 100.278114 
L 246.586944 94.873934 
L 251.320994 98.902582 
L 256.055044 106.721029 
L 260.789094 101.807281 
L 265.523144 62.998619 
L 270.257194 83.533593 
L 274.991244 98.137364 
L 279.725295 65.274462 
L 284.459345 88.516243 
L 289.193395 85.108797 
L 293.927445 94.329707 
L 298.661495 107.986308 
L 303.395545 112.433874 
L 308.129595 83.479971 
L 312.863645 97.899849 
L 317.597695 100.832355 
L 322.331745 97.482673 
L 327.065796 78.946253 
L 331.799846 453.744035 
L 336.533896 122.871191 
L 341.267946 77.202033 
L 346.001996 83.081477 
L 350.736046 89.674073 
L 355.470096 119.15759 
L 360.204146 114.740045 
L 364.938196 74.501761 
L 369.672246 82.008251 
L 374.406297 76.889085 
L 379.140347 116.160575 
L 383.874397 93.271624 
L 388.608447 108.625744 
L 393.342497 121.508094 
L 398.076547 81.097029 
L 402.810597 32.863636 
L 407.544647 69.83671 
L 412.278697 134.394113 
L 417.012747 120.616106 
L 421.746798 116.354079 
L 426.480848 73.105904 
L 431.214898 72.963932 
L 435.948948 61.2371 
L 440.682998 45.172278 
L 445.417048 116.829491 
L 450.151098 110.77548 
L 454.885148 107.702592 
L 459.619198 113.58714 
L 464.353249 93.657422 
L 469.087299 88.969255 
L 473.821349 88.004388 
L 478.555399 127.029904 
L 483.289449 84.562814 
L 488.023499 113.127323 
L 492.757549 73.798461 
L 497.491599 114.751538 
L 502.225649 89.528134 
L 506.959699 63.219159 
L 511.69375 92.455455 
L 516.4278 105.179365 
L 521.16185 92.984839 
L 525.8959 117.699528 
L 530.62995 105.297892 
L 535.364 103.24804 
L 540.09805 56.401602 
L 544.8321 128.610465 
L 549.56615 57.592802 
L 554.3002 79.442784 
L 559.034251 89.392241 
L 563.768301 109.601587 
L 568.502351 104.03641 
L 573.236401 117.9532 
L 577.970451 90.578318 
L 582.704501 88.702327 
L 587.438551 90.796306 
L 592.172601 96.87249 
L 596.906651 463.626747 
L 601.640702 108.085056 
L 606.374752 72.760324 
L 611.108802 109.453463 
L 615.842852 99.102422 
L 620.576902 61.890027 
L 625.310952 80.510596 
L 630.045002 121.160117 
L 634.779052 103.503371 
L 639.513102 91.979776 
L 644.247152 101.849541 
L 648.981203 101.648357 
L 653.715253 84.794206 
L 658.449303 64.552059 
L 663.183353 147.352502 
L 667.917403 97.022176 
L 672.651453 112.666792 
L 677.385503 140.525165 
L 682.119553 96.046379 
L 686.853603 92.544113 
L 691.587653 117.090153 
L 696.321704 94.750564 
L 701.055754 113.886544 
L 705.789804 96.917272 
L 710.523854 127.46381 
L 715.257904 108.141103 
L 719.991954 120.220988 
L 724.726004 84.823167 
L 729.460054 107.122712 
L 734.194104 54.483353 
L 738.928154 86.613577 
L 743.662205 42.747077 
L 748.396255 96.602044 
L 753.130305 98.266254 
L 757.864355 90.526432 
L 762.598405 84.797996 
L 767.332455 114.877405 
L 772.066505 122.105733 
L 776.800555 65.290317 
L 781.534605 91.740488 
L 786.268656 109.958805 
L 791.002706 114.41781 
L 795.736756 114.610836 
L 800.470806 83.014614 
L 805.204856 88.784455 
L 809.938906 110.467797 
L 814.672956 76.746468 
L 819.407006 115.660162 
L 824.141056 94.891965 
L 828.875106 104.666433 
L 833.609157 110.711646 
L 838.343207 81.488023 
L 843.077257 93.008855 
L 847.811307 76.37115 
L 852.545357 119.637928 
L 857.279407 71.326413 
L 862.013457 125.483404 
L 866.747507 80.478257 
L 871.481557 125.62797 
L 876.215607 84.056026 
L 880.949658 57.325987 
L 885.683708 87.643795 
L 890.417758 70.272194 
L 895.151808 89.28169 
L 899.885858 84.886189 
L 904.619908 78.903029 
L 909.353958 133.530184 
L 914.088008 100.946549 
L 918.822058 118.496977 
L 923.556109 113.409116 
L 928.290159 430.659062 
L 933.024209 71.714456 
L 937.758259 116.780125 
L 942.492309 108.622004 
L 947.226359 99.438012 
L 951.960409 86.596943 
L 956.694459 100.188204 
L 961.428509 113.262065 
L 966.162559 117.423943 
L 970.89661 78.654131 
L 975.63066 100.655251 
L 980.36471 127.360525 
L 985.09876 96.598538 
L 989.83281 93.854319 
L 994.56686 73.253376 
L 999.30091 107.484218 
L 1004.03496 84.20026 
L 1008.76901 112.499979 
L 1013.50306 138.389042 
L 1018.237111 103.772857 
L 1022.971161 59.635754 
L 1027.705211 123.647967 
L 1032.439261 94.664299 
L 1037.173311 112.7209 
L 1041.907361 104.452672 
L 1046.641411 108.723944 
L 1051.375461 58.853478 
L 1056.109511 105.224131 
L 1060.843561 93.316593 
L 1065.577612 118.360895 
L 1070.311662 111.562982 
L 1075.045712 89.179099 
L 1079.779762 101.692176 
L 1084.513812 98.147727 
L 1089.247862 72.24749 
L 1093.981912 92.53966 
L 1098.715962 136.830787 
L 1103.450012 82.176365 
L 1108.184063 129.093517 
L 1112.918113 73.863016 
L 1117.652163 77.222679 
L 1122.386213 87.748025 
L 1127.120263 140.402597 
L 1131.854313 102.886785 
L 1136.588363 95.097955 
L 1141.322413 117.550462 
L 1146.056463 91.184031 
L 1150.790513 97.902374 
L 1155.524564 90.452831 
L 1160.258614 99.912731 
L 1164.992664 88.410468 
L 1169.726714 115.503883 
L 1174.460764 110.363565 
L 1179.194814 57.186108 
L 1183.928864 89.238554 
L 1188.662914 71.284317 
L 1193.396964 458.648101 
L 1198.131014 72.965772 
L 1202.865065 131.317239 
L 1207.599115 85.03734 
L 1212.333165 115.891704 
L 1217.067215 98.456523 
L 1221.801265 129.976887 
L 1226.535315 83.885512 
L 1231.269365 72.264494 
L 1236.003415 96.150348 
L 1240.737465 84.362196 
L 1245.471516 111.421998 
L 1250.205566 76.064182 
L 1254.939616 73.182119 
L 1259.673666 105.034014 
L 1264.407716 101.638379 
L 1269.141766 77.862273 
L 1273.875816 100.456272 
L 1278.609866 63.23169 
L 1283.343916 107.410877 
L 1288.077966 54.76464 
L 1292.812017 94.64796 
L 1297.546067 89.67832 
L 1302.280117 98.725034 
L 1307.014167 90.736102 
L 1311.748217 83.540224 
L 1316.482267 70.372047 
L 1321.216317 81.566013 
L 1325.950367 445.489062 
L 1330.684417 129.73615 
L 1335.418467 65.741732 
L 1340.152518 100.061524 
L 1344.886568 91.452312 
L 1349.620618 74.683759 
L 1354.354668 76.920883 
L 1359.088718 68.478819 
L 1363.822768 416.416687 
L 1363.822768 416.416687 
" style="fill:none;stroke:#ff7f0e;stroke-linecap:square;stroke-width:1.5;"/>
   </g>
   <g id="line2d_16">
    <path clip-path="url(#pdeb203e647)" d="M 156.639992 93.411281 
L 161.374042 100.155333 
L 166.108092 92.155476 
L 170.842142 92.818951 
L 175.576192 108.763151 
L 180.310242 96.320678 
L 185.044292 93.293278 
L 189.778343 91.811576 
L 194.512393 102.733049 
L 199.246443 88.411832 
L 203.980493 64.751669 
L 208.714543 119.603922 
L 213.448593 83.534281 
L 218.182643 109.840521 
L 222.916693 105.750204 
L 227.650743 102.645298 
L 232.384793 100.307863 
L 237.118844 94.460801 
L 241.852894 101.051608 
L 246.586944 105.218221 
L 251.320994 92.069332 
L 256.055044 106.627447 
L 260.789094 92.937419 
L 265.523144 86.684987 
L 270.257194 83.414974 
L 274.991244 79.188081 
L 279.725295 104.359082 
L 284.459345 86.846225 
L 289.193395 116.243814 
L 293.927445 82.844147 
L 298.661495 118.491781 
L 303.395545 87.896149 
L 308.129595 108.857148 
L 312.863645 92.62539 
L 317.597695 91.777523 
L 322.331745 104.845424 
L 327.065796 73.991269 
L 331.799846 79.793602 
L 336.533896 78.422306 
L 341.267946 99.478034 
L 346.001996 92.932304 
L 350.736046 88.716855 
L 355.470096 94.025044 
L 360.204146 106.782671 
L 364.938196 86.572294 
L 369.672246 92.810044 
L 374.406297 94.531751 
L 379.140347 91.084988 
L 383.874397 88.575051 
L 388.608447 114.033239 
L 393.342497 85.091987 
L 398.076547 81.314989 
L 402.810597 111.403102 
L 407.544647 66.047903 
L 412.278697 91.19983 
L 417.012747 115.351636 
L 421.746798 93.629883 
L 426.480848 92.077515 
L 431.214898 76.760821 
L 435.948948 87.796351 
L 440.682998 96.510811 
L 445.417048 102.403123 
L 450.151098 90.235348 
L 454.885148 101.931889 
L 459.619198 111.052531 
L 464.353249 68.117882 
L 469.087299 92.253375 
L 478.555399 94.619829 
L 483.289449 111.487101 
L 488.023499 79.412034 
L 492.757549 90.344627 
L 497.491599 122.624132 
L 502.225649 98.829989 
L 506.959699 105.93109 
L 511.69375 85.355644 
L 516.4278 102.704286 
L 521.16185 81.703237 
L 525.8959 102.995804 
L 530.62995 113.092886 
L 535.364 75.363548 
L 540.09805 79.485608 
L 544.8321 77.136453 
L 549.56615 74.568077 
L 554.3002 68.456878 
L 559.034251 89.231454 
L 563.768301 84.448417 
L 568.502351 88.020575 
L 573.236401 80.327308 
L 577.970451 60.01267 
L 582.704501 105.87587 
L 587.438551 95.735805 
L 592.172601 105.247795 
L 596.906651 96.042523 
L 601.640702 90.685224 
L 606.374752 86.448912 
L 611.108802 86.51088 
L 615.842852 79.40989 
L 620.576902 85.54418 
L 625.310952 84.255846 
L 630.045002 96.753147 
L 634.779052 103.544901 
L 639.513102 111.672029 
L 644.247152 83.820601 
L 648.981203 110.634954 
L 653.715253 65.259148 
L 658.449303 84.934237 
L 663.183353 88.513451 
L 667.917403 110.259608 
L 672.651453 94.473165 
L 677.385503 94.254678 
L 682.119553 96.743047 
L 686.853603 80.874127 
L 691.587653 100.782871 
L 696.321704 94.181589 
L 701.055754 94.428559 
L 705.789804 102.02841 
L 710.523854 104.757883 
L 715.257904 71.816818 
L 719.991954 92.062943 
L 724.726004 111.457034 
L 729.460054 73.263372 
L 734.194104 98.394363 
L 738.928154 92.635691 
L 743.662205 101.323046 
L 748.396255 81.238901 
L 753.130305 77.923505 
L 757.864355 84.152898 
L 762.598405 78.772522 
L 767.332455 77.432424 
L 772.066505 88.857821 
L 776.800555 110.043524 
L 781.534605 86.924952 
L 786.268656 105.233863 
L 791.002706 100.246096 
L 795.736756 99.863325 
L 800.470806 86.466121 
L 805.204856 96.04193 
L 809.938906 92.703248 
L 814.672956 80.305909 
L 819.407006 70.280001 
L 824.141056 90.00995 
L 828.875106 94.000878 
L 833.609157 103.778954 
L 838.343207 59.297951 
L 843.077257 90.721517 
L 847.811307 92.76332 
L 852.545357 74.816255 
L 857.279407 103.33109 
L 862.013457 90.698943 
L 866.747507 81.306479 
L 871.481557 96.345269 
L 876.215607 88.618822 
L 880.949658 91.149123 
L 885.683708 92.189388 
L 890.417758 96.648876 
L 895.151808 104.696613 
L 899.885858 72.686295 
L 904.619908 80.841292 
L 909.353958 83.004433 
L 914.088008 114.608615 
L 918.822058 110.40628 
L 923.556109 103.42989 
L 928.290159 98.612965 
L 933.024209 115.896281 
L 937.758259 69.339658 
L 942.492309 101.139877 
L 947.226359 97.934707 
L 951.960409 108.673326 
L 956.694459 100.557639 
L 961.428509 85.314177 
L 966.162559 91.060416 
L 970.89661 88.738041 
L 975.63066 67.156066 
L 980.36471 69.502941 
L 985.09876 88.87192 
L 989.83281 82.707116 
L 994.56686 125.901839 
L 999.30091 99.323013 
L 1004.03496 88.011477 
L 1008.76901 119.817946 
L 1013.50306 82.93116 
L 1018.237111 107.662469 
L 1022.971161 118.693732 
L 1027.705211 123.773269 
L 1032.439261 104.842114 
L 1037.173311 119.031516 
L 1041.907361 92.562643 
L 1046.641411 90.860935 
L 1051.375461 70.588442 
L 1056.109511 76.514431 
L 1060.843561 88.23753 
L 1065.577612 98.274657 
L 1070.311662 87.499699 
L 1075.045712 102.866822 
L 1079.779762 112.814171 
L 1084.513812 91.945916 
L 1089.247862 105.073645 
L 1093.981912 86.670117 
L 1098.715962 103.416823 
L 1103.450012 86.436796 
L 1108.184063 100.337267 
L 1112.918113 75.895645 
L 1117.652163 106.591709 
L 1122.386213 102.070399 
L 1127.120263 124.842666 
L 1131.854313 78.277783 
L 1136.588363 95.741106 
L 1141.322413 79.109356 
L 1146.056463 70.41276 
L 1150.790513 99.261898 
L 1155.524564 77.628739 
L 1160.258614 124.764645 
L 1164.992664 81.887472 
L 1169.726714 80.463531 
L 1174.460764 101.924259 
L 1179.194814 87.274154 
L 1183.928864 63.187236 
L 1188.662914 92.825532 
L 1193.396964 96.011541 
L 1198.131014 125.414307 
L 1202.865065 79.380856 
L 1207.599115 115.187161 
L 1212.333165 94.786023 
L 1217.067215 100.267355 
L 1221.801265 109.793744 
L 1226.535315 103.804885 
L 1231.269365 105.035621 
L 1236.003415 112.803587 
L 1240.737465 111.061614 
L 1245.471516 110.208359 
L 1250.205566 100.324602 
L 1254.939616 81.418731 
L 1259.673666 114.490582 
L 1264.407716 66.646994 
L 1269.141766 82.907279 
L 1273.875816 88.165149 
L 1278.609866 102.463895 
L 1283.343916 69.626419 
L 1288.077966 69.171583 
L 1292.812017 106.338259 
L 1297.546067 81.520194 
L 1302.280117 97.822426 
L 1307.014167 96.472807 
L 1311.748217 100.280739 
L 1316.482267 85.427347 
L 1321.216317 101.012274 
L 1325.950367 81.12202 
L 1330.684417 104.146292 
L 1335.418467 93.018032 
L 1340.152518 76.392861 
L 1344.886568 115.792654 
L 1349.620618 99.328931 
L 1354.354668 50.601297 
L 1359.088718 68.668 
L 1363.822768 92.058701 
L 1363.822768 92.058701 
" style="fill:none;stroke:#2ca02c;stroke-linecap:square;stroke-width:1.5;"/>
   </g>
   <g id="patch_13">
    <path d="M 95.05 496.2 
L 95.05 10.8 
" style="fill:none;stroke:#000000;stroke-linecap:square;stroke-linejoin:miter;stroke-width:0.8;"/>
   </g>
   <g id="patch_14">
    <path d="M 1429.2 496.2 
L 1429.2 10.8 
" style="fill:none;stroke:#000000;stroke-linecap:square;stroke-linejoin:miter;stroke-width:0.8;"/>
   </g>
   <g id="patch_15">
    <path d="M 95.05 496.2 
L 1429.2 496.2 
" style="fill:none;stroke:#000000;stroke-linecap:square;stroke-linejoin:miter;stroke-width:0.8;"/>
   </g>
   <g id="patch_16">
    <path d="M 95.05 10.8 
L 1429.2 10.8 
" style="fill:none;stroke:#000000;stroke-linecap:square;stroke-linejoin:miter;stroke-width:0.8;"/>
   </g>
  </g>
 </g>
 <defs>
  <clipPath id="pdeb203e647">
   <rect height="485.4" width="1334.15" x="95.05" y="10.8"/>
  </clipPath>
 </defs>
</svg>
