<?xml version="1.0" encoding="utf-8" standalone="no"?>
<!DOCTYPE svg PUBLIC "-//W3C//DTD SVG 1.1//EN"
  "http://www.w3.org/Graphics/SVG/1.1/DTD/svg11.dtd">
<!-- Created with matplotlib (https://matplotlib.org/) -->
<svg height="576pt" version="1.1" viewBox="0 0 1440 576" width="1440pt" xmlns="http://www.w3.org/2000/svg" xmlns:xlink="http://www.w3.org/1999/xlink">
 <defs>
  <style type="text/css">
*{stroke-linecap:butt;stroke-linejoin:round;white-space:pre;}
  </style>
 </defs>
 <g id="figure_1">
  <g id="patch_1">
   <path d="M 0 576 
L 1440 576 
L 1440 0 
L 0 0 
z
" style="fill:#ffffff;"/>
  </g>
  <g id="axes_1">
   <g id="patch_2">
    <path d="M 123.8 496.2 
L 1429.2 496.2 
L 1429.2 10.8 
L 123.8 10.8 
z
" style="fill:#ffffff;"/>
   </g>
   <g id="patch_3">
    <path clip-path="url(#pa5931b990c)" d="M 183.136364 496.2 
L 183.136364 10.8 
L 184.062771 10.8 
L 184.062771 496.2 
z
" style="fill:#0000ff;"/>
   </g>
   <g id="patch_4">
    <path clip-path="url(#pa5931b990c)" d="M 187.768398 496.2 
L 187.768398 10.8 
L 188.694805 10.8 
L 188.694805 496.2 
z
" style="fill:#0000ff;"/>
   </g>
   <g id="patch_5">
    <path clip-path="url(#pa5931b990c)" d="M 224.824675 496.2 
L 224.824675 10.8 
L 225.751082 10.8 
L 225.751082 496.2 
z
" style="fill:#0000ff;"/>
   </g>
   <g id="patch_6">
    <path clip-path="url(#pa5931b990c)" d="M 354.521645 496.2 
L 354.521645 10.8 
L 355.448052 10.8 
L 355.448052 496.2 
z
" style="fill:#0000ff;"/>
   </g>
   <g id="patch_7">
    <path clip-path="url(#pa5931b990c)" d="M 613.915584 496.2 
L 613.915584 10.8 
L 614.841991 10.8 
L 614.841991 496.2 
z
" style="fill:#0000ff;"/>
   </g>
   <g id="patch_8">
    <path clip-path="url(#pa5931b990c)" d="M 938.158009 496.2 
L 938.158009 10.8 
L 939.084416 10.8 
L 939.084416 496.2 
z
" style="fill:#0000ff;"/>
   </g>
   <g id="patch_9">
    <path clip-path="url(#pa5931b990c)" d="M 1197.551948 496.2 
L 1197.551948 10.8 
L 1198.478355 10.8 
L 1198.478355 496.2 
z
" style="fill:#0000ff;"/>
   </g>
   <g id="patch_10">
    <path clip-path="url(#pa5931b990c)" d="M 1327.248918 496.2 
L 1327.248918 10.8 
L 1328.175325 10.8 
L 1328.175325 496.2 
z
" style="fill:#0000ff;"/>
   </g>
   <g id="patch_11">
    <path clip-path="url(#pa5931b990c)" d="M 1364.305195 496.2 
L 1364.305195 10.8 
L 1365.231602 10.8 
L 1365.231602 496.2 
z
" style="fill:#0000ff;"/>
   </g>
   <g id="patch_12">
    <path clip-path="url(#pa5931b990c)" d="M 1368.937229 496.2 
L 1368.937229 10.8 
L 1369.863636 10.8 
L 1369.863636 496.2 
z
" style="fill:#0000ff;"/>
   </g>
   <g id="matplotlib.axis_1">
    <g id="xtick_1">
     <g id="line2d_1">
      <defs>
       <path d="M 0 0 
L 0 3.5 
" id="ma8a71d1fb4" style="stroke:#000000;stroke-width:0.8;"/>
      </defs>
      <g>
       <use style="stroke:#000000;stroke-width:0.8;" x="184.062771" xlink:href="#ma8a71d1fb4" y="496.2"/>
      </g>
     </g>
     <g id="text_1">
      <!-- 0 -->
      <defs>
       <path d="M 31.78125 66.40625 
Q 24.171875 66.40625 20.328125 58.90625 
Q 16.5 51.421875 16.5 36.375 
Q 16.5 21.390625 20.328125 13.890625 
Q 24.171875 6.390625 31.78125 6.390625 
Q 39.453125 6.390625 43.28125 13.890625 
Q 47.125 21.390625 47.125 36.375 
Q 47.125 51.421875 43.28125 58.90625 
Q 39.453125 66.40625 31.78125 66.40625 
z
M 31.78125 74.21875 
Q 44.046875 74.21875 50.515625 64.515625 
Q 56.984375 54.828125 56.984375 36.375 
Q 56.984375 17.96875 50.515625 8.265625 
Q 44.046875 -1.421875 31.78125 -1.421875 
Q 19.53125 -1.421875 13.0625 8.265625 
Q 6.59375 17.96875 6.59375 36.375 
Q 6.59375 54.828125 13.0625 64.515625 
Q 19.53125 74.21875 31.78125 74.21875 
z
" id="DejaVuSans-48"/>
      </defs>
      <g transform="translate(174.519021 525.995312)scale(0.3 -0.3)">
       <use xlink:href="#DejaVuSans-48"/>
      </g>
     </g>
    </g>
    <g id="xtick_2">
     <g id="line2d_2">
      <g>
       <use style="stroke:#000000;stroke-width:0.8;" x="415.664502" xlink:href="#ma8a71d1fb4" y="496.2"/>
      </g>
     </g>
     <g id="text_2">
      <!-- 50 -->
      <defs>
       <path d="M 10.796875 72.90625 
L 49.515625 72.90625 
L 49.515625 64.59375 
L 19.828125 64.59375 
L 19.828125 46.734375 
Q 21.96875 47.46875 24.109375 47.828125 
Q 26.265625 48.1875 28.421875 48.1875 
Q 40.625 48.1875 47.75 41.5 
Q 54.890625 34.8125 54.890625 23.390625 
Q 54.890625 11.625 47.5625 5.09375 
Q 40.234375 -1.421875 26.90625 -1.421875 
Q 22.3125 -1.421875 17.546875 -0.640625 
Q 12.796875 0.140625 7.71875 1.703125 
L 7.71875 11.625 
Q 12.109375 9.234375 16.796875 8.0625 
Q 21.484375 6.890625 26.703125 6.890625 
Q 35.15625 6.890625 40.078125 11.328125 
Q 45.015625 15.765625 45.015625 23.390625 
Q 45.015625 31 40.078125 35.4375 
Q 35.15625 39.890625 26.703125 39.890625 
Q 22.75 39.890625 18.8125 39.015625 
Q 14.890625 38.140625 10.796875 36.28125 
z
" id="DejaVuSans-53"/>
      </defs>
      <g transform="translate(396.577002 525.995312)scale(0.3 -0.3)">
       <use xlink:href="#DejaVuSans-53"/>
       <use x="63.623047" xlink:href="#DejaVuSans-48"/>
      </g>
     </g>
    </g>
    <g id="xtick_3">
     <g id="line2d_3">
      <g>
       <use style="stroke:#000000;stroke-width:0.8;" x="647.266234" xlink:href="#ma8a71d1fb4" y="496.2"/>
      </g>
     </g>
     <g id="text_3">
      <!-- 100 -->
      <defs>
       <path d="M 12.40625 8.296875 
L 28.515625 8.296875 
L 28.515625 63.921875 
L 10.984375 60.40625 
L 10.984375 69.390625 
L 28.421875 72.90625 
L 38.28125 72.90625 
L 38.28125 8.296875 
L 54.390625 8.296875 
L 54.390625 0 
L 12.40625 0 
z
" id="DejaVuSans-49"/>
      </defs>
      <g transform="translate(618.634984 525.995312)scale(0.3 -0.3)">
       <use xlink:href="#DejaVuSans-49"/>
       <use x="63.623047" xlink:href="#DejaVuSans-48"/>
       <use x="127.246094" xlink:href="#DejaVuSans-48"/>
      </g>
     </g>
    </g>
    <g id="xtick_4">
     <g id="line2d_4">
      <g>
       <use style="stroke:#000000;stroke-width:0.8;" x="878.867965" xlink:href="#ma8a71d1fb4" y="496.2"/>
      </g>
     </g>
     <g id="text_4">
      <!-- 150 -->
      <g transform="translate(850.236715 525.995312)scale(0.3 -0.3)">
       <use xlink:href="#DejaVuSans-49"/>
       <use x="63.623047" xlink:href="#DejaVuSans-53"/>
       <use x="127.246094" xlink:href="#DejaVuSans-48"/>
      </g>
     </g>
    </g>
    <g id="xtick_5">
     <g id="line2d_5">
      <g>
       <use style="stroke:#000000;stroke-width:0.8;" x="1110.469697" xlink:href="#ma8a71d1fb4" y="496.2"/>
      </g>
     </g>
     <g id="text_5">
      <!-- 200 -->
      <defs>
       <path d="M 19.1875 8.296875 
L 53.609375 8.296875 
L 53.609375 0 
L 7.328125 0 
L 7.328125 8.296875 
Q 12.9375 14.109375 22.625 23.890625 
Q 32.328125 33.6875 34.8125 36.53125 
Q 39.546875 41.84375 41.421875 45.53125 
Q 43.3125 49.21875 43.3125 52.78125 
Q 43.3125 58.59375 39.234375 62.25 
Q 35.15625 65.921875 28.609375 65.921875 
Q 23.96875 65.921875 18.8125 64.3125 
Q 13.671875 62.703125 7.8125 59.421875 
L 7.8125 69.390625 
Q 13.765625 71.78125 18.9375 73 
Q 24.125 74.21875 28.421875 74.21875 
Q 39.75 74.21875 46.484375 68.546875 
Q 53.21875 62.890625 53.21875 53.421875 
Q 53.21875 48.921875 51.53125 44.890625 
Q 49.859375 40.875 45.40625 35.40625 
Q 44.1875 33.984375 37.640625 27.21875 
Q 31.109375 20.453125 19.1875 8.296875 
z
" id="DejaVuSans-50"/>
      </defs>
      <g transform="translate(1081.838447 525.995312)scale(0.3 -0.3)">
       <use xlink:href="#DejaVuSans-50"/>
       <use x="63.623047" xlink:href="#DejaVuSans-48"/>
       <use x="127.246094" xlink:href="#DejaVuSans-48"/>
      </g>
     </g>
    </g>
    <g id="xtick_6">
     <g id="line2d_6">
      <g>
       <use style="stroke:#000000;stroke-width:0.8;" x="1342.071429" xlink:href="#ma8a71d1fb4" y="496.2"/>
      </g>
     </g>
     <g id="text_6">
      <!-- 250 -->
      <g transform="translate(1313.440179 525.995312)scale(0.3 -0.3)">
       <use xlink:href="#DejaVuSans-50"/>
       <use x="63.623047" xlink:href="#DejaVuSans-53"/>
       <use x="127.246094" xlink:href="#DejaVuSans-48"/>
      </g>
     </g>
    </g>
    <g id="text_7">
     <!-- Bit Interaction -->
     <defs>
      <path d="M 19.671875 34.8125 
L 19.671875 8.109375 
L 35.5 8.109375 
Q 43.453125 8.109375 47.28125 11.40625 
Q 51.125 14.703125 51.125 21.484375 
Q 51.125 28.328125 47.28125 31.5625 
Q 43.453125 34.8125 35.5 34.8125 
z
M 19.671875 64.796875 
L 19.671875 42.828125 
L 34.28125 42.828125 
Q 41.5 42.828125 45.03125 45.53125 
Q 48.578125 48.25 48.578125 53.8125 
Q 48.578125 59.328125 45.03125 62.0625 
Q 41.5 64.796875 34.28125 64.796875 
z
M 9.8125 72.90625 
L 35.015625 72.90625 
Q 46.296875 72.90625 52.390625 68.21875 
Q 58.5 63.53125 58.5 54.890625 
Q 58.5 48.1875 55.375 44.234375 
Q 52.25 40.28125 46.1875 39.3125 
Q 53.46875 37.75 57.5 32.78125 
Q 61.53125 27.828125 61.53125 20.40625 
Q 61.53125 10.640625 54.890625 5.3125 
Q 48.25 0 35.984375 0 
L 9.8125 0 
z
" id="DejaVuSans-66"/>
      <path d="M 9.421875 54.6875 
L 18.40625 54.6875 
L 18.40625 0 
L 9.421875 0 
z
M 9.421875 75.984375 
L 18.40625 75.984375 
L 18.40625 64.59375 
L 9.421875 64.59375 
z
" id="DejaVuSans-105"/>
      <path d="M 18.3125 70.21875 
L 18.3125 54.6875 
L 36.8125 54.6875 
L 36.8125 47.703125 
L 18.3125 47.703125 
L 18.3125 18.015625 
Q 18.3125 11.328125 20.140625 9.421875 
Q 21.96875 7.515625 27.59375 7.515625 
L 36.8125 7.515625 
L 36.8125 0 
L 27.59375 0 
Q 17.1875 0 13.234375 3.875 
Q 9.28125 7.765625 9.28125 18.015625 
L 9.28125 47.703125 
L 2.6875 47.703125 
L 2.6875 54.6875 
L 9.28125 54.6875 
L 9.28125 70.21875 
z
" id="DejaVuSans-116"/>
      <path id="DejaVuSans-32"/>
      <path d="M 9.8125 72.90625 
L 19.671875 72.90625 
L 19.671875 0 
L 9.8125 0 
z
" id="DejaVuSans-73"/>
      <path d="M 54.890625 33.015625 
L 54.890625 0 
L 45.90625 0 
L 45.90625 32.71875 
Q 45.90625 40.484375 42.875 44.328125 
Q 39.84375 48.1875 33.796875 48.1875 
Q 26.515625 48.1875 22.3125 43.546875 
Q 18.109375 38.921875 18.109375 30.90625 
L 18.109375 0 
L 9.078125 0 
L 9.078125 54.6875 
L 18.109375 54.6875 
L 18.109375 46.1875 
Q 21.34375 51.125 25.703125 53.5625 
Q 30.078125 56 35.796875 56 
Q 45.21875 56 50.046875 50.171875 
Q 54.890625 44.34375 54.890625 33.015625 
z
" id="DejaVuSans-110"/>
      <path d="M 56.203125 29.59375 
L 56.203125 25.203125 
L 14.890625 25.203125 
Q 15.484375 15.921875 20.484375 11.0625 
Q 25.484375 6.203125 34.421875 6.203125 
Q 39.59375 6.203125 44.453125 7.46875 
Q 49.3125 8.734375 54.109375 11.28125 
L 54.109375 2.78125 
Q 49.265625 0.734375 44.1875 -0.34375 
Q 39.109375 -1.421875 33.890625 -1.421875 
Q 20.796875 -1.421875 13.15625 6.1875 
Q 5.515625 13.8125 5.515625 26.8125 
Q 5.515625 40.234375 12.765625 48.109375 
Q 20.015625 56 32.328125 56 
Q 43.359375 56 49.78125 48.890625 
Q 56.203125 41.796875 56.203125 29.59375 
z
M 47.21875 32.234375 
Q 47.125 39.59375 43.09375 43.984375 
Q 39.0625 48.390625 32.421875 48.390625 
Q 24.90625 48.390625 20.390625 44.140625 
Q 15.875 39.890625 15.1875 32.171875 
z
" id="DejaVuSans-101"/>
      <path d="M 41.109375 46.296875 
Q 39.59375 47.171875 37.8125 47.578125 
Q 36.03125 48 33.890625 48 
Q 26.265625 48 22.1875 43.046875 
Q 18.109375 38.09375 18.109375 28.8125 
L 18.109375 0 
L 9.078125 0 
L 9.078125 54.6875 
L 18.109375 54.6875 
L 18.109375 46.1875 
Q 20.953125 51.171875 25.484375 53.578125 
Q 30.03125 56 36.53125 56 
Q 37.453125 56 38.578125 55.875 
Q 39.703125 55.765625 41.0625 55.515625 
z
" id="DejaVuSans-114"/>
      <path d="M 34.28125 27.484375 
Q 23.390625 27.484375 19.1875 25 
Q 14.984375 22.515625 14.984375 16.5 
Q 14.984375 11.71875 18.140625 8.90625 
Q 21.296875 6.109375 26.703125 6.109375 
Q 34.1875 6.109375 38.703125 11.40625 
Q 43.21875 16.703125 43.21875 25.484375 
L 43.21875 27.484375 
z
M 52.203125 31.203125 
L 52.203125 0 
L 43.21875 0 
L 43.21875 8.296875 
Q 40.140625 3.328125 35.546875 0.953125 
Q 30.953125 -1.421875 24.3125 -1.421875 
Q 15.921875 -1.421875 10.953125 3.296875 
Q 6 8.015625 6 15.921875 
Q 6 25.140625 12.171875 29.828125 
Q 18.359375 34.515625 30.609375 34.515625 
L 43.21875 34.515625 
L 43.21875 35.40625 
Q 43.21875 41.609375 39.140625 45 
Q 35.0625 48.390625 27.6875 48.390625 
Q 23 48.390625 18.546875 47.265625 
Q 14.109375 46.140625 10.015625 43.890625 
L 10.015625 52.203125 
Q 14.9375 54.109375 19.578125 55.046875 
Q 24.21875 56 28.609375 56 
Q 40.484375 56 46.34375 49.84375 
Q 52.203125 43.703125 52.203125 31.203125 
z
" id="DejaVuSans-97"/>
      <path d="M 48.78125 52.59375 
L 48.78125 44.1875 
Q 44.96875 46.296875 41.140625 47.34375 
Q 37.3125 48.390625 33.40625 48.390625 
Q 24.65625 48.390625 19.8125 42.84375 
Q 14.984375 37.3125 14.984375 27.296875 
Q 14.984375 17.28125 19.8125 11.734375 
Q 24.65625 6.203125 33.40625 6.203125 
Q 37.3125 6.203125 41.140625 7.25 
Q 44.96875 8.296875 48.78125 10.40625 
L 48.78125 2.09375 
Q 45.015625 0.34375 40.984375 -0.53125 
Q 36.96875 -1.421875 32.421875 -1.421875 
Q 20.0625 -1.421875 12.78125 6.34375 
Q 5.515625 14.109375 5.515625 27.296875 
Q 5.515625 40.671875 12.859375 48.328125 
Q 20.21875 56 33.015625 56 
Q 37.15625 56 41.109375 55.140625 
Q 45.0625 54.296875 48.78125 52.59375 
z
" id="DejaVuSans-99"/>
      <path d="M 30.609375 48.390625 
Q 23.390625 48.390625 19.1875 42.75 
Q 14.984375 37.109375 14.984375 27.296875 
Q 14.984375 17.484375 19.15625 11.84375 
Q 23.34375 6.203125 30.609375 6.203125 
Q 37.796875 6.203125 41.984375 11.859375 
Q 46.1875 17.53125 46.1875 27.296875 
Q 46.1875 37.015625 41.984375 42.703125 
Q 37.796875 48.390625 30.609375 48.390625 
z
M 30.609375 56 
Q 42.328125 56 49.015625 48.375 
Q 55.71875 40.765625 55.71875 27.296875 
Q 55.71875 13.875 49.015625 6.21875 
Q 42.328125 -1.421875 30.609375 -1.421875 
Q 18.84375 -1.421875 12.171875 6.21875 
Q 5.515625 13.875 5.515625 27.296875 
Q 5.515625 40.765625 12.171875 48.375 
Q 18.84375 56 30.609375 56 
z
" id="DejaVuSans-111"/>
     </defs>
     <g transform="translate(670.014063 559.029688)scale(0.3 -0.3)">
      <use xlink:href="#DejaVuSans-66"/>
      <use x="68.603516" xlink:href="#DejaVuSans-105"/>
      <use x="96.386719" xlink:href="#DejaVuSans-116"/>
      <use x="135.595703" xlink:href="#DejaVuSans-32"/>
      <use x="167.382812" xlink:href="#DejaVuSans-73"/>
      <use x="196.875" xlink:href="#DejaVuSans-110"/>
      <use x="260.253906" xlink:href="#DejaVuSans-116"/>
      <use x="299.462891" xlink:href="#DejaVuSans-101"/>
      <use x="360.986328" xlink:href="#DejaVuSans-114"/>
      <use x="402.099609" xlink:href="#DejaVuSans-97"/>
      <use x="463.378906" xlink:href="#DejaVuSans-99"/>
      <use x="518.359375" xlink:href="#DejaVuSans-116"/>
      <use x="557.568359" xlink:href="#DejaVuSans-105"/>
      <use x="585.351562" xlink:href="#DejaVuSans-111"/>
      <use x="646.533203" xlink:href="#DejaVuSans-110"/>
     </g>
    </g>
   </g>
   <g id="matplotlib.axis_2">
    <g id="ytick_1">
     <g id="line2d_7">
      <defs>
       <path d="M 0 0 
L -3.5 0 
" id="mff24be6f1a" style="stroke:#000000;stroke-width:0.8;"/>
      </defs>
      <g>
       <use style="stroke:#000000;stroke-width:0.8;" x="123.8" xlink:href="#mff24be6f1a" y="477.518847"/>
      </g>
     </g>
     <g id="text_8">
      <!-- −0.8 -->
      <defs>
       <path d="M 10.59375 35.5 
L 73.1875 35.5 
L 73.1875 27.203125 
L 10.59375 27.203125 
z
" id="DejaVuSans-8722"/>
       <path d="M 10.6875 12.40625 
L 21 12.40625 
L 21 0 
L 10.6875 0 
z
" id="DejaVuSans-46"/>
       <path d="M 31.78125 34.625 
Q 24.75 34.625 20.71875 30.859375 
Q 16.703125 27.09375 16.703125 20.515625 
Q 16.703125 13.921875 20.71875 10.15625 
Q 24.75 6.390625 31.78125 6.390625 
Q 38.8125 6.390625 42.859375 10.171875 
Q 46.921875 13.96875 46.921875 20.515625 
Q 46.921875 27.09375 42.890625 30.859375 
Q 38.875 34.625 31.78125 34.625 
z
M 21.921875 38.8125 
Q 15.578125 40.375 12.03125 44.71875 
Q 8.5 49.078125 8.5 55.328125 
Q 8.5 64.0625 14.71875 69.140625 
Q 20.953125 74.21875 31.78125 74.21875 
Q 42.671875 74.21875 48.875 69.140625 
Q 55.078125 64.0625 55.078125 55.328125 
Q 55.078125 49.078125 51.53125 44.71875 
Q 48 40.375 41.703125 38.8125 
Q 48.828125 37.15625 52.796875 32.3125 
Q 56.78125 27.484375 56.78125 20.515625 
Q 56.78125 9.90625 50.3125 4.234375 
Q 43.84375 -1.421875 31.78125 -1.421875 
Q 19.734375 -1.421875 13.25 4.234375 
Q 6.78125 9.90625 6.78125 20.515625 
Q 6.78125 27.484375 10.78125 32.3125 
Q 14.796875 37.15625 21.921875 38.8125 
z
M 18.3125 54.390625 
Q 18.3125 48.734375 21.84375 45.5625 
Q 25.390625 42.390625 31.78125 42.390625 
Q 38.140625 42.390625 41.71875 45.5625 
Q 45.3125 48.734375 45.3125 54.390625 
Q 45.3125 60.0625 41.71875 63.234375 
Q 38.140625 66.40625 31.78125 66.40625 
Q 25.390625 66.40625 21.84375 63.234375 
Q 18.3125 60.0625 18.3125 54.390625 
z
" id="DejaVuSans-56"/>
      </defs>
      <g transform="translate(43.951563 488.916503)scale(0.3 -0.3)">
       <use xlink:href="#DejaVuSans-8722"/>
       <use x="83.789062" xlink:href="#DejaVuSans-48"/>
       <use x="147.412109" xlink:href="#DejaVuSans-46"/>
       <use x="179.199219" xlink:href="#DejaVuSans-56"/>
      </g>
     </g>
    </g>
    <g id="ytick_2">
     <g id="line2d_8">
      <g>
       <use style="stroke:#000000;stroke-width:0.8;" x="123.8" xlink:href="#mff24be6f1a" y="417.489529"/>
      </g>
     </g>
     <g id="text_9">
      <!-- −0.6 -->
      <defs>
       <path d="M 33.015625 40.375 
Q 26.375 40.375 22.484375 35.828125 
Q 18.609375 31.296875 18.609375 23.390625 
Q 18.609375 15.53125 22.484375 10.953125 
Q 26.375 6.390625 33.015625 6.390625 
Q 39.65625 6.390625 43.53125 10.953125 
Q 47.40625 15.53125 47.40625 23.390625 
Q 47.40625 31.296875 43.53125 35.828125 
Q 39.65625 40.375 33.015625 40.375 
z
M 52.59375 71.296875 
L 52.59375 62.3125 
Q 48.875 64.0625 45.09375 64.984375 
Q 41.3125 65.921875 37.59375 65.921875 
Q 27.828125 65.921875 22.671875 59.328125 
Q 17.53125 52.734375 16.796875 39.40625 
Q 19.671875 43.65625 24.015625 45.921875 
Q 28.375 48.1875 33.59375 48.1875 
Q 44.578125 48.1875 50.953125 41.515625 
Q 57.328125 34.859375 57.328125 23.390625 
Q 57.328125 12.15625 50.6875 5.359375 
Q 44.046875 -1.421875 33.015625 -1.421875 
Q 20.359375 -1.421875 13.671875 8.265625 
Q 6.984375 17.96875 6.984375 36.375 
Q 6.984375 53.65625 15.1875 63.9375 
Q 23.390625 74.21875 37.203125 74.21875 
Q 40.921875 74.21875 44.703125 73.484375 
Q 48.484375 72.75 52.59375 71.296875 
z
" id="DejaVuSans-54"/>
      </defs>
      <g transform="translate(43.951563 428.887185)scale(0.3 -0.3)">
       <use xlink:href="#DejaVuSans-8722"/>
       <use x="83.789062" xlink:href="#DejaVuSans-48"/>
       <use x="147.412109" xlink:href="#DejaVuSans-46"/>
       <use x="179.199219" xlink:href="#DejaVuSans-54"/>
      </g>
     </g>
    </g>
    <g id="ytick_3">
     <g id="line2d_9">
      <g>
       <use style="stroke:#000000;stroke-width:0.8;" x="123.8" xlink:href="#mff24be6f1a" y="357.460211"/>
      </g>
     </g>
     <g id="text_10">
      <!-- −0.4 -->
      <defs>
       <path d="M 37.796875 64.3125 
L 12.890625 25.390625 
L 37.796875 25.390625 
z
M 35.203125 72.90625 
L 47.609375 72.90625 
L 47.609375 25.390625 
L 58.015625 25.390625 
L 58.015625 17.1875 
L 47.609375 17.1875 
L 47.609375 0 
L 37.796875 0 
L 37.796875 17.1875 
L 4.890625 17.1875 
L 4.890625 26.703125 
z
" id="DejaVuSans-52"/>
      </defs>
      <g transform="translate(43.951563 368.857867)scale(0.3 -0.3)">
       <use xlink:href="#DejaVuSans-8722"/>
       <use x="83.789062" xlink:href="#DejaVuSans-48"/>
       <use x="147.412109" xlink:href="#DejaVuSans-46"/>
       <use x="179.199219" xlink:href="#DejaVuSans-52"/>
      </g>
     </g>
    </g>
    <g id="ytick_4">
     <g id="line2d_10">
      <g>
       <use style="stroke:#000000;stroke-width:0.8;" x="123.8" xlink:href="#mff24be6f1a" y="297.430893"/>
      </g>
     </g>
     <g id="text_11">
      <!-- −0.2 -->
      <g transform="translate(43.951563 308.828549)scale(0.3 -0.3)">
       <use xlink:href="#DejaVuSans-8722"/>
       <use x="83.789062" xlink:href="#DejaVuSans-48"/>
       <use x="147.412109" xlink:href="#DejaVuSans-46"/>
       <use x="179.199219" xlink:href="#DejaVuSans-50"/>
      </g>
     </g>
    </g>
    <g id="ytick_5">
     <g id="line2d_11">
      <g>
       <use style="stroke:#000000;stroke-width:0.8;" x="123.8" xlink:href="#mff24be6f1a" y="237.401575"/>
      </g>
     </g>
     <g id="text_12">
      <!-- 0.0 -->
      <g transform="translate(69.090625 248.799231)scale(0.3 -0.3)">
       <use xlink:href="#DejaVuSans-48"/>
       <use x="63.623047" xlink:href="#DejaVuSans-46"/>
       <use x="95.410156" xlink:href="#DejaVuSans-48"/>
      </g>
     </g>
    </g>
    <g id="ytick_6">
     <g id="line2d_12">
      <g>
       <use style="stroke:#000000;stroke-width:0.8;" x="123.8" xlink:href="#mff24be6f1a" y="177.372257"/>
      </g>
     </g>
     <g id="text_13">
      <!-- 0.2 -->
      <g transform="translate(69.090625 188.769913)scale(0.3 -0.3)">
       <use xlink:href="#DejaVuSans-48"/>
       <use x="63.623047" xlink:href="#DejaVuSans-46"/>
       <use x="95.410156" xlink:href="#DejaVuSans-50"/>
      </g>
     </g>
    </g>
    <g id="ytick_7">
     <g id="line2d_13">
      <g>
       <use style="stroke:#000000;stroke-width:0.8;" x="123.8" xlink:href="#mff24be6f1a" y="117.342938"/>
      </g>
     </g>
     <g id="text_14">
      <!-- 0.4 -->
      <g transform="translate(69.090625 128.740595)scale(0.3 -0.3)">
       <use xlink:href="#DejaVuSans-48"/>
       <use x="63.623047" xlink:href="#DejaVuSans-46"/>
       <use x="95.410156" xlink:href="#DejaVuSans-52"/>
      </g>
     </g>
    </g>
    <g id="ytick_8">
     <g id="line2d_14">
      <g>
       <use style="stroke:#000000;stroke-width:0.8;" x="123.8" xlink:href="#mff24be6f1a" y="57.31362"/>
      </g>
     </g>
     <g id="text_15">
      <!-- 0.6 -->
      <g transform="translate(69.090625 68.711277)scale(0.3 -0.3)">
       <use xlink:href="#DejaVuSans-48"/>
       <use x="63.623047" xlink:href="#DejaVuSans-46"/>
       <use x="95.410156" xlink:href="#DejaVuSans-54"/>
      </g>
     </g>
    </g>
    <g id="text_16">
     <!-- Weight Value -->
     <defs>
      <path d="M 3.328125 72.90625 
L 13.28125 72.90625 
L 28.609375 11.28125 
L 43.890625 72.90625 
L 54.984375 72.90625 
L 70.3125 11.28125 
L 85.59375 72.90625 
L 95.609375 72.90625 
L 77.296875 0 
L 64.890625 0 
L 49.515625 63.28125 
L 33.984375 0 
L 21.578125 0 
z
" id="DejaVuSans-87"/>
      <path d="M 45.40625 27.984375 
Q 45.40625 37.75 41.375 43.109375 
Q 37.359375 48.484375 30.078125 48.484375 
Q 22.859375 48.484375 18.828125 43.109375 
Q 14.796875 37.75 14.796875 27.984375 
Q 14.796875 18.265625 18.828125 12.890625 
Q 22.859375 7.515625 30.078125 7.515625 
Q 37.359375 7.515625 41.375 12.890625 
Q 45.40625 18.265625 45.40625 27.984375 
z
M 54.390625 6.78125 
Q 54.390625 -7.171875 48.1875 -13.984375 
Q 42 -20.796875 29.203125 -20.796875 
Q 24.46875 -20.796875 20.265625 -20.09375 
Q 16.0625 -19.390625 12.109375 -17.921875 
L 12.109375 -9.1875 
Q 16.0625 -11.328125 19.921875 -12.34375 
Q 23.78125 -13.375 27.78125 -13.375 
Q 36.625 -13.375 41.015625 -8.765625 
Q 45.40625 -4.15625 45.40625 5.171875 
L 45.40625 9.625 
Q 42.625 4.78125 38.28125 2.390625 
Q 33.9375 0 27.875 0 
Q 17.828125 0 11.671875 7.65625 
Q 5.515625 15.328125 5.515625 27.984375 
Q 5.515625 40.671875 11.671875 48.328125 
Q 17.828125 56 27.875 56 
Q 33.9375 56 38.28125 53.609375 
Q 42.625 51.21875 45.40625 46.390625 
L 45.40625 54.6875 
L 54.390625 54.6875 
z
" id="DejaVuSans-103"/>
      <path d="M 54.890625 33.015625 
L 54.890625 0 
L 45.90625 0 
L 45.90625 32.71875 
Q 45.90625 40.484375 42.875 44.328125 
Q 39.84375 48.1875 33.796875 48.1875 
Q 26.515625 48.1875 22.3125 43.546875 
Q 18.109375 38.921875 18.109375 30.90625 
L 18.109375 0 
L 9.078125 0 
L 9.078125 75.984375 
L 18.109375 75.984375 
L 18.109375 46.1875 
Q 21.34375 51.125 25.703125 53.5625 
Q 30.078125 56 35.796875 56 
Q 45.21875 56 50.046875 50.171875 
Q 54.890625 44.34375 54.890625 33.015625 
z
" id="DejaVuSans-104"/>
      <path d="M 28.609375 0 
L 0.78125 72.90625 
L 11.078125 72.90625 
L 34.1875 11.53125 
L 57.328125 72.90625 
L 67.578125 72.90625 
L 39.796875 0 
z
" id="DejaVuSans-86"/>
      <path d="M 9.421875 75.984375 
L 18.40625 75.984375 
L 18.40625 0 
L 9.421875 0 
z
" id="DejaVuSans-108"/>
      <path d="M 8.5 21.578125 
L 8.5 54.6875 
L 17.484375 54.6875 
L 17.484375 21.921875 
Q 17.484375 14.15625 20.5 10.265625 
Q 23.53125 6.390625 29.59375 6.390625 
Q 36.859375 6.390625 41.078125 11.03125 
Q 45.3125 15.671875 45.3125 23.6875 
L 45.3125 54.6875 
L 54.296875 54.6875 
L 54.296875 0 
L 45.3125 0 
L 45.3125 8.40625 
Q 42.046875 3.421875 37.71875 1 
Q 33.40625 -1.421875 27.6875 -1.421875 
Q 18.265625 -1.421875 13.375 4.4375 
Q 8.5 10.296875 8.5 21.578125 
z
M 31.109375 56 
z
" id="DejaVuSans-117"/>
     </defs>
     <g transform="translate(33.7125 353.732813)rotate(-90)scale(0.3 -0.3)">
      <use xlink:href="#DejaVuSans-87"/>
      <use x="98.798828" xlink:href="#DejaVuSans-101"/>
      <use x="160.322266" xlink:href="#DejaVuSans-105"/>
      <use x="188.105469" xlink:href="#DejaVuSans-103"/>
      <use x="251.582031" xlink:href="#DejaVuSans-104"/>
      <use x="314.960938" xlink:href="#DejaVuSans-116"/>
      <use x="354.169922" xlink:href="#DejaVuSans-32"/>
      <use x="385.957031" xlink:href="#DejaVuSans-86"/>
      <use x="454.255859" xlink:href="#DejaVuSans-97"/>
      <use x="515.535156" xlink:href="#DejaVuSans-108"/>
      <use x="543.318359" xlink:href="#DejaVuSans-117"/>
      <use x="606.697266" xlink:href="#DejaVuSans-101"/>
     </g>
    </g>
   </g>
   <g id="line2d_15">
    <path clip-path="url(#pa5931b990c)" d="M 184.062771 242.012155 
L 188.694805 205.848196 
L 193.32684 76.610964 
L 197.958874 359.802496 
L 202.590909 254.943808 
L 207.222944 299.485034 
L 211.854978 281.82217 
L 216.487013 190.076288 
L 221.119048 110.525115 
L 225.751082 274.382157 
L 230.383117 139.79921 
L 235.015152 211.983053 
L 239.647186 215.417028 
L 244.279221 201.608566 
L 248.911255 219.707346 
L 253.54329 226.605645 
L 258.175325 236.311385 
L 262.807359 224.645598 
L 267.439394 139.040794 
L 272.071429 226.44762 
L 276.703463 291.751904 
L 281.335498 265.436264 
L 285.967532 251.687202 
L 290.599567 342.140133 
L 295.231602 266.118967 
L 299.863636 366.355678 
L 304.495671 208.17672 
L 309.127706 242.610656 
L 313.75974 187.604055 
L 318.391775 268.537842 
L 323.02381 257.491684 
L 327.655844 180.831549 
L 332.287879 291.48904 
L 336.919913 236.167969 
L 341.551948 207.689603 
L 346.183983 259.853376 
L 350.816017 174.309362 
L 355.448052 171.337597 
L 360.080087 257.322987 
L 364.712121 279.178877 
L 369.344156 217.134608 
L 373.97619 161.145697 
L 378.608225 305.257875 
L 383.24026 274.489006 
L 387.872294 141.623172 
L 392.504329 207.156571 
L 397.136364 231.971032 
L 401.768398 233.47407 
L 406.400433 191.058358 
L 411.032468 256.172305 
L 415.664502 193.51398 
L 420.296537 359.894084 
L 424.928571 281.669393 
L 429.560606 169.431395 
L 434.192641 181.066648 
L 438.824675 145.207075 
L 443.45671 343.6627 
L 448.088745 319.569604 
L 452.720779 245.456139 
L 457.352814 291.548301 
L 461.984848 214.727869 
L 466.616883 305.832909 
L 471.248918 307.521218 
L 475.880952 332.683678 
L 480.512987 239.756281 
L 485.145022 309.464082 
L 489.777056 362.682646 
L 494.409091 262.378051 
L 499.041126 271.022639 
L 508.305195 163.523282 
L 512.937229 232.786286 
L 517.569264 210.395968 
L 522.201299 231.203527 
L 526.833333 292.347368 
L 531.465368 283.577358 
L 536.097403 347.830733 
L 545.361472 137.417631 
L 549.993506 324.622886 
L 554.625541 291.432632 
L 559.257576 140.845506 
L 563.88961 179.24363 
L 568.521645 230.676716 
L 573.15368 278.178626 
L 577.785714 234.726756 
L 582.417749 208.695053 
L 587.049784 221.5045 
L 591.681818 213.981524 
L 596.313853 222.710251 
L 600.945887 344.701615 
L 605.577922 247.923596 
L 610.209957 256.876782 
L 614.841991 269.069425 
L 619.474026 340.577645 
L 624.106061 297.876506 
L 628.738095 344.321862 
L 633.37013 283.635067 
L 638.002165 216.288125 
L 642.634199 268.017188 
L 647.266234 312.362377 
L 651.898268 267.526449 
L 656.530303 270.105644 
L 661.162338 249.176469 
L 665.794372 230.98626 
L 670.426407 217.876878 
L 675.058442 196.282316 
L 679.690476 294.513572 
L 684.322511 226.94788 
L 688.954545 216.963173 
L 693.58658 253.32504 
L 698.218615 191.287879 
L 702.850649 186.658387 
L 707.482684 373.269829 
L 712.114719 303.292385 
L 716.746753 143.29657 
L 721.378788 230.693669 
L 726.010823 274.558952 
L 730.642857 288.30512 
L 735.274892 206.664411 
L 739.906926 306.481699 
L 744.538961 309.117349 
L 749.170996 298.076687 
L 753.80303 213.898938 
L 758.435065 260.798677 
L 763.0671 289.493378 
L 767.699134 179.920217 
L 772.331169 301.601262 
L 776.963203 250.910052 
L 781.595238 253.222291 
L 786.227273 271.205377 
L 790.859307 205.182433 
L 795.491342 296.480785 
L 800.123377 293.566107 
L 804.755411 125.818136 
L 809.387446 205.519452 
L 814.019481 307.064532 
L 818.651515 109.342175 
L 823.28355 117.536579 
L 827.915584 214.572831 
L 832.547619 208.732282 
L 837.179654 234.744256 
L 846.443723 156.588445 
L 851.075758 188.210889 
L 855.707792 368.925559 
L 860.339827 234.083662 
L 864.971861 225.145357 
L 869.603896 300.207701 
L 874.235931 238.271941 
L 878.867965 191.128997 
L 883.5 171.634421 
L 888.132035 309.011775 
L 892.764069 179.3562 
L 897.396104 217.959426 
L 902.028139 151.09978 
L 906.660173 167.241978 
L 911.292208 352.322131 
L 915.924242 280.621805 
L 920.556277 164.100046 
L 925.188312 254.636031 
L 929.820346 221.549671 
L 934.452381 388.87132 
L 939.084416 180.553716 
L 943.71645 168.474384 
L 948.348485 128.340251 
L 952.980519 296.417776 
L 957.612554 165.501662 
L 962.244589 173.235163 
L 966.876623 308.768057 
L 971.508658 230.058479 
L 976.140693 209.786031 
L 980.772727 210.767799 
L 985.404762 281.496731 
L 990.036797 255.153472 
L 994.668831 209.106783 
L 999.300866 285.63403 
L 1003.9329 161.107376 
L 1008.564935 285.215186 
L 1013.19697 144.815558 
L 1017.829004 162.103937 
L 1022.461039 243.545193 
L 1027.093074 265.935786 
L 1031.725108 296.921687 
L 1036.357143 225.672096 
L 1040.989177 85.961724 
L 1045.621212 186.639518 
L 1050.253247 145.449647 
L 1054.885281 453.054562 
L 1059.517316 202.613209 
L 1064.149351 240.089115 
L 1068.781385 158.998434 
L 1073.41342 146.977446 
L 1078.045455 211.40068 
L 1082.677489 252.193061 
L 1087.309524 249.069634 
L 1091.941558 187.543971 
L 1096.573593 184.405005 
L 1101.205628 257.518832 
L 1105.837662 280.847726 
L 1110.469697 262.068409 
L 1115.101732 293.449262 
L 1119.733766 160.137928 
L 1124.365801 233.223365 
L 1128.997835 208.785675 
L 1133.62987 196.697238 
L 1138.261905 204.43897 
L 1142.893939 139.765908 
L 1147.525974 284.887823 
L 1152.158009 237.304583 
L 1156.790043 187.42286 
L 1161.422078 308.226563 
L 1166.054113 263.158683 
L 1170.686147 127.658538 
L 1175.318182 156.174539 
L 1179.950216 146.367232 
L 1184.582251 247.916829 
L 1189.214286 373.99666 
L 1193.84632 216.61032 
L 1198.478355 306.322906 
L 1203.11039 237.981381 
L 1207.742424 288.233792 
L 1212.374459 193.584708 
L 1217.006494 211.87959 
L 1221.638528 214.319099 
L 1226.270563 225.006132 
L 1230.902597 197.231759 
L 1235.534632 277.966489 
L 1240.166667 170.477077 
L 1244.798701 291.965986 
L 1249.430736 222.561401 
L 1254.062771 139.480399 
L 1258.694805 226.775471 
L 1263.32684 177.349213 
L 1267.958874 265.575894 
L 1272.590909 132.09038 
L 1277.222944 215.507798 
L 1281.854978 282.5527 
L 1286.487013 195.510496 
L 1291.119048 240.549006 
L 1295.751082 266.733914 
L 1300.383117 147.422857 
L 1305.015152 182.992879 
L 1309.647186 267.215377 
L 1318.911255 318.612151 
L 1323.54329 178.706645 
L 1328.175325 248.262051 
L 1332.807359 233.510251 
L 1337.439394 261.66443 
L 1342.071429 262.613251 
L 1346.703463 292.823268 
L 1351.335498 179.273775 
L 1355.967532 272.640023 
L 1360.599567 237.453564 
L 1365.231602 235.192751 
L 1365.231602 235.192751 
" style="fill:none;stroke:#1f77b4;stroke-linecap:square;stroke-width:1.5;"/>
   </g>
   <g id="line2d_16">
    <path clip-path="url(#pa5931b990c)" d="M 184.062771 265.526084 
L 188.694805 318.984436 
L 193.32684 450.337659 
L 197.958874 231.824072 
L 202.590909 252.329736 
L 207.222944 247.484409 
L 211.854978 203.41972 
L 216.487013 427.075068 
L 221.119048 474.136364 
L 225.751082 307.912668 
L 230.383117 259.270345 
L 235.015152 227.663269 
L 239.647186 379.650881 
L 244.279221 155.576195 
L 248.911255 178.004001 
L 253.54329 227.31196 
L 258.175325 278.363597 
L 267.439394 184.712013 
L 272.071429 183.893521 
L 281.335498 337.612588 
L 285.967532 298.983346 
L 290.599567 271.893606 
L 295.231602 216.444986 
L 299.863636 98.641506 
L 304.495671 238.497437 
L 309.127706 243.443704 
L 313.75974 262.290651 
L 318.391775 225.830635 
L 323.02381 133.310397 
L 327.655844 200.734448 
L 332.287879 292.568987 
L 336.919913 246.286675 
L 341.551948 261.331036 
L 346.183983 293.081306 
L 350.816017 240.834021 
L 355.448052 261.355009 
L 360.080087 197.908954 
L 364.712121 296.153927 
L 369.344156 150.302649 
L 373.97619 216.305843 
L 378.608225 118.903582 
L 383.24026 245.28837 
L 387.872294 177.582062 
L 392.504329 322.446865 
L 397.136364 200.239931 
L 401.768398 212.120369 
L 406.400433 266.110002 
L 411.032468 212.530842 
L 415.664502 248.589018 
L 420.296537 286.090832 
L 424.928571 194.306928 
L 429.560606 199.869905 
L 434.192641 214.464466 
L 438.824675 201.123258 
L 443.45671 131.775424 
L 448.088745 287.807273 
L 452.720779 388.034616 
L 457.352814 93.7185 
L 461.984848 322.059186 
L 466.616883 228.058362 
L 471.248918 184.043432 
L 475.880952 177.238938 
L 480.512987 167.680617 
L 485.145022 252.089417 
L 489.777056 224.266547 
L 494.409091 225.770991 
L 499.041126 178.703228 
L 503.67316 259.11249 
L 508.305195 93.551692 
L 512.937229 249.3447 
L 517.569264 298.592983 
L 522.201299 282.029262 
L 526.833333 284.332057 
L 531.465368 263.058502 
L 536.097403 184.212847 
L 540.729437 174.640084 
L 545.361472 232.025088 
L 549.993506 295.42948 
L 554.625541 354.439759 
L 559.257576 159.984001 
L 563.88961 261.831206 
L 568.521645 262.137105 
L 573.15368 199.883135 
L 577.785714 275.687779 
L 582.417749 202.051224 
L 587.049784 208.384516 
L 591.681818 188.410574 
L 596.313853 350.035531 
L 600.945887 239.221731 
L 605.577922 309.330224 
L 610.209957 217.777792 
L 614.841991 293.304177 
L 619.474026 354.875438 
L 624.106061 170.621965 
L 628.738095 167.487144 
L 633.37013 222.311847 
L 638.002165 214.607338 
L 642.634199 258.297299 
L 647.266234 255.338961 
L 651.898268 323.747263 
L 656.530303 192.756346 
L 661.162338 178.881364 
L 665.794372 362.512994 
L 670.426407 168.735755 
L 675.058442 355.352621 
L 679.690476 285.237137 
L 684.322511 108.074453 
L 688.954545 239.111742 
L 693.58658 211.539756 
L 698.218615 258.005207 
L 702.850649 315.211962 
L 707.482684 279.030518 
L 712.114719 309.493686 
L 716.746753 199.573394 
L 721.378788 235.428083 
L 726.010823 232.365515 
L 730.642857 352.41355 
L 735.274892 216.947716 
L 739.906926 180.002588 
L 744.538961 279.575076 
L 749.170996 237.558411 
L 753.80303 280.713957 
L 758.435065 331.660488 
L 763.0671 202.257162 
L 767.699134 260.507719 
L 772.331169 234.436779 
L 776.963203 250.368584 
L 781.595238 245.509115 
L 786.227273 223.631213 
L 790.859307 322.178146 
L 795.491342 284.560157 
L 800.123377 325.05029 
L 804.755411 214.331298 
L 809.387446 308.422456 
L 814.019481 343.171034 
L 818.651515 207.707325 
L 823.28355 282.506191 
L 827.915584 351.380019 
L 832.547619 285.360624 
L 837.179654 325.868666 
L 841.811688 192.378417 
L 846.443723 216.324883 
L 851.075758 270.135389 
L 855.707792 270.517374 
L 860.339827 144.219504 
L 864.971861 315.394611 
L 874.235931 197.966574 
L 878.867965 310.435512 
L 883.5 281.248045 
L 888.132035 232.52012 
L 892.764069 260.053638 
L 897.396104 362.634584 
L 902.028139 147.653094 
L 906.660173 262.224574 
L 911.292208 265.256048 
L 915.924242 271.970865 
L 920.556277 161.321592 
L 925.188312 306.48148 
L 929.820346 258.78616 
L 934.452381 140.278666 
L 939.084416 227.531902 
L 943.71645 264.109814 
L 948.348485 311.941297 
L 952.980519 278.866287 
L 957.612554 289.382821 
L 962.244589 236.689755 
L 966.876623 107.030833 
L 971.508658 185.007965 
L 976.140693 215.150729 
L 980.772727 276.36861 
L 985.404762 335.839694 
L 990.036797 233.600775 
L 994.668831 266.818927 
L 999.300866 234.79974 
L 1003.9329 322.048067 
L 1008.564935 289.461847 
L 1013.19697 243.824697 
L 1017.829004 286.416902 
L 1022.461039 334.954025 
L 1027.093074 168.639944 
L 1031.725108 146.150556 
L 1036.357143 226.156243 
L 1040.989177 297.606056 
L 1045.621212 300.243459 
L 1050.253247 255.583394 
L 1054.885281 188.562711 
L 1059.517316 230.91097 
L 1064.149351 152.208413 
L 1068.781385 259.536094 
L 1073.41342 42.618033 
L 1078.045455 242.21341 
L 1082.677489 191.937644 
L 1087.309524 292.3903 
L 1091.941558 203.863657 
L 1096.573593 78.797156 
L 1101.205628 266.979245 
L 1105.837662 171.800929 
L 1110.469697 330.467458 
L 1115.101732 261.965424 
L 1119.733766 270.462266 
L 1124.365801 216.728061 
L 1128.997835 320.985116 
L 1133.62987 294.050884 
L 1138.261905 145.602509 
L 1142.893939 115.804564 
L 1147.525974 261.615641 
L 1152.158009 270.738921 
L 1156.790043 330.350322 
L 1161.422078 154.589536 
L 1166.054113 143.685242 
L 1170.686147 182.841971 
L 1175.318182 286.270542 
L 1179.950216 320.851727 
L 1184.582251 332.01338 
L 1189.214286 273.671015 
L 1193.84632 168.714228 
L 1198.478355 160.525866 
L 1203.11039 402.248307 
L 1207.742424 282.448267 
L 1212.374459 280.963319 
L 1217.006494 207.12268 
L 1221.638528 200.733602 
L 1226.270563 262.573481 
L 1230.902597 243.79144 
L 1235.534632 104.758285 
L 1240.166667 282.138607 
L 1244.798701 302.599719 
L 1249.430736 210.83183 
L 1254.062771 358.437792 
L 1258.694805 270.91284 
L 1263.32684 212.857507 
L 1267.958874 330.739925 
L 1272.590909 151.016331 
L 1277.222944 211.374042 
L 1281.854978 189.761771 
L 1286.487013 171.047039 
L 1291.119048 326.866166 
L 1295.751082 374.348774 
L 1300.383117 259.15268 
L 1305.015152 239.135907 
L 1309.647186 190.083082 
L 1314.279221 51.573958 
L 1318.911255 131.417791 
L 1323.54329 200.22641 
L 1328.175325 197.009644 
L 1332.807359 355.522237 
L 1337.439394 193.961729 
L 1342.071429 277.838499 
L 1346.703463 273.754305 
L 1351.335498 164.408324 
L 1355.967532 225.890588 
L 1360.599567 314.209542 
L 1365.231602 291.484907 
L 1365.231602 291.484907 
" style="fill:none;stroke:#ff7f0e;stroke-linecap:square;stroke-width:1.5;"/>
   </g>
   <g id="line2d_17">
    <path clip-path="url(#pa5931b990c)" d="M 184.062771 262.949961 
L 188.694805 278.91646 
L 193.32684 216.94167 
L 197.958874 313.45465 
L 202.590909 402.920672 
L 207.222944 253.863978 
L 211.854978 277.550799 
L 216.487013 361.879254 
L 221.119048 287.695652 
L 225.751082 227.361441 
L 230.383117 186.448004 
L 235.015152 200.88877 
L 239.647186 270.828696 
L 244.279221 324.471357 
L 248.911255 220.77851 
L 253.54329 237.558449 
L 258.175325 167.856656 
L 262.807359 245.346573 
L 267.439394 158.628493 
L 272.071429 295.422771 
L 276.703463 195.924084 
L 281.335498 281.494777 
L 285.967532 142.162148 
L 290.599567 112.254912 
L 295.231602 234.250851 
L 299.863636 327.898042 
L 304.495671 128.778612 
L 309.127706 269.278633 
L 313.75974 218.286913 
L 318.391775 203.541273 
L 323.02381 233.326795 
L 327.655844 272.70139 
L 332.287879 257.642064 
L 336.919913 284.524654 
L 341.551948 232.620297 
L 346.183983 230.898177 
L 350.816017 343.287356 
L 355.448052 250.819467 
L 360.080087 313.541891 
L 364.712121 169.15391 
L 369.344156 206.402379 
L 373.97619 302.586123 
L 378.608225 199.345903 
L 383.24026 316.947448 
L 387.872294 323.579945 
L 392.504329 271.848901 
L 397.136364 146.884167 
L 401.768398 228.527601 
L 406.400433 220.534107 
L 411.032468 180.714262 
L 415.664502 99.213266 
L 420.296537 267.085294 
L 424.928571 327.350282 
L 429.560606 141.304701 
L 434.192641 253.002484 
L 438.824675 163.329156 
L 443.45671 269.953489 
L 448.088745 197.266256 
L 452.720779 258.34344 
L 457.352814 291.346478 
L 461.984848 149.282554 
L 466.616883 371.935574 
L 471.248918 320.819597 
L 475.880952 192.498509 
L 480.512987 207.429259 
L 485.145022 248.567314 
L 489.777056 232.547301 
L 494.409091 353.691961 
L 499.041126 112.681744 
L 503.67316 304.951001 
L 508.305195 127.080123 
L 512.937229 200.472762 
L 517.569264 215.451958 
L 522.201299 226.343701 
L 526.833333 151.968641 
L 531.465368 292.429341 
L 536.097403 225.426241 
L 540.729437 261.523344 
L 545.361472 145.753475 
L 549.993506 352.720088 
L 554.625541 234.175835 
L 559.257576 255.994323 
L 563.88961 194.834311 
L 568.521645 219.21134 
L 573.15368 104.141353 
L 577.785714 329.834129 
L 582.417749 182.120359 
L 587.049784 266.941638 
L 591.681818 132.364054 
L 596.313853 103.530852 
L 600.945887 225.896785 
L 605.577922 223.225297 
L 610.209957 149.087212 
L 614.841991 292.840389 
L 619.474026 176.87406 
L 624.106061 154.125735 
L 628.738095 198.615901 
L 633.37013 244.797775 
L 638.002165 152.816723 
L 642.634199 239.794133 
L 647.266234 284.858671 
L 651.898268 126.400307 
L 656.530303 259.183417 
L 661.162338 164.45877 
L 665.794372 249.15275 
L 670.426407 364.543005 
L 675.058442 247.917825 
L 679.690476 343.922912 
L 684.322511 344.754168 
L 688.954545 284.598786 
L 693.58658 151.254413 
L 698.218615 261.248889 
L 702.850649 228.90073 
L 707.482684 256.907332 
L 712.114719 171.012296 
L 716.746753 255.629949 
L 721.378788 213.981747 
L 726.010823 188.256441 
L 730.642857 319.02917 
L 735.274892 96.426654 
L 739.906926 291.243762 
L 744.538961 186.066993 
L 749.170996 163.450429 
L 753.80303 193.760904 
L 758.435065 235.723619 
L 763.0671 301.236903 
L 767.699134 316.581156 
L 772.331169 200.470514 
L 776.963203 297.903681 
L 781.595238 228.120403 
L 786.227273 253.05439 
L 790.859307 132.082624 
L 795.491342 294.217987 
L 800.123377 171.192342 
L 804.755411 295.390994 
L 809.387446 201.104771 
L 814.019481 201.637125 
L 818.651515 187.796737 
L 823.28355 248.374352 
L 827.915584 156.078424 
L 832.547619 238.540804 
L 837.179654 266.16933 
L 841.811688 189.58935 
L 846.443723 317.753505 
L 851.075758 371.870167 
L 855.707792 196.287433 
L 860.339827 192.938754 
L 864.971861 324.347164 
L 869.603896 140.427789 
L 874.235931 344.79408 
L 878.867965 304.828114 
L 883.5 255.335646 
L 888.132035 226.903762 
L 892.764069 239.545027 
L 897.396104 286.055154 
L 902.028139 343.49159 
L 906.660173 202.284428 
L 911.292208 340.06639 
L 915.924242 243.915273 
L 920.556277 170.969914 
L 925.188312 182.284787 
L 929.820346 195.019671 
L 934.452381 183.168287 
L 939.084416 284.48657 
L 943.71645 286.155504 
L 948.348485 201.300771 
L 952.980519 265.48537 
L 957.612554 210.295877 
L 962.244589 272.238924 
L 966.876623 286.606542 
L 971.508658 325.158427 
L 976.140693 327.600609 
L 980.772727 307.8976 
L 985.404762 301.564565 
L 990.036797 227.008356 
L 994.668831 103.274317 
L 999.300866 300.390449 
L 1003.9329 296.783888 
L 1008.564935 192.442397 
L 1013.19697 289.663607 
L 1017.829004 315.802927 
L 1022.461039 190.555162 
L 1027.093074 256.941547 
L 1031.725108 108.754797 
L 1036.357143 250.820398 
L 1040.989177 199.072367 
L 1045.621212 317.027247 
L 1050.253247 285.408681 
L 1054.885281 247.8632 
L 1059.517316 238.675136 
L 1064.149351 277.036323 
L 1068.781385 181.604014 
L 1073.41342 327.072537 
L 1078.045455 202.798832 
L 1082.677489 166.963643 
L 1087.309524 359.150732 
L 1091.941558 267.231197 
L 1096.573593 295.299141 
L 1101.205628 293.901649 
L 1105.837662 171.321876 
L 1110.469697 242.118773 
L 1115.101732 296.277785 
L 1119.733766 168.999097 
L 1124.365801 165.361291 
L 1128.997835 214.637633 
L 1133.62987 373.795316 
L 1138.261905 188.457464 
L 1142.893939 241.278046 
L 1147.525974 231.017891 
L 1152.158009 176.285725 
L 1156.790043 276.215967 
L 1161.422078 147.684348 
L 1166.054113 261.879136 
L 1170.686147 200.660816 
L 1175.318182 211.872289 
L 1179.950216 153.579307 
L 1184.582251 337.553372 
L 1189.214286 197.851701 
L 1193.84632 103.509196 
L 1198.478355 271.844203 
L 1203.11039 253.73502 
L 1207.742424 231.878867 
L 1212.374459 261.311339 
L 1217.006494 237.05391 
L 1221.638528 246.298805 
L 1226.270563 143.617474 
L 1230.902597 257.634197 
L 1235.534632 227.467898 
L 1240.166667 276.866653 
L 1244.798701 170.872454 
L 1249.430736 399.053041 
L 1254.062771 200.530185 
L 1258.694805 288.448313 
L 1263.32684 154.956785 
L 1267.958874 255.285885 
L 1272.590909 235.992191 
L 1277.222944 227.537049 
L 1281.854978 276.276069 
L 1286.487013 207.253871 
L 1291.119048 140.716572 
L 1295.751082 241.72566 
L 1300.383117 276.707677 
L 1305.015152 244.355703 
L 1309.647186 189.907915 
L 1314.279221 212.882271 
L 1318.911255 231.722939 
L 1323.54329 248.892358 
L 1328.175325 254.568183 
L 1332.807359 239.564962 
L 1337.439394 280.722223 
L 1342.071429 117.149008 
L 1346.703463 218.727945 
L 1351.335498 245.004633 
L 1355.967532 197.050241 
L 1360.599567 180.454882 
L 1365.231602 240.415947 
L 1365.231602 240.415947 
" style="fill:none;stroke:#2ca02c;stroke-linecap:square;stroke-width:1.5;"/>
   </g>
   <g id="line2d_18">
    <path clip-path="url(#pa5931b990c)" d="M 184.062771 296.73236 
L 188.694805 245.167095 
L 193.32684 202.218177 
L 197.958874 210.683328 
L 202.590909 270.484662 
L 207.222944 223.125114 
L 211.854978 257.338878 
L 216.487013 170.331715 
L 221.119048 292.562027 
L 225.751082 234.518255 
L 230.383117 251.172077 
L 235.015152 214.929191 
L 239.647186 242.902991 
L 244.279221 242.84565 
L 248.911255 286.577649 
L 253.54329 180.09406 
L 258.175325 214.91767 
L 262.807359 170.698222 
L 267.439394 194.476156 
L 272.071429 159.89854 
L 276.703463 199.083593 
L 281.335498 260.471254 
L 285.967532 356.027258 
L 290.599567 304.571484 
L 295.231602 274.149818 
L 299.863636 177.613245 
L 304.495671 100.853272 
L 309.127706 154.809361 
L 313.75974 237.55079 
L 318.391775 292.233037 
L 323.02381 227.901309 
L 327.655844 125.845195 
L 332.287879 169.063891 
L 336.919913 276.225055 
L 341.551948 254.362644 
L 346.183983 143.519517 
L 350.816017 264.988512 
L 355.448052 174.959977 
L 360.080087 245.505856 
L 364.712121 270.814905 
L 369.344156 403.708035 
L 373.97619 211.131993 
L 378.608225 283.169686 
L 383.24026 240.380654 
L 387.872294 296.774312 
L 392.504329 233.879506 
L 397.136364 219.651281 
L 401.768398 293.288425 
L 406.400433 143.327931 
L 411.032468 274.838111 
L 415.664502 235.165854 
L 420.296537 180.17775 
L 424.928571 200.148412 
L 434.192641 313.242527 
L 438.824675 323.673833 
L 443.45671 338.585158 
L 448.088745 201.310174 
L 452.720779 214.94862 
L 457.352814 234.647872 
L 461.984848 260.495931 
L 466.616883 274.182203 
L 471.248918 264.418604 
L 475.880952 305.214505 
L 480.512987 269.249955 
L 485.145022 128.832328 
L 489.777056 310.340895 
L 494.409091 277.721229 
L 499.041126 299.689268 
L 503.67316 243.860906 
L 508.305195 241.388432 
L 512.937229 127.549373 
L 517.569264 337.539695 
L 522.201299 197.533248 
L 526.833333 308.950989 
L 531.465368 165.827526 
L 536.097403 285.755217 
L 540.729437 216.269692 
L 545.361472 293.297781 
L 549.993506 315.794447 
L 554.625541 322.669722 
L 559.257576 187.173623 
L 563.88961 322.624836 
L 568.521645 98.51581 
L 573.15368 325.516328 
L 577.785714 283.913652 
L 582.417749 194.510236 
L 587.049784 171.616352 
L 591.681818 438.09165 
L 596.313853 217.585055 
L 600.945887 264.102277 
L 605.577922 218.676785 
L 610.209957 213.269387 
L 614.841991 277.969312 
L 619.474026 318.437767 
L 624.106061 218.990141 
L 628.738095 196.69798 
L 633.37013 252.323809 
L 638.002165 260.323495 
L 642.634199 365.234405 
L 647.266234 157.801691 
L 651.898268 283.38189 
L 656.530303 238.888718 
L 661.162338 222.047182 
L 665.794372 244.035632 
L 670.426407 184.929275 
L 675.058442 72.746749 
L 679.690476 213.869567 
L 684.322511 87.851915 
L 688.954545 217.416708 
L 693.58658 332.544386 
L 698.218615 184.33488 
L 702.850649 245.174099 
L 707.482684 110.637555 
L 712.114719 306.636708 
L 716.746753 134.276607 
L 721.378788 227.26392 
L 726.010823 231.310606 
L 730.642857 215.452929 
L 735.274892 258.427917 
L 739.906926 189.252058 
L 744.538961 172.702685 
L 749.170996 305.510944 
L 753.80303 221.291749 
L 758.435065 316.031249 
L 763.0671 252.935934 
L 767.699134 172.463168 
L 772.331169 277.221871 
L 776.963203 186.373796 
L 781.595238 254.319729 
L 786.227273 343.383658 
L 790.859307 298.601919 
L 795.491342 180.99159 
L 800.123377 252.522854 
L 804.755411 224.665618 
L 809.387446 165.84233 
L 814.019481 105.267286 
L 818.651515 251.987288 
L 823.28355 129.439796 
L 827.915584 314.745826 
L 832.547619 340.525129 
L 837.179654 340.080684 
L 841.811688 226.127194 
L 846.443723 252.874731 
L 851.075758 122.366629 
L 855.707792 112.393435 
L 860.339827 217.194916 
L 864.971861 335.594161 
L 869.603896 269.046712 
L 874.235931 290.556316 
L 878.867965 287.222043 
L 883.5 171.047848 
L 888.132035 252.984094 
L 892.764069 229.524791 
L 897.396104 123.329207 
L 902.028139 275.038971 
L 906.660173 384.851363 
L 911.292208 241.864383 
L 915.924242 193.798182 
L 920.556277 183.666505 
L 925.188312 307.18623 
L 929.820346 251.478877 
L 934.452381 274.377783 
L 939.084416 269.293917 
L 943.71645 196.923369 
L 948.348485 249.230861 
L 952.980519 232.938021 
L 957.612554 325.445063 
L 962.244589 115.456234 
L 966.876623 107.738987 
L 971.508658 209.606702 
L 976.140693 237.635996 
L 980.772727 304.346744 
L 985.404762 240.084218 
L 990.036797 330.329659 
L 994.668831 300.621098 
L 999.300866 152.664996 
L 1003.9329 187.863042 
L 1008.564935 232.504785 
L 1013.19697 246.353256 
L 1017.829004 32.863636 
L 1022.461039 284.125162 
L 1027.093074 238.71246 
L 1031.725108 200.184129 
L 1036.357143 414.280458 
L 1040.989177 226.84557 
L 1045.621212 122.949722 
L 1050.253247 403.389054 
L 1054.885281 174.56842 
L 1059.517316 148.171362 
L 1064.149351 264.651612 
L 1068.781385 172.246134 
L 1073.41342 299.990113 
L 1078.045455 255.11825 
L 1082.677489 73.3012 
L 1087.309524 301.770199 
L 1091.941558 279.777825 
L 1096.573593 278.774457 
L 1101.205628 308.408435 
L 1105.837662 182.940031 
L 1110.469697 333.919072 
L 1115.101732 194.238431 
L 1119.733766 147.515591 
L 1124.365801 271.63574 
L 1128.997835 196.26363 
L 1133.62987 230.588192 
L 1138.261905 255.04121 
L 1142.893939 241.645179 
L 1147.525974 263.044711 
L 1152.158009 180.708626 
L 1156.790043 219.121892 
L 1161.422078 231.297894 
L 1166.054113 392.186415 
L 1170.686147 233.478978 
L 1175.318182 289.131684 
L 1179.950216 332.088349 
L 1184.582251 322.204463 
L 1189.214286 157.537597 
L 1193.84632 174.309872 
L 1198.478355 217.756657 
L 1203.11039 207.192812 
L 1207.742424 216.480077 
L 1212.374459 209.186741 
L 1217.006494 137.076216 
L 1221.638528 225.799902 
L 1226.270563 232.854441 
L 1230.902597 224.49366 
L 1235.534632 329.540391 
L 1240.166667 260.124118 
L 1244.798701 253.635316 
L 1249.430736 255.208803 
L 1254.062771 243.365933 
L 1258.694805 356.004037 
L 1263.32684 198.730438 
L 1267.958874 201.668386 
L 1272.590909 262.870289 
L 1277.222944 306.788255 
L 1281.854978 132.051836 
L 1286.487013 280.945469 
L 1291.119048 377.329761 
L 1295.751082 233.182119 
L 1300.383117 174.579204 
L 1305.015152 215.384278 
L 1309.647186 133.205382 
L 1314.279221 142.401419 
L 1318.911255 293.605671 
L 1323.54329 189.146305 
L 1328.175325 187.668822 
L 1332.807359 124.430828 
L 1337.439394 137.045365 
L 1342.071429 219.674047 
L 1346.703463 142.628812 
L 1351.335498 262.188695 
L 1355.967532 80.438074 
L 1360.599567 158.560287 
L 1365.231602 176.146003 
L 1365.231602 176.146003 
" style="fill:none;stroke:#d62728;stroke-linecap:square;stroke-width:1.5;"/>
   </g>
   <g id="patch_13">
    <path d="M 123.8 496.2 
L 123.8 10.8 
" style="fill:none;stroke:#000000;stroke-linecap:square;stroke-linejoin:miter;stroke-width:0.8;"/>
   </g>
   <g id="patch_14">
    <path d="M 1429.2 496.2 
L 1429.2 10.8 
" style="fill:none;stroke:#000000;stroke-linecap:square;stroke-linejoin:miter;stroke-width:0.8;"/>
   </g>
   <g id="patch_15">
    <path d="M 123.8 496.2 
L 1429.2 496.2 
" style="fill:none;stroke:#000000;stroke-linecap:square;stroke-linejoin:miter;stroke-width:0.8;"/>
   </g>
   <g id="patch_16">
    <path d="M 123.8 10.8 
L 1429.2 10.8 
" style="fill:none;stroke:#000000;stroke-linecap:square;stroke-linejoin:miter;stroke-width:0.8;"/>
   </g>
  </g>
 </g>
 <defs>
  <clipPath id="pa5931b990c">
   <rect height="485.4" width="1305.4" x="123.8" y="10.8"/>
  </clipPath>
 </defs>
</svg>
