<?xml version="1.0" encoding="utf-8" standalone="no"?>
<!DOCTYPE svg PUBLIC "-//W3C//DTD SVG 1.1//EN"
  "http://www.w3.org/Graphics/SVG/1.1/DTD/svg11.dtd">
<!-- Created with matplotlib (https://matplotlib.org/) -->
<svg height="576pt" version="1.1" viewBox="0 0 1440 576" width="1440pt" xmlns="http://www.w3.org/2000/svg" xmlns:xlink="http://www.w3.org/1999/xlink">
 <defs>
  <style type="text/css">
*{stroke-linecap:butt;stroke-linejoin:round;white-space:pre;}
  </style>
 </defs>
 <g id="figure_1">
  <g id="patch_1">
   <path d="M 0 576 
L 1440 576 
L 1440 0 
L 0 0 
z
" style="fill:#ffffff;"/>
  </g>
  <g id="axes_1">
   <g id="patch_2">
    <path d="M 123.8 496.2 
L 1429.2 496.2 
L 1429.2 10.8 
L 123.8 10.8 
z
" style="fill:#ffffff;"/>
   </g>
   <g id="patch_3">
    <path clip-path="url(#pdf9170a970)" d="M 183.136364 496.2 
L 183.136364 10.8 
L 184.062771 10.8 
L 184.062771 496.2 
z
" style="fill:#0000ff;"/>
   </g>
   <g id="patch_4">
    <path clip-path="url(#pdf9170a970)" d="M 187.768398 496.2 
L 187.768398 10.8 
L 188.694805 10.8 
L 188.694805 496.2 
z
" style="fill:#0000ff;"/>
   </g>
   <g id="patch_5">
    <path clip-path="url(#pdf9170a970)" d="M 224.824675 496.2 
L 224.824675 10.8 
L 225.751082 10.8 
L 225.751082 496.2 
z
" style="fill:#0000ff;"/>
   </g>
   <g id="patch_6">
    <path clip-path="url(#pdf9170a970)" d="M 354.521645 496.2 
L 354.521645 10.8 
L 355.448052 10.8 
L 355.448052 496.2 
z
" style="fill:#0000ff;"/>
   </g>
   <g id="patch_7">
    <path clip-path="url(#pdf9170a970)" d="M 613.915584 496.2 
L 613.915584 10.8 
L 614.841991 10.8 
L 614.841991 496.2 
z
" style="fill:#0000ff;"/>
   </g>
   <g id="patch_8">
    <path clip-path="url(#pdf9170a970)" d="M 938.158009 496.2 
L 938.158009 10.8 
L 939.084416 10.8 
L 939.084416 496.2 
z
" style="fill:#0000ff;"/>
   </g>
   <g id="patch_9">
    <path clip-path="url(#pdf9170a970)" d="M 1197.551948 496.2 
L 1197.551948 10.8 
L 1198.478355 10.8 
L 1198.478355 496.2 
z
" style="fill:#0000ff;"/>
   </g>
   <g id="patch_10">
    <path clip-path="url(#pdf9170a970)" d="M 1327.248918 496.2 
L 1327.248918 10.8 
L 1328.175325 10.8 
L 1328.175325 496.2 
z
" style="fill:#0000ff;"/>
   </g>
   <g id="patch_11">
    <path clip-path="url(#pdf9170a970)" d="M 1364.305195 496.2 
L 1364.305195 10.8 
L 1365.231602 10.8 
L 1365.231602 496.2 
z
" style="fill:#0000ff;"/>
   </g>
   <g id="patch_12">
    <path clip-path="url(#pdf9170a970)" d="M 1368.937229 496.2 
L 1368.937229 10.8 
L 1369.863636 10.8 
L 1369.863636 496.2 
z
" style="fill:#0000ff;"/>
   </g>
   <g id="matplotlib.axis_1">
    <g id="xtick_1">
     <g id="line2d_1">
      <defs>
       <path d="M 0 0 
L 0 3.5 
" id="m5025fb7a89" style="stroke:#000000;stroke-width:0.8;"/>
      </defs>
      <g>
       <use style="stroke:#000000;stroke-width:0.8;" x="184.062771" xlink:href="#m5025fb7a89" y="496.2"/>
      </g>
     </g>
     <g id="text_1">
      <!-- 0 -->
      <defs>
       <path d="M 31.78125 66.40625 
Q 24.171875 66.40625 20.328125 58.90625 
Q 16.5 51.421875 16.5 36.375 
Q 16.5 21.390625 20.328125 13.890625 
Q 24.171875 6.390625 31.78125 6.390625 
Q 39.453125 6.390625 43.28125 13.890625 
Q 47.125 21.390625 47.125 36.375 
Q 47.125 51.421875 43.28125 58.90625 
Q 39.453125 66.40625 31.78125 66.40625 
z
M 31.78125 74.21875 
Q 44.046875 74.21875 50.515625 64.515625 
Q 56.984375 54.828125 56.984375 36.375 
Q 56.984375 17.96875 50.515625 8.265625 
Q 44.046875 -1.421875 31.78125 -1.421875 
Q 19.53125 -1.421875 13.0625 8.265625 
Q 6.59375 17.96875 6.59375 36.375 
Q 6.59375 54.828125 13.0625 64.515625 
Q 19.53125 74.21875 31.78125 74.21875 
z
" id="DejaVuSans-48"/>
      </defs>
      <g transform="translate(174.519021 525.995312)scale(0.3 -0.3)">
       <use xlink:href="#DejaVuSans-48"/>
      </g>
     </g>
    </g>
    <g id="xtick_2">
     <g id="line2d_2">
      <g>
       <use style="stroke:#000000;stroke-width:0.8;" x="415.664502" xlink:href="#m5025fb7a89" y="496.2"/>
      </g>
     </g>
     <g id="text_2">
      <!-- 50 -->
      <defs>
       <path d="M 10.796875 72.90625 
L 49.515625 72.90625 
L 49.515625 64.59375 
L 19.828125 64.59375 
L 19.828125 46.734375 
Q 21.96875 47.46875 24.109375 47.828125 
Q 26.265625 48.1875 28.421875 48.1875 
Q 40.625 48.1875 47.75 41.5 
Q 54.890625 34.8125 54.890625 23.390625 
Q 54.890625 11.625 47.5625 5.09375 
Q 40.234375 -1.421875 26.90625 -1.421875 
Q 22.3125 -1.421875 17.546875 -0.640625 
Q 12.796875 0.140625 7.71875 1.703125 
L 7.71875 11.625 
Q 12.109375 9.234375 16.796875 8.0625 
Q 21.484375 6.890625 26.703125 6.890625 
Q 35.15625 6.890625 40.078125 11.328125 
Q 45.015625 15.765625 45.015625 23.390625 
Q 45.015625 31 40.078125 35.4375 
Q 35.15625 39.890625 26.703125 39.890625 
Q 22.75 39.890625 18.8125 39.015625 
Q 14.890625 38.140625 10.796875 36.28125 
z
" id="DejaVuSans-53"/>
      </defs>
      <g transform="translate(396.577002 525.995312)scale(0.3 -0.3)">
       <use xlink:href="#DejaVuSans-53"/>
       <use x="63.623047" xlink:href="#DejaVuSans-48"/>
      </g>
     </g>
    </g>
    <g id="xtick_3">
     <g id="line2d_3">
      <g>
       <use style="stroke:#000000;stroke-width:0.8;" x="647.266234" xlink:href="#m5025fb7a89" y="496.2"/>
      </g>
     </g>
     <g id="text_3">
      <!-- 100 -->
      <defs>
       <path d="M 12.40625 8.296875 
L 28.515625 8.296875 
L 28.515625 63.921875 
L 10.984375 60.40625 
L 10.984375 69.390625 
L 28.421875 72.90625 
L 38.28125 72.90625 
L 38.28125 8.296875 
L 54.390625 8.296875 
L 54.390625 0 
L 12.40625 0 
z
" id="DejaVuSans-49"/>
      </defs>
      <g transform="translate(618.634984 525.995312)scale(0.3 -0.3)">
       <use xlink:href="#DejaVuSans-49"/>
       <use x="63.623047" xlink:href="#DejaVuSans-48"/>
       <use x="127.246094" xlink:href="#DejaVuSans-48"/>
      </g>
     </g>
    </g>
    <g id="xtick_4">
     <g id="line2d_4">
      <g>
       <use style="stroke:#000000;stroke-width:0.8;" x="878.867965" xlink:href="#m5025fb7a89" y="496.2"/>
      </g>
     </g>
     <g id="text_4">
      <!-- 150 -->
      <g transform="translate(850.236715 525.995312)scale(0.3 -0.3)">
       <use xlink:href="#DejaVuSans-49"/>
       <use x="63.623047" xlink:href="#DejaVuSans-53"/>
       <use x="127.246094" xlink:href="#DejaVuSans-48"/>
      </g>
     </g>
    </g>
    <g id="xtick_5">
     <g id="line2d_5">
      <g>
       <use style="stroke:#000000;stroke-width:0.8;" x="1110.469697" xlink:href="#m5025fb7a89" y="496.2"/>
      </g>
     </g>
     <g id="text_5">
      <!-- 200 -->
      <defs>
       <path d="M 19.1875 8.296875 
L 53.609375 8.296875 
L 53.609375 0 
L 7.328125 0 
L 7.328125 8.296875 
Q 12.9375 14.109375 22.625 23.890625 
Q 32.328125 33.6875 34.8125 36.53125 
Q 39.546875 41.84375 41.421875 45.53125 
Q 43.3125 49.21875 43.3125 52.78125 
Q 43.3125 58.59375 39.234375 62.25 
Q 35.15625 65.921875 28.609375 65.921875 
Q 23.96875 65.921875 18.8125 64.3125 
Q 13.671875 62.703125 7.8125 59.421875 
L 7.8125 69.390625 
Q 13.765625 71.78125 18.9375 73 
Q 24.125 74.21875 28.421875 74.21875 
Q 39.75 74.21875 46.484375 68.546875 
Q 53.21875 62.890625 53.21875 53.421875 
Q 53.21875 48.921875 51.53125 44.890625 
Q 49.859375 40.875 45.40625 35.40625 
Q 44.1875 33.984375 37.640625 27.21875 
Q 31.109375 20.453125 19.1875 8.296875 
z
" id="DejaVuSans-50"/>
      </defs>
      <g transform="translate(1081.838447 525.995312)scale(0.3 -0.3)">
       <use xlink:href="#DejaVuSans-50"/>
       <use x="63.623047" xlink:href="#DejaVuSans-48"/>
       <use x="127.246094" xlink:href="#DejaVuSans-48"/>
      </g>
     </g>
    </g>
    <g id="xtick_6">
     <g id="line2d_6">
      <g>
       <use style="stroke:#000000;stroke-width:0.8;" x="1342.071429" xlink:href="#m5025fb7a89" y="496.2"/>
      </g>
     </g>
     <g id="text_6">
      <!-- 250 -->
      <g transform="translate(1313.440179 525.995312)scale(0.3 -0.3)">
       <use xlink:href="#DejaVuSans-50"/>
       <use x="63.623047" xlink:href="#DejaVuSans-53"/>
       <use x="127.246094" xlink:href="#DejaVuSans-48"/>
      </g>
     </g>
    </g>
    <g id="text_7">
     <!-- Bit Interaction -->
     <defs>
      <path d="M 19.671875 34.8125 
L 19.671875 8.109375 
L 35.5 8.109375 
Q 43.453125 8.109375 47.28125 11.40625 
Q 51.125 14.703125 51.125 21.484375 
Q 51.125 28.328125 47.28125 31.5625 
Q 43.453125 34.8125 35.5 34.8125 
z
M 19.671875 64.796875 
L 19.671875 42.828125 
L 34.28125 42.828125 
Q 41.5 42.828125 45.03125 45.53125 
Q 48.578125 48.25 48.578125 53.8125 
Q 48.578125 59.328125 45.03125 62.0625 
Q 41.5 64.796875 34.28125 64.796875 
z
M 9.8125 72.90625 
L 35.015625 72.90625 
Q 46.296875 72.90625 52.390625 68.21875 
Q 58.5 63.53125 58.5 54.890625 
Q 58.5 48.1875 55.375 44.234375 
Q 52.25 40.28125 46.1875 39.3125 
Q 53.46875 37.75 57.5 32.78125 
Q 61.53125 27.828125 61.53125 20.40625 
Q 61.53125 10.640625 54.890625 5.3125 
Q 48.25 0 35.984375 0 
L 9.8125 0 
z
" id="DejaVuSans-66"/>
      <path d="M 9.421875 54.6875 
L 18.40625 54.6875 
L 18.40625 0 
L 9.421875 0 
z
M 9.421875 75.984375 
L 18.40625 75.984375 
L 18.40625 64.59375 
L 9.421875 64.59375 
z
" id="DejaVuSans-105"/>
      <path d="M 18.3125 70.21875 
L 18.3125 54.6875 
L 36.8125 54.6875 
L 36.8125 47.703125 
L 18.3125 47.703125 
L 18.3125 18.015625 
Q 18.3125 11.328125 20.140625 9.421875 
Q 21.96875 7.515625 27.59375 7.515625 
L 36.8125 7.515625 
L 36.8125 0 
L 27.59375 0 
Q 17.1875 0 13.234375 3.875 
Q 9.28125 7.765625 9.28125 18.015625 
L 9.28125 47.703125 
L 2.6875 47.703125 
L 2.6875 54.6875 
L 9.28125 54.6875 
L 9.28125 70.21875 
z
" id="DejaVuSans-116"/>
      <path id="DejaVuSans-32"/>
      <path d="M 9.8125 72.90625 
L 19.671875 72.90625 
L 19.671875 0 
L 9.8125 0 
z
" id="DejaVuSans-73"/>
      <path d="M 54.890625 33.015625 
L 54.890625 0 
L 45.90625 0 
L 45.90625 32.71875 
Q 45.90625 40.484375 42.875 44.328125 
Q 39.84375 48.1875 33.796875 48.1875 
Q 26.515625 48.1875 22.3125 43.546875 
Q 18.109375 38.921875 18.109375 30.90625 
L 18.109375 0 
L 9.078125 0 
L 9.078125 54.6875 
L 18.109375 54.6875 
L 18.109375 46.1875 
Q 21.34375 51.125 25.703125 53.5625 
Q 30.078125 56 35.796875 56 
Q 45.21875 56 50.046875 50.171875 
Q 54.890625 44.34375 54.890625 33.015625 
z
" id="DejaVuSans-110"/>
      <path d="M 56.203125 29.59375 
L 56.203125 25.203125 
L 14.890625 25.203125 
Q 15.484375 15.921875 20.484375 11.0625 
Q 25.484375 6.203125 34.421875 6.203125 
Q 39.59375 6.203125 44.453125 7.46875 
Q 49.3125 8.734375 54.109375 11.28125 
L 54.109375 2.78125 
Q 49.265625 0.734375 44.1875 -0.34375 
Q 39.109375 -1.421875 33.890625 -1.421875 
Q 20.796875 -1.421875 13.15625 6.1875 
Q 5.515625 13.8125 5.515625 26.8125 
Q 5.515625 40.234375 12.765625 48.109375 
Q 20.015625 56 32.328125 56 
Q 43.359375 56 49.78125 48.890625 
Q 56.203125 41.796875 56.203125 29.59375 
z
M 47.21875 32.234375 
Q 47.125 39.59375 43.09375 43.984375 
Q 39.0625 48.390625 32.421875 48.390625 
Q 24.90625 48.390625 20.390625 44.140625 
Q 15.875 39.890625 15.1875 32.171875 
z
" id="DejaVuSans-101"/>
      <path d="M 41.109375 46.296875 
Q 39.59375 47.171875 37.8125 47.578125 
Q 36.03125 48 33.890625 48 
Q 26.265625 48 22.1875 43.046875 
Q 18.109375 38.09375 18.109375 28.8125 
L 18.109375 0 
L 9.078125 0 
L 9.078125 54.6875 
L 18.109375 54.6875 
L 18.109375 46.1875 
Q 20.953125 51.171875 25.484375 53.578125 
Q 30.03125 56 36.53125 56 
Q 37.453125 56 38.578125 55.875 
Q 39.703125 55.765625 41.0625 55.515625 
z
" id="DejaVuSans-114"/>
      <path d="M 34.28125 27.484375 
Q 23.390625 27.484375 19.1875 25 
Q 14.984375 22.515625 14.984375 16.5 
Q 14.984375 11.71875 18.140625 8.90625 
Q 21.296875 6.109375 26.703125 6.109375 
Q 34.1875 6.109375 38.703125 11.40625 
Q 43.21875 16.703125 43.21875 25.484375 
L 43.21875 27.484375 
z
M 52.203125 31.203125 
L 52.203125 0 
L 43.21875 0 
L 43.21875 8.296875 
Q 40.140625 3.328125 35.546875 0.953125 
Q 30.953125 -1.421875 24.3125 -1.421875 
Q 15.921875 -1.421875 10.953125 3.296875 
Q 6 8.015625 6 15.921875 
Q 6 25.140625 12.171875 29.828125 
Q 18.359375 34.515625 30.609375 34.515625 
L 43.21875 34.515625 
L 43.21875 35.40625 
Q 43.21875 41.609375 39.140625 45 
Q 35.0625 48.390625 27.6875 48.390625 
Q 23 48.390625 18.546875 47.265625 
Q 14.109375 46.140625 10.015625 43.890625 
L 10.015625 52.203125 
Q 14.9375 54.109375 19.578125 55.046875 
Q 24.21875 56 28.609375 56 
Q 40.484375 56 46.34375 49.84375 
Q 52.203125 43.703125 52.203125 31.203125 
z
" id="DejaVuSans-97"/>
      <path d="M 48.78125 52.59375 
L 48.78125 44.1875 
Q 44.96875 46.296875 41.140625 47.34375 
Q 37.3125 48.390625 33.40625 48.390625 
Q 24.65625 48.390625 19.8125 42.84375 
Q 14.984375 37.3125 14.984375 27.296875 
Q 14.984375 17.28125 19.8125 11.734375 
Q 24.65625 6.203125 33.40625 6.203125 
Q 37.3125 6.203125 41.140625 7.25 
Q 44.96875 8.296875 48.78125 10.40625 
L 48.78125 2.09375 
Q 45.015625 0.34375 40.984375 -0.53125 
Q 36.96875 -1.421875 32.421875 -1.421875 
Q 20.0625 -1.421875 12.78125 6.34375 
Q 5.515625 14.109375 5.515625 27.296875 
Q 5.515625 40.671875 12.859375 48.328125 
Q 20.21875 56 33.015625 56 
Q 37.15625 56 41.109375 55.140625 
Q 45.0625 54.296875 48.78125 52.59375 
z
" id="DejaVuSans-99"/>
      <path d="M 30.609375 48.390625 
Q 23.390625 48.390625 19.1875 42.75 
Q 14.984375 37.109375 14.984375 27.296875 
Q 14.984375 17.484375 19.15625 11.84375 
Q 23.34375 6.203125 30.609375 6.203125 
Q 37.796875 6.203125 41.984375 11.859375 
Q 46.1875 17.53125 46.1875 27.296875 
Q 46.1875 37.015625 41.984375 42.703125 
Q 37.796875 48.390625 30.609375 48.390625 
z
M 30.609375 56 
Q 42.328125 56 49.015625 48.375 
Q 55.71875 40.765625 55.71875 27.296875 
Q 55.71875 13.875 49.015625 6.21875 
Q 42.328125 -1.421875 30.609375 -1.421875 
Q 18.84375 -1.421875 12.171875 6.21875 
Q 5.515625 13.875 5.515625 27.296875 
Q 5.515625 40.765625 12.171875 48.375 
Q 18.84375 56 30.609375 56 
z
" id="DejaVuSans-111"/>
     </defs>
     <g transform="translate(670.014063 559.029688)scale(0.3 -0.3)">
      <use xlink:href="#DejaVuSans-66"/>
      <use x="68.603516" xlink:href="#DejaVuSans-105"/>
      <use x="96.386719" xlink:href="#DejaVuSans-116"/>
      <use x="135.595703" xlink:href="#DejaVuSans-32"/>
      <use x="167.382812" xlink:href="#DejaVuSans-73"/>
      <use x="196.875" xlink:href="#DejaVuSans-110"/>
      <use x="260.253906" xlink:href="#DejaVuSans-116"/>
      <use x="299.462891" xlink:href="#DejaVuSans-101"/>
      <use x="360.986328" xlink:href="#DejaVuSans-114"/>
      <use x="402.099609" xlink:href="#DejaVuSans-97"/>
      <use x="463.378906" xlink:href="#DejaVuSans-99"/>
      <use x="518.359375" xlink:href="#DejaVuSans-116"/>
      <use x="557.568359" xlink:href="#DejaVuSans-105"/>
      <use x="585.351562" xlink:href="#DejaVuSans-111"/>
      <use x="646.533203" xlink:href="#DejaVuSans-110"/>
     </g>
    </g>
   </g>
   <g id="matplotlib.axis_2">
    <g id="ytick_1">
     <g id="line2d_7">
      <defs>
       <path d="M 0 0 
L -3.5 0 
" id="m89274feb9b" style="stroke:#000000;stroke-width:0.8;"/>
      </defs>
      <g>
       <use style="stroke:#000000;stroke-width:0.8;" x="123.8" xlink:href="#m89274feb9b" y="487.330249"/>
      </g>
     </g>
     <g id="text_8">
      <!-- −1.0 -->
      <defs>
       <path d="M 10.59375 35.5 
L 73.1875 35.5 
L 73.1875 27.203125 
L 10.59375 27.203125 
z
" id="DejaVuSans-8722"/>
       <path d="M 10.6875 12.40625 
L 21 12.40625 
L 21 0 
L 10.6875 0 
z
" id="DejaVuSans-46"/>
      </defs>
      <g transform="translate(43.951563 498.727905)scale(0.3 -0.3)">
       <use xlink:href="#DejaVuSans-8722"/>
       <use x="83.789062" xlink:href="#DejaVuSans-49"/>
       <use x="147.412109" xlink:href="#DejaVuSans-46"/>
       <use x="179.199219" xlink:href="#DejaVuSans-48"/>
      </g>
     </g>
    </g>
    <g id="ytick_2">
     <g id="line2d_8">
      <g>
       <use style="stroke:#000000;stroke-width:0.8;" x="123.8" xlink:href="#m89274feb9b" y="432.943597"/>
      </g>
     </g>
     <g id="text_9">
      <!-- −0.8 -->
      <defs>
       <path d="M 31.78125 34.625 
Q 24.75 34.625 20.71875 30.859375 
Q 16.703125 27.09375 16.703125 20.515625 
Q 16.703125 13.921875 20.71875 10.15625 
Q 24.75 6.390625 31.78125 6.390625 
Q 38.8125 6.390625 42.859375 10.171875 
Q 46.921875 13.96875 46.921875 20.515625 
Q 46.921875 27.09375 42.890625 30.859375 
Q 38.875 34.625 31.78125 34.625 
z
M 21.921875 38.8125 
Q 15.578125 40.375 12.03125 44.71875 
Q 8.5 49.078125 8.5 55.328125 
Q 8.5 64.0625 14.71875 69.140625 
Q 20.953125 74.21875 31.78125 74.21875 
Q 42.671875 74.21875 48.875 69.140625 
Q 55.078125 64.0625 55.078125 55.328125 
Q 55.078125 49.078125 51.53125 44.71875 
Q 48 40.375 41.703125 38.8125 
Q 48.828125 37.15625 52.796875 32.3125 
Q 56.78125 27.484375 56.78125 20.515625 
Q 56.78125 9.90625 50.3125 4.234375 
Q 43.84375 -1.421875 31.78125 -1.421875 
Q 19.734375 -1.421875 13.25 4.234375 
Q 6.78125 9.90625 6.78125 20.515625 
Q 6.78125 27.484375 10.78125 32.3125 
Q 14.796875 37.15625 21.921875 38.8125 
z
M 18.3125 54.390625 
Q 18.3125 48.734375 21.84375 45.5625 
Q 25.390625 42.390625 31.78125 42.390625 
Q 38.140625 42.390625 41.71875 45.5625 
Q 45.3125 48.734375 45.3125 54.390625 
Q 45.3125 60.0625 41.71875 63.234375 
Q 38.140625 66.40625 31.78125 66.40625 
Q 25.390625 66.40625 21.84375 63.234375 
Q 18.3125 60.0625 18.3125 54.390625 
z
" id="DejaVuSans-56"/>
      </defs>
      <g transform="translate(43.951563 444.341253)scale(0.3 -0.3)">
       <use xlink:href="#DejaVuSans-8722"/>
       <use x="83.789062" xlink:href="#DejaVuSans-48"/>
       <use x="147.412109" xlink:href="#DejaVuSans-46"/>
       <use x="179.199219" xlink:href="#DejaVuSans-56"/>
      </g>
     </g>
    </g>
    <g id="ytick_3">
     <g id="line2d_9">
      <g>
       <use style="stroke:#000000;stroke-width:0.8;" x="123.8" xlink:href="#m89274feb9b" y="378.556944"/>
      </g>
     </g>
     <g id="text_10">
      <!-- −0.6 -->
      <defs>
       <path d="M 33.015625 40.375 
Q 26.375 40.375 22.484375 35.828125 
Q 18.609375 31.296875 18.609375 23.390625 
Q 18.609375 15.53125 22.484375 10.953125 
Q 26.375 6.390625 33.015625 6.390625 
Q 39.65625 6.390625 43.53125 10.953125 
Q 47.40625 15.53125 47.40625 23.390625 
Q 47.40625 31.296875 43.53125 35.828125 
Q 39.65625 40.375 33.015625 40.375 
z
M 52.59375 71.296875 
L 52.59375 62.3125 
Q 48.875 64.0625 45.09375 64.984375 
Q 41.3125 65.921875 37.59375 65.921875 
Q 27.828125 65.921875 22.671875 59.328125 
Q 17.53125 52.734375 16.796875 39.40625 
Q 19.671875 43.65625 24.015625 45.921875 
Q 28.375 48.1875 33.59375 48.1875 
Q 44.578125 48.1875 50.953125 41.515625 
Q 57.328125 34.859375 57.328125 23.390625 
Q 57.328125 12.15625 50.6875 5.359375 
Q 44.046875 -1.421875 33.015625 -1.421875 
Q 20.359375 -1.421875 13.671875 8.265625 
Q 6.984375 17.96875 6.984375 36.375 
Q 6.984375 53.65625 15.1875 63.9375 
Q 23.390625 74.21875 37.203125 74.21875 
Q 40.921875 74.21875 44.703125 73.484375 
Q 48.484375 72.75 52.59375 71.296875 
z
" id="DejaVuSans-54"/>
      </defs>
      <g transform="translate(43.951563 389.954601)scale(0.3 -0.3)">
       <use xlink:href="#DejaVuSans-8722"/>
       <use x="83.789062" xlink:href="#DejaVuSans-48"/>
       <use x="147.412109" xlink:href="#DejaVuSans-46"/>
       <use x="179.199219" xlink:href="#DejaVuSans-54"/>
      </g>
     </g>
    </g>
    <g id="ytick_4">
     <g id="line2d_10">
      <g>
       <use style="stroke:#000000;stroke-width:0.8;" x="123.8" xlink:href="#m89274feb9b" y="324.170292"/>
      </g>
     </g>
     <g id="text_11">
      <!-- −0.4 -->
      <defs>
       <path d="M 37.796875 64.3125 
L 12.890625 25.390625 
L 37.796875 25.390625 
z
M 35.203125 72.90625 
L 47.609375 72.90625 
L 47.609375 25.390625 
L 58.015625 25.390625 
L 58.015625 17.1875 
L 47.609375 17.1875 
L 47.609375 0 
L 37.796875 0 
L 37.796875 17.1875 
L 4.890625 17.1875 
L 4.890625 26.703125 
z
" id="DejaVuSans-52"/>
      </defs>
      <g transform="translate(43.951563 335.567948)scale(0.3 -0.3)">
       <use xlink:href="#DejaVuSans-8722"/>
       <use x="83.789062" xlink:href="#DejaVuSans-48"/>
       <use x="147.412109" xlink:href="#DejaVuSans-46"/>
       <use x="179.199219" xlink:href="#DejaVuSans-52"/>
      </g>
     </g>
    </g>
    <g id="ytick_5">
     <g id="line2d_11">
      <g>
       <use style="stroke:#000000;stroke-width:0.8;" x="123.8" xlink:href="#m89274feb9b" y="269.783639"/>
      </g>
     </g>
     <g id="text_12">
      <!-- −0.2 -->
      <g transform="translate(43.951563 281.181296)scale(0.3 -0.3)">
       <use xlink:href="#DejaVuSans-8722"/>
       <use x="83.789062" xlink:href="#DejaVuSans-48"/>
       <use x="147.412109" xlink:href="#DejaVuSans-46"/>
       <use x="179.199219" xlink:href="#DejaVuSans-50"/>
      </g>
     </g>
    </g>
    <g id="ytick_6">
     <g id="line2d_12">
      <g>
       <use style="stroke:#000000;stroke-width:0.8;" x="123.8" xlink:href="#m89274feb9b" y="215.396987"/>
      </g>
     </g>
     <g id="text_13">
      <!-- 0.0 -->
      <g transform="translate(69.090625 226.794643)scale(0.3 -0.3)">
       <use xlink:href="#DejaVuSans-48"/>
       <use x="63.623047" xlink:href="#DejaVuSans-46"/>
       <use x="95.410156" xlink:href="#DejaVuSans-48"/>
      </g>
     </g>
    </g>
    <g id="ytick_7">
     <g id="line2d_13">
      <g>
       <use style="stroke:#000000;stroke-width:0.8;" x="123.8" xlink:href="#m89274feb9b" y="161.010335"/>
      </g>
     </g>
     <g id="text_14">
      <!-- 0.2 -->
      <g transform="translate(69.090625 172.407991)scale(0.3 -0.3)">
       <use xlink:href="#DejaVuSans-48"/>
       <use x="63.623047" xlink:href="#DejaVuSans-46"/>
       <use x="95.410156" xlink:href="#DejaVuSans-50"/>
      </g>
     </g>
    </g>
    <g id="ytick_8">
     <g id="line2d_14">
      <g>
       <use style="stroke:#000000;stroke-width:0.8;" x="123.8" xlink:href="#m89274feb9b" y="106.623682"/>
      </g>
     </g>
     <g id="text_15">
      <!-- 0.4 -->
      <g transform="translate(69.090625 118.021338)scale(0.3 -0.3)">
       <use xlink:href="#DejaVuSans-48"/>
       <use x="63.623047" xlink:href="#DejaVuSans-46"/>
       <use x="95.410156" xlink:href="#DejaVuSans-52"/>
      </g>
     </g>
    </g>
    <g id="ytick_9">
     <g id="line2d_15">
      <g>
       <use style="stroke:#000000;stroke-width:0.8;" x="123.8" xlink:href="#m89274feb9b" y="52.23703"/>
      </g>
     </g>
     <g id="text_16">
      <!-- 0.6 -->
      <g transform="translate(69.090625 63.634686)scale(0.3 -0.3)">
       <use xlink:href="#DejaVuSans-48"/>
       <use x="63.623047" xlink:href="#DejaVuSans-46"/>
       <use x="95.410156" xlink:href="#DejaVuSans-54"/>
      </g>
     </g>
    </g>
    <g id="text_17">
     <!-- Weight Value -->
     <defs>
      <path d="M 3.328125 72.90625 
L 13.28125 72.90625 
L 28.609375 11.28125 
L 43.890625 72.90625 
L 54.984375 72.90625 
L 70.3125 11.28125 
L 85.59375 72.90625 
L 95.609375 72.90625 
L 77.296875 0 
L 64.890625 0 
L 49.515625 63.28125 
L 33.984375 0 
L 21.578125 0 
z
" id="DejaVuSans-87"/>
      <path d="M 45.40625 27.984375 
Q 45.40625 37.75 41.375 43.109375 
Q 37.359375 48.484375 30.078125 48.484375 
Q 22.859375 48.484375 18.828125 43.109375 
Q 14.796875 37.75 14.796875 27.984375 
Q 14.796875 18.265625 18.828125 12.890625 
Q 22.859375 7.515625 30.078125 7.515625 
Q 37.359375 7.515625 41.375 12.890625 
Q 45.40625 18.265625 45.40625 27.984375 
z
M 54.390625 6.78125 
Q 54.390625 -7.171875 48.1875 -13.984375 
Q 42 -20.796875 29.203125 -20.796875 
Q 24.46875 -20.796875 20.265625 -20.09375 
Q 16.0625 -19.390625 12.109375 -17.921875 
L 12.109375 -9.1875 
Q 16.0625 -11.328125 19.921875 -12.34375 
Q 23.78125 -13.375 27.78125 -13.375 
Q 36.625 -13.375 41.015625 -8.765625 
Q 45.40625 -4.15625 45.40625 5.171875 
L 45.40625 9.625 
Q 42.625 4.78125 38.28125 2.390625 
Q 33.9375 0 27.875 0 
Q 17.828125 0 11.671875 7.65625 
Q 5.515625 15.328125 5.515625 27.984375 
Q 5.515625 40.671875 11.671875 48.328125 
Q 17.828125 56 27.875 56 
Q 33.9375 56 38.28125 53.609375 
Q 42.625 51.21875 45.40625 46.390625 
L 45.40625 54.6875 
L 54.390625 54.6875 
z
" id="DejaVuSans-103"/>
      <path d="M 54.890625 33.015625 
L 54.890625 0 
L 45.90625 0 
L 45.90625 32.71875 
Q 45.90625 40.484375 42.875 44.328125 
Q 39.84375 48.1875 33.796875 48.1875 
Q 26.515625 48.1875 22.3125 43.546875 
Q 18.109375 38.921875 18.109375 30.90625 
L 18.109375 0 
L 9.078125 0 
L 9.078125 75.984375 
L 18.109375 75.984375 
L 18.109375 46.1875 
Q 21.34375 51.125 25.703125 53.5625 
Q 30.078125 56 35.796875 56 
Q 45.21875 56 50.046875 50.171875 
Q 54.890625 44.34375 54.890625 33.015625 
z
" id="DejaVuSans-104"/>
      <path d="M 28.609375 0 
L 0.78125 72.90625 
L 11.078125 72.90625 
L 34.1875 11.53125 
L 57.328125 72.90625 
L 67.578125 72.90625 
L 39.796875 0 
z
" id="DejaVuSans-86"/>
      <path d="M 9.421875 75.984375 
L 18.40625 75.984375 
L 18.40625 0 
L 9.421875 0 
z
" id="DejaVuSans-108"/>
      <path d="M 8.5 21.578125 
L 8.5 54.6875 
L 17.484375 54.6875 
L 17.484375 21.921875 
Q 17.484375 14.15625 20.5 10.265625 
Q 23.53125 6.390625 29.59375 6.390625 
Q 36.859375 6.390625 41.078125 11.03125 
Q 45.3125 15.671875 45.3125 23.6875 
L 45.3125 54.6875 
L 54.296875 54.6875 
L 54.296875 0 
L 45.3125 0 
L 45.3125 8.40625 
Q 42.046875 3.421875 37.71875 1 
Q 33.40625 -1.421875 27.6875 -1.421875 
Q 18.265625 -1.421875 13.375 4.4375 
Q 8.5 10.296875 8.5 21.578125 
z
M 31.109375 56 
z
" id="DejaVuSans-117"/>
     </defs>
     <g transform="translate(33.7125 353.732813)rotate(-90)scale(0.3 -0.3)">
      <use xlink:href="#DejaVuSans-87"/>
      <use x="98.798828" xlink:href="#DejaVuSans-101"/>
      <use x="160.322266" xlink:href="#DejaVuSans-105"/>
      <use x="188.105469" xlink:href="#DejaVuSans-103"/>
      <use x="251.582031" xlink:href="#DejaVuSans-104"/>
      <use x="314.960938" xlink:href="#DejaVuSans-116"/>
      <use x="354.169922" xlink:href="#DejaVuSans-32"/>
      <use x="385.957031" xlink:href="#DejaVuSans-86"/>
      <use x="454.255859" xlink:href="#DejaVuSans-97"/>
      <use x="515.535156" xlink:href="#DejaVuSans-108"/>
      <use x="543.318359" xlink:href="#DejaVuSans-117"/>
      <use x="606.697266" xlink:href="#DejaVuSans-101"/>
     </g>
    </g>
   </g>
   <g id="line2d_16">
    <path clip-path="url(#pdf9170a970)" d="M 184.062771 225.036408 
L 188.694805 189.665184 
L 193.32684 208.879293 
L 197.958874 199.330125 
L 202.590909 338.069475 
L 207.222944 230.679581 
L 211.854978 282.701463 
L 216.487013 141.813016 
L 221.119048 163.065266 
L 225.751082 159.522107 
L 230.383117 185.440407 
L 235.015152 218.649873 
L 239.647186 228.35028 
L 244.279221 210.513658 
L 248.911255 314.256163 
L 253.54329 173.691881 
L 258.175325 190.696294 
L 262.807359 164.109133 
L 267.439394 172.84876 
L 276.703463 297.722486 
L 281.335498 208.491838 
L 285.967532 151.040628 
L 290.599567 265.88473 
L 295.231602 209.827943 
L 299.863636 253.355647 
L 304.495671 154.340963 
L 309.127706 253.763149 
L 313.75974 267.3748 
L 318.391775 314.309035 
L 323.02381 224.624971 
L 327.655844 156.600147 
L 332.287879 248.476062 
L 336.919913 202.638372 
L 341.551948 193.06452 
L 346.183983 221.56851 
L 350.816017 179.110029 
L 355.448052 274.875268 
L 360.080087 178.901771 
L 364.712121 203.380624 
L 369.344156 222.563399 
L 373.97619 196.842167 
L 378.608225 267.658242 
L 383.24026 198.673843 
L 387.872294 201.402727 
L 392.504329 229.600399 
L 397.136364 189.819766 
L 401.768398 222.370242 
L 406.400433 174.629449 
L 411.032468 231.096825 
L 415.664502 148.578057 
L 420.296537 218.162871 
L 424.928571 201.540724 
L 429.560606 174.861291 
L 434.192641 166.30315 
L 438.824675 138.966603 
L 443.45671 246.108943 
L 448.088745 299.010988 
L 452.720779 334.731929 
L 457.352814 204.982635 
L 461.984848 242.7797 
L 466.616883 242.22305 
L 471.248918 303.649856 
L 475.880952 282.549241 
L 480.512987 196.972931 
L 485.145022 191.15124 
L 489.777056 310.966026 
L 494.409091 195.620552 
L 499.041126 172.586568 
L 503.67316 281.347353 
L 508.305195 153.80009 
L 512.937229 154.394451 
L 517.569264 265.061902 
L 522.201299 260.95748 
L 526.833333 149.937803 
L 531.465368 235.194159 
L 536.097403 234.265463 
L 540.729437 203.14568 
L 545.361472 174.574356 
L 549.993506 167.270545 
L 554.625541 346.693305 
L 559.257576 231.27534 
L 563.88961 189.606245 
L 568.521645 168.149394 
L 573.15368 275.500377 
L 577.785714 198.896516 
L 582.417749 273.301392 
L 587.049784 176.38751 
L 591.681818 194.28324 
L 596.313853 181.323679 
L 600.945887 235.172188 
L 605.577922 225.206076 
L 610.209957 232.74298 
L 614.841991 318.646668 
L 619.474026 162.320923 
L 624.106061 314.41375 
L 628.738095 276.903323 
L 633.37013 198.813833 
L 638.002165 233.88427 
L 642.634199 164.192517 
L 647.266234 272.561779 
L 651.898268 221.113766 
L 656.530303 286.054541 
L 661.162338 321.636032 
L 665.794372 318.092346 
L 670.426407 289.359507 
L 675.058442 154.040636 
L 679.690476 207.729972 
L 684.322511 153.873235 
L 688.954545 193.685401 
L 693.58658 255.860081 
L 698.218615 66.07069 
L 702.850649 237.053161 
L 707.482684 291.044379 
L 712.114719 101.852324 
L 716.746753 112.320939 
L 726.010823 268.572591 
L 730.642857 203.772192 
L 735.274892 130.302908 
L 739.906926 301.079628 
L 744.538961 210.876434 
L 749.170996 261.903022 
L 758.435065 175.820712 
L 763.0671 232.900139 
L 767.699134 120.026996 
L 772.331169 241.125508 
L 776.963203 261.789032 
L 781.595238 287.569386 
L 786.227273 287.237776 
L 790.859307 248.505509 
L 795.491342 260.927429 
L 800.123377 237.889314 
L 804.755411 183.709276 
L 809.387446 146.480833 
L 814.019481 272.136675 
L 818.651515 81.089991 
L 823.28355 198.89523 
L 827.915584 170.833385 
L 832.547619 189.55361 
L 837.179654 219.521484 
L 841.811688 188.276384 
L 846.443723 181.842219 
L 851.075758 146.885259 
L 855.707792 266.662101 
L 860.339827 217.051363 
L 864.971861 192.657055 
L 869.603896 266.411246 
L 874.235931 252.88238 
L 878.867965 136.991405 
L 883.5 120.726408 
L 888.132035 243.958606 
L 892.764069 239.201614 
L 897.396104 211.548105 
L 902.028139 261.602845 
L 906.660173 158.641387 
L 911.292208 286.272358 
L 915.924242 179.145421 
L 920.556277 151.59072 
L 925.188312 234.318589 
L 929.820346 253.962461 
L 934.452381 349.872559 
L 939.084416 112.177145 
L 943.71645 247.991291 
L 948.348485 218.32509 
L 952.980519 200.66212 
L 957.612554 216.896894 
L 962.244589 193.583933 
L 966.876623 211.636792 
L 971.508658 195.85583 
L 976.140693 202.825023 
L 980.772727 133.913267 
L 985.404762 279.064542 
L 990.036797 198.458223 
L 994.668831 173.683076 
L 999.300866 195.812355 
L 1003.9329 206.529102 
L 1008.564935 198.243488 
L 1013.19697 205.403313 
L 1017.829004 212.012504 
L 1022.461039 189.030818 
L 1027.093074 263.329442 
L 1031.725108 147.689135 
L 1036.357143 161.522968 
L 1040.989177 113.337454 
L 1045.621212 192.174832 
L 1050.253247 183.130196 
L 1054.885281 249.631667 
L 1059.517316 215.523302 
L 1064.149351 211.197753 
L 1068.781385 146.061081 
L 1073.41342 185.851896 
L 1078.045455 117.12032 
L 1082.677489 225.307545 
L 1087.309524 202.641367 
L 1091.941558 286.555358 
L 1096.573593 201.943237 
L 1101.205628 194.823098 
L 1105.837662 148.350295 
L 1110.469697 175.893415 
L 1115.101732 193.145151 
L 1119.733766 187.284971 
L 1124.365801 193.711999 
L 1128.997835 156.324991 
L 1133.62987 260.772654 
L 1138.261905 217.197312 
L 1142.893939 264.4588 
L 1147.525974 251.610107 
L 1152.158009 285.782392 
L 1156.790043 163.43563 
L 1161.422078 223.731805 
L 1166.054113 204.076057 
L 1170.686147 248.12482 
L 1175.318182 144.469748 
L 1179.950216 193.699232 
L 1184.582251 210.243346 
L 1189.214286 193.968026 
L 1193.84632 190.771781 
L 1198.478355 257.576868 
L 1203.11039 239.370936 
L 1207.742424 269.631005 
L 1212.374459 229.052078 
L 1217.006494 226.907744 
L 1221.638528 153.702795 
L 1226.270563 241.276575 
L 1230.902597 205.392154 
L 1235.534632 243.50491 
L 1240.166667 87.297177 
L 1244.798701 240.632991 
L 1249.430736 283.261166 
L 1254.062771 164.784962 
L 1258.694805 259.289801 
L 1263.32684 224.651541 
L 1267.958874 249.356333 
L 1272.590909 181.598362 
L 1277.222944 185.344169 
L 1281.854978 177.427674 
L 1286.487013 183.126936 
L 1291.119048 242.152735 
L 1295.751082 264.993064 
L 1300.383117 220.046803 
L 1305.015152 180.999497 
L 1309.647186 238.663129 
L 1314.279221 318.424799 
L 1318.911255 216.590909 
L 1323.54329 206.395517 
L 1328.175325 188.793128 
L 1332.807359 186.08606 
L 1337.439394 218.223656 
L 1342.071429 154.034623 
L 1346.703463 188.271829 
L 1351.335498 191.312857 
L 1355.967532 162.043203 
L 1360.599567 72.352094 
L 1365.231602 256.465383 
L 1365.231602 256.465383 
" style="fill:none;stroke:#1f77b4;stroke-linecap:square;stroke-width:1.5;"/>
   </g>
   <g id="line2d_17">
    <path clip-path="url(#pdf9170a970)" d="M 184.062771 208.490931 
L 188.694805 212.541597 
L 193.32684 474.136364 
L 197.958874 234.524688 
L 202.590909 259.638854 
L 207.222944 265.241731 
L 211.854978 187.271995 
L 216.487013 217.928843 
L 221.119048 440.518976 
L 225.751082 250.065868 
L 230.383117 257.417619 
L 235.015152 225.397704 
L 239.647186 225.496941 
L 244.279221 177.796032 
L 248.911255 155.856441 
L 253.54329 241.661592 
L 258.175325 240.512376 
L 262.807359 217.988365 
L 267.439394 262.759969 
L 272.071429 315.250091 
L 276.703463 190.946021 
L 281.335498 280.947822 
L 285.967532 307.824149 
L 290.599567 228.27258 
L 295.231602 205.505641 
L 299.863636 201.810584 
L 304.495671 234.936888 
L 309.127706 236.28456 
L 313.75974 230.759527 
L 318.391775 179.16496 
L 323.02381 202.62182 
L 327.655844 184.390154 
L 332.287879 231.760905 
L 336.919913 156.540714 
L 341.551948 58.045464 
L 346.183983 160.436614 
L 350.816017 338.474784 
L 355.448052 255.441858 
L 360.080087 198.29292 
L 364.712121 237.035791 
L 369.344156 190.525074 
L 373.97619 105.685606 
L 378.608225 218.166725 
L 383.24026 78.993051 
L 387.872294 126.466279 
L 392.504329 280.884925 
L 397.136364 266.568258 
L 401.768398 203.096541 
L 406.400433 195.90355 
L 411.032468 266.426433 
L 415.664502 281.30857 
L 420.296537 183.183505 
L 424.928571 153.843525 
L 429.560606 152.375717 
L 434.192641 248.183135 
L 438.824675 220.920387 
L 443.45671 73.406732 
L 448.088745 259.798771 
L 452.720779 308.428491 
L 457.352814 150.69168 
L 461.984848 200.3001 
L 466.616883 223.868158 
L 471.248918 148.318247 
L 475.880952 197.578124 
L 480.512987 202.448626 
L 485.145022 286.116133 
L 489.777056 286.862647 
L 494.409091 208.663016 
L 499.041126 198.043919 
L 503.67316 302.127839 
L 508.305195 146.390349 
L 512.937229 210.547183 
L 517.569264 155.59281 
L 522.201299 168.080418 
L 526.833333 155.798613 
L 531.465368 312.733076 
L 536.097403 180.654617 
L 540.729437 207.454559 
L 549.993506 259.574884 
L 554.625541 226.990405 
L 559.257576 156.371972 
L 563.88961 174.433079 
L 568.521645 200.212383 
L 573.15368 227.637045 
L 577.785714 178.325182 
L 582.417749 198.015313 
L 587.049784 185.334649 
L 591.681818 124.625473 
L 596.313853 248.86148 
L 600.945887 233.963775 
L 605.577922 231.118846 
L 610.209957 186.769596 
L 614.841991 255.812505 
L 619.474026 217.129269 
L 624.106061 229.659989 
L 628.738095 218.412132 
L 633.37013 145.663195 
L 638.002165 68.57127 
L 642.634199 172.831579 
L 647.266234 244.004557 
L 651.898268 239.11097 
L 656.530303 158.130029 
L 661.162338 179.110455 
L 665.794372 341.337365 
L 670.426407 110.797309 
L 675.058442 294.187294 
L 679.690476 269.970297 
L 684.322511 218.863341 
L 688.954545 264.83504 
L 693.58658 211.568324 
L 698.218615 254.588878 
L 702.850649 269.060867 
L 707.482684 278.423047 
L 712.114719 244.419283 
L 716.746753 186.762408 
L 721.378788 189.157031 
L 726.010823 195.726434 
L 730.642857 281.851794 
L 735.274892 228.724741 
L 739.906926 249.385089 
L 744.538961 287.745823 
L 749.170996 307.395427 
L 753.80303 275.396712 
L 758.435065 309.018925 
L 763.0671 203.861641 
L 767.699134 285.809071 
L 772.331169 134.665471 
L 776.963203 285.28749 
L 781.595238 201.603233 
L 786.227273 190.717574 
L 790.859307 151.363084 
L 795.491342 242.039709 
L 800.123377 203.168146 
L 804.755411 311.957183 
L 809.387446 220.099637 
L 814.019481 282.51107 
L 818.651515 186.717976 
L 823.28355 193.045492 
L 827.915584 247.130314 
L 832.547619 270.580186 
L 837.179654 253.829454 
L 841.811688 266.017696 
L 846.443723 181.257362 
L 851.075758 229.315112 
L 855.707792 237.181412 
L 860.339827 213.407261 
L 864.971861 281.063336 
L 869.603896 193.974349 
L 874.235931 187.180384 
L 878.867965 261.182405 
L 883.5 229.181883 
L 888.132035 257.697852 
L 892.764069 230.366016 
L 897.396104 225.921854 
L 902.028139 225.056168 
L 906.660173 235.851263 
L 911.292208 215.200214 
L 915.924242 165.467627 
L 920.556277 165.381547 
L 925.188312 247.255047 
L 929.820346 197.685835 
L 934.452381 214.868312 
L 939.084416 209.746371 
L 943.71645 202.325766 
L 948.348485 398.234717 
L 952.980519 220.429309 
L 957.612554 161.616446 
L 962.244589 288.138004 
L 966.876623 204.241613 
L 971.508658 183.09152 
L 976.140693 225.71846 
L 980.772727 318.076543 
L 985.404762 243.512736 
L 990.036797 269.000252 
L 994.668831 242.760312 
L 999.300866 215.570465 
L 1003.9329 182.831216 
L 1008.564935 179.140619 
L 1013.19697 242.659449 
L 1017.829004 293.970822 
L 1022.461039 203.478132 
L 1027.093074 155.750583 
L 1036.357143 226.601034 
L 1040.989177 154.306703 
L 1045.621212 217.512394 
L 1050.253247 191.195625 
L 1054.885281 204.268956 
L 1059.517316 271.538622 
L 1064.149351 283.444512 
L 1068.781385 215.412523 
L 1073.41342 126.091717 
L 1078.045455 286.594421 
L 1082.677489 198.487878 
L 1087.309524 238.68416 
L 1091.941558 223.85314 
L 1096.573593 118.153036 
L 1101.205628 193.100019 
L 1105.837662 182.927817 
L 1110.469697 155.85969 
L 1115.101732 214.392415 
L 1119.733766 247.96522 
L 1124.365801 238.76846 
L 1128.997835 326.771342 
L 1133.62987 202.909026 
L 1138.261905 162.834903 
L 1142.893939 48.366194 
L 1147.525974 227.558968 
L 1152.158009 319.202644 
L 1156.790043 213.619983 
L 1161.422078 241.38639 
L 1166.054113 157.162152 
L 1170.686147 201.397322 
L 1175.318182 193.911586 
L 1179.950216 397.044495 
L 1184.582251 159.098932 
L 1189.214286 277.417711 
L 1193.84632 204.733276 
L 1198.478355 198.697573 
L 1203.11039 282.377009 
L 1207.742424 187.047999 
L 1212.374459 224.076503 
L 1217.006494 158.867641 
L 1221.638528 79.358358 
L 1226.270563 216.90667 
L 1230.902597 214.969028 
L 1235.534632 158.463425 
L 1240.166667 177.814846 
L 1244.798701 245.711338 
L 1249.430736 179.693024 
L 1254.062771 212.400397 
L 1258.694805 234.362522 
L 1263.32684 262.272936 
L 1267.958874 293.936306 
L 1272.590909 153.005947 
L 1277.222944 215.66761 
L 1281.854978 226.186888 
L 1286.487013 264.373475 
L 1291.119048 339.416846 
L 1295.751082 296.825727 
L 1300.383117 262.566881 
L 1305.015152 192.357612 
L 1309.647186 127.911241 
L 1314.279221 211.325647 
L 1318.911255 208.722536 
L 1323.54329 161.800384 
L 1328.175325 228.290761 
L 1332.807359 227.152947 
L 1337.439394 239.1413 
L 1342.071429 258.004476 
L 1346.703463 228.354335 
L 1351.335498 183.309666 
L 1355.967532 161.440596 
L 1360.599567 194.632474 
L 1365.231602 155.902108 
L 1365.231602 155.902108 
" style="fill:none;stroke:#ff7f0e;stroke-linecap:square;stroke-width:1.5;"/>
   </g>
   <g id="line2d_18">
    <path clip-path="url(#pdf9170a970)" d="M 184.062771 200.575661 
L 188.694805 305.136077 
L 193.32684 181.661555 
L 197.958874 250.348823 
L 202.590909 431.702403 
L 207.222944 193.205666 
L 211.854978 204.391982 
L 216.487013 431.492795 
L 221.119048 200.998008 
L 225.751082 255.155717 
L 230.383117 197.574604 
L 235.015152 218.25161 
L 239.647186 220.830026 
L 244.279221 187.467203 
L 248.911255 175.01034 
L 253.54329 275.598738 
L 258.175325 253.731563 
L 262.807359 206.146307 
L 267.439394 170.829657 
L 272.071429 202.526637 
L 276.703463 176.021077 
L 281.335498 224.701739 
L 285.967532 163.180451 
L 290.599567 145.215193 
L 295.231602 218.46657 
L 299.863636 267.23157 
L 304.495671 238.797281 
L 309.127706 311.843197 
L 313.75974 209.770128 
L 318.391775 200.855999 
L 323.02381 135.27294 
L 327.655844 161.835175 
L 332.287879 186.89129 
L 336.919913 198.052335 
L 341.551948 234.809995 
L 346.183983 238.182057 
L 350.816017 239.024157 
L 355.448052 191.512149 
L 360.080087 182.732849 
L 364.712121 187.042085 
L 369.344156 237.154847 
L 373.97619 175.397869 
L 378.608225 323.86995 
L 383.24026 285.805132 
L 387.872294 215.642195 
L 392.504329 246.182406 
L 397.136364 112.239791 
L 401.768398 298.240355 
L 406.400433 244.001449 
L 411.032468 90.560901 
L 415.664502 129.019423 
L 420.296537 320.987701 
L 424.928571 259.508356 
L 429.560606 180.092657 
L 434.192641 211.970854 
L 438.824675 205.114711 
L 443.45671 293.677545 
L 448.088745 208.231987 
L 452.720779 267.049151 
L 457.352814 186.121725 
L 461.984848 187.270544 
L 466.616883 209.801445 
L 471.248918 273.933247 
L 475.880952 194.822955 
L 480.512987 222.524721 
L 485.145022 218.245192 
L 489.777056 226.064809 
L 494.409091 219.034746 
L 499.041126 235.365201 
L 503.67316 181.969253 
L 508.305195 112.518982 
L 512.937229 229.769328 
L 517.569264 264.262143 
L 522.201299 220.23139 
L 526.833333 168.962237 
L 531.465368 155.764936 
L 536.097403 248.540639 
L 540.729437 155.326058 
L 545.361472 148.228946 
L 549.993506 161.860193 
L 554.625541 146.476424 
L 559.257576 175.972148 
L 563.88961 157.205428 
L 568.521645 234.909659 
L 573.15368 201.732982 
L 577.785714 300.089841 
L 582.417749 144.463638 
L 587.049784 273.69463 
L 591.681818 176.908054 
L 596.313853 32.863636 
L 600.945887 257.488382 
L 605.577922 239.025142 
L 610.209957 211.754202 
L 614.841991 188.205699 
L 619.474026 288.196297 
L 624.106061 271.778495 
L 628.738095 199.067254 
L 633.37013 214.080183 
L 638.002165 154.582101 
L 642.634199 204.199839 
L 647.266234 167.389779 
L 651.898268 138.892708 
L 656.530303 210.936671 
L 661.162338 218.374068 
L 665.794372 138.254896 
L 670.426407 283.770425 
L 675.058442 169.481533 
L 679.690476 220.151792 
L 684.322511 284.826221 
L 688.954545 187.911673 
L 693.58658 205.073435 
L 698.218615 141.172602 
L 702.850649 201.984304 
L 707.482684 234.602091 
L 712.114719 187.689754 
L 716.746753 322.065249 
L 721.378788 292.843959 
L 726.010823 170.195759 
L 730.642857 256.957975 
L 735.274892 117.222061 
L 739.906926 261.908172 
L 744.538961 190.828013 
L 749.170996 167.725043 
L 753.80303 150.362574 
L 758.435065 144.635569 
L 763.0671 269.475023 
L 767.699134 212.703592 
L 772.331169 246.19721 
L 776.963203 243.008061 
L 781.595238 189.114061 
L 786.227273 229.253518 
L 790.859307 156.515409 
L 800.123377 223.839225 
L 804.755411 208.364205 
L 809.387446 255.810475 
L 814.019481 187.335743 
L 818.651515 191.57349 
L 823.28355 138.635537 
L 827.915584 277.010546 
L 832.547619 163.477565 
L 837.179654 233.977759 
L 841.811688 182.000211 
L 846.443723 320.664771 
L 851.075758 203.460358 
L 855.707792 303.507943 
L 860.339827 88.375657 
L 864.971861 252.023111 
L 869.603896 196.901158 
L 874.235931 243.316008 
L 878.867965 242.859178 
L 883.5 134.893646 
L 888.132035 222.020401 
L 892.764069 284.181253 
L 897.396104 206.6586 
L 902.028139 272.427167 
L 906.660173 276.230533 
L 911.292208 201.077427 
L 915.924242 324.020462 
L 920.556277 160.92216 
L 925.188312 132.7565 
L 929.820346 183.378036 
L 934.452381 184.808106 
L 939.084416 256.120462 
L 943.71645 291.530318 
L 948.348485 178.833371 
L 952.980519 209.128623 
L 957.612554 166.480738 
L 962.244589 241.134627 
L 966.876623 234.684525 
L 971.508658 248.290301 
L 976.140693 334.128066 
L 980.772727 206.700069 
L 985.404762 231.267228 
L 990.036797 242.09824 
L 994.668831 145.599764 
L 999.300866 238.567361 
L 1003.9329 228.341315 
L 1008.564935 249.533095 
L 1013.19697 260.754849 
L 1017.829004 320.50485 
L 1022.461039 192.34239 
L 1027.093074 226.717557 
L 1031.725108 51.295132 
L 1036.357143 251.189833 
L 1040.989177 196.828767 
L 1045.621212 203.068759 
L 1050.253247 287.905209 
L 1054.885281 189.603263 
L 1059.517316 165.085698 
L 1064.149351 299.73165 
L 1068.781385 226.383012 
L 1073.41342 273.994913 
L 1078.045455 242.933401 
L 1082.677489 193.71461 
L 1087.309524 288.933119 
L 1091.941558 230.40328 
L 1096.573593 323.597607 
L 1101.205628 245.910903 
L 1105.837662 201.142231 
L 1110.469697 248.255894 
L 1115.101732 267.185542 
L 1119.733766 255.876541 
L 1124.365801 242.299446 
L 1128.997835 197.716212 
L 1133.62987 179.90927 
L 1138.261905 259.352953 
L 1142.893939 294.496738 
L 1147.525974 207.098982 
L 1152.158009 221.093384 
L 1156.790043 327.502953 
L 1161.422078 155.189174 
L 1166.054113 188.980679 
L 1170.686147 197.330219 
L 1175.318182 274.054604 
L 1179.950216 163.633868 
L 1184.582251 310.655569 
L 1189.214286 116.392527 
L 1193.84632 172.020324 
L 1198.478355 280.634869 
L 1203.11039 212.78692 
L 1207.742424 176.178364 
L 1212.374459 215.165705 
L 1217.006494 215.366886 
L 1221.638528 285.112487 
L 1226.270563 115.168713 
L 1230.902597 221.098448 
L 1235.534632 163.488818 
L 1240.166667 245.035159 
L 1244.798701 266.946657 
L 1249.430736 390.017387 
L 1254.062771 251.840778 
L 1258.694805 259.639089 
L 1263.32684 183.442268 
L 1267.958874 278.779706 
L 1272.590909 153.41139 
L 1277.222944 214.717693 
L 1281.854978 309.32029 
L 1286.487013 234.55833 
L 1291.119048 214.224909 
L 1295.751082 195.306934 
L 1300.383117 267.925163 
L 1305.015152 253.055551 
L 1309.647186 280.46359 
L 1314.279221 172.852095 
L 1318.911255 212.073727 
L 1323.54329 212.049586 
L 1328.175325 202.467446 
L 1332.807359 237.36052 
L 1337.439394 259.515674 
L 1342.071429 37.903746 
L 1346.703463 198.035053 
L 1351.335498 188.16039 
L 1355.967532 169.88933 
L 1360.599567 167.426078 
L 1365.231602 195.161562 
L 1365.231602 195.161562 
" style="fill:none;stroke:#2ca02c;stroke-linecap:square;stroke-width:1.5;"/>
   </g>
   <g id="line2d_19">
    <path clip-path="url(#pdf9170a970)" d="M 184.062771 190.872349 
L 188.694805 231.450432 
L 193.32684 190.41718 
L 197.958874 213.01492 
L 202.590909 167.264783 
L 207.222944 140.948333 
L 211.854978 259.512339 
L 216.487013 249.853824 
L 221.119048 306.812083 
L 225.751082 169.921224 
L 230.383117 208.473465 
L 235.015152 252.533395 
L 239.647186 278.604671 
L 244.279221 260.959708 
L 248.911255 151.942006 
L 253.54329 285.360599 
L 258.175325 198.628892 
L 262.807359 230.195003 
L 267.439394 184.143577 
L 272.071429 158.114732 
L 276.703463 126.963206 
L 281.335498 223.473361 
L 285.967532 372.482286 
L 290.599567 237.085349 
L 295.231602 260.309128 
L 299.863636 308.573873 
L 304.495671 90.051395 
L 309.127706 159.430922 
L 313.75974 209.496763 
L 318.391775 257.502292 
L 323.02381 201.773229 
L 327.655844 89.496166 
L 332.287879 216.54608 
L 336.919913 228.969806 
L 341.551948 199.069011 
L 346.183983 188.68301 
L 350.816017 192.484947 
L 355.448052 181.141171 
L 360.080087 221.700433 
L 364.712121 237.343625 
L 369.344156 331.01525 
L 373.97619 100.957526 
L 378.608225 225.169059 
L 383.24026 237.383329 
L 387.872294 236.278523 
L 392.504329 277.736074 
L 397.136364 182.419695 
L 401.768398 255.791264 
L 406.400433 230.240702 
L 411.032468 173.234838 
L 415.664502 208.957239 
L 420.296537 218.26603 
L 424.928571 214.263896 
L 429.560606 183.579742 
L 434.192641 326.182626 
L 438.824675 261.879665 
L 443.45671 282.833659 
L 448.088745 189.311895 
L 452.720779 201.529862 
L 457.352814 280.610203 
L 461.984848 214.509441 
L 466.616883 235.121419 
L 471.248918 220.824213 
L 475.880952 297.487771 
L 480.512987 220.770955 
L 485.145022 211.612 
L 489.777056 207.605773 
L 494.409091 330.683608 
L 499.041126 174.58274 
L 503.67316 245.26737 
L 508.305195 241.301822 
L 512.937229 169.769646 
L 517.569264 197.692811 
L 522.201299 120.308229 
L 526.833333 130.55833 
L 531.465368 176.293983 
L 536.097403 193.078012 
L 540.729437 156.278882 
L 545.361472 238.053392 
L 549.993506 205.693133 
L 554.625541 162.404037 
L 559.257576 168.329057 
L 563.88961 151.478342 
L 568.521645 208.320801 
L 573.15368 275.39456 
L 577.785714 158.796315 
L 582.417749 188.425107 
L 587.049784 164.390184 
L 591.681818 272.696504 
L 596.313853 214.530453 
L 600.945887 323.463441 
L 605.577922 191.718701 
L 610.209957 169.549584 
L 614.841991 347.925434 
L 619.474026 233.116628 
L 624.106061 88.36906 
L 628.738095 174.934521 
L 633.37013 141.689766 
L 638.002165 222.556195 
L 642.634199 285.389863 
L 647.266234 170.902972 
L 651.898268 198.836355 
L 656.530303 347.317737 
L 661.162338 189.049257 
L 665.794372 243.251194 
L 670.426407 182.828969 
L 675.058442 108.571705 
L 679.690476 215.040634 
L 684.322511 202.44173 
L 688.954545 287.954199 
L 693.58658 234.782757 
L 698.218615 215.84207 
L 702.850649 231.758839 
L 707.482684 139.337413 
L 712.114719 258.125557 
L 716.746753 156.339713 
L 721.378788 167.513527 
L 726.010823 198.160051 
L 730.642857 212.965545 
L 735.274892 175.502276 
L 739.906926 108.266524 
L 744.538961 151.578993 
L 749.170996 201.303943 
L 753.80303 284.861807 
L 758.435065 202.150174 
L 763.0671 171.865558 
L 767.699134 66.630256 
L 772.331169 182.444609 
L 776.963203 116.548825 
L 781.595238 276.838736 
L 786.227273 244.755234 
L 790.859307 202.615953 
L 795.491342 174.177151 
L 800.123377 150.624078 
L 804.755411 269.626236 
L 809.387446 158.385191 
L 814.019481 232.307637 
L 818.651515 278.672779 
L 823.28355 165.296453 
L 827.915584 186.777579 
L 832.547619 210.772469 
L 837.179654 303.182841 
L 841.811688 188.299862 
L 846.443723 203.108359 
L 851.075758 234.49923 
L 855.707792 70.560797 
L 860.339827 283.565258 
L 864.971861 278.484866 
L 869.603896 123.783069 
L 874.235931 203.01661 
L 878.867965 140.941745 
L 883.5 160.263771 
L 888.132035 261.073184 
L 892.764069 306.494073 
L 897.396104 136.153661 
L 902.028139 233.571945 
L 906.660173 247.423023 
L 911.292208 177.41912 
L 915.924242 114.865468 
L 920.556277 254.124975 
L 925.188312 211.201262 
L 929.820346 149.204652 
L 934.452381 224.568363 
L 939.084416 238.248293 
L 943.71645 161.475683 
L 948.348485 253.61068 
L 952.980519 201.740023 
L 957.612554 246.980793 
L 962.244589 149.325535 
L 966.876623 210.979305 
L 971.508658 187.288868 
L 976.140693 153.067519 
L 980.772727 241.702168 
L 985.404762 130.662453 
L 990.036797 157.521121 
L 994.668831 182.803119 
L 999.300866 182.432973 
L 1003.9329 217.556654 
L 1008.564935 230.940216 
L 1013.19697 94.064649 
L 1017.829004 158.051418 
L 1022.461039 146.894781 
L 1027.093074 271.805807 
L 1031.725108 136.96137 
L 1036.357143 222.563806 
L 1040.989177 279.461289 
L 1045.621212 193.128116 
L 1050.253247 266.208944 
L 1054.885281 244.432975 
L 1059.517316 270.084287 
L 1064.149351 320.106259 
L 1068.781385 178.798948 
L 1073.41342 228.237497 
L 1078.045455 234.530697 
L 1082.677489 161.02339 
L 1087.309524 178.286699 
L 1091.941558 169.574926 
L 1096.573593 203.904527 
L 1101.205628 219.139402 
L 1105.837662 170.876086 
L 1110.469697 206.889756 
L 1115.101732 186.953666 
L 1119.733766 165.967788 
L 1124.365801 200.380317 
L 1128.997835 192.659474 
L 1133.62987 191.649829 
L 1138.261905 192.603215 
L 1142.893939 195.487553 
L 1147.525974 319.909739 
L 1152.158009 165.292093 
L 1156.790043 162.252795 
L 1161.422078 205.236619 
L 1166.054113 291.04989 
L 1170.686147 272.9556 
L 1175.318182 204.190959 
L 1179.950216 195.298704 
L 1184.582251 235.581754 
L 1189.214286 224.637006 
L 1193.84632 152.699627 
L 1198.478355 269.336006 
L 1203.11039 225.599667 
L 1207.742424 216.831824 
L 1212.374459 263.887103 
L 1217.006494 168.098341 
L 1221.638528 235.749751 
L 1226.270563 208.941444 
L 1230.902597 179.749203 
L 1235.534632 403.546416 
L 1240.166667 187.878184 
L 1244.798701 266.312066 
L 1249.430736 244.604761 
L 1254.062771 213.079554 
L 1258.694805 253.927722 
L 1263.32684 217.540894 
L 1267.958874 245.973401 
L 1272.590909 203.14945 
L 1277.222944 178.516179 
L 1281.854978 228.225145 
L 1286.487013 156.081406 
L 1291.119048 311.219325 
L 1295.751082 219.079417 
L 1300.383117 137.272022 
L 1305.015152 116.031928 
L 1309.647186 182.311864 
L 1314.279221 116.05676 
L 1318.911255 207.34894 
L 1323.54329 239.357537 
L 1328.175325 203.894892 
L 1332.807359 162.450753 
L 1337.439394 80.729328 
L 1342.071429 146.511856 
L 1346.703463 166.963747 
L 1351.335498 197.064847 
L 1355.967532 68.589343 
L 1360.599567 165.304942 
L 1365.231602 203.641092 
L 1365.231602 203.641092 
" style="fill:none;stroke:#d62728;stroke-linecap:square;stroke-width:1.5;"/>
   </g>
   <g id="patch_13">
    <path d="M 123.8 496.2 
L 123.8 10.8 
" style="fill:none;stroke:#000000;stroke-linecap:square;stroke-linejoin:miter;stroke-width:0.8;"/>
   </g>
   <g id="patch_14">
    <path d="M 1429.2 496.2 
L 1429.2 10.8 
" style="fill:none;stroke:#000000;stroke-linecap:square;stroke-linejoin:miter;stroke-width:0.8;"/>
   </g>
   <g id="patch_15">
    <path d="M 123.8 496.2 
L 1429.2 496.2 
" style="fill:none;stroke:#000000;stroke-linecap:square;stroke-linejoin:miter;stroke-width:0.8;"/>
   </g>
   <g id="patch_16">
    <path d="M 123.8 10.8 
L 1429.2 10.8 
" style="fill:none;stroke:#000000;stroke-linecap:square;stroke-linejoin:miter;stroke-width:0.8;"/>
   </g>
  </g>
 </g>
 <defs>
  <clipPath id="pdf9170a970">
   <rect height="485.4" width="1305.4" x="123.8" y="10.8"/>
  </clipPath>
 </defs>
</svg>
