<?xml version="1.0" encoding="utf-8" standalone="no"?>
<!DOCTYPE svg PUBLIC "-//W3C//DTD SVG 1.1//EN"
  "http://www.w3.org/Graphics/SVG/1.1/DTD/svg11.dtd">
<!-- Created with matplotlib (https://matplotlib.org/) -->
<svg height="576pt" version="1.1" viewBox="0 0 1440 576" width="1440pt" xmlns="http://www.w3.org/2000/svg" xmlns:xlink="http://www.w3.org/1999/xlink">
 <defs>
  <style type="text/css">
*{stroke-linecap:butt;stroke-linejoin:round;white-space:pre;}
  </style>
 </defs>
 <g id="figure_1">
  <g id="patch_1">
   <path d="M 0 576 
L 1440 576 
L 1440 0 
L 0 0 
z
" style="fill:#ffffff;"/>
  </g>
  <g id="axes_1">
   <g id="patch_2">
    <path d="M 114.175 496.2 
L 1429.2 496.2 
L 1429.2 10.8 
L 114.175 10.8 
z
" style="fill:#ffffff;"/>
   </g>
   <g id="patch_3">
    <path clip-path="url(#p87917939aa)" d="M 173.948864 496.2 
L 173.948864 10.8 
L 174.882101 10.8 
L 174.882101 496.2 
z
" style="fill:#0000ff;"/>
   </g>
   <g id="patch_4">
    <path clip-path="url(#p87917939aa)" d="M 178.615051 496.2 
L 178.615051 10.8 
L 179.548289 10.8 
L 179.548289 496.2 
z
" style="fill:#0000ff;"/>
   </g>
   <g id="patch_5">
    <path clip-path="url(#p87917939aa)" d="M 215.944552 496.2 
L 215.944552 10.8 
L 216.87779 10.8 
L 216.87779 496.2 
z
" style="fill:#0000ff;"/>
   </g>
   <g id="patch_6">
    <path clip-path="url(#p87917939aa)" d="M 346.597806 496.2 
L 346.597806 10.8 
L 347.531044 10.8 
L 347.531044 496.2 
z
" style="fill:#0000ff;"/>
   </g>
   <g id="patch_7">
    <path clip-path="url(#p87917939aa)" d="M 607.904314 496.2 
L 607.904314 10.8 
L 608.837551 10.8 
L 608.837551 496.2 
z
" style="fill:#0000ff;"/>
   </g>
   <g id="patch_8">
    <path clip-path="url(#p87917939aa)" d="M 934.537449 496.2 
L 934.537449 10.8 
L 935.470686 10.8 
L 935.470686 496.2 
z
" style="fill:#0000ff;"/>
   </g>
   <g id="patch_9">
    <path clip-path="url(#p87917939aa)" d="M 1195.843956 496.2 
L 1195.843956 10.8 
L 1196.777194 10.8 
L 1196.777194 496.2 
z
" style="fill:#0000ff;"/>
   </g>
   <g id="patch_10">
    <path clip-path="url(#p87917939aa)" d="M 1326.49721 496.2 
L 1326.49721 10.8 
L 1327.430448 10.8 
L 1327.430448 496.2 
z
" style="fill:#0000ff;"/>
   </g>
   <g id="patch_11">
    <path clip-path="url(#p87917939aa)" d="M 1363.826711 496.2 
L 1363.826711 10.8 
L 1364.759949 10.8 
L 1364.759949 496.2 
z
" style="fill:#0000ff;"/>
   </g>
   <g id="patch_12">
    <path clip-path="url(#p87917939aa)" d="M 1368.492899 496.2 
L 1368.492899 10.8 
L 1369.426136 10.8 
L 1369.426136 496.2 
z
" style="fill:#0000ff;"/>
   </g>
   <g id="matplotlib.axis_1">
    <g id="xtick_1">
     <g id="line2d_1">
      <defs>
       <path d="M 0 0 
L 0 3.5 
" id="m40def89af5" style="stroke:#000000;stroke-width:0.8;"/>
      </defs>
      <g>
       <use style="stroke:#000000;stroke-width:0.8;" x="174.882101" xlink:href="#m40def89af5" y="496.2"/>
      </g>
     </g>
     <g id="text_1">
      <!-- 0 -->
      <defs>
       <path d="M 31.78125 66.40625 
Q 24.171875 66.40625 20.328125 58.90625 
Q 16.5 51.421875 16.5 36.375 
Q 16.5 21.390625 20.328125 13.890625 
Q 24.171875 6.390625 31.78125 6.390625 
Q 39.453125 6.390625 43.28125 13.890625 
Q 47.125 21.390625 47.125 36.375 
Q 47.125 51.421875 43.28125 58.90625 
Q 39.453125 66.40625 31.78125 66.40625 
z
M 31.78125 74.21875 
Q 44.046875 74.21875 50.515625 64.515625 
Q 56.984375 54.828125 56.984375 36.375 
Q 56.984375 17.96875 50.515625 8.265625 
Q 44.046875 -1.421875 31.78125 -1.421875 
Q 19.53125 -1.421875 13.0625 8.265625 
Q 6.59375 17.96875 6.59375 36.375 
Q 6.59375 54.828125 13.0625 64.515625 
Q 19.53125 74.21875 31.78125 74.21875 
z
" id="DejaVuSans-48"/>
      </defs>
      <g transform="translate(165.338351 525.995312)scale(0.3 -0.3)">
       <use xlink:href="#DejaVuSans-48"/>
      </g>
     </g>
    </g>
    <g id="xtick_2">
     <g id="line2d_2">
      <g>
       <use style="stroke:#000000;stroke-width:0.8;" x="408.191483" xlink:href="#m40def89af5" y="496.2"/>
      </g>
     </g>
     <g id="text_2">
      <!-- 50 -->
      <defs>
       <path d="M 10.796875 72.90625 
L 49.515625 72.90625 
L 49.515625 64.59375 
L 19.828125 64.59375 
L 19.828125 46.734375 
Q 21.96875 47.46875 24.109375 47.828125 
Q 26.265625 48.1875 28.421875 48.1875 
Q 40.625 48.1875 47.75 41.5 
Q 54.890625 34.8125 54.890625 23.390625 
Q 54.890625 11.625 47.5625 5.09375 
Q 40.234375 -1.421875 26.90625 -1.421875 
Q 22.3125 -1.421875 17.546875 -0.640625 
Q 12.796875 0.140625 7.71875 1.703125 
L 7.71875 11.625 
Q 12.109375 9.234375 16.796875 8.0625 
Q 21.484375 6.890625 26.703125 6.890625 
Q 35.15625 6.890625 40.078125 11.328125 
Q 45.015625 15.765625 45.015625 23.390625 
Q 45.015625 31 40.078125 35.4375 
Q 35.15625 39.890625 26.703125 39.890625 
Q 22.75 39.890625 18.8125 39.015625 
Q 14.890625 38.140625 10.796875 36.28125 
z
" id="DejaVuSans-53"/>
      </defs>
      <g transform="translate(389.103983 525.995312)scale(0.3 -0.3)">
       <use xlink:href="#DejaVuSans-53"/>
       <use x="63.623047" xlink:href="#DejaVuSans-48"/>
      </g>
     </g>
    </g>
    <g id="xtick_3">
     <g id="line2d_3">
      <g>
       <use style="stroke:#000000;stroke-width:0.8;" x="641.500865" xlink:href="#m40def89af5" y="496.2"/>
      </g>
     </g>
     <g id="text_3">
      <!-- 100 -->
      <defs>
       <path d="M 12.40625 8.296875 
L 28.515625 8.296875 
L 28.515625 63.921875 
L 10.984375 60.40625 
L 10.984375 69.390625 
L 28.421875 72.90625 
L 38.28125 72.90625 
L 38.28125 8.296875 
L 54.390625 8.296875 
L 54.390625 0 
L 12.40625 0 
z
" id="DejaVuSans-49"/>
      </defs>
      <g transform="translate(612.869615 525.995312)scale(0.3 -0.3)">
       <use xlink:href="#DejaVuSans-49"/>
       <use x="63.623047" xlink:href="#DejaVuSans-48"/>
       <use x="127.246094" xlink:href="#DejaVuSans-48"/>
      </g>
     </g>
    </g>
    <g id="xtick_4">
     <g id="line2d_4">
      <g>
       <use style="stroke:#000000;stroke-width:0.8;" x="874.810247" xlink:href="#m40def89af5" y="496.2"/>
      </g>
     </g>
     <g id="text_4">
      <!-- 150 -->
      <g transform="translate(846.178997 525.995312)scale(0.3 -0.3)">
       <use xlink:href="#DejaVuSans-49"/>
       <use x="63.623047" xlink:href="#DejaVuSans-53"/>
       <use x="127.246094" xlink:href="#DejaVuSans-48"/>
      </g>
     </g>
    </g>
    <g id="xtick_5">
     <g id="line2d_5">
      <g>
       <use style="stroke:#000000;stroke-width:0.8;" x="1108.119629" xlink:href="#m40def89af5" y="496.2"/>
      </g>
     </g>
     <g id="text_5">
      <!-- 200 -->
      <defs>
       <path d="M 19.1875 8.296875 
L 53.609375 8.296875 
L 53.609375 0 
L 7.328125 0 
L 7.328125 8.296875 
Q 12.9375 14.109375 22.625 23.890625 
Q 32.328125 33.6875 34.8125 36.53125 
Q 39.546875 41.84375 41.421875 45.53125 
Q 43.3125 49.21875 43.3125 52.78125 
Q 43.3125 58.59375 39.234375 62.25 
Q 35.15625 65.921875 28.609375 65.921875 
Q 23.96875 65.921875 18.8125 64.3125 
Q 13.671875 62.703125 7.8125 59.421875 
L 7.8125 69.390625 
Q 13.765625 71.78125 18.9375 73 
Q 24.125 74.21875 28.421875 74.21875 
Q 39.75 74.21875 46.484375 68.546875 
Q 53.21875 62.890625 53.21875 53.421875 
Q 53.21875 48.921875 51.53125 44.890625 
Q 49.859375 40.875 45.40625 35.40625 
Q 44.1875 33.984375 37.640625 27.21875 
Q 31.109375 20.453125 19.1875 8.296875 
z
" id="DejaVuSans-50"/>
      </defs>
      <g transform="translate(1079.488379 525.995312)scale(0.3 -0.3)">
       <use xlink:href="#DejaVuSans-50"/>
       <use x="63.623047" xlink:href="#DejaVuSans-48"/>
       <use x="127.246094" xlink:href="#DejaVuSans-48"/>
      </g>
     </g>
    </g>
    <g id="xtick_6">
     <g id="line2d_6">
      <g>
       <use style="stroke:#000000;stroke-width:0.8;" x="1341.429011" xlink:href="#m40def89af5" y="496.2"/>
      </g>
     </g>
     <g id="text_6">
      <!-- 250 -->
      <g transform="translate(1312.797761 525.995312)scale(0.3 -0.3)">
       <use xlink:href="#DejaVuSans-50"/>
       <use x="63.623047" xlink:href="#DejaVuSans-53"/>
       <use x="127.246094" xlink:href="#DejaVuSans-48"/>
      </g>
     </g>
    </g>
    <g id="text_7">
     <!-- Bit Interaction -->
     <defs>
      <path d="M 19.671875 34.8125 
L 19.671875 8.109375 
L 35.5 8.109375 
Q 43.453125 8.109375 47.28125 11.40625 
Q 51.125 14.703125 51.125 21.484375 
Q 51.125 28.328125 47.28125 31.5625 
Q 43.453125 34.8125 35.5 34.8125 
z
M 19.671875 64.796875 
L 19.671875 42.828125 
L 34.28125 42.828125 
Q 41.5 42.828125 45.03125 45.53125 
Q 48.578125 48.25 48.578125 53.8125 
Q 48.578125 59.328125 45.03125 62.0625 
Q 41.5 64.796875 34.28125 64.796875 
z
M 9.8125 72.90625 
L 35.015625 72.90625 
Q 46.296875 72.90625 52.390625 68.21875 
Q 58.5 63.53125 58.5 54.890625 
Q 58.5 48.1875 55.375 44.234375 
Q 52.25 40.28125 46.1875 39.3125 
Q 53.46875 37.75 57.5 32.78125 
Q 61.53125 27.828125 61.53125 20.40625 
Q 61.53125 10.640625 54.890625 5.3125 
Q 48.25 0 35.984375 0 
L 9.8125 0 
z
" id="DejaVuSans-66"/>
      <path d="M 9.421875 54.6875 
L 18.40625 54.6875 
L 18.40625 0 
L 9.421875 0 
z
M 9.421875 75.984375 
L 18.40625 75.984375 
L 18.40625 64.59375 
L 9.421875 64.59375 
z
" id="DejaVuSans-105"/>
      <path d="M 18.3125 70.21875 
L 18.3125 54.6875 
L 36.8125 54.6875 
L 36.8125 47.703125 
L 18.3125 47.703125 
L 18.3125 18.015625 
Q 18.3125 11.328125 20.140625 9.421875 
Q 21.96875 7.515625 27.59375 7.515625 
L 36.8125 7.515625 
L 36.8125 0 
L 27.59375 0 
Q 17.1875 0 13.234375 3.875 
Q 9.28125 7.765625 9.28125 18.015625 
L 9.28125 47.703125 
L 2.6875 47.703125 
L 2.6875 54.6875 
L 9.28125 54.6875 
L 9.28125 70.21875 
z
" id="DejaVuSans-116"/>
      <path id="DejaVuSans-32"/>
      <path d="M 9.8125 72.90625 
L 19.671875 72.90625 
L 19.671875 0 
L 9.8125 0 
z
" id="DejaVuSans-73"/>
      <path d="M 54.890625 33.015625 
L 54.890625 0 
L 45.90625 0 
L 45.90625 32.71875 
Q 45.90625 40.484375 42.875 44.328125 
Q 39.84375 48.1875 33.796875 48.1875 
Q 26.515625 48.1875 22.3125 43.546875 
Q 18.109375 38.921875 18.109375 30.90625 
L 18.109375 0 
L 9.078125 0 
L 9.078125 54.6875 
L 18.109375 54.6875 
L 18.109375 46.1875 
Q 21.34375 51.125 25.703125 53.5625 
Q 30.078125 56 35.796875 56 
Q 45.21875 56 50.046875 50.171875 
Q 54.890625 44.34375 54.890625 33.015625 
z
" id="DejaVuSans-110"/>
      <path d="M 56.203125 29.59375 
L 56.203125 25.203125 
L 14.890625 25.203125 
Q 15.484375 15.921875 20.484375 11.0625 
Q 25.484375 6.203125 34.421875 6.203125 
Q 39.59375 6.203125 44.453125 7.46875 
Q 49.3125 8.734375 54.109375 11.28125 
L 54.109375 2.78125 
Q 49.265625 0.734375 44.1875 -0.34375 
Q 39.109375 -1.421875 33.890625 -1.421875 
Q 20.796875 -1.421875 13.15625 6.1875 
Q 5.515625 13.8125 5.515625 26.8125 
Q 5.515625 40.234375 12.765625 48.109375 
Q 20.015625 56 32.328125 56 
Q 43.359375 56 49.78125 48.890625 
Q 56.203125 41.796875 56.203125 29.59375 
z
M 47.21875 32.234375 
Q 47.125 39.59375 43.09375 43.984375 
Q 39.0625 48.390625 32.421875 48.390625 
Q 24.90625 48.390625 20.390625 44.140625 
Q 15.875 39.890625 15.1875 32.171875 
z
" id="DejaVuSans-101"/>
      <path d="M 41.109375 46.296875 
Q 39.59375 47.171875 37.8125 47.578125 
Q 36.03125 48 33.890625 48 
Q 26.265625 48 22.1875 43.046875 
Q 18.109375 38.09375 18.109375 28.8125 
L 18.109375 0 
L 9.078125 0 
L 9.078125 54.6875 
L 18.109375 54.6875 
L 18.109375 46.1875 
Q 20.953125 51.171875 25.484375 53.578125 
Q 30.03125 56 36.53125 56 
Q 37.453125 56 38.578125 55.875 
Q 39.703125 55.765625 41.0625 55.515625 
z
" id="DejaVuSans-114"/>
      <path d="M 34.28125 27.484375 
Q 23.390625 27.484375 19.1875 25 
Q 14.984375 22.515625 14.984375 16.5 
Q 14.984375 11.71875 18.140625 8.90625 
Q 21.296875 6.109375 26.703125 6.109375 
Q 34.1875 6.109375 38.703125 11.40625 
Q 43.21875 16.703125 43.21875 25.484375 
L 43.21875 27.484375 
z
M 52.203125 31.203125 
L 52.203125 0 
L 43.21875 0 
L 43.21875 8.296875 
Q 40.140625 3.328125 35.546875 0.953125 
Q 30.953125 -1.421875 24.3125 -1.421875 
Q 15.921875 -1.421875 10.953125 3.296875 
Q 6 8.015625 6 15.921875 
Q 6 25.140625 12.171875 29.828125 
Q 18.359375 34.515625 30.609375 34.515625 
L 43.21875 34.515625 
L 43.21875 35.40625 
Q 43.21875 41.609375 39.140625 45 
Q 35.0625 48.390625 27.6875 48.390625 
Q 23 48.390625 18.546875 47.265625 
Q 14.109375 46.140625 10.015625 43.890625 
L 10.015625 52.203125 
Q 14.9375 54.109375 19.578125 55.046875 
Q 24.21875 56 28.609375 56 
Q 40.484375 56 46.34375 49.84375 
Q 52.203125 43.703125 52.203125 31.203125 
z
" id="DejaVuSans-97"/>
      <path d="M 48.78125 52.59375 
L 48.78125 44.1875 
Q 44.96875 46.296875 41.140625 47.34375 
Q 37.3125 48.390625 33.40625 48.390625 
Q 24.65625 48.390625 19.8125 42.84375 
Q 14.984375 37.3125 14.984375 27.296875 
Q 14.984375 17.28125 19.8125 11.734375 
Q 24.65625 6.203125 33.40625 6.203125 
Q 37.3125 6.203125 41.140625 7.25 
Q 44.96875 8.296875 48.78125 10.40625 
L 48.78125 2.09375 
Q 45.015625 0.34375 40.984375 -0.53125 
Q 36.96875 -1.421875 32.421875 -1.421875 
Q 20.0625 -1.421875 12.78125 6.34375 
Q 5.515625 14.109375 5.515625 27.296875 
Q 5.515625 40.671875 12.859375 48.328125 
Q 20.21875 56 33.015625 56 
Q 37.15625 56 41.109375 55.140625 
Q 45.0625 54.296875 48.78125 52.59375 
z
" id="DejaVuSans-99"/>
      <path d="M 30.609375 48.390625 
Q 23.390625 48.390625 19.1875 42.75 
Q 14.984375 37.109375 14.984375 27.296875 
Q 14.984375 17.484375 19.15625 11.84375 
Q 23.34375 6.203125 30.609375 6.203125 
Q 37.796875 6.203125 41.984375 11.859375 
Q 46.1875 17.53125 46.1875 27.296875 
Q 46.1875 37.015625 41.984375 42.703125 
Q 37.796875 48.390625 30.609375 48.390625 
z
M 30.609375 56 
Q 42.328125 56 49.015625 48.375 
Q 55.71875 40.765625 55.71875 27.296875 
Q 55.71875 13.875 49.015625 6.21875 
Q 42.328125 -1.421875 30.609375 -1.421875 
Q 18.84375 -1.421875 12.171875 6.21875 
Q 5.515625 13.875 5.515625 27.296875 
Q 5.515625 40.765625 12.171875 48.375 
Q 18.84375 56 30.609375 56 
z
" id="DejaVuSans-111"/>
     </defs>
     <g transform="translate(665.201563 559.029688)scale(0.3 -0.3)">
      <use xlink:href="#DejaVuSans-66"/>
      <use x="68.603516" xlink:href="#DejaVuSans-105"/>
      <use x="96.386719" xlink:href="#DejaVuSans-116"/>
      <use x="135.595703" xlink:href="#DejaVuSans-32"/>
      <use x="167.382812" xlink:href="#DejaVuSans-73"/>
      <use x="196.875" xlink:href="#DejaVuSans-110"/>
      <use x="260.253906" xlink:href="#DejaVuSans-116"/>
      <use x="299.462891" xlink:href="#DejaVuSans-101"/>
      <use x="360.986328" xlink:href="#DejaVuSans-114"/>
      <use x="402.099609" xlink:href="#DejaVuSans-97"/>
      <use x="463.378906" xlink:href="#DejaVuSans-99"/>
      <use x="518.359375" xlink:href="#DejaVuSans-116"/>
      <use x="557.568359" xlink:href="#DejaVuSans-105"/>
      <use x="585.351562" xlink:href="#DejaVuSans-111"/>
      <use x="646.533203" xlink:href="#DejaVuSans-110"/>
     </g>
    </g>
   </g>
   <g id="matplotlib.axis_2">
    <g id="ytick_1">
     <g id="line2d_7">
      <defs>
       <path d="M 0 0 
L -3.5 0 
" id="m168fde5a0f" style="stroke:#000000;stroke-width:0.8;"/>
      </defs>
      <g>
       <use style="stroke:#000000;stroke-width:0.8;" x="114.175" xlink:href="#m168fde5a0f" y="431.442882"/>
      </g>
     </g>
     <g id="text_8">
      <!-- −10 -->
      <defs>
       <path d="M 10.59375 35.5 
L 73.1875 35.5 
L 73.1875 27.203125 
L 10.59375 27.203125 
z
" id="DejaVuSans-8722"/>
      </defs>
      <g transform="translate(43.860937 442.840539)scale(0.3 -0.3)">
       <use xlink:href="#DejaVuSans-8722"/>
       <use x="83.789062" xlink:href="#DejaVuSans-49"/>
       <use x="147.412109" xlink:href="#DejaVuSans-48"/>
      </g>
     </g>
    </g>
    <g id="ytick_2">
     <g id="line2d_8">
      <g>
       <use style="stroke:#000000;stroke-width:0.8;" x="114.175" xlink:href="#m168fde5a0f" y="356.877902"/>
      </g>
     </g>
     <g id="text_9">
      <!-- −8 -->
      <defs>
       <path d="M 31.78125 34.625 
Q 24.75 34.625 20.71875 30.859375 
Q 16.703125 27.09375 16.703125 20.515625 
Q 16.703125 13.921875 20.71875 10.15625 
Q 24.75 6.390625 31.78125 6.390625 
Q 38.8125 6.390625 42.859375 10.171875 
Q 46.921875 13.96875 46.921875 20.515625 
Q 46.921875 27.09375 42.890625 30.859375 
Q 38.875 34.625 31.78125 34.625 
z
M 21.921875 38.8125 
Q 15.578125 40.375 12.03125 44.71875 
Q 8.5 49.078125 8.5 55.328125 
Q 8.5 64.0625 14.71875 69.140625 
Q 20.953125 74.21875 31.78125 74.21875 
Q 42.671875 74.21875 48.875 69.140625 
Q 55.078125 64.0625 55.078125 55.328125 
Q 55.078125 49.078125 51.53125 44.71875 
Q 48 40.375 41.703125 38.8125 
Q 48.828125 37.15625 52.796875 32.3125 
Q 56.78125 27.484375 56.78125 20.515625 
Q 56.78125 9.90625 50.3125 4.234375 
Q 43.84375 -1.421875 31.78125 -1.421875 
Q 19.734375 -1.421875 13.25 4.234375 
Q 6.78125 9.90625 6.78125 20.515625 
Q 6.78125 27.484375 10.78125 32.3125 
Q 14.796875 37.15625 21.921875 38.8125 
z
M 18.3125 54.390625 
Q 18.3125 48.734375 21.84375 45.5625 
Q 25.390625 42.390625 31.78125 42.390625 
Q 38.140625 42.390625 41.71875 45.5625 
Q 45.3125 48.734375 45.3125 54.390625 
Q 45.3125 60.0625 41.71875 63.234375 
Q 38.140625 66.40625 31.78125 66.40625 
Q 25.390625 66.40625 21.84375 63.234375 
Q 18.3125 60.0625 18.3125 54.390625 
z
" id="DejaVuSans-56"/>
      </defs>
      <g transform="translate(62.948437 368.275559)scale(0.3 -0.3)">
       <use xlink:href="#DejaVuSans-8722"/>
       <use x="83.789062" xlink:href="#DejaVuSans-56"/>
      </g>
     </g>
    </g>
    <g id="ytick_3">
     <g id="line2d_9">
      <g>
       <use style="stroke:#000000;stroke-width:0.8;" x="114.175" xlink:href="#m168fde5a0f" y="282.312923"/>
      </g>
     </g>
     <g id="text_10">
      <!-- −6 -->
      <defs>
       <path d="M 33.015625 40.375 
Q 26.375 40.375 22.484375 35.828125 
Q 18.609375 31.296875 18.609375 23.390625 
Q 18.609375 15.53125 22.484375 10.953125 
Q 26.375 6.390625 33.015625 6.390625 
Q 39.65625 6.390625 43.53125 10.953125 
Q 47.40625 15.53125 47.40625 23.390625 
Q 47.40625 31.296875 43.53125 35.828125 
Q 39.65625 40.375 33.015625 40.375 
z
M 52.59375 71.296875 
L 52.59375 62.3125 
Q 48.875 64.0625 45.09375 64.984375 
Q 41.3125 65.921875 37.59375 65.921875 
Q 27.828125 65.921875 22.671875 59.328125 
Q 17.53125 52.734375 16.796875 39.40625 
Q 19.671875 43.65625 24.015625 45.921875 
Q 28.375 48.1875 33.59375 48.1875 
Q 44.578125 48.1875 50.953125 41.515625 
Q 57.328125 34.859375 57.328125 23.390625 
Q 57.328125 12.15625 50.6875 5.359375 
Q 44.046875 -1.421875 33.015625 -1.421875 
Q 20.359375 -1.421875 13.671875 8.265625 
Q 6.984375 17.96875 6.984375 36.375 
Q 6.984375 53.65625 15.1875 63.9375 
Q 23.390625 74.21875 37.203125 74.21875 
Q 40.921875 74.21875 44.703125 73.484375 
Q 48.484375 72.75 52.59375 71.296875 
z
" id="DejaVuSans-54"/>
      </defs>
      <g transform="translate(62.948437 293.710579)scale(0.3 -0.3)">
       <use xlink:href="#DejaVuSans-8722"/>
       <use x="83.789062" xlink:href="#DejaVuSans-54"/>
      </g>
     </g>
    </g>
    <g id="ytick_4">
     <g id="line2d_10">
      <g>
       <use style="stroke:#000000;stroke-width:0.8;" x="114.175" xlink:href="#m168fde5a0f" y="207.747943"/>
      </g>
     </g>
     <g id="text_11">
      <!-- −4 -->
      <defs>
       <path d="M 37.796875 64.3125 
L 12.890625 25.390625 
L 37.796875 25.390625 
z
M 35.203125 72.90625 
L 47.609375 72.90625 
L 47.609375 25.390625 
L 58.015625 25.390625 
L 58.015625 17.1875 
L 47.609375 17.1875 
L 47.609375 0 
L 37.796875 0 
L 37.796875 17.1875 
L 4.890625 17.1875 
L 4.890625 26.703125 
z
" id="DejaVuSans-52"/>
      </defs>
      <g transform="translate(62.948437 219.145599)scale(0.3 -0.3)">
       <use xlink:href="#DejaVuSans-8722"/>
       <use x="83.789062" xlink:href="#DejaVuSans-52"/>
      </g>
     </g>
    </g>
    <g id="ytick_5">
     <g id="line2d_11">
      <g>
       <use style="stroke:#000000;stroke-width:0.8;" x="114.175" xlink:href="#m168fde5a0f" y="133.182963"/>
      </g>
     </g>
     <g id="text_12">
      <!-- −2 -->
      <g transform="translate(62.948437 144.580619)scale(0.3 -0.3)">
       <use xlink:href="#DejaVuSans-8722"/>
       <use x="83.789062" xlink:href="#DejaVuSans-50"/>
      </g>
     </g>
    </g>
    <g id="ytick_6">
     <g id="line2d_12">
      <g>
       <use style="stroke:#000000;stroke-width:0.8;" x="114.175" xlink:href="#m168fde5a0f" y="58.617983"/>
      </g>
     </g>
     <g id="text_13">
      <!-- 0 -->
      <g transform="translate(88.0875 70.015639)scale(0.3 -0.3)">
       <use xlink:href="#DejaVuSans-48"/>
      </g>
     </g>
    </g>
    <g id="text_14">
     <!-- Weight Value -->
     <defs>
      <path d="M 3.328125 72.90625 
L 13.28125 72.90625 
L 28.609375 11.28125 
L 43.890625 72.90625 
L 54.984375 72.90625 
L 70.3125 11.28125 
L 85.59375 72.90625 
L 95.609375 72.90625 
L 77.296875 0 
L 64.890625 0 
L 49.515625 63.28125 
L 33.984375 0 
L 21.578125 0 
z
" id="DejaVuSans-87"/>
      <path d="M 45.40625 27.984375 
Q 45.40625 37.75 41.375 43.109375 
Q 37.359375 48.484375 30.078125 48.484375 
Q 22.859375 48.484375 18.828125 43.109375 
Q 14.796875 37.75 14.796875 27.984375 
Q 14.796875 18.265625 18.828125 12.890625 
Q 22.859375 7.515625 30.078125 7.515625 
Q 37.359375 7.515625 41.375 12.890625 
Q 45.40625 18.265625 45.40625 27.984375 
z
M 54.390625 6.78125 
Q 54.390625 -7.171875 48.1875 -13.984375 
Q 42 -20.796875 29.203125 -20.796875 
Q 24.46875 -20.796875 20.265625 -20.09375 
Q 16.0625 -19.390625 12.109375 -17.921875 
L 12.109375 -9.1875 
Q 16.0625 -11.328125 19.921875 -12.34375 
Q 23.78125 -13.375 27.78125 -13.375 
Q 36.625 -13.375 41.015625 -8.765625 
Q 45.40625 -4.15625 45.40625 5.171875 
L 45.40625 9.625 
Q 42.625 4.78125 38.28125 2.390625 
Q 33.9375 0 27.875 0 
Q 17.828125 0 11.671875 7.65625 
Q 5.515625 15.328125 5.515625 27.984375 
Q 5.515625 40.671875 11.671875 48.328125 
Q 17.828125 56 27.875 56 
Q 33.9375 56 38.28125 53.609375 
Q 42.625 51.21875 45.40625 46.390625 
L 45.40625 54.6875 
L 54.390625 54.6875 
z
" id="DejaVuSans-103"/>
      <path d="M 54.890625 33.015625 
L 54.890625 0 
L 45.90625 0 
L 45.90625 32.71875 
Q 45.90625 40.484375 42.875 44.328125 
Q 39.84375 48.1875 33.796875 48.1875 
Q 26.515625 48.1875 22.3125 43.546875 
Q 18.109375 38.921875 18.109375 30.90625 
L 18.109375 0 
L 9.078125 0 
L 9.078125 75.984375 
L 18.109375 75.984375 
L 18.109375 46.1875 
Q 21.34375 51.125 25.703125 53.5625 
Q 30.078125 56 35.796875 56 
Q 45.21875 56 50.046875 50.171875 
Q 54.890625 44.34375 54.890625 33.015625 
z
" id="DejaVuSans-104"/>
      <path d="M 28.609375 0 
L 0.78125 72.90625 
L 11.078125 72.90625 
L 34.1875 11.53125 
L 57.328125 72.90625 
L 67.578125 72.90625 
L 39.796875 0 
z
" id="DejaVuSans-86"/>
      <path d="M 9.421875 75.984375 
L 18.40625 75.984375 
L 18.40625 0 
L 9.421875 0 
z
" id="DejaVuSans-108"/>
      <path d="M 8.5 21.578125 
L 8.5 54.6875 
L 17.484375 54.6875 
L 17.484375 21.921875 
Q 17.484375 14.15625 20.5 10.265625 
Q 23.53125 6.390625 29.59375 6.390625 
Q 36.859375 6.390625 41.078125 11.03125 
Q 45.3125 15.671875 45.3125 23.6875 
L 45.3125 54.6875 
L 54.296875 54.6875 
L 54.296875 0 
L 45.3125 0 
L 45.3125 8.40625 
Q 42.046875 3.421875 37.71875 1 
Q 33.40625 -1.421875 27.6875 -1.421875 
Q 18.265625 -1.421875 13.375 4.4375 
Q 8.5 10.296875 8.5 21.578125 
z
M 31.109375 56 
z
" id="DejaVuSans-117"/>
     </defs>
     <g transform="translate(33.621875 353.732813)rotate(-90)scale(0.3 -0.3)">
      <use xlink:href="#DejaVuSans-87"/>
      <use x="98.798828" xlink:href="#DejaVuSans-101"/>
      <use x="160.322266" xlink:href="#DejaVuSans-105"/>
      <use x="188.105469" xlink:href="#DejaVuSans-103"/>
      <use x="251.582031" xlink:href="#DejaVuSans-104"/>
      <use x="314.960938" xlink:href="#DejaVuSans-116"/>
      <use x="354.169922" xlink:href="#DejaVuSans-32"/>
      <use x="385.957031" xlink:href="#DejaVuSans-86"/>
      <use x="454.255859" xlink:href="#DejaVuSans-97"/>
      <use x="515.535156" xlink:href="#DejaVuSans-108"/>
      <use x="543.318359" xlink:href="#DejaVuSans-117"/>
      <use x="606.697266" xlink:href="#DejaVuSans-101"/>
     </g>
    </g>
   </g>
   <g id="line2d_13">
    <path clip-path="url(#p87917939aa)" d="M 174.882101 61.277763 
L 179.548289 72.871737 
L 184.214476 56.626236 
L 188.880664 50.40037 
L 193.546852 61.911948 
L 198.213039 56.414326 
L 202.879227 72.67581 
L 207.545415 54.428951 
L 212.211602 56.851061 
L 216.87779 49.83908 
L 221.543978 69.68732 
L 226.210165 63.901936 
L 230.876353 56.831108 
L 235.54254 59.701597 
L 244.874916 59.262677 
L 249.541103 64.526581 
L 258.873479 54.788302 
L 263.539666 61.595536 
L 268.205854 56.200876 
L 272.872042 61.709489 
L 277.538229 58.090496 
L 282.204417 55.487291 
L 286.870604 55.321235 
L 291.536792 49.65628 
L 296.20298 55.173645 
L 300.869167 48.799088 
L 305.535355 59.297928 
L 310.201543 51.487254 
L 314.86773 54.654727 
L 319.533918 63.325941 
L 324.200106 57.448978 
L 328.866293 65.794124 
L 333.532481 70.521064 
L 338.198668 66.588013 
L 342.864856 70.570995 
L 347.531044 55.906566 
L 352.197231 67.872473 
L 356.863419 61.598687 
L 361.529607 57.6354 
L 366.195794 58.511935 
L 370.861982 65.362126 
L 375.52817 59.318931 
L 380.194357 69.308082 
L 384.860545 63.652312 
L 389.526732 64.48146 
L 394.19292 42.868193 
L 398.859108 65.079256 
L 408.191483 61.964164 
L 412.857671 57.693998 
L 417.523858 65.862072 
L 422.190046 52.714849 
L 426.856234 47.623793 
L 431.522421 58.730302 
L 436.188609 57.158258 
L 440.854797 51.155897 
L 445.520984 71.663894 
L 450.187172 55.296044 
L 454.853359 48.952449 
L 459.519547 62.850575 
L 464.185735 68.923478 
L 468.851922 66.608933 
L 473.51811 52.406218 
L 478.184298 58.208397 
L 482.850485 69.160514 
L 487.516673 66.99157 
L 492.182861 50.88219 
L 496.849048 52.382067 
L 501.515236 59.284664 
L 506.181423 59.02854 
L 510.847611 60.778349 
L 515.513799 56.908548 
L 520.179986 61.136451 
L 524.846174 63.188006 
L 529.512362 60.86252 
L 534.178549 71.03919 
L 538.844737 58.766514 
L 543.510925 57.125648 
L 548.177112 54.802693 
L 552.8433 57.645082 
L 557.509487 57.291357 
L 562.175675 46.044458 
L 566.841863 62.019886 
L 571.50805 61.664327 
L 576.174238 54.723495 
L 580.840426 55.281647 
L 585.506613 53.04783 
L 590.172801 70.559545 
L 594.838989 58.722723 
L 599.505176 61.31214 
L 604.171364 61.704606 
L 608.837551 60.072983 
L 613.503739 75.127939 
L 618.169927 66.204891 
L 622.836114 58.489723 
L 627.502302 59.698296 
L 632.16849 52.653942 
L 636.834677 52.058537 
L 641.500865 56.749077 
L 646.167053 50.431544 
L 650.83324 57.01628 
L 655.499428 66.493677 
L 660.165615 45.38241 
L 664.831803 68.388583 
L 669.497991 65.812259 
L 674.164178 46.122719 
L 678.830366 53.04007 
L 683.496554 50.473514 
L 688.162741 67.475643 
L 692.828929 66.13455 
L 697.495117 63.512224 
L 702.161304 65.437874 
L 706.827492 50.767978 
L 711.493679 53.516312 
L 716.159867 56.918368 
L 720.826055 49.767608 
L 725.492242 55.69481 
L 730.15843 50.302047 
L 734.824618 51.661989 
L 739.490805 50.358283 
L 744.156993 44.836065 
L 748.823181 49.501123 
L 753.489368 58.033487 
L 758.155556 62.942849 
L 762.821743 73.329151 
L 767.487931 47.30327 
L 772.154119 58.421898 
L 776.820306 54.18158 
L 781.486494 72.094854 
L 786.152682 51.079239 
L 790.818869 66.081482 
L 795.485057 56.472397 
L 800.151245 53.315107 
L 804.817432 65.092177 
L 814.149808 64.245652 
L 818.815995 61.613614 
L 823.482183 69.456585 
L 828.14837 58.891331 
L 832.814558 67.619123 
L 837.480746 49.867131 
L 842.146933 61.191874 
L 846.813121 64.721906 
L 851.479309 49.992667 
L 856.145496 64.24423 
L 860.811684 60.326847 
L 865.477872 67.49283 
L 870.144059 66.112291 
L 874.810247 56.010642 
L 879.476434 47.090886 
L 884.142622 65.218937 
L 888.80881 55.537133 
L 893.474997 71.537644 
L 898.141185 56.709732 
L 902.807373 64.757635 
L 907.47356 48.514701 
L 912.139748 55.741836 
L 916.805936 51.593556 
L 921.472123 63.097395 
L 926.138311 59.337191 
L 930.804498 61.194454 
L 935.470686 62.19237 
L 940.136874 45.609457 
L 944.803061 49.901243 
L 949.469249 69.783851 
L 954.135437 61.606493 
L 958.801624 64.677467 
L 963.467812 59.767359 
L 968.134 60.339271 
L 972.800187 67.5887 
L 977.466375 48.917621 
L 982.132562 55.757904 
L 986.79875 57.809173 
L 991.464938 59.614781 
L 996.131125 69.048028 
L 1000.797313 52.842231 
L 1005.463501 40.9962 
L 1010.129688 64.678545 
L 1014.795876 70.137127 
L 1019.462064 41.138069 
L 1024.128251 81.470762 
L 1028.794439 67.393779 
L 1033.460626 61.972421 
L 1038.126814 55.234406 
L 1042.793002 59.553282 
L 1047.459189 65.737501 
L 1052.125377 53.916696 
L 1056.791565 44.685253 
L 1061.457752 62.432495 
L 1066.12394 60.662146 
L 1070.790128 36.181149 
L 1075.456315 69.54367 
L 1080.122503 52.193294 
L 1084.78869 75.123442 
L 1089.454878 54.811165 
L 1094.121066 47.290633 
L 1098.787253 62.726024 
L 1103.453441 52.45977 
L 1108.119629 62.377086 
L 1112.785816 69.833866 
L 1117.452004 67.118619 
L 1122.118192 58.54013 
L 1126.784379 53.852176 
L 1131.450567 51.424497 
L 1136.116754 58.104575 
L 1140.782942 73.000853 
L 1145.44913 57.99003 
L 1150.115317 65.715313 
L 1154.781505 59.131628 
L 1159.447693 66.78136 
L 1164.11388 49.736725 
L 1168.780068 66.416544 
L 1173.446256 60.707368 
L 1178.112443 71.182651 
L 1182.778631 58.176545 
L 1187.444819 63.318561 
L 1192.111006 73.655312 
L 1196.777194 48.374615 
L 1201.443381 64.257929 
L 1206.109569 72.381397 
L 1210.775757 51.837697 
L 1215.441944 55.790034 
L 1220.108132 65.456492 
L 1224.77432 67.537638 
L 1229.440507 50.798011 
L 1234.106695 53.971077 
L 1238.772883 61.94415 
L 1243.43907 63.113639 
L 1248.105258 70.906709 
L 1252.771445 64.481052 
L 1257.437633 57.860767 
L 1262.103821 79.034178 
L 1266.770008 63.799659 
L 1271.436196 47.063893 
L 1276.102384 55.695039 
L 1280.768571 59.466103 
L 1285.434759 45.130052 
L 1290.100947 57.31201 
L 1294.767134 45.748919 
L 1299.433322 61.206325 
L 1304.099509 62.808874 
L 1308.765697 53.759285 
L 1313.431885 61.957583 
L 1318.098072 72.120998 
L 1322.76426 60.273031 
L 1327.430448 56.135612 
L 1332.096635 51.496425 
L 1336.762823 60.289995 
L 1341.429011 55.863889 
L 1346.095198 62.525492 
L 1350.761386 66.418842 
L 1355.427573 53.509947 
L 1360.093761 60.140385 
L 1364.759949 62.13067 
L 1364.759949 62.13067 
" style="fill:none;stroke:#1f77b4;stroke-linecap:square;stroke-width:1.5;"/>
   </g>
   <g id="line2d_14">
    <path clip-path="url(#p87917939aa)" d="M 174.882101 56.008134 
L 179.548289 60.947247 
L 184.214476 469.384426 
L 188.880664 64.808694 
L 193.546852 55.042766 
L 198.213039 62.476454 
L 202.879227 58.028369 
L 207.545415 57.7049 
L 212.211602 474.136364 
L 216.87779 45.556173 
L 221.543978 61.565517 
L 226.210165 57.947746 
L 230.876353 64.509996 
L 235.54254 47.68266 
L 240.208728 65.739378 
L 244.874916 55.672902 
L 249.541103 68.726562 
L 254.207291 58.459177 
L 258.873479 54.98091 
L 263.539666 52.602307 
L 268.205854 61.226933 
L 272.872042 59.517 
L 277.538229 67.7768 
L 282.204417 60.338082 
L 286.870604 63.336135 
L 291.536792 63.906632 
L 296.20298 49.803409 
L 300.869167 46.716353 
L 305.535355 64.183032 
L 310.201543 43.549879 
L 314.86773 67.169328 
L 319.533918 57.820694 
L 324.200106 59.853478 
L 328.866293 63.78684 
L 333.532481 53.899222 
L 338.198668 51.113525 
L 342.864856 59.194467 
L 347.531044 56.728573 
L 352.197231 56.393521 
L 356.863419 66.454232 
L 361.529607 47.685355 
L 366.195794 42.666585 
L 370.861982 52.499277 
L 375.52817 45.864948 
L 380.194357 49.834102 
L 384.860545 66.891498 
L 394.19292 60.942561 
L 398.859108 62.461906 
L 403.525295 63.601929 
L 408.191483 64.876855 
L 412.857671 55.463797 
L 417.523858 53.631646 
L 422.190046 58.91152 
L 426.856234 62.608471 
L 431.522421 58.695859 
L 436.188609 60.014041 
L 440.854797 70.350126 
L 445.520984 60.941002 
L 450.187172 72.567862 
L 454.853359 70.021893 
L 459.519547 55.595864 
L 464.185735 55.420047 
L 468.851922 57.018697 
L 473.51811 63.870538 
L 478.184298 54.504408 
L 482.850485 59.425938 
L 487.516673 66.345222 
L 492.182861 64.431037 
L 496.849048 63.133997 
L 501.515236 57.948754 
L 506.181423 46.797136 
L 510.847611 56.189635 
L 515.513799 68.359694 
L 520.179986 59.352755 
L 524.846174 61.641123 
L 529.512362 50.642387 
L 534.178549 74.178111 
L 538.844737 48.702337 
L 543.510925 65.371467 
L 548.177112 65.295517 
L 552.8433 55.917546 
L 557.509487 58.835521 
L 562.175675 57.216114 
L 571.50805 67.381383 
L 576.174238 55.524138 
L 580.840426 66.875839 
L 585.506613 60.673174 
L 590.172801 54.059417 
L 594.838989 64.747042 
L 599.505176 63.436125 
L 604.171364 54.171553 
L 608.837551 69.049825 
L 613.503739 56.544319 
L 618.169927 56.218691 
L 622.836114 61.200163 
L 627.502302 56.132532 
L 636.834677 53.052712 
L 641.500865 54.148548 
L 646.167053 70.098649 
L 650.83324 68.370106 
L 655.499428 46.889649 
L 660.165615 53.607767 
L 664.831803 63.091517 
L 669.497991 56.739183 
L 674.164178 70.052872 
L 678.830366 41.014977 
L 683.496554 64.391684 
L 688.162741 50.584348 
L 692.828929 58.009644 
L 697.495117 43.132752 
L 702.161304 57.740951 
L 706.827492 58.513412 
L 711.493679 44.606474 
L 716.159867 63.777156 
L 720.826055 68.089579 
L 725.492242 50.989372 
L 730.15843 53.230765 
L 734.824618 62.082352 
L 739.490805 57.433062 
L 744.156993 63.988865 
L 748.823181 52.781793 
L 753.489368 62.311528 
L 758.155556 56.154026 
L 762.821743 57.965978 
L 767.487931 62.000164 
L 772.154119 63.324857 
L 776.820306 57.43551 
L 781.486494 58.962516 
L 786.152682 61.717316 
L 790.818869 60.153931 
L 795.485057 57.483754 
L 800.151245 56.280766 
L 804.817432 48.447084 
L 809.48362 52.848916 
L 814.149808 70.317742 
L 818.815995 60.780699 
L 823.482183 59.693023 
L 828.14837 59.702319 
L 832.814558 67.550021 
L 837.480746 60.761348 
L 842.146933 55.212769 
L 846.813121 58.968824 
L 851.479309 65.924453 
L 856.145496 56.429292 
L 860.811684 47.310886 
L 865.477872 60.79776 
L 870.144059 53.403124 
L 874.810247 48.978967 
L 879.476434 59.721511 
L 884.142622 57.888437 
L 888.80881 43.153702 
L 893.474997 63.903876 
L 898.141185 63.732989 
L 902.807373 60.506246 
L 907.47356 56.346209 
L 912.139748 56.920006 
L 916.805936 58.771427 
L 921.472123 64.219502 
L 926.138311 51.532358 
L 930.804498 56.519661 
L 935.470686 56.55645 
L 940.136874 74.199342 
L 944.803061 53.949665 
L 949.469249 61.633007 
L 954.135437 62.66382 
L 958.801624 55.100656 
L 963.467812 54.483957 
L 968.134 55.754715 
L 972.800187 65.321382 
L 977.466375 42.500115 
L 982.132562 60.25571 
L 986.79875 52.062554 
L 991.464938 56.260766 
L 996.131125 75.673708 
L 1000.797313 46.142854 
L 1005.463501 58.69647 
L 1010.129688 63.810793 
L 1014.795876 62.905431 
L 1019.462064 60.158017 
L 1024.128251 56.821906 
L 1028.794439 58.343639 
L 1033.460626 61.733564 
L 1038.126814 54.168249 
L 1042.793002 65.415609 
L 1047.459189 54.938886 
L 1052.125377 65.591789 
L 1056.791565 65.880868 
L 1061.457752 68.198625 
L 1066.12394 47.170896 
L 1070.790128 64.823908 
L 1075.456315 55.762123 
L 1080.122503 54.913912 
L 1084.78869 67.620631 
L 1089.454878 61.302822 
L 1094.121066 60.327457 
L 1098.787253 58.081783 
L 1103.453441 59.135829 
L 1108.119629 53.521074 
L 1112.785816 64.545713 
L 1117.452004 51.789979 
L 1122.118192 63.410151 
L 1126.784379 50.563386 
L 1131.450567 56.119913 
L 1136.116754 64.636608 
L 1140.782942 51.432258 
L 1145.44913 55.525676 
L 1150.115317 66.192997 
L 1154.781505 67.029291 
L 1159.447693 63.020524 
L 1164.11388 41.724763 
L 1168.780068 51.519663 
L 1173.446256 63.609524 
L 1178.112443 67.700618 
L 1182.778631 64.147145 
L 1187.444819 68.775449 
L 1192.111006 61.764095 
L 1196.777194 59.493509 
L 1201.443381 63.646203 
L 1206.109569 60.638889 
L 1210.775757 58.567314 
L 1215.441944 58.689848 
L 1220.108132 58.987742 
L 1224.77432 62.030524 
L 1229.440507 49.777651 
L 1234.106695 51.479426 
L 1238.772883 50.310014 
L 1243.43907 62.188693 
L 1248.105258 53.548224 
L 1252.771445 56.215687 
L 1257.437633 52.491792 
L 1262.103821 60.523771 
L 1266.770008 53.914408 
L 1271.436196 64.638845 
L 1276.102384 60.955177 
L 1280.768571 67.321338 
L 1285.434759 54.262541 
L 1290.100947 65.6372 
L 1294.767134 63.517437 
L 1299.433322 50.597279 
L 1304.099509 48.86259 
L 1308.765697 62.148887 
L 1313.431885 60.934748 
L 1318.098072 57.524371 
L 1322.76426 54.642847 
L 1327.430448 52.613491 
L 1332.096635 60.136811 
L 1336.762823 54.542581 
L 1341.429011 63.306466 
L 1346.095198 60.884709 
L 1350.761386 56.114053 
L 1355.427573 41.948734 
L 1360.093761 71.649028 
L 1364.759949 63.517658 
L 1364.759949 63.517658 
" style="fill:none;stroke:#ff7f0e;stroke-linecap:square;stroke-width:1.5;"/>
   </g>
   <g id="line2d_15">
    <path clip-path="url(#p87917939aa)" d="M 174.882101 59.518616 
L 179.548289 57.645172 
L 184.214476 55.384498 
L 188.880664 56.93741 
L 193.546852 466.908103 
L 198.213039 67.103699 
L 202.879227 53.699075 
L 207.545415 463.529313 
L 212.211602 55.345674 
L 216.87779 51.111265 
L 221.543978 53.419428 
L 226.210165 48.522772 
L 230.876353 76.915896 
L 235.54254 63.46752 
L 240.208728 64.760375 
L 244.874916 60.954239 
L 249.541103 53.841187 
L 254.207291 56.123806 
L 258.873479 58.762656 
L 263.539666 65.089215 
L 268.205854 70.007859 
L 277.538229 54.145441 
L 282.204417 73.922711 
L 286.870604 61.822664 
L 291.536792 54.666861 
L 296.20298 53.916128 
L 300.869167 54.728105 
L 305.535355 72.80056 
L 310.201543 57.658614 
L 314.86773 57.264214 
L 319.533918 64.017487 
L 324.200106 67.520689 
L 328.866293 65.608132 
L 333.532481 63.147159 
L 338.198668 53.728496 
L 342.864856 67.133689 
L 347.531044 52.17575 
L 352.197231 63.917948 
L 356.863419 50.645523 
L 361.529607 46.140522 
L 366.195794 54.330045 
L 370.861982 53.563223 
L 375.52817 36.562913 
L 380.194357 51.382765 
L 384.860545 51.435245 
L 389.526732 57.748606 
L 394.19292 72.117494 
L 398.859108 51.370138 
L 403.525295 64.584211 
L 408.191483 52.573129 
L 412.857671 52.076083 
L 417.523858 44.538047 
L 422.190046 55.599579 
L 426.856234 64.646605 
L 431.522421 62.121442 
L 436.188609 50.370259 
L 440.854797 64.472976 
L 445.520984 63.82041 
L 450.187172 51.432944 
L 454.853359 49.756531 
L 459.519547 50.120473 
L 464.185735 53.447242 
L 468.851922 63.657953 
L 473.51811 70.795279 
L 478.184298 57.5072 
L 482.850485 69.118499 
L 487.516673 55.587406 
L 492.182861 53.83367 
L 496.849048 62.621735 
L 501.515236 55.455379 
L 506.181423 62.78118 
L 510.847611 52.712023 
L 515.513799 58.863575 
L 520.179986 56.744415 
L 524.846174 59.323901 
L 529.512362 50.749568 
L 534.178549 56.171369 
L 538.844737 59.935024 
L 543.510925 46.912763 
L 548.177112 68.33418 
L 552.8433 66.753412 
L 557.509487 69.824895 
L 562.175675 60.686175 
L 566.841863 57.152271 
L 571.50805 62.693515 
L 576.174238 53.730193 
L 580.840426 51.796337 
L 585.506613 66.636661 
L 590.172801 53.401112 
L 594.838989 60.294469 
L 599.505176 58.840899 
L 604.171364 53.119594 
L 608.837551 59.460197 
L 613.503739 58.09665 
L 618.169927 38.193748 
L 622.836114 58.40488 
L 627.502302 47.42678 
L 632.16849 52.282105 
L 636.834677 54.057975 
L 641.500865 64.811149 
L 646.167053 55.388846 
L 650.83324 61.617731 
L 655.499428 48.014917 
L 660.165615 62.22455 
L 664.831803 50.723172 
L 669.497991 52.913677 
L 674.164178 52.844101 
L 678.830366 63.760753 
L 683.496554 70.775873 
L 688.162741 50.30599 
L 692.828929 59.395032 
L 697.495117 66.908846 
L 702.161304 45.481276 
L 706.827492 53.091681 
L 711.493679 70.26437 
L 716.159867 53.316636 
L 720.826055 58.716859 
L 725.492242 60.448899 
L 730.15843 58.340956 
L 734.824618 55.28073 
L 739.490805 77.682788 
L 744.156993 47.957044 
L 748.823181 55.012316 
L 753.489368 32.863636 
L 758.155556 58.835162 
L 762.821743 48.47555 
L 767.487931 54.253185 
L 772.154119 49.378906 
L 776.820306 67.412364 
L 781.486494 68.403398 
L 786.152682 62.020944 
L 790.818869 56.605133 
L 795.485057 68.075554 
L 800.151245 65.227968 
L 804.817432 72.463378 
L 809.48362 70.812662 
L 814.149808 57.643557 
L 818.815995 60.855129 
L 823.482183 68.49759 
L 828.14837 60.500064 
L 832.814558 64.557005 
L 837.480746 80.150043 
L 842.146933 64.923149 
L 846.813121 69.44333 
L 851.479309 68.974212 
L 856.145496 57.502773 
L 860.811684 60.883588 
L 865.477872 62.337494 
L 870.144059 58.587475 
L 874.810247 58.290381 
L 879.476434 61.989482 
L 884.142622 64.754329 
L 888.80881 54.074921 
L 893.474997 61.662796 
L 898.141185 54.537475 
L 902.807373 51.916138 
L 907.47356 54.313003 
L 912.139748 46.323175 
L 916.805936 49.151987 
L 921.472123 49.058549 
L 926.138311 61.184789 
L 930.804498 63.274435 
L 935.470686 73.18936 
L 940.136874 59.302222 
L 944.803061 58.961889 
L 949.469249 37.41281 
L 954.135437 51.376996 
L 958.801624 61.146374 
L 963.467812 53.920666 
L 968.134 55.176263 
L 972.800187 54.696991 
L 977.466375 46.561684 
L 982.132562 61.527054 
L 986.79875 67.535557 
L 991.464938 62.141852 
L 996.131125 51.779229 
L 1000.797313 69.326962 
L 1005.463501 50.101284 
L 1010.129688 59.614002 
L 1014.795876 71.533556 
L 1019.462064 63.195189 
L 1024.128251 61.342786 
L 1028.794439 50.067558 
L 1033.460626 46.450528 
L 1038.126814 36.900551 
L 1042.793002 66.684779 
L 1047.459189 59.513468 
L 1052.125377 44.034576 
L 1056.791565 66.508573 
L 1061.457752 51.788326 
L 1066.12394 58.989619 
L 1070.790128 67.476619 
L 1075.456315 51.004294 
L 1080.122503 58.184248 
L 1084.78869 66.990629 
L 1089.454878 52.0439 
L 1094.121066 58.041774 
L 1098.787253 65.449444 
L 1103.453441 62.134933 
L 1108.119629 56.095014 
L 1112.785816 62.351356 
L 1117.452004 40.674414 
L 1122.118192 54.796251 
L 1126.784379 63.381933 
L 1131.450567 57.896106 
L 1136.116754 50.58632 
L 1140.782942 62.372292 
L 1145.44913 63.171051 
L 1150.115317 60.304823 
L 1154.781505 54.88812 
L 1159.447693 47.232767 
L 1164.11388 53.48887 
L 1168.780068 71.633757 
L 1173.446256 65.821684 
L 1178.112443 70.350407 
L 1182.778631 58.363215 
L 1187.444819 56.270836 
L 1192.111006 52.124024 
L 1196.777194 62.657005 
L 1201.443381 56.373341 
L 1206.109569 69.641256 
L 1210.775757 61.970534 
L 1215.441944 59.602835 
L 1220.108132 55.151353 
L 1224.77432 48.700836 
L 1229.440507 52.87982 
L 1234.106695 57.677247 
L 1238.772883 64.483284 
L 1243.43907 42.456072 
L 1248.105258 64.454071 
L 1252.771445 55.843005 
L 1257.437633 60.893114 
L 1262.103821 65.178139 
L 1266.770008 61.429543 
L 1271.436196 47.337837 
L 1276.102384 59.349579 
L 1280.768571 66.944368 
L 1285.434759 62.311355 
L 1290.100947 48.849301 
L 1294.767134 67.974011 
L 1299.433322 64.862923 
L 1304.099509 48.481771 
L 1308.765697 76.878057 
L 1313.431885 63.983139 
L 1318.098072 63.238551 
L 1322.76426 54.659474 
L 1327.430448 72.558666 
L 1332.096635 56.006376 
L 1336.762823 42.053805 
L 1341.429011 59.066324 
L 1346.095198 50.715911 
L 1350.761386 56.251397 
L 1355.427573 44.681657 
L 1360.093761 64.092325 
L 1364.759949 51.81853 
L 1364.759949 51.81853 
" style="fill:none;stroke:#2ca02c;stroke-linecap:square;stroke-width:1.5;"/>
   </g>
   <g id="line2d_16">
    <path clip-path="url(#p87917939aa)" d="M 174.882101 52.85447 
L 179.548289 60.070106 
L 184.214476 55.282646 
L 188.880664 50.665048 
L 193.546852 62.144566 
L 198.213039 61.009249 
L 202.879227 65.148549 
L 207.545415 52.26029 
L 212.211602 50.337652 
L 216.87779 71.227075 
L 221.543978 71.646579 
L 230.876353 62.61027 
L 235.54254 61.503338 
L 240.208728 69.567711 
L 244.874916 43.713603 
L 249.541103 66.031738 
L 254.207291 58.121841 
L 258.873479 42.75984 
L 263.539666 50.649349 
L 268.205854 62.903635 
L 272.872042 57.653489 
L 277.538229 54.32065 
L 282.204417 56.818993 
L 286.870604 68.840507 
L 291.536792 59.793788 
L 296.20298 54.570526 
L 300.869167 63.7933 
L 305.535355 58.54139 
L 310.201543 61.501513 
L 314.86773 60.125579 
L 319.533918 56.281297 
L 324.200106 63.586587 
L 328.866293 54.105717 
L 333.532481 46.333102 
L 338.198668 56.55948 
L 342.864856 55.018003 
L 347.531044 65.915279 
L 352.197231 70.038765 
L 356.863419 57.510633 
L 361.529607 53.851163 
L 366.195794 59.620165 
L 370.861982 68.17523 
L 375.52817 55.850451 
L 380.194357 63.34076 
L 384.860545 57.820043 
L 389.526732 61.701194 
L 394.19292 57.592534 
L 398.859108 63.18376 
L 403.525295 61.112317 
L 408.191483 69.860192 
L 412.857671 51.582019 
L 417.523858 62.896457 
L 422.190046 55.04619 
L 426.856234 64.434226 
L 431.522421 63.677162 
L 436.188609 49.807385 
L 440.854797 54.119041 
L 445.520984 61.630424 
L 450.187172 56.421721 
L 454.853359 39.627573 
L 459.519547 55.875345 
L 464.185735 54.651792 
L 468.851922 62.646372 
L 473.51811 54.166536 
L 478.184298 48.138347 
L 482.850485 53.402924 
L 487.516673 53.024193 
L 492.182861 52.527528 
L 496.849048 59.291734 
L 501.515236 47.899196 
L 506.181423 63.245849 
L 510.847611 53.067256 
L 515.513799 45.887624 
L 520.179986 62.315369 
L 524.846174 61.544539 
L 529.512362 51.158106 
L 534.178549 68.88672 
L 538.844737 56.422806 
L 543.510925 55.511215 
L 548.177112 63.449627 
L 552.8433 55.21055 
L 557.509487 50.565368 
L 562.175675 62.884981 
L 566.841863 54.206991 
L 571.50805 49.710153 
L 576.174238 47.604071 
L 580.840426 60.330879 
L 585.506613 53.069426 
L 590.172801 51.621952 
L 594.838989 53.863059 
L 599.505176 62.214145 
L 604.171364 50.348975 
L 608.837551 63.653724 
L 613.503739 52.849284 
L 618.169927 64.530362 
L 622.836114 66.485774 
L 627.502302 53.676361 
L 632.16849 50.654863 
L 636.834677 60.0274 
L 641.500865 46.973276 
L 646.167053 70.589397 
L 650.83324 64.466991 
L 655.499428 56.206085 
L 660.165615 51.889545 
L 664.831803 55.027439 
L 669.497991 56.063609 
L 674.164178 52.244213 
L 678.830366 64.192012 
L 683.496554 64.148518 
L 688.162741 53.704585 
L 692.828929 53.733208 
L 697.495117 67.164417 
L 702.161304 58.886418 
L 706.827492 65.326823 
L 711.493679 59.220703 
L 716.159867 63.565849 
L 720.826055 60.162161 
L 725.492242 62.920269 
L 730.15843 71.317032 
L 734.824618 59.690618 
L 739.490805 60.818769 
L 748.823181 61.093533 
L 753.489368 65.114788 
L 758.155556 66.398552 
L 762.821743 41.216841 
L 767.487931 63.879863 
L 772.154119 52.035567 
L 776.820306 64.218401 
L 781.486494 68.824014 
L 786.152682 42.964354 
L 790.818869 61.995657 
L 795.485057 57.434613 
L 800.151245 57.163283 
L 804.817432 53.860904 
L 809.48362 53.987491 
L 814.149808 61.937966 
L 818.815995 64.828978 
L 823.482183 58.747469 
L 828.14837 61.814411 
L 832.814558 56.107484 
L 837.480746 61.477135 
L 842.146933 64.652111 
L 846.813121 59.341945 
L 851.479309 49.514312 
L 856.145496 56.872853 
L 860.811684 69.187731 
L 865.477872 65.030265 
L 870.144059 63.547412 
L 874.810247 58.111084 
L 879.476434 58.085499 
L 884.142622 56.603907 
L 888.80881 59.182783 
L 893.474997 62.282844 
L 898.141185 60.283247 
L 902.807373 50.232642 
L 907.47356 57.81341 
L 912.139748 59.713117 
L 916.805936 60.846899 
L 921.472123 46.027049 
L 926.138311 63.767149 
L 930.804498 55.798445 
L 935.470686 49.552701 
L 940.136874 64.135746 
L 944.803061 66.796602 
L 949.469249 61.044368 
L 954.135437 65.2476 
L 958.801624 60.213742 
L 963.467812 56.3785 
L 968.134 53.239599 
L 972.800187 57.283808 
L 977.466375 51.969 
L 982.132562 69.44463 
L 986.79875 47.340933 
L 991.464938 47.929976 
L 996.131125 52.301094 
L 1000.797313 61.661908 
L 1005.463501 57.298284 
L 1010.129688 62.673383 
L 1014.795876 47.320286 
L 1019.462064 52.428999 
L 1024.128251 56.321778 
L 1028.794439 62.383772 
L 1033.460626 64.368816 
L 1038.126814 60.07103 
L 1042.793002 47.844567 
L 1047.459189 65.216744 
L 1052.125377 62.933687 
L 1056.791565 57.679168 
L 1061.457752 49.685694 
L 1066.12394 60.612226 
L 1070.790128 63.977576 
L 1075.456315 42.714564 
L 1080.122503 71.400321 
L 1084.78869 55.274444 
L 1089.454878 51.052077 
L 1094.121066 49.83586 
L 1098.787253 66.620957 
L 1103.453441 53.704149 
L 1108.119629 50.183282 
L 1112.785816 63.157913 
L 1117.452004 66.20365 
L 1122.118192 42.292638 
L 1126.784379 58.165759 
L 1131.450567 49.435127 
L 1136.116754 64.47068 
L 1140.782942 56.442114 
L 1145.44913 57.452221 
L 1150.115317 64.510493 
L 1154.781505 59.35212 
L 1159.447693 44.179185 
L 1164.11388 57.483619 
L 1168.780068 62.639557 
L 1173.446256 58.738137 
L 1178.112443 52.040704 
L 1182.778631 59.490743 
L 1187.444819 60.125468 
L 1192.111006 63.403684 
L 1196.777194 43.671279 
L 1201.443381 63.857203 
L 1206.109569 66.551284 
L 1210.775757 56.641314 
L 1215.441944 43.441957 
L 1220.108132 50.259658 
L 1224.77432 58.547058 
L 1229.440507 51.647917 
L 1234.106695 64.097311 
L 1238.772883 57.289845 
L 1243.43907 54.863595 
L 1248.105258 66.917161 
L 1252.771445 47.161051 
L 1257.437633 55.59224 
L 1262.103821 60.720066 
L 1266.770008 50.938718 
L 1271.436196 52.703365 
L 1276.102384 68.988014 
L 1280.768571 51.840463 
L 1285.434759 59.839581 
L 1290.100947 58.12727 
L 1294.767134 58.836743 
L 1299.433322 56.980553 
L 1304.099509 62.425236 
L 1308.765697 57.207516 
L 1313.431885 55.133961 
L 1318.098072 55.55387 
L 1322.76426 58.611359 
L 1327.430448 35.211459 
L 1332.096635 68.255904 
L 1336.762823 46.3841 
L 1341.429011 59.006938 
L 1346.095198 61.139911 
L 1350.761386 51.668778 
L 1355.427573 65.651565 
L 1360.093761 63.436168 
L 1364.759949 58.951491 
L 1364.759949 58.951491 
" style="fill:none;stroke:#d62728;stroke-linecap:square;stroke-width:1.5;"/>
   </g>
   <g id="patch_13">
    <path d="M 114.175 496.2 
L 114.175 10.8 
" style="fill:none;stroke:#000000;stroke-linecap:square;stroke-linejoin:miter;stroke-width:0.8;"/>
   </g>
   <g id="patch_14">
    <path d="M 1429.2 496.2 
L 1429.2 10.8 
" style="fill:none;stroke:#000000;stroke-linecap:square;stroke-linejoin:miter;stroke-width:0.8;"/>
   </g>
   <g id="patch_15">
    <path d="M 114.175 496.2 
L 1429.2 496.2 
" style="fill:none;stroke:#000000;stroke-linecap:square;stroke-linejoin:miter;stroke-width:0.8;"/>
   </g>
   <g id="patch_16">
    <path d="M 114.175 10.8 
L 1429.2 10.8 
" style="fill:none;stroke:#000000;stroke-linecap:square;stroke-linejoin:miter;stroke-width:0.8;"/>
   </g>
  </g>
 </g>
 <defs>
  <clipPath id="p87917939aa">
   <rect height="485.4" width="1315.025" x="114.175" y="10.8"/>
  </clipPath>
 </defs>
</svg>
