<?xml version="1.0" encoding="utf-8" standalone="no"?>
<!DOCTYPE svg PUBLIC "-//W3C//DTD SVG 1.1//EN"
  "http://www.w3.org/Graphics/SVG/1.1/DTD/svg11.dtd">
<!-- Created with matplotlib (https://matplotlib.org/) -->
<svg height="576pt" version="1.1" viewBox="0 0 1440 576" width="1440pt" xmlns="http://www.w3.org/2000/svg" xmlns:xlink="http://www.w3.org/1999/xlink">
 <defs>
  <style type="text/css">
*{stroke-linecap:butt;stroke-linejoin:round;white-space:pre;}
  </style>
 </defs>
 <g id="figure_1">
  <g id="patch_1">
   <path d="M 0 576 
L 1440 576 
L 1440 0 
L 0 0 
z
" style="fill:#ffffff;"/>
  </g>
  <g id="axes_1">
   <g id="patch_2">
    <path d="M 114.175 496.2 
L 1429.2 496.2 
L 1429.2 10.8 
L 114.175 10.8 
z
" style="fill:#ffffff;"/>
   </g>
   <g id="patch_3">
    <path clip-path="url(#p04df4b3448)" d="M 173.948864 496.2 
L 173.948864 10.8 
L 174.882101 10.8 
L 174.882101 496.2 
z
" style="fill:#0000ff;"/>
   </g>
   <g id="patch_4">
    <path clip-path="url(#p04df4b3448)" d="M 178.615051 496.2 
L 178.615051 10.8 
L 179.548289 10.8 
L 179.548289 496.2 
z
" style="fill:#0000ff;"/>
   </g>
   <g id="patch_5">
    <path clip-path="url(#p04df4b3448)" d="M 215.944552 496.2 
L 215.944552 10.8 
L 216.87779 10.8 
L 216.87779 496.2 
z
" style="fill:#0000ff;"/>
   </g>
   <g id="patch_6">
    <path clip-path="url(#p04df4b3448)" d="M 346.597806 496.2 
L 346.597806 10.8 
L 347.531044 10.8 
L 347.531044 496.2 
z
" style="fill:#0000ff;"/>
   </g>
   <g id="patch_7">
    <path clip-path="url(#p04df4b3448)" d="M 607.904314 496.2 
L 607.904314 10.8 
L 608.837551 10.8 
L 608.837551 496.2 
z
" style="fill:#0000ff;"/>
   </g>
   <g id="patch_8">
    <path clip-path="url(#p04df4b3448)" d="M 934.537449 496.2 
L 934.537449 10.8 
L 935.470686 10.8 
L 935.470686 496.2 
z
" style="fill:#0000ff;"/>
   </g>
   <g id="patch_9">
    <path clip-path="url(#p04df4b3448)" d="M 1195.843956 496.2 
L 1195.843956 10.8 
L 1196.777194 10.8 
L 1196.777194 496.2 
z
" style="fill:#0000ff;"/>
   </g>
   <g id="patch_10">
    <path clip-path="url(#p04df4b3448)" d="M 1326.49721 496.2 
L 1326.49721 10.8 
L 1327.430448 10.8 
L 1327.430448 496.2 
z
" style="fill:#0000ff;"/>
   </g>
   <g id="patch_11">
    <path clip-path="url(#p04df4b3448)" d="M 1363.826711 496.2 
L 1363.826711 10.8 
L 1364.759949 10.8 
L 1364.759949 496.2 
z
" style="fill:#0000ff;"/>
   </g>
   <g id="patch_12">
    <path clip-path="url(#p04df4b3448)" d="M 1368.492899 496.2 
L 1368.492899 10.8 
L 1369.426136 10.8 
L 1369.426136 496.2 
z
" style="fill:#0000ff;"/>
   </g>
   <g id="matplotlib.axis_1">
    <g id="xtick_1">
     <g id="line2d_1">
      <defs>
       <path d="M 0 0 
L 0 3.5 
" id="m14ab6ea8fa" style="stroke:#000000;stroke-width:0.8;"/>
      </defs>
      <g>
       <use style="stroke:#000000;stroke-width:0.8;" x="174.882101" xlink:href="#m14ab6ea8fa" y="496.2"/>
      </g>
     </g>
     <g id="text_1">
      <!-- 0 -->
      <defs>
       <path d="M 31.78125 66.40625 
Q 24.171875 66.40625 20.328125 58.90625 
Q 16.5 51.421875 16.5 36.375 
Q 16.5 21.390625 20.328125 13.890625 
Q 24.171875 6.390625 31.78125 6.390625 
Q 39.453125 6.390625 43.28125 13.890625 
Q 47.125 21.390625 47.125 36.375 
Q 47.125 51.421875 43.28125 58.90625 
Q 39.453125 66.40625 31.78125 66.40625 
z
M 31.78125 74.21875 
Q 44.046875 74.21875 50.515625 64.515625 
Q 56.984375 54.828125 56.984375 36.375 
Q 56.984375 17.96875 50.515625 8.265625 
Q 44.046875 -1.421875 31.78125 -1.421875 
Q 19.53125 -1.421875 13.0625 8.265625 
Q 6.59375 17.96875 6.59375 36.375 
Q 6.59375 54.828125 13.0625 64.515625 
Q 19.53125 74.21875 31.78125 74.21875 
z
" id="DejaVuSans-48"/>
      </defs>
      <g transform="translate(165.338351 525.995312)scale(0.3 -0.3)">
       <use xlink:href="#DejaVuSans-48"/>
      </g>
     </g>
    </g>
    <g id="xtick_2">
     <g id="line2d_2">
      <g>
       <use style="stroke:#000000;stroke-width:0.8;" x="408.191483" xlink:href="#m14ab6ea8fa" y="496.2"/>
      </g>
     </g>
     <g id="text_2">
      <!-- 50 -->
      <defs>
       <path d="M 10.796875 72.90625 
L 49.515625 72.90625 
L 49.515625 64.59375 
L 19.828125 64.59375 
L 19.828125 46.734375 
Q 21.96875 47.46875 24.109375 47.828125 
Q 26.265625 48.1875 28.421875 48.1875 
Q 40.625 48.1875 47.75 41.5 
Q 54.890625 34.8125 54.890625 23.390625 
Q 54.890625 11.625 47.5625 5.09375 
Q 40.234375 -1.421875 26.90625 -1.421875 
Q 22.3125 -1.421875 17.546875 -0.640625 
Q 12.796875 0.140625 7.71875 1.703125 
L 7.71875 11.625 
Q 12.109375 9.234375 16.796875 8.0625 
Q 21.484375 6.890625 26.703125 6.890625 
Q 35.15625 6.890625 40.078125 11.328125 
Q 45.015625 15.765625 45.015625 23.390625 
Q 45.015625 31 40.078125 35.4375 
Q 35.15625 39.890625 26.703125 39.890625 
Q 22.75 39.890625 18.8125 39.015625 
Q 14.890625 38.140625 10.796875 36.28125 
z
" id="DejaVuSans-53"/>
      </defs>
      <g transform="translate(389.103983 525.995312)scale(0.3 -0.3)">
       <use xlink:href="#DejaVuSans-53"/>
       <use x="63.623047" xlink:href="#DejaVuSans-48"/>
      </g>
     </g>
    </g>
    <g id="xtick_3">
     <g id="line2d_3">
      <g>
       <use style="stroke:#000000;stroke-width:0.8;" x="641.500865" xlink:href="#m14ab6ea8fa" y="496.2"/>
      </g>
     </g>
     <g id="text_3">
      <!-- 100 -->
      <defs>
       <path d="M 12.40625 8.296875 
L 28.515625 8.296875 
L 28.515625 63.921875 
L 10.984375 60.40625 
L 10.984375 69.390625 
L 28.421875 72.90625 
L 38.28125 72.90625 
L 38.28125 8.296875 
L 54.390625 8.296875 
L 54.390625 0 
L 12.40625 0 
z
" id="DejaVuSans-49"/>
      </defs>
      <g transform="translate(612.869615 525.995312)scale(0.3 -0.3)">
       <use xlink:href="#DejaVuSans-49"/>
       <use x="63.623047" xlink:href="#DejaVuSans-48"/>
       <use x="127.246094" xlink:href="#DejaVuSans-48"/>
      </g>
     </g>
    </g>
    <g id="xtick_4">
     <g id="line2d_4">
      <g>
       <use style="stroke:#000000;stroke-width:0.8;" x="874.810247" xlink:href="#m14ab6ea8fa" y="496.2"/>
      </g>
     </g>
     <g id="text_4">
      <!-- 150 -->
      <g transform="translate(846.178997 525.995312)scale(0.3 -0.3)">
       <use xlink:href="#DejaVuSans-49"/>
       <use x="63.623047" xlink:href="#DejaVuSans-53"/>
       <use x="127.246094" xlink:href="#DejaVuSans-48"/>
      </g>
     </g>
    </g>
    <g id="xtick_5">
     <g id="line2d_5">
      <g>
       <use style="stroke:#000000;stroke-width:0.8;" x="1108.119629" xlink:href="#m14ab6ea8fa" y="496.2"/>
      </g>
     </g>
     <g id="text_5">
      <!-- 200 -->
      <defs>
       <path d="M 19.1875 8.296875 
L 53.609375 8.296875 
L 53.609375 0 
L 7.328125 0 
L 7.328125 8.296875 
Q 12.9375 14.109375 22.625 23.890625 
Q 32.328125 33.6875 34.8125 36.53125 
Q 39.546875 41.84375 41.421875 45.53125 
Q 43.3125 49.21875 43.3125 52.78125 
Q 43.3125 58.59375 39.234375 62.25 
Q 35.15625 65.921875 28.609375 65.921875 
Q 23.96875 65.921875 18.8125 64.3125 
Q 13.671875 62.703125 7.8125 59.421875 
L 7.8125 69.390625 
Q 13.765625 71.78125 18.9375 73 
Q 24.125 74.21875 28.421875 74.21875 
Q 39.75 74.21875 46.484375 68.546875 
Q 53.21875 62.890625 53.21875 53.421875 
Q 53.21875 48.921875 51.53125 44.890625 
Q 49.859375 40.875 45.40625 35.40625 
Q 44.1875 33.984375 37.640625 27.21875 
Q 31.109375 20.453125 19.1875 8.296875 
z
" id="DejaVuSans-50"/>
      </defs>
      <g transform="translate(1079.488379 525.995312)scale(0.3 -0.3)">
       <use xlink:href="#DejaVuSans-50"/>
       <use x="63.623047" xlink:href="#DejaVuSans-48"/>
       <use x="127.246094" xlink:href="#DejaVuSans-48"/>
      </g>
     </g>
    </g>
    <g id="xtick_6">
     <g id="line2d_6">
      <g>
       <use style="stroke:#000000;stroke-width:0.8;" x="1341.429011" xlink:href="#m14ab6ea8fa" y="496.2"/>
      </g>
     </g>
     <g id="text_6">
      <!-- 250 -->
      <g transform="translate(1312.797761 525.995312)scale(0.3 -0.3)">
       <use xlink:href="#DejaVuSans-50"/>
       <use x="63.623047" xlink:href="#DejaVuSans-53"/>
       <use x="127.246094" xlink:href="#DejaVuSans-48"/>
      </g>
     </g>
    </g>
    <g id="text_7">
     <!-- Bit Interaction -->
     <defs>
      <path d="M 19.671875 34.8125 
L 19.671875 8.109375 
L 35.5 8.109375 
Q 43.453125 8.109375 47.28125 11.40625 
Q 51.125 14.703125 51.125 21.484375 
Q 51.125 28.328125 47.28125 31.5625 
Q 43.453125 34.8125 35.5 34.8125 
z
M 19.671875 64.796875 
L 19.671875 42.828125 
L 34.28125 42.828125 
Q 41.5 42.828125 45.03125 45.53125 
Q 48.578125 48.25 48.578125 53.8125 
Q 48.578125 59.328125 45.03125 62.0625 
Q 41.5 64.796875 34.28125 64.796875 
z
M 9.8125 72.90625 
L 35.015625 72.90625 
Q 46.296875 72.90625 52.390625 68.21875 
Q 58.5 63.53125 58.5 54.890625 
Q 58.5 48.1875 55.375 44.234375 
Q 52.25 40.28125 46.1875 39.3125 
Q 53.46875 37.75 57.5 32.78125 
Q 61.53125 27.828125 61.53125 20.40625 
Q 61.53125 10.640625 54.890625 5.3125 
Q 48.25 0 35.984375 0 
L 9.8125 0 
z
" id="DejaVuSans-66"/>
      <path d="M 9.421875 54.6875 
L 18.40625 54.6875 
L 18.40625 0 
L 9.421875 0 
z
M 9.421875 75.984375 
L 18.40625 75.984375 
L 18.40625 64.59375 
L 9.421875 64.59375 
z
" id="DejaVuSans-105"/>
      <path d="M 18.3125 70.21875 
L 18.3125 54.6875 
L 36.8125 54.6875 
L 36.8125 47.703125 
L 18.3125 47.703125 
L 18.3125 18.015625 
Q 18.3125 11.328125 20.140625 9.421875 
Q 21.96875 7.515625 27.59375 7.515625 
L 36.8125 7.515625 
L 36.8125 0 
L 27.59375 0 
Q 17.1875 0 13.234375 3.875 
Q 9.28125 7.765625 9.28125 18.015625 
L 9.28125 47.703125 
L 2.6875 47.703125 
L 2.6875 54.6875 
L 9.28125 54.6875 
L 9.28125 70.21875 
z
" id="DejaVuSans-116"/>
      <path id="DejaVuSans-32"/>
      <path d="M 9.8125 72.90625 
L 19.671875 72.90625 
L 19.671875 0 
L 9.8125 0 
z
" id="DejaVuSans-73"/>
      <path d="M 54.890625 33.015625 
L 54.890625 0 
L 45.90625 0 
L 45.90625 32.71875 
Q 45.90625 40.484375 42.875 44.328125 
Q 39.84375 48.1875 33.796875 48.1875 
Q 26.515625 48.1875 22.3125 43.546875 
Q 18.109375 38.921875 18.109375 30.90625 
L 18.109375 0 
L 9.078125 0 
L 9.078125 54.6875 
L 18.109375 54.6875 
L 18.109375 46.1875 
Q 21.34375 51.125 25.703125 53.5625 
Q 30.078125 56 35.796875 56 
Q 45.21875 56 50.046875 50.171875 
Q 54.890625 44.34375 54.890625 33.015625 
z
" id="DejaVuSans-110"/>
      <path d="M 56.203125 29.59375 
L 56.203125 25.203125 
L 14.890625 25.203125 
Q 15.484375 15.921875 20.484375 11.0625 
Q 25.484375 6.203125 34.421875 6.203125 
Q 39.59375 6.203125 44.453125 7.46875 
Q 49.3125 8.734375 54.109375 11.28125 
L 54.109375 2.78125 
Q 49.265625 0.734375 44.1875 -0.34375 
Q 39.109375 -1.421875 33.890625 -1.421875 
Q 20.796875 -1.421875 13.15625 6.1875 
Q 5.515625 13.8125 5.515625 26.8125 
Q 5.515625 40.234375 12.765625 48.109375 
Q 20.015625 56 32.328125 56 
Q 43.359375 56 49.78125 48.890625 
Q 56.203125 41.796875 56.203125 29.59375 
z
M 47.21875 32.234375 
Q 47.125 39.59375 43.09375 43.984375 
Q 39.0625 48.390625 32.421875 48.390625 
Q 24.90625 48.390625 20.390625 44.140625 
Q 15.875 39.890625 15.1875 32.171875 
z
" id="DejaVuSans-101"/>
      <path d="M 41.109375 46.296875 
Q 39.59375 47.171875 37.8125 47.578125 
Q 36.03125 48 33.890625 48 
Q 26.265625 48 22.1875 43.046875 
Q 18.109375 38.09375 18.109375 28.8125 
L 18.109375 0 
L 9.078125 0 
L 9.078125 54.6875 
L 18.109375 54.6875 
L 18.109375 46.1875 
Q 20.953125 51.171875 25.484375 53.578125 
Q 30.03125 56 36.53125 56 
Q 37.453125 56 38.578125 55.875 
Q 39.703125 55.765625 41.0625 55.515625 
z
" id="DejaVuSans-114"/>
      <path d="M 34.28125 27.484375 
Q 23.390625 27.484375 19.1875 25 
Q 14.984375 22.515625 14.984375 16.5 
Q 14.984375 11.71875 18.140625 8.90625 
Q 21.296875 6.109375 26.703125 6.109375 
Q 34.1875 6.109375 38.703125 11.40625 
Q 43.21875 16.703125 43.21875 25.484375 
L 43.21875 27.484375 
z
M 52.203125 31.203125 
L 52.203125 0 
L 43.21875 0 
L 43.21875 8.296875 
Q 40.140625 3.328125 35.546875 0.953125 
Q 30.953125 -1.421875 24.3125 -1.421875 
Q 15.921875 -1.421875 10.953125 3.296875 
Q 6 8.015625 6 15.921875 
Q 6 25.140625 12.171875 29.828125 
Q 18.359375 34.515625 30.609375 34.515625 
L 43.21875 34.515625 
L 43.21875 35.40625 
Q 43.21875 41.609375 39.140625 45 
Q 35.0625 48.390625 27.6875 48.390625 
Q 23 48.390625 18.546875 47.265625 
Q 14.109375 46.140625 10.015625 43.890625 
L 10.015625 52.203125 
Q 14.9375 54.109375 19.578125 55.046875 
Q 24.21875 56 28.609375 56 
Q 40.484375 56 46.34375 49.84375 
Q 52.203125 43.703125 52.203125 31.203125 
z
" id="DejaVuSans-97"/>
      <path d="M 48.78125 52.59375 
L 48.78125 44.1875 
Q 44.96875 46.296875 41.140625 47.34375 
Q 37.3125 48.390625 33.40625 48.390625 
Q 24.65625 48.390625 19.8125 42.84375 
Q 14.984375 37.3125 14.984375 27.296875 
Q 14.984375 17.28125 19.8125 11.734375 
Q 24.65625 6.203125 33.40625 6.203125 
Q 37.3125 6.203125 41.140625 7.25 
Q 44.96875 8.296875 48.78125 10.40625 
L 48.78125 2.09375 
Q 45.015625 0.34375 40.984375 -0.53125 
Q 36.96875 -1.421875 32.421875 -1.421875 
Q 20.0625 -1.421875 12.78125 6.34375 
Q 5.515625 14.109375 5.515625 27.296875 
Q 5.515625 40.671875 12.859375 48.328125 
Q 20.21875 56 33.015625 56 
Q 37.15625 56 41.109375 55.140625 
Q 45.0625 54.296875 48.78125 52.59375 
z
" id="DejaVuSans-99"/>
      <path d="M 30.609375 48.390625 
Q 23.390625 48.390625 19.1875 42.75 
Q 14.984375 37.109375 14.984375 27.296875 
Q 14.984375 17.484375 19.15625 11.84375 
Q 23.34375 6.203125 30.609375 6.203125 
Q 37.796875 6.203125 41.984375 11.859375 
Q 46.1875 17.53125 46.1875 27.296875 
Q 46.1875 37.015625 41.984375 42.703125 
Q 37.796875 48.390625 30.609375 48.390625 
z
M 30.609375 56 
Q 42.328125 56 49.015625 48.375 
Q 55.71875 40.765625 55.71875 27.296875 
Q 55.71875 13.875 49.015625 6.21875 
Q 42.328125 -1.421875 30.609375 -1.421875 
Q 18.84375 -1.421875 12.171875 6.21875 
Q 5.515625 13.875 5.515625 27.296875 
Q 5.515625 40.765625 12.171875 48.375 
Q 18.84375 56 30.609375 56 
z
" id="DejaVuSans-111"/>
     </defs>
     <g transform="translate(665.201563 559.029688)scale(0.3 -0.3)">
      <use xlink:href="#DejaVuSans-66"/>
      <use x="68.603516" xlink:href="#DejaVuSans-105"/>
      <use x="96.386719" xlink:href="#DejaVuSans-116"/>
      <use x="135.595703" xlink:href="#DejaVuSans-32"/>
      <use x="167.382812" xlink:href="#DejaVuSans-73"/>
      <use x="196.875" xlink:href="#DejaVuSans-110"/>
      <use x="260.253906" xlink:href="#DejaVuSans-116"/>
      <use x="299.462891" xlink:href="#DejaVuSans-101"/>
      <use x="360.986328" xlink:href="#DejaVuSans-114"/>
      <use x="402.099609" xlink:href="#DejaVuSans-97"/>
      <use x="463.378906" xlink:href="#DejaVuSans-99"/>
      <use x="518.359375" xlink:href="#DejaVuSans-116"/>
      <use x="557.568359" xlink:href="#DejaVuSans-105"/>
      <use x="585.351562" xlink:href="#DejaVuSans-111"/>
      <use x="646.533203" xlink:href="#DejaVuSans-110"/>
     </g>
    </g>
   </g>
   <g id="matplotlib.axis_2">
    <g id="ytick_1">
     <g id="line2d_7">
      <defs>
       <path d="M 0 0 
L -3.5 0 
" id="m5321a5fd76" style="stroke:#000000;stroke-width:0.8;"/>
      </defs>
      <g>
       <use style="stroke:#000000;stroke-width:0.8;" x="114.175" xlink:href="#m5321a5fd76" y="423.355285"/>
      </g>
     </g>
     <g id="text_8">
      <!-- −10 -->
      <defs>
       <path d="M 10.59375 35.5 
L 73.1875 35.5 
L 73.1875 27.203125 
L 10.59375 27.203125 
z
" id="DejaVuSans-8722"/>
      </defs>
      <g transform="translate(43.860937 434.752941)scale(0.3 -0.3)">
       <use xlink:href="#DejaVuSans-8722"/>
       <use x="83.789062" xlink:href="#DejaVuSans-49"/>
       <use x="147.412109" xlink:href="#DejaVuSans-48"/>
      </g>
     </g>
    </g>
    <g id="ytick_2">
     <g id="line2d_8">
      <g>
       <use style="stroke:#000000;stroke-width:0.8;" x="114.175" xlink:href="#m5321a5fd76" y="349.791552"/>
      </g>
     </g>
     <g id="text_9">
      <!-- −8 -->
      <defs>
       <path d="M 31.78125 34.625 
Q 24.75 34.625 20.71875 30.859375 
Q 16.703125 27.09375 16.703125 20.515625 
Q 16.703125 13.921875 20.71875 10.15625 
Q 24.75 6.390625 31.78125 6.390625 
Q 38.8125 6.390625 42.859375 10.171875 
Q 46.921875 13.96875 46.921875 20.515625 
Q 46.921875 27.09375 42.890625 30.859375 
Q 38.875 34.625 31.78125 34.625 
z
M 21.921875 38.8125 
Q 15.578125 40.375 12.03125 44.71875 
Q 8.5 49.078125 8.5 55.328125 
Q 8.5 64.0625 14.71875 69.140625 
Q 20.953125 74.21875 31.78125 74.21875 
Q 42.671875 74.21875 48.875 69.140625 
Q 55.078125 64.0625 55.078125 55.328125 
Q 55.078125 49.078125 51.53125 44.71875 
Q 48 40.375 41.703125 38.8125 
Q 48.828125 37.15625 52.796875 32.3125 
Q 56.78125 27.484375 56.78125 20.515625 
Q 56.78125 9.90625 50.3125 4.234375 
Q 43.84375 -1.421875 31.78125 -1.421875 
Q 19.734375 -1.421875 13.25 4.234375 
Q 6.78125 9.90625 6.78125 20.515625 
Q 6.78125 27.484375 10.78125 32.3125 
Q 14.796875 37.15625 21.921875 38.8125 
z
M 18.3125 54.390625 
Q 18.3125 48.734375 21.84375 45.5625 
Q 25.390625 42.390625 31.78125 42.390625 
Q 38.140625 42.390625 41.71875 45.5625 
Q 45.3125 48.734375 45.3125 54.390625 
Q 45.3125 60.0625 41.71875 63.234375 
Q 38.140625 66.40625 31.78125 66.40625 
Q 25.390625 66.40625 21.84375 63.234375 
Q 18.3125 60.0625 18.3125 54.390625 
z
" id="DejaVuSans-56"/>
      </defs>
      <g transform="translate(62.948437 361.189208)scale(0.3 -0.3)">
       <use xlink:href="#DejaVuSans-8722"/>
       <use x="83.789062" xlink:href="#DejaVuSans-56"/>
      </g>
     </g>
    </g>
    <g id="ytick_3">
     <g id="line2d_9">
      <g>
       <use style="stroke:#000000;stroke-width:0.8;" x="114.175" xlink:href="#m5321a5fd76" y="276.227819"/>
      </g>
     </g>
     <g id="text_10">
      <!-- −6 -->
      <defs>
       <path d="M 33.015625 40.375 
Q 26.375 40.375 22.484375 35.828125 
Q 18.609375 31.296875 18.609375 23.390625 
Q 18.609375 15.53125 22.484375 10.953125 
Q 26.375 6.390625 33.015625 6.390625 
Q 39.65625 6.390625 43.53125 10.953125 
Q 47.40625 15.53125 47.40625 23.390625 
Q 47.40625 31.296875 43.53125 35.828125 
Q 39.65625 40.375 33.015625 40.375 
z
M 52.59375 71.296875 
L 52.59375 62.3125 
Q 48.875 64.0625 45.09375 64.984375 
Q 41.3125 65.921875 37.59375 65.921875 
Q 27.828125 65.921875 22.671875 59.328125 
Q 17.53125 52.734375 16.796875 39.40625 
Q 19.671875 43.65625 24.015625 45.921875 
Q 28.375 48.1875 33.59375 48.1875 
Q 44.578125 48.1875 50.953125 41.515625 
Q 57.328125 34.859375 57.328125 23.390625 
Q 57.328125 12.15625 50.6875 5.359375 
Q 44.046875 -1.421875 33.015625 -1.421875 
Q 20.359375 -1.421875 13.671875 8.265625 
Q 6.984375 17.96875 6.984375 36.375 
Q 6.984375 53.65625 15.1875 63.9375 
Q 23.390625 74.21875 37.203125 74.21875 
Q 40.921875 74.21875 44.703125 73.484375 
Q 48.484375 72.75 52.59375 71.296875 
z
" id="DejaVuSans-54"/>
      </defs>
      <g transform="translate(62.948437 287.625476)scale(0.3 -0.3)">
       <use xlink:href="#DejaVuSans-8722"/>
       <use x="83.789062" xlink:href="#DejaVuSans-54"/>
      </g>
     </g>
    </g>
    <g id="ytick_4">
     <g id="line2d_10">
      <g>
       <use style="stroke:#000000;stroke-width:0.8;" x="114.175" xlink:href="#m5321a5fd76" y="202.664087"/>
      </g>
     </g>
     <g id="text_11">
      <!-- −4 -->
      <defs>
       <path d="M 37.796875 64.3125 
L 12.890625 25.390625 
L 37.796875 25.390625 
z
M 35.203125 72.90625 
L 47.609375 72.90625 
L 47.609375 25.390625 
L 58.015625 25.390625 
L 58.015625 17.1875 
L 47.609375 17.1875 
L 47.609375 0 
L 37.796875 0 
L 37.796875 17.1875 
L 4.890625 17.1875 
L 4.890625 26.703125 
z
" id="DejaVuSans-52"/>
      </defs>
      <g transform="translate(62.948437 214.061743)scale(0.3 -0.3)">
       <use xlink:href="#DejaVuSans-8722"/>
       <use x="83.789062" xlink:href="#DejaVuSans-52"/>
      </g>
     </g>
    </g>
    <g id="ytick_5">
     <g id="line2d_11">
      <g>
       <use style="stroke:#000000;stroke-width:0.8;" x="114.175" xlink:href="#m5321a5fd76" y="129.100354"/>
      </g>
     </g>
     <g id="text_12">
      <!-- −2 -->
      <g transform="translate(62.948437 140.49801)scale(0.3 -0.3)">
       <use xlink:href="#DejaVuSans-8722"/>
       <use x="83.789062" xlink:href="#DejaVuSans-50"/>
      </g>
     </g>
    </g>
    <g id="ytick_6">
     <g id="line2d_12">
      <g>
       <use style="stroke:#000000;stroke-width:0.8;" x="114.175" xlink:href="#m5321a5fd76" y="55.536621"/>
      </g>
     </g>
     <g id="text_13">
      <!-- 0 -->
      <g transform="translate(88.0875 66.934278)scale(0.3 -0.3)">
       <use xlink:href="#DejaVuSans-48"/>
      </g>
     </g>
    </g>
    <g id="text_14">
     <!-- Weight Value -->
     <defs>
      <path d="M 3.328125 72.90625 
L 13.28125 72.90625 
L 28.609375 11.28125 
L 43.890625 72.90625 
L 54.984375 72.90625 
L 70.3125 11.28125 
L 85.59375 72.90625 
L 95.609375 72.90625 
L 77.296875 0 
L 64.890625 0 
L 49.515625 63.28125 
L 33.984375 0 
L 21.578125 0 
z
" id="DejaVuSans-87"/>
      <path d="M 45.40625 27.984375 
Q 45.40625 37.75 41.375 43.109375 
Q 37.359375 48.484375 30.078125 48.484375 
Q 22.859375 48.484375 18.828125 43.109375 
Q 14.796875 37.75 14.796875 27.984375 
Q 14.796875 18.265625 18.828125 12.890625 
Q 22.859375 7.515625 30.078125 7.515625 
Q 37.359375 7.515625 41.375 12.890625 
Q 45.40625 18.265625 45.40625 27.984375 
z
M 54.390625 6.78125 
Q 54.390625 -7.171875 48.1875 -13.984375 
Q 42 -20.796875 29.203125 -20.796875 
Q 24.46875 -20.796875 20.265625 -20.09375 
Q 16.0625 -19.390625 12.109375 -17.921875 
L 12.109375 -9.1875 
Q 16.0625 -11.328125 19.921875 -12.34375 
Q 23.78125 -13.375 27.78125 -13.375 
Q 36.625 -13.375 41.015625 -8.765625 
Q 45.40625 -4.15625 45.40625 5.171875 
L 45.40625 9.625 
Q 42.625 4.78125 38.28125 2.390625 
Q 33.9375 0 27.875 0 
Q 17.828125 0 11.671875 7.65625 
Q 5.515625 15.328125 5.515625 27.984375 
Q 5.515625 40.671875 11.671875 48.328125 
Q 17.828125 56 27.875 56 
Q 33.9375 56 38.28125 53.609375 
Q 42.625 51.21875 45.40625 46.390625 
L 45.40625 54.6875 
L 54.390625 54.6875 
z
" id="DejaVuSans-103"/>
      <path d="M 54.890625 33.015625 
L 54.890625 0 
L 45.90625 0 
L 45.90625 32.71875 
Q 45.90625 40.484375 42.875 44.328125 
Q 39.84375 48.1875 33.796875 48.1875 
Q 26.515625 48.1875 22.3125 43.546875 
Q 18.109375 38.921875 18.109375 30.90625 
L 18.109375 0 
L 9.078125 0 
L 9.078125 75.984375 
L 18.109375 75.984375 
L 18.109375 46.1875 
Q 21.34375 51.125 25.703125 53.5625 
Q 30.078125 56 35.796875 56 
Q 45.21875 56 50.046875 50.171875 
Q 54.890625 44.34375 54.890625 33.015625 
z
" id="DejaVuSans-104"/>
      <path d="M 28.609375 0 
L 0.78125 72.90625 
L 11.078125 72.90625 
L 34.1875 11.53125 
L 57.328125 72.90625 
L 67.578125 72.90625 
L 39.796875 0 
z
" id="DejaVuSans-86"/>
      <path d="M 9.421875 75.984375 
L 18.40625 75.984375 
L 18.40625 0 
L 9.421875 0 
z
" id="DejaVuSans-108"/>
      <path d="M 8.5 21.578125 
L 8.5 54.6875 
L 17.484375 54.6875 
L 17.484375 21.921875 
Q 17.484375 14.15625 20.5 10.265625 
Q 23.53125 6.390625 29.59375 6.390625 
Q 36.859375 6.390625 41.078125 11.03125 
Q 45.3125 15.671875 45.3125 23.6875 
L 45.3125 54.6875 
L 54.296875 54.6875 
L 54.296875 0 
L 45.3125 0 
L 45.3125 8.40625 
Q 42.046875 3.421875 37.71875 1 
Q 33.40625 -1.421875 27.6875 -1.421875 
Q 18.265625 -1.421875 13.375 4.4375 
Q 8.5 10.296875 8.5 21.578125 
z
M 31.109375 56 
z
" id="DejaVuSans-117"/>
     </defs>
     <g transform="translate(33.621875 353.732813)rotate(-90)scale(0.3 -0.3)">
      <use xlink:href="#DejaVuSans-87"/>
      <use x="98.798828" xlink:href="#DejaVuSans-101"/>
      <use x="160.322266" xlink:href="#DejaVuSans-105"/>
      <use x="188.105469" xlink:href="#DejaVuSans-103"/>
      <use x="251.582031" xlink:href="#DejaVuSans-104"/>
      <use x="314.960938" xlink:href="#DejaVuSans-116"/>
      <use x="354.169922" xlink:href="#DejaVuSans-32"/>
      <use x="385.957031" xlink:href="#DejaVuSans-86"/>
      <use x="454.255859" xlink:href="#DejaVuSans-97"/>
      <use x="515.535156" xlink:href="#DejaVuSans-108"/>
      <use x="543.318359" xlink:href="#DejaVuSans-117"/>
      <use x="606.697266" xlink:href="#DejaVuSans-101"/>
     </g>
    </g>
   </g>
   <g id="line2d_13">
    <path clip-path="url(#p04df4b3448)" d="M 174.882101 60.939506 
L 179.548289 68.523989 
L 184.214476 54.238846 
L 188.880664 42.366731 
L 193.546852 54.640371 
L 198.213039 48.70525 
L 202.879227 71.222342 
L 207.545415 55.430721 
L 212.211602 55.009031 
L 216.87779 58.741906 
L 221.543978 70.278168 
L 226.210165 63.15314 
L 230.876353 64.246634 
L 235.54254 56.762879 
L 240.208728 48.967677 
L 244.874916 54.586569 
L 249.541103 70.094383 
L 254.207291 48.448838 
L 258.873479 57.329765 
L 263.539666 60.379587 
L 268.205854 55.10107 
L 272.872042 58.974566 
L 277.538229 63.831744 
L 282.204417 52.321854 
L 286.870604 63.808292 
L 291.536792 54.658327 
L 296.20298 48.99677 
L 300.869167 46.159729 
L 305.535355 56.589969 
L 310.201543 37.968793 
L 314.86773 32.992524 
L 319.533918 64.359994 
L 324.200106 44.391029 
L 328.866293 59.473965 
L 333.532481 71.180086 
L 338.198668 56.345118 
L 342.864856 63.698869 
L 347.531044 59.232536 
L 352.197231 57.69588 
L 356.863419 49.067817 
L 361.529607 55.130647 
L 366.195794 46.713664 
L 370.861982 54.729135 
L 375.52817 52.108617 
L 380.194357 68.456435 
L 384.860545 59.61651 
L 389.526732 52.170053 
L 394.19292 48.494595 
L 398.859108 68.44749 
L 403.525295 75.838312 
L 408.191483 58.034167 
L 412.857671 60.479374 
L 417.523858 64.318837 
L 422.190046 41.192686 
L 426.856234 42.036859 
L 431.522421 55.403813 
L 436.188609 45.512962 
L 440.854797 50.246295 
L 445.520984 59.526923 
L 450.187172 55.777619 
L 454.853359 51.443147 
L 459.519547 65.640524 
L 464.185735 56.687945 
L 468.851922 69.576301 
L 473.51811 44.896133 
L 478.184298 66.974088 
L 482.850485 53.230952 
L 487.516673 53.253741 
L 492.182861 58.208169 
L 496.849048 61.354605 
L 501.515236 60.080326 
L 506.181423 55.002937 
L 510.847611 55.279254 
L 515.513799 52.937129 
L 520.179986 56.353693 
L 524.846174 68.850438 
L 529.512362 44.701046 
L 534.178549 56.975113 
L 538.844737 56.610216 
L 543.510925 38.785274 
L 548.177112 33.951265 
L 552.8433 53.321962 
L 557.509487 55.091643 
L 562.175675 61.692206 
L 566.841863 54.41814 
L 571.50805 59.151369 
L 576.174238 47.594461 
L 580.840426 39.502022 
L 585.506613 49.424169 
L 590.172801 52.245404 
L 594.838989 53.433474 
L 599.505176 61.732984 
L 604.171364 59.439713 
L 608.837551 54.182988 
L 613.503739 52.938383 
L 618.169927 60.37084 
L 622.836114 56.576446 
L 627.502302 59.023891 
L 632.16849 54.041855 
L 636.834677 59.37288 
L 641.500865 57.539961 
L 646.167053 48.307348 
L 650.83324 49.97145 
L 655.499428 58.731317 
L 660.165615 49.242661 
L 664.831803 59.246273 
L 669.497991 53.119751 
L 674.164178 52.639913 
L 678.830366 64.233781 
L 683.496554 45.677927 
L 688.162741 67.345197 
L 692.828929 52.018724 
L 702.161304 56.906281 
L 706.827492 57.859444 
L 711.493679 48.699672 
L 716.159867 54.793326 
L 720.826055 55.235942 
L 725.492242 53.667752 
L 730.15843 63.246873 
L 734.824618 49.378704 
L 739.490805 62.997362 
L 744.156993 61.497739 
L 748.823181 70.132573 
L 753.489368 50.071752 
L 758.155556 57.507659 
L 762.821743 74.145882 
L 767.487931 60.635747 
L 772.154119 48.804928 
L 776.820306 49.95323 
L 781.486494 50.616589 
L 786.152682 51.563108 
L 790.818869 54.931364 
L 795.485057 54.844215 
L 800.151245 59.862807 
L 804.817432 48.995693 
L 809.48362 58.077897 
L 814.149808 65.170693 
L 818.815995 40.768292 
L 823.482183 56.777604 
L 828.14837 48.141154 
L 832.814558 60.366225 
L 837.480746 60.011123 
L 842.146933 60.209395 
L 846.813121 64.812472 
L 851.479309 63.638617 
L 856.145496 60.310283 
L 860.811684 61.694032 
L 865.477872 67.31989 
L 870.144059 48.972107 
L 874.810247 51.830406 
L 879.476434 54.259466 
L 884.142622 57.027709 
L 888.80881 43.160477 
L 893.474997 58.768629 
L 898.141185 54.651014 
L 907.47356 55.127431 
L 912.139748 51.466654 
L 916.805936 48.176079 
L 921.472123 63.901091 
L 926.138311 58.387437 
L 930.804498 64.097485 
L 935.470686 50.610354 
L 940.136874 35.553317 
L 944.803061 62.281814 
L 949.469249 65.941427 
L 954.135437 56.373517 
L 958.801624 60.519857 
L 963.467812 54.23646 
L 968.134 49.777159 
L 972.800187 52.705723 
L 977.466375 57.615334 
L 982.132562 37.86424 
L 986.79875 58.101514 
L 991.464938 56.139226 
L 996.131125 57.606504 
L 1000.797313 40.293272 
L 1005.463501 40.495934 
L 1010.129688 55.278423 
L 1014.795876 62.297519 
L 1019.462064 41.951435 
L 1024.128251 62.273171 
L 1028.794439 54.499318 
L 1033.460626 58.250972 
L 1038.126814 63.07308 
L 1042.793002 54.166228 
L 1047.459189 54.912991 
L 1052.125377 55.946693 
L 1056.791565 52.081477 
L 1061.457752 59.878796 
L 1066.12394 59.762558 
L 1070.790128 50.947996 
L 1075.456315 62.903419 
L 1080.122503 57.012768 
L 1084.78869 69.283255 
L 1089.454878 46.107369 
L 1094.121066 52.25258 
L 1098.787253 53.321162 
L 1103.453441 55.496686 
L 1108.119629 59.264196 
L 1112.785816 45.986259 
L 1117.452004 51.977118 
L 1122.118192 60.538789 
L 1126.784379 46.705653 
L 1131.450567 59.131216 
L 1136.116754 56.338248 
L 1140.782942 60.728632 
L 1145.44913 57.689101 
L 1150.115317 65.985566 
L 1154.781505 53.462347 
L 1159.447693 50.015242 
L 1164.11388 50.406017 
L 1168.780068 67.0906 
L 1173.446256 54.072647 
L 1178.112443 71.794872 
L 1182.778631 55.295527 
L 1187.444819 53.93116 
L 1192.111006 58.199509 
L 1196.777194 57.295015 
L 1201.443381 48.911637 
L 1206.109569 58.623065 
L 1210.775757 48.934198 
L 1215.441944 54.584659 
L 1220.108132 54.843063 
L 1224.77432 68.455006 
L 1229.440507 39.5697 
L 1234.106695 51.004954 
L 1238.772883 50.576781 
L 1243.43907 67.922994 
L 1248.105258 60.382875 
L 1252.771445 66.968299 
L 1257.437633 61.898378 
L 1262.103821 63.906732 
L 1266.770008 48.444648 
L 1271.436196 52.557644 
L 1276.102384 61.950075 
L 1280.768571 44.391949 
L 1285.434759 56.980814 
L 1290.100947 52.573607 
L 1294.767134 60.627391 
L 1299.433322 66.065736 
L 1304.099509 69.047953 
L 1308.765697 55.268415 
L 1313.431885 61.08775 
L 1318.098072 69.829437 
L 1322.76426 58.071859 
L 1327.430448 48.321608 
L 1332.096635 44.458525 
L 1336.762823 59.27759 
L 1341.429011 64.232232 
L 1346.095198 55.096137 
L 1350.761386 61.319527 
L 1355.427573 54.242818 
L 1360.093761 52.697162 
L 1364.759949 58.060759 
L 1364.759949 58.060759 
" style="fill:none;stroke:#1f77b4;stroke-linecap:square;stroke-width:1.5;"/>
   </g>
   <g id="line2d_14">
    <path clip-path="url(#p04df4b3448)" d="M 174.882101 51.573659 
L 179.548289 53.180708 
L 184.214476 474.136364 
L 188.880664 53.187267 
L 193.546852 57.973629 
L 198.213039 53.989542 
L 202.879227 55.03773 
L 207.545415 55.876944 
L 212.211602 473.543757 
L 216.87779 56.691268 
L 221.543978 57.587118 
L 226.210165 54.277507 
L 230.876353 50.568108 
L 235.54254 57.15185 
L 240.208728 52.284634 
L 244.874916 52.103207 
L 249.541103 64.155586 
L 254.207291 47.81984 
L 258.873479 64.261253 
L 263.539666 52.623089 
L 268.205854 56.832191 
L 272.872042 54.218118 
L 277.538229 57.955093 
L 282.204417 56.025523 
L 286.870604 50.298786 
L 291.536792 68.65571 
L 296.20298 52.685757 
L 300.869167 55.07399 
L 305.535355 56.514145 
L 310.201543 45.708532 
L 314.86773 49.612904 
L 319.533918 53.807261 
L 324.200106 65.573871 
L 328.866293 62.196988 
L 333.532481 61.316434 
L 342.864856 50.053516 
L 347.531044 56.076476 
L 352.197231 63.939227 
L 356.863419 54.567 
L 361.529607 55.795037 
L 366.195794 51.419223 
L 370.861982 56.599329 
L 375.52817 53.103317 
L 380.194357 48.930329 
L 384.860545 42.910725 
L 389.526732 55.145985 
L 394.19292 50.227106 
L 398.859108 49.603569 
L 403.525295 51.314325 
L 408.191483 55.178832 
L 412.857671 53.405838 
L 417.523858 48.027413 
L 422.190046 54.301424 
L 426.856234 54.378097 
L 431.522421 55.990398 
L 436.188609 59.854713 
L 440.854797 54.932141 
L 445.520984 62.271569 
L 450.187172 56.071316 
L 454.853359 54.34122 
L 459.519547 50.189607 
L 464.185735 60.979054 
L 468.851922 47.22958 
L 473.51811 53.93357 
L 478.184298 58.776244 
L 482.850485 52.393444 
L 487.516673 50.524509 
L 492.182861 56.700809 
L 496.849048 55.259705 
L 501.515236 52.965751 
L 506.181423 64.504412 
L 510.847611 51.67775 
L 515.513799 47.847137 
L 520.179986 56.264082 
L 524.846174 61.755466 
L 529.512362 49.846894 
L 534.178549 46.795106 
L 538.844737 61.558543 
L 543.510925 52.342768 
L 548.177112 53.293323 
L 552.8433 62.994922 
L 557.509487 52.994556 
L 562.175675 45.153313 
L 566.841863 56.911816 
L 571.50805 54.835669 
L 576.174238 57.711906 
L 580.840426 55.89796 
L 585.506613 58.484182 
L 590.172801 58.714499 
L 594.838989 49.560701 
L 599.505176 61.555333 
L 604.171364 48.71256 
L 608.837551 55.629494 
L 613.503739 60.055937 
L 618.169927 47.830323 
L 622.836114 53.954855 
L 627.502302 49.358057 
L 632.16849 54.959178 
L 636.834677 58.282888 
L 641.500865 58.218912 
L 646.167053 53.721452 
L 650.83324 54.03163 
L 655.499428 57.762622 
L 660.165615 57.031932 
L 664.831803 53.720423 
L 669.497991 51.487508 
L 674.164178 49.445061 
L 678.830366 57.978743 
L 683.496554 56.632118 
L 688.162741 56.413789 
L 692.828929 52.85044 
L 697.495117 59.905962 
L 702.161304 54.239929 
L 706.827492 42.363591 
L 711.493679 61.394774 
L 716.159867 64.355925 
L 720.826055 52.433708 
L 725.492242 52.434622 
L 730.15843 57.408239 
L 734.824618 49.083691 
L 739.490805 50.890637 
L 744.156993 43.058118 
L 748.823181 50.4048 
L 753.489368 54.203583 
L 762.821743 61.123115 
L 767.487931 42.094498 
L 772.154119 58.694305 
L 776.820306 57.228374 
L 781.486494 62.793862 
L 786.152682 50.446903 
L 790.818869 57.08209 
L 795.485057 61.565561 
L 800.151245 63.975687 
L 804.817432 55.640952 
L 809.48362 51.430649 
L 814.149808 53.301459 
L 818.815995 54.638318 
L 823.482183 54.917912 
L 828.14837 55.963923 
L 832.814558 61.900648 
L 837.480746 58.226717 
L 842.146933 52.185475 
L 846.813121 58.47022 
L 851.479309 49.498446 
L 856.145496 58.472871 
L 860.811684 59.794456 
L 865.477872 58.134071 
L 870.144059 63.192409 
L 874.810247 62.140156 
L 879.476434 61.309058 
L 884.142622 59.740585 
L 888.80881 66.016893 
L 893.474997 56.618275 
L 898.141185 55.416448 
L 902.807373 51.748235 
L 907.47356 59.553201 
L 912.139748 60.840586 
L 916.805936 58.025305 
L 921.472123 61.137816 
L 926.138311 58.957518 
L 930.804498 56.241094 
L 935.470686 58.634503 
L 940.136874 45.859798 
L 944.803061 47.27103 
L 949.469249 57.886222 
L 954.135437 47.971649 
L 958.801624 55.170899 
L 963.467812 52.385718 
L 968.134 53.860471 
L 972.800187 53.908553 
L 977.466375 52.462032 
L 982.132562 53.923605 
L 986.79875 58.163982 
L 991.464938 55.632434 
L 996.131125 57.963741 
L 1000.797313 55.639298 
L 1005.463501 58.772258 
L 1010.129688 44.190128 
L 1014.795876 52.52962 
L 1019.462064 56.561451 
L 1024.128251 60.119646 
L 1028.794439 56.400322 
L 1033.460626 60.52298 
L 1038.126814 61.104664 
L 1042.793002 59.136329 
L 1047.459189 58.672416 
L 1052.125377 50.562984 
L 1056.791565 56.674316 
L 1061.457752 57.303303 
L 1066.12394 59.163167 
L 1070.790128 52.136613 
L 1075.456315 46.626109 
L 1080.122503 53.197419 
L 1084.78869 53.745078 
L 1089.454878 62.406296 
L 1094.121066 60.781092 
L 1098.787253 60.720199 
L 1103.453441 49.538389 
L 1108.119629 44.663085 
L 1112.785816 46.723579 
L 1117.452004 60.56292 
L 1122.118192 55.120133 
L 1126.784379 63.323364 
L 1131.450567 63.139133 
L 1136.116754 44.178917 
L 1140.782942 57.326264 
L 1145.44913 58.788322 
L 1150.115317 45.789557 
L 1154.781505 41.371011 
L 1159.447693 55.031965 
L 1164.11388 51.84977 
L 1168.780068 54.637895 
L 1173.446256 61.270664 
L 1178.112443 53.631321 
L 1182.778631 51.222634 
L 1187.444819 47.947225 
L 1192.111006 58.491043 
L 1196.777194 53.223233 
L 1201.443381 58.962957 
L 1206.109569 50.038377 
L 1210.775757 55.156306 
L 1215.441944 55.972899 
L 1220.108132 50.141111 
L 1224.77432 57.349057 
L 1229.440507 52.223154 
L 1234.106695 58.499667 
L 1238.772883 62.904574 
L 1243.43907 52.876191 
L 1248.105258 52.482244 
L 1252.771445 58.224653 
L 1257.437633 60.077234 
L 1262.103821 52.508174 
L 1266.770008 56.457639 
L 1271.436196 51.036307 
L 1276.102384 61.923548 
L 1280.768571 51.827921 
L 1285.434759 60.05119 
L 1290.100947 54.684363 
L 1294.767134 60.917814 
L 1299.433322 51.217291 
L 1304.099509 59.378719 
L 1308.765697 59.860123 
L 1313.431885 68.074591 
L 1318.098072 55.294825 
L 1322.76426 54.875831 
L 1327.430448 64.331196 
L 1332.096635 52.971886 
L 1336.762823 54.470323 
L 1341.429011 54.41489 
L 1346.095198 59.910845 
L 1350.761386 52.651326 
L 1355.427573 53.274957 
L 1360.093761 60.717395 
L 1364.759949 50.367135 
L 1364.759949 50.367135 
" style="fill:none;stroke:#ff7f0e;stroke-linecap:square;stroke-width:1.5;"/>
   </g>
   <g id="line2d_15">
    <path clip-path="url(#p04df4b3448)" d="M 174.882101 51.941485 
L 179.548289 47.540627 
L 184.214476 56.495388 
L 188.880664 62.487253 
L 193.546852 467.815568 
L 198.213039 53.507283 
L 202.879227 45.008467 
L 207.545415 468.176835 
L 212.211602 55.221744 
L 216.87779 57.024982 
L 221.543978 60.255469 
L 226.210165 60.183663 
L 230.876353 54.688422 
L 235.54254 51.868609 
L 240.208728 53.847599 
L 244.874916 51.980514 
L 249.541103 50.307449 
L 254.207291 57.297128 
L 258.873479 51.103046 
L 263.539666 51.038343 
L 268.205854 53.742499 
L 272.872042 56.75017 
L 277.538229 56.432684 
L 282.204417 54.718035 
L 286.870604 54.760256 
L 291.536792 56.95559 
L 296.20298 57.968356 
L 300.869167 56.190365 
L 305.535355 59.285967 
L 310.201543 59.668386 
L 314.86773 61.41158 
L 319.533918 55.729279 
L 324.200106 51.117592 
L 328.866293 61.631946 
L 333.532481 54.977256 
L 338.198668 55.592901 
L 342.864856 55.554689 
L 347.531044 52.48786 
L 352.197231 54.580291 
L 356.863419 51.701036 
L 361.529607 56.837881 
L 366.195794 54.975029 
L 370.861982 59.730262 
L 375.52817 55.145274 
L 380.194357 61.054525 
L 384.860545 48.337146 
L 389.526732 57.986624 
L 394.19292 59.361493 
L 398.859108 58.360316 
L 403.525295 54.771173 
L 408.191483 59.036665 
L 412.857671 47.413522 
L 417.523858 53.578349 
L 422.190046 51.415024 
L 426.856234 52.303648 
L 431.522421 47.818873 
L 436.188609 66.586632 
L 440.854797 55.822283 
L 445.520984 51.845055 
L 450.187172 58.159398 
L 454.853359 58.195977 
L 459.519547 59.437809 
L 464.185735 51.698581 
L 468.851922 52.489353 
L 473.51811 50.752273 
L 482.850485 44.773386 
L 487.516673 59.452404 
L 492.182861 50.522693 
L 496.849048 55.863249 
L 501.515236 48.269712 
L 506.181423 54.751794 
L 510.847611 57.358013 
L 515.513799 57.105289 
L 520.179986 55.530757 
L 524.846174 63.705474 
L 529.512362 54.892713 
L 534.178549 51.30292 
L 538.844737 58.216214 
L 543.510925 61.721296 
L 548.177112 61.268861 
L 552.8433 50.006614 
L 557.509487 56.276018 
L 562.175675 55.135765 
L 571.50805 53.690674 
L 576.174238 56.419125 
L 580.840426 58.915871 
L 585.506613 52.070137 
L 590.172801 56.312647 
L 594.838989 55.335036 
L 599.505176 54.907413 
L 604.171364 57.379184 
L 608.837551 56.694919 
L 613.503739 46.636034 
L 618.169927 48.63817 
L 622.836114 55.711884 
L 627.502302 54.079334 
L 632.16849 53.117598 
L 636.834677 44.842022 
L 641.500865 44.818144 
L 646.167053 54.26198 
L 650.83324 49.168463 
L 655.499428 52.33225 
L 660.165615 62.587738 
L 664.831803 54.378052 
L 669.497991 55.71395 
L 674.164178 52.17674 
L 678.830366 56.843707 
L 683.496554 58.667763 
L 688.162741 47.054938 
L 692.828929 56.135961 
L 697.495117 50.208663 
L 702.161304 49.272365 
L 706.827492 58.924785 
L 711.493679 51.75809 
L 716.159867 61.005038 
L 720.826055 59.461989 
L 725.492242 59.69315 
L 730.15843 50.174255 
L 734.824618 52.571364 
L 739.490805 49.234045 
L 744.156993 55.666725 
L 748.823181 56.397269 
L 753.489368 57.746041 
L 758.155556 50.293211 
L 762.821743 54.975881 
L 767.487931 61.492301 
L 772.154119 60.191377 
L 776.820306 55.536586 
L 781.486494 51.977141 
L 786.152682 62.746721 
L 790.818869 58.026432 
L 795.485057 54.149452 
L 800.151245 60.940413 
L 804.817432 50.37779 
L 809.48362 55.211112 
L 814.149808 47.227736 
L 818.815995 57.111756 
L 823.482183 51.096161 
L 828.14837 56.625835 
L 832.814558 60.578398 
L 837.480746 50.528936 
L 842.146933 51.456796 
L 846.813121 47.71767 
L 851.479309 62.47983 
L 856.145496 51.508319 
L 860.811684 53.53572 
L 865.477872 47.322778 
L 870.144059 61.714065 
L 874.810247 55.615677 
L 879.476434 61.998931 
L 884.142622 54.342111 
L 888.80881 58.244948 
L 893.474997 66.51582 
L 898.141185 51.365341 
L 902.807373 55.488077 
L 907.47356 62.130134 
L 912.139748 50.938194 
L 916.805936 55.376675 
L 926.138311 56.077724 
L 930.804498 54.352007 
L 940.136874 55.164334 
L 944.803061 54.089175 
L 949.469249 54.811467 
L 954.135437 52.932456 
L 958.801624 59.466279 
L 963.467812 53.229506 
L 968.134 51.60467 
L 972.800187 57.335229 
L 977.466375 57.377332 
L 982.132562 58.845186 
L 986.79875 51.330399 
L 991.464938 46.331154 
L 996.131125 59.950867 
L 1000.797313 57.829422 
L 1005.463501 52.98416 
L 1010.129688 60.179277 
L 1014.795876 56.863101 
L 1019.462064 56.540337 
L 1024.128251 57.30196 
L 1028.794439 58.397267 
L 1033.460626 55.857449 
L 1038.126814 54.015564 
L 1042.793002 58.727387 
L 1047.459189 54.895854 
L 1052.125377 57.018182 
L 1056.791565 55.228008 
L 1061.457752 59.00403 
L 1066.12394 53.100554 
L 1070.790128 49.200994 
L 1075.456315 58.512465 
L 1080.122503 50.352169 
L 1084.78869 55.992358 
L 1089.454878 68.189378 
L 1094.121066 48.690052 
L 1098.787253 51.380431 
L 1103.453441 51.156959 
L 1108.119629 66.655324 
L 1112.785816 51.578165 
L 1117.452004 55.366522 
L 1122.118192 57.75682 
L 1126.784379 51.435809 
L 1131.450567 49.117404 
L 1136.116754 42.910919 
L 1140.782942 56.054251 
L 1145.44913 51.752134 
L 1150.115317 59.978516 
L 1154.781505 55.490516 
L 1159.447693 50.177181 
L 1164.11388 56.674215 
L 1168.780068 51.361131 
L 1173.446256 48.76859 
L 1178.112443 52.077194 
L 1187.444819 57.942582 
L 1192.111006 60.224974 
L 1196.777194 59.064962 
L 1201.443381 51.944834 
L 1206.109569 60.262869 
L 1210.775757 63.473961 
L 1215.441944 55.984556 
L 1220.108132 59.234739 
L 1224.77432 53.162849 
L 1229.440507 55.906925 
L 1234.106695 48.954791 
L 1238.772883 59.476543 
L 1243.43907 51.784226 
L 1248.105258 52.795745 
L 1252.771445 54.651616 
L 1257.437633 61.426445 
L 1262.103821 47.841398 
L 1266.770008 57.140555 
L 1271.436196 47.198809 
L 1276.102384 64.432078 
L 1280.768571 61.791116 
L 1285.434759 62.129304 
L 1290.100947 52.047158 
L 1294.767134 52.901761 
L 1299.433322 55.923725 
L 1308.765697 62.779195 
L 1313.431885 56.067288 
L 1318.098072 48.411412 
L 1322.76426 51.465074 
L 1327.430448 58.662212 
L 1332.096635 50.007969 
L 1336.762823 56.417522 
L 1341.429011 53.849377 
L 1346.095198 52.495352 
L 1350.761386 56.873213 
L 1355.427573 63.231424 
L 1360.093761 56.358931 
L 1364.759949 55.658823 
L 1364.759949 55.658823 
" style="fill:none;stroke:#2ca02c;stroke-linecap:square;stroke-width:1.5;"/>
   </g>
   <g id="line2d_16">
    <path clip-path="url(#p04df4b3448)" d="M 174.882101 54.128014 
L 179.548289 59.627595 
L 184.214476 56.049969 
L 188.880664 51.576242 
L 193.546852 54.189386 
L 198.213039 54.501074 
L 202.879227 74.166071 
L 207.545415 62.080424 
L 212.211602 46.43807 
L 216.87779 47.408657 
L 221.543978 62.528004 
L 226.210165 68.035655 
L 230.876353 58.320241 
L 235.54254 65.741043 
L 240.208728 51.827712 
L 244.874916 46.113498 
L 249.541103 54.887339 
L 254.207291 50.418272 
L 258.873479 50.072092 
L 263.539666 44.596926 
L 268.205854 47.717111 
L 272.872042 63.867364 
L 277.538229 65.491975 
L 282.204417 48.952454 
L 286.870604 56.139526 
L 291.536792 60.866458 
L 296.20298 48.721769 
L 300.869167 59.111138 
L 305.535355 43.957963 
L 310.201543 56.508331 
L 314.86773 60.930062 
L 319.533918 52.787181 
L 324.200106 63.055449 
L 328.866293 55.399837 
L 333.532481 39.198668 
L 338.198668 59.762665 
L 342.864856 51.818079 
L 347.531044 55.420772 
L 352.197231 68.046087 
L 356.863419 61.03454 
L 361.529607 60.630461 
L 366.195794 58.890983 
L 370.861982 60.150405 
L 375.52817 63.449909 
L 380.194357 55.685504 
L 384.860545 46.343613 
L 389.526732 52.613587 
L 394.19292 63.843866 
L 398.859108 73.893412 
L 403.525295 60.861049 
L 408.191483 58.759099 
L 412.857671 54.328391 
L 417.523858 62.237688 
L 422.190046 43.420104 
L 426.856234 52.619464 
L 431.522421 68.475428 
L 436.188609 55.664825 
L 440.854797 49.237191 
L 445.520984 56.254535 
L 450.187172 39.104493 
L 454.853359 52.10887 
L 459.519547 59.404144 
L 464.185735 49.850618 
L 468.851922 52.643239 
L 473.51811 58.860239 
L 478.184298 44.453551 
L 482.850485 49.779508 
L 487.516673 58.923534 
L 492.182861 45.699451 
L 496.849048 59.973632 
L 501.515236 53.676399 
L 506.181423 58.216198 
L 510.847611 49.079922 
L 515.513799 50.997856 
L 520.179986 43.280647 
L 524.846174 51.557845 
L 529.512362 56.716661 
L 534.178549 53.861239 
L 538.844737 62.926025 
L 543.510925 54.095161 
L 548.177112 58.143142 
L 552.8433 53.545037 
L 557.509487 59.887899 
L 562.175675 67.451436 
L 566.841863 45.839614 
L 571.50805 53.230899 
L 576.174238 40.270927 
L 580.840426 62.903551 
L 585.506613 54.787137 
L 590.172801 56.635083 
L 594.838989 46.059949 
L 599.505176 54.029946 
L 604.171364 52.474178 
L 608.837551 69.201126 
L 613.503739 64.436543 
L 618.169927 57.94503 
L 622.836114 67.221606 
L 627.502302 60.565536 
L 632.16849 46.654516 
L 636.834677 53.809899 
L 641.500865 51.805237 
L 646.167053 61.915287 
L 650.83324 52.493855 
L 655.499428 50.470519 
L 660.165615 52.61379 
L 664.831803 42.860843 
L 669.497991 55.978736 
L 674.164178 57.997022 
L 678.830366 59.142095 
L 683.496554 56.928601 
L 688.162741 59.480665 
L 692.828929 50.678767 
L 697.495117 53.081031 
L 702.161304 59.953391 
L 706.827492 49.941168 
L 711.493679 64.887508 
L 720.826055 51.936166 
L 725.492242 50.320776 
L 730.15843 66.419955 
L 734.824618 60.694801 
L 739.490805 64.106163 
L 744.156993 59.438684 
L 748.823181 49.930507 
L 753.489368 54.600996 
L 758.155556 56.694798 
L 762.821743 51.017497 
L 767.487931 60.09927 
L 772.154119 55.839434 
L 776.820306 57.961616 
L 781.486494 56.37746 
L 786.152682 49.437764 
L 790.818869 54.961566 
L 795.485057 53.4279 
L 800.151245 47.146877 
L 804.817432 47.349296 
L 809.48362 54.63857 
L 814.149808 61.137322 
L 818.815995 54.430391 
L 823.482183 56.513664 
L 828.14837 65.395462 
L 832.814558 57.587321 
L 837.480746 47.878556 
L 842.146933 53.416545 
L 846.813121 54.093682 
L 851.479309 49.805791 
L 856.145496 51.70832 
L 860.811684 69.810679 
L 865.477872 60.462077 
L 870.144059 54.289351 
L 874.810247 50.371052 
L 879.476434 53.379412 
L 884.142622 45.848945 
L 888.80881 58.061454 
L 893.474997 53.339103 
L 898.141185 65.194642 
L 902.807373 45.349344 
L 907.47356 46.213783 
L 912.139748 50.707226 
L 916.805936 48.579289 
L 921.472123 46.257204 
L 926.138311 54.344486 
L 930.804498 65.721843 
L 935.470686 46.850585 
L 940.136874 55.310023 
L 944.803061 56.188642 
L 949.469249 47.751246 
L 954.135437 70.707631 
L 958.801624 63.993763 
L 968.134 39.549188 
L 972.800187 41.352406 
L 977.466375 60.320029 
L 982.132562 58.842588 
L 986.79875 50.485459 
L 991.464938 55.020415 
L 996.131125 56.712229 
L 1000.797313 64.966707 
L 1005.463501 63.221489 
L 1010.129688 60.2957 
L 1014.795876 60.930583 
L 1019.462064 55.315633 
L 1024.128251 63.220405 
L 1028.794439 62.976151 
L 1033.460626 55.800538 
L 1038.126814 55.634927 
L 1042.793002 53.536335 
L 1047.459189 58.876998 
L 1052.125377 64.857201 
L 1056.791565 58.516329 
L 1061.457752 48.393674 
L 1066.12394 49.914564 
L 1070.790128 64.642198 
L 1075.456315 56.289785 
L 1080.122503 58.317736 
L 1084.78869 56.246058 
L 1089.454878 57.42499 
L 1094.121066 39.064527 
L 1098.787253 58.048308 
L 1103.453441 67.056912 
L 1108.119629 48.725581 
L 1112.785816 50.949477 
L 1117.452004 61.919859 
L 1122.118192 46.095476 
L 1126.784379 45.289293 
L 1131.450567 51.345481 
L 1136.116754 58.293815 
L 1140.782942 55.048233 
L 1145.44913 42.959133 
L 1150.115317 59.8364 
L 1154.781505 59.222195 
L 1159.447693 63.01204 
L 1164.11388 46.304892 
L 1168.780068 51.206118 
L 1173.446256 52.749011 
L 1178.112443 49.724354 
L 1182.778631 63.874137 
L 1187.444819 64.19437 
L 1192.111006 64.630168 
L 1196.777194 36.801091 
L 1201.443381 47.819357 
L 1206.109569 53.158529 
L 1210.775757 39.340249 
L 1215.441944 50.839696 
L 1220.108132 58.783151 
L 1224.77432 60.475062 
L 1229.440507 53.621399 
L 1234.106695 63.967655 
L 1238.772883 61.231118 
L 1243.43907 37.478573 
L 1248.105258 58.742844 
L 1252.771445 50.545106 
L 1257.437633 46.778443 
L 1262.103821 64.11873 
L 1266.770008 54.651203 
L 1271.436196 50.905128 
L 1276.102384 73.38431 
L 1280.768571 55.741771 
L 1285.434759 55.616791 
L 1290.100947 50.643462 
L 1294.767134 51.857783 
L 1299.433322 53.983221 
L 1304.099509 59.436633 
L 1308.765697 51.106226 
L 1313.431885 59.196478 
L 1318.098072 50.248893 
L 1322.76426 54.926053 
L 1327.430448 43.719671 
L 1332.096635 61.600567 
L 1336.762823 39.641601 
L 1341.429011 62.350716 
L 1346.095198 62.590501 
L 1350.761386 55.361295 
L 1355.427573 50.288036 
L 1360.093761 52.422879 
L 1364.759949 32.863636 
L 1364.759949 32.863636 
" style="fill:none;stroke:#d62728;stroke-linecap:square;stroke-width:1.5;"/>
   </g>
   <g id="patch_13">
    <path d="M 114.175 496.2 
L 114.175 10.8 
" style="fill:none;stroke:#000000;stroke-linecap:square;stroke-linejoin:miter;stroke-width:0.8;"/>
   </g>
   <g id="patch_14">
    <path d="M 1429.2 496.2 
L 1429.2 10.8 
" style="fill:none;stroke:#000000;stroke-linecap:square;stroke-linejoin:miter;stroke-width:0.8;"/>
   </g>
   <g id="patch_15">
    <path d="M 114.175 496.2 
L 1429.2 496.2 
" style="fill:none;stroke:#000000;stroke-linecap:square;stroke-linejoin:miter;stroke-width:0.8;"/>
   </g>
   <g id="patch_16">
    <path d="M 114.175 10.8 
L 1429.2 10.8 
" style="fill:none;stroke:#000000;stroke-linecap:square;stroke-linejoin:miter;stroke-width:0.8;"/>
   </g>
  </g>
 </g>
 <defs>
  <clipPath id="p04df4b3448">
   <rect height="485.4" width="1315.025" x="114.175" y="10.8"/>
  </clipPath>
 </defs>
</svg>
