<?xml version="1.0" encoding="utf-8" standalone="no"?>
<!DOCTYPE svg PUBLIC "-//W3C//DTD SVG 1.1//EN"
  "http://www.w3.org/Graphics/SVG/1.1/DTD/svg11.dtd">
<!-- Created with matplotlib (https://matplotlib.org/) -->
<svg height="576pt" version="1.1" viewBox="0 0 1440 576" width="1440pt" xmlns="http://www.w3.org/2000/svg" xmlns:xlink="http://www.w3.org/1999/xlink">
 <defs>
  <style type="text/css">
*{stroke-linecap:butt;stroke-linejoin:round;white-space:pre;}
  </style>
 </defs>
 <g id="figure_1">
  <g id="patch_1">
   <path d="M 0 576 
L 1440 576 
L 1440 0 
L 0 0 
z
" style="fill:#ffffff;"/>
  </g>
  <g id="axes_1">
   <g id="patch_2">
    <path d="M 95.05 496.2 
L 1429.2 496.2 
L 1429.2 18.086122 
L 95.05 18.086122 
z
" style="fill:#ffffff;"/>
   </g>
   <g id="patch_3">
    <path clip-path="url(#p5c5447db68)" d="M 155.693182 496.2 
L 155.693182 18.086122 
L 156.639992 18.086122 
L 156.639992 496.2 
z
" style="fill:#0000ff;"/>
   </g>
   <g id="patch_4">
    <path clip-path="url(#p5c5447db68)" d="M 160.427232 496.2 
L 160.427232 18.086122 
L 161.374042 18.086122 
L 161.374042 496.2 
z
" style="fill:#0000ff;"/>
   </g>
   <g id="patch_5">
    <path clip-path="url(#p5c5447db68)" d="M 198.299633 496.2 
L 198.299633 18.086122 
L 199.246443 18.086122 
L 199.246443 496.2 
z
" style="fill:#0000ff;"/>
   </g>
   <g id="patch_6">
    <path clip-path="url(#p5c5447db68)" d="M 330.853036 496.2 
L 330.853036 18.086122 
L 331.799846 18.086122 
L 331.799846 496.2 
z
" style="fill:#0000ff;"/>
   </g>
   <g id="patch_7">
    <path clip-path="url(#p5c5447db68)" d="M 595.959841 496.2 
L 595.959841 18.086122 
L 596.906651 18.086122 
L 596.906651 496.2 
z
" style="fill:#0000ff;"/>
   </g>
   <g id="patch_8">
    <path clip-path="url(#p5c5447db68)" d="M 927.343349 496.2 
L 927.343349 18.086122 
L 928.290159 18.086122 
L 928.290159 496.2 
z
" style="fill:#0000ff;"/>
   </g>
   <g id="patch_9">
    <path clip-path="url(#p5c5447db68)" d="M 1192.450154 496.2 
L 1192.450154 18.086122 
L 1193.396964 18.086122 
L 1193.396964 496.2 
z
" style="fill:#0000ff;"/>
   </g>
   <g id="patch_10">
    <path clip-path="url(#p5c5447db68)" d="M 1325.003557 496.2 
L 1325.003557 18.086122 
L 1325.950367 18.086122 
L 1325.950367 496.2 
z
" style="fill:#0000ff;"/>
   </g>
   <g id="patch_11">
    <path clip-path="url(#p5c5447db68)" d="M 1362.875958 496.2 
L 1362.875958 18.086122 
L 1363.822768 18.086122 
L 1363.822768 496.2 
z
" style="fill:#0000ff;"/>
   </g>
   <g id="patch_12">
    <path clip-path="url(#p5c5447db68)" d="M 1367.610008 496.2 
L 1367.610008 18.086122 
L 1368.556818 18.086122 
L 1368.556818 496.2 
z
" style="fill:#0000ff;"/>
   </g>
   <g id="matplotlib.axis_1">
    <g id="xtick_1">
     <g id="line2d_1">
      <defs>
       <path d="M 0 0 
L 0 3.5 
" id="ma19cff7d2c" style="stroke:#000000;stroke-width:0.8;"/>
      </defs>
      <g>
       <use style="stroke:#000000;stroke-width:0.8;" x="156.639992" xlink:href="#ma19cff7d2c" y="496.2"/>
      </g>
     </g>
     <g id="text_1">
      <!-- 0 -->
      <defs>
       <path d="M 31.78125 66.40625 
Q 24.171875 66.40625 20.328125 58.90625 
Q 16.5 51.421875 16.5 36.375 
Q 16.5 21.390625 20.328125 13.890625 
Q 24.171875 6.390625 31.78125 6.390625 
Q 39.453125 6.390625 43.28125 13.890625 
Q 47.125 21.390625 47.125 36.375 
Q 47.125 51.421875 43.28125 58.90625 
Q 39.453125 66.40625 31.78125 66.40625 
z
M 31.78125 74.21875 
Q 44.046875 74.21875 50.515625 64.515625 
Q 56.984375 54.828125 56.984375 36.375 
Q 56.984375 17.96875 50.515625 8.265625 
Q 44.046875 -1.421875 31.78125 -1.421875 
Q 19.53125 -1.421875 13.0625 8.265625 
Q 6.59375 17.96875 6.59375 36.375 
Q 6.59375 54.828125 13.0625 64.515625 
Q 19.53125 74.21875 31.78125 74.21875 
z
" id="DejaVuSans-48"/>
      </defs>
      <g transform="translate(147.096242 525.995312)scale(0.3 -0.3)">
       <use xlink:href="#DejaVuSans-48"/>
      </g>
     </g>
    </g>
    <g id="xtick_2">
     <g id="line2d_2">
      <g>
       <use style="stroke:#000000;stroke-width:0.8;" x="393.342497" xlink:href="#ma19cff7d2c" y="496.2"/>
      </g>
     </g>
     <g id="text_2">
      <!-- 50 -->
      <defs>
       <path d="M 10.796875 72.90625 
L 49.515625 72.90625 
L 49.515625 64.59375 
L 19.828125 64.59375 
L 19.828125 46.734375 
Q 21.96875 47.46875 24.109375 47.828125 
Q 26.265625 48.1875 28.421875 48.1875 
Q 40.625 48.1875 47.75 41.5 
Q 54.890625 34.8125 54.890625 23.390625 
Q 54.890625 11.625 47.5625 5.09375 
Q 40.234375 -1.421875 26.90625 -1.421875 
Q 22.3125 -1.421875 17.546875 -0.640625 
Q 12.796875 0.140625 7.71875 1.703125 
L 7.71875 11.625 
Q 12.109375 9.234375 16.796875 8.0625 
Q 21.484375 6.890625 26.703125 6.890625 
Q 35.15625 6.890625 40.078125 11.328125 
Q 45.015625 15.765625 45.015625 23.390625 
Q 45.015625 31 40.078125 35.4375 
Q 35.15625 39.890625 26.703125 39.890625 
Q 22.75 39.890625 18.8125 39.015625 
Q 14.890625 38.140625 10.796875 36.28125 
z
" id="DejaVuSans-53"/>
      </defs>
      <g transform="translate(374.254997 525.995312)scale(0.3 -0.3)">
       <use xlink:href="#DejaVuSans-53"/>
       <use x="63.623047" xlink:href="#DejaVuSans-48"/>
      </g>
     </g>
    </g>
    <g id="xtick_3">
     <g id="line2d_3">
      <g>
       <use style="stroke:#000000;stroke-width:0.8;" x="630.045002" xlink:href="#ma19cff7d2c" y="496.2"/>
      </g>
     </g>
     <g id="text_3">
      <!-- 100 -->
      <defs>
       <path d="M 12.40625 8.296875 
L 28.515625 8.296875 
L 28.515625 63.921875 
L 10.984375 60.40625 
L 10.984375 69.390625 
L 28.421875 72.90625 
L 38.28125 72.90625 
L 38.28125 8.296875 
L 54.390625 8.296875 
L 54.390625 0 
L 12.40625 0 
z
" id="DejaVuSans-49"/>
      </defs>
      <g transform="translate(601.413752 525.995312)scale(0.3 -0.3)">
       <use xlink:href="#DejaVuSans-49"/>
       <use x="63.623047" xlink:href="#DejaVuSans-48"/>
       <use x="127.246094" xlink:href="#DejaVuSans-48"/>
      </g>
     </g>
    </g>
    <g id="xtick_4">
     <g id="line2d_4">
      <g>
       <use style="stroke:#000000;stroke-width:0.8;" x="866.747507" xlink:href="#ma19cff7d2c" y="496.2"/>
      </g>
     </g>
     <g id="text_4">
      <!-- 150 -->
      <g transform="translate(838.116257 525.995312)scale(0.3 -0.3)">
       <use xlink:href="#DejaVuSans-49"/>
       <use x="63.623047" xlink:href="#DejaVuSans-53"/>
       <use x="127.246094" xlink:href="#DejaVuSans-48"/>
      </g>
     </g>
    </g>
    <g id="xtick_5">
     <g id="line2d_5">
      <g>
       <use style="stroke:#000000;stroke-width:0.8;" x="1103.450012" xlink:href="#ma19cff7d2c" y="496.2"/>
      </g>
     </g>
     <g id="text_5">
      <!-- 200 -->
      <defs>
       <path d="M 19.1875 8.296875 
L 53.609375 8.296875 
L 53.609375 0 
L 7.328125 0 
L 7.328125 8.296875 
Q 12.9375 14.109375 22.625 23.890625 
Q 32.328125 33.6875 34.8125 36.53125 
Q 39.546875 41.84375 41.421875 45.53125 
Q 43.3125 49.21875 43.3125 52.78125 
Q 43.3125 58.59375 39.234375 62.25 
Q 35.15625 65.921875 28.609375 65.921875 
Q 23.96875 65.921875 18.8125 64.3125 
Q 13.671875 62.703125 7.8125 59.421875 
L 7.8125 69.390625 
Q 13.765625 71.78125 18.9375 73 
Q 24.125 74.21875 28.421875 74.21875 
Q 39.75 74.21875 46.484375 68.546875 
Q 53.21875 62.890625 53.21875 53.421875 
Q 53.21875 48.921875 51.53125 44.890625 
Q 49.859375 40.875 45.40625 35.40625 
Q 44.1875 33.984375 37.640625 27.21875 
Q 31.109375 20.453125 19.1875 8.296875 
z
" id="DejaVuSans-50"/>
      </defs>
      <g transform="translate(1074.818762 525.995312)scale(0.3 -0.3)">
       <use xlink:href="#DejaVuSans-50"/>
       <use x="63.623047" xlink:href="#DejaVuSans-48"/>
       <use x="127.246094" xlink:href="#DejaVuSans-48"/>
      </g>
     </g>
    </g>
    <g id="xtick_6">
     <g id="line2d_6">
      <g>
       <use style="stroke:#000000;stroke-width:0.8;" x="1340.152518" xlink:href="#ma19cff7d2c" y="496.2"/>
      </g>
     </g>
     <g id="text_6">
      <!-- 250 -->
      <g transform="translate(1311.521268 525.995312)scale(0.3 -0.3)">
       <use xlink:href="#DejaVuSans-50"/>
       <use x="63.623047" xlink:href="#DejaVuSans-53"/>
       <use x="127.246094" xlink:href="#DejaVuSans-48"/>
      </g>
     </g>
    </g>
    <g id="text_7">
     <!-- Bit Interaction -->
     <defs>
      <path d="M 19.671875 34.8125 
L 19.671875 8.109375 
L 35.5 8.109375 
Q 43.453125 8.109375 47.28125 11.40625 
Q 51.125 14.703125 51.125 21.484375 
Q 51.125 28.328125 47.28125 31.5625 
Q 43.453125 34.8125 35.5 34.8125 
z
M 19.671875 64.796875 
L 19.671875 42.828125 
L 34.28125 42.828125 
Q 41.5 42.828125 45.03125 45.53125 
Q 48.578125 48.25 48.578125 53.8125 
Q 48.578125 59.328125 45.03125 62.0625 
Q 41.5 64.796875 34.28125 64.796875 
z
M 9.8125 72.90625 
L 35.015625 72.90625 
Q 46.296875 72.90625 52.390625 68.21875 
Q 58.5 63.53125 58.5 54.890625 
Q 58.5 48.1875 55.375 44.234375 
Q 52.25 40.28125 46.1875 39.3125 
Q 53.46875 37.75 57.5 32.78125 
Q 61.53125 27.828125 61.53125 20.40625 
Q 61.53125 10.640625 54.890625 5.3125 
Q 48.25 0 35.984375 0 
L 9.8125 0 
z
" id="DejaVuSans-66"/>
      <path d="M 9.421875 54.6875 
L 18.40625 54.6875 
L 18.40625 0 
L 9.421875 0 
z
M 9.421875 75.984375 
L 18.40625 75.984375 
L 18.40625 64.59375 
L 9.421875 64.59375 
z
" id="DejaVuSans-105"/>
      <path d="M 18.3125 70.21875 
L 18.3125 54.6875 
L 36.8125 54.6875 
L 36.8125 47.703125 
L 18.3125 47.703125 
L 18.3125 18.015625 
Q 18.3125 11.328125 20.140625 9.421875 
Q 21.96875 7.515625 27.59375 7.515625 
L 36.8125 7.515625 
L 36.8125 0 
L 27.59375 0 
Q 17.1875 0 13.234375 3.875 
Q 9.28125 7.765625 9.28125 18.015625 
L 9.28125 47.703125 
L 2.6875 47.703125 
L 2.6875 54.6875 
L 9.28125 54.6875 
L 9.28125 70.21875 
z
" id="DejaVuSans-116"/>
      <path id="DejaVuSans-32"/>
      <path d="M 9.8125 72.90625 
L 19.671875 72.90625 
L 19.671875 0 
L 9.8125 0 
z
" id="DejaVuSans-73"/>
      <path d="M 54.890625 33.015625 
L 54.890625 0 
L 45.90625 0 
L 45.90625 32.71875 
Q 45.90625 40.484375 42.875 44.328125 
Q 39.84375 48.1875 33.796875 48.1875 
Q 26.515625 48.1875 22.3125 43.546875 
Q 18.109375 38.921875 18.109375 30.90625 
L 18.109375 0 
L 9.078125 0 
L 9.078125 54.6875 
L 18.109375 54.6875 
L 18.109375 46.1875 
Q 21.34375 51.125 25.703125 53.5625 
Q 30.078125 56 35.796875 56 
Q 45.21875 56 50.046875 50.171875 
Q 54.890625 44.34375 54.890625 33.015625 
z
" id="DejaVuSans-110"/>
      <path d="M 56.203125 29.59375 
L 56.203125 25.203125 
L 14.890625 25.203125 
Q 15.484375 15.921875 20.484375 11.0625 
Q 25.484375 6.203125 34.421875 6.203125 
Q 39.59375 6.203125 44.453125 7.46875 
Q 49.3125 8.734375 54.109375 11.28125 
L 54.109375 2.78125 
Q 49.265625 0.734375 44.1875 -0.34375 
Q 39.109375 -1.421875 33.890625 -1.421875 
Q 20.796875 -1.421875 13.15625 6.1875 
Q 5.515625 13.8125 5.515625 26.8125 
Q 5.515625 40.234375 12.765625 48.109375 
Q 20.015625 56 32.328125 56 
Q 43.359375 56 49.78125 48.890625 
Q 56.203125 41.796875 56.203125 29.59375 
z
M 47.21875 32.234375 
Q 47.125 39.59375 43.09375 43.984375 
Q 39.0625 48.390625 32.421875 48.390625 
Q 24.90625 48.390625 20.390625 44.140625 
Q 15.875 39.890625 15.1875 32.171875 
z
" id="DejaVuSans-101"/>
      <path d="M 41.109375 46.296875 
Q 39.59375 47.171875 37.8125 47.578125 
Q 36.03125 48 33.890625 48 
Q 26.265625 48 22.1875 43.046875 
Q 18.109375 38.09375 18.109375 28.8125 
L 18.109375 0 
L 9.078125 0 
L 9.078125 54.6875 
L 18.109375 54.6875 
L 18.109375 46.1875 
Q 20.953125 51.171875 25.484375 53.578125 
Q 30.03125 56 36.53125 56 
Q 37.453125 56 38.578125 55.875 
Q 39.703125 55.765625 41.0625 55.515625 
z
" id="DejaVuSans-114"/>
      <path d="M 34.28125 27.484375 
Q 23.390625 27.484375 19.1875 25 
Q 14.984375 22.515625 14.984375 16.5 
Q 14.984375 11.71875 18.140625 8.90625 
Q 21.296875 6.109375 26.703125 6.109375 
Q 34.1875 6.109375 38.703125 11.40625 
Q 43.21875 16.703125 43.21875 25.484375 
L 43.21875 27.484375 
z
M 52.203125 31.203125 
L 52.203125 0 
L 43.21875 0 
L 43.21875 8.296875 
Q 40.140625 3.328125 35.546875 0.953125 
Q 30.953125 -1.421875 24.3125 -1.421875 
Q 15.921875 -1.421875 10.953125 3.296875 
Q 6 8.015625 6 15.921875 
Q 6 25.140625 12.171875 29.828125 
Q 18.359375 34.515625 30.609375 34.515625 
L 43.21875 34.515625 
L 43.21875 35.40625 
Q 43.21875 41.609375 39.140625 45 
Q 35.0625 48.390625 27.6875 48.390625 
Q 23 48.390625 18.546875 47.265625 
Q 14.109375 46.140625 10.015625 43.890625 
L 10.015625 52.203125 
Q 14.9375 54.109375 19.578125 55.046875 
Q 24.21875 56 28.609375 56 
Q 40.484375 56 46.34375 49.84375 
Q 52.203125 43.703125 52.203125 31.203125 
z
" id="DejaVuSans-97"/>
      <path d="M 48.78125 52.59375 
L 48.78125 44.1875 
Q 44.96875 46.296875 41.140625 47.34375 
Q 37.3125 48.390625 33.40625 48.390625 
Q 24.65625 48.390625 19.8125 42.84375 
Q 14.984375 37.3125 14.984375 27.296875 
Q 14.984375 17.28125 19.8125 11.734375 
Q 24.65625 6.203125 33.40625 6.203125 
Q 37.3125 6.203125 41.140625 7.25 
Q 44.96875 8.296875 48.78125 10.40625 
L 48.78125 2.09375 
Q 45.015625 0.34375 40.984375 -0.53125 
Q 36.96875 -1.421875 32.421875 -1.421875 
Q 20.0625 -1.421875 12.78125 6.34375 
Q 5.515625 14.109375 5.515625 27.296875 
Q 5.515625 40.671875 12.859375 48.328125 
Q 20.21875 56 33.015625 56 
Q 37.15625 56 41.109375 55.140625 
Q 45.0625 54.296875 48.78125 52.59375 
z
" id="DejaVuSans-99"/>
      <path d="M 30.609375 48.390625 
Q 23.390625 48.390625 19.1875 42.75 
Q 14.984375 37.109375 14.984375 27.296875 
Q 14.984375 17.484375 19.15625 11.84375 
Q 23.34375 6.203125 30.609375 6.203125 
Q 37.796875 6.203125 41.984375 11.859375 
Q 46.1875 17.53125 46.1875 27.296875 
Q 46.1875 37.015625 41.984375 42.703125 
Q 37.796875 48.390625 30.609375 48.390625 
z
M 30.609375 56 
Q 42.328125 56 49.015625 48.375 
Q 55.71875 40.765625 55.71875 27.296875 
Q 55.71875 13.875 49.015625 6.21875 
Q 42.328125 -1.421875 30.609375 -1.421875 
Q 18.84375 -1.421875 12.171875 6.21875 
Q 5.515625 13.875 5.515625 27.296875 
Q 5.515625 40.765625 12.171875 48.375 
Q 18.84375 56 30.609375 56 
z
" id="DejaVuSans-111"/>
     </defs>
     <g transform="translate(655.639063 559.029688)scale(0.3 -0.3)">
      <use xlink:href="#DejaVuSans-66"/>
      <use x="68.603516" xlink:href="#DejaVuSans-105"/>
      <use x="96.386719" xlink:href="#DejaVuSans-116"/>
      <use x="135.595703" xlink:href="#DejaVuSans-32"/>
      <use x="167.382812" xlink:href="#DejaVuSans-73"/>
      <use x="196.875" xlink:href="#DejaVuSans-110"/>
      <use x="260.253906" xlink:href="#DejaVuSans-116"/>
      <use x="299.462891" xlink:href="#DejaVuSans-101"/>
      <use x="360.986328" xlink:href="#DejaVuSans-114"/>
      <use x="402.099609" xlink:href="#DejaVuSans-97"/>
      <use x="463.378906" xlink:href="#DejaVuSans-99"/>
      <use x="518.359375" xlink:href="#DejaVuSans-116"/>
      <use x="557.568359" xlink:href="#DejaVuSans-105"/>
      <use x="585.351562" xlink:href="#DejaVuSans-111"/>
      <use x="646.533203" xlink:href="#DejaVuSans-110"/>
     </g>
    </g>
   </g>
   <g id="matplotlib.axis_2">
    <g id="ytick_1">
     <g id="line2d_7">
      <defs>
       <path d="M 0 0 
L -3.5 0 
" id="mcb6826a61d" style="stroke:#000000;stroke-width:0.8;"/>
      </defs>
      <g>
       <use style="stroke:#000000;stroke-width:0.8;" x="95.05" xlink:href="#mcb6826a61d" y="437.035923"/>
      </g>
     </g>
     <g id="text_8">
      <!-- −6 -->
      <defs>
       <path d="M 10.59375 35.5 
L 73.1875 35.5 
L 73.1875 27.203125 
L 10.59375 27.203125 
z
" id="DejaVuSans-8722"/>
       <path d="M 33.015625 40.375 
Q 26.375 40.375 22.484375 35.828125 
Q 18.609375 31.296875 18.609375 23.390625 
Q 18.609375 15.53125 22.484375 10.953125 
Q 26.375 6.390625 33.015625 6.390625 
Q 39.65625 6.390625 43.53125 10.953125 
Q 47.40625 15.53125 47.40625 23.390625 
Q 47.40625 31.296875 43.53125 35.828125 
Q 39.65625 40.375 33.015625 40.375 
z
M 52.59375 71.296875 
L 52.59375 62.3125 
Q 48.875 64.0625 45.09375 64.984375 
Q 41.3125 65.921875 37.59375 65.921875 
Q 27.828125 65.921875 22.671875 59.328125 
Q 17.53125 52.734375 16.796875 39.40625 
Q 19.671875 43.65625 24.015625 45.921875 
Q 28.375 48.1875 33.59375 48.1875 
Q 44.578125 48.1875 50.953125 41.515625 
Q 57.328125 34.859375 57.328125 23.390625 
Q 57.328125 12.15625 50.6875 5.359375 
Q 44.046875 -1.421875 33.015625 -1.421875 
Q 20.359375 -1.421875 13.671875 8.265625 
Q 6.984375 17.96875 6.984375 36.375 
Q 6.984375 53.65625 15.1875 63.9375 
Q 23.390625 74.21875 37.203125 74.21875 
Q 40.921875 74.21875 44.703125 73.484375 
Q 48.484375 72.75 52.59375 71.296875 
z
" id="DejaVuSans-54"/>
      </defs>
      <g transform="translate(43.823438 448.43358)scale(0.3 -0.3)">
       <use xlink:href="#DejaVuSans-8722"/>
       <use x="83.789062" xlink:href="#DejaVuSans-54"/>
      </g>
     </g>
    </g>
    <g id="ytick_2">
     <g id="line2d_8">
      <g>
       <use style="stroke:#000000;stroke-width:0.8;" x="95.05" xlink:href="#mcb6826a61d" y="377.847781"/>
      </g>
     </g>
     <g id="text_9">
      <!-- −5 -->
      <g transform="translate(43.823438 389.245437)scale(0.3 -0.3)">
       <use xlink:href="#DejaVuSans-8722"/>
       <use x="83.789062" xlink:href="#DejaVuSans-53"/>
      </g>
     </g>
    </g>
    <g id="ytick_3">
     <g id="line2d_9">
      <g>
       <use style="stroke:#000000;stroke-width:0.8;" x="95.05" xlink:href="#mcb6826a61d" y="318.659638"/>
      </g>
     </g>
     <g id="text_10">
      <!-- −4 -->
      <defs>
       <path d="M 37.796875 64.3125 
L 12.890625 25.390625 
L 37.796875 25.390625 
z
M 35.203125 72.90625 
L 47.609375 72.90625 
L 47.609375 25.390625 
L 58.015625 25.390625 
L 58.015625 17.1875 
L 47.609375 17.1875 
L 47.609375 0 
L 37.796875 0 
L 37.796875 17.1875 
L 4.890625 17.1875 
L 4.890625 26.703125 
z
" id="DejaVuSans-52"/>
      </defs>
      <g transform="translate(43.823438 330.057294)scale(0.3 -0.3)">
       <use xlink:href="#DejaVuSans-8722"/>
       <use x="83.789062" xlink:href="#DejaVuSans-52"/>
      </g>
     </g>
    </g>
    <g id="ytick_4">
     <g id="line2d_10">
      <g>
       <use style="stroke:#000000;stroke-width:0.8;" x="95.05" xlink:href="#mcb6826a61d" y="259.471496"/>
      </g>
     </g>
     <g id="text_11">
      <!-- −3 -->
      <defs>
       <path d="M 40.578125 39.3125 
Q 47.65625 37.796875 51.625 33 
Q 55.609375 28.21875 55.609375 21.1875 
Q 55.609375 10.40625 48.1875 4.484375 
Q 40.765625 -1.421875 27.09375 -1.421875 
Q 22.515625 -1.421875 17.65625 -0.515625 
Q 12.796875 0.390625 7.625 2.203125 
L 7.625 11.71875 
Q 11.71875 9.328125 16.59375 8.109375 
Q 21.484375 6.890625 26.8125 6.890625 
Q 36.078125 6.890625 40.9375 10.546875 
Q 45.796875 14.203125 45.796875 21.1875 
Q 45.796875 27.640625 41.28125 31.265625 
Q 36.765625 34.90625 28.71875 34.90625 
L 20.21875 34.90625 
L 20.21875 43.015625 
L 29.109375 43.015625 
Q 36.375 43.015625 40.234375 45.921875 
Q 44.09375 48.828125 44.09375 54.296875 
Q 44.09375 59.90625 40.109375 62.90625 
Q 36.140625 65.921875 28.71875 65.921875 
Q 24.65625 65.921875 20.015625 65.03125 
Q 15.375 64.15625 9.8125 62.3125 
L 9.8125 71.09375 
Q 15.4375 72.65625 20.34375 73.4375 
Q 25.25 74.21875 29.59375 74.21875 
Q 40.828125 74.21875 47.359375 69.109375 
Q 53.90625 64.015625 53.90625 55.328125 
Q 53.90625 49.265625 50.4375 45.09375 
Q 46.96875 40.921875 40.578125 39.3125 
z
" id="DejaVuSans-51"/>
      </defs>
      <g transform="translate(43.823438 270.869152)scale(0.3 -0.3)">
       <use xlink:href="#DejaVuSans-8722"/>
       <use x="83.789062" xlink:href="#DejaVuSans-51"/>
      </g>
     </g>
    </g>
    <g id="ytick_5">
     <g id="line2d_11">
      <g>
       <use style="stroke:#000000;stroke-width:0.8;" x="95.05" xlink:href="#mcb6826a61d" y="200.283353"/>
      </g>
     </g>
     <g id="text_12">
      <!-- −2 -->
      <g transform="translate(43.823438 211.681009)scale(0.3 -0.3)">
       <use xlink:href="#DejaVuSans-8722"/>
       <use x="83.789062" xlink:href="#DejaVuSans-50"/>
      </g>
     </g>
    </g>
    <g id="ytick_6">
     <g id="line2d_12">
      <g>
       <use style="stroke:#000000;stroke-width:0.8;" x="95.05" xlink:href="#mcb6826a61d" y="141.09521"/>
      </g>
     </g>
     <g id="text_13">
      <!-- −1 -->
      <g transform="translate(43.823438 152.492867)scale(0.3 -0.3)">
       <use xlink:href="#DejaVuSans-8722"/>
       <use x="83.789062" xlink:href="#DejaVuSans-49"/>
      </g>
     </g>
    </g>
    <g id="ytick_7">
     <g id="line2d_13">
      <g>
       <use style="stroke:#000000;stroke-width:0.8;" x="95.05" xlink:href="#mcb6826a61d" y="81.907068"/>
      </g>
     </g>
     <g id="text_14">
      <!-- 0 -->
      <g transform="translate(68.9625 93.304724)scale(0.3 -0.3)">
       <use xlink:href="#DejaVuSans-48"/>
      </g>
     </g>
    </g>
    <g id="ytick_8">
     <g id="line2d_14">
      <g>
       <use style="stroke:#000000;stroke-width:0.8;" x="95.05" xlink:href="#mcb6826a61d" y="22.718925"/>
      </g>
     </g>
     <g id="text_15">
      <!-- 1 -->
      <g transform="translate(68.9625 34.116582)scale(0.3 -0.3)">
       <use xlink:href="#DejaVuSans-49"/>
      </g>
     </g>
    </g>
    <g id="text_16">
     <!-- Weight Value -->
     <defs>
      <path d="M 3.328125 72.90625 
L 13.28125 72.90625 
L 28.609375 11.28125 
L 43.890625 72.90625 
L 54.984375 72.90625 
L 70.3125 11.28125 
L 85.59375 72.90625 
L 95.609375 72.90625 
L 77.296875 0 
L 64.890625 0 
L 49.515625 63.28125 
L 33.984375 0 
L 21.578125 0 
z
" id="DejaVuSans-87"/>
      <path d="M 45.40625 27.984375 
Q 45.40625 37.75 41.375 43.109375 
Q 37.359375 48.484375 30.078125 48.484375 
Q 22.859375 48.484375 18.828125 43.109375 
Q 14.796875 37.75 14.796875 27.984375 
Q 14.796875 18.265625 18.828125 12.890625 
Q 22.859375 7.515625 30.078125 7.515625 
Q 37.359375 7.515625 41.375 12.890625 
Q 45.40625 18.265625 45.40625 27.984375 
z
M 54.390625 6.78125 
Q 54.390625 -7.171875 48.1875 -13.984375 
Q 42 -20.796875 29.203125 -20.796875 
Q 24.46875 -20.796875 20.265625 -20.09375 
Q 16.0625 -19.390625 12.109375 -17.921875 
L 12.109375 -9.1875 
Q 16.0625 -11.328125 19.921875 -12.34375 
Q 23.78125 -13.375 27.78125 -13.375 
Q 36.625 -13.375 41.015625 -8.765625 
Q 45.40625 -4.15625 45.40625 5.171875 
L 45.40625 9.625 
Q 42.625 4.78125 38.28125 2.390625 
Q 33.9375 0 27.875 0 
Q 17.828125 0 11.671875 7.65625 
Q 5.515625 15.328125 5.515625 27.984375 
Q 5.515625 40.671875 11.671875 48.328125 
Q 17.828125 56 27.875 56 
Q 33.9375 56 38.28125 53.609375 
Q 42.625 51.21875 45.40625 46.390625 
L 45.40625 54.6875 
L 54.390625 54.6875 
z
" id="DejaVuSans-103"/>
      <path d="M 54.890625 33.015625 
L 54.890625 0 
L 45.90625 0 
L 45.90625 32.71875 
Q 45.90625 40.484375 42.875 44.328125 
Q 39.84375 48.1875 33.796875 48.1875 
Q 26.515625 48.1875 22.3125 43.546875 
Q 18.109375 38.921875 18.109375 30.90625 
L 18.109375 0 
L 9.078125 0 
L 9.078125 75.984375 
L 18.109375 75.984375 
L 18.109375 46.1875 
Q 21.34375 51.125 25.703125 53.5625 
Q 30.078125 56 35.796875 56 
Q 45.21875 56 50.046875 50.171875 
Q 54.890625 44.34375 54.890625 33.015625 
z
" id="DejaVuSans-104"/>
      <path d="M 28.609375 0 
L 0.78125 72.90625 
L 11.078125 72.90625 
L 34.1875 11.53125 
L 57.328125 72.90625 
L 67.578125 72.90625 
L 39.796875 0 
z
" id="DejaVuSans-86"/>
      <path d="M 9.421875 75.984375 
L 18.40625 75.984375 
L 18.40625 0 
L 9.421875 0 
z
" id="DejaVuSans-108"/>
      <path d="M 8.5 21.578125 
L 8.5 54.6875 
L 17.484375 54.6875 
L 17.484375 21.921875 
Q 17.484375 14.15625 20.5 10.265625 
Q 23.53125 6.390625 29.59375 6.390625 
Q 36.859375 6.390625 41.078125 11.03125 
Q 45.3125 15.671875 45.3125 23.6875 
L 45.3125 54.6875 
L 54.296875 54.6875 
L 54.296875 0 
L 45.3125 0 
L 45.3125 8.40625 
Q 42.046875 3.421875 37.71875 1 
Q 33.40625 -1.421875 27.6875 -1.421875 
Q 18.265625 -1.421875 13.375 4.4375 
Q 8.5 10.296875 8.5 21.578125 
z
M 31.109375 56 
z
" id="DejaVuSans-117"/>
     </defs>
     <g transform="translate(33.584375 357.375874)rotate(-90)scale(0.3 -0.3)">
      <use xlink:href="#DejaVuSans-87"/>
      <use x="98.798828" xlink:href="#DejaVuSans-101"/>
      <use x="160.322266" xlink:href="#DejaVuSans-105"/>
      <use x="188.105469" xlink:href="#DejaVuSans-103"/>
      <use x="251.582031" xlink:href="#DejaVuSans-104"/>
      <use x="314.960938" xlink:href="#DejaVuSans-116"/>
      <use x="354.169922" xlink:href="#DejaVuSans-32"/>
      <use x="385.957031" xlink:href="#DejaVuSans-86"/>
      <use x="454.255859" xlink:href="#DejaVuSans-97"/>
      <use x="515.535156" xlink:href="#DejaVuSans-108"/>
      <use x="543.318359" xlink:href="#DejaVuSans-117"/>
      <use x="606.697266" xlink:href="#DejaVuSans-101"/>
     </g>
    </g>
   </g>
   <g id="line2d_15">
    <path clip-path="url(#p5c5447db68)" d="M 156.639992 77.560785 
L 161.374042 82.566838 
L 166.108092 82.734642 
L 170.842142 90.140725 
L 175.576192 69.600842 
L 180.310242 74.027099 
L 185.044292 68.104263 
L 189.778343 71.601416 
L 194.512393 68.381333 
L 199.246443 78.16668 
L 203.980493 71.434242 
L 208.714543 96.729406 
L 213.448593 90.940176 
L 218.182643 79.991564 
L 222.916693 81.110321 
L 227.650743 77.74986 
L 232.384793 60.154106 
L 237.118844 77.481286 
L 241.852894 68.018818 
L 246.586944 86.660504 
L 251.320994 87.219127 
L 256.055044 77.627454 
L 260.789094 82.808682 
L 265.523144 106.264651 
L 270.257194 46.167768 
L 274.991244 74.411527 
L 279.725295 90.149703 
L 284.459345 92.69151 
L 289.193395 75.628263 
L 293.927445 77.967068 
L 298.661495 85.37493 
L 303.395545 71.924507 
L 312.863645 89.467029 
L 317.597695 79.626096 
L 322.331745 80.570539 
L 327.065796 78.602656 
L 331.799846 69.86713 
L 336.533896 106.287824 
L 341.267946 82.119245 
L 346.001996 74.057929 
L 350.736046 84.525821 
L 355.470096 81.52889 
L 360.204146 97.269688 
L 364.938196 81.740567 
L 369.672246 94.775896 
L 374.406297 59.098826 
L 379.140347 66.281832 
L 383.874397 89.787631 
L 388.608447 96.475215 
L 393.342497 82.457368 
L 398.076547 51.526754 
L 402.810597 103.096739 
L 407.544647 55.624086 
L 412.278697 66.691388 
L 417.012747 84.490309 
L 421.746798 88.970358 
L 426.480848 75.122734 
L 431.214898 68.589502 
L 435.948948 71.827674 
L 440.682998 71.005025 
L 445.417048 79.930227 
L 450.151098 78.430556 
L 454.885148 62.887739 
L 459.619198 84.82133 
L 464.353249 111.285499 
L 469.087299 81.309408 
L 473.821349 86.187163 
L 478.555399 59.936244 
L 483.289449 89.977486 
L 488.023499 87.212038 
L 492.757549 101.462801 
L 497.491599 78.693219 
L 502.225649 55.237598 
L 506.959699 84.767168 
L 511.69375 67.052242 
L 516.4278 81.208496 
L 521.16185 94.360649 
L 525.8959 98.384308 
L 530.62995 89.333498 
L 535.364 109.905458 
L 540.09805 83.61817 
L 544.8321 72.635309 
L 549.56615 88.426275 
L 554.3002 81.762796 
L 559.034251 77.239105 
L 563.768301 88.035829 
L 568.502351 93.46551 
L 573.236401 105.570242 
L 577.970451 88.811916 
L 582.704501 96.252948 
L 587.438551 106.915737 
L 592.172601 85.540926 
L 596.906651 70.811512 
L 601.640702 65.517161 
L 606.374752 80.000562 
L 611.108802 96.732323 
L 615.842852 76.561749 
L 620.576902 76.240989 
L 625.310952 71.085311 
L 630.045002 92.079 
L 634.779052 71.216958 
L 644.247152 85.48583 
L 648.981203 66.438481 
L 653.715253 76.174213 
L 658.449303 69.301683 
L 663.183353 95.652574 
L 667.917403 84.058623 
L 672.651453 75.902533 
L 677.385503 89.461256 
L 682.119553 101.623135 
L 686.853603 74.281396 
L 691.587653 86.445257 
L 696.321704 70.177371 
L 701.055754 71.83492 
L 705.789804 75.422751 
L 710.523854 75.593131 
L 715.257904 70.667811 
L 719.991954 93.821566 
L 724.726004 82.354794 
L 729.460054 82.441296 
L 734.194104 90.892347 
L 738.928154 67.889975 
L 743.662205 84.039211 
L 748.396255 66.689385 
L 753.130305 70.231875 
L 757.864355 76.841978 
L 762.598405 89.450419 
L 767.332455 95.906904 
L 772.066505 115.43465 
L 776.800555 92.587605 
L 781.534605 84.773458 
L 786.268656 92.255073 
L 791.002706 77.803446 
L 795.736756 68.898583 
L 800.470806 83.407928 
L 805.204856 109.176757 
L 809.938906 85.140837 
L 814.672956 93.95648 
L 819.407006 74.440406 
L 824.141056 74.702935 
L 828.875106 82.210997 
L 833.609157 63.534355 
L 838.343207 75.797334 
L 843.077257 70.480791 
L 847.811307 80.066414 
L 852.545357 85.412101 
L 857.279407 89.606961 
L 862.013457 84.707885 
L 866.747507 66.728378 
L 871.481557 73.742982 
L 876.215607 79.447185 
L 880.949658 93.456312 
L 885.683708 83.967849 
L 890.417758 103.747816 
L 895.151808 95.84297 
L 899.885858 74.453976 
L 904.619908 85.31698 
L 909.353958 81.943319 
L 914.088008 120.05309 
L 918.822058 94.505294 
L 923.556109 61.457687 
L 928.290159 105.103143 
L 933.024209 83.180421 
L 937.758259 100.847735 
L 942.492309 79.48801 
L 947.226359 75.673651 
L 951.960409 75.774937 
L 956.694459 70.520539 
L 961.428509 84.364381 
L 966.162559 90.676133 
L 970.89661 89.671866 
L 975.63066 83.281801 
L 980.36471 64.649937 
L 985.09876 77.078196 
L 989.83281 50.095638 
L 994.56686 99.218322 
L 999.30091 72.532847 
L 1004.03496 85.741057 
L 1008.76901 97.972034 
L 1013.50306 81.495042 
L 1018.237111 102.292818 
L 1022.971161 73.445207 
L 1027.705211 63.408417 
L 1032.439261 94.885131 
L 1037.173311 90.74881 
L 1041.907361 82.449788 
L 1046.641411 97.420692 
L 1051.375461 92.402814 
L 1056.109511 67.252129 
L 1060.843561 79.606173 
L 1065.577612 83.96809 
L 1070.311662 92.44374 
L 1075.045712 93.786025 
L 1079.779762 59.651251 
L 1084.513812 87.02724 
L 1089.247862 73.261257 
L 1093.981912 77.523041 
L 1098.715962 92.873887 
L 1103.450012 65.83028 
L 1108.184063 97.496587 
L 1112.918113 73.391413 
L 1117.652163 88.244971 
L 1122.386213 81.226794 
L 1127.120263 90.303669 
L 1131.854313 81.009097 
L 1136.588363 67.760578 
L 1141.322413 80.636142 
L 1146.056463 73.238999 
L 1150.790513 39.818571 
L 1155.524564 71.691565 
L 1160.258614 51.653215 
L 1164.992664 87.207577 
L 1169.726714 92.855019 
L 1174.460764 79.703446 
L 1179.194814 88.269454 
L 1183.928864 58.586106 
L 1188.662914 59.633335 
L 1193.396964 83.208472 
L 1198.131014 59.411169 
L 1202.865065 82.262121 
L 1207.599115 86.217822 
L 1212.333165 92.562416 
L 1217.067215 86.777722 
L 1221.801265 70.592359 
L 1226.535315 68.91152 
L 1231.269365 85.432985 
L 1236.003415 65.445608 
L 1240.737465 64.519592 
L 1245.471516 61.337559 
L 1250.205566 96.834563 
L 1254.939616 85.612123 
L 1259.673666 96.80529 
L 1264.407716 83.955319 
L 1269.141766 89.665028 
L 1273.875816 62.901999 
L 1278.609866 80.999524 
L 1283.343916 86.848971 
L 1288.077966 52.078964 
L 1292.812017 87.631628 
L 1297.546067 82.81142 
L 1302.280117 86.541291 
L 1307.014167 99.645812 
L 1311.748217 80.72477 
L 1316.482267 90.396287 
L 1321.216317 87.739509 
L 1325.950367 60.322278 
L 1330.684417 94.368209 
L 1335.418467 90.40581 
L 1340.152518 66.003334 
L 1344.886568 93.442917 
L 1349.620618 73.010688 
L 1354.354668 83.567626 
L 1359.088718 80.475026 
L 1363.822768 83.803884 
L 1363.822768 83.803884 
" style="fill:none;stroke:#1f77b4;stroke-linecap:square;stroke-width:1.5;"/>
   </g>
   <g id="line2d_16">
    <path clip-path="url(#p5c5447db68)" d="M 156.639992 81.777707 
L 161.374042 77.765059 
L 166.108092 470.003898 
L 170.842142 89.295107 
L 175.576192 96.488206 
L 180.310242 70.812341 
L 185.044292 88.628474 
L 189.778343 86.376909 
L 194.512393 472.109341 
L 199.246443 78.325054 
L 203.980493 68.970834 
L 208.714543 73.544725 
L 213.448593 78.688337 
L 218.182643 81.724464 
L 222.916693 73.662336 
L 227.650743 69.749881 
L 232.384793 93.699529 
L 237.118844 84.011739 
L 241.852894 81.151325 
L 246.586944 66.860639 
L 251.320994 98.73223 
L 256.055044 78.606831 
L 260.789094 67.44001 
L 265.523144 71.366543 
L 270.257194 71.693344 
L 274.991244 77.342982 
L 279.725295 71.025614 
L 284.459345 81.097712 
L 289.193395 68.303947 
L 293.927445 84.565134 
L 298.661495 85.501855 
L 303.395545 72.150907 
L 308.129595 99.138184 
L 312.863645 65.868413 
L 317.597695 83.645336 
L 322.331745 89.006704 
L 327.065796 79.068915 
L 331.799846 74.25225 
L 336.533896 60.876062 
L 341.267946 100.312944 
L 346.001996 84.52582 
L 350.736046 78.101095 
L 355.470096 74.269532 
L 360.204146 75.03706 
L 364.938196 85.71343 
L 369.672246 74.061043 
L 374.406297 90.358228 
L 379.140347 85.348051 
L 388.608447 90.424213 
L 393.342497 107.644748 
L 398.076547 75.341885 
L 402.810597 79.496374 
L 407.544647 83.240166 
L 412.278697 86.803606 
L 417.012747 81.448454 
L 421.746798 77.532305 
L 426.480848 78.281666 
L 431.214898 71.396469 
L 435.948948 71.100042 
L 440.682998 75.562569 
L 445.417048 91.258084 
L 450.151098 89.149206 
L 454.885148 70.001558 
L 459.619198 85.064143 
L 464.353249 61.350076 
L 469.087299 79.512871 
L 473.821349 92.906119 
L 478.555399 80.276231 
L 483.289449 100.821784 
L 488.023499 86.807716 
L 492.757549 93.556359 
L 497.491599 71.20673 
L 502.225649 81.481288 
L 506.959699 76.832734 
L 511.69375 81.642243 
L 516.4278 74.128231 
L 521.16185 73.361895 
L 525.8959 75.534449 
L 530.62995 75.42185 
L 535.364 70.721456 
L 540.09805 63.502842 
L 544.8321 73.373713 
L 549.56615 89.647436 
L 554.3002 83.954517 
L 559.034251 86.55675 
L 563.768301 82.660902 
L 568.502351 93.627483 
L 573.236401 82.203034 
L 577.970451 81.186801 
L 582.704501 73.266809 
L 587.438551 71.418547 
L 592.172601 95.814876 
L 596.906651 90.506498 
L 601.640702 74.742715 
L 606.374752 101.740891 
L 611.108802 86.075385 
L 615.842852 89.601048 
L 620.576902 84.645447 
L 625.310952 62.320125 
L 630.045002 69.829815 
L 634.779052 95.198223 
L 639.513102 83.166951 
L 644.247152 97.452069 
L 648.981203 77.224427 
L 653.715253 83.22544 
L 658.449303 56.638731 
L 663.183353 94.9767 
L 667.917403 62.149823 
L 672.651453 77.624716 
L 677.385503 94.06184 
L 682.119553 86.496828 
L 686.853603 68.537105 
L 691.587653 62.70455 
L 696.321704 87.658231 
L 701.055754 93.288755 
L 705.789804 72.854488 
L 710.523854 80.579413 
L 715.257904 81.900824 
L 719.991954 69.719128 
L 724.726004 84.543456 
L 729.460054 71.944913 
L 734.194104 82.671232 
L 743.662205 80.682202 
L 748.396255 73.878395 
L 753.130305 86.927413 
L 757.864355 71.916292 
L 762.598405 75.873532 
L 767.332455 83.875426 
L 772.066505 87.375441 
L 776.800555 87.05161 
L 781.534605 90.878816 
L 786.268656 76.386835 
L 791.002706 90.560568 
L 795.736756 94.067478 
L 800.470806 79.186531 
L 805.204856 97.612757 
L 809.938906 90.747571 
L 814.672956 79.779506 
L 819.407006 69.578841 
L 824.141056 60.560568 
L 828.875106 81.798109 
L 833.609157 81.676131 
L 838.343207 80.875435 
L 843.077257 79.476274 
L 847.811307 70.913859 
L 852.545357 58.201831 
L 857.279407 88.407175 
L 862.013457 74.87205 
L 866.747507 100.117454 
L 871.481557 95.694101 
L 876.215607 100.681611 
L 880.949658 81.333719 
L 885.683708 93.543553 
L 890.417758 88.189448 
L 895.151808 103.109988 
L 899.885858 87.764094 
L 904.619908 85.674875 
L 909.353958 70.254554 
L 914.088008 92.208826 
L 918.822058 91.726159 
L 923.556109 84.332768 
L 928.290159 88.376404 
L 933.024209 81.885936 
L 937.758259 77.324691 
L 942.492309 68.009047 
L 947.226359 81.863435 
L 951.960409 105.928021 
L 956.694459 80.497155 
L 961.428509 77.597368 
L 966.162559 81.724495 
L 970.89661 88.753014 
L 975.63066 97.161838 
L 980.36471 95.338967 
L 985.09876 89.066048 
L 989.83281 80.807268 
L 994.56686 72.209088 
L 999.30091 88.660864 
L 1004.03496 87.791339 
L 1008.76901 70.117468 
L 1013.50306 78.628479 
L 1018.237111 86.445094 
L 1022.971161 93.198787 
L 1032.439261 74.155289 
L 1037.173311 82.122593 
L 1041.907361 93.638951 
L 1046.641411 91.205519 
L 1051.375461 68.149226 
L 1056.109511 94.92325 
L 1060.843561 79.299925 
L 1065.577612 77.847992 
L 1070.311662 100.26157 
L 1075.045712 103.803966 
L 1079.779762 80.725311 
L 1084.513812 87.245902 
L 1093.981912 64.916243 
L 1098.715962 73.943699 
L 1103.450012 64.990819 
L 1108.184063 72.636493 
L 1112.918113 71.147471 
L 1117.652163 84.858703 
L 1122.386213 60.401652 
L 1127.120263 74.48125 
L 1131.854313 84.42625 
L 1136.588363 104.646613 
L 1141.322413 79.601661 
L 1146.056463 86.455626 
L 1150.790513 73.937015 
L 1155.524564 87.922164 
L 1160.258614 79.314767 
L 1164.992664 103.057663 
L 1169.726714 73.750452 
L 1174.460764 87.77364 
L 1179.194814 79.916769 
L 1183.928864 82.645553 
L 1188.662914 75.27214 
L 1193.396964 62.959422 
L 1198.131014 82.406728 
L 1202.865065 66.226896 
L 1207.599115 87.947249 
L 1212.333165 92.209643 
L 1217.067215 85.337749 
L 1221.801265 78.993009 
L 1226.535315 79.498967 
L 1231.269365 103.370796 
L 1236.003415 67.334138 
L 1240.737465 54.762651 
L 1245.471516 92.413145 
L 1250.205566 83.65567 
L 1254.939616 73.682853 
L 1259.673666 80.075153 
L 1264.407716 84.193764 
L 1269.141766 87.585421 
L 1273.875816 85.965107 
L 1278.609866 107.318436 
L 1283.343916 82.652706 
L 1288.077966 85.309845 
L 1292.812017 67.795349 
L 1297.546067 93.039743 
L 1302.280117 99.511313 
L 1307.014167 59.372121 
L 1311.748217 74.70218 
L 1316.482267 50.262147 
L 1321.216317 74.593309 
L 1325.950367 88.573168 
L 1330.684417 88.69684 
L 1335.418467 85.870288 
L 1340.152518 94.644401 
L 1344.886568 88.658343 
L 1349.620618 103.085829 
L 1354.354668 82.088266 
L 1359.088718 75.243542 
L 1363.822768 88.800917 
L 1363.822768 88.800917 
" style="fill:none;stroke:#ff7f0e;stroke-linecap:square;stroke-width:1.5;"/>
   </g>
   <g id="line2d_17">
    <path clip-path="url(#p5c5447db68)" d="M 156.639992 86.292734 
L 161.374042 69.30514 
L 166.108092 90.559372 
L 170.842142 67.657957 
L 175.576192 471.944744 
L 180.310242 76.403933 
L 185.044292 98.929407 
L 189.778343 474.467551 
L 194.512393 76.718357 
L 199.246443 74.234549 
L 203.980493 76.537234 
L 208.714543 76.629313 
L 213.448593 67.919309 
L 218.182643 85.021007 
L 222.916693 74.726641 
L 227.650743 72.790881 
L 232.384793 70.328363 
L 237.118844 82.790712 
L 241.852894 75.963357 
L 246.586944 85.51389 
L 251.320994 67.823945 
L 256.055044 86.671263 
L 260.789094 81.281586 
L 265.523144 96.598724 
L 270.257194 94.38097 
L 274.991244 117.031256 
L 279.725295 82.291737 
L 284.459345 63.154192 
L 289.193395 98.066445 
L 293.927445 92.69822 
L 298.661495 76.635257 
L 303.395545 81.637061 
L 308.129595 74.516897 
L 312.863645 88.476102 
L 317.597695 75.94506 
L 322.331745 102.601985 
L 327.065796 77.05652 
L 331.799846 75.73788 
L 336.533896 87.462367 
L 341.267946 71.548495 
L 346.001996 77.647204 
L 350.736046 85.674131 
L 355.470096 87.717936 
L 360.204146 84.882465 
L 364.938196 87.534698 
L 369.672246 69.507853 
L 374.406297 70.647815 
L 379.140347 73.177561 
L 383.874397 86.968814 
L 388.608447 87.105143 
L 393.342497 81.931377 
L 398.076547 68.318361 
L 402.810597 72.080985 
L 407.544647 85.76914 
L 412.278697 78.723051 
L 417.012747 84.716727 
L 421.746798 64.428241 
L 426.480848 61.747461 
L 431.214898 105.685019 
L 435.948948 88.012593 
L 440.682998 96.412456 
L 445.417048 79.469973 
L 450.151098 84.166606 
L 454.885148 80.028702 
L 459.619198 88.721817 
L 464.353249 77.364377 
L 469.087299 98.380725 
L 473.821349 91.02615 
L 478.555399 76.843112 
L 483.289449 72.933237 
L 488.023499 57.962594 
L 492.757549 72.841007 
L 497.491599 73.847253 
L 502.225649 78.230261 
L 506.959699 78.420624 
L 511.69375 86.047382 
L 516.4278 71.563099 
L 521.16185 71.283658 
L 525.8959 72.514495 
L 530.62995 75.739926 
L 535.364 53.097521 
L 540.09805 68.512246 
L 544.8321 77.504718 
L 549.56615 102.405376 
L 554.3002 81.398238 
L 559.034251 102.642067 
L 563.768301 103.854195 
L 568.502351 80.764945 
L 573.236401 90.913124 
L 577.970451 106.70788 
L 582.704501 81.810925 
L 587.438551 102.934338 
L 592.172601 72.402456 
L 596.906651 112.625957 
L 601.640702 65.265762 
L 606.374752 67.58157 
L 611.108802 89.869811 
L 615.842852 103.640503 
L 620.576902 78.034136 
L 625.310952 88.96488 
L 630.045002 92.860934 
L 634.779052 67.306059 
L 639.513102 76.029137 
L 644.247152 69.575176 
L 648.981203 61.328067 
L 653.715253 79.890748 
L 658.449303 95.454145 
L 663.183353 70.422801 
L 667.917403 74.118029 
L 672.651453 72.263742 
L 677.385503 87.899194 
L 682.119553 69.637235 
L 686.853603 91.680988 
L 691.587653 80.969764 
L 696.321704 87.30901 
L 701.055754 67.048188 
L 705.789804 66.671002 
L 710.523854 76.36944 
L 715.257904 90.318762 
L 719.991954 71.078337 
L 724.726004 72.201332 
L 729.460054 77.952174 
L 734.194104 82.245114 
L 738.928154 98.022174 
L 743.662205 81.189674 
L 748.396255 72.306276 
L 753.130305 95.65795 
L 757.864355 83.68744 
L 762.598405 64.71372 
L 767.332455 72.940285 
L 772.066505 97.789951 
L 776.800555 78.521156 
L 781.534605 83.87435 
L 786.268656 83.930195 
L 791.002706 91.660771 
L 795.736756 69.462426 
L 800.470806 93.114554 
L 805.204856 59.468215 
L 809.938906 81.542262 
L 814.672956 102.005578 
L 819.407006 70.394754 
L 824.141056 90.612963 
L 828.875106 78.301615 
L 833.609157 73.378872 
L 838.343207 90.370232 
L 843.077257 76.228602 
L 847.811307 66.538491 
L 852.545357 82.211736 
L 857.279407 65.555068 
L 862.013457 82.036882 
L 866.747507 71.371321 
L 871.481557 87.625487 
L 876.215607 71.709747 
L 880.949658 69.891401 
L 885.683708 87.550684 
L 890.417758 73.468452 
L 895.151808 64.708225 
L 899.885858 67.483805 
L 904.619908 72.97114 
L 909.353958 65.289026 
L 914.088008 101.310924 
L 918.822058 92.649907 
L 923.556109 62.254804 
L 928.290159 65.720111 
L 933.024209 67.23282 
L 937.758259 81.966589 
L 942.492309 78.246306 
L 947.226359 90.207781 
L 951.960409 68.461535 
L 956.694459 84.823311 
L 961.428509 92.561388 
L 966.162559 72.424587 
L 970.89661 99.412975 
L 975.63066 88.67051 
L 980.36471 94.658657 
L 985.09876 99.053892 
L 989.83281 64.445916 
L 994.56686 83.278842 
L 999.30091 70.055873 
L 1004.03496 85.207714 
L 1008.76901 63.44395 
L 1013.50306 83.368107 
L 1018.237111 85.764022 
L 1022.971161 65.235145 
L 1027.705211 81.85225 
L 1032.439261 85.584543 
L 1037.173311 72.909252 
L 1041.907361 55.685804 
L 1046.641411 77.363536 
L 1051.375461 78.729713 
L 1056.109511 68.679256 
L 1060.843561 82.416328 
L 1065.577612 73.553097 
L 1070.311662 78.693255 
L 1075.045712 81.250708 
L 1079.779762 108.290064 
L 1084.513812 101.809117 
L 1089.247862 110.172963 
L 1093.981912 69.214658 
L 1098.715962 82.990234 
L 1103.450012 66.624226 
L 1108.184063 82.332182 
L 1112.918113 72.194551 
L 1117.652163 92.587125 
L 1122.386213 73.057284 
L 1127.120263 95.84242 
L 1131.854313 98.808083 
L 1136.588363 88.014909 
L 1141.322413 81.89618 
L 1146.056463 86.503954 
L 1150.790513 82.505025 
L 1155.524564 89.178895 
L 1160.258614 83.608264 
L 1164.992664 69.836794 
L 1169.726714 63.750505 
L 1174.460764 88.388928 
L 1179.194814 78.045489 
L 1183.928864 90.569349 
L 1188.662914 89.884698 
L 1193.396964 103.490737 
L 1198.131014 86.436962 
L 1202.865065 82.094544 
L 1207.599115 100.698439 
L 1212.333165 70.688194 
L 1217.067215 75.103954 
L 1221.801265 83.777846 
L 1226.535315 98.334669 
L 1231.269365 78.154591 
L 1236.003415 83.12601 
L 1240.737465 85.719414 
L 1245.471516 57.52111 
L 1250.205566 97.009402 
L 1254.939616 72.164321 
L 1259.673666 80.718716 
L 1264.407716 67.038889 
L 1273.875816 97.193815 
L 1278.609866 74.473938 
L 1283.343916 76.125666 
L 1288.077966 79.606491 
L 1292.812017 82.500121 
L 1297.546067 66.526839 
L 1302.280117 80.368371 
L 1307.014167 89.20018 
L 1311.748217 79.250706 
L 1316.482267 90.411763 
L 1321.216317 77.024802 
L 1325.950367 75.112517 
L 1330.684417 84.229117 
L 1335.418467 95.209323 
L 1340.152518 76.480629 
L 1344.886568 86.700557 
L 1349.620618 100.938436 
L 1359.088718 67.187197 
L 1363.822768 74.012618 
L 1363.822768 74.012618 
" style="fill:none;stroke:#2ca02c;stroke-linecap:square;stroke-width:1.5;"/>
   </g>
   <g id="line2d_18">
    <path clip-path="url(#p5c5447db68)" d="M 156.639992 84.184116 
L 161.374042 94.540818 
L 166.108092 81.720278 
L 170.842142 97.898177 
L 175.576192 106.65528 
L 180.310242 86.719976 
L 185.044292 61.029893 
L 189.778343 78.053478 
L 194.512393 80.553985 
L 199.246443 84.866448 
L 203.980493 64.752094 
L 208.714543 90.114306 
L 213.448593 92.435089 
L 218.182643 88.697664 
L 222.916693 74.263391 
L 227.650743 80.141626 
L 232.384793 88.186727 
L 237.118844 65.365576 
L 241.852894 68.72662 
L 246.586944 87.769282 
L 251.320994 92.846293 
L 256.055044 80.303565 
L 260.789094 97.460486 
L 265.523144 74.510071 
L 270.257194 101.490171 
L 274.991244 76.732655 
L 279.725295 83.336249 
L 284.459345 79.691574 
L 289.193395 78.681944 
L 293.927445 71.543949 
L 298.661495 70.394782 
L 303.395545 90.843566 
L 308.129595 83.811125 
L 312.863645 68.446157 
L 317.597695 100.780462 
L 322.331745 78.826277 
L 327.065796 76.847337 
L 331.799846 95.44866 
L 336.533896 71.743285 
L 341.267946 66.208743 
L 346.001996 83.24955 
L 350.736046 83.891246 
L 355.470096 67.020664 
L 360.204146 78.380157 
L 364.938196 103.783263 
L 369.672246 84.584155 
L 374.406297 86.223489 
L 379.140347 100.886283 
L 383.874397 85.166782 
L 388.608447 73.205667 
L 393.342497 81.335664 
L 398.076547 80.726388 
L 402.810597 99.067739 
L 407.544647 61.619911 
L 412.278697 66.565827 
L 417.012747 101.275188 
L 421.746798 79.289067 
L 426.480848 63.224443 
L 431.214898 99.021021 
L 435.948948 71.362847 
L 440.682998 81.232822 
L 445.417048 95.298847 
L 450.151098 111.411732 
L 454.885148 92.557003 
L 459.619198 80.839375 
L 464.353249 71.677384 
L 469.087299 94.188015 
L 473.821349 86.966606 
L 478.555399 55.913094 
L 483.289449 62.477548 
L 488.023499 62.348473 
L 492.757549 97.113175 
L 497.491599 62.378416 
L 502.225649 87.452088 
L 506.959699 96.086324 
L 511.69375 80.251869 
L 516.4278 82.062269 
L 521.16185 75.59359 
L 525.8959 70.115619 
L 530.62995 93.036171 
L 535.364 53.139339 
L 540.09805 93.861413 
L 544.8321 90.131638 
L 549.56615 120.00644 
L 554.3002 68.023261 
L 559.034251 81.186846 
L 563.768301 93.762121 
L 568.502351 72.788807 
L 573.236401 84.943543 
L 577.970451 59.398148 
L 582.704501 58.015069 
L 587.438551 96.407129 
L 592.172601 86.155913 
L 596.906651 86.540747 
L 601.640702 83.478889 
L 606.374752 117.241486 
L 611.108802 85.245529 
L 615.842852 82.14274 
L 620.576902 71.018935 
L 625.310952 95.905402 
L 630.045002 67.040769 
L 634.779052 95.989592 
L 639.513102 83.026954 
L 644.247152 79.27948 
L 648.981203 71.19 
L 653.715253 95.775731 
L 658.449303 75.274259 
L 663.183353 85.269634 
L 667.917403 81.472589 
L 672.651453 73.316933 
L 677.385503 91.104103 
L 682.119553 65.228978 
L 686.853603 58.911615 
L 691.587653 82.08998 
L 696.321704 64.632234 
L 701.055754 77.756009 
L 705.789804 82.931469 
L 710.523854 64.876115 
L 715.257904 95.990613 
L 719.991954 97.631286 
L 724.726004 104.746338 
L 729.460054 97.08862 
L 734.194104 91.160025 
L 738.928154 89.065875 
L 743.662205 81.474976 
L 748.396255 58.241278 
L 753.130305 104.277716 
L 757.864355 71.770398 
L 767.332455 82.653922 
L 772.066505 104.903598 
L 776.800555 103.803876 
L 781.534605 77.345036 
L 786.268656 94.489967 
L 791.002706 88.582212 
L 800.470806 71.389738 
L 805.204856 107.65203 
L 809.938906 73.143907 
L 814.672956 95.047956 
L 819.407006 85.261651 
L 824.141056 83.105318 
L 828.875106 85.446731 
L 833.609157 62.838026 
L 838.343207 94.077856 
L 843.077257 88.07706 
L 847.811307 102.97055 
L 852.545357 76.46352 
L 857.279407 71.325152 
L 862.013457 86.859095 
L 866.747507 86.513575 
L 871.481557 79.798405 
L 876.215607 86.112165 
L 880.949658 63.911681 
L 885.683708 73.24447 
L 890.417758 89.560017 
L 895.151808 87.739196 
L 899.885858 93.632388 
L 904.619908 65.218823 
L 909.353958 80.263501 
L 914.088008 83.83015 
L 918.822058 82.14131 
L 923.556109 53.732478 
L 928.290159 69.775592 
L 933.024209 61.841491 
L 937.758259 75.85404 
L 942.492309 66.537565 
L 947.226359 67.303561 
L 951.960409 59.193183 
L 956.694459 82.376163 
L 961.428509 85.983278 
L 966.162559 97.006352 
L 970.89661 70.665943 
L 975.63066 81.387438 
L 980.36471 114.504737 
L 985.09876 108.202056 
L 989.83281 84.998866 
L 994.56686 56.088661 
L 999.30091 85.546127 
L 1004.03496 86.595188 
L 1008.76901 95.591902 
L 1013.50306 66.017936 
L 1018.237111 103.575054 
L 1022.971161 117.296324 
L 1027.705211 85.183978 
L 1032.439261 79.380649 
L 1037.173311 87.177189 
L 1041.907361 86.547451 
L 1046.641411 101.039806 
L 1051.375461 94.078853 
L 1056.109511 79.007003 
L 1060.843561 94.9291 
L 1065.577612 95.052191 
L 1070.311662 84.785042 
L 1075.045712 78.523666 
L 1079.779762 69.522242 
L 1084.513812 61.201869 
L 1089.247862 86.964494 
L 1093.981912 98.57236 
L 1098.715962 56.773556 
L 1103.450012 98.32508 
L 1108.184063 90.806321 
L 1112.918113 90.606783 
L 1117.652163 78.61002 
L 1122.386213 69.883731 
L 1127.120263 73.898821 
L 1131.854313 125.453775 
L 1136.588363 77.601903 
L 1141.322413 86.195351 
L 1146.056463 83.661101 
L 1150.790513 66.155765 
L 1155.524564 62.490995 
L 1160.258614 80.780927 
L 1164.992664 87.646449 
L 1169.726714 72.932037 
L 1174.460764 83.535827 
L 1179.194814 107.49942 
L 1183.928864 98.983578 
L 1188.662914 75.526285 
L 1193.396964 73.184268 
L 1198.131014 77.050697 
L 1202.865065 93.473906 
L 1207.599115 116.841487 
L 1212.333165 85.941 
L 1217.067215 90.171965 
L 1221.801265 49.850721 
L 1231.269365 85.438919 
L 1236.003415 77.21367 
L 1240.737465 70.86053 
L 1245.471516 102.154751 
L 1250.205566 93.025674 
L 1254.939616 91.510212 
L 1259.673666 99.165303 
L 1264.407716 57.908033 
L 1269.141766 82.057381 
L 1273.875816 70.867968 
L 1278.609866 81.397217 
L 1283.343916 89.541426 
L 1288.077966 92.364866 
L 1292.812017 65.767627 
L 1297.546067 67.433254 
L 1302.280117 101.847188 
L 1307.014167 88.154374 
L 1311.748217 97.850807 
L 1316.482267 87.901161 
L 1321.216317 80.335623 
L 1325.950367 66.753608 
L 1330.684417 79.06921 
L 1335.418467 78.473008 
L 1340.152518 86.128368 
L 1344.886568 77.194875 
L 1349.620618 84.025164 
L 1354.354668 83.924371 
L 1359.088718 79.148556 
L 1363.822768 88.74922 
L 1363.822768 88.74922 
" style="fill:none;stroke:#d62728;stroke-linecap:square;stroke-width:1.5;"/>
   </g>
   <g id="patch_13">
    <path d="M 95.05 496.2 
L 95.05 18.086122 
" style="fill:none;stroke:#000000;stroke-linecap:square;stroke-linejoin:miter;stroke-width:0.8;"/>
   </g>
   <g id="patch_14">
    <path d="M 1429.2 496.2 
L 1429.2 18.086122 
" style="fill:none;stroke:#000000;stroke-linecap:square;stroke-linejoin:miter;stroke-width:0.8;"/>
   </g>
   <g id="patch_15">
    <path d="M 95.05 496.2 
L 1429.2 496.2 
" style="fill:none;stroke:#000000;stroke-linecap:square;stroke-linejoin:miter;stroke-width:0.8;"/>
   </g>
   <g id="patch_16">
    <path d="M 95.05 18.086122 
L 1429.2 18.086122 
" style="fill:none;stroke:#000000;stroke-linecap:square;stroke-linejoin:miter;stroke-width:0.8;"/>
   </g>
  </g>
 </g>
 <defs>
  <clipPath id="p5c5447db68">
   <rect height="478.113878" width="1334.15" x="95.05" y="18.086122"/>
  </clipPath>
 </defs>
</svg>
