<?xml version="1.0" encoding="utf-8" standalone="no"?>
<!DOCTYPE svg PUBLIC "-//W3C//DTD SVG 1.1//EN"
  "http://www.w3.org/Graphics/SVG/1.1/DTD/svg11.dtd">
<!-- Created with matplotlib (https://matplotlib.org/) -->
<svg height="576pt" version="1.1" viewBox="0 0 1440 576" width="1440pt" xmlns="http://www.w3.org/2000/svg" xmlns:xlink="http://www.w3.org/1999/xlink">
 <defs>
  <style type="text/css">
*{stroke-linecap:butt;stroke-linejoin:round;white-space:pre;}
  </style>
 </defs>
 <g id="figure_1">
  <g id="patch_1">
   <path d="M 0 576 
L 1440 576 
L 1440 0 
L 0 0 
z
" style="fill:#ffffff;"/>
  </g>
  <g id="axes_1">
   <g id="patch_2">
    <path d="M 95.175 496.2 
L 1429.2 496.2 
L 1429.2 10.8 
L 95.175 10.8 
z
" style="fill:#ffffff;"/>
   </g>
   <g id="patch_3">
    <path clip-path="url(#p5b761518f1)" d="M 155.8125 496.2 
L 155.8125 10.8 
L 156.759221 10.8 
L 156.759221 496.2 
z
" style="fill:#0000ff;"/>
   </g>
   <g id="patch_4">
    <path clip-path="url(#p5b761518f1)" d="M 160.546107 496.2 
L 160.546107 10.8 
L 161.492828 10.8 
L 161.492828 496.2 
z
" style="fill:#0000ff;"/>
   </g>
   <g id="patch_5">
    <path clip-path="url(#p5b761518f1)" d="M 198.414959 496.2 
L 198.414959 10.8 
L 199.36168 10.8 
L 199.36168 496.2 
z
" style="fill:#0000ff;"/>
   </g>
   <g id="patch_6">
    <path clip-path="url(#p5b761518f1)" d="M 330.955943 496.2 
L 330.955943 10.8 
L 331.902664 10.8 
L 331.902664 496.2 
z
" style="fill:#0000ff;"/>
   </g>
   <g id="patch_7">
    <path clip-path="url(#p5b761518f1)" d="M 596.03791 496.2 
L 596.03791 10.8 
L 596.984631 10.8 
L 596.984631 496.2 
z
" style="fill:#0000ff;"/>
   </g>
   <g id="patch_8">
    <path clip-path="url(#p5b761518f1)" d="M 927.390369 496.2 
L 927.390369 10.8 
L 928.33709 10.8 
L 928.33709 496.2 
z
" style="fill:#0000ff;"/>
   </g>
   <g id="patch_9">
    <path clip-path="url(#p5b761518f1)" d="M 1192.472336 496.2 
L 1192.472336 10.8 
L 1193.419057 10.8 
L 1193.419057 496.2 
z
" style="fill:#0000ff;"/>
   </g>
   <g id="patch_10">
    <path clip-path="url(#p5b761518f1)" d="M 1325.01332 496.2 
L 1325.01332 10.8 
L 1325.960041 10.8 
L 1325.960041 496.2 
z
" style="fill:#0000ff;"/>
   </g>
   <g id="patch_11">
    <path clip-path="url(#p5b761518f1)" d="M 1362.882172 496.2 
L 1362.882172 10.8 
L 1363.828893 10.8 
L 1363.828893 496.2 
z
" style="fill:#0000ff;"/>
   </g>
   <g id="patch_12">
    <path clip-path="url(#p5b761518f1)" d="M 1367.615779 496.2 
L 1367.615779 10.8 
L 1368.5625 10.8 
L 1368.5625 496.2 
z
" style="fill:#0000ff;"/>
   </g>
   <g id="matplotlib.axis_1">
    <g id="xtick_1">
     <g id="line2d_1">
      <defs>
       <path d="M 0 0 
L 0 3.5 
" id="mf511f4510f" style="stroke:#000000;stroke-width:0.8;"/>
      </defs>
      <g>
       <use style="stroke:#000000;stroke-width:0.8;" x="156.759221" xlink:href="#mf511f4510f" y="496.2"/>
      </g>
     </g>
     <g id="text_1">
      <!-- 0 -->
      <defs>
       <path d="M 31.78125 66.40625 
Q 24.171875 66.40625 20.328125 58.90625 
Q 16.5 51.421875 16.5 36.375 
Q 16.5 21.390625 20.328125 13.890625 
Q 24.171875 6.390625 31.78125 6.390625 
Q 39.453125 6.390625 43.28125 13.890625 
Q 47.125 21.390625 47.125 36.375 
Q 47.125 51.421875 43.28125 58.90625 
Q 39.453125 66.40625 31.78125 66.40625 
z
M 31.78125 74.21875 
Q 44.046875 74.21875 50.515625 64.515625 
Q 56.984375 54.828125 56.984375 36.375 
Q 56.984375 17.96875 50.515625 8.265625 
Q 44.046875 -1.421875 31.78125 -1.421875 
Q 19.53125 -1.421875 13.0625 8.265625 
Q 6.59375 17.96875 6.59375 36.375 
Q 6.59375 54.828125 13.0625 64.515625 
Q 19.53125 74.21875 31.78125 74.21875 
z
" id="DejaVuSans-48"/>
      </defs>
      <g transform="translate(147.215471 525.995312)scale(0.3 -0.3)">
       <use xlink:href="#DejaVuSans-48"/>
      </g>
     </g>
    </g>
    <g id="xtick_2">
     <g id="line2d_2">
      <g>
       <use style="stroke:#000000;stroke-width:0.8;" x="393.439549" xlink:href="#mf511f4510f" y="496.2"/>
      </g>
     </g>
     <g id="text_2">
      <!-- 50 -->
      <defs>
       <path d="M 10.796875 72.90625 
L 49.515625 72.90625 
L 49.515625 64.59375 
L 19.828125 64.59375 
L 19.828125 46.734375 
Q 21.96875 47.46875 24.109375 47.828125 
Q 26.265625 48.1875 28.421875 48.1875 
Q 40.625 48.1875 47.75 41.5 
Q 54.890625 34.8125 54.890625 23.390625 
Q 54.890625 11.625 47.5625 5.09375 
Q 40.234375 -1.421875 26.90625 -1.421875 
Q 22.3125 -1.421875 17.546875 -0.640625 
Q 12.796875 0.140625 7.71875 1.703125 
L 7.71875 11.625 
Q 12.109375 9.234375 16.796875 8.0625 
Q 21.484375 6.890625 26.703125 6.890625 
Q 35.15625 6.890625 40.078125 11.328125 
Q 45.015625 15.765625 45.015625 23.390625 
Q 45.015625 31 40.078125 35.4375 
Q 35.15625 39.890625 26.703125 39.890625 
Q 22.75 39.890625 18.8125 39.015625 
Q 14.890625 38.140625 10.796875 36.28125 
z
" id="DejaVuSans-53"/>
      </defs>
      <g transform="translate(374.352049 525.995312)scale(0.3 -0.3)">
       <use xlink:href="#DejaVuSans-53"/>
       <use x="63.623047" xlink:href="#DejaVuSans-48"/>
      </g>
     </g>
    </g>
    <g id="xtick_3">
     <g id="line2d_3">
      <g>
       <use style="stroke:#000000;stroke-width:0.8;" x="630.119877" xlink:href="#mf511f4510f" y="496.2"/>
      </g>
     </g>
     <g id="text_3">
      <!-- 100 -->
      <defs>
       <path d="M 12.40625 8.296875 
L 28.515625 8.296875 
L 28.515625 63.921875 
L 10.984375 60.40625 
L 10.984375 69.390625 
L 28.421875 72.90625 
L 38.28125 72.90625 
L 38.28125 8.296875 
L 54.390625 8.296875 
L 54.390625 0 
L 12.40625 0 
z
" id="DejaVuSans-49"/>
      </defs>
      <g transform="translate(601.488627 525.995312)scale(0.3 -0.3)">
       <use xlink:href="#DejaVuSans-49"/>
       <use x="63.623047" xlink:href="#DejaVuSans-48"/>
       <use x="127.246094" xlink:href="#DejaVuSans-48"/>
      </g>
     </g>
    </g>
    <g id="xtick_4">
     <g id="line2d_4">
      <g>
       <use style="stroke:#000000;stroke-width:0.8;" x="866.800205" xlink:href="#mf511f4510f" y="496.2"/>
      </g>
     </g>
     <g id="text_4">
      <!-- 150 -->
      <g transform="translate(838.168955 525.995312)scale(0.3 -0.3)">
       <use xlink:href="#DejaVuSans-49"/>
       <use x="63.623047" xlink:href="#DejaVuSans-53"/>
       <use x="127.246094" xlink:href="#DejaVuSans-48"/>
      </g>
     </g>
    </g>
    <g id="xtick_5">
     <g id="line2d_5">
      <g>
       <use style="stroke:#000000;stroke-width:0.8;" x="1103.480533" xlink:href="#mf511f4510f" y="496.2"/>
      </g>
     </g>
     <g id="text_5">
      <!-- 200 -->
      <defs>
       <path d="M 19.1875 8.296875 
L 53.609375 8.296875 
L 53.609375 0 
L 7.328125 0 
L 7.328125 8.296875 
Q 12.9375 14.109375 22.625 23.890625 
Q 32.328125 33.6875 34.8125 36.53125 
Q 39.546875 41.84375 41.421875 45.53125 
Q 43.3125 49.21875 43.3125 52.78125 
Q 43.3125 58.59375 39.234375 62.25 
Q 35.15625 65.921875 28.609375 65.921875 
Q 23.96875 65.921875 18.8125 64.3125 
Q 13.671875 62.703125 7.8125 59.421875 
L 7.8125 69.390625 
Q 13.765625 71.78125 18.9375 73 
Q 24.125 74.21875 28.421875 74.21875 
Q 39.75 74.21875 46.484375 68.546875 
Q 53.21875 62.890625 53.21875 53.421875 
Q 53.21875 48.921875 51.53125 44.890625 
Q 49.859375 40.875 45.40625 35.40625 
Q 44.1875 33.984375 37.640625 27.21875 
Q 31.109375 20.453125 19.1875 8.296875 
z
" id="DejaVuSans-50"/>
      </defs>
      <g transform="translate(1074.849283 525.995312)scale(0.3 -0.3)">
       <use xlink:href="#DejaVuSans-50"/>
       <use x="63.623047" xlink:href="#DejaVuSans-48"/>
       <use x="127.246094" xlink:href="#DejaVuSans-48"/>
      </g>
     </g>
    </g>
    <g id="xtick_6">
     <g id="line2d_6">
      <g>
       <use style="stroke:#000000;stroke-width:0.8;" x="1340.160861" xlink:href="#mf511f4510f" y="496.2"/>
      </g>
     </g>
     <g id="text_6">
      <!-- 250 -->
      <g transform="translate(1311.529611 525.995312)scale(0.3 -0.3)">
       <use xlink:href="#DejaVuSans-50"/>
       <use x="63.623047" xlink:href="#DejaVuSans-53"/>
       <use x="127.246094" xlink:href="#DejaVuSans-48"/>
      </g>
     </g>
    </g>
    <g id="text_7">
     <!-- Bit Interaction -->
     <defs>
      <path d="M 19.671875 34.8125 
L 19.671875 8.109375 
L 35.5 8.109375 
Q 43.453125 8.109375 47.28125 11.40625 
Q 51.125 14.703125 51.125 21.484375 
Q 51.125 28.328125 47.28125 31.5625 
Q 43.453125 34.8125 35.5 34.8125 
z
M 19.671875 64.796875 
L 19.671875 42.828125 
L 34.28125 42.828125 
Q 41.5 42.828125 45.03125 45.53125 
Q 48.578125 48.25 48.578125 53.8125 
Q 48.578125 59.328125 45.03125 62.0625 
Q 41.5 64.796875 34.28125 64.796875 
z
M 9.8125 72.90625 
L 35.015625 72.90625 
Q 46.296875 72.90625 52.390625 68.21875 
Q 58.5 63.53125 58.5 54.890625 
Q 58.5 48.1875 55.375 44.234375 
Q 52.25 40.28125 46.1875 39.3125 
Q 53.46875 37.75 57.5 32.78125 
Q 61.53125 27.828125 61.53125 20.40625 
Q 61.53125 10.640625 54.890625 5.3125 
Q 48.25 0 35.984375 0 
L 9.8125 0 
z
" id="DejaVuSans-66"/>
      <path d="M 9.421875 54.6875 
L 18.40625 54.6875 
L 18.40625 0 
L 9.421875 0 
z
M 9.421875 75.984375 
L 18.40625 75.984375 
L 18.40625 64.59375 
L 9.421875 64.59375 
z
" id="DejaVuSans-105"/>
      <path d="M 18.3125 70.21875 
L 18.3125 54.6875 
L 36.8125 54.6875 
L 36.8125 47.703125 
L 18.3125 47.703125 
L 18.3125 18.015625 
Q 18.3125 11.328125 20.140625 9.421875 
Q 21.96875 7.515625 27.59375 7.515625 
L 36.8125 7.515625 
L 36.8125 0 
L 27.59375 0 
Q 17.1875 0 13.234375 3.875 
Q 9.28125 7.765625 9.28125 18.015625 
L 9.28125 47.703125 
L 2.6875 47.703125 
L 2.6875 54.6875 
L 9.28125 54.6875 
L 9.28125 70.21875 
z
" id="DejaVuSans-116"/>
      <path id="DejaVuSans-32"/>
      <path d="M 9.8125 72.90625 
L 19.671875 72.90625 
L 19.671875 0 
L 9.8125 0 
z
" id="DejaVuSans-73"/>
      <path d="M 54.890625 33.015625 
L 54.890625 0 
L 45.90625 0 
L 45.90625 32.71875 
Q 45.90625 40.484375 42.875 44.328125 
Q 39.84375 48.1875 33.796875 48.1875 
Q 26.515625 48.1875 22.3125 43.546875 
Q 18.109375 38.921875 18.109375 30.90625 
L 18.109375 0 
L 9.078125 0 
L 9.078125 54.6875 
L 18.109375 54.6875 
L 18.109375 46.1875 
Q 21.34375 51.125 25.703125 53.5625 
Q 30.078125 56 35.796875 56 
Q 45.21875 56 50.046875 50.171875 
Q 54.890625 44.34375 54.890625 33.015625 
z
" id="DejaVuSans-110"/>
      <path d="M 56.203125 29.59375 
L 56.203125 25.203125 
L 14.890625 25.203125 
Q 15.484375 15.921875 20.484375 11.0625 
Q 25.484375 6.203125 34.421875 6.203125 
Q 39.59375 6.203125 44.453125 7.46875 
Q 49.3125 8.734375 54.109375 11.28125 
L 54.109375 2.78125 
Q 49.265625 0.734375 44.1875 -0.34375 
Q 39.109375 -1.421875 33.890625 -1.421875 
Q 20.796875 -1.421875 13.15625 6.1875 
Q 5.515625 13.8125 5.515625 26.8125 
Q 5.515625 40.234375 12.765625 48.109375 
Q 20.015625 56 32.328125 56 
Q 43.359375 56 49.78125 48.890625 
Q 56.203125 41.796875 56.203125 29.59375 
z
M 47.21875 32.234375 
Q 47.125 39.59375 43.09375 43.984375 
Q 39.0625 48.390625 32.421875 48.390625 
Q 24.90625 48.390625 20.390625 44.140625 
Q 15.875 39.890625 15.1875 32.171875 
z
" id="DejaVuSans-101"/>
      <path d="M 41.109375 46.296875 
Q 39.59375 47.171875 37.8125 47.578125 
Q 36.03125 48 33.890625 48 
Q 26.265625 48 22.1875 43.046875 
Q 18.109375 38.09375 18.109375 28.8125 
L 18.109375 0 
L 9.078125 0 
L 9.078125 54.6875 
L 18.109375 54.6875 
L 18.109375 46.1875 
Q 20.953125 51.171875 25.484375 53.578125 
Q 30.03125 56 36.53125 56 
Q 37.453125 56 38.578125 55.875 
Q 39.703125 55.765625 41.0625 55.515625 
z
" id="DejaVuSans-114"/>
      <path d="M 34.28125 27.484375 
Q 23.390625 27.484375 19.1875 25 
Q 14.984375 22.515625 14.984375 16.5 
Q 14.984375 11.71875 18.140625 8.90625 
Q 21.296875 6.109375 26.703125 6.109375 
Q 34.1875 6.109375 38.703125 11.40625 
Q 43.21875 16.703125 43.21875 25.484375 
L 43.21875 27.484375 
z
M 52.203125 31.203125 
L 52.203125 0 
L 43.21875 0 
L 43.21875 8.296875 
Q 40.140625 3.328125 35.546875 0.953125 
Q 30.953125 -1.421875 24.3125 -1.421875 
Q 15.921875 -1.421875 10.953125 3.296875 
Q 6 8.015625 6 15.921875 
Q 6 25.140625 12.171875 29.828125 
Q 18.359375 34.515625 30.609375 34.515625 
L 43.21875 34.515625 
L 43.21875 35.40625 
Q 43.21875 41.609375 39.140625 45 
Q 35.0625 48.390625 27.6875 48.390625 
Q 23 48.390625 18.546875 47.265625 
Q 14.109375 46.140625 10.015625 43.890625 
L 10.015625 52.203125 
Q 14.9375 54.109375 19.578125 55.046875 
Q 24.21875 56 28.609375 56 
Q 40.484375 56 46.34375 49.84375 
Q 52.203125 43.703125 52.203125 31.203125 
z
" id="DejaVuSans-97"/>
      <path d="M 48.78125 52.59375 
L 48.78125 44.1875 
Q 44.96875 46.296875 41.140625 47.34375 
Q 37.3125 48.390625 33.40625 48.390625 
Q 24.65625 48.390625 19.8125 42.84375 
Q 14.984375 37.3125 14.984375 27.296875 
Q 14.984375 17.28125 19.8125 11.734375 
Q 24.65625 6.203125 33.40625 6.203125 
Q 37.3125 6.203125 41.140625 7.25 
Q 44.96875 8.296875 48.78125 10.40625 
L 48.78125 2.09375 
Q 45.015625 0.34375 40.984375 -0.53125 
Q 36.96875 -1.421875 32.421875 -1.421875 
Q 20.0625 -1.421875 12.78125 6.34375 
Q 5.515625 14.109375 5.515625 27.296875 
Q 5.515625 40.671875 12.859375 48.328125 
Q 20.21875 56 33.015625 56 
Q 37.15625 56 41.109375 55.140625 
Q 45.0625 54.296875 48.78125 52.59375 
z
" id="DejaVuSans-99"/>
      <path d="M 30.609375 48.390625 
Q 23.390625 48.390625 19.1875 42.75 
Q 14.984375 37.109375 14.984375 27.296875 
Q 14.984375 17.484375 19.15625 11.84375 
Q 23.34375 6.203125 30.609375 6.203125 
Q 37.796875 6.203125 41.984375 11.859375 
Q 46.1875 17.53125 46.1875 27.296875 
Q 46.1875 37.015625 41.984375 42.703125 
Q 37.796875 48.390625 30.609375 48.390625 
z
M 30.609375 56 
Q 42.328125 56 49.015625 48.375 
Q 55.71875 40.765625 55.71875 27.296875 
Q 55.71875 13.875 49.015625 6.21875 
Q 42.328125 -1.421875 30.609375 -1.421875 
Q 18.84375 -1.421875 12.171875 6.21875 
Q 5.515625 13.875 5.515625 27.296875 
Q 5.515625 40.765625 12.171875 48.375 
Q 18.84375 56 30.609375 56 
z
" id="DejaVuSans-111"/>
     </defs>
     <g transform="translate(655.701563 559.029688)scale(0.3 -0.3)">
      <use xlink:href="#DejaVuSans-66"/>
      <use x="68.603516" xlink:href="#DejaVuSans-105"/>
      <use x="96.386719" xlink:href="#DejaVuSans-116"/>
      <use x="135.595703" xlink:href="#DejaVuSans-32"/>
      <use x="167.382812" xlink:href="#DejaVuSans-73"/>
      <use x="196.875" xlink:href="#DejaVuSans-110"/>
      <use x="260.253906" xlink:href="#DejaVuSans-116"/>
      <use x="299.462891" xlink:href="#DejaVuSans-101"/>
      <use x="360.986328" xlink:href="#DejaVuSans-114"/>
      <use x="402.099609" xlink:href="#DejaVuSans-97"/>
      <use x="463.378906" xlink:href="#DejaVuSans-99"/>
      <use x="518.359375" xlink:href="#DejaVuSans-116"/>
      <use x="557.568359" xlink:href="#DejaVuSans-105"/>
      <use x="585.351562" xlink:href="#DejaVuSans-111"/>
      <use x="646.533203" xlink:href="#DejaVuSans-110"/>
     </g>
    </g>
   </g>
   <g id="matplotlib.axis_2">
    <g id="ytick_1">
     <g id="line2d_7">
      <defs>
       <path d="M 0 0 
L -3.5 0 
" id="m5981d5f6e8" style="stroke:#000000;stroke-width:0.8;"/>
      </defs>
      <g>
       <use style="stroke:#000000;stroke-width:0.8;" x="95.175" xlink:href="#m5981d5f6e8" y="486.68251"/>
      </g>
     </g>
     <g id="text_8">
      <!-- −7 -->
      <defs>
       <path d="M 10.59375 35.5 
L 73.1875 35.5 
L 73.1875 27.203125 
L 10.59375 27.203125 
z
" id="DejaVuSans-8722"/>
       <path d="M 8.203125 72.90625 
L 55.078125 72.90625 
L 55.078125 68.703125 
L 28.609375 0 
L 18.3125 0 
L 43.21875 64.59375 
L 8.203125 64.59375 
z
" id="DejaVuSans-55"/>
      </defs>
      <g transform="translate(43.948438 498.080167)scale(0.3 -0.3)">
       <use xlink:href="#DejaVuSans-8722"/>
       <use x="83.789062" xlink:href="#DejaVuSans-55"/>
      </g>
     </g>
    </g>
    <g id="ytick_2">
     <g id="line2d_8">
      <g>
       <use style="stroke:#000000;stroke-width:0.8;" x="95.175" xlink:href="#m5981d5f6e8" y="426.855556"/>
      </g>
     </g>
     <g id="text_9">
      <!-- −6 -->
      <defs>
       <path d="M 33.015625 40.375 
Q 26.375 40.375 22.484375 35.828125 
Q 18.609375 31.296875 18.609375 23.390625 
Q 18.609375 15.53125 22.484375 10.953125 
Q 26.375 6.390625 33.015625 6.390625 
Q 39.65625 6.390625 43.53125 10.953125 
Q 47.40625 15.53125 47.40625 23.390625 
Q 47.40625 31.296875 43.53125 35.828125 
Q 39.65625 40.375 33.015625 40.375 
z
M 52.59375 71.296875 
L 52.59375 62.3125 
Q 48.875 64.0625 45.09375 64.984375 
Q 41.3125 65.921875 37.59375 65.921875 
Q 27.828125 65.921875 22.671875 59.328125 
Q 17.53125 52.734375 16.796875 39.40625 
Q 19.671875 43.65625 24.015625 45.921875 
Q 28.375 48.1875 33.59375 48.1875 
Q 44.578125 48.1875 50.953125 41.515625 
Q 57.328125 34.859375 57.328125 23.390625 
Q 57.328125 12.15625 50.6875 5.359375 
Q 44.046875 -1.421875 33.015625 -1.421875 
Q 20.359375 -1.421875 13.671875 8.265625 
Q 6.984375 17.96875 6.984375 36.375 
Q 6.984375 53.65625 15.1875 63.9375 
Q 23.390625 74.21875 37.203125 74.21875 
Q 40.921875 74.21875 44.703125 73.484375 
Q 48.484375 72.75 52.59375 71.296875 
z
" id="DejaVuSans-54"/>
      </defs>
      <g transform="translate(43.948438 438.253212)scale(0.3 -0.3)">
       <use xlink:href="#DejaVuSans-8722"/>
       <use x="83.789062" xlink:href="#DejaVuSans-54"/>
      </g>
     </g>
    </g>
    <g id="ytick_3">
     <g id="line2d_9">
      <g>
       <use style="stroke:#000000;stroke-width:0.8;" x="95.175" xlink:href="#m5981d5f6e8" y="367.028601"/>
      </g>
     </g>
     <g id="text_10">
      <!-- −5 -->
      <g transform="translate(43.948438 378.426257)scale(0.3 -0.3)">
       <use xlink:href="#DejaVuSans-8722"/>
       <use x="83.789062" xlink:href="#DejaVuSans-53"/>
      </g>
     </g>
    </g>
    <g id="ytick_4">
     <g id="line2d_10">
      <g>
       <use style="stroke:#000000;stroke-width:0.8;" x="95.175" xlink:href="#m5981d5f6e8" y="307.201646"/>
      </g>
     </g>
     <g id="text_11">
      <!-- −4 -->
      <defs>
       <path d="M 37.796875 64.3125 
L 12.890625 25.390625 
L 37.796875 25.390625 
z
M 35.203125 72.90625 
L 47.609375 72.90625 
L 47.609375 25.390625 
L 58.015625 25.390625 
L 58.015625 17.1875 
L 47.609375 17.1875 
L 47.609375 0 
L 37.796875 0 
L 37.796875 17.1875 
L 4.890625 17.1875 
L 4.890625 26.703125 
z
" id="DejaVuSans-52"/>
      </defs>
      <g transform="translate(43.948438 318.599302)scale(0.3 -0.3)">
       <use xlink:href="#DejaVuSans-8722"/>
       <use x="83.789062" xlink:href="#DejaVuSans-52"/>
      </g>
     </g>
    </g>
    <g id="ytick_5">
     <g id="line2d_11">
      <g>
       <use style="stroke:#000000;stroke-width:0.8;" x="95.175" xlink:href="#m5981d5f6e8" y="247.374691"/>
      </g>
     </g>
     <g id="text_12">
      <!-- −3 -->
      <defs>
       <path d="M 40.578125 39.3125 
Q 47.65625 37.796875 51.625 33 
Q 55.609375 28.21875 55.609375 21.1875 
Q 55.609375 10.40625 48.1875 4.484375 
Q 40.765625 -1.421875 27.09375 -1.421875 
Q 22.515625 -1.421875 17.65625 -0.515625 
Q 12.796875 0.390625 7.625 2.203125 
L 7.625 11.71875 
Q 11.71875 9.328125 16.59375 8.109375 
Q 21.484375 6.890625 26.8125 6.890625 
Q 36.078125 6.890625 40.9375 10.546875 
Q 45.796875 14.203125 45.796875 21.1875 
Q 45.796875 27.640625 41.28125 31.265625 
Q 36.765625 34.90625 28.71875 34.90625 
L 20.21875 34.90625 
L 20.21875 43.015625 
L 29.109375 43.015625 
Q 36.375 43.015625 40.234375 45.921875 
Q 44.09375 48.828125 44.09375 54.296875 
Q 44.09375 59.90625 40.109375 62.90625 
Q 36.140625 65.921875 28.71875 65.921875 
Q 24.65625 65.921875 20.015625 65.03125 
Q 15.375 64.15625 9.8125 62.3125 
L 9.8125 71.09375 
Q 15.4375 72.65625 20.34375 73.4375 
Q 25.25 74.21875 29.59375 74.21875 
Q 40.828125 74.21875 47.359375 69.109375 
Q 53.90625 64.015625 53.90625 55.328125 
Q 53.90625 49.265625 50.4375 45.09375 
Q 46.96875 40.921875 40.578125 39.3125 
z
" id="DejaVuSans-51"/>
      </defs>
      <g transform="translate(43.948438 258.772348)scale(0.3 -0.3)">
       <use xlink:href="#DejaVuSans-8722"/>
       <use x="83.789062" xlink:href="#DejaVuSans-51"/>
      </g>
     </g>
    </g>
    <g id="ytick_6">
     <g id="line2d_12">
      <g>
       <use style="stroke:#000000;stroke-width:0.8;" x="95.175" xlink:href="#m5981d5f6e8" y="187.547736"/>
      </g>
     </g>
     <g id="text_13">
      <!-- −2 -->
      <g transform="translate(43.948438 198.945393)scale(0.3 -0.3)">
       <use xlink:href="#DejaVuSans-8722"/>
       <use x="83.789062" xlink:href="#DejaVuSans-50"/>
      </g>
     </g>
    </g>
    <g id="ytick_7">
     <g id="line2d_13">
      <g>
       <use style="stroke:#000000;stroke-width:0.8;" x="95.175" xlink:href="#m5981d5f6e8" y="127.720782"/>
      </g>
     </g>
     <g id="text_14">
      <!-- −1 -->
      <g transform="translate(43.948438 139.118438)scale(0.3 -0.3)">
       <use xlink:href="#DejaVuSans-8722"/>
       <use x="83.789062" xlink:href="#DejaVuSans-49"/>
      </g>
     </g>
    </g>
    <g id="ytick_8">
     <g id="line2d_14">
      <g>
       <use style="stroke:#000000;stroke-width:0.8;" x="95.175" xlink:href="#m5981d5f6e8" y="67.893827"/>
      </g>
     </g>
     <g id="text_15">
      <!-- 0 -->
      <g transform="translate(69.0875 79.291483)scale(0.3 -0.3)">
       <use xlink:href="#DejaVuSans-48"/>
      </g>
     </g>
    </g>
    <g id="text_16">
     <!-- Weight Value -->
     <defs>
      <path d="M 3.328125 72.90625 
L 13.28125 72.90625 
L 28.609375 11.28125 
L 43.890625 72.90625 
L 54.984375 72.90625 
L 70.3125 11.28125 
L 85.59375 72.90625 
L 95.609375 72.90625 
L 77.296875 0 
L 64.890625 0 
L 49.515625 63.28125 
L 33.984375 0 
L 21.578125 0 
z
" id="DejaVuSans-87"/>
      <path d="M 45.40625 27.984375 
Q 45.40625 37.75 41.375 43.109375 
Q 37.359375 48.484375 30.078125 48.484375 
Q 22.859375 48.484375 18.828125 43.109375 
Q 14.796875 37.75 14.796875 27.984375 
Q 14.796875 18.265625 18.828125 12.890625 
Q 22.859375 7.515625 30.078125 7.515625 
Q 37.359375 7.515625 41.375 12.890625 
Q 45.40625 18.265625 45.40625 27.984375 
z
M 54.390625 6.78125 
Q 54.390625 -7.171875 48.1875 -13.984375 
Q 42 -20.796875 29.203125 -20.796875 
Q 24.46875 -20.796875 20.265625 -20.09375 
Q 16.0625 -19.390625 12.109375 -17.921875 
L 12.109375 -9.1875 
Q 16.0625 -11.328125 19.921875 -12.34375 
Q 23.78125 -13.375 27.78125 -13.375 
Q 36.625 -13.375 41.015625 -8.765625 
Q 45.40625 -4.15625 45.40625 5.171875 
L 45.40625 9.625 
Q 42.625 4.78125 38.28125 2.390625 
Q 33.9375 0 27.875 0 
Q 17.828125 0 11.671875 7.65625 
Q 5.515625 15.328125 5.515625 27.984375 
Q 5.515625 40.671875 11.671875 48.328125 
Q 17.828125 56 27.875 56 
Q 33.9375 56 38.28125 53.609375 
Q 42.625 51.21875 45.40625 46.390625 
L 45.40625 54.6875 
L 54.390625 54.6875 
z
" id="DejaVuSans-103"/>
      <path d="M 54.890625 33.015625 
L 54.890625 0 
L 45.90625 0 
L 45.90625 32.71875 
Q 45.90625 40.484375 42.875 44.328125 
Q 39.84375 48.1875 33.796875 48.1875 
Q 26.515625 48.1875 22.3125 43.546875 
Q 18.109375 38.921875 18.109375 30.90625 
L 18.109375 0 
L 9.078125 0 
L 9.078125 75.984375 
L 18.109375 75.984375 
L 18.109375 46.1875 
Q 21.34375 51.125 25.703125 53.5625 
Q 30.078125 56 35.796875 56 
Q 45.21875 56 50.046875 50.171875 
Q 54.890625 44.34375 54.890625 33.015625 
z
" id="DejaVuSans-104"/>
      <path d="M 28.609375 0 
L 0.78125 72.90625 
L 11.078125 72.90625 
L 34.1875 11.53125 
L 57.328125 72.90625 
L 67.578125 72.90625 
L 39.796875 0 
z
" id="DejaVuSans-86"/>
      <path d="M 9.421875 75.984375 
L 18.40625 75.984375 
L 18.40625 0 
L 9.421875 0 
z
" id="DejaVuSans-108"/>
      <path d="M 8.5 21.578125 
L 8.5 54.6875 
L 17.484375 54.6875 
L 17.484375 21.921875 
Q 17.484375 14.15625 20.5 10.265625 
Q 23.53125 6.390625 29.59375 6.390625 
Q 36.859375 6.390625 41.078125 11.03125 
Q 45.3125 15.671875 45.3125 23.6875 
L 45.3125 54.6875 
L 54.296875 54.6875 
L 54.296875 0 
L 45.3125 0 
L 45.3125 8.40625 
Q 42.046875 3.421875 37.71875 1 
Q 33.40625 -1.421875 27.6875 -1.421875 
Q 18.265625 -1.421875 13.375 4.4375 
Q 8.5 10.296875 8.5 21.578125 
z
M 31.109375 56 
z
" id="DejaVuSans-117"/>
     </defs>
     <g transform="translate(33.709375 353.732813)rotate(-90)scale(0.3 -0.3)">
      <use xlink:href="#DejaVuSans-87"/>
      <use x="98.798828" xlink:href="#DejaVuSans-101"/>
      <use x="160.322266" xlink:href="#DejaVuSans-105"/>
      <use x="188.105469" xlink:href="#DejaVuSans-103"/>
      <use x="251.582031" xlink:href="#DejaVuSans-104"/>
      <use x="314.960938" xlink:href="#DejaVuSans-116"/>
      <use x="354.169922" xlink:href="#DejaVuSans-32"/>
      <use x="385.957031" xlink:href="#DejaVuSans-86"/>
      <use x="454.255859" xlink:href="#DejaVuSans-97"/>
      <use x="515.535156" xlink:href="#DejaVuSans-108"/>
      <use x="543.318359" xlink:href="#DejaVuSans-117"/>
      <use x="606.697266" xlink:href="#DejaVuSans-101"/>
     </g>
    </g>
   </g>
   <g id="line2d_15">
    <path clip-path="url(#p5b761518f1)" d="M 156.759221 70.695742 
L 161.492828 59.15065 
L 166.226434 72.327308 
L 170.960041 58.30145 
L 175.693648 51.527944 
L 180.427254 54.333341 
L 185.160861 78.256364 
L 189.894467 48.842175 
L 194.628074 58.402941 
L 199.36168 85.484571 
L 204.095287 51.148971 
L 208.828893 56.462774 
L 213.5625 55.609129 
L 218.296107 46.042767 
L 223.029713 57.56907 
L 227.76332 58.614962 
L 232.496926 54.719907 
L 237.230533 72.88059 
L 241.964139 67.869501 
L 246.697746 56.500857 
L 251.431352 71.972079 
L 256.164959 63.756767 
L 260.898566 47.634918 
L 265.632172 73.362943 
L 270.365779 41.385788 
L 275.099385 74.44123 
L 279.832992 104.406093 
L 284.566598 73.420424 
L 289.300205 56.818479 
L 294.033811 73.231363 
L 298.767418 70.494802 
L 303.501025 54.181002 
L 308.234631 71.798253 
L 312.968238 78.863947 
L 317.701844 79.907287 
L 322.435451 61.79774 
L 327.169057 73.150304 
L 331.902664 73.999067 
L 336.63627 77.243954 
L 341.369877 63.104104 
L 346.103484 55.104896 
L 350.83709 48.194177 
L 355.570697 52.071969 
L 360.304303 67.389592 
L 365.03791 72.775859 
L 369.771516 62.588767 
L 374.505123 53.051148 
L 379.23873 74.089309 
L 383.972336 77.854723 
L 388.705943 89.615496 
L 393.439549 88.328794 
L 398.173156 49.915272 
L 402.906762 78.071561 
L 407.640369 37.446542 
L 412.373975 46.972861 
L 417.107582 61.362447 
L 421.841189 65.844555 
L 426.574795 60.757186 
L 431.308402 55.857839 
L 436.042008 58.77299 
L 440.775615 67.552465 
L 445.509221 52.358325 
L 450.242828 87.480068 
L 454.976434 50.407664 
L 459.710041 52.151972 
L 464.443648 78.891623 
L 469.177254 61.05261 
L 473.910861 71.965468 
L 478.644467 64.587723 
L 483.378074 78.656649 
L 488.11168 68.002799 
L 492.845287 71.64433 
L 497.578893 59.032229 
L 502.3125 47.373836 
L 507.046107 61.538238 
L 511.779713 53.394955 
L 516.51332 70.070421 
L 521.246926 62.811415 
L 525.980533 81.099042 
L 530.714139 68.178633 
L 535.447746 79.60456 
L 540.181352 68.910001 
L 544.914959 64.456583 
L 549.648566 69.782866 
L 554.382172 71.573427 
L 559.115779 57.440269 
L 563.849385 76.242228 
L 568.582992 63.787893 
L 573.316598 94.682587 
L 578.050205 67.904551 
L 582.783811 47.88552 
L 587.517418 69.178406 
L 592.251025 68.676593 
L 596.984631 55.548915 
L 601.718238 59.574026 
L 606.451844 64.07759 
L 611.185451 70.142265 
L 615.919057 53.293853 
L 620.652664 62.219778 
L 625.38627 52.382622 
L 630.119877 60.818721 
L 634.853484 66.026091 
L 639.58709 58.863731 
L 644.320697 75.314829 
L 649.054303 65.545841 
L 653.78791 74.988415 
L 658.521516 32.863636 
L 663.255123 64.727267 
L 667.98873 81.797042 
L 672.722336 56.864207 
L 677.455943 71.971521 
L 682.189549 62.11078 
L 686.923156 64.455362 
L 691.656762 58.034317 
L 696.390369 39.663909 
L 701.123975 61.670177 
L 705.857582 75.726813 
L 710.591189 65.445295 
L 715.324795 67.288669 
L 720.058402 80.285137 
L 724.792008 82.68651 
L 729.525615 70.458003 
L 734.259221 82.088633 
L 738.992828 74.152018 
L 743.726434 64.332045 
L 748.460041 56.10971 
L 753.193648 54.537235 
L 757.927254 62.737551 
L 762.660861 57.757619 
L 767.394467 77.734839 
L 772.128074 87.649553 
L 776.86168 71.825978 
L 781.595287 46.645144 
L 786.328893 71.105948 
L 791.0625 78.185986 
L 795.796107 57.035914 
L 800.529713 72.620241 
L 805.26332 85.689107 
L 809.996926 81.329862 
L 814.730533 73.583552 
L 819.464139 58.550307 
L 824.197746 57.263987 
L 828.931352 72.658288 
L 833.664959 78.445002 
L 838.398566 79.524327 
L 843.132172 49.876851 
L 847.865779 62.995865 
L 852.599385 61.290795 
L 857.332992 95.897005 
L 862.066598 74.013386 
L 866.800205 42.916657 
L 871.533811 45.866105 
L 876.267418 62.850411 
L 881.001025 74.247074 
L 885.734631 70.059653 
L 890.468238 69.171774 
L 895.201844 69.421414 
L 899.935451 68.843108 
L 904.669057 67.056395 
L 909.402664 47.819619 
L 914.13627 68.02882 
L 918.869877 72.516647 
L 923.603484 60.248001 
L 928.33709 101.214765 
L 933.070697 65.745041 
L 937.804303 73.856594 
L 942.53791 61.465917 
L 947.271516 54.002403 
L 952.005123 62.226559 
L 956.73873 78.509423 
L 961.472336 58.075261 
L 966.205943 78.424704 
L 970.939549 86.338837 
L 975.673156 63.148706 
L 980.406762 56.14258 
L 985.140369 61.260006 
L 989.873975 63.280932 
L 994.607582 79.676057 
L 999.341189 75.457567 
L 1004.074795 68.542803 
L 1008.808402 68.379505 
L 1013.542008 49.975168 
L 1018.275615 75.749535 
L 1023.009221 65.62525 
L 1027.742828 50.752546 
L 1032.476434 69.034781 
L 1037.210041 73.638744 
L 1041.943648 64.536408 
L 1046.677254 66.076536 
L 1051.410861 71.412286 
L 1056.144467 56.091677 
L 1060.878074 56.629757 
L 1065.61168 58.681586 
L 1070.345287 82.867297 
L 1075.078893 91.692233 
L 1079.8125 57.55338 
L 1084.546107 63.494517 
L 1089.279713 53.509961 
L 1094.01332 69.580814 
L 1098.746926 57.252939 
L 1103.480533 52.817946 
L 1108.214139 74.166455 
L 1112.947746 73.264818 
L 1117.681352 58.380745 
L 1122.414959 74.173902 
L 1127.148566 76.542573 
L 1131.882172 95.297741 
L 1136.615779 48.43218 
L 1141.349385 57.167223 
L 1146.082992 71.701012 
L 1150.816598 41.771931 
L 1155.550205 65.993403 
L 1160.283811 38.836047 
L 1165.017418 53.091865 
L 1169.751025 65.620425 
L 1174.484631 90.996293 
L 1179.218238 46.689035 
L 1183.951844 41.60253 
L 1188.685451 62.969255 
L 1193.419057 62.247296 
L 1198.152664 75.210087 
L 1202.88627 57.082971 
L 1207.619877 69.765769 
L 1212.353484 88.028451 
L 1217.08709 62.43214 
L 1221.820697 67.399227 
L 1226.554303 55.972306 
L 1231.28791 69.971956 
L 1236.021516 49.541318 
L 1240.755123 54.423995 
L 1245.48873 71.757961 
L 1250.222336 66.323955 
L 1254.955943 74.214933 
L 1259.689549 80.545945 
L 1264.423156 78.806853 
L 1269.156762 68.966907 
L 1273.890369 61.079918 
L 1278.623975 71.969612 
L 1283.357582 53.709115 
L 1288.091189 48.650091 
L 1292.824795 70.971215 
L 1297.558402 79.565359 
L 1302.292008 86.90932 
L 1307.025615 59.046569 
L 1311.759221 70.148301 
L 1316.492828 56.850604 
L 1321.226434 60.078725 
L 1325.960041 64.487517 
L 1330.693648 74.458701 
L 1335.427254 80.749125 
L 1340.160861 50.921245 
L 1344.894467 56.66258 
L 1349.628074 54.525909 
L 1354.36168 75.82279 
L 1359.095287 70.532951 
L 1363.828893 49.469354 
L 1363.828893 49.469354 
" style="fill:none;stroke:#1f77b4;stroke-linecap:square;stroke-width:1.5;"/>
   </g>
   <g id="line2d_16">
    <path clip-path="url(#p5b761518f1)" d="M 156.759221 61.416325 
L 161.492828 70.409514 
L 166.226434 443.933102 
L 170.960041 59.547318 
L 175.693648 71.010931 
L 180.427254 59.944766 
L 185.160861 66.895763 
L 189.894467 68.224596 
L 194.628074 440.099661 
L 199.36168 68.570812 
L 204.095287 84.610036 
L 208.828893 67.65582 
L 213.5625 64.474614 
L 218.296107 65.071584 
L 223.029713 71.372845 
L 227.76332 66.045822 
L 232.496926 76.438389 
L 237.230533 61.590693 
L 241.964139 72.3975 
L 246.697746 57.532249 
L 251.431352 68.780502 
L 256.164959 52.994694 
L 260.898566 57.345917 
L 265.632172 55.381088 
L 270.365779 65.05554 
L 275.099385 57.557256 
L 279.832992 87.007384 
L 284.566598 73.64834 
L 289.300205 44.271693 
L 294.033811 48.782392 
L 298.767418 70.716111 
L 303.501025 75.294359 
L 308.234631 75.606842 
L 312.968238 77.166981 
L 317.701844 65.576172 
L 322.435451 68.394525 
L 327.169057 62.677149 
L 331.902664 80.372481 
L 336.63627 67.944858 
L 341.369877 62.444337 
L 346.103484 76.863696 
L 350.83709 63.537536 
L 355.570697 72.415088 
L 360.304303 62.78802 
L 365.03791 56.438482 
L 369.771516 74.761154 
L 374.505123 58.982093 
L 379.23873 57.586935 
L 383.972336 60.176503 
L 388.705943 66.468039 
L 393.439549 89.643772 
L 398.173156 54.093882 
L 402.906762 60.868898 
L 407.640369 56.93495 
L 412.373975 62.669728 
L 417.107582 64.518728 
L 421.841189 76.308849 
L 426.574795 83.858617 
L 431.308402 54.456833 
L 436.042008 59.52264 
L 440.775615 62.661837 
L 445.509221 76.889469 
L 450.242828 50.714956 
L 454.976434 73.357758 
L 459.710041 66.966522 
L 464.443648 50.270658 
L 469.177254 73.736085 
L 473.910861 63.365653 
L 478.644467 68.944944 
L 483.378074 68.711049 
L 488.11168 66.774464 
L 492.845287 64.205708 
L 497.578893 78.576197 
L 502.3125 75.536314 
L 507.046107 81.131946 
L 511.779713 53.419403 
L 516.51332 64.646004 
L 521.246926 67.021586 
L 525.980533 71.811008 
L 530.714139 72.134342 
L 535.447746 81.577401 
L 540.181352 73.533628 
L 544.914959 55.966905 
L 549.648566 68.800249 
L 554.382172 73.613785 
L 559.115779 72.727901 
L 563.849385 57.875842 
L 568.582992 55.050733 
L 573.316598 70.175604 
L 578.050205 82.443677 
L 582.783811 62.062071 
L 587.517418 70.902773 
L 592.251025 68.357694 
L 596.984631 67.319795 
L 601.718238 62.517757 
L 606.451844 75.789347 
L 611.185451 72.839998 
L 615.919057 67.255723 
L 620.652664 75.392293 
L 625.38627 67.875113 
L 630.119877 84.461481 
L 634.853484 76.71667 
L 639.58709 74.280542 
L 644.320697 70.092446 
L 649.054303 64.253932 
L 653.78791 72.007756 
L 658.521516 62.229472 
L 663.255123 77.619916 
L 667.98873 62.424132 
L 672.722336 79.022013 
L 677.455943 61.152641 
L 682.189549 60.80601 
L 686.923156 57.433681 
L 691.656762 60.66856 
L 696.390369 70.017901 
L 701.123975 63.343512 
L 705.857582 66.60913 
L 710.591189 80.805931 
L 715.324795 49.463316 
L 720.058402 56.104065 
L 724.792008 66.110754 
L 729.525615 73.875388 
L 734.259221 59.207888 
L 738.992828 61.957964 
L 743.726434 51.088614 
L 748.460041 67.77358 
L 753.193648 77.902612 
L 757.927254 72.637877 
L 762.660861 79.297847 
L 767.394467 74.612596 
L 772.128074 79.847312 
L 776.86168 81.18392 
L 781.595287 58.882091 
L 786.328893 71.44399 
L 791.0625 76.604472 
L 795.796107 67.961889 
L 800.529713 62.528944 
L 805.26332 77.748998 
L 809.996926 85.00155 
L 814.730533 47.745369 
L 819.464139 70.689664 
L 824.197746 54.707779 
L 828.931352 57.475471 
L 833.664959 61.82923 
L 838.398566 63.005089 
L 843.132172 88.43399 
L 847.865779 59.340274 
L 852.599385 62.913819 
L 857.332992 64.402079 
L 862.066598 80.769725 
L 866.800205 76.345899 
L 871.533811 80.759563 
L 876.267418 60.459955 
L 881.001025 67.119491 
L 885.734631 71.806086 
L 890.468238 70.986997 
L 895.201844 57.661996 
L 899.935451 64.875273 
L 904.669057 54.399012 
L 909.402664 59.24909 
L 914.13627 84.620232 
L 918.869877 63.1106 
L 923.603484 61.689161 
L 928.33709 71.850779 
L 933.070697 68.699393 
L 937.804303 73.3757 
L 942.53791 69.275779 
L 947.271516 65.413235 
L 952.005123 65.134856 
L 956.73873 62.064623 
L 961.472336 67.15383 
L 966.205943 72.971705 
L 970.939549 61.511865 
L 975.673156 80.93444 
L 980.406762 80.926846 
L 985.140369 83.165052 
L 989.873975 66.965506 
L 994.607582 53.515961 
L 999.341189 66.821999 
L 1004.074795 55.892612 
L 1008.808402 67.994568 
L 1013.542008 60.954368 
L 1018.275615 82.037805 
L 1023.009221 77.287264 
L 1027.742828 68.565907 
L 1032.476434 52.773496 
L 1037.210041 74.568357 
L 1041.943648 75.844225 
L 1046.677254 50.915545 
L 1051.410861 55.202834 
L 1056.144467 55.021183 
L 1060.878074 55.893333 
L 1065.61168 81.289607 
L 1070.345287 64.94375 
L 1075.078893 89.348017 
L 1079.8125 62.903685 
L 1084.546107 59.023507 
L 1089.279713 75.63331 
L 1094.01332 60.387156 
L 1098.746926 66.021794 
L 1103.480533 52.912481 
L 1108.214139 57.439776 
L 1112.947746 73.433956 
L 1117.681352 75.557809 
L 1122.414959 67.717928 
L 1127.148566 66.556738 
L 1131.882172 45.565801 
L 1136.615779 76.787036 
L 1141.349385 79.183873 
L 1146.082992 65.241124 
L 1150.816598 80.721856 
L 1155.550205 68.747176 
L 1160.283811 78.604814 
L 1165.017418 72.89309 
L 1169.751025 63.708373 
L 1174.484631 79.756224 
L 1179.218238 74.216263 
L 1183.951844 72.758579 
L 1188.685451 65.00439 
L 1193.419057 77.392637 
L 1198.152664 66.214146 
L 1202.88627 65.283984 
L 1207.619877 86.877529 
L 1212.353484 70.305745 
L 1217.08709 72.376024 
L 1221.820697 91.907924 
L 1226.554303 61.776772 
L 1231.28791 80.429663 
L 1236.021516 62.673781 
L 1240.755123 34.079605 
L 1245.48873 76.971104 
L 1250.222336 69.102898 
L 1254.955943 62.129404 
L 1259.689549 84.763882 
L 1264.423156 81.695076 
L 1269.156762 70.221051 
L 1273.890369 56.001838 
L 1278.623975 77.439237 
L 1283.357582 86.800688 
L 1288.091189 72.400651 
L 1292.824795 78.99077 
L 1297.558402 72.612488 
L 1302.292008 82.542116 
L 1307.025615 50.736471 
L 1311.759221 76.635977 
L 1316.492828 61.424608 
L 1321.226434 60.72036 
L 1325.960041 65.547197 
L 1330.693648 59.5075 
L 1335.427254 58.58854 
L 1340.160861 81.678422 
L 1344.894467 47.424043 
L 1349.628074 68.839824 
L 1354.36168 71.33505 
L 1359.095287 84.881222 
L 1363.828893 73.61811 
L 1363.828893 73.61811 
" style="fill:none;stroke:#ff7f0e;stroke-linecap:square;stroke-width:1.5;"/>
   </g>
   <g id="line2d_17">
    <path clip-path="url(#p5b761518f1)" d="M 156.759221 70.989878 
L 161.492828 64.572276 
L 166.226434 87.345332 
L 170.960041 54.856314 
L 175.693648 474.136364 
L 180.427254 69.108003 
L 185.160861 70.222716 
L 189.894467 454.229153 
L 194.628074 45.486787 
L 199.36168 79.90759 
L 204.095287 63.647005 
L 208.828893 60.219861 
L 213.5625 72.065654 
L 218.296107 66.806673 
L 223.029713 63.565601 
L 227.76332 73.962436 
L 232.496926 75.805104 
L 237.230533 66.12265 
L 241.964139 72.681876 
L 246.697746 81.574682 
L 251.431352 74.700513 
L 256.164959 55.911407 
L 260.898566 55.87355 
L 265.632172 72.409612 
L 270.365779 62.196632 
L 275.099385 88.605208 
L 279.832992 58.450118 
L 284.566598 53.179195 
L 289.300205 77.389378 
L 294.033811 81.541435 
L 298.767418 48.900367 
L 303.501025 75.907764 
L 308.234631 56.92125 
L 312.968238 60.888341 
L 317.701844 91.525398 
L 322.435451 75.507149 
L 327.169057 67.049271 
L 331.902664 63.942187 
L 336.63627 80.953345 
L 341.369877 77.812987 
L 350.83709 59.429334 
L 355.570697 75.100468 
L 360.304303 74.700215 
L 365.03791 58.088015 
L 369.771516 72.160454 
L 374.505123 63.307809 
L 379.23873 76.854802 
L 383.972336 66.147009 
L 388.705943 78.584192 
L 393.439549 73.655762 
L 398.173156 75.807106 
L 402.906762 65.122547 
L 407.640369 58.277976 
L 412.373975 74.103475 
L 417.107582 88.644359 
L 421.841189 80.602577 
L 426.574795 57.22346 
L 431.308402 72.765949 
L 436.042008 75.252572 
L 440.775615 84.287384 
L 445.509221 73.640397 
L 450.242828 50.114139 
L 454.976434 75.418186 
L 459.710041 63.182574 
L 464.443648 59.921103 
L 469.177254 88.159531 
L 473.910861 71.327086 
L 478.644467 65.013312 
L 483.378074 55.467311 
L 488.11168 68.853082 
L 492.845287 61.863519 
L 497.578893 74.875437 
L 502.3125 63.09785 
L 507.046107 57.84725 
L 511.779713 72.021831 
L 516.51332 62.852149 
L 521.246926 62.442147 
L 525.980533 61.571717 
L 530.714139 88.506586 
L 535.447746 40.865336 
L 540.181352 69.54631 
L 544.914959 69.80398 
L 549.648566 61.108954 
L 554.382172 67.044912 
L 559.115779 67.50506 
L 563.849385 76.080727 
L 568.582992 57.680661 
L 573.316598 75.911909 
L 578.050205 86.03502 
L 582.783811 79.6443 
L 587.517418 95.823339 
L 592.251025 54.322484 
L 596.984631 69.66075 
L 601.718238 69.605125 
L 606.451844 82.375426 
L 611.185451 57.505911 
L 615.919057 84.599413 
L 620.652664 49.239196 
L 625.38627 76.216068 
L 630.119877 74.342446 
L 634.853484 51.626315 
L 639.58709 75.562134 
L 644.320697 44.947048 
L 649.054303 78.501924 
L 653.78791 82.432951 
L 658.521516 66.37759 
L 663.255123 51.007577 
L 672.722336 72.259973 
L 677.455943 62.291113 
L 686.923156 71.050366 
L 691.656762 45.917197 
L 696.390369 68.613641 
L 701.123975 61.730029 
L 705.857582 60.215304 
L 710.591189 80.143592 
L 715.324795 75.86247 
L 720.058402 76.495235 
L 724.792008 60.985339 
L 729.525615 78.175464 
L 734.259221 57.547867 
L 738.992828 64.575055 
L 743.726434 85.111482 
L 748.460041 59.230608 
L 753.193648 62.464971 
L 757.927254 67.649805 
L 762.660861 66.539437 
L 767.394467 62.473914 
L 772.128074 90.508649 
L 776.86168 74.149189 
L 781.595287 80.07425 
L 786.328893 78.532532 
L 791.0625 72.840103 
L 795.796107 52.277798 
L 800.529713 71.648098 
L 805.26332 46.403765 
L 809.996926 78.740827 
L 814.730533 85.73825 
L 819.464139 87.312789 
L 824.197746 71.105307 
L 828.931352 76.42549 
L 833.664959 62.557918 
L 838.398566 59.999923 
L 843.132172 70.865476 
L 847.865779 61.336736 
L 852.599385 61.119472 
L 857.332992 46.354828 
L 862.066598 73.937301 
L 866.800205 77.138221 
L 871.533811 72.578463 
L 876.267418 68.69116 
L 881.001025 71.342562 
L 885.734631 63.612629 
L 890.468238 68.765542 
L 895.201844 71.748894 
L 899.935451 72.990161 
L 904.669057 66.635423 
L 909.402664 63.902575 
L 914.13627 75.089283 
L 918.869877 69.524023 
L 923.603484 65.854888 
L 928.33709 54.151661 
L 933.070697 70.011284 
L 937.804303 73.010559 
L 942.53791 70.24422 
L 947.271516 64.321484 
L 952.005123 55.993991 
L 956.73873 65.922864 
L 961.472336 66.657861 
L 966.205943 66.771557 
L 970.939549 61.530835 
L 975.673156 74.781213 
L 980.406762 64.395083 
L 985.140369 57.01802 
L 989.873975 74.917707 
L 994.607582 66.024859 
L 999.341189 66.779554 
L 1004.074795 70.022607 
L 1008.808402 50.892436 
L 1013.542008 68.233976 
L 1018.275615 67.007591 
L 1023.009221 60.156284 
L 1027.742828 64.172976 
L 1032.476434 52.247299 
L 1037.210041 65.141721 
L 1041.943648 45.378729 
L 1046.677254 59.285481 
L 1051.410861 69.071677 
L 1056.144467 66.558298 
L 1060.878074 71.313522 
L 1065.61168 51.183811 
L 1070.345287 70.653371 
L 1075.078893 57.967808 
L 1079.8125 86.093946 
L 1084.546107 69.132528 
L 1089.279713 86.690844 
L 1094.01332 45.401735 
L 1098.746926 71.65395 
L 1103.480533 72.671451 
L 1108.214139 67.586057 
L 1112.947746 60.162353 
L 1117.681352 76.783893 
L 1122.414959 56.88989 
L 1127.148566 73.611455 
L 1131.882172 85.335686 
L 1136.615779 77.774446 
L 1141.349385 65.083127 
L 1146.082992 85.175892 
L 1150.816598 47.455249 
L 1155.550205 88.150855 
L 1160.283811 72.206246 
L 1165.017418 64.611574 
L 1169.751025 58.176342 
L 1174.484631 63.415373 
L 1179.218238 72.539184 
L 1183.951844 64.633421 
L 1188.685451 76.65102 
L 1193.419057 62.883412 
L 1198.152664 61.220204 
L 1202.88627 81.740393 
L 1207.619877 83.422753 
L 1212.353484 62.875592 
L 1217.08709 49.638464 
L 1221.820697 56.397256 
L 1226.554303 90.196784 
L 1231.28791 103.02849 
L 1236.021516 42.334109 
L 1240.755123 56.672645 
L 1245.48873 74.329494 
L 1250.222336 71.662739 
L 1254.955943 64.156585 
L 1259.689549 76.643416 
L 1264.423156 70.536767 
L 1269.156762 73.660642 
L 1273.890369 76.922823 
L 1278.623975 67.701694 
L 1283.357582 63.129935 
L 1288.091189 70.198065 
L 1292.824795 86.466161 
L 1297.558402 72.760621 
L 1302.292008 79.251746 
L 1307.025615 80.348086 
L 1311.759221 50.337099 
L 1316.492828 74.759964 
L 1321.226434 73.670877 
L 1325.960041 72.121775 
L 1330.693648 60.489526 
L 1335.427254 74.991327 
L 1340.160861 68.289458 
L 1344.894467 43.602028 
L 1349.628074 95.795498 
L 1354.36168 69.285572 
L 1359.095287 66.714923 
L 1363.828893 65.489609 
L 1363.828893 65.489609 
" style="fill:none;stroke:#2ca02c;stroke-linecap:square;stroke-width:1.5;"/>
   </g>
   <g id="line2d_18">
    <path clip-path="url(#p5b761518f1)" d="M 156.759221 70.949074 
L 161.492828 78.599717 
L 166.226434 68.973852 
L 170.960041 62.342091 
L 175.693648 59.396086 
L 180.427254 79.026083 
L 185.160861 39.594569 
L 189.894467 64.370958 
L 194.628074 57.379806 
L 199.36168 64.191869 
L 204.095287 43.445545 
L 208.828893 100.444991 
L 213.5625 78.741108 
L 218.296107 68.185274 
L 223.029713 80.930106 
L 227.76332 52.506908 
L 232.496926 89.776489 
L 237.230533 64.439309 
L 241.964139 62.02745 
L 246.697746 44.388102 
L 251.431352 66.465161 
L 256.164959 55.396054 
L 260.898566 64.726285 
L 265.632172 80.190581 
L 270.365779 79.507903 
L 275.099385 59.538913 
L 279.832992 90.47124 
L 284.566598 58.8014 
L 289.300205 77.111611 
L 294.033811 59.791723 
L 298.767418 53.829622 
L 303.501025 69.988701 
L 308.234631 50.951171 
L 312.968238 50.426501 
L 317.701844 102.003874 
L 322.435451 76.422968 
L 327.169057 54.593893 
L 331.902664 85.71468 
L 336.63627 64.265647 
L 341.369877 57.720043 
L 346.103484 64.023104 
L 350.83709 66.428067 
L 355.570697 91.845729 
L 360.304303 90.601458 
L 365.03791 57.801971 
L 369.771516 69.663843 
L 374.505123 75.992451 
L 379.23873 92.013404 
L 383.972336 50.782067 
L 388.705943 56.225806 
L 393.439549 75.393625 
L 398.173156 65.933129 
L 402.906762 77.62451 
L 407.640369 71.018672 
L 412.373975 68.522667 
L 417.107582 77.045207 
L 421.841189 79.597795 
L 426.574795 53.53478 
L 431.308402 59.50765 
L 436.042008 66.545833 
L 440.775615 54.880748 
L 445.509221 78.398833 
L 450.242828 73.562035 
L 454.976434 80.2908 
L 459.710041 50.478707 
L 464.443648 73.725063 
L 469.177254 87.846346 
L 473.910861 76.92474 
L 478.644467 56.01538 
L 483.378074 54.912904 
L 488.11168 44.876227 
L 492.845287 75.418016 
L 497.578893 41.043898 
L 502.3125 59.880831 
L 507.046107 63.064724 
L 511.779713 43.495982 
L 516.51332 72.391253 
L 521.246926 55.05804 
L 525.980533 69.206697 
L 530.714139 81.64595 
L 535.447746 48.610561 
L 540.181352 59.180004 
L 544.914959 68.215945 
L 549.648566 85.850059 
L 554.382172 67.807355 
L 559.115779 60.057301 
L 563.849385 67.927 
L 568.582992 66.701464 
L 573.316598 74.199931 
L 578.050205 63.257648 
L 582.783811 74.134257 
L 587.517418 75.350155 
L 592.251025 77.497059 
L 596.984631 55.056097 
L 601.718238 51.211054 
L 606.451844 92.985589 
L 611.185451 70.181453 
L 615.919057 84.939877 
L 620.652664 74.799667 
L 625.38627 70.65617 
L 630.119877 64.012843 
L 634.853484 88.063695 
L 639.58709 66.434072 
L 644.320697 54.543394 
L 649.054303 83.976196 
L 653.78791 72.55548 
L 658.521516 69.192206 
L 663.255123 76.421714 
L 667.98873 49.957761 
L 672.722336 83.462726 
L 677.455943 56.845693 
L 682.189549 71.486816 
L 686.923156 75.271193 
L 691.656762 77.558444 
L 696.390369 60.117635 
L 701.123975 50.013071 
L 705.857582 57.533409 
L 710.591189 64.21563 
L 715.324795 73.826099 
L 720.058402 75.125336 
L 724.792008 85.459782 
L 729.525615 73.081911 
L 734.259221 79.124057 
L 738.992828 77.422234 
L 743.726434 74.411978 
L 748.460041 71.242428 
L 753.193648 62.792197 
L 757.927254 73.406373 
L 762.660861 45.233594 
L 767.394467 53.324147 
L 772.128074 75.950796 
L 776.86168 93.949651 
L 781.595287 62.926739 
L 786.328893 71.862633 
L 791.0625 41.733957 
L 795.796107 62.674223 
L 800.529713 50.572922 
L 805.26332 71.76111 
L 809.996926 55.112594 
L 814.730533 65.558428 
L 819.464139 55.060369 
L 824.197746 73.014624 
L 828.931352 81.354052 
L 833.664959 54.682014 
L 838.398566 67.897373 
L 843.132172 70.725173 
L 847.865779 74.520683 
L 852.599385 57.179857 
L 857.332992 64.590836 
L 862.066598 81.745699 
L 866.800205 51.898437 
L 871.533811 86.435166 
L 876.267418 57.24262 
L 881.001025 60.807163 
L 885.734631 63.641093 
L 890.468238 63.337998 
L 895.201844 70.25775 
L 899.935451 92.727328 
L 904.669057 57.626093 
L 909.402664 54.84828 
L 914.13627 81.205898 
L 918.869877 74.600165 
L 923.603484 62.935821 
L 928.33709 55.052347 
L 933.070697 59.887748 
L 937.804303 50.712515 
L 942.53791 51.358587 
L 947.271516 43.379011 
L 952.005123 56.476039 
L 956.73873 54.360187 
L 961.472336 67.539445 
L 966.205943 79.28901 
L 970.939549 66.03033 
L 975.673156 50.249173 
L 980.406762 68.269861 
L 985.140369 56.475972 
L 989.873975 68.977355 
L 994.607582 49.672414 
L 999.341189 55.548439 
L 1004.074795 78.473351 
L 1008.808402 83.753247 
L 1013.542008 61.332264 
L 1018.275615 83.495449 
L 1023.009221 85.171925 
L 1027.742828 74.445826 
L 1032.476434 55.177161 
L 1037.210041 72.06339 
L 1041.943648 63.578765 
L 1046.677254 58.769526 
L 1051.410861 70.990653 
L 1056.144467 74.407237 
L 1060.878074 61.585185 
L 1065.61168 61.512635 
L 1070.345287 94.093376 
L 1075.078893 52.722984 
L 1079.8125 48.880764 
L 1084.546107 58.449911 
L 1089.279713 72.674943 
L 1094.01332 67.649784 
L 1098.746926 68.982497 
L 1103.480533 79.189615 
L 1108.214139 74.925496 
L 1112.947746 65.259363 
L 1117.681352 68.309004 
L 1122.414959 54.94858 
L 1127.148566 55.405096 
L 1131.882172 77.665652 
L 1136.615779 58.404129 
L 1141.349385 51.899908 
L 1146.082992 80.70078 
L 1150.816598 52.039109 
L 1155.550205 56.296423 
L 1160.283811 83.897312 
L 1165.017418 50.752295 
L 1169.751025 53.06002 
L 1174.484631 85.905201 
L 1179.218238 79.53754 
L 1183.951844 73.982247 
L 1188.685451 60.267849 
L 1193.419057 47.971932 
L 1198.152664 61.057323 
L 1202.88627 70.344559 
L 1207.619877 68.860946 
L 1212.353484 58.252287 
L 1217.08709 75.800437 
L 1221.820697 47.088488 
L 1226.554303 75.074042 
L 1231.28791 68.657694 
L 1236.021516 57.481643 
L 1240.755123 55.984912 
L 1245.48873 81.966272 
L 1250.222336 79.136689 
L 1254.955943 75.592496 
L 1259.689549 102.232434 
L 1264.423156 62.028197 
L 1269.156762 80.678824 
L 1273.890369 50.866823 
L 1278.623975 59.22794 
L 1283.357582 63.536916 
L 1288.091189 57.862347 
L 1292.824795 37.000497 
L 1297.558402 40.824659 
L 1302.292008 60.135608 
L 1307.025615 87.065996 
L 1311.759221 78.15189 
L 1316.492828 72.457391 
L 1321.226434 45.71726 
L 1325.960041 62.568421 
L 1330.693648 76.167513 
L 1335.427254 54.208163 
L 1340.160861 81.401366 
L 1344.894467 62.701893 
L 1349.628074 52.209664 
L 1354.36168 56.783988 
L 1359.095287 64.410652 
L 1363.828893 53.89169 
L 1363.828893 53.89169 
" style="fill:none;stroke:#d62728;stroke-linecap:square;stroke-width:1.5;"/>
   </g>
   <g id="patch_13">
    <path d="M 95.175 496.2 
L 95.175 10.8 
" style="fill:none;stroke:#000000;stroke-linecap:square;stroke-linejoin:miter;stroke-width:0.8;"/>
   </g>
   <g id="patch_14">
    <path d="M 1429.2 496.2 
L 1429.2 10.8 
" style="fill:none;stroke:#000000;stroke-linecap:square;stroke-linejoin:miter;stroke-width:0.8;"/>
   </g>
   <g id="patch_15">
    <path d="M 95.175 496.2 
L 1429.2 496.2 
" style="fill:none;stroke:#000000;stroke-linecap:square;stroke-linejoin:miter;stroke-width:0.8;"/>
   </g>
   <g id="patch_16">
    <path d="M 95.175 10.8 
L 1429.2 10.8 
" style="fill:none;stroke:#000000;stroke-linecap:square;stroke-linejoin:miter;stroke-width:0.8;"/>
   </g>
  </g>
 </g>
 <defs>
  <clipPath id="p5b761518f1">
   <rect height="485.4" width="1334.025" x="95.175" y="10.8"/>
  </clipPath>
 </defs>
</svg>
