<?xml version="1.0" encoding="utf-8" standalone="no"?>
<!DOCTYPE svg PUBLIC "-//W3C//DTD SVG 1.1//EN"
  "http://www.w3.org/Graphics/SVG/1.1/DTD/svg11.dtd">
<!-- Created with matplotlib (https://matplotlib.org/) -->
<svg height="576pt" version="1.1" viewBox="0 0 1440 576" width="1440pt" xmlns="http://www.w3.org/2000/svg" xmlns:xlink="http://www.w3.org/1999/xlink">
 <defs>
  <style type="text/css">
*{stroke-linecap:butt;stroke-linejoin:round;white-space:pre;}
  </style>
 </defs>
 <g id="figure_1">
  <g id="patch_1">
   <path d="M 0 576 
L 1440 576 
L 1440 0 
L 0 0 
z
" style="fill:#ffffff;"/>
  </g>
  <g id="axes_1">
   <g id="patch_2">
    <path d="M 123.8 496.2 
L 1429.2 496.2 
L 1429.2 10.8 
L 123.8 10.8 
z
" style="fill:#ffffff;"/>
   </g>
   <g id="patch_3">
    <path clip-path="url(#p926025dd84)" d="M 183.136364 496.2 
L 183.136364 10.8 
L 184.062771 10.8 
L 184.062771 496.2 
z
" style="fill:#0000ff;"/>
   </g>
   <g id="patch_4">
    <path clip-path="url(#p926025dd84)" d="M 187.768398 496.2 
L 187.768398 10.8 
L 188.694805 10.8 
L 188.694805 496.2 
z
" style="fill:#0000ff;"/>
   </g>
   <g id="patch_5">
    <path clip-path="url(#p926025dd84)" d="M 224.824675 496.2 
L 224.824675 10.8 
L 225.751082 10.8 
L 225.751082 496.2 
z
" style="fill:#0000ff;"/>
   </g>
   <g id="patch_6">
    <path clip-path="url(#p926025dd84)" d="M 354.521645 496.2 
L 354.521645 10.8 
L 355.448052 10.8 
L 355.448052 496.2 
z
" style="fill:#0000ff;"/>
   </g>
   <g id="patch_7">
    <path clip-path="url(#p926025dd84)" d="M 613.915584 496.2 
L 613.915584 10.8 
L 614.841991 10.8 
L 614.841991 496.2 
z
" style="fill:#0000ff;"/>
   </g>
   <g id="patch_8">
    <path clip-path="url(#p926025dd84)" d="M 938.158009 496.2 
L 938.158009 10.8 
L 939.084416 10.8 
L 939.084416 496.2 
z
" style="fill:#0000ff;"/>
   </g>
   <g id="patch_9">
    <path clip-path="url(#p926025dd84)" d="M 1197.551948 496.2 
L 1197.551948 10.8 
L 1198.478355 10.8 
L 1198.478355 496.2 
z
" style="fill:#0000ff;"/>
   </g>
   <g id="patch_10">
    <path clip-path="url(#p926025dd84)" d="M 1327.248918 496.2 
L 1327.248918 10.8 
L 1328.175325 10.8 
L 1328.175325 496.2 
z
" style="fill:#0000ff;"/>
   </g>
   <g id="patch_11">
    <path clip-path="url(#p926025dd84)" d="M 1364.305195 496.2 
L 1364.305195 10.8 
L 1365.231602 10.8 
L 1365.231602 496.2 
z
" style="fill:#0000ff;"/>
   </g>
   <g id="patch_12">
    <path clip-path="url(#p926025dd84)" d="M 1368.937229 496.2 
L 1368.937229 10.8 
L 1369.863636 10.8 
L 1369.863636 496.2 
z
" style="fill:#0000ff;"/>
   </g>
   <g id="matplotlib.axis_1">
    <g id="xtick_1">
     <g id="line2d_1">
      <defs>
       <path d="M 0 0 
L 0 3.5 
" id="m8e0748cc3b" style="stroke:#000000;stroke-width:0.8;"/>
      </defs>
      <g>
       <use style="stroke:#000000;stroke-width:0.8;" x="184.062771" xlink:href="#m8e0748cc3b" y="496.2"/>
      </g>
     </g>
     <g id="text_1">
      <!-- 0 -->
      <defs>
       <path d="M 31.78125 66.40625 
Q 24.171875 66.40625 20.328125 58.90625 
Q 16.5 51.421875 16.5 36.375 
Q 16.5 21.390625 20.328125 13.890625 
Q 24.171875 6.390625 31.78125 6.390625 
Q 39.453125 6.390625 43.28125 13.890625 
Q 47.125 21.390625 47.125 36.375 
Q 47.125 51.421875 43.28125 58.90625 
Q 39.453125 66.40625 31.78125 66.40625 
z
M 31.78125 74.21875 
Q 44.046875 74.21875 50.515625 64.515625 
Q 56.984375 54.828125 56.984375 36.375 
Q 56.984375 17.96875 50.515625 8.265625 
Q 44.046875 -1.421875 31.78125 -1.421875 
Q 19.53125 -1.421875 13.0625 8.265625 
Q 6.59375 17.96875 6.59375 36.375 
Q 6.59375 54.828125 13.0625 64.515625 
Q 19.53125 74.21875 31.78125 74.21875 
z
" id="DejaVuSans-48"/>
      </defs>
      <g transform="translate(174.519021 525.995312)scale(0.3 -0.3)">
       <use xlink:href="#DejaVuSans-48"/>
      </g>
     </g>
    </g>
    <g id="xtick_2">
     <g id="line2d_2">
      <g>
       <use style="stroke:#000000;stroke-width:0.8;" x="415.664502" xlink:href="#m8e0748cc3b" y="496.2"/>
      </g>
     </g>
     <g id="text_2">
      <!-- 50 -->
      <defs>
       <path d="M 10.796875 72.90625 
L 49.515625 72.90625 
L 49.515625 64.59375 
L 19.828125 64.59375 
L 19.828125 46.734375 
Q 21.96875 47.46875 24.109375 47.828125 
Q 26.265625 48.1875 28.421875 48.1875 
Q 40.625 48.1875 47.75 41.5 
Q 54.890625 34.8125 54.890625 23.390625 
Q 54.890625 11.625 47.5625 5.09375 
Q 40.234375 -1.421875 26.90625 -1.421875 
Q 22.3125 -1.421875 17.546875 -0.640625 
Q 12.796875 0.140625 7.71875 1.703125 
L 7.71875 11.625 
Q 12.109375 9.234375 16.796875 8.0625 
Q 21.484375 6.890625 26.703125 6.890625 
Q 35.15625 6.890625 40.078125 11.328125 
Q 45.015625 15.765625 45.015625 23.390625 
Q 45.015625 31 40.078125 35.4375 
Q 35.15625 39.890625 26.703125 39.890625 
Q 22.75 39.890625 18.8125 39.015625 
Q 14.890625 38.140625 10.796875 36.28125 
z
" id="DejaVuSans-53"/>
      </defs>
      <g transform="translate(396.577002 525.995312)scale(0.3 -0.3)">
       <use xlink:href="#DejaVuSans-53"/>
       <use x="63.623047" xlink:href="#DejaVuSans-48"/>
      </g>
     </g>
    </g>
    <g id="xtick_3">
     <g id="line2d_3">
      <g>
       <use style="stroke:#000000;stroke-width:0.8;" x="647.266234" xlink:href="#m8e0748cc3b" y="496.2"/>
      </g>
     </g>
     <g id="text_3">
      <!-- 100 -->
      <defs>
       <path d="M 12.40625 8.296875 
L 28.515625 8.296875 
L 28.515625 63.921875 
L 10.984375 60.40625 
L 10.984375 69.390625 
L 28.421875 72.90625 
L 38.28125 72.90625 
L 38.28125 8.296875 
L 54.390625 8.296875 
L 54.390625 0 
L 12.40625 0 
z
" id="DejaVuSans-49"/>
      </defs>
      <g transform="translate(618.634984 525.995312)scale(0.3 -0.3)">
       <use xlink:href="#DejaVuSans-49"/>
       <use x="63.623047" xlink:href="#DejaVuSans-48"/>
       <use x="127.246094" xlink:href="#DejaVuSans-48"/>
      </g>
     </g>
    </g>
    <g id="xtick_4">
     <g id="line2d_4">
      <g>
       <use style="stroke:#000000;stroke-width:0.8;" x="878.867965" xlink:href="#m8e0748cc3b" y="496.2"/>
      </g>
     </g>
     <g id="text_4">
      <!-- 150 -->
      <g transform="translate(850.236715 525.995312)scale(0.3 -0.3)">
       <use xlink:href="#DejaVuSans-49"/>
       <use x="63.623047" xlink:href="#DejaVuSans-53"/>
       <use x="127.246094" xlink:href="#DejaVuSans-48"/>
      </g>
     </g>
    </g>
    <g id="xtick_5">
     <g id="line2d_5">
      <g>
       <use style="stroke:#000000;stroke-width:0.8;" x="1110.469697" xlink:href="#m8e0748cc3b" y="496.2"/>
      </g>
     </g>
     <g id="text_5">
      <!-- 200 -->
      <defs>
       <path d="M 19.1875 8.296875 
L 53.609375 8.296875 
L 53.609375 0 
L 7.328125 0 
L 7.328125 8.296875 
Q 12.9375 14.109375 22.625 23.890625 
Q 32.328125 33.6875 34.8125 36.53125 
Q 39.546875 41.84375 41.421875 45.53125 
Q 43.3125 49.21875 43.3125 52.78125 
Q 43.3125 58.59375 39.234375 62.25 
Q 35.15625 65.921875 28.609375 65.921875 
Q 23.96875 65.921875 18.8125 64.3125 
Q 13.671875 62.703125 7.8125 59.421875 
L 7.8125 69.390625 
Q 13.765625 71.78125 18.9375 73 
Q 24.125 74.21875 28.421875 74.21875 
Q 39.75 74.21875 46.484375 68.546875 
Q 53.21875 62.890625 53.21875 53.421875 
Q 53.21875 48.921875 51.53125 44.890625 
Q 49.859375 40.875 45.40625 35.40625 
Q 44.1875 33.984375 37.640625 27.21875 
Q 31.109375 20.453125 19.1875 8.296875 
z
" id="DejaVuSans-50"/>
      </defs>
      <g transform="translate(1081.838447 525.995312)scale(0.3 -0.3)">
       <use xlink:href="#DejaVuSans-50"/>
       <use x="63.623047" xlink:href="#DejaVuSans-48"/>
       <use x="127.246094" xlink:href="#DejaVuSans-48"/>
      </g>
     </g>
    </g>
    <g id="xtick_6">
     <g id="line2d_6">
      <g>
       <use style="stroke:#000000;stroke-width:0.8;" x="1342.071429" xlink:href="#m8e0748cc3b" y="496.2"/>
      </g>
     </g>
     <g id="text_6">
      <!-- 250 -->
      <g transform="translate(1313.440179 525.995312)scale(0.3 -0.3)">
       <use xlink:href="#DejaVuSans-50"/>
       <use x="63.623047" xlink:href="#DejaVuSans-53"/>
       <use x="127.246094" xlink:href="#DejaVuSans-48"/>
      </g>
     </g>
    </g>
    <g id="text_7">
     <!-- Bit Interaction -->
     <defs>
      <path d="M 19.671875 34.8125 
L 19.671875 8.109375 
L 35.5 8.109375 
Q 43.453125 8.109375 47.28125 11.40625 
Q 51.125 14.703125 51.125 21.484375 
Q 51.125 28.328125 47.28125 31.5625 
Q 43.453125 34.8125 35.5 34.8125 
z
M 19.671875 64.796875 
L 19.671875 42.828125 
L 34.28125 42.828125 
Q 41.5 42.828125 45.03125 45.53125 
Q 48.578125 48.25 48.578125 53.8125 
Q 48.578125 59.328125 45.03125 62.0625 
Q 41.5 64.796875 34.28125 64.796875 
z
M 9.8125 72.90625 
L 35.015625 72.90625 
Q 46.296875 72.90625 52.390625 68.21875 
Q 58.5 63.53125 58.5 54.890625 
Q 58.5 48.1875 55.375 44.234375 
Q 52.25 40.28125 46.1875 39.3125 
Q 53.46875 37.75 57.5 32.78125 
Q 61.53125 27.828125 61.53125 20.40625 
Q 61.53125 10.640625 54.890625 5.3125 
Q 48.25 0 35.984375 0 
L 9.8125 0 
z
" id="DejaVuSans-66"/>
      <path d="M 9.421875 54.6875 
L 18.40625 54.6875 
L 18.40625 0 
L 9.421875 0 
z
M 9.421875 75.984375 
L 18.40625 75.984375 
L 18.40625 64.59375 
L 9.421875 64.59375 
z
" id="DejaVuSans-105"/>
      <path d="M 18.3125 70.21875 
L 18.3125 54.6875 
L 36.8125 54.6875 
L 36.8125 47.703125 
L 18.3125 47.703125 
L 18.3125 18.015625 
Q 18.3125 11.328125 20.140625 9.421875 
Q 21.96875 7.515625 27.59375 7.515625 
L 36.8125 7.515625 
L 36.8125 0 
L 27.59375 0 
Q 17.1875 0 13.234375 3.875 
Q 9.28125 7.765625 9.28125 18.015625 
L 9.28125 47.703125 
L 2.6875 47.703125 
L 2.6875 54.6875 
L 9.28125 54.6875 
L 9.28125 70.21875 
z
" id="DejaVuSans-116"/>
      <path id="DejaVuSans-32"/>
      <path d="M 9.8125 72.90625 
L 19.671875 72.90625 
L 19.671875 0 
L 9.8125 0 
z
" id="DejaVuSans-73"/>
      <path d="M 54.890625 33.015625 
L 54.890625 0 
L 45.90625 0 
L 45.90625 32.71875 
Q 45.90625 40.484375 42.875 44.328125 
Q 39.84375 48.1875 33.796875 48.1875 
Q 26.515625 48.1875 22.3125 43.546875 
Q 18.109375 38.921875 18.109375 30.90625 
L 18.109375 0 
L 9.078125 0 
L 9.078125 54.6875 
L 18.109375 54.6875 
L 18.109375 46.1875 
Q 21.34375 51.125 25.703125 53.5625 
Q 30.078125 56 35.796875 56 
Q 45.21875 56 50.046875 50.171875 
Q 54.890625 44.34375 54.890625 33.015625 
z
" id="DejaVuSans-110"/>
      <path d="M 56.203125 29.59375 
L 56.203125 25.203125 
L 14.890625 25.203125 
Q 15.484375 15.921875 20.484375 11.0625 
Q 25.484375 6.203125 34.421875 6.203125 
Q 39.59375 6.203125 44.453125 7.46875 
Q 49.3125 8.734375 54.109375 11.28125 
L 54.109375 2.78125 
Q 49.265625 0.734375 44.1875 -0.34375 
Q 39.109375 -1.421875 33.890625 -1.421875 
Q 20.796875 -1.421875 13.15625 6.1875 
Q 5.515625 13.8125 5.515625 26.8125 
Q 5.515625 40.234375 12.765625 48.109375 
Q 20.015625 56 32.328125 56 
Q 43.359375 56 49.78125 48.890625 
Q 56.203125 41.796875 56.203125 29.59375 
z
M 47.21875 32.234375 
Q 47.125 39.59375 43.09375 43.984375 
Q 39.0625 48.390625 32.421875 48.390625 
Q 24.90625 48.390625 20.390625 44.140625 
Q 15.875 39.890625 15.1875 32.171875 
z
" id="DejaVuSans-101"/>
      <path d="M 41.109375 46.296875 
Q 39.59375 47.171875 37.8125 47.578125 
Q 36.03125 48 33.890625 48 
Q 26.265625 48 22.1875 43.046875 
Q 18.109375 38.09375 18.109375 28.8125 
L 18.109375 0 
L 9.078125 0 
L 9.078125 54.6875 
L 18.109375 54.6875 
L 18.109375 46.1875 
Q 20.953125 51.171875 25.484375 53.578125 
Q 30.03125 56 36.53125 56 
Q 37.453125 56 38.578125 55.875 
Q 39.703125 55.765625 41.0625 55.515625 
z
" id="DejaVuSans-114"/>
      <path d="M 34.28125 27.484375 
Q 23.390625 27.484375 19.1875 25 
Q 14.984375 22.515625 14.984375 16.5 
Q 14.984375 11.71875 18.140625 8.90625 
Q 21.296875 6.109375 26.703125 6.109375 
Q 34.1875 6.109375 38.703125 11.40625 
Q 43.21875 16.703125 43.21875 25.484375 
L 43.21875 27.484375 
z
M 52.203125 31.203125 
L 52.203125 0 
L 43.21875 0 
L 43.21875 8.296875 
Q 40.140625 3.328125 35.546875 0.953125 
Q 30.953125 -1.421875 24.3125 -1.421875 
Q 15.921875 -1.421875 10.953125 3.296875 
Q 6 8.015625 6 15.921875 
Q 6 25.140625 12.171875 29.828125 
Q 18.359375 34.515625 30.609375 34.515625 
L 43.21875 34.515625 
L 43.21875 35.40625 
Q 43.21875 41.609375 39.140625 45 
Q 35.0625 48.390625 27.6875 48.390625 
Q 23 48.390625 18.546875 47.265625 
Q 14.109375 46.140625 10.015625 43.890625 
L 10.015625 52.203125 
Q 14.9375 54.109375 19.578125 55.046875 
Q 24.21875 56 28.609375 56 
Q 40.484375 56 46.34375 49.84375 
Q 52.203125 43.703125 52.203125 31.203125 
z
" id="DejaVuSans-97"/>
      <path d="M 48.78125 52.59375 
L 48.78125 44.1875 
Q 44.96875 46.296875 41.140625 47.34375 
Q 37.3125 48.390625 33.40625 48.390625 
Q 24.65625 48.390625 19.8125 42.84375 
Q 14.984375 37.3125 14.984375 27.296875 
Q 14.984375 17.28125 19.8125 11.734375 
Q 24.65625 6.203125 33.40625 6.203125 
Q 37.3125 6.203125 41.140625 7.25 
Q 44.96875 8.296875 48.78125 10.40625 
L 48.78125 2.09375 
Q 45.015625 0.34375 40.984375 -0.53125 
Q 36.96875 -1.421875 32.421875 -1.421875 
Q 20.0625 -1.421875 12.78125 6.34375 
Q 5.515625 14.109375 5.515625 27.296875 
Q 5.515625 40.671875 12.859375 48.328125 
Q 20.21875 56 33.015625 56 
Q 37.15625 56 41.109375 55.140625 
Q 45.0625 54.296875 48.78125 52.59375 
z
" id="DejaVuSans-99"/>
      <path d="M 30.609375 48.390625 
Q 23.390625 48.390625 19.1875 42.75 
Q 14.984375 37.109375 14.984375 27.296875 
Q 14.984375 17.484375 19.15625 11.84375 
Q 23.34375 6.203125 30.609375 6.203125 
Q 37.796875 6.203125 41.984375 11.859375 
Q 46.1875 17.53125 46.1875 27.296875 
Q 46.1875 37.015625 41.984375 42.703125 
Q 37.796875 48.390625 30.609375 48.390625 
z
M 30.609375 56 
Q 42.328125 56 49.015625 48.375 
Q 55.71875 40.765625 55.71875 27.296875 
Q 55.71875 13.875 49.015625 6.21875 
Q 42.328125 -1.421875 30.609375 -1.421875 
Q 18.84375 -1.421875 12.171875 6.21875 
Q 5.515625 13.875 5.515625 27.296875 
Q 5.515625 40.765625 12.171875 48.375 
Q 18.84375 56 30.609375 56 
z
" id="DejaVuSans-111"/>
     </defs>
     <g transform="translate(670.014063 559.029688)scale(0.3 -0.3)">
      <use xlink:href="#DejaVuSans-66"/>
      <use x="68.603516" xlink:href="#DejaVuSans-105"/>
      <use x="96.386719" xlink:href="#DejaVuSans-116"/>
      <use x="135.595703" xlink:href="#DejaVuSans-32"/>
      <use x="167.382812" xlink:href="#DejaVuSans-73"/>
      <use x="196.875" xlink:href="#DejaVuSans-110"/>
      <use x="260.253906" xlink:href="#DejaVuSans-116"/>
      <use x="299.462891" xlink:href="#DejaVuSans-101"/>
      <use x="360.986328" xlink:href="#DejaVuSans-114"/>
      <use x="402.099609" xlink:href="#DejaVuSans-97"/>
      <use x="463.378906" xlink:href="#DejaVuSans-99"/>
      <use x="518.359375" xlink:href="#DejaVuSans-116"/>
      <use x="557.568359" xlink:href="#DejaVuSans-105"/>
      <use x="585.351562" xlink:href="#DejaVuSans-111"/>
      <use x="646.533203" xlink:href="#DejaVuSans-110"/>
     </g>
    </g>
   </g>
   <g id="matplotlib.axis_2">
    <g id="ytick_1">
     <g id="line2d_7">
      <defs>
       <path d="M 0 0 
L -3.5 0 
" id="med808f0e6e" style="stroke:#000000;stroke-width:0.8;"/>
      </defs>
      <g>
       <use style="stroke:#000000;stroke-width:0.8;" x="123.8" xlink:href="#med808f0e6e" y="479.109988"/>
      </g>
     </g>
     <g id="text_8">
      <!-- −0.8 -->
      <defs>
       <path d="M 10.59375 35.5 
L 73.1875 35.5 
L 73.1875 27.203125 
L 10.59375 27.203125 
z
" id="DejaVuSans-8722"/>
       <path d="M 10.6875 12.40625 
L 21 12.40625 
L 21 0 
L 10.6875 0 
z
" id="DejaVuSans-46"/>
       <path d="M 31.78125 34.625 
Q 24.75 34.625 20.71875 30.859375 
Q 16.703125 27.09375 16.703125 20.515625 
Q 16.703125 13.921875 20.71875 10.15625 
Q 24.75 6.390625 31.78125 6.390625 
Q 38.8125 6.390625 42.859375 10.171875 
Q 46.921875 13.96875 46.921875 20.515625 
Q 46.921875 27.09375 42.890625 30.859375 
Q 38.875 34.625 31.78125 34.625 
z
M 21.921875 38.8125 
Q 15.578125 40.375 12.03125 44.71875 
Q 8.5 49.078125 8.5 55.328125 
Q 8.5 64.0625 14.71875 69.140625 
Q 20.953125 74.21875 31.78125 74.21875 
Q 42.671875 74.21875 48.875 69.140625 
Q 55.078125 64.0625 55.078125 55.328125 
Q 55.078125 49.078125 51.53125 44.71875 
Q 48 40.375 41.703125 38.8125 
Q 48.828125 37.15625 52.796875 32.3125 
Q 56.78125 27.484375 56.78125 20.515625 
Q 56.78125 9.90625 50.3125 4.234375 
Q 43.84375 -1.421875 31.78125 -1.421875 
Q 19.734375 -1.421875 13.25 4.234375 
Q 6.78125 9.90625 6.78125 20.515625 
Q 6.78125 27.484375 10.78125 32.3125 
Q 14.796875 37.15625 21.921875 38.8125 
z
M 18.3125 54.390625 
Q 18.3125 48.734375 21.84375 45.5625 
Q 25.390625 42.390625 31.78125 42.390625 
Q 38.140625 42.390625 41.71875 45.5625 
Q 45.3125 48.734375 45.3125 54.390625 
Q 45.3125 60.0625 41.71875 63.234375 
Q 38.140625 66.40625 31.78125 66.40625 
Q 25.390625 66.40625 21.84375 63.234375 
Q 18.3125 60.0625 18.3125 54.390625 
z
" id="DejaVuSans-56"/>
      </defs>
      <g transform="translate(43.951563 490.507644)scale(0.3 -0.3)">
       <use xlink:href="#DejaVuSans-8722"/>
       <use x="83.789062" xlink:href="#DejaVuSans-48"/>
       <use x="147.412109" xlink:href="#DejaVuSans-46"/>
       <use x="179.199219" xlink:href="#DejaVuSans-56"/>
      </g>
     </g>
    </g>
    <g id="ytick_2">
     <g id="line2d_8">
      <g>
       <use style="stroke:#000000;stroke-width:0.8;" x="123.8" xlink:href="#med808f0e6e" y="419.395649"/>
      </g>
     </g>
     <g id="text_9">
      <!-- −0.6 -->
      <defs>
       <path d="M 33.015625 40.375 
Q 26.375 40.375 22.484375 35.828125 
Q 18.609375 31.296875 18.609375 23.390625 
Q 18.609375 15.53125 22.484375 10.953125 
Q 26.375 6.390625 33.015625 6.390625 
Q 39.65625 6.390625 43.53125 10.953125 
Q 47.40625 15.53125 47.40625 23.390625 
Q 47.40625 31.296875 43.53125 35.828125 
Q 39.65625 40.375 33.015625 40.375 
z
M 52.59375 71.296875 
L 52.59375 62.3125 
Q 48.875 64.0625 45.09375 64.984375 
Q 41.3125 65.921875 37.59375 65.921875 
Q 27.828125 65.921875 22.671875 59.328125 
Q 17.53125 52.734375 16.796875 39.40625 
Q 19.671875 43.65625 24.015625 45.921875 
Q 28.375 48.1875 33.59375 48.1875 
Q 44.578125 48.1875 50.953125 41.515625 
Q 57.328125 34.859375 57.328125 23.390625 
Q 57.328125 12.15625 50.6875 5.359375 
Q 44.046875 -1.421875 33.015625 -1.421875 
Q 20.359375 -1.421875 13.671875 8.265625 
Q 6.984375 17.96875 6.984375 36.375 
Q 6.984375 53.65625 15.1875 63.9375 
Q 23.390625 74.21875 37.203125 74.21875 
Q 40.921875 74.21875 44.703125 73.484375 
Q 48.484375 72.75 52.59375 71.296875 
z
" id="DejaVuSans-54"/>
      </defs>
      <g transform="translate(43.951563 430.793305)scale(0.3 -0.3)">
       <use xlink:href="#DejaVuSans-8722"/>
       <use x="83.789062" xlink:href="#DejaVuSans-48"/>
       <use x="147.412109" xlink:href="#DejaVuSans-46"/>
       <use x="179.199219" xlink:href="#DejaVuSans-54"/>
      </g>
     </g>
    </g>
    <g id="ytick_3">
     <g id="line2d_9">
      <g>
       <use style="stroke:#000000;stroke-width:0.8;" x="123.8" xlink:href="#med808f0e6e" y="359.68131"/>
      </g>
     </g>
     <g id="text_10">
      <!-- −0.4 -->
      <defs>
       <path d="M 37.796875 64.3125 
L 12.890625 25.390625 
L 37.796875 25.390625 
z
M 35.203125 72.90625 
L 47.609375 72.90625 
L 47.609375 25.390625 
L 58.015625 25.390625 
L 58.015625 17.1875 
L 47.609375 17.1875 
L 47.609375 0 
L 37.796875 0 
L 37.796875 17.1875 
L 4.890625 17.1875 
L 4.890625 26.703125 
z
" id="DejaVuSans-52"/>
      </defs>
      <g transform="translate(43.951563 371.078967)scale(0.3 -0.3)">
       <use xlink:href="#DejaVuSans-8722"/>
       <use x="83.789062" xlink:href="#DejaVuSans-48"/>
       <use x="147.412109" xlink:href="#DejaVuSans-46"/>
       <use x="179.199219" xlink:href="#DejaVuSans-52"/>
      </g>
     </g>
    </g>
    <g id="ytick_4">
     <g id="line2d_10">
      <g>
       <use style="stroke:#000000;stroke-width:0.8;" x="123.8" xlink:href="#med808f0e6e" y="299.966972"/>
      </g>
     </g>
     <g id="text_11">
      <!-- −0.2 -->
      <g transform="translate(43.951563 311.364628)scale(0.3 -0.3)">
       <use xlink:href="#DejaVuSans-8722"/>
       <use x="83.789062" xlink:href="#DejaVuSans-48"/>
       <use x="147.412109" xlink:href="#DejaVuSans-46"/>
       <use x="179.199219" xlink:href="#DejaVuSans-50"/>
      </g>
     </g>
    </g>
    <g id="ytick_5">
     <g id="line2d_11">
      <g>
       <use style="stroke:#000000;stroke-width:0.8;" x="123.8" xlink:href="#med808f0e6e" y="240.252633"/>
      </g>
     </g>
     <g id="text_12">
      <!-- 0.0 -->
      <g transform="translate(69.090625 251.65029)scale(0.3 -0.3)">
       <use xlink:href="#DejaVuSans-48"/>
       <use x="63.623047" xlink:href="#DejaVuSans-46"/>
       <use x="95.410156" xlink:href="#DejaVuSans-48"/>
      </g>
     </g>
    </g>
    <g id="ytick_6">
     <g id="line2d_12">
      <g>
       <use style="stroke:#000000;stroke-width:0.8;" x="123.8" xlink:href="#med808f0e6e" y="180.538295"/>
      </g>
     </g>
     <g id="text_13">
      <!-- 0.2 -->
      <g transform="translate(69.090625 191.935951)scale(0.3 -0.3)">
       <use xlink:href="#DejaVuSans-48"/>
       <use x="63.623047" xlink:href="#DejaVuSans-46"/>
       <use x="95.410156" xlink:href="#DejaVuSans-50"/>
      </g>
     </g>
    </g>
    <g id="ytick_7">
     <g id="line2d_13">
      <g>
       <use style="stroke:#000000;stroke-width:0.8;" x="123.8" xlink:href="#med808f0e6e" y="120.823956"/>
      </g>
     </g>
     <g id="text_14">
      <!-- 0.4 -->
      <g transform="translate(69.090625 132.221613)scale(0.3 -0.3)">
       <use xlink:href="#DejaVuSans-48"/>
       <use x="63.623047" xlink:href="#DejaVuSans-46"/>
       <use x="95.410156" xlink:href="#DejaVuSans-52"/>
      </g>
     </g>
    </g>
    <g id="ytick_8">
     <g id="line2d_14">
      <g>
       <use style="stroke:#000000;stroke-width:0.8;" x="123.8" xlink:href="#med808f0e6e" y="61.109618"/>
      </g>
     </g>
     <g id="text_15">
      <!-- 0.6 -->
      <g transform="translate(69.090625 72.507274)scale(0.3 -0.3)">
       <use xlink:href="#DejaVuSans-48"/>
       <use x="63.623047" xlink:href="#DejaVuSans-46"/>
       <use x="95.410156" xlink:href="#DejaVuSans-54"/>
      </g>
     </g>
    </g>
    <g id="text_16">
     <!-- Weight Value -->
     <defs>
      <path d="M 3.328125 72.90625 
L 13.28125 72.90625 
L 28.609375 11.28125 
L 43.890625 72.90625 
L 54.984375 72.90625 
L 70.3125 11.28125 
L 85.59375 72.90625 
L 95.609375 72.90625 
L 77.296875 0 
L 64.890625 0 
L 49.515625 63.28125 
L 33.984375 0 
L 21.578125 0 
z
" id="DejaVuSans-87"/>
      <path d="M 45.40625 27.984375 
Q 45.40625 37.75 41.375 43.109375 
Q 37.359375 48.484375 30.078125 48.484375 
Q 22.859375 48.484375 18.828125 43.109375 
Q 14.796875 37.75 14.796875 27.984375 
Q 14.796875 18.265625 18.828125 12.890625 
Q 22.859375 7.515625 30.078125 7.515625 
Q 37.359375 7.515625 41.375 12.890625 
Q 45.40625 18.265625 45.40625 27.984375 
z
M 54.390625 6.78125 
Q 54.390625 -7.171875 48.1875 -13.984375 
Q 42 -20.796875 29.203125 -20.796875 
Q 24.46875 -20.796875 20.265625 -20.09375 
Q 16.0625 -19.390625 12.109375 -17.921875 
L 12.109375 -9.1875 
Q 16.0625 -11.328125 19.921875 -12.34375 
Q 23.78125 -13.375 27.78125 -13.375 
Q 36.625 -13.375 41.015625 -8.765625 
Q 45.40625 -4.15625 45.40625 5.171875 
L 45.40625 9.625 
Q 42.625 4.78125 38.28125 2.390625 
Q 33.9375 0 27.875 0 
Q 17.828125 0 11.671875 7.65625 
Q 5.515625 15.328125 5.515625 27.984375 
Q 5.515625 40.671875 11.671875 48.328125 
Q 17.828125 56 27.875 56 
Q 33.9375 56 38.28125 53.609375 
Q 42.625 51.21875 45.40625 46.390625 
L 45.40625 54.6875 
L 54.390625 54.6875 
z
" id="DejaVuSans-103"/>
      <path d="M 54.890625 33.015625 
L 54.890625 0 
L 45.90625 0 
L 45.90625 32.71875 
Q 45.90625 40.484375 42.875 44.328125 
Q 39.84375 48.1875 33.796875 48.1875 
Q 26.515625 48.1875 22.3125 43.546875 
Q 18.109375 38.921875 18.109375 30.90625 
L 18.109375 0 
L 9.078125 0 
L 9.078125 75.984375 
L 18.109375 75.984375 
L 18.109375 46.1875 
Q 21.34375 51.125 25.703125 53.5625 
Q 30.078125 56 35.796875 56 
Q 45.21875 56 50.046875 50.171875 
Q 54.890625 44.34375 54.890625 33.015625 
z
" id="DejaVuSans-104"/>
      <path d="M 28.609375 0 
L 0.78125 72.90625 
L 11.078125 72.90625 
L 34.1875 11.53125 
L 57.328125 72.90625 
L 67.578125 72.90625 
L 39.796875 0 
z
" id="DejaVuSans-86"/>
      <path d="M 9.421875 75.984375 
L 18.40625 75.984375 
L 18.40625 0 
L 9.421875 0 
z
" id="DejaVuSans-108"/>
      <path d="M 8.5 21.578125 
L 8.5 54.6875 
L 17.484375 54.6875 
L 17.484375 21.921875 
Q 17.484375 14.15625 20.5 10.265625 
Q 23.53125 6.390625 29.59375 6.390625 
Q 36.859375 6.390625 41.078125 11.03125 
Q 45.3125 15.671875 45.3125 23.6875 
L 45.3125 54.6875 
L 54.296875 54.6875 
L 54.296875 0 
L 45.3125 0 
L 45.3125 8.40625 
Q 42.046875 3.421875 37.71875 1 
Q 33.40625 -1.421875 27.6875 -1.421875 
Q 18.265625 -1.421875 13.375 4.4375 
Q 8.5 10.296875 8.5 21.578125 
z
M 31.109375 56 
z
" id="DejaVuSans-117"/>
     </defs>
     <g transform="translate(33.7125 353.732813)rotate(-90)scale(0.3 -0.3)">
      <use xlink:href="#DejaVuSans-87"/>
      <use x="98.798828" xlink:href="#DejaVuSans-101"/>
      <use x="160.322266" xlink:href="#DejaVuSans-105"/>
      <use x="188.105469" xlink:href="#DejaVuSans-103"/>
      <use x="251.582031" xlink:href="#DejaVuSans-104"/>
      <use x="314.960938" xlink:href="#DejaVuSans-116"/>
      <use x="354.169922" xlink:href="#DejaVuSans-32"/>
      <use x="385.957031" xlink:href="#DejaVuSans-86"/>
      <use x="454.255859" xlink:href="#DejaVuSans-97"/>
      <use x="515.535156" xlink:href="#DejaVuSans-108"/>
      <use x="543.318359" xlink:href="#DejaVuSans-117"/>
      <use x="606.697266" xlink:href="#DejaVuSans-101"/>
     </g>
    </g>
   </g>
   <g id="line2d_15">
    <path clip-path="url(#p926025dd84)" d="M 184.062771 237.093837 
L 188.694805 294.398096 
L 193.32684 246.876368 
L 197.958874 182.274751 
L 202.590909 264.817578 
L 207.222944 234.208291 
L 211.854978 311.350608 
L 216.487013 178.545304 
L 221.119048 258.367279 
L 225.751082 286.493585 
L 230.383117 162.154104 
L 235.015152 289.855805 
L 239.647186 209.605363 
L 244.279221 156.513508 
L 248.911255 297.725187 
L 253.54329 400.687303 
L 258.175325 290.284237 
L 262.807359 295.56166 
L 267.439394 148.610287 
L 272.071429 194.095204 
L 276.703463 253.580151 
L 281.335498 335.088243 
L 285.967532 128.422379 
L 290.599567 274.927782 
L 295.231602 224.006907 
L 299.863636 158.045935 
L 304.495671 258.116925 
L 309.127706 302.382837 
L 313.75974 144.478431 
L 318.391775 156.669635 
L 323.02381 263.651781 
L 327.655844 224.097457 
L 332.287879 354.485845 
L 336.919913 213.829388 
L 341.551948 303.72504 
L 346.183983 203.656872 
L 350.816017 388.913929 
L 355.448052 273.451035 
L 360.080087 166.228913 
L 364.712121 249.795294 
L 369.344156 185.489062 
L 373.97619 314.756145 
L 378.608225 246.98452 
L 383.24026 221.22291 
L 387.872294 151.500195 
L 392.504329 175.334321 
L 397.136364 283.379609 
L 401.768398 161.545997 
L 406.400433 172.154018 
L 411.032468 197.817448 
L 415.664502 296.620275 
L 420.296537 277.344726 
L 424.928571 303.220681 
L 429.560606 394.824912 
L 434.192641 382.423241 
L 438.824675 199.004707 
L 443.45671 133.722159 
L 448.088745 182.048235 
L 452.720779 179.068118 
L 457.352814 331.779847 
L 461.984848 228.882594 
L 466.616883 202.54227 
L 471.248918 83.834544 
L 475.880952 145.156834 
L 480.512987 305.536081 
L 485.145022 168.639078 
L 489.777056 249.117043 
L 494.409091 275.021453 
L 499.041126 273.320624 
L 503.67316 194.244924 
L 508.305195 248.70664 
L 512.937229 104.114085 
L 522.201299 211.776482 
L 526.833333 209.337972 
L 531.465368 185.023183 
L 536.097403 211.093669 
L 540.729437 271.026444 
L 545.361472 166.360832 
L 549.993506 263.701897 
L 554.625541 294.705317 
L 559.257576 411.831836 
L 563.88961 317.140902 
L 568.521645 271.933915 
L 573.15368 225.500299 
L 577.785714 319.07645 
L 582.417749 285.608074 
L 587.049784 207.128635 
L 591.681818 151.908343 
L 596.313853 303.620594 
L 600.945887 200.781864 
L 605.577922 320.568559 
L 610.209957 246.369243 
L 614.841991 281.424018 
L 619.474026 372.728186 
L 624.106061 172.141382 
L 628.738095 406.81459 
L 633.37013 276.287657 
L 638.002165 193.193535 
L 642.634199 234.271729 
L 647.266234 242.581909 
L 651.898268 259.421274 
L 656.530303 301.086104 
L 661.162338 306.433631 
L 665.794372 198.950246 
L 670.426407 242.134516 
L 675.058442 148.290897 
L 679.690476 362.926416 
L 684.322511 204.068675 
L 688.954545 115.028549 
L 693.58658 224.744907 
L 698.218615 194.093251 
L 702.850649 313.348416 
L 707.482684 289.878731 
L 712.114719 271.276762 
L 716.746753 237.727429 
L 721.378788 267.749316 
L 726.010823 252.388339 
L 730.642857 164.847541 
L 735.274892 208.365066 
L 739.906926 160.910252 
L 744.538961 258.437346 
L 749.170996 226.681557 
L 753.80303 273.737348 
L 758.435065 272.567678 
L 763.0671 277.159302 
L 767.699134 243.026157 
L 772.331169 241.096038 
L 776.963203 173.23757 
L 781.595238 243.781907 
L 786.227273 292.432455 
L 790.859307 181.526017 
L 795.491342 114.596358 
L 800.123377 194.228921 
L 804.755411 240.518756 
L 809.387446 209.712301 
L 814.019481 237.579897 
L 818.651515 299.946534 
L 823.28355 184.917913 
L 827.915584 65.781609 
L 832.547619 187.909269 
L 837.179654 248.381435 
L 841.811688 176.869786 
L 846.443723 253.001725 
L 851.075758 212.204222 
L 855.707792 234.30033 
L 860.339827 190.442259 
L 864.971861 326.491404 
L 869.603896 320.180245 
L 874.235931 371.933423 
L 878.867965 235.656124 
L 883.5 232.432618 
L 888.132035 215.84313 
L 892.764069 156.59756 
L 897.396104 220.420573 
L 902.028139 168.800517 
L 906.660173 222.710434 
L 911.292208 135.827367 
L 915.924242 233.611066 
L 920.556277 174.030478 
L 925.188312 206.624937 
L 929.820346 231.738883 
L 934.452381 191.658469 
L 939.084416 358.057528 
L 943.71645 261.089449 
L 948.348485 194.559331 
L 952.980519 305.24763 
L 957.612554 181.248391 
L 962.244589 277.000546 
L 966.876623 217.283971 
L 971.508658 325.20121 
L 976.140693 267.192057 
L 980.772727 144.021868 
L 985.404762 332.196475 
L 990.036797 115.82333 
L 994.668831 251.61704 
L 999.300866 181.124819 
L 1003.9329 277.352703 
L 1008.564935 194.292302 
L 1013.19697 252.891789 
L 1017.829004 294.59297 
L 1022.461039 255.758656 
L 1027.093074 283.257486 
L 1031.725108 225.45983 
L 1036.357143 149.33164 
L 1040.989177 260.196154 
L 1045.621212 220.756793 
L 1050.253247 324.353681 
L 1054.885281 119.191886 
L 1059.517316 137.244474 
L 1064.149351 343.277067 
L 1068.781385 344.444092 
L 1073.41342 166.527032 
L 1078.045455 234.1732 
L 1082.677489 356.686228 
L 1087.309524 168.435783 
L 1091.941558 127.879219 
L 1096.573593 277.243678 
L 1101.205628 264.932517 
L 1105.837662 253.741615 
L 1110.469697 151.326877 
L 1115.101732 231.696548 
L 1119.733766 164.041086 
L 1124.365801 268.57494 
L 1128.997835 269.251772 
L 1133.62987 270.569959 
L 1138.261905 222.419182 
L 1142.893939 201.593396 
L 1147.525974 279.49626 
L 1152.158009 172.291325 
L 1156.790043 141.00187 
L 1161.422078 107.202884 
L 1166.054113 294.407497 
L 1170.686147 185.126708 
L 1175.318182 253.640116 
L 1179.950216 293.282346 
L 1184.582251 334.409671 
L 1189.214286 144.216097 
L 1193.84632 295.16689 
L 1198.478355 241.677788 
L 1203.11039 367.86357 
L 1207.742424 373.531865 
L 1212.374459 281.937853 
L 1217.006494 261.473076 
L 1221.638528 291.068723 
L 1226.270563 369.970238 
L 1230.902597 164.511111 
L 1235.534632 289.880244 
L 1240.166667 231.105011 
L 1244.798701 181.610358 
L 1249.430736 298.357702 
L 1254.062771 351.938133 
L 1258.694805 261.950116 
L 1263.32684 139.325355 
L 1267.958874 297.179202 
L 1272.590909 158.270773 
L 1277.222944 235.809332 
L 1281.854978 183.723179 
L 1286.487013 311.305201 
L 1291.119048 217.985666 
L 1295.751082 268.468134 
L 1300.383117 255.198584 
L 1305.015152 284.660045 
L 1309.647186 294.069034 
L 1314.279221 362.947593 
L 1318.911255 40.638858 
L 1323.54329 209.02395 
L 1328.175325 231.247273 
L 1332.807359 292.741923 
L 1337.439394 148.452434 
L 1342.071429 320.493406 
L 1346.703463 119.966282 
L 1351.335498 204.921474 
L 1355.967532 264.288731 
L 1360.599567 357.905432 
L 1365.231602 208.190716 
L 1365.231602 208.190716 
" style="fill:none;stroke:#1f77b4;stroke-linecap:square;stroke-width:1.5;"/>
   </g>
   <g id="line2d_16">
    <path clip-path="url(#p926025dd84)" d="M 184.062771 274.74978 
L 188.694805 147.930924 
L 193.32684 253.728601 
L 197.958874 131.330083 
L 202.590909 399.49538 
L 207.222944 295.430955 
L 211.854978 260.329562 
L 216.487013 474.136364 
L 221.119048 310.384716 
L 225.751082 415.456329 
L 230.383117 185.086924 
L 235.015152 162.696872 
L 239.647186 217.364621 
L 244.279221 318.423265 
L 248.911255 270.59343 
L 253.54329 207.462415 
L 258.175325 174.838868 
L 262.807359 248.540219 
L 267.439394 205.357859 
L 272.071429 195.569059 
L 276.703463 174.400569 
L 281.335498 176.889104 
L 285.967532 224.335346 
L 290.599567 219.282911 
L 295.231602 253.424767 
L 299.863636 168.61767 
L 304.495671 224.040512 
L 309.127706 191.731069 
L 313.75974 199.275291 
L 318.391775 193.664619 
L 323.02381 147.011329 
L 327.655844 138.311031 
L 332.287879 240.569378 
L 336.919913 254.466372 
L 341.551948 271.827133 
L 346.183983 256.789077 
L 350.816017 238.415126 
L 355.448052 196.683999 
L 360.080087 232.664264 
L 364.712121 201.114125 
L 369.344156 335.597652 
L 373.97619 339.386814 
L 378.608225 261.35734 
L 383.24026 301.434733 
L 387.872294 269.796395 
L 392.504329 250.947733 
L 397.136364 263.013333 
L 401.768398 32.863636 
L 406.400433 193.717959 
L 411.032468 290.970959 
L 415.664502 163.487337 
L 420.296537 209.989135 
L 424.928571 296.0067 
L 429.560606 265.114887 
L 434.192641 232.628429 
L 438.824675 243.710734 
L 443.45671 291.911416 
L 448.088745 159.878674 
L 452.720779 116.227029 
L 457.352814 230.962082 
L 461.984848 328.017735 
L 466.616883 210.446759 
L 471.248918 124.647988 
L 475.880952 261.846886 
L 480.512987 266.442775 
L 485.145022 95.14655 
L 489.777056 244.201679 
L 494.409091 244.554296 
L 499.041126 319.99406 
L 503.67316 372.828557 
L 508.305195 258.749071 
L 512.937229 279.693411 
L 517.569264 367.102379 
L 522.201299 277.516798 
L 526.833333 234.975398 
L 531.465368 243.892126 
L 536.097403 239.746108 
L 540.729437 187.103957 
L 545.361472 200.351137 
L 549.993506 100.141284 
L 554.625541 152.154545 
L 559.257576 273.495201 
L 563.88961 153.699777 
L 568.521645 270.716273 
L 573.15368 307.268369 
L 577.785714 156.944729 
L 582.417749 157.335686 
L 587.049784 232.829099 
L 591.681818 135.049288 
L 596.313853 282.111527 
L 600.945887 238.755498 
L 605.577922 122.763747 
L 610.209957 341.378357 
L 614.841991 242.893103 
L 619.474026 200.413388 
L 624.106061 304.793937 
L 628.738095 380.884728 
L 633.37013 217.069884 
L 638.002165 201.187339 
L 642.634199 289.201655 
L 647.266234 176.005845 
L 651.898268 350.385276 
L 656.530303 140.326982 
L 661.162338 281.015286 
L 665.794372 272.145973 
L 670.426407 298.252125 
L 675.058442 215.839311 
L 679.690476 249.067561 
L 684.322511 284.541918 
L 688.954545 155.366628 
L 693.58658 60.726457 
L 698.218615 284.903387 
L 702.850649 300.540035 
L 707.482684 230.952993 
L 712.114719 239.523525 
L 716.746753 265.17115 
L 721.378788 197.964178 
L 726.010823 219.163518 
L 730.642857 153.506581 
L 735.274892 185.033028 
L 739.906926 295.995021 
L 744.538961 184.194068 
L 749.170996 197.924621 
L 753.80303 154.941965 
L 758.435065 362.863364 
L 763.0671 221.112956 
L 767.699134 267.076887 
L 772.331169 275.262681 
L 776.963203 211.918158 
L 781.595238 285.985942 
L 786.227273 215.375447 
L 790.859307 272.713923 
L 795.491342 242.971468 
L 800.123377 252.076874 
L 804.755411 185.688741 
L 809.387446 129.853527 
L 814.019481 397.004295 
L 818.651515 321.728502 
L 823.28355 331.938082 
L 827.915584 180.759977 
L 832.547619 179.313217 
L 837.179654 313.797327 
L 841.811688 233.066147 
L 846.443723 263.464353 
L 851.075758 253.922207 
L 855.707792 304.867093 
L 860.339827 341.977967 
L 864.971861 232.926284 
L 869.603896 251.100865 
L 874.235931 259.905523 
L 878.867965 190.269573 
L 883.5 228.190333 
L 888.132035 333.135637 
L 892.764069 149.583938 
L 897.396104 217.320211 
L 902.028139 300.025376 
L 906.660173 159.53816 
L 911.292208 208.999534 
L 915.924242 228.933249 
L 920.556277 277.707763 
L 925.188312 101.771368 
L 929.820346 203.298624 
L 934.452381 356.754744 
L 939.084416 238.797039 
L 943.71645 195.589756 
L 948.348485 296.011171 
L 952.980519 225.563011 
L 957.612554 127.325142 
L 962.244589 238.071885 
L 966.876623 303.758083 
L 971.508658 224.944876 
L 976.140693 139.189027 
L 980.772727 212.271267 
L 985.404762 194.092001 
L 990.036797 96.926941 
L 994.668831 178.823829 
L 999.300866 285.764014 
L 1003.9329 148.825479 
L 1008.564935 198.830704 
L 1013.19697 257.151847 
L 1017.829004 312.859535 
L 1022.461039 219.155735 
L 1027.093074 182.750858 
L 1031.725108 248.363912 
L 1036.357143 253.745988 
L 1040.989177 191.106011 
L 1045.621212 188.153122 
L 1050.253247 265.35688 
L 1054.885281 337.347852 
L 1059.517316 333.125609 
L 1064.149351 197.926503 
L 1068.781385 305.100798 
L 1073.41342 181.881734 
L 1078.045455 228.788484 
L 1082.677489 294.310062 
L 1087.309524 281.973077 
L 1091.941558 233.60119 
L 1096.573593 134.310547 
L 1101.205628 338.636292 
L 1105.837662 139.392305 
L 1110.469697 209.828126 
L 1115.101732 129.483454 
L 1119.733766 302.0199 
L 1124.365801 296.970883 
L 1128.997835 173.80305 
L 1133.62987 174.189465 
L 1138.261905 170.871437 
L 1142.893939 207.894991 
L 1147.525974 126.257464 
L 1152.158009 239.022654 
L 1156.790043 202.277916 
L 1161.422078 159.980887 
L 1166.054113 270.898422 
L 1170.686147 189.507075 
L 1175.318182 231.666569 
L 1179.950216 269.031828 
L 1184.582251 276.672178 
L 1189.214286 193.006447 
L 1193.84632 222.688325 
L 1198.478355 239.911736 
L 1203.11039 108.27171 
L 1207.742424 248.374277 
L 1212.374459 322.82904 
L 1217.006494 240.674528 
L 1221.638528 263.059172 
L 1226.270563 281.258005 
L 1230.902597 172.324203 
L 1235.534632 281.548115 
L 1240.166667 233.394557 
L 1244.798701 94.300756 
L 1249.430736 291.381479 
L 1254.062771 135.002057 
L 1258.694805 212.610695 
L 1263.32684 176.439014 
L 1267.958874 229.664307 
L 1272.590909 340.785813 
L 1277.222944 251.232134 
L 1281.854978 237.907647 
L 1286.487013 233.29365 
L 1291.119048 226.601556 
L 1295.751082 141.531931 
L 1300.383117 258.699977 
L 1305.015152 346.486881 
L 1309.647186 170.742458 
L 1314.279221 292.352598 
L 1318.911255 230.347197 
L 1323.54329 267.237516 
L 1328.175325 250.144195 
L 1332.807359 291.774296 
L 1337.439394 311.575673 
L 1342.071429 217.03883 
L 1346.703463 278.596899 
L 1351.335498 291.261287 
L 1355.967532 278.761764 
L 1360.599567 241.46964 
L 1365.231602 64.96154 
L 1365.231602 64.96154 
" style="fill:none;stroke:#ff7f0e;stroke-linecap:square;stroke-width:1.5;"/>
   </g>
   <g id="line2d_17">
    <path clip-path="url(#p926025dd84)" d="M 184.062771 223.700133 
L 188.694805 330.113459 
L 193.32684 255.828582 
L 197.958874 191.969797 
L 202.590909 191.193359 
L 207.222944 108.985464 
L 211.854978 173.268455 
L 216.487013 215.547174 
L 221.119048 279.546841 
L 225.751082 247.801513 
L 230.383117 311.931287 
L 235.015152 274.817532 
L 239.647186 297.255619 
L 244.279221 205.802605 
L 248.911255 254.013856 
L 253.54329 316.146536 
L 258.175325 335.658933 
L 262.807359 227.44033 
L 267.439394 388.526246 
L 272.071429 244.067065 
L 276.703463 267.480223 
L 281.335498 194.33617 
L 285.967532 229.431817 
L 290.599567 275.168933 
L 295.231602 225.875776 
L 299.863636 205.900091 
L 304.495671 261.598239 
L 309.127706 287.294381 
L 313.75974 185.355034 
L 318.391775 190.586178 
L 323.02381 271.57155 
L 327.655844 161.720471 
L 332.287879 232.476339 
L 336.919913 222.696186 
L 341.551948 216.065316 
L 346.183983 289.615551 
L 350.816017 279.477289 
L 355.448052 233.393323 
L 360.080087 177.595144 
L 364.712121 220.957277 
L 369.344156 318.604617 
L 373.97619 136.560439 
L 378.608225 250.454477 
L 383.24026 256.666681 
L 387.872294 221.221242 
L 392.504329 271.886989 
L 397.136364 112.327193 
L 401.768398 265.887351 
L 406.400433 265.343529 
L 411.032468 236.544127 
L 415.664502 355.760725 
L 420.296537 233.97311 
L 424.928571 171.652399 
L 429.560606 236.281595 
L 434.192641 186.685785 
L 438.824675 277.197577 
L 443.45671 304.290423 
L 448.088745 260.44164 
L 452.720779 197.496007 
L 457.352814 278.598977 
L 461.984848 144.737474 
L 466.616883 224.385003 
L 471.248918 292.833533 
L 475.880952 300.940201 
L 480.512987 258.845057 
L 485.145022 204.665148 
L 489.777056 199.785198 
L 494.409091 111.669381 
L 499.041126 233.03692 
L 503.67316 326.528277 
L 508.305195 146.571601 
L 512.937229 275.734073 
L 517.569264 254.374966 
L 522.201299 259.855847 
L 526.833333 165.422413 
L 531.465368 269.836875 
L 536.097403 282.681208 
L 540.729437 247.708064 
L 545.361472 278.479907 
L 549.993506 296.084554 
L 554.625541 256.569628 
L 559.257576 294.040511 
L 563.88961 271.709591 
L 568.521645 216.691315 
L 573.15368 301.03716 
L 577.785714 185.732088 
L 582.417749 181.636047 
L 587.049784 160.875941 
L 591.681818 220.043575 
L 596.313853 197.5557 
L 600.945887 171.784078 
L 605.577922 182.390013 
L 610.209957 186.35731 
L 614.841991 226.177075 
L 619.474026 241.553981 
L 624.106061 430.22169 
L 628.738095 270.528936 
L 633.37013 134.342803 
L 638.002165 243.50423 
L 642.634199 240.982727 
L 647.266234 207.023319 
L 651.898268 331.006911 
L 656.530303 259.949609 
L 661.162338 125.538984 
L 665.794372 242.613779 
L 670.426407 178.891054 
L 675.058442 282.571369 
L 679.690476 306.066854 
L 684.322511 127.212127 
L 688.954545 204.095946 
L 693.58658 193.768047 
L 698.218615 175.026227 
L 702.850649 308.639161 
L 707.482684 261.745906 
L 712.114719 83.728105 
L 716.746753 270.342945 
L 721.378788 345.866556 
L 726.010823 306.974739 
L 730.642857 346.421817 
L 735.274892 213.20857 
L 739.906926 312.291772 
L 744.538961 286.847855 
L 749.170996 316.200627 
L 753.80303 204.707243 
L 758.435065 147.076267 
L 763.0671 201.313283 
L 767.699134 241.362643 
L 772.331169 209.929411 
L 776.963203 244.0448 
L 781.595238 125.756508 
L 786.227273 300.247856 
L 790.859307 172.219962 
L 795.491342 208.466752 
L 800.123377 281.675385 
L 804.755411 275.614226 
L 809.387446 245.286247 
L 814.019481 292.711153 
L 818.651515 185.722505 
L 823.28355 346.945819 
L 827.915584 226.33716 
L 832.547619 190.433157 
L 837.179654 181.352206 
L 841.811688 295.8716 
L 846.443723 313.30967 
L 851.075758 235.947061 
L 855.707792 176.294184 
L 860.339827 258.10773 
L 864.971861 186.844826 
L 869.603896 256.338002 
L 874.235931 311.92266 
L 878.867965 212.898278 
L 883.5 252.08737 
L 888.132035 229.530259 
L 892.764069 254.848811 
L 897.396104 254.142285 
L 902.028139 197.394595 
L 906.660173 312.40291 
L 911.292208 57.513538 
L 915.924242 323.778666 
L 920.556277 257.085402 
L 925.188312 338.691683 
L 929.820346 268.160167 
L 934.452381 276.600602 
L 939.084416 344.329484 
L 943.71645 210.091352 
L 948.348485 311.201934 
L 952.980519 242.912057 
L 957.612554 311.433908 
L 962.244589 257.833336 
L 966.876623 88.812212 
L 971.508658 321.959702 
L 976.140693 159.991885 
L 980.772727 272.073654 
L 985.404762 193.764158 
L 990.036797 265.084624 
L 994.668831 273.90286 
L 999.300866 358.770802 
L 1003.9329 307.300496 
L 1008.564935 165.939368 
L 1013.19697 170.274185 
L 1017.829004 285.895737 
L 1022.461039 110.898215 
L 1027.093074 194.229059 
L 1031.725108 249.21959 
L 1036.357143 230.22911 
L 1040.989177 201.343848 
L 1045.621212 370.39652 
L 1050.253247 302.015776 
L 1054.885281 262.301383 
L 1059.517316 254.662115 
L 1064.149351 203.079412 
L 1068.781385 252.858383 
L 1073.41342 168.87608 
L 1078.045455 253.523825 
L 1082.677489 296.244925 
L 1087.309524 167.389883 
L 1091.941558 250.896441 
L 1096.573593 297.917805 
L 1101.205628 157.71246 
L 1105.837662 166.548134 
L 1110.469697 157.715841 
L 1115.101732 143.162024 
L 1119.733766 136.874099 
L 1124.365801 230.482509 
L 1128.997835 167.428221 
L 1133.62987 298.295588 
L 1138.261905 160.724628 
L 1142.893939 206.055052 
L 1147.525974 287.078922 
L 1152.158009 223.939776 
L 1156.790043 303.495606 
L 1161.422078 212.982239 
L 1166.054113 295.859409 
L 1170.686147 235.056302 
L 1175.318182 105.380093 
L 1179.950216 209.944304 
L 1184.582251 187.713016 
L 1189.214286 265.863693 
L 1193.84632 229.040986 
L 1198.478355 141.474983 
L 1203.11039 262.104908 
L 1207.742424 220.520299 
L 1212.374459 277.846631 
L 1217.006494 156.527629 
L 1221.638528 251.113454 
L 1226.270563 302.990322 
L 1230.902597 257.651861 
L 1235.534632 151.34317 
L 1240.166667 303.782927 
L 1244.798701 282.381145 
L 1249.430736 149.908471 
L 1254.062771 214.568985 
L 1258.694805 257.598294 
L 1263.32684 312.772387 
L 1267.958874 279.772227 
L 1272.590909 302.503585 
L 1277.222944 184.938508 
L 1281.854978 219.807634 
L 1286.487013 291.70715 
L 1291.119048 239.838112 
L 1295.751082 304.870345 
L 1300.383117 335.352393 
L 1305.015152 245.62739 
L 1309.647186 281.074139 
L 1314.279221 326.124382 
L 1318.911255 286.564231 
L 1323.54329 147.374657 
L 1328.175325 246.235276 
L 1332.807359 142.742958 
L 1337.439394 302.410453 
L 1346.703463 208.526467 
L 1351.335498 207.565409 
L 1355.967532 254.080523 
L 1360.599567 275.05535 
L 1365.231602 157.955494 
L 1365.231602 157.955494 
" style="fill:none;stroke:#2ca02c;stroke-linecap:square;stroke-width:1.5;"/>
   </g>
   <g id="patch_13">
    <path d="M 123.8 496.2 
L 123.8 10.8 
" style="fill:none;stroke:#000000;stroke-linecap:square;stroke-linejoin:miter;stroke-width:0.8;"/>
   </g>
   <g id="patch_14">
    <path d="M 1429.2 496.2 
L 1429.2 10.8 
" style="fill:none;stroke:#000000;stroke-linecap:square;stroke-linejoin:miter;stroke-width:0.8;"/>
   </g>
   <g id="patch_15">
    <path d="M 123.8 496.2 
L 1429.2 496.2 
" style="fill:none;stroke:#000000;stroke-linecap:square;stroke-linejoin:miter;stroke-width:0.8;"/>
   </g>
   <g id="patch_16">
    <path d="M 123.8 10.8 
L 1429.2 10.8 
" style="fill:none;stroke:#000000;stroke-linecap:square;stroke-linejoin:miter;stroke-width:0.8;"/>
   </g>
  </g>
 </g>
 <defs>
  <clipPath id="p926025dd84">
   <rect height="485.4" width="1305.4" x="123.8" y="10.8"/>
  </clipPath>
 </defs>
</svg>
