<?xml version="1.0" encoding="utf-8" standalone="no"?>
<!DOCTYPE svg PUBLIC "-//W3C//DTD SVG 1.1//EN"
  "http://www.w3.org/Graphics/SVG/1.1/DTD/svg11.dtd">
<!-- Created with matplotlib (https://matplotlib.org/) -->
<svg height="576pt" version="1.1" viewBox="0 0 1440 576" width="1440pt" xmlns="http://www.w3.org/2000/svg" xmlns:xlink="http://www.w3.org/1999/xlink">
 <defs>
  <style type="text/css">
*{stroke-linecap:butt;stroke-linejoin:round;white-space:pre;}
  </style>
 </defs>
 <g id="figure_1">
  <g id="patch_1">
   <path d="M 0 576 
L 1440 576 
L 1440 0 
L 0 0 
z
" style="fill:#ffffff;"/>
  </g>
  <g id="axes_1">
   <g id="patch_2">
    <path d="M 123.8 496.2 
L 1429.2 496.2 
L 1429.2 10.8 
L 123.8 10.8 
z
" style="fill:#ffffff;"/>
   </g>
   <g id="patch_3">
    <path clip-path="url(#p45d03c9181)" d="M 183.136364 496.2 
L 183.136364 10.8 
L 184.062771 10.8 
L 184.062771 496.2 
z
" style="fill:#0000ff;"/>
   </g>
   <g id="patch_4">
    <path clip-path="url(#p45d03c9181)" d="M 187.768398 496.2 
L 187.768398 10.8 
L 188.694805 10.8 
L 188.694805 496.2 
z
" style="fill:#0000ff;"/>
   </g>
   <g id="patch_5">
    <path clip-path="url(#p45d03c9181)" d="M 224.824675 496.2 
L 224.824675 10.8 
L 225.751082 10.8 
L 225.751082 496.2 
z
" style="fill:#0000ff;"/>
   </g>
   <g id="patch_6">
    <path clip-path="url(#p45d03c9181)" d="M 354.521645 496.2 
L 354.521645 10.8 
L 355.448052 10.8 
L 355.448052 496.2 
z
" style="fill:#0000ff;"/>
   </g>
   <g id="patch_7">
    <path clip-path="url(#p45d03c9181)" d="M 613.915584 496.2 
L 613.915584 10.8 
L 614.841991 10.8 
L 614.841991 496.2 
z
" style="fill:#0000ff;"/>
   </g>
   <g id="patch_8">
    <path clip-path="url(#p45d03c9181)" d="M 938.158009 496.2 
L 938.158009 10.8 
L 939.084416 10.8 
L 939.084416 496.2 
z
" style="fill:#0000ff;"/>
   </g>
   <g id="patch_9">
    <path clip-path="url(#p45d03c9181)" d="M 1197.551948 496.2 
L 1197.551948 10.8 
L 1198.478355 10.8 
L 1198.478355 496.2 
z
" style="fill:#0000ff;"/>
   </g>
   <g id="patch_10">
    <path clip-path="url(#p45d03c9181)" d="M 1327.248918 496.2 
L 1327.248918 10.8 
L 1328.175325 10.8 
L 1328.175325 496.2 
z
" style="fill:#0000ff;"/>
   </g>
   <g id="patch_11">
    <path clip-path="url(#p45d03c9181)" d="M 1364.305195 496.2 
L 1364.305195 10.8 
L 1365.231602 10.8 
L 1365.231602 496.2 
z
" style="fill:#0000ff;"/>
   </g>
   <g id="patch_12">
    <path clip-path="url(#p45d03c9181)" d="M 1368.937229 496.2 
L 1368.937229 10.8 
L 1369.863636 10.8 
L 1369.863636 496.2 
z
" style="fill:#0000ff;"/>
   </g>
   <g id="matplotlib.axis_1">
    <g id="xtick_1">
     <g id="line2d_1">
      <defs>
       <path d="M 0 0 
L 0 3.5 
" id="ma2ecad3cc7" style="stroke:#000000;stroke-width:0.8;"/>
      </defs>
      <g>
       <use style="stroke:#000000;stroke-width:0.8;" x="184.062771" xlink:href="#ma2ecad3cc7" y="496.2"/>
      </g>
     </g>
     <g id="text_1">
      <!-- 0 -->
      <defs>
       <path d="M 31.78125 66.40625 
Q 24.171875 66.40625 20.328125 58.90625 
Q 16.5 51.421875 16.5 36.375 
Q 16.5 21.390625 20.328125 13.890625 
Q 24.171875 6.390625 31.78125 6.390625 
Q 39.453125 6.390625 43.28125 13.890625 
Q 47.125 21.390625 47.125 36.375 
Q 47.125 51.421875 43.28125 58.90625 
Q 39.453125 66.40625 31.78125 66.40625 
z
M 31.78125 74.21875 
Q 44.046875 74.21875 50.515625 64.515625 
Q 56.984375 54.828125 56.984375 36.375 
Q 56.984375 17.96875 50.515625 8.265625 
Q 44.046875 -1.421875 31.78125 -1.421875 
Q 19.53125 -1.421875 13.0625 8.265625 
Q 6.59375 17.96875 6.59375 36.375 
Q 6.59375 54.828125 13.0625 64.515625 
Q 19.53125 74.21875 31.78125 74.21875 
z
" id="DejaVuSans-48"/>
      </defs>
      <g transform="translate(174.519021 525.995312)scale(0.3 -0.3)">
       <use xlink:href="#DejaVuSans-48"/>
      </g>
     </g>
    </g>
    <g id="xtick_2">
     <g id="line2d_2">
      <g>
       <use style="stroke:#000000;stroke-width:0.8;" x="415.664502" xlink:href="#ma2ecad3cc7" y="496.2"/>
      </g>
     </g>
     <g id="text_2">
      <!-- 50 -->
      <defs>
       <path d="M 10.796875 72.90625 
L 49.515625 72.90625 
L 49.515625 64.59375 
L 19.828125 64.59375 
L 19.828125 46.734375 
Q 21.96875 47.46875 24.109375 47.828125 
Q 26.265625 48.1875 28.421875 48.1875 
Q 40.625 48.1875 47.75 41.5 
Q 54.890625 34.8125 54.890625 23.390625 
Q 54.890625 11.625 47.5625 5.09375 
Q 40.234375 -1.421875 26.90625 -1.421875 
Q 22.3125 -1.421875 17.546875 -0.640625 
Q 12.796875 0.140625 7.71875 1.703125 
L 7.71875 11.625 
Q 12.109375 9.234375 16.796875 8.0625 
Q 21.484375 6.890625 26.703125 6.890625 
Q 35.15625 6.890625 40.078125 11.328125 
Q 45.015625 15.765625 45.015625 23.390625 
Q 45.015625 31 40.078125 35.4375 
Q 35.15625 39.890625 26.703125 39.890625 
Q 22.75 39.890625 18.8125 39.015625 
Q 14.890625 38.140625 10.796875 36.28125 
z
" id="DejaVuSans-53"/>
      </defs>
      <g transform="translate(396.577002 525.995312)scale(0.3 -0.3)">
       <use xlink:href="#DejaVuSans-53"/>
       <use x="63.623047" xlink:href="#DejaVuSans-48"/>
      </g>
     </g>
    </g>
    <g id="xtick_3">
     <g id="line2d_3">
      <g>
       <use style="stroke:#000000;stroke-width:0.8;" x="647.266234" xlink:href="#ma2ecad3cc7" y="496.2"/>
      </g>
     </g>
     <g id="text_3">
      <!-- 100 -->
      <defs>
       <path d="M 12.40625 8.296875 
L 28.515625 8.296875 
L 28.515625 63.921875 
L 10.984375 60.40625 
L 10.984375 69.390625 
L 28.421875 72.90625 
L 38.28125 72.90625 
L 38.28125 8.296875 
L 54.390625 8.296875 
L 54.390625 0 
L 12.40625 0 
z
" id="DejaVuSans-49"/>
      </defs>
      <g transform="translate(618.634984 525.995312)scale(0.3 -0.3)">
       <use xlink:href="#DejaVuSans-49"/>
       <use x="63.623047" xlink:href="#DejaVuSans-48"/>
       <use x="127.246094" xlink:href="#DejaVuSans-48"/>
      </g>
     </g>
    </g>
    <g id="xtick_4">
     <g id="line2d_4">
      <g>
       <use style="stroke:#000000;stroke-width:0.8;" x="878.867965" xlink:href="#ma2ecad3cc7" y="496.2"/>
      </g>
     </g>
     <g id="text_4">
      <!-- 150 -->
      <g transform="translate(850.236715 525.995312)scale(0.3 -0.3)">
       <use xlink:href="#DejaVuSans-49"/>
       <use x="63.623047" xlink:href="#DejaVuSans-53"/>
       <use x="127.246094" xlink:href="#DejaVuSans-48"/>
      </g>
     </g>
    </g>
    <g id="xtick_5">
     <g id="line2d_5">
      <g>
       <use style="stroke:#000000;stroke-width:0.8;" x="1110.469697" xlink:href="#ma2ecad3cc7" y="496.2"/>
      </g>
     </g>
     <g id="text_5">
      <!-- 200 -->
      <defs>
       <path d="M 19.1875 8.296875 
L 53.609375 8.296875 
L 53.609375 0 
L 7.328125 0 
L 7.328125 8.296875 
Q 12.9375 14.109375 22.625 23.890625 
Q 32.328125 33.6875 34.8125 36.53125 
Q 39.546875 41.84375 41.421875 45.53125 
Q 43.3125 49.21875 43.3125 52.78125 
Q 43.3125 58.59375 39.234375 62.25 
Q 35.15625 65.921875 28.609375 65.921875 
Q 23.96875 65.921875 18.8125 64.3125 
Q 13.671875 62.703125 7.8125 59.421875 
L 7.8125 69.390625 
Q 13.765625 71.78125 18.9375 73 
Q 24.125 74.21875 28.421875 74.21875 
Q 39.75 74.21875 46.484375 68.546875 
Q 53.21875 62.890625 53.21875 53.421875 
Q 53.21875 48.921875 51.53125 44.890625 
Q 49.859375 40.875 45.40625 35.40625 
Q 44.1875 33.984375 37.640625 27.21875 
Q 31.109375 20.453125 19.1875 8.296875 
z
" id="DejaVuSans-50"/>
      </defs>
      <g transform="translate(1081.838447 525.995312)scale(0.3 -0.3)">
       <use xlink:href="#DejaVuSans-50"/>
       <use x="63.623047" xlink:href="#DejaVuSans-48"/>
       <use x="127.246094" xlink:href="#DejaVuSans-48"/>
      </g>
     </g>
    </g>
    <g id="xtick_6">
     <g id="line2d_6">
      <g>
       <use style="stroke:#000000;stroke-width:0.8;" x="1342.071429" xlink:href="#ma2ecad3cc7" y="496.2"/>
      </g>
     </g>
     <g id="text_6">
      <!-- 250 -->
      <g transform="translate(1313.440179 525.995312)scale(0.3 -0.3)">
       <use xlink:href="#DejaVuSans-50"/>
       <use x="63.623047" xlink:href="#DejaVuSans-53"/>
       <use x="127.246094" xlink:href="#DejaVuSans-48"/>
      </g>
     </g>
    </g>
    <g id="text_7">
     <!-- Bit Interaction -->
     <defs>
      <path d="M 19.671875 34.8125 
L 19.671875 8.109375 
L 35.5 8.109375 
Q 43.453125 8.109375 47.28125 11.40625 
Q 51.125 14.703125 51.125 21.484375 
Q 51.125 28.328125 47.28125 31.5625 
Q 43.453125 34.8125 35.5 34.8125 
z
M 19.671875 64.796875 
L 19.671875 42.828125 
L 34.28125 42.828125 
Q 41.5 42.828125 45.03125 45.53125 
Q 48.578125 48.25 48.578125 53.8125 
Q 48.578125 59.328125 45.03125 62.0625 
Q 41.5 64.796875 34.28125 64.796875 
z
M 9.8125 72.90625 
L 35.015625 72.90625 
Q 46.296875 72.90625 52.390625 68.21875 
Q 58.5 63.53125 58.5 54.890625 
Q 58.5 48.1875 55.375 44.234375 
Q 52.25 40.28125 46.1875 39.3125 
Q 53.46875 37.75 57.5 32.78125 
Q 61.53125 27.828125 61.53125 20.40625 
Q 61.53125 10.640625 54.890625 5.3125 
Q 48.25 0 35.984375 0 
L 9.8125 0 
z
" id="DejaVuSans-66"/>
      <path d="M 9.421875 54.6875 
L 18.40625 54.6875 
L 18.40625 0 
L 9.421875 0 
z
M 9.421875 75.984375 
L 18.40625 75.984375 
L 18.40625 64.59375 
L 9.421875 64.59375 
z
" id="DejaVuSans-105"/>
      <path d="M 18.3125 70.21875 
L 18.3125 54.6875 
L 36.8125 54.6875 
L 36.8125 47.703125 
L 18.3125 47.703125 
L 18.3125 18.015625 
Q 18.3125 11.328125 20.140625 9.421875 
Q 21.96875 7.515625 27.59375 7.515625 
L 36.8125 7.515625 
L 36.8125 0 
L 27.59375 0 
Q 17.1875 0 13.234375 3.875 
Q 9.28125 7.765625 9.28125 18.015625 
L 9.28125 47.703125 
L 2.6875 47.703125 
L 2.6875 54.6875 
L 9.28125 54.6875 
L 9.28125 70.21875 
z
" id="DejaVuSans-116"/>
      <path id="DejaVuSans-32"/>
      <path d="M 9.8125 72.90625 
L 19.671875 72.90625 
L 19.671875 0 
L 9.8125 0 
z
" id="DejaVuSans-73"/>
      <path d="M 54.890625 33.015625 
L 54.890625 0 
L 45.90625 0 
L 45.90625 32.71875 
Q 45.90625 40.484375 42.875 44.328125 
Q 39.84375 48.1875 33.796875 48.1875 
Q 26.515625 48.1875 22.3125 43.546875 
Q 18.109375 38.921875 18.109375 30.90625 
L 18.109375 0 
L 9.078125 0 
L 9.078125 54.6875 
L 18.109375 54.6875 
L 18.109375 46.1875 
Q 21.34375 51.125 25.703125 53.5625 
Q 30.078125 56 35.796875 56 
Q 45.21875 56 50.046875 50.171875 
Q 54.890625 44.34375 54.890625 33.015625 
z
" id="DejaVuSans-110"/>
      <path d="M 56.203125 29.59375 
L 56.203125 25.203125 
L 14.890625 25.203125 
Q 15.484375 15.921875 20.484375 11.0625 
Q 25.484375 6.203125 34.421875 6.203125 
Q 39.59375 6.203125 44.453125 7.46875 
Q 49.3125 8.734375 54.109375 11.28125 
L 54.109375 2.78125 
Q 49.265625 0.734375 44.1875 -0.34375 
Q 39.109375 -1.421875 33.890625 -1.421875 
Q 20.796875 -1.421875 13.15625 6.1875 
Q 5.515625 13.8125 5.515625 26.8125 
Q 5.515625 40.234375 12.765625 48.109375 
Q 20.015625 56 32.328125 56 
Q 43.359375 56 49.78125 48.890625 
Q 56.203125 41.796875 56.203125 29.59375 
z
M 47.21875 32.234375 
Q 47.125 39.59375 43.09375 43.984375 
Q 39.0625 48.390625 32.421875 48.390625 
Q 24.90625 48.390625 20.390625 44.140625 
Q 15.875 39.890625 15.1875 32.171875 
z
" id="DejaVuSans-101"/>
      <path d="M 41.109375 46.296875 
Q 39.59375 47.171875 37.8125 47.578125 
Q 36.03125 48 33.890625 48 
Q 26.265625 48 22.1875 43.046875 
Q 18.109375 38.09375 18.109375 28.8125 
L 18.109375 0 
L 9.078125 0 
L 9.078125 54.6875 
L 18.109375 54.6875 
L 18.109375 46.1875 
Q 20.953125 51.171875 25.484375 53.578125 
Q 30.03125 56 36.53125 56 
Q 37.453125 56 38.578125 55.875 
Q 39.703125 55.765625 41.0625 55.515625 
z
" id="DejaVuSans-114"/>
      <path d="M 34.28125 27.484375 
Q 23.390625 27.484375 19.1875 25 
Q 14.984375 22.515625 14.984375 16.5 
Q 14.984375 11.71875 18.140625 8.90625 
Q 21.296875 6.109375 26.703125 6.109375 
Q 34.1875 6.109375 38.703125 11.40625 
Q 43.21875 16.703125 43.21875 25.484375 
L 43.21875 27.484375 
z
M 52.203125 31.203125 
L 52.203125 0 
L 43.21875 0 
L 43.21875 8.296875 
Q 40.140625 3.328125 35.546875 0.953125 
Q 30.953125 -1.421875 24.3125 -1.421875 
Q 15.921875 -1.421875 10.953125 3.296875 
Q 6 8.015625 6 15.921875 
Q 6 25.140625 12.171875 29.828125 
Q 18.359375 34.515625 30.609375 34.515625 
L 43.21875 34.515625 
L 43.21875 35.40625 
Q 43.21875 41.609375 39.140625 45 
Q 35.0625 48.390625 27.6875 48.390625 
Q 23 48.390625 18.546875 47.265625 
Q 14.109375 46.140625 10.015625 43.890625 
L 10.015625 52.203125 
Q 14.9375 54.109375 19.578125 55.046875 
Q 24.21875 56 28.609375 56 
Q 40.484375 56 46.34375 49.84375 
Q 52.203125 43.703125 52.203125 31.203125 
z
" id="DejaVuSans-97"/>
      <path d="M 48.78125 52.59375 
L 48.78125 44.1875 
Q 44.96875 46.296875 41.140625 47.34375 
Q 37.3125 48.390625 33.40625 48.390625 
Q 24.65625 48.390625 19.8125 42.84375 
Q 14.984375 37.3125 14.984375 27.296875 
Q 14.984375 17.28125 19.8125 11.734375 
Q 24.65625 6.203125 33.40625 6.203125 
Q 37.3125 6.203125 41.140625 7.25 
Q 44.96875 8.296875 48.78125 10.40625 
L 48.78125 2.09375 
Q 45.015625 0.34375 40.984375 -0.53125 
Q 36.96875 -1.421875 32.421875 -1.421875 
Q 20.0625 -1.421875 12.78125 6.34375 
Q 5.515625 14.109375 5.515625 27.296875 
Q 5.515625 40.671875 12.859375 48.328125 
Q 20.21875 56 33.015625 56 
Q 37.15625 56 41.109375 55.140625 
Q 45.0625 54.296875 48.78125 52.59375 
z
" id="DejaVuSans-99"/>
      <path d="M 30.609375 48.390625 
Q 23.390625 48.390625 19.1875 42.75 
Q 14.984375 37.109375 14.984375 27.296875 
Q 14.984375 17.484375 19.15625 11.84375 
Q 23.34375 6.203125 30.609375 6.203125 
Q 37.796875 6.203125 41.984375 11.859375 
Q 46.1875 17.53125 46.1875 27.296875 
Q 46.1875 37.015625 41.984375 42.703125 
Q 37.796875 48.390625 30.609375 48.390625 
z
M 30.609375 56 
Q 42.328125 56 49.015625 48.375 
Q 55.71875 40.765625 55.71875 27.296875 
Q 55.71875 13.875 49.015625 6.21875 
Q 42.328125 -1.421875 30.609375 -1.421875 
Q 18.84375 -1.421875 12.171875 6.21875 
Q 5.515625 13.875 5.515625 27.296875 
Q 5.515625 40.765625 12.171875 48.375 
Q 18.84375 56 30.609375 56 
z
" id="DejaVuSans-111"/>
     </defs>
     <g transform="translate(670.014063 559.029688)scale(0.3 -0.3)">
      <use xlink:href="#DejaVuSans-66"/>
      <use x="68.603516" xlink:href="#DejaVuSans-105"/>
      <use x="96.386719" xlink:href="#DejaVuSans-116"/>
      <use x="135.595703" xlink:href="#DejaVuSans-32"/>
      <use x="167.382812" xlink:href="#DejaVuSans-73"/>
      <use x="196.875" xlink:href="#DejaVuSans-110"/>
      <use x="260.253906" xlink:href="#DejaVuSans-116"/>
      <use x="299.462891" xlink:href="#DejaVuSans-101"/>
      <use x="360.986328" xlink:href="#DejaVuSans-114"/>
      <use x="402.099609" xlink:href="#DejaVuSans-97"/>
      <use x="463.378906" xlink:href="#DejaVuSans-99"/>
      <use x="518.359375" xlink:href="#DejaVuSans-116"/>
      <use x="557.568359" xlink:href="#DejaVuSans-105"/>
      <use x="585.351562" xlink:href="#DejaVuSans-111"/>
      <use x="646.533203" xlink:href="#DejaVuSans-110"/>
     </g>
    </g>
   </g>
   <g id="matplotlib.axis_2">
    <g id="ytick_1">
     <g id="line2d_7">
      <defs>
       <path d="M 0 0 
L -3.5 0 
" id="me2a7917953" style="stroke:#000000;stroke-width:0.8;"/>
      </defs>
      <g>
       <use style="stroke:#000000;stroke-width:0.8;" x="123.8" xlink:href="#me2a7917953" y="457.293199"/>
      </g>
     </g>
     <g id="text_8">
      <!-- −0.6 -->
      <defs>
       <path d="M 10.59375 35.5 
L 73.1875 35.5 
L 73.1875 27.203125 
L 10.59375 27.203125 
z
" id="DejaVuSans-8722"/>
       <path d="M 10.6875 12.40625 
L 21 12.40625 
L 21 0 
L 10.6875 0 
z
" id="DejaVuSans-46"/>
       <path d="M 33.015625 40.375 
Q 26.375 40.375 22.484375 35.828125 
Q 18.609375 31.296875 18.609375 23.390625 
Q 18.609375 15.53125 22.484375 10.953125 
Q 26.375 6.390625 33.015625 6.390625 
Q 39.65625 6.390625 43.53125 10.953125 
Q 47.40625 15.53125 47.40625 23.390625 
Q 47.40625 31.296875 43.53125 35.828125 
Q 39.65625 40.375 33.015625 40.375 
z
M 52.59375 71.296875 
L 52.59375 62.3125 
Q 48.875 64.0625 45.09375 64.984375 
Q 41.3125 65.921875 37.59375 65.921875 
Q 27.828125 65.921875 22.671875 59.328125 
Q 17.53125 52.734375 16.796875 39.40625 
Q 19.671875 43.65625 24.015625 45.921875 
Q 28.375 48.1875 33.59375 48.1875 
Q 44.578125 48.1875 50.953125 41.515625 
Q 57.328125 34.859375 57.328125 23.390625 
Q 57.328125 12.15625 50.6875 5.359375 
Q 44.046875 -1.421875 33.015625 -1.421875 
Q 20.359375 -1.421875 13.671875 8.265625 
Q 6.984375 17.96875 6.984375 36.375 
Q 6.984375 53.65625 15.1875 63.9375 
Q 23.390625 74.21875 37.203125 74.21875 
Q 40.921875 74.21875 44.703125 73.484375 
Q 48.484375 72.75 52.59375 71.296875 
z
" id="DejaVuSans-54"/>
      </defs>
      <g transform="translate(43.951563 468.690855)scale(0.3 -0.3)">
       <use xlink:href="#DejaVuSans-8722"/>
       <use x="83.789062" xlink:href="#DejaVuSans-48"/>
       <use x="147.412109" xlink:href="#DejaVuSans-46"/>
       <use x="179.199219" xlink:href="#DejaVuSans-54"/>
      </g>
     </g>
    </g>
    <g id="ytick_2">
     <g id="line2d_8">
      <g>
       <use style="stroke:#000000;stroke-width:0.8;" x="123.8" xlink:href="#me2a7917953" y="390.257817"/>
      </g>
     </g>
     <g id="text_9">
      <!-- −0.4 -->
      <defs>
       <path d="M 37.796875 64.3125 
L 12.890625 25.390625 
L 37.796875 25.390625 
z
M 35.203125 72.90625 
L 47.609375 72.90625 
L 47.609375 25.390625 
L 58.015625 25.390625 
L 58.015625 17.1875 
L 47.609375 17.1875 
L 47.609375 0 
L 37.796875 0 
L 37.796875 17.1875 
L 4.890625 17.1875 
L 4.890625 26.703125 
z
" id="DejaVuSans-52"/>
      </defs>
      <g transform="translate(43.951563 401.655474)scale(0.3 -0.3)">
       <use xlink:href="#DejaVuSans-8722"/>
       <use x="83.789062" xlink:href="#DejaVuSans-48"/>
       <use x="147.412109" xlink:href="#DejaVuSans-46"/>
       <use x="179.199219" xlink:href="#DejaVuSans-52"/>
      </g>
     </g>
    </g>
    <g id="ytick_3">
     <g id="line2d_9">
      <g>
       <use style="stroke:#000000;stroke-width:0.8;" x="123.8" xlink:href="#me2a7917953" y="323.222436"/>
      </g>
     </g>
     <g id="text_10">
      <!-- −0.2 -->
      <g transform="translate(43.951563 334.620092)scale(0.3 -0.3)">
       <use xlink:href="#DejaVuSans-8722"/>
       <use x="83.789062" xlink:href="#DejaVuSans-48"/>
       <use x="147.412109" xlink:href="#DejaVuSans-46"/>
       <use x="179.199219" xlink:href="#DejaVuSans-50"/>
      </g>
     </g>
    </g>
    <g id="ytick_4">
     <g id="line2d_10">
      <g>
       <use style="stroke:#000000;stroke-width:0.8;" x="123.8" xlink:href="#me2a7917953" y="256.187055"/>
      </g>
     </g>
     <g id="text_11">
      <!-- 0.0 -->
      <g transform="translate(69.090625 267.584711)scale(0.3 -0.3)">
       <use xlink:href="#DejaVuSans-48"/>
       <use x="63.623047" xlink:href="#DejaVuSans-46"/>
       <use x="95.410156" xlink:href="#DejaVuSans-48"/>
      </g>
     </g>
    </g>
    <g id="ytick_5">
     <g id="line2d_11">
      <g>
       <use style="stroke:#000000;stroke-width:0.8;" x="123.8" xlink:href="#me2a7917953" y="189.151673"/>
      </g>
     </g>
     <g id="text_12">
      <!-- 0.2 -->
      <g transform="translate(69.090625 200.549329)scale(0.3 -0.3)">
       <use xlink:href="#DejaVuSans-48"/>
       <use x="63.623047" xlink:href="#DejaVuSans-46"/>
       <use x="95.410156" xlink:href="#DejaVuSans-50"/>
      </g>
     </g>
    </g>
    <g id="ytick_6">
     <g id="line2d_12">
      <g>
       <use style="stroke:#000000;stroke-width:0.8;" x="123.8" xlink:href="#me2a7917953" y="122.116292"/>
      </g>
     </g>
     <g id="text_13">
      <!-- 0.4 -->
      <g transform="translate(69.090625 133.513948)scale(0.3 -0.3)">
       <use xlink:href="#DejaVuSans-48"/>
       <use x="63.623047" xlink:href="#DejaVuSans-46"/>
       <use x="95.410156" xlink:href="#DejaVuSans-52"/>
      </g>
     </g>
    </g>
    <g id="ytick_7">
     <g id="line2d_13">
      <g>
       <use style="stroke:#000000;stroke-width:0.8;" x="123.8" xlink:href="#me2a7917953" y="55.08091"/>
      </g>
     </g>
     <g id="text_14">
      <!-- 0.6 -->
      <g transform="translate(69.090625 66.478567)scale(0.3 -0.3)">
       <use xlink:href="#DejaVuSans-48"/>
       <use x="63.623047" xlink:href="#DejaVuSans-46"/>
       <use x="95.410156" xlink:href="#DejaVuSans-54"/>
      </g>
     </g>
    </g>
    <g id="text_15">
     <!-- Weight Value -->
     <defs>
      <path d="M 3.328125 72.90625 
L 13.28125 72.90625 
L 28.609375 11.28125 
L 43.890625 72.90625 
L 54.984375 72.90625 
L 70.3125 11.28125 
L 85.59375 72.90625 
L 95.609375 72.90625 
L 77.296875 0 
L 64.890625 0 
L 49.515625 63.28125 
L 33.984375 0 
L 21.578125 0 
z
" id="DejaVuSans-87"/>
      <path d="M 45.40625 27.984375 
Q 45.40625 37.75 41.375 43.109375 
Q 37.359375 48.484375 30.078125 48.484375 
Q 22.859375 48.484375 18.828125 43.109375 
Q 14.796875 37.75 14.796875 27.984375 
Q 14.796875 18.265625 18.828125 12.890625 
Q 22.859375 7.515625 30.078125 7.515625 
Q 37.359375 7.515625 41.375 12.890625 
Q 45.40625 18.265625 45.40625 27.984375 
z
M 54.390625 6.78125 
Q 54.390625 -7.171875 48.1875 -13.984375 
Q 42 -20.796875 29.203125 -20.796875 
Q 24.46875 -20.796875 20.265625 -20.09375 
Q 16.0625 -19.390625 12.109375 -17.921875 
L 12.109375 -9.1875 
Q 16.0625 -11.328125 19.921875 -12.34375 
Q 23.78125 -13.375 27.78125 -13.375 
Q 36.625 -13.375 41.015625 -8.765625 
Q 45.40625 -4.15625 45.40625 5.171875 
L 45.40625 9.625 
Q 42.625 4.78125 38.28125 2.390625 
Q 33.9375 0 27.875 0 
Q 17.828125 0 11.671875 7.65625 
Q 5.515625 15.328125 5.515625 27.984375 
Q 5.515625 40.671875 11.671875 48.328125 
Q 17.828125 56 27.875 56 
Q 33.9375 56 38.28125 53.609375 
Q 42.625 51.21875 45.40625 46.390625 
L 45.40625 54.6875 
L 54.390625 54.6875 
z
" id="DejaVuSans-103"/>
      <path d="M 54.890625 33.015625 
L 54.890625 0 
L 45.90625 0 
L 45.90625 32.71875 
Q 45.90625 40.484375 42.875 44.328125 
Q 39.84375 48.1875 33.796875 48.1875 
Q 26.515625 48.1875 22.3125 43.546875 
Q 18.109375 38.921875 18.109375 30.90625 
L 18.109375 0 
L 9.078125 0 
L 9.078125 75.984375 
L 18.109375 75.984375 
L 18.109375 46.1875 
Q 21.34375 51.125 25.703125 53.5625 
Q 30.078125 56 35.796875 56 
Q 45.21875 56 50.046875 50.171875 
Q 54.890625 44.34375 54.890625 33.015625 
z
" id="DejaVuSans-104"/>
      <path d="M 28.609375 0 
L 0.78125 72.90625 
L 11.078125 72.90625 
L 34.1875 11.53125 
L 57.328125 72.90625 
L 67.578125 72.90625 
L 39.796875 0 
z
" id="DejaVuSans-86"/>
      <path d="M 9.421875 75.984375 
L 18.40625 75.984375 
L 18.40625 0 
L 9.421875 0 
z
" id="DejaVuSans-108"/>
      <path d="M 8.5 21.578125 
L 8.5 54.6875 
L 17.484375 54.6875 
L 17.484375 21.921875 
Q 17.484375 14.15625 20.5 10.265625 
Q 23.53125 6.390625 29.59375 6.390625 
Q 36.859375 6.390625 41.078125 11.03125 
Q 45.3125 15.671875 45.3125 23.6875 
L 45.3125 54.6875 
L 54.296875 54.6875 
L 54.296875 0 
L 45.3125 0 
L 45.3125 8.40625 
Q 42.046875 3.421875 37.71875 1 
Q 33.40625 -1.421875 27.6875 -1.421875 
Q 18.265625 -1.421875 13.375 4.4375 
Q 8.5 10.296875 8.5 21.578125 
z
M 31.109375 56 
z
" id="DejaVuSans-117"/>
     </defs>
     <g transform="translate(33.7125 353.732813)rotate(-90)scale(0.3 -0.3)">
      <use xlink:href="#DejaVuSans-87"/>
      <use x="98.798828" xlink:href="#DejaVuSans-101"/>
      <use x="160.322266" xlink:href="#DejaVuSans-105"/>
      <use x="188.105469" xlink:href="#DejaVuSans-103"/>
      <use x="251.582031" xlink:href="#DejaVuSans-104"/>
      <use x="314.960938" xlink:href="#DejaVuSans-116"/>
      <use x="354.169922" xlink:href="#DejaVuSans-32"/>
      <use x="385.957031" xlink:href="#DejaVuSans-86"/>
      <use x="454.255859" xlink:href="#DejaVuSans-97"/>
      <use x="515.535156" xlink:href="#DejaVuSans-108"/>
      <use x="543.318359" xlink:href="#DejaVuSans-117"/>
      <use x="606.697266" xlink:href="#DejaVuSans-101"/>
     </g>
    </g>
   </g>
   <g id="line2d_14">
    <path clip-path="url(#p45d03c9181)" d="M 184.062771 305.912791 
L 188.694805 205.63852 
L 193.32684 341.553058 
L 197.958874 274.465072 
L 202.590909 273.352054 
L 207.222944 169.166155 
L 211.854978 354.024947 
L 216.487013 267.9207 
L 221.119048 272.716032 
L 225.751082 290.464228 
L 230.383117 210.847475 
L 235.015152 366.735074 
L 239.647186 226.673524 
L 244.279221 246.897707 
L 248.911255 405.63796 
L 253.54329 287.635257 
L 258.175325 325.57759 
L 262.807359 245.229106 
L 267.439394 258.372436 
L 272.071429 306.247295 
L 276.703463 284.031989 
L 281.335498 300.277409 
L 285.967532 81.104296 
L 290.599567 159.276366 
L 295.231602 351.441559 
L 299.863636 214.124148 
L 304.495671 289.741391 
L 309.127706 251.096027 
L 313.75974 267.916578 
L 318.391775 181.105312 
L 323.02381 207.639456 
L 327.655844 201.407033 
L 332.287879 285.356427 
L 336.919913 232.307248 
L 341.551948 187.25619 
L 346.183983 319.562079 
L 350.816017 249.490689 
L 355.448052 252.409185 
L 360.080087 254.445943 
L 364.712121 279.794484 
L 369.344156 237.10313 
L 373.97619 247.797528 
L 378.608225 256.691021 
L 383.24026 117.364738 
L 387.872294 224.577564 
L 392.504329 339.605059 
L 397.136364 188.265309 
L 401.768398 270.789603 
L 406.400433 259.626214 
L 411.032468 187.016787 
L 415.664502 405.389912 
L 420.296537 381.283527 
L 424.928571 181.069741 
L 429.560606 252.423165 
L 434.192641 267.578954 
L 438.824675 214.101787 
L 443.45671 177.168713 
L 448.088745 270.993911 
L 452.720779 200.707 
L 457.352814 345.899963 
L 461.984848 167.467027 
L 466.616883 312.953768 
L 471.248918 233.283134 
L 475.880952 203.779992 
L 480.512987 188.482381 
L 485.145022 275.64766 
L 489.777056 209.304481 
L 494.409091 246.721517 
L 499.041126 287.822164 
L 503.67316 281.470055 
L 508.305195 359.996371 
L 512.937229 197.277969 
L 517.569264 164.811059 
L 522.201299 274.165609 
L 526.833333 432.133586 
L 531.465368 316.763812 
L 536.097403 257.349411 
L 540.729437 245.629805 
L 545.361472 291.51643 
L 549.993506 238.061392 
L 554.625541 202.906305 
L 559.257576 320.322596 
L 563.88961 425.70787 
L 568.521645 309.72734 
L 573.15368 334.847903 
L 577.785714 226.474907 
L 582.417749 390.007034 
L 587.049784 242.264959 
L 591.681818 192.265479 
L 596.313853 295.814893 
L 600.945887 304.490216 
L 605.577922 230.554712 
L 610.209957 338.485466 
L 614.841991 314.780241 
L 619.474026 210.643693 
L 624.106061 239.900453 
L 628.738095 302.275883 
L 633.37013 313.90104 
L 638.002165 205.782317 
L 642.634199 309.392512 
L 647.266234 330.036118 
L 651.898268 375.360689 
L 656.530303 251.33904 
L 661.162338 175.365909 
L 665.794372 226.179114 
L 670.426407 232.108966 
L 675.058442 295.853855 
L 679.690476 308.742195 
L 684.322511 201.985634 
L 688.954545 229.539632 
L 693.58658 100.347292 
L 698.218615 320.749323 
L 702.850649 273.309544 
L 707.482684 397.476476 
L 712.114719 340.518003 
L 716.746753 268.978262 
L 721.378788 248.395603 
L 726.010823 221.669397 
L 730.642857 188.825844 
L 735.274892 200.094517 
L 739.906926 166.08733 
L 744.538961 219.213871 
L 749.170996 278.121241 
L 753.80303 107.497584 
L 758.435065 278.722749 
L 763.0671 318.066664 
L 767.699134 277.031701 
L 772.331169 213.097863 
L 776.963203 335.921556 
L 781.595238 353.82111 
L 786.227273 230.27585 
L 790.859307 275.396009 
L 795.491342 143.145888 
L 800.123377 186.030543 
L 804.755411 254.15465 
L 809.387446 286.280227 
L 814.019481 155.084121 
L 818.651515 326.308174 
L 823.28355 180.326032 
L 827.915584 119.92657 
L 832.547619 343.653596 
L 837.179654 242.896446 
L 841.811688 267.350957 
L 846.443723 258.928657 
L 851.075758 281.289643 
L 855.707792 231.706762 
L 860.339827 255.489765 
L 864.971861 388.426916 
L 869.603896 246.93254 
L 874.235931 275.084788 
L 878.867965 230.657812 
L 883.5 198.34474 
L 888.132035 159.664221 
L 892.764069 265.83919 
L 897.396104 154.262811 
L 902.028139 241.546025 
L 906.660173 172.396239 
L 911.292208 285.591594 
L 915.924242 278.803396 
L 920.556277 130.860684 
L 925.188312 141.339897 
L 929.820346 220.971976 
L 934.452381 216.414033 
L 939.084416 336.706386 
L 943.71645 312.822302 
L 948.348485 322.769503 
L 952.980519 286.981883 
L 957.612554 167.0269 
L 962.244589 244.640616 
L 966.876623 140.499708 
L 971.508658 222.307705 
L 976.140693 345.012826 
L 980.772727 215.97823 
L 985.404762 290.831695 
L 990.036797 268.712094 
L 994.668831 153.131492 
L 999.300866 343.108673 
L 1003.9329 208.458004 
L 1008.564935 285.943496 
L 1013.19697 283.456974 
L 1017.829004 312.504406 
L 1022.461039 245.429168 
L 1027.093074 260.427962 
L 1031.725108 207.279965 
L 1036.357143 216.523128 
L 1040.989177 226.174444 
L 1045.621212 292.525409 
L 1050.253247 278.765812 
L 1054.885281 268.78681 
L 1059.517316 239.288358 
L 1064.149351 302.347405 
L 1068.781385 296.59067 
L 1073.41342 300.849701 
L 1078.045455 196.428665 
L 1082.677489 188.483894 
L 1087.309524 303.441166 
L 1091.941558 233.358469 
L 1096.573593 326.265207 
L 1101.205628 215.855772 
L 1105.837662 168.94217 
L 1110.469697 293.252442 
L 1115.101732 288.534466 
L 1119.733766 159.509081 
L 1124.365801 178.436393 
L 1128.997835 342.678545 
L 1133.62987 211.957688 
L 1138.261905 198.635371 
L 1142.893939 193.696215 
L 1147.525974 218.134934 
L 1152.158009 206.101187 
L 1156.790043 242.693446 
L 1161.422078 89.460686 
L 1166.054113 314.273721 
L 1170.686147 201.772363 
L 1175.318182 199.741524 
L 1179.950216 231.202087 
L 1184.582251 225.293781 
L 1189.214286 138.567696 
L 1193.84632 273.863829 
L 1198.478355 289.140926 
L 1203.11039 319.184953 
L 1207.742424 249.184501 
L 1212.374459 237.751648 
L 1217.006494 244.049372 
L 1221.638528 242.470192 
L 1226.270563 286.005031 
L 1230.902597 283.377412 
L 1235.534632 164.535101 
L 1240.166667 241.702061 
L 1244.798701 312.213515 
L 1249.430736 349.30595 
L 1254.062771 313.988294 
L 1258.694805 267.557108 
L 1263.32684 316.891422 
L 1267.958874 372.479308 
L 1272.590909 328.599513 
L 1277.222944 281.572243 
L 1281.854978 309.855075 
L 1286.487013 194.215157 
L 1291.119048 362.218056 
L 1295.751082 235.232949 
L 1300.383117 290.782627 
L 1305.015152 408.754144 
L 1309.647186 303.151653 
L 1314.279221 277.550516 
L 1318.911255 111.189807 
L 1323.54329 352.440883 
L 1328.175325 252.124288 
L 1332.807359 317.367959 
L 1337.439394 289.84475 
L 1342.071429 298.357578 
L 1346.703463 230.175176 
L 1351.335498 256.399772 
L 1355.967532 334.666837 
L 1360.599567 397.002945 
L 1365.231602 231.248402 
L 1365.231602 231.248402 
" style="fill:none;stroke:#1f77b4;stroke-linecap:square;stroke-width:1.5;"/>
   </g>
   <g id="line2d_15">
    <path clip-path="url(#p45d03c9181)" d="M 184.062771 212.617869 
L 188.694805 338.996875 
L 193.32684 118.213987 
L 197.958874 221.303361 
L 202.590909 474.136364 
L 207.222944 419.740451 
L 211.854978 243.987268 
L 216.487013 401.512792 
L 221.119048 250.679481 
L 225.751082 366.153542 
L 230.383117 176.858657 
L 235.015152 120.44635 
L 239.647186 309.705424 
L 244.279221 195.95024 
L 248.911255 256.451716 
L 253.54329 201.803648 
L 258.175325 311.144946 
L 262.807359 190.504649 
L 267.439394 377.605528 
L 272.071429 225.801772 
L 276.703463 199.487657 
L 281.335498 230.937058 
L 285.967532 224.428765 
L 290.599567 162.961336 
L 295.231602 349.689489 
L 299.863636 273.653712 
L 304.495671 248.228277 
L 309.127706 207.027987 
L 313.75974 256.020413 
L 318.391775 234.765239 
L 323.02381 220.322391 
L 327.655844 314.325275 
L 332.287879 302.522253 
L 336.919913 263.00419 
L 341.551948 314.920717 
L 346.183983 307.5967 
L 350.816017 161.032061 
L 355.448052 286.130516 
L 360.080087 193.586291 
L 364.712121 234.068947 
L 369.344156 310.954729 
L 373.97619 242.288109 
L 378.608225 250.100501 
L 383.24026 183.817809 
L 387.872294 227.615951 
L 392.504329 288.859417 
L 397.136364 222.436858 
L 401.768398 93.471659 
L 406.400433 188.291775 
L 411.032468 369.334465 
L 415.664502 298.084388 
L 420.296537 250.778862 
L 424.928571 223.540983 
L 429.560606 223.862056 
L 434.192641 322.582563 
L 438.824675 284.164366 
L 443.45671 274.299277 
L 448.088745 240.933677 
L 452.720779 296.490457 
L 457.352814 236.28868 
L 461.984848 360.197181 
L 466.616883 205.232105 
L 471.248918 174.129045 
L 475.880952 345.064759 
L 480.512987 201.543843 
L 485.145022 250.646857 
L 489.777056 326.219766 
L 494.409091 251.355643 
L 499.041126 201.13146 
L 503.67316 171.659082 
L 508.305195 363.055778 
L 512.937229 250.612704 
L 517.569264 305.069116 
L 522.201299 203.949131 
L 526.833333 260.636907 
L 531.465368 247.93583 
L 536.097403 132.116598 
L 540.729437 289.712794 
L 545.361472 314.31613 
L 549.993506 206.891501 
L 554.625541 347.204044 
L 559.257576 326.553855 
L 563.88961 285.031578 
L 568.521645 351.835857 
L 573.15368 428.24347 
L 577.785714 216.09479 
L 582.417749 105.69522 
L 587.049784 147.462586 
L 591.681818 175.851062 
L 596.313853 241.492569 
L 600.945887 239.078271 
L 605.577922 288.2074 
L 610.209957 270.814699 
L 614.841991 271.122508 
L 619.474026 287.831919 
L 624.106061 372.9697 
L 633.37013 262.028204 
L 638.002165 222.607171 
L 642.634199 324.236001 
L 647.266234 184.856176 
L 651.898268 281.16898 
L 656.530303 35.087638 
L 661.162338 314.844885 
L 665.794372 373.77262 
L 670.426407 296.433632 
L 675.058442 152.838143 
L 679.690476 32.863636 
L 684.322511 226.846674 
L 688.954545 158.456295 
L 693.58658 214.684092 
L 698.218615 155.818726 
L 702.850649 296.036964 
L 707.482684 261.923134 
L 712.114719 325.293262 
L 716.746753 313.904321 
L 721.378788 219.905111 
L 726.010823 199.542887 
L 730.642857 171.686043 
L 735.274892 298.599928 
L 739.906926 292.906161 
L 744.538961 245.380488 
L 749.170996 316.058909 
L 753.80303 168.692514 
L 758.435065 263.74492 
L 763.0671 127.349034 
L 767.699134 225.842605 
L 772.331169 228.155782 
L 776.963203 228.52013 
L 781.595238 230.683271 
L 786.227273 249.849614 
L 790.859307 203.615652 
L 795.491342 166.203972 
L 800.123377 139.192601 
L 804.755411 221.098083 
L 809.387446 236.881803 
L 814.019481 340.249287 
L 818.651515 404.589689 
L 823.28355 363.805486 
L 827.915584 182.609364 
L 832.547619 298.176327 
L 837.179654 347.91031 
L 841.811688 236.285003 
L 846.443723 176.896726 
L 851.075758 210.352767 
L 855.707792 353.110869 
L 860.339827 374.964633 
L 864.971861 140.749105 
L 869.603896 123.77665 
L 874.235931 221.961342 
L 878.867965 209.818697 
L 883.5 249.62305 
L 888.132035 265.09245 
L 892.764069 239.65792 
L 897.396104 303.958514 
L 902.028139 228.995249 
L 906.660173 172.526886 
L 911.292208 283.264226 
L 915.924242 211.275955 
L 920.556277 261.840005 
L 925.188312 279.128544 
L 929.820346 228.662297 
L 934.452381 278.697806 
L 939.084416 290.028511 
L 943.71645 305.584886 
L 948.348485 265.737901 
L 952.980519 147.871148 
L 957.612554 92.482963 
L 962.244589 315.528246 
L 966.876623 201.710445 
L 971.508658 246.52898 
L 976.140693 166.205001 
L 980.772727 232.126192 
L 985.404762 263.813094 
L 990.036797 274.535428 
L 994.668831 284.849131 
L 999.300866 273.298241 
L 1003.9329 314.032666 
L 1008.564935 173.2533 
L 1013.19697 350.97564 
L 1017.829004 339.946779 
L 1022.461039 217.976425 
L 1027.093074 347.853862 
L 1031.725108 294.721069 
L 1036.357143 397.269843 
L 1040.989177 312.703208 
L 1045.621212 297.849318 
L 1050.253247 249.678372 
L 1054.885281 318.902258 
L 1059.517316 296.095645 
L 1064.149351 343.019611 
L 1068.781385 260.997453 
L 1073.41342 279.656618 
L 1078.045455 286.298559 
L 1082.677489 281.491272 
L 1087.309524 325.722342 
L 1091.941558 136.672803 
L 1096.573593 176.823371 
L 1101.205628 222.219179 
L 1105.837662 199.236497 
L 1110.469697 211.052825 
L 1115.101732 182.415966 
L 1119.733766 312.099455 
L 1124.365801 184.650821 
L 1128.997835 256.473473 
L 1133.62987 223.941876 
L 1138.261905 286.226533 
L 1142.893939 222.555478 
L 1147.525974 182.547921 
L 1152.158009 330.448716 
L 1156.790043 232.805682 
L 1161.422078 170.349368 
L 1166.054113 191.201765 
L 1170.686147 298.322447 
L 1175.318182 261.345817 
L 1179.950216 284.21795 
L 1184.582251 349.237115 
L 1189.214286 190.469278 
L 1193.84632 230.79124 
L 1198.478355 275.113454 
L 1203.11039 300.699771 
L 1207.742424 224.175038 
L 1212.374459 346.547384 
L 1217.006494 235.094988 
L 1221.638528 224.569755 
L 1226.270563 320.143337 
L 1230.902597 330.918016 
L 1235.534632 365.567944 
L 1240.166667 338.951465 
L 1244.798701 162.484809 
L 1249.430736 313.467755 
L 1254.062771 84.779487 
L 1258.694805 339.55344 
L 1263.32684 277.818737 
L 1267.958874 254.306107 
L 1272.590909 360.135738 
L 1277.222944 321.746235 
L 1281.854978 367.765535 
L 1286.487013 298.246545 
L 1291.119048 269.786331 
L 1295.751082 289.256093 
L 1300.383117 356.468009 
L 1305.015152 350.419439 
L 1309.647186 42.746463 
L 1314.279221 311.762379 
L 1318.911255 240.971988 
L 1323.54329 267.07553 
L 1328.175325 166.238914 
L 1332.807359 334.35351 
L 1337.439394 265.629621 
L 1342.071429 276.047616 
L 1346.703463 218.395134 
L 1351.335498 324.850697 
L 1355.967532 355.552323 
L 1360.599567 297.069635 
L 1365.231602 233.48961 
L 1365.231602 233.48961 
" style="fill:none;stroke:#ff7f0e;stroke-linecap:square;stroke-width:1.5;"/>
   </g>
   <g id="line2d_16">
    <path clip-path="url(#p45d03c9181)" d="M 184.062771 217.04822 
L 188.694805 277.240908 
L 193.32684 333.640002 
L 197.958874 294.724468 
L 202.590909 326.745016 
L 207.222944 246.424314 
L 211.854978 255.710613 
L 216.487013 182.38443 
L 221.119048 189.563056 
L 225.751082 125.503776 
L 230.383117 238.002916 
L 235.015152 346.830373 
L 239.647186 212.987484 
L 244.279221 311.512548 
L 248.911255 318.077901 
L 253.54329 257.83381 
L 258.175325 182.3119 
L 262.807359 259.572252 
L 267.439394 359.898449 
L 272.071429 213.706011 
L 276.703463 391.49816 
L 281.335498 157.120849 
L 285.967532 308.663121 
L 290.599567 333.769026 
L 295.231602 215.390452 
L 299.863636 252.762272 
L 304.495671 330.34474 
L 309.127706 292.34396 
L 313.75974 191.420845 
L 318.391775 111.30541 
L 323.02381 245.795302 
L 327.655844 241.279059 
L 332.287879 332.005254 
L 336.919913 258.253216 
L 341.551948 201.529843 
L 346.183983 250.858588 
L 350.816017 428.49917 
L 355.448052 291.560367 
L 360.080087 195.897902 
L 364.712121 234.811756 
L 369.344156 454.446128 
L 373.97619 226.234713 
L 378.608225 314.858216 
L 383.24026 211.182697 
L 387.872294 135.864969 
L 392.504329 347.084645 
L 397.136364 183.728936 
L 401.768398 403.284789 
L 406.400433 349.325918 
L 411.032468 282.850751 
L 415.664502 268.923087 
L 420.296537 163.048041 
L 424.928571 268.1488 
L 429.560606 237.144933 
L 434.192641 260.645769 
L 438.824675 264.94082 
L 443.45671 324.163615 
L 448.088745 311.005404 
L 452.720779 215.711298 
L 457.352814 371.719221 
L 461.984848 271.058571 
L 466.616883 231.426699 
L 471.248918 317.508985 
L 475.880952 178.649749 
L 480.512987 192.801526 
L 485.145022 142.82441 
L 489.777056 220.763627 
L 494.409091 166.027505 
L 499.041126 202.232199 
L 503.67316 174.528801 
L 508.305195 307.558927 
L 512.937229 241.220331 
L 517.569264 350.253141 
L 522.201299 276.011673 
L 526.833333 176.320622 
L 531.465368 376.602218 
L 536.097403 244.418712 
L 540.729437 281.872082 
L 545.361472 329.971998 
L 549.993506 236.784548 
L 554.625541 268.370724 
L 559.257576 253.462057 
L 563.88961 294.873335 
L 568.521645 346.628105 
L 573.15368 144.10171 
L 577.785714 119.199317 
L 582.417749 165.997538 
L 587.049784 184.817713 
L 591.681818 224.576343 
L 596.313853 216.51666 
L 600.945887 297.711859 
L 605.577922 218.141891 
L 610.209957 279.177478 
L 614.841991 187.531593 
L 619.474026 173.436109 
L 624.106061 419.874035 
L 628.738095 286.497194 
L 633.37013 217.474822 
L 638.002165 186.523863 
L 642.634199 211.966973 
L 647.266234 147.361387 
L 651.898268 294.743715 
L 656.530303 261.965983 
L 661.162338 227.998816 
L 665.794372 234.305438 
L 670.426407 238.15538 
L 675.058442 217.926382 
L 679.690476 318.031457 
L 684.322511 227.442731 
L 688.954545 299.380087 
L 693.58658 170.808075 
L 698.218615 283.289977 
L 702.850649 247.906471 
L 707.482684 236.257857 
L 712.114719 131.771626 
L 716.746753 319.454952 
L 721.378788 238.373012 
L 726.010823 206.242463 
L 730.642857 361.306135 
L 735.274892 268.515052 
L 739.906926 180.666748 
L 744.538961 339.959665 
L 749.170996 346.962429 
L 753.80303 176.38649 
L 758.435065 302.531927 
L 763.0671 190.859565 
L 767.699134 296.227548 
L 772.331169 194.51315 
L 776.963203 207.95574 
L 781.595238 232.623584 
L 786.227273 312.87037 
L 790.859307 266.021635 
L 795.491342 359.93325 
L 800.123377 191.36161 
L 804.755411 277.53571 
L 809.387446 119.074874 
L 814.019481 239.593603 
L 818.651515 226.882263 
L 823.28355 308.9743 
L 827.915584 103.98901 
L 832.547619 238.680545 
L 837.179654 180.55114 
L 841.811688 259.650266 
L 846.443723 271.213479 
L 851.075758 190.065955 
L 855.707792 193.303256 
L 860.339827 336.274025 
L 864.971861 234.980176 
L 869.603896 338.281664 
L 874.235931 272.420342 
L 878.867965 362.153826 
L 883.5 240.61848 
L 888.132035 167.476407 
L 892.764069 337.332515 
L 897.396104 164.33542 
L 902.028139 264.975871 
L 906.660173 325.334442 
L 911.292208 158.686572 
L 915.924242 252.440921 
L 920.556277 104.985548 
L 925.188312 283.701524 
L 929.820346 263.344805 
L 934.452381 364.729703 
L 939.084416 321.887395 
L 943.71645 327.638291 
L 948.348485 344.703785 
L 952.980519 263.744703 
L 957.612554 338.42279 
L 962.244589 186.203324 
L 966.876623 151.355738 
L 971.508658 251.855384 
L 976.140693 207.318723 
L 980.772727 265.33016 
L 985.404762 236.867909 
L 990.036797 187.873733 
L 994.668831 314.961348 
L 999.300866 339.326264 
L 1003.9329 326.63161 
L 1008.564935 241.296919 
L 1013.19697 226.897401 
L 1017.829004 269.628992 
L 1022.461039 226.748055 
L 1027.093074 246.972338 
L 1031.725108 296.267252 
L 1036.357143 235.601007 
L 1040.989177 311.406399 
L 1045.621212 198.030734 
L 1050.253247 252.941272 
L 1054.885281 287.259569 
L 1059.517316 174.094877 
L 1064.149351 272.874703 
L 1068.781385 231.511571 
L 1073.41342 206.07609 
L 1078.045455 183.338914 
L 1082.677489 320.612753 
L 1087.309524 226.323275 
L 1091.941558 162.530379 
L 1096.573593 300.561682 
L 1101.205628 322.579671 
L 1105.837662 211.975134 
L 1110.469697 196.580039 
L 1115.101732 201.03604 
L 1119.733766 267.511575 
L 1124.365801 314.700419 
L 1128.997835 262.835093 
L 1133.62987 331.408758 
L 1138.261905 129.856805 
L 1142.893939 277.040522 
L 1147.525974 323.579026 
L 1152.158009 186.338026 
L 1156.790043 413.570315 
L 1161.422078 182.913081 
L 1166.054113 198.165581 
L 1170.686147 315.749973 
L 1175.318182 266.561636 
L 1179.950216 299.322056 
L 1184.582251 153.512154 
L 1189.214286 177.424153 
L 1193.84632 223.685415 
L 1198.478355 275.340916 
L 1203.11039 201.321742 
L 1207.742424 225.750771 
L 1212.374459 200.718153 
L 1217.006494 330.390694 
L 1221.638528 274.008218 
L 1226.270563 204.289134 
L 1230.902597 214.579062 
L 1235.534632 278.38426 
L 1240.166667 315.956172 
L 1244.798701 193.577111 
L 1249.430736 231.141449 
L 1254.062771 212.531079 
L 1258.694805 235.116209 
L 1263.32684 211.004882 
L 1267.958874 216.307212 
L 1272.590909 343.821362 
L 1277.222944 203.890631 
L 1281.854978 326.820588 
L 1286.487013 243.809345 
L 1291.119048 250.310921 
L 1295.751082 152.5033 
L 1300.383117 326.728619 
L 1305.015152 147.03029 
L 1309.647186 252.505724 
L 1314.279221 253.850143 
L 1318.911255 209.372941 
L 1323.54329 248.105692 
L 1328.175325 206.542634 
L 1332.807359 235.803482 
L 1337.439394 350.761025 
L 1342.071429 283.667628 
L 1346.703463 260.166544 
L 1351.335498 306.50212 
L 1355.967532 200.229679 
L 1360.599567 315.759198 
L 1365.231602 171.88921 
L 1365.231602 171.88921 
" style="fill:none;stroke:#2ca02c;stroke-linecap:square;stroke-width:1.5;"/>
   </g>
   <g id="patch_13">
    <path d="M 123.8 496.2 
L 123.8 10.8 
" style="fill:none;stroke:#000000;stroke-linecap:square;stroke-linejoin:miter;stroke-width:0.8;"/>
   </g>
   <g id="patch_14">
    <path d="M 1429.2 496.2 
L 1429.2 10.8 
" style="fill:none;stroke:#000000;stroke-linecap:square;stroke-linejoin:miter;stroke-width:0.8;"/>
   </g>
   <g id="patch_15">
    <path d="M 123.8 496.2 
L 1429.2 496.2 
" style="fill:none;stroke:#000000;stroke-linecap:square;stroke-linejoin:miter;stroke-width:0.8;"/>
   </g>
   <g id="patch_16">
    <path d="M 123.8 10.8 
L 1429.2 10.8 
" style="fill:none;stroke:#000000;stroke-linecap:square;stroke-linejoin:miter;stroke-width:0.8;"/>
   </g>
  </g>
 </g>
 <defs>
  <clipPath id="p45d03c9181">
   <rect height="485.4" width="1305.4" x="123.8" y="10.8"/>
  </clipPath>
 </defs>
</svg>
