<?xml version="1.0" encoding="utf-8" standalone="no"?>
<!DOCTYPE svg PUBLIC "-//W3C//DTD SVG 1.1//EN"
  "http://www.w3.org/Graphics/SVG/1.1/DTD/svg11.dtd">
<!-- Created with matplotlib (https://matplotlib.org/) -->
<svg height="576pt" version="1.1" viewBox="0 0 1440 576" width="1440pt" xmlns="http://www.w3.org/2000/svg" xmlns:xlink="http://www.w3.org/1999/xlink">
 <defs>
  <style type="text/css">
*{stroke-linecap:butt;stroke-linejoin:round;white-space:pre;}
  </style>
 </defs>
 <g id="figure_1">
  <g id="patch_1">
   <path d="M 0 576 
L 1440 576 
L 1440 0 
L 0 0 
z
" style="fill:#ffffff;"/>
  </g>
  <g id="axes_1">
   <g id="patch_2">
    <path d="M 95.05 496.2 
L 1429.2 496.2 
L 1429.2 10.8 
L 95.05 10.8 
z
" style="fill:#ffffff;"/>
   </g>
   <g id="patch_3">
    <path clip-path="url(#pf827d7ad3f)" d="M 155.693182 496.2 
L 155.693182 10.8 
L 156.639992 10.8 
L 156.639992 496.2 
z
" style="fill:#0000ff;"/>
   </g>
   <g id="patch_4">
    <path clip-path="url(#pf827d7ad3f)" d="M 160.427232 496.2 
L 160.427232 10.8 
L 161.374042 10.8 
L 161.374042 496.2 
z
" style="fill:#0000ff;"/>
   </g>
   <g id="patch_5">
    <path clip-path="url(#pf827d7ad3f)" d="M 198.299633 496.2 
L 198.299633 10.8 
L 199.246443 10.8 
L 199.246443 496.2 
z
" style="fill:#0000ff;"/>
   </g>
   <g id="patch_6">
    <path clip-path="url(#pf827d7ad3f)" d="M 330.853036 496.2 
L 330.853036 10.8 
L 331.799846 10.8 
L 331.799846 496.2 
z
" style="fill:#0000ff;"/>
   </g>
   <g id="patch_7">
    <path clip-path="url(#pf827d7ad3f)" d="M 595.959841 496.2 
L 595.959841 10.8 
L 596.906651 10.8 
L 596.906651 496.2 
z
" style="fill:#0000ff;"/>
   </g>
   <g id="patch_8">
    <path clip-path="url(#pf827d7ad3f)" d="M 927.343349 496.2 
L 927.343349 10.8 
L 928.290159 10.8 
L 928.290159 496.2 
z
" style="fill:#0000ff;"/>
   </g>
   <g id="patch_9">
    <path clip-path="url(#pf827d7ad3f)" d="M 1192.450154 496.2 
L 1192.450154 10.8 
L 1193.396964 10.8 
L 1193.396964 496.2 
z
" style="fill:#0000ff;"/>
   </g>
   <g id="patch_10">
    <path clip-path="url(#pf827d7ad3f)" d="M 1325.003557 496.2 
L 1325.003557 10.8 
L 1325.950367 10.8 
L 1325.950367 496.2 
z
" style="fill:#0000ff;"/>
   </g>
   <g id="patch_11">
    <path clip-path="url(#pf827d7ad3f)" d="M 1362.875958 496.2 
L 1362.875958 10.8 
L 1363.822768 10.8 
L 1363.822768 496.2 
z
" style="fill:#0000ff;"/>
   </g>
   <g id="patch_12">
    <path clip-path="url(#pf827d7ad3f)" d="M 1367.610008 496.2 
L 1367.610008 10.8 
L 1368.556818 10.8 
L 1368.556818 496.2 
z
" style="fill:#0000ff;"/>
   </g>
   <g id="matplotlib.axis_1">
    <g id="xtick_1">
     <g id="line2d_1">
      <defs>
       <path d="M 0 0 
L 0 3.5 
" id="mf8bdac8a5b" style="stroke:#000000;stroke-width:0.8;"/>
      </defs>
      <g>
       <use style="stroke:#000000;stroke-width:0.8;" x="156.639992" xlink:href="#mf8bdac8a5b" y="496.2"/>
      </g>
     </g>
     <g id="text_1">
      <!-- 0 -->
      <defs>
       <path d="M 31.78125 66.40625 
Q 24.171875 66.40625 20.328125 58.90625 
Q 16.5 51.421875 16.5 36.375 
Q 16.5 21.390625 20.328125 13.890625 
Q 24.171875 6.390625 31.78125 6.390625 
Q 39.453125 6.390625 43.28125 13.890625 
Q 47.125 21.390625 47.125 36.375 
Q 47.125 51.421875 43.28125 58.90625 
Q 39.453125 66.40625 31.78125 66.40625 
z
M 31.78125 74.21875 
Q 44.046875 74.21875 50.515625 64.515625 
Q 56.984375 54.828125 56.984375 36.375 
Q 56.984375 17.96875 50.515625 8.265625 
Q 44.046875 -1.421875 31.78125 -1.421875 
Q 19.53125 -1.421875 13.0625 8.265625 
Q 6.59375 17.96875 6.59375 36.375 
Q 6.59375 54.828125 13.0625 64.515625 
Q 19.53125 74.21875 31.78125 74.21875 
z
" id="DejaVuSans-48"/>
      </defs>
      <g transform="translate(147.096242 525.995312)scale(0.3 -0.3)">
       <use xlink:href="#DejaVuSans-48"/>
      </g>
     </g>
    </g>
    <g id="xtick_2">
     <g id="line2d_2">
      <g>
       <use style="stroke:#000000;stroke-width:0.8;" x="393.342497" xlink:href="#mf8bdac8a5b" y="496.2"/>
      </g>
     </g>
     <g id="text_2">
      <!-- 50 -->
      <defs>
       <path d="M 10.796875 72.90625 
L 49.515625 72.90625 
L 49.515625 64.59375 
L 19.828125 64.59375 
L 19.828125 46.734375 
Q 21.96875 47.46875 24.109375 47.828125 
Q 26.265625 48.1875 28.421875 48.1875 
Q 40.625 48.1875 47.75 41.5 
Q 54.890625 34.8125 54.890625 23.390625 
Q 54.890625 11.625 47.5625 5.09375 
Q 40.234375 -1.421875 26.90625 -1.421875 
Q 22.3125 -1.421875 17.546875 -0.640625 
Q 12.796875 0.140625 7.71875 1.703125 
L 7.71875 11.625 
Q 12.109375 9.234375 16.796875 8.0625 
Q 21.484375 6.890625 26.703125 6.890625 
Q 35.15625 6.890625 40.078125 11.328125 
Q 45.015625 15.765625 45.015625 23.390625 
Q 45.015625 31 40.078125 35.4375 
Q 35.15625 39.890625 26.703125 39.890625 
Q 22.75 39.890625 18.8125 39.015625 
Q 14.890625 38.140625 10.796875 36.28125 
z
" id="DejaVuSans-53"/>
      </defs>
      <g transform="translate(374.254997 525.995312)scale(0.3 -0.3)">
       <use xlink:href="#DejaVuSans-53"/>
       <use x="63.623047" xlink:href="#DejaVuSans-48"/>
      </g>
     </g>
    </g>
    <g id="xtick_3">
     <g id="line2d_3">
      <g>
       <use style="stroke:#000000;stroke-width:0.8;" x="630.045002" xlink:href="#mf8bdac8a5b" y="496.2"/>
      </g>
     </g>
     <g id="text_3">
      <!-- 100 -->
      <defs>
       <path d="M 12.40625 8.296875 
L 28.515625 8.296875 
L 28.515625 63.921875 
L 10.984375 60.40625 
L 10.984375 69.390625 
L 28.421875 72.90625 
L 38.28125 72.90625 
L 38.28125 8.296875 
L 54.390625 8.296875 
L 54.390625 0 
L 12.40625 0 
z
" id="DejaVuSans-49"/>
      </defs>
      <g transform="translate(601.413752 525.995312)scale(0.3 -0.3)">
       <use xlink:href="#DejaVuSans-49"/>
       <use x="63.623047" xlink:href="#DejaVuSans-48"/>
       <use x="127.246094" xlink:href="#DejaVuSans-48"/>
      </g>
     </g>
    </g>
    <g id="xtick_4">
     <g id="line2d_4">
      <g>
       <use style="stroke:#000000;stroke-width:0.8;" x="866.747507" xlink:href="#mf8bdac8a5b" y="496.2"/>
      </g>
     </g>
     <g id="text_4">
      <!-- 150 -->
      <g transform="translate(838.116257 525.995312)scale(0.3 -0.3)">
       <use xlink:href="#DejaVuSans-49"/>
       <use x="63.623047" xlink:href="#DejaVuSans-53"/>
       <use x="127.246094" xlink:href="#DejaVuSans-48"/>
      </g>
     </g>
    </g>
    <g id="xtick_5">
     <g id="line2d_5">
      <g>
       <use style="stroke:#000000;stroke-width:0.8;" x="1103.450012" xlink:href="#mf8bdac8a5b" y="496.2"/>
      </g>
     </g>
     <g id="text_5">
      <!-- 200 -->
      <defs>
       <path d="M 19.1875 8.296875 
L 53.609375 8.296875 
L 53.609375 0 
L 7.328125 0 
L 7.328125 8.296875 
Q 12.9375 14.109375 22.625 23.890625 
Q 32.328125 33.6875 34.8125 36.53125 
Q 39.546875 41.84375 41.421875 45.53125 
Q 43.3125 49.21875 43.3125 52.78125 
Q 43.3125 58.59375 39.234375 62.25 
Q 35.15625 65.921875 28.609375 65.921875 
Q 23.96875 65.921875 18.8125 64.3125 
Q 13.671875 62.703125 7.8125 59.421875 
L 7.8125 69.390625 
Q 13.765625 71.78125 18.9375 73 
Q 24.125 74.21875 28.421875 74.21875 
Q 39.75 74.21875 46.484375 68.546875 
Q 53.21875 62.890625 53.21875 53.421875 
Q 53.21875 48.921875 51.53125 44.890625 
Q 49.859375 40.875 45.40625 35.40625 
Q 44.1875 33.984375 37.640625 27.21875 
Q 31.109375 20.453125 19.1875 8.296875 
z
" id="DejaVuSans-50"/>
      </defs>
      <g transform="translate(1074.818762 525.995312)scale(0.3 -0.3)">
       <use xlink:href="#DejaVuSans-50"/>
       <use x="63.623047" xlink:href="#DejaVuSans-48"/>
       <use x="127.246094" xlink:href="#DejaVuSans-48"/>
      </g>
     </g>
    </g>
    <g id="xtick_6">
     <g id="line2d_6">
      <g>
       <use style="stroke:#000000;stroke-width:0.8;" x="1340.152518" xlink:href="#mf8bdac8a5b" y="496.2"/>
      </g>
     </g>
     <g id="text_6">
      <!-- 250 -->
      <g transform="translate(1311.521268 525.995312)scale(0.3 -0.3)">
       <use xlink:href="#DejaVuSans-50"/>
       <use x="63.623047" xlink:href="#DejaVuSans-53"/>
       <use x="127.246094" xlink:href="#DejaVuSans-48"/>
      </g>
     </g>
    </g>
    <g id="text_7">
     <!-- Bit Interaction -->
     <defs>
      <path d="M 19.671875 34.8125 
L 19.671875 8.109375 
L 35.5 8.109375 
Q 43.453125 8.109375 47.28125 11.40625 
Q 51.125 14.703125 51.125 21.484375 
Q 51.125 28.328125 47.28125 31.5625 
Q 43.453125 34.8125 35.5 34.8125 
z
M 19.671875 64.796875 
L 19.671875 42.828125 
L 34.28125 42.828125 
Q 41.5 42.828125 45.03125 45.53125 
Q 48.578125 48.25 48.578125 53.8125 
Q 48.578125 59.328125 45.03125 62.0625 
Q 41.5 64.796875 34.28125 64.796875 
z
M 9.8125 72.90625 
L 35.015625 72.90625 
Q 46.296875 72.90625 52.390625 68.21875 
Q 58.5 63.53125 58.5 54.890625 
Q 58.5 48.1875 55.375 44.234375 
Q 52.25 40.28125 46.1875 39.3125 
Q 53.46875 37.75 57.5 32.78125 
Q 61.53125 27.828125 61.53125 20.40625 
Q 61.53125 10.640625 54.890625 5.3125 
Q 48.25 0 35.984375 0 
L 9.8125 0 
z
" id="DejaVuSans-66"/>
      <path d="M 9.421875 54.6875 
L 18.40625 54.6875 
L 18.40625 0 
L 9.421875 0 
z
M 9.421875 75.984375 
L 18.40625 75.984375 
L 18.40625 64.59375 
L 9.421875 64.59375 
z
" id="DejaVuSans-105"/>
      <path d="M 18.3125 70.21875 
L 18.3125 54.6875 
L 36.8125 54.6875 
L 36.8125 47.703125 
L 18.3125 47.703125 
L 18.3125 18.015625 
Q 18.3125 11.328125 20.140625 9.421875 
Q 21.96875 7.515625 27.59375 7.515625 
L 36.8125 7.515625 
L 36.8125 0 
L 27.59375 0 
Q 17.1875 0 13.234375 3.875 
Q 9.28125 7.765625 9.28125 18.015625 
L 9.28125 47.703125 
L 2.6875 47.703125 
L 2.6875 54.6875 
L 9.28125 54.6875 
L 9.28125 70.21875 
z
" id="DejaVuSans-116"/>
      <path id="DejaVuSans-32"/>
      <path d="M 9.8125 72.90625 
L 19.671875 72.90625 
L 19.671875 0 
L 9.8125 0 
z
" id="DejaVuSans-73"/>
      <path d="M 54.890625 33.015625 
L 54.890625 0 
L 45.90625 0 
L 45.90625 32.71875 
Q 45.90625 40.484375 42.875 44.328125 
Q 39.84375 48.1875 33.796875 48.1875 
Q 26.515625 48.1875 22.3125 43.546875 
Q 18.109375 38.921875 18.109375 30.90625 
L 18.109375 0 
L 9.078125 0 
L 9.078125 54.6875 
L 18.109375 54.6875 
L 18.109375 46.1875 
Q 21.34375 51.125 25.703125 53.5625 
Q 30.078125 56 35.796875 56 
Q 45.21875 56 50.046875 50.171875 
Q 54.890625 44.34375 54.890625 33.015625 
z
" id="DejaVuSans-110"/>
      <path d="M 56.203125 29.59375 
L 56.203125 25.203125 
L 14.890625 25.203125 
Q 15.484375 15.921875 20.484375 11.0625 
Q 25.484375 6.203125 34.421875 6.203125 
Q 39.59375 6.203125 44.453125 7.46875 
Q 49.3125 8.734375 54.109375 11.28125 
L 54.109375 2.78125 
Q 49.265625 0.734375 44.1875 -0.34375 
Q 39.109375 -1.421875 33.890625 -1.421875 
Q 20.796875 -1.421875 13.15625 6.1875 
Q 5.515625 13.8125 5.515625 26.8125 
Q 5.515625 40.234375 12.765625 48.109375 
Q 20.015625 56 32.328125 56 
Q 43.359375 56 49.78125 48.890625 
Q 56.203125 41.796875 56.203125 29.59375 
z
M 47.21875 32.234375 
Q 47.125 39.59375 43.09375 43.984375 
Q 39.0625 48.390625 32.421875 48.390625 
Q 24.90625 48.390625 20.390625 44.140625 
Q 15.875 39.890625 15.1875 32.171875 
z
" id="DejaVuSans-101"/>
      <path d="M 41.109375 46.296875 
Q 39.59375 47.171875 37.8125 47.578125 
Q 36.03125 48 33.890625 48 
Q 26.265625 48 22.1875 43.046875 
Q 18.109375 38.09375 18.109375 28.8125 
L 18.109375 0 
L 9.078125 0 
L 9.078125 54.6875 
L 18.109375 54.6875 
L 18.109375 46.1875 
Q 20.953125 51.171875 25.484375 53.578125 
Q 30.03125 56 36.53125 56 
Q 37.453125 56 38.578125 55.875 
Q 39.703125 55.765625 41.0625 55.515625 
z
" id="DejaVuSans-114"/>
      <path d="M 34.28125 27.484375 
Q 23.390625 27.484375 19.1875 25 
Q 14.984375 22.515625 14.984375 16.5 
Q 14.984375 11.71875 18.140625 8.90625 
Q 21.296875 6.109375 26.703125 6.109375 
Q 34.1875 6.109375 38.703125 11.40625 
Q 43.21875 16.703125 43.21875 25.484375 
L 43.21875 27.484375 
z
M 52.203125 31.203125 
L 52.203125 0 
L 43.21875 0 
L 43.21875 8.296875 
Q 40.140625 3.328125 35.546875 0.953125 
Q 30.953125 -1.421875 24.3125 -1.421875 
Q 15.921875 -1.421875 10.953125 3.296875 
Q 6 8.015625 6 15.921875 
Q 6 25.140625 12.171875 29.828125 
Q 18.359375 34.515625 30.609375 34.515625 
L 43.21875 34.515625 
L 43.21875 35.40625 
Q 43.21875 41.609375 39.140625 45 
Q 35.0625 48.390625 27.6875 48.390625 
Q 23 48.390625 18.546875 47.265625 
Q 14.109375 46.140625 10.015625 43.890625 
L 10.015625 52.203125 
Q 14.9375 54.109375 19.578125 55.046875 
Q 24.21875 56 28.609375 56 
Q 40.484375 56 46.34375 49.84375 
Q 52.203125 43.703125 52.203125 31.203125 
z
" id="DejaVuSans-97"/>
      <path d="M 48.78125 52.59375 
L 48.78125 44.1875 
Q 44.96875 46.296875 41.140625 47.34375 
Q 37.3125 48.390625 33.40625 48.390625 
Q 24.65625 48.390625 19.8125 42.84375 
Q 14.984375 37.3125 14.984375 27.296875 
Q 14.984375 17.28125 19.8125 11.734375 
Q 24.65625 6.203125 33.40625 6.203125 
Q 37.3125 6.203125 41.140625 7.25 
Q 44.96875 8.296875 48.78125 10.40625 
L 48.78125 2.09375 
Q 45.015625 0.34375 40.984375 -0.53125 
Q 36.96875 -1.421875 32.421875 -1.421875 
Q 20.0625 -1.421875 12.78125 6.34375 
Q 5.515625 14.109375 5.515625 27.296875 
Q 5.515625 40.671875 12.859375 48.328125 
Q 20.21875 56 33.015625 56 
Q 37.15625 56 41.109375 55.140625 
Q 45.0625 54.296875 48.78125 52.59375 
z
" id="DejaVuSans-99"/>
      <path d="M 30.609375 48.390625 
Q 23.390625 48.390625 19.1875 42.75 
Q 14.984375 37.109375 14.984375 27.296875 
Q 14.984375 17.484375 19.15625 11.84375 
Q 23.34375 6.203125 30.609375 6.203125 
Q 37.796875 6.203125 41.984375 11.859375 
Q 46.1875 17.53125 46.1875 27.296875 
Q 46.1875 37.015625 41.984375 42.703125 
Q 37.796875 48.390625 30.609375 48.390625 
z
M 30.609375 56 
Q 42.328125 56 49.015625 48.375 
Q 55.71875 40.765625 55.71875 27.296875 
Q 55.71875 13.875 49.015625 6.21875 
Q 42.328125 -1.421875 30.609375 -1.421875 
Q 18.84375 -1.421875 12.171875 6.21875 
Q 5.515625 13.875 5.515625 27.296875 
Q 5.515625 40.765625 12.171875 48.375 
Q 18.84375 56 30.609375 56 
z
" id="DejaVuSans-111"/>
     </defs>
     <g transform="translate(655.639063 559.029688)scale(0.3 -0.3)">
      <use xlink:href="#DejaVuSans-66"/>
      <use x="68.603516" xlink:href="#DejaVuSans-105"/>
      <use x="96.386719" xlink:href="#DejaVuSans-116"/>
      <use x="135.595703" xlink:href="#DejaVuSans-32"/>
      <use x="167.382812" xlink:href="#DejaVuSans-73"/>
      <use x="196.875" xlink:href="#DejaVuSans-110"/>
      <use x="260.253906" xlink:href="#DejaVuSans-116"/>
      <use x="299.462891" xlink:href="#DejaVuSans-101"/>
      <use x="360.986328" xlink:href="#DejaVuSans-114"/>
      <use x="402.099609" xlink:href="#DejaVuSans-97"/>
      <use x="463.378906" xlink:href="#DejaVuSans-99"/>
      <use x="518.359375" xlink:href="#DejaVuSans-116"/>
      <use x="557.568359" xlink:href="#DejaVuSans-105"/>
      <use x="585.351562" xlink:href="#DejaVuSans-111"/>
      <use x="646.533203" xlink:href="#DejaVuSans-110"/>
     </g>
    </g>
   </g>
   <g id="matplotlib.axis_2">
    <g id="ytick_1">
     <g id="line2d_7">
      <defs>
       <path d="M 0 0 
L -3.5 0 
" id="mf524274483" style="stroke:#000000;stroke-width:0.8;"/>
      </defs>
      <g>
       <use style="stroke:#000000;stroke-width:0.8;" x="95.05" xlink:href="#mf524274483" y="434.552647"/>
      </g>
     </g>
     <g id="text_8">
      <!-- −4 -->
      <defs>
       <path d="M 10.59375 35.5 
L 73.1875 35.5 
L 73.1875 27.203125 
L 10.59375 27.203125 
z
" id="DejaVuSans-8722"/>
       <path d="M 37.796875 64.3125 
L 12.890625 25.390625 
L 37.796875 25.390625 
z
M 35.203125 72.90625 
L 47.609375 72.90625 
L 47.609375 25.390625 
L 58.015625 25.390625 
L 58.015625 17.1875 
L 47.609375 17.1875 
L 47.609375 0 
L 37.796875 0 
L 37.796875 17.1875 
L 4.890625 17.1875 
L 4.890625 26.703125 
z
" id="DejaVuSans-52"/>
      </defs>
      <g transform="translate(43.823438 445.950304)scale(0.3 -0.3)">
       <use xlink:href="#DejaVuSans-8722"/>
       <use x="83.789062" xlink:href="#DejaVuSans-52"/>
      </g>
     </g>
    </g>
    <g id="ytick_2">
     <g id="line2d_8">
      <g>
       <use style="stroke:#000000;stroke-width:0.8;" x="95.05" xlink:href="#mf524274483" y="348.799508"/>
      </g>
     </g>
     <g id="text_9">
      <!-- −3 -->
      <defs>
       <path d="M 40.578125 39.3125 
Q 47.65625 37.796875 51.625 33 
Q 55.609375 28.21875 55.609375 21.1875 
Q 55.609375 10.40625 48.1875 4.484375 
Q 40.765625 -1.421875 27.09375 -1.421875 
Q 22.515625 -1.421875 17.65625 -0.515625 
Q 12.796875 0.390625 7.625 2.203125 
L 7.625 11.71875 
Q 11.71875 9.328125 16.59375 8.109375 
Q 21.484375 6.890625 26.8125 6.890625 
Q 36.078125 6.890625 40.9375 10.546875 
Q 45.796875 14.203125 45.796875 21.1875 
Q 45.796875 27.640625 41.28125 31.265625 
Q 36.765625 34.90625 28.71875 34.90625 
L 20.21875 34.90625 
L 20.21875 43.015625 
L 29.109375 43.015625 
Q 36.375 43.015625 40.234375 45.921875 
Q 44.09375 48.828125 44.09375 54.296875 
Q 44.09375 59.90625 40.109375 62.90625 
Q 36.140625 65.921875 28.71875 65.921875 
Q 24.65625 65.921875 20.015625 65.03125 
Q 15.375 64.15625 9.8125 62.3125 
L 9.8125 71.09375 
Q 15.4375 72.65625 20.34375 73.4375 
Q 25.25 74.21875 29.59375 74.21875 
Q 40.828125 74.21875 47.359375 69.109375 
Q 53.90625 64.015625 53.90625 55.328125 
Q 53.90625 49.265625 50.4375 45.09375 
Q 46.96875 40.921875 40.578125 39.3125 
z
" id="DejaVuSans-51"/>
      </defs>
      <g transform="translate(43.823438 360.197164)scale(0.3 -0.3)">
       <use xlink:href="#DejaVuSans-8722"/>
       <use x="83.789062" xlink:href="#DejaVuSans-51"/>
      </g>
     </g>
    </g>
    <g id="ytick_3">
     <g id="line2d_9">
      <g>
       <use style="stroke:#000000;stroke-width:0.8;" x="95.05" xlink:href="#mf524274483" y="263.046368"/>
      </g>
     </g>
     <g id="text_10">
      <!-- −2 -->
      <g transform="translate(43.823438 274.444024)scale(0.3 -0.3)">
       <use xlink:href="#DejaVuSans-8722"/>
       <use x="83.789062" xlink:href="#DejaVuSans-50"/>
      </g>
     </g>
    </g>
    <g id="ytick_4">
     <g id="line2d_10">
      <g>
       <use style="stroke:#000000;stroke-width:0.8;" x="95.05" xlink:href="#mf524274483" y="177.293229"/>
      </g>
     </g>
     <g id="text_11">
      <!-- −1 -->
      <g transform="translate(43.823438 188.690885)scale(0.3 -0.3)">
       <use xlink:href="#DejaVuSans-8722"/>
       <use x="83.789062" xlink:href="#DejaVuSans-49"/>
      </g>
     </g>
    </g>
    <g id="ytick_5">
     <g id="line2d_11">
      <g>
       <use style="stroke:#000000;stroke-width:0.8;" x="95.05" xlink:href="#mf524274483" y="91.540089"/>
      </g>
     </g>
     <g id="text_12">
      <!-- 0 -->
      <g transform="translate(68.9625 102.937745)scale(0.3 -0.3)">
       <use xlink:href="#DejaVuSans-48"/>
      </g>
     </g>
    </g>
    <g id="text_13">
     <!-- Weight Value -->
     <defs>
      <path d="M 3.328125 72.90625 
L 13.28125 72.90625 
L 28.609375 11.28125 
L 43.890625 72.90625 
L 54.984375 72.90625 
L 70.3125 11.28125 
L 85.59375 72.90625 
L 95.609375 72.90625 
L 77.296875 0 
L 64.890625 0 
L 49.515625 63.28125 
L 33.984375 0 
L 21.578125 0 
z
" id="DejaVuSans-87"/>
      <path d="M 45.40625 27.984375 
Q 45.40625 37.75 41.375 43.109375 
Q 37.359375 48.484375 30.078125 48.484375 
Q 22.859375 48.484375 18.828125 43.109375 
Q 14.796875 37.75 14.796875 27.984375 
Q 14.796875 18.265625 18.828125 12.890625 
Q 22.859375 7.515625 30.078125 7.515625 
Q 37.359375 7.515625 41.375 12.890625 
Q 45.40625 18.265625 45.40625 27.984375 
z
M 54.390625 6.78125 
Q 54.390625 -7.171875 48.1875 -13.984375 
Q 42 -20.796875 29.203125 -20.796875 
Q 24.46875 -20.796875 20.265625 -20.09375 
Q 16.0625 -19.390625 12.109375 -17.921875 
L 12.109375 -9.1875 
Q 16.0625 -11.328125 19.921875 -12.34375 
Q 23.78125 -13.375 27.78125 -13.375 
Q 36.625 -13.375 41.015625 -8.765625 
Q 45.40625 -4.15625 45.40625 5.171875 
L 45.40625 9.625 
Q 42.625 4.78125 38.28125 2.390625 
Q 33.9375 0 27.875 0 
Q 17.828125 0 11.671875 7.65625 
Q 5.515625 15.328125 5.515625 27.984375 
Q 5.515625 40.671875 11.671875 48.328125 
Q 17.828125 56 27.875 56 
Q 33.9375 56 38.28125 53.609375 
Q 42.625 51.21875 45.40625 46.390625 
L 45.40625 54.6875 
L 54.390625 54.6875 
z
" id="DejaVuSans-103"/>
      <path d="M 54.890625 33.015625 
L 54.890625 0 
L 45.90625 0 
L 45.90625 32.71875 
Q 45.90625 40.484375 42.875 44.328125 
Q 39.84375 48.1875 33.796875 48.1875 
Q 26.515625 48.1875 22.3125 43.546875 
Q 18.109375 38.921875 18.109375 30.90625 
L 18.109375 0 
L 9.078125 0 
L 9.078125 75.984375 
L 18.109375 75.984375 
L 18.109375 46.1875 
Q 21.34375 51.125 25.703125 53.5625 
Q 30.078125 56 35.796875 56 
Q 45.21875 56 50.046875 50.171875 
Q 54.890625 44.34375 54.890625 33.015625 
z
" id="DejaVuSans-104"/>
      <path d="M 28.609375 0 
L 0.78125 72.90625 
L 11.078125 72.90625 
L 34.1875 11.53125 
L 57.328125 72.90625 
L 67.578125 72.90625 
L 39.796875 0 
z
" id="DejaVuSans-86"/>
      <path d="M 9.421875 75.984375 
L 18.40625 75.984375 
L 18.40625 0 
L 9.421875 0 
z
" id="DejaVuSans-108"/>
      <path d="M 8.5 21.578125 
L 8.5 54.6875 
L 17.484375 54.6875 
L 17.484375 21.921875 
Q 17.484375 14.15625 20.5 10.265625 
Q 23.53125 6.390625 29.59375 6.390625 
Q 36.859375 6.390625 41.078125 11.03125 
Q 45.3125 15.671875 45.3125 23.6875 
L 45.3125 54.6875 
L 54.296875 54.6875 
L 54.296875 0 
L 45.3125 0 
L 45.3125 8.40625 
Q 42.046875 3.421875 37.71875 1 
Q 33.40625 -1.421875 27.6875 -1.421875 
Q 18.265625 -1.421875 13.375 4.4375 
Q 8.5 10.296875 8.5 21.578125 
z
M 31.109375 56 
z
" id="DejaVuSans-117"/>
     </defs>
     <g transform="translate(33.584375 353.732813)rotate(-90)scale(0.3 -0.3)">
      <use xlink:href="#DejaVuSans-87"/>
      <use x="98.798828" xlink:href="#DejaVuSans-101"/>
      <use x="160.322266" xlink:href="#DejaVuSans-105"/>
      <use x="188.105469" xlink:href="#DejaVuSans-103"/>
      <use x="251.582031" xlink:href="#DejaVuSans-104"/>
      <use x="314.960938" xlink:href="#DejaVuSans-116"/>
      <use x="354.169922" xlink:href="#DejaVuSans-32"/>
      <use x="385.957031" xlink:href="#DejaVuSans-86"/>
      <use x="454.255859" xlink:href="#DejaVuSans-97"/>
      <use x="515.535156" xlink:href="#DejaVuSans-108"/>
      <use x="543.318359" xlink:href="#DejaVuSans-117"/>
      <use x="606.697266" xlink:href="#DejaVuSans-101"/>
     </g>
    </g>
   </g>
   <g id="line2d_12">
    <path clip-path="url(#pf827d7ad3f)" d="M 156.639992 95.351479 
L 161.374042 92.816809 
L 166.108092 87.120012 
L 170.842142 88.663422 
L 175.576192 70.953676 
L 180.310242 94.697975 
L 185.044292 76.864772 
L 189.778343 84.056697 
L 194.512393 83.933651 
L 199.246443 90.807969 
L 203.980493 119.01757 
L 208.714543 84.347166 
L 218.182643 127.786966 
L 222.916693 85.339863 
L 227.650743 101.931666 
L 232.384793 82.876078 
L 237.118844 46.181576 
L 241.852894 101.862033 
L 246.586944 63.985425 
L 251.320994 100.805423 
L 256.055044 77.794528 
L 260.789094 93.668292 
L 265.523144 91.437322 
L 270.257194 96.813206 
L 274.991244 97.952471 
L 279.725295 87.426247 
L 284.459345 83.859049 
L 289.193395 137.536577 
L 293.927445 71.158721 
L 298.661495 119.302281 
L 303.395545 82.5983 
L 308.129595 112.464277 
L 312.863645 105.243577 
L 317.597695 113.485534 
L 322.331745 143.269083 
L 327.065796 88.052767 
L 331.799846 120.96753 
L 336.533896 129.56803 
L 341.267946 95.936809 
L 346.001996 83.160849 
L 350.736046 42.626744 
L 355.470096 102.102337 
L 360.204146 85.762148 
L 364.938196 93.114669 
L 369.672246 84.697204 
L 374.406297 94.27001 
L 379.140347 96.809572 
L 383.874397 88.924172 
L 388.608447 101.725272 
L 393.342497 113.159055 
L 398.076547 108.918559 
L 402.810597 101.655237 
L 407.544647 93.984748 
L 412.278697 103.477453 
L 417.012747 96.986005 
L 421.746798 82.189196 
L 426.480848 91.17252 
L 431.214898 84.180482 
L 435.948948 100.132941 
L 440.682998 113.397901 
L 445.417048 104.841202 
L 450.151098 74.175124 
L 454.885148 74.254288 
L 459.619198 89.326701 
L 464.353249 109.049071 
L 469.087299 116.667408 
L 473.821349 111.536873 
L 478.555399 32.863636 
L 483.289449 92.771869 
L 488.023499 72.445525 
L 492.757549 81.622621 
L 497.491599 70.909525 
L 502.225649 86.729748 
L 506.959699 100.211167 
L 511.69375 107.816156 
L 516.4278 94.61881 
L 521.16185 115.1014 
L 530.62995 100.529617 
L 535.364 73.189268 
L 540.09805 98.513335 
L 544.8321 66.407076 
L 549.56615 71.504945 
L 554.3002 64.597129 
L 559.034251 103.585032 
L 563.768301 106.642055 
L 568.502351 96.758762 
L 573.236401 90.757737 
L 577.970451 131.940348 
L 582.704501 97.703774 
L 587.438551 114.818853 
L 592.172601 96.539356 
L 596.906651 114.535806 
L 601.640702 83.732788 
L 606.374752 108.176149 
L 611.108802 87.917704 
L 615.842852 105.430366 
L 620.576902 75.819342 
L 625.310952 103.9709 
L 634.779052 75.943487 
L 639.513102 78.442222 
L 644.247152 108.564974 
L 648.981203 77.696724 
L 653.715253 71.578868 
L 658.449303 87.707666 
L 663.183353 90.447429 
L 667.917403 108.937406 
L 672.651453 97.115808 
L 677.385503 79.829302 
L 682.119553 117.858972 
L 686.853603 100.029224 
L 691.587653 74.46037 
L 696.321704 132.354005 
L 701.055754 66.574279 
L 705.789804 96.522833 
L 710.523854 69.206565 
L 715.257904 113.578477 
L 719.991954 100.544563 
L 724.726004 103.275107 
L 729.460054 84.548249 
L 734.194104 99.607255 
L 738.928154 94.239312 
L 743.662205 112.479216 
L 748.396255 96.750942 
L 753.130305 62.709076 
L 757.864355 86.832117 
L 762.598405 79.263745 
L 767.332455 89.626382 
L 772.066505 80.022839 
L 776.800555 90.32145 
L 781.534605 94.047598 
L 786.268656 98.300029 
L 791.002706 75.824923 
L 795.736756 120.910979 
L 800.470806 87.209629 
L 805.204856 115.208484 
L 809.938906 104.004058 
L 814.672956 106.289341 
L 819.407006 98.756568 
L 824.141056 99.319994 
L 828.875106 93.119848 
L 833.609157 95.801648 
L 838.343207 109.325798 
L 843.077257 95.561737 
L 847.811307 54.114687 
L 852.545357 102.393809 
L 857.279407 99.748992 
L 862.013457 55.957413 
L 866.747507 106.231933 
L 871.481557 100.506162 
L 876.215607 83.095157 
L 880.949658 81.582552 
L 885.683708 82.080626 
L 890.417758 122.541239 
L 895.151808 85.489501 
L 899.885858 62.395414 
L 904.619908 77.108104 
L 909.353958 105.937281 
L 914.088008 124.59375 
L 918.822058 102.102053 
L 923.556109 106.335627 
L 928.290159 112.052859 
L 933.024209 92.044857 
L 937.758259 77.149241 
L 942.492309 97.604437 
L 947.226359 71.119602 
L 951.960409 68.456175 
L 956.694459 56.550527 
L 961.428509 98.989307 
L 966.162559 81.280688 
L 970.89661 106.133218 
L 975.63066 107.651765 
L 980.36471 59.283853 
L 985.09876 101.885398 
L 989.83281 114.95444 
L 994.56686 74.175734 
L 999.30091 96.755406 
L 1004.03496 85.541376 
L 1008.76901 82.162455 
L 1013.50306 64.799313 
L 1018.237111 127.534441 
L 1022.971161 98.293742 
L 1027.705211 83.01183 
L 1032.439261 104.554807 
L 1037.173311 83.986987 
L 1041.907361 59.005012 
L 1046.641411 48.289087 
L 1051.375461 76.293774 
L 1056.109511 108.842327 
L 1060.843561 83.619909 
L 1065.577612 70.067004 
L 1070.311662 73.964686 
L 1075.045712 133.183163 
L 1079.779762 55.877692 
L 1084.513812 51.634801 
L 1089.247862 85.760138 
L 1093.981912 82.121626 
L 1098.715962 81.535726 
L 1103.450012 94.168561 
L 1108.184063 74.861991 
L 1112.918113 75.872916 
L 1117.652163 85.597267 
L 1122.386213 90.440976 
L 1127.120263 81.386538 
L 1131.854313 99.178615 
L 1136.588363 97.868917 
L 1141.322413 109.771541 
L 1146.056463 118.033195 
L 1150.790513 84.516863 
L 1155.524564 70.19102 
L 1160.258614 86.803417 
L 1164.992664 85.969337 
L 1169.726714 141.207155 
L 1174.460764 102.562171 
L 1179.194814 89.310023 
L 1183.928864 83.117937 
L 1188.662914 96.763335 
L 1193.396964 66.531019 
L 1198.131014 124.57254 
L 1202.865065 91.968737 
L 1207.599115 114.028273 
L 1212.333165 84.471368 
L 1217.067215 90.110581 
L 1221.801265 83.72638 
L 1226.535315 115.026515 
L 1231.269365 129.553756 
L 1236.003415 105.482184 
L 1240.737465 79.563736 
L 1245.471516 76.370313 
L 1250.205566 93.738945 
L 1254.939616 106.872109 
L 1259.673666 108.92405 
L 1264.407716 66.979069 
L 1269.141766 85.346739 
L 1273.875816 106.254243 
L 1278.609866 101.11278 
L 1283.343916 97.278953 
L 1288.077966 50.920492 
L 1292.812017 68.874751 
L 1297.546067 59.631977 
L 1302.280117 78.061367 
L 1307.014167 80.546133 
L 1311.748217 80.10799 
L 1316.482267 145.360401 
L 1321.216317 97.552769 
L 1325.950367 95.397029 
L 1330.684417 105.668495 
L 1335.418467 91.718991 
L 1340.152518 76.692689 
L 1344.886568 96.690137 
L 1349.620618 57.205126 
L 1354.354668 97.42403 
L 1359.088718 109.718073 
L 1363.822768 97.906484 
L 1363.822768 97.906484 
" style="fill:none;stroke:#1f77b4;stroke-linecap:square;stroke-width:1.5;"/>
   </g>
   <g id="line2d_13">
    <path clip-path="url(#pf827d7ad3f)" d="M 156.639992 79.227068 
L 161.374042 94.820654 
L 166.108092 474.136364 
L 170.842142 98.516675 
L 175.576192 457.72374 
L 180.310242 65.662987 
L 185.044292 85.718537 
L 189.778343 428.288788 
L 194.512393 109.192709 
L 199.246443 461.539171 
L 203.980493 93.709292 
L 208.714543 90.98479 
L 213.448593 82.458232 
L 218.182643 78.093502 
L 222.916693 58.138917 
L 227.650743 86.159645 
L 232.384793 67.525325 
L 237.118844 92.225303 
L 246.586944 107.267211 
L 251.320994 70.011741 
L 256.055044 66.421819 
L 260.789094 92.050291 
L 265.523144 79.357427 
L 270.257194 65.755785 
L 274.991244 110.484514 
L 279.725295 101.138171 
L 284.459345 90.201766 
L 289.193395 114.688176 
L 293.927445 65.486748 
L 298.661495 83.771095 
L 303.395545 92.988634 
L 308.129595 86.530402 
L 312.863645 84.1752 
L 317.597695 78.349695 
L 322.331745 73.717487 
L 327.065796 104.583631 
L 331.799846 455.731892 
L 336.533896 82.193134 
L 341.267946 84.148022 
L 346.001996 61.028626 
L 350.736046 107.797585 
L 355.470096 75.584708 
L 360.204146 79.638946 
L 364.938196 90.173206 
L 369.672246 79.706638 
L 374.406297 85.118707 
L 379.140347 94.696394 
L 383.874397 102.834669 
L 388.608447 80.993784 
L 393.342497 99.275173 
L 398.076547 97.974751 
L 402.810597 84.005443 
L 407.544647 85.051529 
L 412.278697 111.432144 
L 417.012747 97.175153 
L 421.746798 81.518705 
L 426.480848 97.386931 
L 431.214898 84.144688 
L 435.948948 84.205092 
L 440.682998 101.644444 
L 445.417048 65.618384 
L 450.151098 88.694571 
L 454.885148 82.937871 
L 459.619198 91.398846 
L 464.353249 104.895065 
L 469.087299 80.022556 
L 473.821349 127.947121 
L 478.555399 92.66571 
L 483.289449 100.696666 
L 488.023499 79.780136 
L 492.757549 67.875154 
L 497.491599 117.099509 
L 502.225649 96.603724 
L 506.959699 82.063488 
L 511.69375 86.170462 
L 516.4278 89.843647 
L 521.16185 71.615405 
L 525.8959 86.066502 
L 530.62995 104.422641 
L 535.364 103.544008 
L 540.09805 95.139783 
L 544.8321 91.403472 
L 549.56615 75.903604 
L 554.3002 104.618532 
L 559.034251 93.541622 
L 563.768301 111.043761 
L 568.502351 81.133007 
L 573.236401 103.263271 
L 577.970451 99.258746 
L 582.704501 120.452862 
L 587.438551 81.286641 
L 592.172601 89.945542 
L 596.906651 473.983966 
L 601.640702 110.104584 
L 606.374752 61.207646 
L 611.108802 94.648454 
L 615.842852 85.440035 
L 620.576902 106.496863 
L 625.310952 74.039569 
L 630.045002 111.808854 
L 634.779052 101.195863 
L 639.513102 87.044961 
L 644.247152 111.161161 
L 648.981203 80.641577 
L 653.715253 77.832867 
L 658.449303 65.25732 
L 663.183353 81.143755 
L 667.917403 72.492278 
L 672.651453 95.982171 
L 677.385503 60.578984 
L 682.119553 111.601552 
L 686.853603 76.413397 
L 691.587653 73.511062 
L 696.321704 80.422338 
L 701.055754 83.574401 
L 705.789804 104.712035 
L 710.523854 82.143209 
L 715.257904 88.433702 
L 719.991954 70.781757 
L 724.726004 79.236975 
L 729.460054 87.394518 
L 734.194104 104.819099 
L 738.928154 87.704609 
L 743.662205 88.71778 
L 748.396255 115.182807 
L 753.130305 85.740658 
L 757.864355 90.97197 
L 762.598405 91.478613 
L 767.332455 99.179233 
L 772.066505 104.310549 
L 776.800555 80.761813 
L 781.534605 81.805531 
L 786.268656 88.224826 
L 791.002706 70.675805 
L 795.736756 92.362222 
L 800.470806 87.148037 
L 805.204856 88.239409 
L 809.938906 90.418216 
L 814.672956 101.124171 
L 819.407006 83.343573 
L 824.141056 87.585119 
L 828.875106 87.156533 
L 833.609157 76.93144 
L 838.343207 86.270014 
L 843.077257 97.612243 
L 847.811307 82.193459 
L 852.545357 95.441511 
L 857.279407 97.396586 
L 862.013457 69.272263 
L 866.747507 99.785204 
L 871.481557 101.632395 
L 876.215607 84.016482 
L 880.949658 91.550372 
L 885.683708 85.601802 
L 890.417758 80.477607 
L 895.151808 102.895138 
L 899.885858 97.526644 
L 904.619908 84.355954 
L 909.353958 92.340206 
L 914.088008 93.581822 
L 918.822058 103.753605 
L 923.556109 96.934854 
L 928.290159 448.469737 
L 933.024209 84.324869 
L 937.758259 80.171954 
L 942.492309 105.673703 
L 947.226359 92.016311 
L 951.960409 89.213453 
L 956.694459 87.069098 
L 961.428509 71.225346 
L 966.162559 87.964206 
L 970.89661 62.692321 
L 975.63066 122.243885 
L 980.36471 73.011458 
L 985.09876 89.094326 
L 989.83281 84.566608 
L 994.56686 109.193936 
L 999.30091 69.386587 
L 1004.03496 55.8762 
L 1008.76901 83.216928 
L 1013.50306 104.161188 
L 1018.237111 102.776533 
L 1022.971161 104.232988 
L 1027.705211 93.046519 
L 1032.439261 127.078476 
L 1037.173311 110.736775 
L 1041.907361 85.467982 
L 1046.641411 109.987096 
L 1051.375461 81.047819 
L 1056.109511 95.436603 
L 1060.843561 101.641588 
L 1065.577612 76.857542 
L 1070.311662 99.980109 
L 1075.045712 91.193573 
L 1079.779762 109.020715 
L 1084.513812 79.047561 
L 1089.247862 79.446416 
L 1093.981912 96.249192 
L 1098.715962 86.301737 
L 1103.450012 120.878522 
L 1108.184063 86.553827 
L 1112.918113 107.692322 
L 1117.652163 96.908632 
L 1122.386213 84.625212 
L 1127.120263 96.838324 
L 1131.854313 98.635094 
L 1136.588363 84.743079 
L 1141.322413 92.235018 
L 1146.056463 69.309141 
L 1150.790513 82.256382 
L 1155.524564 110.575568 
L 1160.258614 88.895263 
L 1164.992664 103.294614 
L 1169.726714 74.229222 
L 1174.460764 89.777337 
L 1179.194814 67.598647 
L 1183.928864 97.075803 
L 1188.662914 87.468476 
L 1193.396964 431.574997 
L 1198.131014 112.847967 
L 1202.865065 83.417135 
L 1207.599115 94.731006 
L 1212.333165 82.287102 
L 1217.067215 98.445404 
L 1221.801265 76.993056 
L 1226.535315 77.585236 
L 1231.269365 95.110424 
L 1236.003415 102.058375 
L 1240.737465 85.560123 
L 1245.471516 114.192268 
L 1250.205566 95.684421 
L 1254.939616 64.686341 
L 1259.673666 80.300241 
L 1264.407716 79.926284 
L 1269.141766 74.312081 
L 1273.875816 71.499812 
L 1278.609866 104.009762 
L 1283.343916 109.309726 
L 1288.077966 83.054569 
L 1292.812017 80.12675 
L 1297.546067 85.322024 
L 1302.280117 97.397634 
L 1307.014167 94.625511 
L 1311.748217 66.22863 
L 1316.482267 74.699344 
L 1321.216317 86.058004 
L 1325.950367 446.53346 
L 1330.684417 87.554191 
L 1335.418467 106.526285 
L 1340.152518 83.622215 
L 1344.886568 77.833772 
L 1349.620618 91.187967 
L 1354.354668 81.76962 
L 1359.088718 90.109402 
L 1363.822768 449.907153 
L 1363.822768 449.907153 
" style="fill:none;stroke:#ff7f0e;stroke-linecap:square;stroke-width:1.5;"/>
   </g>
   <g id="line2d_14">
    <path clip-path="url(#pf827d7ad3f)" d="M 156.639992 86.962077 
L 161.374042 79.009428 
L 166.108092 73.506559 
L 170.842142 105.680201 
L 175.576192 84.836912 
L 180.310242 75.558902 
L 185.044292 59.180651 
L 189.778343 105.411904 
L 194.512393 65.035641 
L 199.246443 89.395755 
L 203.980493 94.512772 
L 208.714543 53.757107 
L 213.448593 96.256294 
L 218.182643 123.932007 
L 222.916693 93.603173 
L 227.650743 73.029612 
L 232.384793 76.548429 
L 237.118844 94.115122 
L 241.852894 107.821836 
L 246.586944 77.780354 
L 251.320994 91.727756 
L 256.055044 71.670795 
L 260.789094 89.655474 
L 265.523144 79.420904 
L 270.257194 91.900633 
L 274.991244 98.038069 
L 279.725295 92.166101 
L 284.459345 112.17373 
L 289.193395 93.263172 
L 293.927445 83.554767 
L 298.661495 84.53909 
L 303.395545 90.574437 
L 308.129595 116.616441 
L 312.863645 112.168004 
L 317.597695 87.706987 
L 322.331745 153.601194 
L 327.065796 75.149127 
L 331.799846 79.685048 
L 336.533896 107.431645 
L 341.267946 93.45525 
L 346.001996 112.324766 
L 350.736046 107.721895 
L 355.470096 116.002297 
L 360.204146 109.714583 
L 364.938196 94.458005 
L 369.672246 89.531996 
L 379.140347 102.184938 
L 383.874397 99.619716 
L 388.608447 102.104715 
L 393.342497 93.147419 
L 398.076547 117.695612 
L 402.810597 123.437158 
L 407.544647 91.830809 
L 412.278697 66.201533 
L 417.012747 91.345 
L 421.746798 93.548343 
L 431.214898 128.087638 
L 435.948948 95.878426 
L 440.682998 117.903299 
L 445.417048 76.054769 
L 450.151098 91.893192 
L 454.885148 85.273623 
L 459.619198 54.405228 
L 464.353249 80.363147 
L 469.087299 77.717616 
L 473.821349 83.612927 
L 478.555399 94.489604 
L 483.289449 69.535001 
L 488.023499 92.103661 
L 492.757549 85.22819 
L 497.491599 96.572052 
L 502.225649 70.350462 
L 506.959699 112.221007 
L 511.69375 82.371542 
L 516.4278 81.936035 
L 521.16185 86.970124 
L 525.8959 46.665554 
L 530.62995 79.231937 
L 535.364 146.16458 
L 540.09805 98.944848 
L 544.8321 82.508554 
L 549.56615 102.280957 
L 554.3002 89.147209 
L 559.034251 73.553002 
L 563.768301 89.751845 
L 568.502351 114.48481 
L 573.236401 101.831483 
L 577.970451 126.175089 
L 582.704501 77.591941 
L 587.438551 112.608687 
L 592.172601 68.803926 
L 596.906651 103.575269 
L 601.640702 91.950997 
L 606.374752 107.069655 
L 611.108802 76.449674 
L 615.842852 91.081599 
L 620.576902 88.267432 
L 625.310952 79.959724 
L 630.045002 99.341765 
L 634.779052 107.300202 
L 639.513102 88.743938 
L 644.247152 95.501649 
L 648.981203 129.25009 
L 653.715253 94.77336 
L 658.449303 115.962659 
L 663.183353 108.334522 
L 667.917403 133.501982 
L 672.651453 83.70857 
L 677.385503 65.807346 
L 682.119553 80.862144 
L 686.853603 142.918275 
L 691.587653 85.574275 
L 696.321704 103.39419 
L 701.055754 72.490497 
L 705.789804 85.125778 
L 710.523854 110.879882 
L 715.257904 94.493131 
L 719.991954 113.756204 
L 724.726004 91.471449 
L 729.460054 40.389677 
L 734.194104 83.332826 
L 738.928154 59.941951 
L 743.662205 111.22609 
L 748.396255 98.682528 
L 753.130305 79.88241 
L 757.864355 100.836166 
L 762.598405 107.592399 
L 767.332455 104.507212 
L 772.066505 109.202825 
L 776.800555 84.638636 
L 781.534605 81.238013 
L 786.268656 95.05025 
L 791.002706 93.636849 
L 795.736756 124.337403 
L 800.470806 103.268931 
L 805.204856 102.91067 
L 809.938906 115.330421 
L 814.672956 57.744513 
L 819.407006 88.077446 
L 824.141056 96.935596 
L 828.875106 86.802478 
L 833.609157 59.105579 
L 838.343207 93.235309 
L 843.077257 90.159559 
L 847.811307 120.015753 
L 852.545357 93.882204 
L 857.279407 77.158682 
L 862.013457 101.706491 
L 866.747507 112.614522 
L 871.481557 114.898162 
L 876.215607 94.794423 
L 880.949658 117.096442 
L 885.683708 78.690864 
L 890.417758 115.847701 
L 895.151808 106.851656 
L 899.885858 75.598686 
L 904.619908 102.920283 
L 909.353958 105.469718 
L 914.088008 79.277907 
L 918.822058 113.016479 
L 923.556109 69.587816 
L 928.290159 106.979015 
L 933.024209 89.957342 
L 937.758259 64.373405 
L 942.492309 75.655094 
L 947.226359 82.486904 
L 951.960409 146.416567 
L 956.694459 91.003267 
L 961.428509 54.428344 
L 966.162559 105.100709 
L 970.89661 79.465822 
L 975.63066 84.928806 
L 980.36471 106.26722 
L 985.09876 110.004528 
L 989.83281 78.273182 
L 994.56686 71.128645 
L 999.30091 115.825431 
L 1004.03496 82.566077 
L 1008.76901 135.007667 
L 1013.50306 82.989174 
L 1018.237111 77.505698 
L 1022.971161 84.823097 
L 1027.705211 108.004666 
L 1032.439261 94.954124 
L 1037.173311 56.802145 
L 1041.907361 133.294678 
L 1046.641411 94.182639 
L 1051.375461 74.855182 
L 1056.109511 83.130499 
L 1060.843561 89.178135 
L 1065.577612 92.539538 
L 1070.311662 100.59395 
L 1075.045712 107.943072 
L 1079.779762 102.205074 
L 1084.513812 102.012199 
L 1089.247862 88.666091 
L 1093.981912 97.399991 
L 1098.715962 94.591369 
L 1103.450012 110.814983 
L 1108.184063 105.61427 
L 1112.918113 97.369642 
L 1117.652163 86.188852 
L 1122.386213 86.214551 
L 1127.120263 72.421756 
L 1131.854313 76.501692 
L 1136.588363 81.595458 
L 1141.322413 99.289342 
L 1146.056463 101.902459 
L 1150.790513 92.88662 
L 1155.524564 85.920151 
L 1160.258614 103.762402 
L 1164.992664 69.561416 
L 1169.726714 108.937361 
L 1174.460764 108.676126 
L 1179.194814 90.073714 
L 1183.928864 76.589207 
L 1188.662914 99.422721 
L 1198.131014 94.597105 
L 1202.865065 120.859777 
L 1207.599115 60.196713 
L 1212.333165 123.895558 
L 1217.067215 70.589294 
L 1221.801265 100.527772 
L 1226.535315 80.909828 
L 1231.269365 90.529273 
L 1236.003415 82.194865 
L 1240.737465 91.941026 
L 1245.471516 105.683412 
L 1250.205566 113.601046 
L 1254.939616 129.263645 
L 1259.673666 108.718109 
L 1264.407716 117.78162 
L 1269.141766 95.361359 
L 1273.875816 96.800772 
L 1278.609866 100.009727 
L 1283.343916 89.848707 
L 1288.077966 78.065876 
L 1292.812017 55.724553 
L 1297.546067 99.364057 
L 1302.280117 68.129272 
L 1307.014167 89.270492 
L 1311.748217 130.243207 
L 1316.482267 104.086382 
L 1321.216317 121.631732 
L 1325.950367 84.093417 
L 1330.684417 76.729763 
L 1335.418467 93.732217 
L 1340.152518 100.935874 
L 1344.886568 101.021178 
L 1349.620618 93.261436 
L 1354.354668 111.563044 
L 1359.088718 87.727135 
L 1363.822768 71.808479 
L 1363.822768 71.808479 
" style="fill:none;stroke:#2ca02c;stroke-linecap:square;stroke-width:1.5;"/>
   </g>
   <g id="patch_13">
    <path d="M 95.05 496.2 
L 95.05 10.8 
" style="fill:none;stroke:#000000;stroke-linecap:square;stroke-linejoin:miter;stroke-width:0.8;"/>
   </g>
   <g id="patch_14">
    <path d="M 1429.2 496.2 
L 1429.2 10.8 
" style="fill:none;stroke:#000000;stroke-linecap:square;stroke-linejoin:miter;stroke-width:0.8;"/>
   </g>
   <g id="patch_15">
    <path d="M 95.05 496.2 
L 1429.2 496.2 
" style="fill:none;stroke:#000000;stroke-linecap:square;stroke-linejoin:miter;stroke-width:0.8;"/>
   </g>
   <g id="patch_16">
    <path d="M 95.05 10.8 
L 1429.2 10.8 
" style="fill:none;stroke:#000000;stroke-linecap:square;stroke-linejoin:miter;stroke-width:0.8;"/>
   </g>
  </g>
 </g>
 <defs>
  <clipPath id="pf827d7ad3f">
   <rect height="485.4" width="1334.15" x="95.05" y="10.8"/>
  </clipPath>
 </defs>
</svg>
