<?xml version="1.0" encoding="utf-8" standalone="no"?>
<!DOCTYPE svg PUBLIC "-//W3C//DTD SVG 1.1//EN"
  "http://www.w3.org/Graphics/SVG/1.1/DTD/svg11.dtd">
<!-- Created with matplotlib (https://matplotlib.org/) -->
<svg height="576pt" version="1.1" viewBox="0 0 1440 576" width="1440pt" xmlns="http://www.w3.org/2000/svg" xmlns:xlink="http://www.w3.org/1999/xlink">
 <defs>
  <style type="text/css">
*{stroke-linecap:butt;stroke-linejoin:round;white-space:pre;}
  </style>
 </defs>
 <g id="figure_1">
  <g id="patch_1">
   <path d="M 0 576 
L 1440 576 
L 1440 0 
L 0 0 
z
" style="fill:#ffffff;"/>
  </g>
  <g id="axes_1">
   <g id="patch_2">
    <path d="M 95.05 496.2 
L 1429.2 496.2 
L 1429.2 10.8 
L 95.05 10.8 
z
" style="fill:#ffffff;"/>
   </g>
   <g id="patch_3">
    <path clip-path="url(#p242d8b02d8)" d="M 155.693182 496.2 
L 155.693182 10.8 
L 156.639992 10.8 
L 156.639992 496.2 
z
" style="fill:#0000ff;"/>
   </g>
   <g id="patch_4">
    <path clip-path="url(#p242d8b02d8)" d="M 160.427232 496.2 
L 160.427232 10.8 
L 161.374042 10.8 
L 161.374042 496.2 
z
" style="fill:#0000ff;"/>
   </g>
   <g id="patch_5">
    <path clip-path="url(#p242d8b02d8)" d="M 198.299633 496.2 
L 198.299633 10.8 
L 199.246443 10.8 
L 199.246443 496.2 
z
" style="fill:#0000ff;"/>
   </g>
   <g id="patch_6">
    <path clip-path="url(#p242d8b02d8)" d="M 330.853036 496.2 
L 330.853036 10.8 
L 331.799846 10.8 
L 331.799846 496.2 
z
" style="fill:#0000ff;"/>
   </g>
   <g id="patch_7">
    <path clip-path="url(#p242d8b02d8)" d="M 595.959841 496.2 
L 595.959841 10.8 
L 596.906651 10.8 
L 596.906651 496.2 
z
" style="fill:#0000ff;"/>
   </g>
   <g id="patch_8">
    <path clip-path="url(#p242d8b02d8)" d="M 927.343349 496.2 
L 927.343349 10.8 
L 928.290159 10.8 
L 928.290159 496.2 
z
" style="fill:#0000ff;"/>
   </g>
   <g id="patch_9">
    <path clip-path="url(#p242d8b02d8)" d="M 1192.450154 496.2 
L 1192.450154 10.8 
L 1193.396964 10.8 
L 1193.396964 496.2 
z
" style="fill:#0000ff;"/>
   </g>
   <g id="patch_10">
    <path clip-path="url(#p242d8b02d8)" d="M 1325.003557 496.2 
L 1325.003557 10.8 
L 1325.950367 10.8 
L 1325.950367 496.2 
z
" style="fill:#0000ff;"/>
   </g>
   <g id="patch_11">
    <path clip-path="url(#p242d8b02d8)" d="M 1362.875958 496.2 
L 1362.875958 10.8 
L 1363.822768 10.8 
L 1363.822768 496.2 
z
" style="fill:#0000ff;"/>
   </g>
   <g id="patch_12">
    <path clip-path="url(#p242d8b02d8)" d="M 1367.610008 496.2 
L 1367.610008 10.8 
L 1368.556818 10.8 
L 1368.556818 496.2 
z
" style="fill:#0000ff;"/>
   </g>
   <g id="matplotlib.axis_1">
    <g id="xtick_1">
     <g id="line2d_1">
      <defs>
       <path d="M 0 0 
L 0 3.5 
" id="m6793e18248" style="stroke:#000000;stroke-width:0.8;"/>
      </defs>
      <g>
       <use style="stroke:#000000;stroke-width:0.8;" x="156.639992" xlink:href="#m6793e18248" y="496.2"/>
      </g>
     </g>
     <g id="text_1">
      <!-- 0 -->
      <defs>
       <path d="M 31.78125 66.40625 
Q 24.171875 66.40625 20.328125 58.90625 
Q 16.5 51.421875 16.5 36.375 
Q 16.5 21.390625 20.328125 13.890625 
Q 24.171875 6.390625 31.78125 6.390625 
Q 39.453125 6.390625 43.28125 13.890625 
Q 47.125 21.390625 47.125 36.375 
Q 47.125 51.421875 43.28125 58.90625 
Q 39.453125 66.40625 31.78125 66.40625 
z
M 31.78125 74.21875 
Q 44.046875 74.21875 50.515625 64.515625 
Q 56.984375 54.828125 56.984375 36.375 
Q 56.984375 17.96875 50.515625 8.265625 
Q 44.046875 -1.421875 31.78125 -1.421875 
Q 19.53125 -1.421875 13.0625 8.265625 
Q 6.59375 17.96875 6.59375 36.375 
Q 6.59375 54.828125 13.0625 64.515625 
Q 19.53125 74.21875 31.78125 74.21875 
z
" id="DejaVuSans-48"/>
      </defs>
      <g transform="translate(147.096242 525.995312)scale(0.3 -0.3)">
       <use xlink:href="#DejaVuSans-48"/>
      </g>
     </g>
    </g>
    <g id="xtick_2">
     <g id="line2d_2">
      <g>
       <use style="stroke:#000000;stroke-width:0.8;" x="393.342497" xlink:href="#m6793e18248" y="496.2"/>
      </g>
     </g>
     <g id="text_2">
      <!-- 50 -->
      <defs>
       <path d="M 10.796875 72.90625 
L 49.515625 72.90625 
L 49.515625 64.59375 
L 19.828125 64.59375 
L 19.828125 46.734375 
Q 21.96875 47.46875 24.109375 47.828125 
Q 26.265625 48.1875 28.421875 48.1875 
Q 40.625 48.1875 47.75 41.5 
Q 54.890625 34.8125 54.890625 23.390625 
Q 54.890625 11.625 47.5625 5.09375 
Q 40.234375 -1.421875 26.90625 -1.421875 
Q 22.3125 -1.421875 17.546875 -0.640625 
Q 12.796875 0.140625 7.71875 1.703125 
L 7.71875 11.625 
Q 12.109375 9.234375 16.796875 8.0625 
Q 21.484375 6.890625 26.703125 6.890625 
Q 35.15625 6.890625 40.078125 11.328125 
Q 45.015625 15.765625 45.015625 23.390625 
Q 45.015625 31 40.078125 35.4375 
Q 35.15625 39.890625 26.703125 39.890625 
Q 22.75 39.890625 18.8125 39.015625 
Q 14.890625 38.140625 10.796875 36.28125 
z
" id="DejaVuSans-53"/>
      </defs>
      <g transform="translate(374.254997 525.995312)scale(0.3 -0.3)">
       <use xlink:href="#DejaVuSans-53"/>
       <use x="63.623047" xlink:href="#DejaVuSans-48"/>
      </g>
     </g>
    </g>
    <g id="xtick_3">
     <g id="line2d_3">
      <g>
       <use style="stroke:#000000;stroke-width:0.8;" x="630.045002" xlink:href="#m6793e18248" y="496.2"/>
      </g>
     </g>
     <g id="text_3">
      <!-- 100 -->
      <defs>
       <path d="M 12.40625 8.296875 
L 28.515625 8.296875 
L 28.515625 63.921875 
L 10.984375 60.40625 
L 10.984375 69.390625 
L 28.421875 72.90625 
L 38.28125 72.90625 
L 38.28125 8.296875 
L 54.390625 8.296875 
L 54.390625 0 
L 12.40625 0 
z
" id="DejaVuSans-49"/>
      </defs>
      <g transform="translate(601.413752 525.995312)scale(0.3 -0.3)">
       <use xlink:href="#DejaVuSans-49"/>
       <use x="63.623047" xlink:href="#DejaVuSans-48"/>
       <use x="127.246094" xlink:href="#DejaVuSans-48"/>
      </g>
     </g>
    </g>
    <g id="xtick_4">
     <g id="line2d_4">
      <g>
       <use style="stroke:#000000;stroke-width:0.8;" x="866.747507" xlink:href="#m6793e18248" y="496.2"/>
      </g>
     </g>
     <g id="text_4">
      <!-- 150 -->
      <g transform="translate(838.116257 525.995312)scale(0.3 -0.3)">
       <use xlink:href="#DejaVuSans-49"/>
       <use x="63.623047" xlink:href="#DejaVuSans-53"/>
       <use x="127.246094" xlink:href="#DejaVuSans-48"/>
      </g>
     </g>
    </g>
    <g id="xtick_5">
     <g id="line2d_5">
      <g>
       <use style="stroke:#000000;stroke-width:0.8;" x="1103.450012" xlink:href="#m6793e18248" y="496.2"/>
      </g>
     </g>
     <g id="text_5">
      <!-- 200 -->
      <defs>
       <path d="M 19.1875 8.296875 
L 53.609375 8.296875 
L 53.609375 0 
L 7.328125 0 
L 7.328125 8.296875 
Q 12.9375 14.109375 22.625 23.890625 
Q 32.328125 33.6875 34.8125 36.53125 
Q 39.546875 41.84375 41.421875 45.53125 
Q 43.3125 49.21875 43.3125 52.78125 
Q 43.3125 58.59375 39.234375 62.25 
Q 35.15625 65.921875 28.609375 65.921875 
Q 23.96875 65.921875 18.8125 64.3125 
Q 13.671875 62.703125 7.8125 59.421875 
L 7.8125 69.390625 
Q 13.765625 71.78125 18.9375 73 
Q 24.125 74.21875 28.421875 74.21875 
Q 39.75 74.21875 46.484375 68.546875 
Q 53.21875 62.890625 53.21875 53.421875 
Q 53.21875 48.921875 51.53125 44.890625 
Q 49.859375 40.875 45.40625 35.40625 
Q 44.1875 33.984375 37.640625 27.21875 
Q 31.109375 20.453125 19.1875 8.296875 
z
" id="DejaVuSans-50"/>
      </defs>
      <g transform="translate(1074.818762 525.995312)scale(0.3 -0.3)">
       <use xlink:href="#DejaVuSans-50"/>
       <use x="63.623047" xlink:href="#DejaVuSans-48"/>
       <use x="127.246094" xlink:href="#DejaVuSans-48"/>
      </g>
     </g>
    </g>
    <g id="xtick_6">
     <g id="line2d_6">
      <g>
       <use style="stroke:#000000;stroke-width:0.8;" x="1340.152518" xlink:href="#m6793e18248" y="496.2"/>
      </g>
     </g>
     <g id="text_6">
      <!-- 250 -->
      <g transform="translate(1311.521268 525.995312)scale(0.3 -0.3)">
       <use xlink:href="#DejaVuSans-50"/>
       <use x="63.623047" xlink:href="#DejaVuSans-53"/>
       <use x="127.246094" xlink:href="#DejaVuSans-48"/>
      </g>
     </g>
    </g>
    <g id="text_7">
     <!-- Bit Interaction -->
     <defs>
      <path d="M 19.671875 34.8125 
L 19.671875 8.109375 
L 35.5 8.109375 
Q 43.453125 8.109375 47.28125 11.40625 
Q 51.125 14.703125 51.125 21.484375 
Q 51.125 28.328125 47.28125 31.5625 
Q 43.453125 34.8125 35.5 34.8125 
z
M 19.671875 64.796875 
L 19.671875 42.828125 
L 34.28125 42.828125 
Q 41.5 42.828125 45.03125 45.53125 
Q 48.578125 48.25 48.578125 53.8125 
Q 48.578125 59.328125 45.03125 62.0625 
Q 41.5 64.796875 34.28125 64.796875 
z
M 9.8125 72.90625 
L 35.015625 72.90625 
Q 46.296875 72.90625 52.390625 68.21875 
Q 58.5 63.53125 58.5 54.890625 
Q 58.5 48.1875 55.375 44.234375 
Q 52.25 40.28125 46.1875 39.3125 
Q 53.46875 37.75 57.5 32.78125 
Q 61.53125 27.828125 61.53125 20.40625 
Q 61.53125 10.640625 54.890625 5.3125 
Q 48.25 0 35.984375 0 
L 9.8125 0 
z
" id="DejaVuSans-66"/>
      <path d="M 9.421875 54.6875 
L 18.40625 54.6875 
L 18.40625 0 
L 9.421875 0 
z
M 9.421875 75.984375 
L 18.40625 75.984375 
L 18.40625 64.59375 
L 9.421875 64.59375 
z
" id="DejaVuSans-105"/>
      <path d="M 18.3125 70.21875 
L 18.3125 54.6875 
L 36.8125 54.6875 
L 36.8125 47.703125 
L 18.3125 47.703125 
L 18.3125 18.015625 
Q 18.3125 11.328125 20.140625 9.421875 
Q 21.96875 7.515625 27.59375 7.515625 
L 36.8125 7.515625 
L 36.8125 0 
L 27.59375 0 
Q 17.1875 0 13.234375 3.875 
Q 9.28125 7.765625 9.28125 18.015625 
L 9.28125 47.703125 
L 2.6875 47.703125 
L 2.6875 54.6875 
L 9.28125 54.6875 
L 9.28125 70.21875 
z
" id="DejaVuSans-116"/>
      <path id="DejaVuSans-32"/>
      <path d="M 9.8125 72.90625 
L 19.671875 72.90625 
L 19.671875 0 
L 9.8125 0 
z
" id="DejaVuSans-73"/>
      <path d="M 54.890625 33.015625 
L 54.890625 0 
L 45.90625 0 
L 45.90625 32.71875 
Q 45.90625 40.484375 42.875 44.328125 
Q 39.84375 48.1875 33.796875 48.1875 
Q 26.515625 48.1875 22.3125 43.546875 
Q 18.109375 38.921875 18.109375 30.90625 
L 18.109375 0 
L 9.078125 0 
L 9.078125 54.6875 
L 18.109375 54.6875 
L 18.109375 46.1875 
Q 21.34375 51.125 25.703125 53.5625 
Q 30.078125 56 35.796875 56 
Q 45.21875 56 50.046875 50.171875 
Q 54.890625 44.34375 54.890625 33.015625 
z
" id="DejaVuSans-110"/>
      <path d="M 56.203125 29.59375 
L 56.203125 25.203125 
L 14.890625 25.203125 
Q 15.484375 15.921875 20.484375 11.0625 
Q 25.484375 6.203125 34.421875 6.203125 
Q 39.59375 6.203125 44.453125 7.46875 
Q 49.3125 8.734375 54.109375 11.28125 
L 54.109375 2.78125 
Q 49.265625 0.734375 44.1875 -0.34375 
Q 39.109375 -1.421875 33.890625 -1.421875 
Q 20.796875 -1.421875 13.15625 6.1875 
Q 5.515625 13.8125 5.515625 26.8125 
Q 5.515625 40.234375 12.765625 48.109375 
Q 20.015625 56 32.328125 56 
Q 43.359375 56 49.78125 48.890625 
Q 56.203125 41.796875 56.203125 29.59375 
z
M 47.21875 32.234375 
Q 47.125 39.59375 43.09375 43.984375 
Q 39.0625 48.390625 32.421875 48.390625 
Q 24.90625 48.390625 20.390625 44.140625 
Q 15.875 39.890625 15.1875 32.171875 
z
" id="DejaVuSans-101"/>
      <path d="M 41.109375 46.296875 
Q 39.59375 47.171875 37.8125 47.578125 
Q 36.03125 48 33.890625 48 
Q 26.265625 48 22.1875 43.046875 
Q 18.109375 38.09375 18.109375 28.8125 
L 18.109375 0 
L 9.078125 0 
L 9.078125 54.6875 
L 18.109375 54.6875 
L 18.109375 46.1875 
Q 20.953125 51.171875 25.484375 53.578125 
Q 30.03125 56 36.53125 56 
Q 37.453125 56 38.578125 55.875 
Q 39.703125 55.765625 41.0625 55.515625 
z
" id="DejaVuSans-114"/>
      <path d="M 34.28125 27.484375 
Q 23.390625 27.484375 19.1875 25 
Q 14.984375 22.515625 14.984375 16.5 
Q 14.984375 11.71875 18.140625 8.90625 
Q 21.296875 6.109375 26.703125 6.109375 
Q 34.1875 6.109375 38.703125 11.40625 
Q 43.21875 16.703125 43.21875 25.484375 
L 43.21875 27.484375 
z
M 52.203125 31.203125 
L 52.203125 0 
L 43.21875 0 
L 43.21875 8.296875 
Q 40.140625 3.328125 35.546875 0.953125 
Q 30.953125 -1.421875 24.3125 -1.421875 
Q 15.921875 -1.421875 10.953125 3.296875 
Q 6 8.015625 6 15.921875 
Q 6 25.140625 12.171875 29.828125 
Q 18.359375 34.515625 30.609375 34.515625 
L 43.21875 34.515625 
L 43.21875 35.40625 
Q 43.21875 41.609375 39.140625 45 
Q 35.0625 48.390625 27.6875 48.390625 
Q 23 48.390625 18.546875 47.265625 
Q 14.109375 46.140625 10.015625 43.890625 
L 10.015625 52.203125 
Q 14.9375 54.109375 19.578125 55.046875 
Q 24.21875 56 28.609375 56 
Q 40.484375 56 46.34375 49.84375 
Q 52.203125 43.703125 52.203125 31.203125 
z
" id="DejaVuSans-97"/>
      <path d="M 48.78125 52.59375 
L 48.78125 44.1875 
Q 44.96875 46.296875 41.140625 47.34375 
Q 37.3125 48.390625 33.40625 48.390625 
Q 24.65625 48.390625 19.8125 42.84375 
Q 14.984375 37.3125 14.984375 27.296875 
Q 14.984375 17.28125 19.8125 11.734375 
Q 24.65625 6.203125 33.40625 6.203125 
Q 37.3125 6.203125 41.140625 7.25 
Q 44.96875 8.296875 48.78125 10.40625 
L 48.78125 2.09375 
Q 45.015625 0.34375 40.984375 -0.53125 
Q 36.96875 -1.421875 32.421875 -1.421875 
Q 20.0625 -1.421875 12.78125 6.34375 
Q 5.515625 14.109375 5.515625 27.296875 
Q 5.515625 40.671875 12.859375 48.328125 
Q 20.21875 56 33.015625 56 
Q 37.15625 56 41.109375 55.140625 
Q 45.0625 54.296875 48.78125 52.59375 
z
" id="DejaVuSans-99"/>
      <path d="M 30.609375 48.390625 
Q 23.390625 48.390625 19.1875 42.75 
Q 14.984375 37.109375 14.984375 27.296875 
Q 14.984375 17.484375 19.15625 11.84375 
Q 23.34375 6.203125 30.609375 6.203125 
Q 37.796875 6.203125 41.984375 11.859375 
Q 46.1875 17.53125 46.1875 27.296875 
Q 46.1875 37.015625 41.984375 42.703125 
Q 37.796875 48.390625 30.609375 48.390625 
z
M 30.609375 56 
Q 42.328125 56 49.015625 48.375 
Q 55.71875 40.765625 55.71875 27.296875 
Q 55.71875 13.875 49.015625 6.21875 
Q 42.328125 -1.421875 30.609375 -1.421875 
Q 18.84375 -1.421875 12.171875 6.21875 
Q 5.515625 13.875 5.515625 27.296875 
Q 5.515625 40.765625 12.171875 48.375 
Q 18.84375 56 30.609375 56 
z
" id="DejaVuSans-111"/>
     </defs>
     <g transform="translate(655.639063 559.029688)scale(0.3 -0.3)">
      <use xlink:href="#DejaVuSans-66"/>
      <use x="68.603516" xlink:href="#DejaVuSans-105"/>
      <use x="96.386719" xlink:href="#DejaVuSans-116"/>
      <use x="135.595703" xlink:href="#DejaVuSans-32"/>
      <use x="167.382812" xlink:href="#DejaVuSans-73"/>
      <use x="196.875" xlink:href="#DejaVuSans-110"/>
      <use x="260.253906" xlink:href="#DejaVuSans-116"/>
      <use x="299.462891" xlink:href="#DejaVuSans-101"/>
      <use x="360.986328" xlink:href="#DejaVuSans-114"/>
      <use x="402.099609" xlink:href="#DejaVuSans-97"/>
      <use x="463.378906" xlink:href="#DejaVuSans-99"/>
      <use x="518.359375" xlink:href="#DejaVuSans-116"/>
      <use x="557.568359" xlink:href="#DejaVuSans-105"/>
      <use x="585.351562" xlink:href="#DejaVuSans-111"/>
      <use x="646.533203" xlink:href="#DejaVuSans-110"/>
     </g>
    </g>
   </g>
   <g id="matplotlib.axis_2">
    <g id="ytick_1">
     <g id="line2d_7">
      <defs>
       <path d="M 0 0 
L -3.5 0 
" id="m6deafcc922" style="stroke:#000000;stroke-width:0.8;"/>
      </defs>
      <g>
       <use style="stroke:#000000;stroke-width:0.8;" x="95.05" xlink:href="#m6deafcc922" y="435.321396"/>
      </g>
     </g>
     <g id="text_8">
      <!-- −4 -->
      <defs>
       <path d="M 10.59375 35.5 
L 73.1875 35.5 
L 73.1875 27.203125 
L 10.59375 27.203125 
z
" id="DejaVuSans-8722"/>
       <path d="M 37.796875 64.3125 
L 12.890625 25.390625 
L 37.796875 25.390625 
z
M 35.203125 72.90625 
L 47.609375 72.90625 
L 47.609375 25.390625 
L 58.015625 25.390625 
L 58.015625 17.1875 
L 47.609375 17.1875 
L 47.609375 0 
L 37.796875 0 
L 37.796875 17.1875 
L 4.890625 17.1875 
L 4.890625 26.703125 
z
" id="DejaVuSans-52"/>
      </defs>
      <g transform="translate(43.823438 446.719052)scale(0.3 -0.3)">
       <use xlink:href="#DejaVuSans-8722"/>
       <use x="83.789062" xlink:href="#DejaVuSans-52"/>
      </g>
     </g>
    </g>
    <g id="ytick_2">
     <g id="line2d_8">
      <g>
       <use style="stroke:#000000;stroke-width:0.8;" x="95.05" xlink:href="#m6deafcc922" y="346.575451"/>
      </g>
     </g>
     <g id="text_9">
      <!-- −3 -->
      <defs>
       <path d="M 40.578125 39.3125 
Q 47.65625 37.796875 51.625 33 
Q 55.609375 28.21875 55.609375 21.1875 
Q 55.609375 10.40625 48.1875 4.484375 
Q 40.765625 -1.421875 27.09375 -1.421875 
Q 22.515625 -1.421875 17.65625 -0.515625 
Q 12.796875 0.390625 7.625 2.203125 
L 7.625 11.71875 
Q 11.71875 9.328125 16.59375 8.109375 
Q 21.484375 6.890625 26.8125 6.890625 
Q 36.078125 6.890625 40.9375 10.546875 
Q 45.796875 14.203125 45.796875 21.1875 
Q 45.796875 27.640625 41.28125 31.265625 
Q 36.765625 34.90625 28.71875 34.90625 
L 20.21875 34.90625 
L 20.21875 43.015625 
L 29.109375 43.015625 
Q 36.375 43.015625 40.234375 45.921875 
Q 44.09375 48.828125 44.09375 54.296875 
Q 44.09375 59.90625 40.109375 62.90625 
Q 36.140625 65.921875 28.71875 65.921875 
Q 24.65625 65.921875 20.015625 65.03125 
Q 15.375 64.15625 9.8125 62.3125 
L 9.8125 71.09375 
Q 15.4375 72.65625 20.34375 73.4375 
Q 25.25 74.21875 29.59375 74.21875 
Q 40.828125 74.21875 47.359375 69.109375 
Q 53.90625 64.015625 53.90625 55.328125 
Q 53.90625 49.265625 50.4375 45.09375 
Q 46.96875 40.921875 40.578125 39.3125 
z
" id="DejaVuSans-51"/>
      </defs>
      <g transform="translate(43.823438 357.973107)scale(0.3 -0.3)">
       <use xlink:href="#DejaVuSans-8722"/>
       <use x="83.789062" xlink:href="#DejaVuSans-51"/>
      </g>
     </g>
    </g>
    <g id="ytick_3">
     <g id="line2d_9">
      <g>
       <use style="stroke:#000000;stroke-width:0.8;" x="95.05" xlink:href="#m6deafcc922" y="257.829505"/>
      </g>
     </g>
     <g id="text_10">
      <!-- −2 -->
      <g transform="translate(43.823438 269.227162)scale(0.3 -0.3)">
       <use xlink:href="#DejaVuSans-8722"/>
       <use x="83.789062" xlink:href="#DejaVuSans-50"/>
      </g>
     </g>
    </g>
    <g id="ytick_4">
     <g id="line2d_10">
      <g>
       <use style="stroke:#000000;stroke-width:0.8;" x="95.05" xlink:href="#m6deafcc922" y="169.08356"/>
      </g>
     </g>
     <g id="text_11">
      <!-- −1 -->
      <g transform="translate(43.823438 180.481216)scale(0.3 -0.3)">
       <use xlink:href="#DejaVuSans-8722"/>
       <use x="83.789062" xlink:href="#DejaVuSans-49"/>
      </g>
     </g>
    </g>
    <g id="ytick_5">
     <g id="line2d_11">
      <g>
       <use style="stroke:#000000;stroke-width:0.8;" x="95.05" xlink:href="#m6deafcc922" y="80.337615"/>
      </g>
     </g>
     <g id="text_12">
      <!-- 0 -->
      <g transform="translate(68.9625 91.735271)scale(0.3 -0.3)">
       <use xlink:href="#DejaVuSans-48"/>
      </g>
     </g>
    </g>
    <g id="text_13">
     <!-- Weight Value -->
     <defs>
      <path d="M 3.328125 72.90625 
L 13.28125 72.90625 
L 28.609375 11.28125 
L 43.890625 72.90625 
L 54.984375 72.90625 
L 70.3125 11.28125 
L 85.59375 72.90625 
L 95.609375 72.90625 
L 77.296875 0 
L 64.890625 0 
L 49.515625 63.28125 
L 33.984375 0 
L 21.578125 0 
z
" id="DejaVuSans-87"/>
      <path d="M 45.40625 27.984375 
Q 45.40625 37.75 41.375 43.109375 
Q 37.359375 48.484375 30.078125 48.484375 
Q 22.859375 48.484375 18.828125 43.109375 
Q 14.796875 37.75 14.796875 27.984375 
Q 14.796875 18.265625 18.828125 12.890625 
Q 22.859375 7.515625 30.078125 7.515625 
Q 37.359375 7.515625 41.375 12.890625 
Q 45.40625 18.265625 45.40625 27.984375 
z
M 54.390625 6.78125 
Q 54.390625 -7.171875 48.1875 -13.984375 
Q 42 -20.796875 29.203125 -20.796875 
Q 24.46875 -20.796875 20.265625 -20.09375 
Q 16.0625 -19.390625 12.109375 -17.921875 
L 12.109375 -9.1875 
Q 16.0625 -11.328125 19.921875 -12.34375 
Q 23.78125 -13.375 27.78125 -13.375 
Q 36.625 -13.375 41.015625 -8.765625 
Q 45.40625 -4.15625 45.40625 5.171875 
L 45.40625 9.625 
Q 42.625 4.78125 38.28125 2.390625 
Q 33.9375 0 27.875 0 
Q 17.828125 0 11.671875 7.65625 
Q 5.515625 15.328125 5.515625 27.984375 
Q 5.515625 40.671875 11.671875 48.328125 
Q 17.828125 56 27.875 56 
Q 33.9375 56 38.28125 53.609375 
Q 42.625 51.21875 45.40625 46.390625 
L 45.40625 54.6875 
L 54.390625 54.6875 
z
" id="DejaVuSans-103"/>
      <path d="M 54.890625 33.015625 
L 54.890625 0 
L 45.90625 0 
L 45.90625 32.71875 
Q 45.90625 40.484375 42.875 44.328125 
Q 39.84375 48.1875 33.796875 48.1875 
Q 26.515625 48.1875 22.3125 43.546875 
Q 18.109375 38.921875 18.109375 30.90625 
L 18.109375 0 
L 9.078125 0 
L 9.078125 75.984375 
L 18.109375 75.984375 
L 18.109375 46.1875 
Q 21.34375 51.125 25.703125 53.5625 
Q 30.078125 56 35.796875 56 
Q 45.21875 56 50.046875 50.171875 
Q 54.890625 44.34375 54.890625 33.015625 
z
" id="DejaVuSans-104"/>
      <path d="M 28.609375 0 
L 0.78125 72.90625 
L 11.078125 72.90625 
L 34.1875 11.53125 
L 57.328125 72.90625 
L 67.578125 72.90625 
L 39.796875 0 
z
" id="DejaVuSans-86"/>
      <path d="M 9.421875 75.984375 
L 18.40625 75.984375 
L 18.40625 0 
L 9.421875 0 
z
" id="DejaVuSans-108"/>
      <path d="M 8.5 21.578125 
L 8.5 54.6875 
L 17.484375 54.6875 
L 17.484375 21.921875 
Q 17.484375 14.15625 20.5 10.265625 
Q 23.53125 6.390625 29.59375 6.390625 
Q 36.859375 6.390625 41.078125 11.03125 
Q 45.3125 15.671875 45.3125 23.6875 
L 45.3125 54.6875 
L 54.296875 54.6875 
L 54.296875 0 
L 45.3125 0 
L 45.3125 8.40625 
Q 42.046875 3.421875 37.71875 1 
Q 33.40625 -1.421875 27.6875 -1.421875 
Q 18.265625 -1.421875 13.375 4.4375 
Q 8.5 10.296875 8.5 21.578125 
z
M 31.109375 56 
z
" id="DejaVuSans-117"/>
     </defs>
     <g transform="translate(33.584375 353.732813)rotate(-90)scale(0.3 -0.3)">
      <use xlink:href="#DejaVuSans-87"/>
      <use x="98.798828" xlink:href="#DejaVuSans-101"/>
      <use x="160.322266" xlink:href="#DejaVuSans-105"/>
      <use x="188.105469" xlink:href="#DejaVuSans-103"/>
      <use x="251.582031" xlink:href="#DejaVuSans-104"/>
      <use x="314.960938" xlink:href="#DejaVuSans-116"/>
      <use x="354.169922" xlink:href="#DejaVuSans-32"/>
      <use x="385.957031" xlink:href="#DejaVuSans-86"/>
      <use x="454.255859" xlink:href="#DejaVuSans-97"/>
      <use x="515.535156" xlink:href="#DejaVuSans-108"/>
      <use x="543.318359" xlink:href="#DejaVuSans-117"/>
      <use x="606.697266" xlink:href="#DejaVuSans-101"/>
     </g>
    </g>
   </g>
   <g id="line2d_12">
    <path clip-path="url(#p242d8b02d8)" d="M 156.639992 84.117825 
L 161.374042 75.984837 
L 166.108092 81.786666 
L 170.842142 82.013217 
L 175.576192 93.843721 
L 180.310242 74.016558 
L 185.044292 89.962385 
L 189.778343 55.065841 
L 194.512393 130.374243 
L 199.246443 70.651097 
L 203.980493 107.319404 
L 208.714543 97.543308 
L 213.448593 109.349733 
L 218.182643 99.963673 
L 222.916693 84.13772 
L 227.650743 106.097697 
L 232.384793 56.101709 
L 237.118844 51.094147 
L 241.852894 109.908902 
L 246.586944 76.151958 
L 251.320994 80.149412 
L 256.055044 62.411542 
L 260.789094 43.514816 
L 265.523144 83.890971 
L 270.257194 60.148638 
L 274.991244 66.250294 
L 279.725295 71.269132 
L 284.459345 73.169559 
L 289.193395 91.917656 
L 293.927445 69.339697 
L 298.661495 75.622725 
L 303.395545 83.204559 
L 308.129595 82.428463 
L 312.863645 66.612121 
L 317.597695 83.300993 
L 322.331745 89.511828 
L 327.065796 66.630949 
L 331.799846 93.860164 
L 336.533896 95.916685 
L 341.267946 62.19637 
L 346.001996 56.444295 
L 350.736046 39.856784 
L 355.470096 88.275535 
L 360.204146 106.170414 
L 364.938196 79.261599 
L 369.672246 74.870433 
L 374.406297 82.927514 
L 379.140347 78.793101 
L 383.874397 77.803865 
L 388.608447 86.329026 
L 393.342497 98.978804 
L 398.076547 90.758716 
L 402.810597 53.667458 
L 407.544647 103.20179 
L 412.278697 107.625319 
L 417.012747 76.917517 
L 421.746798 70.904108 
L 426.480848 121.66447 
L 431.214898 90.71539 
L 435.948948 79.204506 
L 440.682998 113.913963 
L 445.417048 99.9456 
L 450.151098 75.72035 
L 454.885148 84.011524 
L 459.619198 62.424095 
L 464.353249 96.894384 
L 469.087299 81.302325 
L 473.821349 83.575954 
L 478.555399 63.456279 
L 483.289449 82.800005 
L 488.023499 88.42788 
L 492.757549 85.54226 
L 497.491599 69.713525 
L 502.225649 84.699915 
L 506.959699 104.141098 
L 511.69375 84.439318 
L 516.4278 78.105642 
L 521.16185 83.73425 
L 525.8959 82.67038 
L 530.62995 101.916996 
L 535.364 84.511647 
L 540.09805 80.134537 
L 544.8321 61.163079 
L 549.56615 77.704385 
L 554.3002 46.015125 
L 559.034251 88.556878 
L 563.768301 91.511605 
L 568.502351 87.237736 
L 573.236401 65.16678 
L 577.970451 102.665187 
L 582.704501 79.530477 
L 587.438551 71.148792 
L 592.172601 72.242661 
L 596.906651 88.230396 
L 601.640702 71.09027 
L 606.374752 71.016023 
L 611.108802 57.073644 
L 615.842852 100.906679 
L 620.576902 86.950422 
L 625.310952 93.370715 
L 630.045002 76.651447 
L 634.779052 65.726619 
L 639.513102 69.960332 
L 644.247152 87.175611 
L 648.981203 65.831234 
L 653.715253 75.698131 
L 658.449303 47.767635 
L 663.183353 88.957416 
L 667.917403 86.889425 
L 672.651453 50.392203 
L 677.385503 88.014869 
L 682.119553 100.384271 
L 686.853603 82.031791 
L 691.587653 71.599945 
L 696.321704 106.779697 
L 701.055754 80.479176 
L 705.789804 100.556611 
L 710.523854 46.702726 
L 715.257904 109.366158 
L 719.991954 98.856382 
L 724.726004 65.942007 
L 729.460054 75.346999 
L 734.194104 59.406779 
L 738.928154 63.518865 
L 743.662205 67.032766 
L 748.396255 86.791287 
L 753.130305 71.90525 
L 757.864355 64.121328 
L 762.598405 104.810749 
L 767.332455 91.431267 
L 772.066505 80.882869 
L 776.800555 52.176025 
L 781.534605 78.091689 
L 786.268656 103.100432 
L 791.002706 50.592546 
L 795.736756 75.492363 
L 800.470806 80.40288 
L 805.204856 102.495971 
L 809.938906 103.501778 
L 814.672956 99.688553 
L 819.407006 85.712232 
L 824.141056 96.050678 
L 828.875106 80.630604 
L 833.609157 78.144273 
L 838.343207 83.455561 
L 843.077257 59.68188 
L 847.811307 105.441841 
L 852.545357 79.766453 
L 857.279407 107.28609 
L 862.013457 69.13189 
L 866.747507 85.107207 
L 871.481557 73.309689 
L 876.215607 82.475496 
L 880.949658 78.56737 
L 885.683708 82.807268 
L 890.417758 122.886619 
L 895.151808 85.825305 
L 899.885858 94.686322 
L 904.619908 63.981668 
L 909.353958 46.86893 
L 914.088008 112.747294 
L 918.822058 71.70373 
L 923.556109 71.270179 
L 928.290159 88.78609 
L 933.024209 87.273886 
L 937.758259 62.903015 
L 942.492309 71.517305 
L 947.226359 61.578545 
L 951.960409 61.369024 
L 956.694459 53.710246 
L 961.428509 68.631202 
L 966.162559 55.391931 
L 970.89661 81.839936 
L 975.63066 101.79078 
L 980.36471 36.41908 
L 985.09876 63.777345 
L 989.83281 85.771438 
L 994.56686 87.223738 
L 999.30091 86.336015 
L 1004.03496 53.931228 
L 1008.76901 62.7506 
L 1013.50306 63.475912 
L 1018.237111 84.733457 
L 1022.971161 69.308013 
L 1027.705211 94.438684 
L 1032.439261 94.851014 
L 1037.173311 74.51674 
L 1041.907361 48.01685 
L 1046.641411 64.808246 
L 1051.375461 57.31484 
L 1056.109511 84.738105 
L 1060.843561 86.147973 
L 1065.577612 71.377767 
L 1070.311662 65.350846 
L 1075.045712 104.849234 
L 1079.779762 68.013647 
L 1084.513812 43.515808 
L 1089.247862 79.297052 
L 1093.981912 88.622215 
L 1098.715962 43.50757 
L 1103.450012 68.166742 
L 1108.184063 75.71517 
L 1112.918113 85.327036 
L 1117.652163 93.030891 
L 1122.386213 109.499918 
L 1127.120263 99.527569 
L 1131.854313 109.441573 
L 1136.588363 67.986148 
L 1141.322413 109.01125 
L 1146.056463 79.81813 
L 1150.790513 86.560534 
L 1155.524564 69.411962 
L 1160.258614 55.815826 
L 1164.992664 51.423763 
L 1169.726714 111.873597 
L 1174.460764 69.753259 
L 1179.194814 50.001941 
L 1183.928864 63.899255 
L 1188.662914 97.744814 
L 1193.396964 54.2838 
L 1198.131014 108.561562 
L 1202.865065 48.306137 
L 1207.599115 68.082408 
L 1212.333165 78.300727 
L 1217.067215 85.839252 
L 1221.801265 81.216893 
L 1226.535315 88.144778 
L 1231.269365 116.987417 
L 1236.003415 103.529686 
L 1240.737465 80.513789 
L 1245.471516 73.205578 
L 1250.205566 83.616998 
L 1254.939616 99.788569 
L 1259.673666 71.914104 
L 1264.407716 65.862691 
L 1269.141766 87.712862 
L 1273.875816 71.523664 
L 1278.609866 71.621923 
L 1283.343916 81.447236 
L 1288.077966 55.847165 
L 1292.812017 59.347112 
L 1297.546067 46.017532 
L 1302.280117 42.107769 
L 1307.014167 90.346156 
L 1311.748217 69.467616 
L 1316.482267 102.390148 
L 1321.216317 76.103958 
L 1325.950367 101.616105 
L 1330.684417 76.810435 
L 1335.418467 83.413186 
L 1340.152518 55.629715 
L 1344.886568 78.403723 
L 1349.620618 52.030178 
L 1354.354668 84.256963 
L 1359.088718 76.001047 
L 1363.822768 72.094646 
L 1363.822768 72.094646 
" style="fill:none;stroke:#1f77b4;stroke-linecap:square;stroke-width:1.5;"/>
   </g>
   <g id="line2d_13">
    <path clip-path="url(#p242d8b02d8)" d="M 156.639992 71.658985 
L 161.374042 53.55345 
L 166.108092 459.286312 
L 170.842142 91.013497 
L 175.576192 458.433405 
L 180.310242 74.066931 
L 185.044292 64.441675 
L 189.778343 474.136364 
L 194.512393 101.787024 
L 199.246443 470.802432 
L 203.980493 77.039352 
L 208.714543 82.380448 
L 213.448593 88.190315 
L 218.182643 71.832005 
L 222.916693 81.513069 
L 227.650743 100.25406 
L 232.384793 91.50909 
L 237.118844 71.72694 
L 241.852894 85.478604 
L 246.586944 82.770954 
L 251.320994 66.617443 
L 256.055044 89.775862 
L 260.789094 58.641066 
L 265.523144 96.840289 
L 270.257194 88.40953 
L 274.991244 57.778953 
L 279.725295 79.940464 
L 284.459345 67.326856 
L 289.193395 88.468095 
L 293.927445 71.385298 
L 303.395545 71.928412 
L 308.129595 48.860769 
L 312.863645 62.977967 
L 317.597695 82.909803 
L 322.331745 69.259882 
L 327.065796 73.245527 
L 331.799846 464.781941 
L 336.533896 67.243514 
L 341.267946 86.088274 
L 346.001996 82.697997 
L 350.736046 65.074998 
L 355.470096 97.54563 
L 360.204146 85.485837 
L 364.938196 72.428269 
L 369.672246 91.530117 
L 374.406297 88.105819 
L 379.140347 72.885112 
L 383.874397 81.254243 
L 388.608447 82.75184 
L 393.342497 74.36833 
L 398.076547 74.822507 
L 402.810597 80.403791 
L 407.544647 86.620359 
L 412.278697 90.150063 
L 417.012747 74.21234 
L 421.746798 78.43502 
L 426.480848 82.949968 
L 431.214898 71.267809 
L 435.948948 73.782066 
L 440.682998 103.207921 
L 445.417048 86.1992 
L 450.151098 94.518445 
L 454.885148 96.015761 
L 459.619198 63.09288 
L 464.353249 73.005862 
L 469.087299 86.716533 
L 473.821349 79.235427 
L 478.555399 102.276817 
L 483.289449 98.335624 
L 488.023499 79.976048 
L 492.757549 85.633697 
L 497.491599 64.942698 
L 502.225649 88.872214 
L 506.959699 69.301885 
L 511.69375 93.548107 
L 516.4278 73.329315 
L 521.16185 75.182622 
L 525.8959 83.056638 
L 530.62995 95.257588 
L 535.364 73.219755 
L 540.09805 77.852924 
L 544.8321 54.738061 
L 549.56615 71.05283 
L 554.3002 80.020651 
L 559.034251 101.191014 
L 563.768301 55.285254 
L 573.236401 97.475469 
L 577.970451 63.517571 
L 582.704501 91.394732 
L 587.438551 91.65641 
L 592.172601 84.333202 
L 596.906651 449.515994 
L 601.640702 84.543419 
L 606.374752 65.521193 
L 611.108802 78.500425 
L 615.842852 79.06701 
L 620.576902 64.178839 
L 625.310952 88.30453 
L 630.045002 78.209183 
L 634.779052 75.994893 
L 639.513102 77.379002 
L 644.247152 77.245481 
L 648.981203 95.108114 
L 653.715253 74.117936 
L 658.449303 76.711853 
L 663.183353 75.531606 
L 667.917403 73.154805 
L 672.651453 63.077325 
L 677.385503 61.723931 
L 682.119553 100.664827 
L 686.853603 69.223825 
L 691.587653 87.516447 
L 696.321704 83.275898 
L 701.055754 90.839979 
L 705.789804 83.191261 
L 710.523854 82.647761 
L 715.257904 65.186434 
L 719.991954 78.453668 
L 724.726004 90.439188 
L 729.460054 68.315627 
L 734.194104 72.697578 
L 738.928154 106.202977 
L 743.662205 72.841407 
L 748.396255 82.294904 
L 753.130305 81.966949 
L 757.864355 88.993388 
L 762.598405 66.485491 
L 767.332455 80.973996 
L 772.066505 98.328341 
L 776.800555 94.846102 
L 781.534605 74.763941 
L 786.268656 84.439735 
L 791.002706 81.492642 
L 795.736756 94.579919 
L 800.470806 66.288939 
L 805.204856 73.936096 
L 809.938906 64.076435 
L 814.672956 78.272354 
L 819.407006 91.404641 
L 824.141056 60.835279 
L 828.875106 96.870926 
L 833.609157 73.823575 
L 838.343207 82.572583 
L 843.077257 77.510296 
L 847.811307 64.82439 
L 852.545357 83.772999 
L 857.279407 64.184983 
L 862.013457 80.472173 
L 866.747507 91.82632 
L 871.481557 78.743794 
L 876.215607 74.571488 
L 880.949658 79.403532 
L 885.683708 85.093454 
L 890.417758 78.140058 
L 895.151808 67.870814 
L 899.885858 66.565906 
L 904.619908 76.406753 
L 909.353958 75.275786 
L 918.822058 88.247489 
L 923.556109 91.230365 
L 928.290159 452.567795 
L 933.024209 110.177831 
L 937.758259 96.106227 
L 942.492309 104.129016 
L 947.226359 78.944287 
L 951.960409 61.12358 
L 956.694459 78.393344 
L 961.428509 74.766079 
L 966.162559 41.690176 
L 970.89661 79.293441 
L 980.36471 77.291482 
L 985.09876 93.841571 
L 989.83281 74.806965 
L 994.56686 95.779339 
L 999.30091 64.214138 
L 1004.03496 75.87731 
L 1008.76901 79.69154 
L 1013.50306 73.934818 
L 1018.237111 98.192795 
L 1022.971161 87.609598 
L 1027.705211 52.216116 
L 1032.439261 76.41222 
L 1037.173311 77.549577 
L 1041.907361 80.636569 
L 1046.641411 62.746064 
L 1051.375461 59.928658 
L 1056.109511 70.879923 
L 1060.843561 90.621309 
L 1065.577612 78.989372 
L 1070.311662 83.632732 
L 1075.045712 86.312895 
L 1079.779762 71.985329 
L 1084.513812 63.977311 
L 1089.247862 48.894218 
L 1093.981912 73.690191 
L 1098.715962 81.044532 
L 1103.450012 72.63799 
L 1108.184063 84.554656 
L 1112.918113 72.628187 
L 1117.652163 49.591558 
L 1122.386213 93.925308 
L 1127.120263 76.786572 
L 1131.854313 86.888892 
L 1136.588363 75.722274 
L 1141.322413 53.108457 
L 1146.056463 85.1927 
L 1150.790513 78.051156 
L 1155.524564 92.393721 
L 1160.258614 66.336385 
L 1164.992664 57.138321 
L 1169.726714 76.585789 
L 1174.460764 74.798369 
L 1179.194814 86.237445 
L 1183.928864 73.965426 
L 1188.662914 99.618801 
L 1193.396964 463.734332 
L 1198.131014 87.642716 
L 1202.865065 79.622363 
L 1207.599115 106.965457 
L 1212.333165 92.99924 
L 1217.067215 85.092956 
L 1221.801265 85.583052 
L 1226.535315 53.731916 
L 1231.269365 78.988662 
L 1236.003415 58.920079 
L 1240.737465 101.345994 
L 1245.471516 66.372471 
L 1250.205566 77.441757 
L 1254.939616 93.021113 
L 1259.673666 70.808802 
L 1264.407716 73.720113 
L 1269.141766 71.741342 
L 1273.875816 104.200821 
L 1278.609866 81.295567 
L 1283.343916 85.06459 
L 1288.077966 62.19881 
L 1292.812017 59.054435 
L 1297.546067 94.596017 
L 1302.280117 76.328198 
L 1307.014167 87.760016 
L 1311.748217 78.862895 
L 1316.482267 71.937904 
L 1321.216317 72.114399 
L 1325.950367 445.478918 
L 1330.684417 90.875633 
L 1335.418467 85.496334 
L 1340.152518 83.841867 
L 1344.886568 103.996563 
L 1349.620618 93.221749 
L 1354.354668 82.908235 
L 1359.088718 99.857274 
L 1363.822768 459.035539 
L 1363.822768 459.035539 
" style="fill:none;stroke:#ff7f0e;stroke-linecap:square;stroke-width:1.5;"/>
   </g>
   <g id="line2d_14">
    <path clip-path="url(#p242d8b02d8)" d="M 156.639992 82.792908 
L 161.374042 67.825641 
L 166.108092 91.702311 
L 170.842142 82.02157 
L 175.576192 73.707971 
L 180.310242 95.444638 
L 185.044292 86.710148 
L 189.778343 68.290017 
L 194.512393 58.626579 
L 199.246443 85.405484 
L 203.980493 58.408804 
L 208.714543 70.907501 
L 213.448593 57.427285 
L 218.182643 119.439095 
L 222.916693 120.566972 
L 227.650743 67.222456 
L 232.384793 66.301493 
L 237.118844 71.878512 
L 241.852894 73.249725 
L 246.586944 94.093084 
L 251.320994 80.565585 
L 256.055044 96.881409 
L 260.789094 79.891975 
L 265.523144 88.313627 
L 270.257194 103.625879 
L 274.991244 69.563638 
L 279.725295 71.253426 
L 284.459345 85.010122 
L 293.927445 75.532176 
L 298.661495 101.576795 
L 303.395545 82.905338 
L 308.129595 94.16169 
L 312.863645 82.826821 
L 317.597695 73.673505 
L 322.331745 78.748881 
L 327.065796 80.727277 
L 331.799846 96.550431 
L 336.533896 86.785416 
L 341.267946 78.323354 
L 346.001996 95.509691 
L 350.736046 82.406413 
L 355.470096 90.907777 
L 360.204146 69.041165 
L 364.938196 76.193123 
L 369.672246 84.29637 
L 374.406297 90.847083 
L 379.140347 85.265279 
L 383.874397 62.426797 
L 388.608447 99.454003 
L 393.342497 49.033099 
L 398.076547 57.75891 
L 402.810597 98.17393 
L 407.544647 50.641918 
L 412.278697 74.531419 
L 417.012747 91.456764 
L 421.746798 83.278729 
L 426.480848 104.45654 
L 431.214898 91.072139 
L 435.948948 90.129778 
L 440.682998 90.731093 
L 445.417048 98.619422 
L 450.151098 69.56057 
L 454.885148 82.031667 
L 459.619198 55.67447 
L 464.353249 99.142629 
L 469.087299 79.948126 
L 473.821349 51.312367 
L 478.555399 81.698155 
L 483.289449 56.676183 
L 488.023499 63.976578 
L 492.757549 99.198073 
L 497.491599 90.291089 
L 502.225649 93.660612 
L 506.959699 111.1178 
L 511.69375 69.142458 
L 516.4278 91.636741 
L 521.16185 73.355676 
L 525.8959 71.369786 
L 530.62995 100.141665 
L 535.364 97.721399 
L 540.09805 83.830136 
L 544.8321 32.863636 
L 549.56615 72.643785 
L 554.3002 62.862579 
L 559.034251 66.077312 
L 563.768301 66.146257 
L 568.502351 74.787419 
L 573.236401 87.204218 
L 577.970451 76.335957 
L 582.704501 97.027095 
L 587.438551 90.000942 
L 592.172601 62.388964 
L 596.906651 101.404344 
L 601.640702 44.366445 
L 606.374752 95.52362 
L 611.108802 60.744587 
L 615.842852 95.277819 
L 620.576902 85.406156 
L 625.310952 77.430598 
L 630.045002 61.189588 
L 634.779052 99.608796 
L 639.513102 84.452341 
L 644.247152 78.623699 
L 648.981203 108.632105 
L 653.715253 80.098462 
L 658.449303 97.811691 
L 663.183353 60.978953 
L 667.917403 68.059906 
L 672.651453 87.030412 
L 677.385503 51.925768 
L 682.119553 71.741525 
L 686.853603 129.552472 
L 691.587653 62.846762 
L 696.321704 95.849572 
L 701.055754 91.72902 
L 705.789804 81.924977 
L 710.523854 67.769494 
L 715.257904 70.939729 
L 719.991954 83.976542 
L 724.726004 86.380685 
L 729.460054 53.232806 
L 734.194104 71.145264 
L 738.928154 72.875381 
L 743.662205 58.78364 
L 748.396255 119.948083 
L 753.130305 97.52362 
L 757.864355 82.692525 
L 762.598405 71.189214 
L 767.332455 99.17858 
L 772.066505 109.506757 
L 776.800555 88.147947 
L 781.534605 63.845333 
L 786.268656 87.681512 
L 791.002706 72.473657 
L 795.736756 104.922348 
L 800.470806 105.201333 
L 805.204856 74.855267 
L 809.938906 84.212191 
L 814.672956 89.237218 
L 819.407006 92.121869 
L 824.141056 98.576503 
L 828.875106 83.508144 
L 833.609157 64.14065 
L 838.343207 91.399036 
L 843.077257 59.36565 
L 847.811307 127.620054 
L 852.545357 40.921122 
L 857.279407 102.835594 
L 862.013457 69.725965 
L 866.747507 96.633824 
L 871.481557 71.061636 
L 876.215607 75.084753 
L 880.949658 94.503169 
L 885.683708 72.319635 
L 890.417758 76.257878 
L 895.151808 80.541414 
L 899.885858 72.731056 
L 904.619908 100.465291 
L 909.353958 80.927638 
L 914.088008 73.956061 
L 918.822058 57.637599 
L 923.556109 54.634725 
L 928.290159 109.5558 
L 933.024209 63.13175 
L 937.758259 61.15057 
L 942.492309 78.190235 
L 947.226359 61.12534 
L 951.960409 83.068729 
L 956.694459 62.714463 
L 961.428509 63.020335 
L 966.162559 64.274193 
L 975.63066 81.649143 
L 980.36471 79.119346 
L 985.09876 96.608467 
L 989.83281 94.890846 
L 994.56686 59.936228 
L 999.30091 65.180265 
L 1004.03496 84.446487 
L 1008.76901 99.635227 
L 1013.50306 88.847993 
L 1018.237111 77.106704 
L 1022.971161 84.322735 
L 1027.705211 103.439328 
L 1032.439261 59.904539 
L 1037.173311 67.133412 
L 1041.907361 82.709132 
L 1046.641411 80.045433 
L 1051.375461 92.485405 
L 1056.109511 116.881304 
L 1060.843561 89.216739 
L 1065.577612 96.145332 
L 1070.311662 73.909196 
L 1075.045712 93.839451 
L 1079.779762 62.5705 
L 1084.513812 54.733208 
L 1089.247862 76.071681 
L 1093.981912 73.940588 
L 1098.715962 79.22884 
L 1103.450012 86.49264 
L 1108.184063 73.213166 
L 1112.918113 88.864677 
L 1117.652163 85.946588 
L 1122.386213 96.880285 
L 1127.120263 55.43218 
L 1131.854313 74.379237 
L 1136.588363 75.568546 
L 1141.322413 78.61532 
L 1146.056463 73.198404 
L 1150.790513 83.618189 
L 1155.524564 76.459207 
L 1160.258614 76.118434 
L 1164.992664 93.102533 
L 1169.726714 94.904467 
L 1174.460764 112.225664 
L 1179.194814 72.126114 
L 1183.928864 55.853195 
L 1188.662914 96.673234 
L 1193.396964 90.834943 
L 1198.131014 59.274316 
L 1207.599115 77.722066 
L 1212.333165 103.263015 
L 1217.067215 61.450997 
L 1221.801265 62.612369 
L 1226.535315 80.41244 
L 1231.269365 87.984491 
L 1236.003415 112.102877 
L 1240.737465 81.441713 
L 1245.471516 56.755229 
L 1250.205566 102.247671 
L 1254.939616 92.592939 
L 1259.673666 66.098316 
L 1264.407716 83.327116 
L 1269.141766 104.019113 
L 1273.875816 112.800302 
L 1278.609866 83.348763 
L 1283.343916 82.21689 
L 1288.077966 85.677317 
L 1292.812017 73.772492 
L 1297.546067 89.017994 
L 1302.280117 72.624988 
L 1307.014167 93.180645 
L 1311.748217 75.313645 
L 1316.482267 91.041036 
L 1321.216317 90.226225 
L 1325.950367 80.877007 
L 1330.684417 92.219053 
L 1335.418467 90.107949 
L 1340.152518 70.251807 
L 1344.886568 72.507495 
L 1349.620618 107.49034 
L 1354.354668 69.247257 
L 1359.088718 68.75888 
L 1363.822768 54.411932 
L 1363.822768 54.411932 
" style="fill:none;stroke:#2ca02c;stroke-linecap:square;stroke-width:1.5;"/>
   </g>
   <g id="patch_13">
    <path d="M 95.05 496.2 
L 95.05 10.8 
" style="fill:none;stroke:#000000;stroke-linecap:square;stroke-linejoin:miter;stroke-width:0.8;"/>
   </g>
   <g id="patch_14">
    <path d="M 1429.2 496.2 
L 1429.2 10.8 
" style="fill:none;stroke:#000000;stroke-linecap:square;stroke-linejoin:miter;stroke-width:0.8;"/>
   </g>
   <g id="patch_15">
    <path d="M 95.05 496.2 
L 1429.2 496.2 
" style="fill:none;stroke:#000000;stroke-linecap:square;stroke-linejoin:miter;stroke-width:0.8;"/>
   </g>
   <g id="patch_16">
    <path d="M 95.05 10.8 
L 1429.2 10.8 
" style="fill:none;stroke:#000000;stroke-linecap:square;stroke-linejoin:miter;stroke-width:0.8;"/>
   </g>
  </g>
 </g>
 <defs>
  <clipPath id="p242d8b02d8">
   <rect height="485.4" width="1334.15" x="95.05" y="10.8"/>
  </clipPath>
 </defs>
</svg>
