<?xml version="1.0" encoding="utf-8" standalone="no"?>
<!DOCTYPE svg PUBLIC "-//W3C//DTD SVG 1.1//EN"
  "http://www.w3.org/Graphics/SVG/1.1/DTD/svg11.dtd">
<!-- Created with matplotlib (https://matplotlib.org/) -->
<svg height="576pt" version="1.1" viewBox="0 0 1440 576" width="1440pt" xmlns="http://www.w3.org/2000/svg" xmlns:xlink="http://www.w3.org/1999/xlink">
 <defs>
  <style type="text/css">
*{stroke-linecap:butt;stroke-linejoin:round;white-space:pre;}
  </style>
 </defs>
 <g id="figure_1">
  <g id="patch_1">
   <path d="M 0 576 
L 1440 576 
L 1440 0 
L 0 0 
z
" style="fill:#ffffff;"/>
  </g>
  <g id="axes_1">
   <g id="patch_2">
    <path d="M 143.05 496.2 
L 1429.2 496.2 
L 1429.2 15.695851 
L 143.05 15.695851 
z
" style="fill:#ffffff;"/>
   </g>
   <g id="patch_3">
    <path clip-path="url(#pd18d108226)" d="M 201.511364 496.2 
L 201.511364 15.695851 
L 202.424109 15.695851 
L 202.424109 496.2 
z
" style="fill:#0000ff;"/>
   </g>
   <g id="patch_4">
    <path clip-path="url(#pd18d108226)" d="M 206.075092 496.2 
L 206.075092 15.695851 
L 206.987838 15.695851 
L 206.987838 496.2 
z
" style="fill:#0000ff;"/>
   </g>
   <g id="patch_5">
    <path clip-path="url(#pd18d108226)" d="M 242.584921 496.2 
L 242.584921 15.695851 
L 243.497667 15.695851 
L 243.497667 496.2 
z
" style="fill:#0000ff;"/>
   </g>
   <g id="patch_6">
    <path clip-path="url(#pd18d108226)" d="M 370.369323 496.2 
L 370.369323 15.695851 
L 371.282068 15.695851 
L 371.282068 496.2 
z
" style="fill:#0000ff;"/>
   </g>
   <g id="patch_7">
    <path clip-path="url(#pd18d108226)" d="M 625.938125 496.2 
L 625.938125 15.695851 
L 626.850871 15.695851 
L 626.850871 496.2 
z
" style="fill:#0000ff;"/>
   </g>
   <g id="patch_8">
    <path clip-path="url(#pd18d108226)" d="M 945.399129 496.2 
L 945.399129 15.695851 
L 946.311875 15.695851 
L 946.311875 496.2 
z
" style="fill:#0000ff;"/>
   </g>
   <g id="patch_9">
    <path clip-path="url(#pd18d108226)" d="M 1200.967932 496.2 
L 1200.967932 15.695851 
L 1201.880677 15.695851 
L 1201.880677 496.2 
z
" style="fill:#0000ff;"/>
   </g>
   <g id="patch_10">
    <path clip-path="url(#pd18d108226)" d="M 1328.752333 496.2 
L 1328.752333 15.695851 
L 1329.665079 15.695851 
L 1329.665079 496.2 
z
" style="fill:#0000ff;"/>
   </g>
   <g id="patch_11">
    <path clip-path="url(#pd18d108226)" d="M 1365.262162 496.2 
L 1365.262162 15.695851 
L 1366.174908 15.695851 
L 1366.174908 496.2 
z
" style="fill:#0000ff;"/>
   </g>
   <g id="patch_12">
    <path clip-path="url(#pd18d108226)" d="M 1369.825891 496.2 
L 1369.825891 15.695851 
L 1370.738636 15.695851 
L 1370.738636 496.2 
z
" style="fill:#0000ff;"/>
   </g>
   <g id="matplotlib.axis_1">
    <g id="xtick_1">
     <g id="line2d_1">
      <defs>
       <path d="M 0 0 
L 0 3.5 
" id="m5881b4570d" style="stroke:#000000;stroke-width:0.8;"/>
      </defs>
      <g>
       <use style="stroke:#000000;stroke-width:0.8;" x="202.424109" xlink:href="#m5881b4570d" y="496.2"/>
      </g>
     </g>
     <g id="text_1">
      <!-- 0 -->
      <defs>
       <path d="M 31.78125 66.40625 
Q 24.171875 66.40625 20.328125 58.90625 
Q 16.5 51.421875 16.5 36.375 
Q 16.5 21.390625 20.328125 13.890625 
Q 24.171875 6.390625 31.78125 6.390625 
Q 39.453125 6.390625 43.28125 13.890625 
Q 47.125 21.390625 47.125 36.375 
Q 47.125 51.421875 43.28125 58.90625 
Q 39.453125 66.40625 31.78125 66.40625 
z
M 31.78125 74.21875 
Q 44.046875 74.21875 50.515625 64.515625 
Q 56.984375 54.828125 56.984375 36.375 
Q 56.984375 17.96875 50.515625 8.265625 
Q 44.046875 -1.421875 31.78125 -1.421875 
Q 19.53125 -1.421875 13.0625 8.265625 
Q 6.59375 17.96875 6.59375 36.375 
Q 6.59375 54.828125 13.0625 64.515625 
Q 19.53125 74.21875 31.78125 74.21875 
z
" id="DejaVuSans-48"/>
      </defs>
      <g transform="translate(192.880359 525.995312)scale(0.3 -0.3)">
       <use xlink:href="#DejaVuSans-48"/>
      </g>
     </g>
    </g>
    <g id="xtick_2">
     <g id="line2d_2">
      <g>
       <use style="stroke:#000000;stroke-width:0.8;" x="430.61054" xlink:href="#m5881b4570d" y="496.2"/>
      </g>
     </g>
     <g id="text_2">
      <!-- 50 -->
      <defs>
       <path d="M 10.796875 72.90625 
L 49.515625 72.90625 
L 49.515625 64.59375 
L 19.828125 64.59375 
L 19.828125 46.734375 
Q 21.96875 47.46875 24.109375 47.828125 
Q 26.265625 48.1875 28.421875 48.1875 
Q 40.625 48.1875 47.75 41.5 
Q 54.890625 34.8125 54.890625 23.390625 
Q 54.890625 11.625 47.5625 5.09375 
Q 40.234375 -1.421875 26.90625 -1.421875 
Q 22.3125 -1.421875 17.546875 -0.640625 
Q 12.796875 0.140625 7.71875 1.703125 
L 7.71875 11.625 
Q 12.109375 9.234375 16.796875 8.0625 
Q 21.484375 6.890625 26.703125 6.890625 
Q 35.15625 6.890625 40.078125 11.328125 
Q 45.015625 15.765625 45.015625 23.390625 
Q 45.015625 31 40.078125 35.4375 
Q 35.15625 39.890625 26.703125 39.890625 
Q 22.75 39.890625 18.8125 39.015625 
Q 14.890625 38.140625 10.796875 36.28125 
z
" id="DejaVuSans-53"/>
      </defs>
      <g transform="translate(411.52304 525.995312)scale(0.3 -0.3)">
       <use xlink:href="#DejaVuSans-53"/>
       <use x="63.623047" xlink:href="#DejaVuSans-48"/>
      </g>
     </g>
    </g>
    <g id="xtick_3">
     <g id="line2d_3">
      <g>
       <use style="stroke:#000000;stroke-width:0.8;" x="658.796971" xlink:href="#m5881b4570d" y="496.2"/>
      </g>
     </g>
     <g id="text_3">
      <!-- 100 -->
      <defs>
       <path d="M 12.40625 8.296875 
L 28.515625 8.296875 
L 28.515625 63.921875 
L 10.984375 60.40625 
L 10.984375 69.390625 
L 28.421875 72.90625 
L 38.28125 72.90625 
L 38.28125 8.296875 
L 54.390625 8.296875 
L 54.390625 0 
L 12.40625 0 
z
" id="DejaVuSans-49"/>
      </defs>
      <g transform="translate(630.165721 525.995312)scale(0.3 -0.3)">
       <use xlink:href="#DejaVuSans-49"/>
       <use x="63.623047" xlink:href="#DejaVuSans-48"/>
       <use x="127.246094" xlink:href="#DejaVuSans-48"/>
      </g>
     </g>
    </g>
    <g id="xtick_4">
     <g id="line2d_4">
      <g>
       <use style="stroke:#000000;stroke-width:0.8;" x="886.983403" xlink:href="#m5881b4570d" y="496.2"/>
      </g>
     </g>
     <g id="text_4">
      <!-- 150 -->
      <g transform="translate(858.352153 525.995312)scale(0.3 -0.3)">
       <use xlink:href="#DejaVuSans-49"/>
       <use x="63.623047" xlink:href="#DejaVuSans-53"/>
       <use x="127.246094" xlink:href="#DejaVuSans-48"/>
      </g>
     </g>
    </g>
    <g id="xtick_5">
     <g id="line2d_5">
      <g>
       <use style="stroke:#000000;stroke-width:0.8;" x="1115.169834" xlink:href="#m5881b4570d" y="496.2"/>
      </g>
     </g>
     <g id="text_5">
      <!-- 200 -->
      <defs>
       <path d="M 19.1875 8.296875 
L 53.609375 8.296875 
L 53.609375 0 
L 7.328125 0 
L 7.328125 8.296875 
Q 12.9375 14.109375 22.625 23.890625 
Q 32.328125 33.6875 34.8125 36.53125 
Q 39.546875 41.84375 41.421875 45.53125 
Q 43.3125 49.21875 43.3125 52.78125 
Q 43.3125 58.59375 39.234375 62.25 
Q 35.15625 65.921875 28.609375 65.921875 
Q 23.96875 65.921875 18.8125 64.3125 
Q 13.671875 62.703125 7.8125 59.421875 
L 7.8125 69.390625 
Q 13.765625 71.78125 18.9375 73 
Q 24.125 74.21875 28.421875 74.21875 
Q 39.75 74.21875 46.484375 68.546875 
Q 53.21875 62.890625 53.21875 53.421875 
Q 53.21875 48.921875 51.53125 44.890625 
Q 49.859375 40.875 45.40625 35.40625 
Q 44.1875 33.984375 37.640625 27.21875 
Q 31.109375 20.453125 19.1875 8.296875 
z
" id="DejaVuSans-50"/>
      </defs>
      <g transform="translate(1086.538584 525.995312)scale(0.3 -0.3)">
       <use xlink:href="#DejaVuSans-50"/>
       <use x="63.623047" xlink:href="#DejaVuSans-48"/>
       <use x="127.246094" xlink:href="#DejaVuSans-48"/>
      </g>
     </g>
    </g>
    <g id="xtick_6">
     <g id="line2d_6">
      <g>
       <use style="stroke:#000000;stroke-width:0.8;" x="1343.356265" xlink:href="#m5881b4570d" y="496.2"/>
      </g>
     </g>
     <g id="text_6">
      <!-- 250 -->
      <g transform="translate(1314.725015 525.995312)scale(0.3 -0.3)">
       <use xlink:href="#DejaVuSans-50"/>
       <use x="63.623047" xlink:href="#DejaVuSans-53"/>
       <use x="127.246094" xlink:href="#DejaVuSans-48"/>
      </g>
     </g>
    </g>
    <g id="text_7">
     <!-- Bit Interaction -->
     <defs>
      <path d="M 19.671875 34.8125 
L 19.671875 8.109375 
L 35.5 8.109375 
Q 43.453125 8.109375 47.28125 11.40625 
Q 51.125 14.703125 51.125 21.484375 
Q 51.125 28.328125 47.28125 31.5625 
Q 43.453125 34.8125 35.5 34.8125 
z
M 19.671875 64.796875 
L 19.671875 42.828125 
L 34.28125 42.828125 
Q 41.5 42.828125 45.03125 45.53125 
Q 48.578125 48.25 48.578125 53.8125 
Q 48.578125 59.328125 45.03125 62.0625 
Q 41.5 64.796875 34.28125 64.796875 
z
M 9.8125 72.90625 
L 35.015625 72.90625 
Q 46.296875 72.90625 52.390625 68.21875 
Q 58.5 63.53125 58.5 54.890625 
Q 58.5 48.1875 55.375 44.234375 
Q 52.25 40.28125 46.1875 39.3125 
Q 53.46875 37.75 57.5 32.78125 
Q 61.53125 27.828125 61.53125 20.40625 
Q 61.53125 10.640625 54.890625 5.3125 
Q 48.25 0 35.984375 0 
L 9.8125 0 
z
" id="DejaVuSans-66"/>
      <path d="M 9.421875 54.6875 
L 18.40625 54.6875 
L 18.40625 0 
L 9.421875 0 
z
M 9.421875 75.984375 
L 18.40625 75.984375 
L 18.40625 64.59375 
L 9.421875 64.59375 
z
" id="DejaVuSans-105"/>
      <path d="M 18.3125 70.21875 
L 18.3125 54.6875 
L 36.8125 54.6875 
L 36.8125 47.703125 
L 18.3125 47.703125 
L 18.3125 18.015625 
Q 18.3125 11.328125 20.140625 9.421875 
Q 21.96875 7.515625 27.59375 7.515625 
L 36.8125 7.515625 
L 36.8125 0 
L 27.59375 0 
Q 17.1875 0 13.234375 3.875 
Q 9.28125 7.765625 9.28125 18.015625 
L 9.28125 47.703125 
L 2.6875 47.703125 
L 2.6875 54.6875 
L 9.28125 54.6875 
L 9.28125 70.21875 
z
" id="DejaVuSans-116"/>
      <path id="DejaVuSans-32"/>
      <path d="M 9.8125 72.90625 
L 19.671875 72.90625 
L 19.671875 0 
L 9.8125 0 
z
" id="DejaVuSans-73"/>
      <path d="M 54.890625 33.015625 
L 54.890625 0 
L 45.90625 0 
L 45.90625 32.71875 
Q 45.90625 40.484375 42.875 44.328125 
Q 39.84375 48.1875 33.796875 48.1875 
Q 26.515625 48.1875 22.3125 43.546875 
Q 18.109375 38.921875 18.109375 30.90625 
L 18.109375 0 
L 9.078125 0 
L 9.078125 54.6875 
L 18.109375 54.6875 
L 18.109375 46.1875 
Q 21.34375 51.125 25.703125 53.5625 
Q 30.078125 56 35.796875 56 
Q 45.21875 56 50.046875 50.171875 
Q 54.890625 44.34375 54.890625 33.015625 
z
" id="DejaVuSans-110"/>
      <path d="M 56.203125 29.59375 
L 56.203125 25.203125 
L 14.890625 25.203125 
Q 15.484375 15.921875 20.484375 11.0625 
Q 25.484375 6.203125 34.421875 6.203125 
Q 39.59375 6.203125 44.453125 7.46875 
Q 49.3125 8.734375 54.109375 11.28125 
L 54.109375 2.78125 
Q 49.265625 0.734375 44.1875 -0.34375 
Q 39.109375 -1.421875 33.890625 -1.421875 
Q 20.796875 -1.421875 13.15625 6.1875 
Q 5.515625 13.8125 5.515625 26.8125 
Q 5.515625 40.234375 12.765625 48.109375 
Q 20.015625 56 32.328125 56 
Q 43.359375 56 49.78125 48.890625 
Q 56.203125 41.796875 56.203125 29.59375 
z
M 47.21875 32.234375 
Q 47.125 39.59375 43.09375 43.984375 
Q 39.0625 48.390625 32.421875 48.390625 
Q 24.90625 48.390625 20.390625 44.140625 
Q 15.875 39.890625 15.1875 32.171875 
z
" id="DejaVuSans-101"/>
      <path d="M 41.109375 46.296875 
Q 39.59375 47.171875 37.8125 47.578125 
Q 36.03125 48 33.890625 48 
Q 26.265625 48 22.1875 43.046875 
Q 18.109375 38.09375 18.109375 28.8125 
L 18.109375 0 
L 9.078125 0 
L 9.078125 54.6875 
L 18.109375 54.6875 
L 18.109375 46.1875 
Q 20.953125 51.171875 25.484375 53.578125 
Q 30.03125 56 36.53125 56 
Q 37.453125 56 38.578125 55.875 
Q 39.703125 55.765625 41.0625 55.515625 
z
" id="DejaVuSans-114"/>
      <path d="M 34.28125 27.484375 
Q 23.390625 27.484375 19.1875 25 
Q 14.984375 22.515625 14.984375 16.5 
Q 14.984375 11.71875 18.140625 8.90625 
Q 21.296875 6.109375 26.703125 6.109375 
Q 34.1875 6.109375 38.703125 11.40625 
Q 43.21875 16.703125 43.21875 25.484375 
L 43.21875 27.484375 
z
M 52.203125 31.203125 
L 52.203125 0 
L 43.21875 0 
L 43.21875 8.296875 
Q 40.140625 3.328125 35.546875 0.953125 
Q 30.953125 -1.421875 24.3125 -1.421875 
Q 15.921875 -1.421875 10.953125 3.296875 
Q 6 8.015625 6 15.921875 
Q 6 25.140625 12.171875 29.828125 
Q 18.359375 34.515625 30.609375 34.515625 
L 43.21875 34.515625 
L 43.21875 35.40625 
Q 43.21875 41.609375 39.140625 45 
Q 35.0625 48.390625 27.6875 48.390625 
Q 23 48.390625 18.546875 47.265625 
Q 14.109375 46.140625 10.015625 43.890625 
L 10.015625 52.203125 
Q 14.9375 54.109375 19.578125 55.046875 
Q 24.21875 56 28.609375 56 
Q 40.484375 56 46.34375 49.84375 
Q 52.203125 43.703125 52.203125 31.203125 
z
" id="DejaVuSans-97"/>
      <path d="M 48.78125 52.59375 
L 48.78125 44.1875 
Q 44.96875 46.296875 41.140625 47.34375 
Q 37.3125 48.390625 33.40625 48.390625 
Q 24.65625 48.390625 19.8125 42.84375 
Q 14.984375 37.3125 14.984375 27.296875 
Q 14.984375 17.28125 19.8125 11.734375 
Q 24.65625 6.203125 33.40625 6.203125 
Q 37.3125 6.203125 41.140625 7.25 
Q 44.96875 8.296875 48.78125 10.40625 
L 48.78125 2.09375 
Q 45.015625 0.34375 40.984375 -0.53125 
Q 36.96875 -1.421875 32.421875 -1.421875 
Q 20.0625 -1.421875 12.78125 6.34375 
Q 5.515625 14.109375 5.515625 27.296875 
Q 5.515625 40.671875 12.859375 48.328125 
Q 20.21875 56 33.015625 56 
Q 37.15625 56 41.109375 55.140625 
Q 45.0625 54.296875 48.78125 52.59375 
z
" id="DejaVuSans-99"/>
      <path d="M 30.609375 48.390625 
Q 23.390625 48.390625 19.1875 42.75 
Q 14.984375 37.109375 14.984375 27.296875 
Q 14.984375 17.484375 19.15625 11.84375 
Q 23.34375 6.203125 30.609375 6.203125 
Q 37.796875 6.203125 41.984375 11.859375 
Q 46.1875 17.53125 46.1875 27.296875 
Q 46.1875 37.015625 41.984375 42.703125 
Q 37.796875 48.390625 30.609375 48.390625 
z
M 30.609375 56 
Q 42.328125 56 49.015625 48.375 
Q 55.71875 40.765625 55.71875 27.296875 
Q 55.71875 13.875 49.015625 6.21875 
Q 42.328125 -1.421875 30.609375 -1.421875 
Q 18.84375 -1.421875 12.171875 6.21875 
Q 5.515625 13.875 5.515625 27.296875 
Q 5.515625 40.765625 12.171875 48.375 
Q 18.84375 56 30.609375 56 
z
" id="DejaVuSans-111"/>
     </defs>
     <g transform="translate(679.639063 559.029688)scale(0.3 -0.3)">
      <use xlink:href="#DejaVuSans-66"/>
      <use x="68.603516" xlink:href="#DejaVuSans-105"/>
      <use x="96.386719" xlink:href="#DejaVuSans-116"/>
      <use x="135.595703" xlink:href="#DejaVuSans-32"/>
      <use x="167.382812" xlink:href="#DejaVuSans-73"/>
      <use x="196.875" xlink:href="#DejaVuSans-110"/>
      <use x="260.253906" xlink:href="#DejaVuSans-116"/>
      <use x="299.462891" xlink:href="#DejaVuSans-101"/>
      <use x="360.986328" xlink:href="#DejaVuSans-114"/>
      <use x="402.099609" xlink:href="#DejaVuSans-97"/>
      <use x="463.378906" xlink:href="#DejaVuSans-99"/>
      <use x="518.359375" xlink:href="#DejaVuSans-116"/>
      <use x="557.568359" xlink:href="#DejaVuSans-105"/>
      <use x="585.351562" xlink:href="#DejaVuSans-111"/>
      <use x="646.533203" xlink:href="#DejaVuSans-110"/>
     </g>
    </g>
   </g>
   <g id="matplotlib.axis_2">
    <g id="ytick_1">
     <g id="line2d_7">
      <defs>
       <path d="M 0 0 
L -3.5 0 
" id="m2fff2991c2" style="stroke:#000000;stroke-width:0.8;"/>
      </defs>
      <g>
       <use style="stroke:#000000;stroke-width:0.8;" x="143.05" xlink:href="#m2fff2991c2" y="495.120782"/>
      </g>
     </g>
     <g id="text_8">
      <!-- −1.25 -->
      <defs>
       <path d="M 10.59375 35.5 
L 73.1875 35.5 
L 73.1875 27.203125 
L 10.59375 27.203125 
z
" id="DejaVuSans-8722"/>
       <path d="M 10.6875 12.40625 
L 21 12.40625 
L 21 0 
L 10.6875 0 
z
" id="DejaVuSans-46"/>
      </defs>
      <g transform="translate(44.114063 506.518438)scale(0.3 -0.3)">
       <use xlink:href="#DejaVuSans-8722"/>
       <use x="83.789062" xlink:href="#DejaVuSans-49"/>
       <use x="147.412109" xlink:href="#DejaVuSans-46"/>
       <use x="179.199219" xlink:href="#DejaVuSans-50"/>
       <use x="242.822266" xlink:href="#DejaVuSans-53"/>
      </g>
     </g>
    </g>
    <g id="ytick_2">
     <g id="line2d_8">
      <g>
       <use style="stroke:#000000;stroke-width:0.8;" x="143.05" xlink:href="#m2fff2991c2" y="436.104791"/>
      </g>
     </g>
     <g id="text_9">
      <!-- −1.00 -->
      <g transform="translate(44.114063 447.502447)scale(0.3 -0.3)">
       <use xlink:href="#DejaVuSans-8722"/>
       <use x="83.789062" xlink:href="#DejaVuSans-49"/>
       <use x="147.412109" xlink:href="#DejaVuSans-46"/>
       <use x="179.199219" xlink:href="#DejaVuSans-48"/>
       <use x="242.822266" xlink:href="#DejaVuSans-48"/>
      </g>
     </g>
    </g>
    <g id="ytick_3">
     <g id="line2d_9">
      <g>
       <use style="stroke:#000000;stroke-width:0.8;" x="143.05" xlink:href="#m2fff2991c2" y="377.0888"/>
      </g>
     </g>
     <g id="text_10">
      <!-- −0.75 -->
      <defs>
       <path d="M 8.203125 72.90625 
L 55.078125 72.90625 
L 55.078125 68.703125 
L 28.609375 0 
L 18.3125 0 
L 43.21875 64.59375 
L 8.203125 64.59375 
z
" id="DejaVuSans-55"/>
      </defs>
      <g transform="translate(44.114063 388.486457)scale(0.3 -0.3)">
       <use xlink:href="#DejaVuSans-8722"/>
       <use x="83.789062" xlink:href="#DejaVuSans-48"/>
       <use x="147.412109" xlink:href="#DejaVuSans-46"/>
       <use x="179.199219" xlink:href="#DejaVuSans-55"/>
       <use x="242.822266" xlink:href="#DejaVuSans-53"/>
      </g>
     </g>
    </g>
    <g id="ytick_4">
     <g id="line2d_10">
      <g>
       <use style="stroke:#000000;stroke-width:0.8;" x="143.05" xlink:href="#m2fff2991c2" y="318.072809"/>
      </g>
     </g>
     <g id="text_11">
      <!-- −0.50 -->
      <g transform="translate(44.114063 329.470466)scale(0.3 -0.3)">
       <use xlink:href="#DejaVuSans-8722"/>
       <use x="83.789062" xlink:href="#DejaVuSans-48"/>
       <use x="147.412109" xlink:href="#DejaVuSans-46"/>
       <use x="179.199219" xlink:href="#DejaVuSans-53"/>
       <use x="242.822266" xlink:href="#DejaVuSans-48"/>
      </g>
     </g>
    </g>
    <g id="ytick_5">
     <g id="line2d_11">
      <g>
       <use style="stroke:#000000;stroke-width:0.8;" x="143.05" xlink:href="#m2fff2991c2" y="259.056818"/>
      </g>
     </g>
     <g id="text_12">
      <!-- −0.25 -->
      <g transform="translate(44.114063 270.454475)scale(0.3 -0.3)">
       <use xlink:href="#DejaVuSans-8722"/>
       <use x="83.789062" xlink:href="#DejaVuSans-48"/>
       <use x="147.412109" xlink:href="#DejaVuSans-46"/>
       <use x="179.199219" xlink:href="#DejaVuSans-50"/>
       <use x="242.822266" xlink:href="#DejaVuSans-53"/>
      </g>
     </g>
    </g>
    <g id="ytick_6">
     <g id="line2d_12">
      <g>
       <use style="stroke:#000000;stroke-width:0.8;" x="143.05" xlink:href="#m2fff2991c2" y="200.040828"/>
      </g>
     </g>
     <g id="text_13">
      <!-- 0.00 -->
      <g transform="translate(69.253125 211.438484)scale(0.3 -0.3)">
       <use xlink:href="#DejaVuSans-48"/>
       <use x="63.623047" xlink:href="#DejaVuSans-46"/>
       <use x="95.410156" xlink:href="#DejaVuSans-48"/>
       <use x="159.033203" xlink:href="#DejaVuSans-48"/>
      </g>
     </g>
    </g>
    <g id="ytick_7">
     <g id="line2d_13">
      <g>
       <use style="stroke:#000000;stroke-width:0.8;" x="143.05" xlink:href="#m2fff2991c2" y="141.024837"/>
      </g>
     </g>
     <g id="text_14">
      <!-- 0.25 -->
      <g transform="translate(69.253125 152.422493)scale(0.3 -0.3)">
       <use xlink:href="#DejaVuSans-48"/>
       <use x="63.623047" xlink:href="#DejaVuSans-46"/>
       <use x="95.410156" xlink:href="#DejaVuSans-50"/>
       <use x="159.033203" xlink:href="#DejaVuSans-53"/>
      </g>
     </g>
    </g>
    <g id="ytick_8">
     <g id="line2d_14">
      <g>
       <use style="stroke:#000000;stroke-width:0.8;" x="143.05" xlink:href="#m2fff2991c2" y="82.008846"/>
      </g>
     </g>
     <g id="text_15">
      <!-- 0.50 -->
      <g transform="translate(69.253125 93.406502)scale(0.3 -0.3)">
       <use xlink:href="#DejaVuSans-48"/>
       <use x="63.623047" xlink:href="#DejaVuSans-46"/>
       <use x="95.410156" xlink:href="#DejaVuSans-53"/>
       <use x="159.033203" xlink:href="#DejaVuSans-48"/>
      </g>
     </g>
    </g>
    <g id="ytick_9">
     <g id="line2d_15">
      <g>
       <use style="stroke:#000000;stroke-width:0.8;" x="143.05" xlink:href="#m2fff2991c2" y="22.992855"/>
      </g>
     </g>
     <g id="text_16">
      <!-- 0.75 -->
      <g transform="translate(69.253125 34.390511)scale(0.3 -0.3)">
       <use xlink:href="#DejaVuSans-48"/>
       <use x="63.623047" xlink:href="#DejaVuSans-46"/>
       <use x="95.410156" xlink:href="#DejaVuSans-55"/>
       <use x="159.033203" xlink:href="#DejaVuSans-53"/>
      </g>
     </g>
    </g>
    <g id="text_17">
     <!-- Weight Value -->
     <defs>
      <path d="M 3.328125 72.90625 
L 13.28125 72.90625 
L 28.609375 11.28125 
L 43.890625 72.90625 
L 54.984375 72.90625 
L 70.3125 11.28125 
L 85.59375 72.90625 
L 95.609375 72.90625 
L 77.296875 0 
L 64.890625 0 
L 49.515625 63.28125 
L 33.984375 0 
L 21.578125 0 
z
" id="DejaVuSans-87"/>
      <path d="M 45.40625 27.984375 
Q 45.40625 37.75 41.375 43.109375 
Q 37.359375 48.484375 30.078125 48.484375 
Q 22.859375 48.484375 18.828125 43.109375 
Q 14.796875 37.75 14.796875 27.984375 
Q 14.796875 18.265625 18.828125 12.890625 
Q 22.859375 7.515625 30.078125 7.515625 
Q 37.359375 7.515625 41.375 12.890625 
Q 45.40625 18.265625 45.40625 27.984375 
z
M 54.390625 6.78125 
Q 54.390625 -7.171875 48.1875 -13.984375 
Q 42 -20.796875 29.203125 -20.796875 
Q 24.46875 -20.796875 20.265625 -20.09375 
Q 16.0625 -19.390625 12.109375 -17.921875 
L 12.109375 -9.1875 
Q 16.0625 -11.328125 19.921875 -12.34375 
Q 23.78125 -13.375 27.78125 -13.375 
Q 36.625 -13.375 41.015625 -8.765625 
Q 45.40625 -4.15625 45.40625 5.171875 
L 45.40625 9.625 
Q 42.625 4.78125 38.28125 2.390625 
Q 33.9375 0 27.875 0 
Q 17.828125 0 11.671875 7.65625 
Q 5.515625 15.328125 5.515625 27.984375 
Q 5.515625 40.671875 11.671875 48.328125 
Q 17.828125 56 27.875 56 
Q 33.9375 56 38.28125 53.609375 
Q 42.625 51.21875 45.40625 46.390625 
L 45.40625 54.6875 
L 54.390625 54.6875 
z
" id="DejaVuSans-103"/>
      <path d="M 54.890625 33.015625 
L 54.890625 0 
L 45.90625 0 
L 45.90625 32.71875 
Q 45.90625 40.484375 42.875 44.328125 
Q 39.84375 48.1875 33.796875 48.1875 
Q 26.515625 48.1875 22.3125 43.546875 
Q 18.109375 38.921875 18.109375 30.90625 
L 18.109375 0 
L 9.078125 0 
L 9.078125 75.984375 
L 18.109375 75.984375 
L 18.109375 46.1875 
Q 21.34375 51.125 25.703125 53.5625 
Q 30.078125 56 35.796875 56 
Q 45.21875 56 50.046875 50.171875 
Q 54.890625 44.34375 54.890625 33.015625 
z
" id="DejaVuSans-104"/>
      <path d="M 28.609375 0 
L 0.78125 72.90625 
L 11.078125 72.90625 
L 34.1875 11.53125 
L 57.328125 72.90625 
L 67.578125 72.90625 
L 39.796875 0 
z
" id="DejaVuSans-86"/>
      <path d="M 9.421875 75.984375 
L 18.40625 75.984375 
L 18.40625 0 
L 9.421875 0 
z
" id="DejaVuSans-108"/>
      <path d="M 8.5 21.578125 
L 8.5 54.6875 
L 17.484375 54.6875 
L 17.484375 21.921875 
Q 17.484375 14.15625 20.5 10.265625 
Q 23.53125 6.390625 29.59375 6.390625 
Q 36.859375 6.390625 41.078125 11.03125 
Q 45.3125 15.671875 45.3125 23.6875 
L 45.3125 54.6875 
L 54.296875 54.6875 
L 54.296875 0 
L 45.3125 0 
L 45.3125 8.40625 
Q 42.046875 3.421875 37.71875 1 
Q 33.40625 -1.421875 27.6875 -1.421875 
Q 18.265625 -1.421875 13.375 4.4375 
Q 8.5 10.296875 8.5 21.578125 
z
M 31.109375 56 
z
" id="DejaVuSans-117"/>
     </defs>
     <g transform="translate(33.875 356.180738)rotate(-90)scale(0.3 -0.3)">
      <use xlink:href="#DejaVuSans-87"/>
      <use x="98.798828" xlink:href="#DejaVuSans-101"/>
      <use x="160.322266" xlink:href="#DejaVuSans-105"/>
      <use x="188.105469" xlink:href="#DejaVuSans-103"/>
      <use x="251.582031" xlink:href="#DejaVuSans-104"/>
      <use x="314.960938" xlink:href="#DejaVuSans-116"/>
      <use x="354.169922" xlink:href="#DejaVuSans-32"/>
      <use x="385.957031" xlink:href="#DejaVuSans-86"/>
      <use x="454.255859" xlink:href="#DejaVuSans-97"/>
      <use x="515.535156" xlink:href="#DejaVuSans-108"/>
      <use x="543.318359" xlink:href="#DejaVuSans-117"/>
      <use x="606.697266" xlink:href="#DejaVuSans-101"/>
     </g>
    </g>
   </g>
   <g id="line2d_16">
    <path clip-path="url(#pd18d108226)" d="M 202.424109 206.434027 
L 206.987838 288.916682 
L 211.551567 221.511156 
L 216.115295 135.988108 
L 220.679024 183.101358 
L 225.242752 221.929838 
L 229.806481 200.217249 
L 234.37021 258.769643 
L 238.933938 283.814068 
L 243.497667 313.116058 
L 248.061396 177.868638 
L 252.625124 226.708703 
L 257.188853 280.421641 
L 261.752581 285.818687 
L 266.31631 238.076709 
L 270.880039 209.038872 
L 275.443767 142.576082 
L 280.007496 202.409808 
L 284.571225 184.179574 
L 289.134953 279.251741 
L 293.698682 97.753252 
L 298.26241 128.341195 
L 302.826139 227.007963 
L 307.389868 221.838875 
L 311.953596 97.58186 
L 316.517325 206.060581 
L 321.081054 37.536949 
L 325.644782 158.275857 
L 330.208511 205.265943 
L 334.772239 267.173581 
L 339.335968 224.881166 
L 343.899697 166.379513 
L 348.463425 147.58086 
L 353.027154 235.147978 
L 357.590882 302.79496 
L 362.154611 140.678041 
L 366.71834 145.213103 
L 371.282068 249.999361 
L 375.845797 91.758991 
L 380.409526 141.566555 
L 384.973254 213.698708 
L 389.536983 148.301154 
L 394.100711 145.782339 
L 398.66444 160.001848 
L 403.228169 150.758811 
L 407.791897 234.835486 
L 412.355626 190.220857 
L 416.919355 152.399545 
L 421.483083 156.821354 
L 426.046812 42.960229 
L 430.61054 223.105821 
L 435.174269 188.873278 
L 439.737998 197.030701 
L 444.301726 153.483899 
L 448.865455 231.781426 
L 453.429184 201.711044 
L 457.992912 174.498237 
L 462.556641 214.294023 
L 467.120369 235.427225 
L 471.684098 234.303723 
L 476.247827 215.376122 
L 480.811555 162.007571 
L 485.375284 245.567408 
L 489.939012 157.27639 
L 494.502741 277.498218 
L 499.06647 221.580829 
L 503.630198 268.957602 
L 508.193927 201.902575 
L 512.757656 174.696542 
L 517.321384 239.736895 
L 521.885113 121.246218 
L 526.448841 160.387591 
L 531.01257 213.987547 
L 535.576299 154.376778 
L 540.140027 234.208891 
L 544.703756 164.783626 
L 549.267485 189.90417 
L 553.831213 204.738188 
L 558.394942 200.309567 
L 562.95867 198.561941 
L 572.086128 256.361412 
L 576.649856 143.043933 
L 581.213585 278.034917 
L 585.777314 199.225788 
L 590.341042 178.021686 
L 594.904771 171.838371 
L 599.468499 248.434626 
L 604.032228 206.747282 
L 608.595957 278.992028 
L 613.159685 278.476322 
L 617.723414 268.734732 
L 622.287143 216.911934 
L 626.850871 151.839577 
L 631.4146 248.336139 
L 635.978328 218.975272 
L 640.542057 102.821436 
L 645.105786 138.803969 
L 649.669514 283.842618 
L 654.233243 201.849145 
L 658.796971 144.17828 
L 663.3607 183.696577 
L 667.924429 234.562581 
L 672.488157 168.660596 
L 677.051886 226.092114 
L 681.615615 143.025958 
L 686.179343 289.334492 
L 690.743072 218.486851 
L 695.3068 231.113643 
L 699.870529 120.567056 
L 704.434258 243.107102 
L 708.997986 195.655425 
L 713.561715 192.147616 
L 718.125444 258.226704 
L 722.689172 251.633749 
L 727.252901 225.712708 
L 731.816629 145.651579 
L 736.380358 264.806225 
L 740.944087 232.681024 
L 745.507815 281.29964 
L 750.071544 130.157641 
L 754.635273 234.971495 
L 759.199001 116.13519 
L 763.76273 172.066922 
L 768.326458 288.956452 
L 772.890187 230.741805 
L 777.453916 202.812347 
L 782.017644 104.364513 
L 786.581373 160.899965 
L 791.145101 147.417776 
L 795.70883 239.649295 
L 800.272559 197.918797 
L 804.836287 214.674807 
L 809.400016 250.211682 
L 813.963745 78.760556 
L 818.527473 230.563574 
L 823.091202 102.519792 
L 827.65493 76.897494 
L 832.218659 152.031693 
L 836.782388 171.755229 
L 841.346116 247.806617 
L 845.909845 206.181498 
L 850.473574 159.538017 
L 855.037302 190.563754 
L 859.601031 306.217055 
L 864.164759 204.404349 
L 868.728488 211.545293 
L 873.292217 230.085057 
L 877.855945 232.342969 
L 882.419674 127.849585 
L 886.983403 104.408385 
L 891.547131 214.123197 
L 896.11086 209.716574 
L 900.674588 217.550434 
L 905.238317 192.06106 
L 909.802046 214.10549 
L 914.365774 153.463131 
L 918.929503 187.89454 
L 923.493231 217.776994 
L 928.05696 239.842652 
L 932.620689 173.378847 
L 937.184417 148.189716 
L 941.748146 48.452174 
L 946.311875 223.837429 
L 950.875603 229.741884 
L 955.439332 249.845162 
L 960.00306 205.271344 
L 964.566789 218.280342 
L 969.130518 241.113177 
L 973.694246 171.788824 
L 978.257975 165.315547 
L 982.821704 283.654502 
L 987.385432 334.891317 
L 991.949161 226.382992 
L 996.512889 223.122611 
L 1001.076618 207.571088 
L 1005.640347 141.283963 
L 1010.204075 191.886747 
L 1014.767804 236.092331 
L 1019.331533 171.844082 
L 1023.895261 326.716717 
L 1028.45899 293.236553 
L 1033.022718 216.648418 
L 1037.586447 327.869528 
L 1042.150176 210.773539 
L 1046.713904 229.747914 
L 1051.277633 179.278735 
L 1055.841362 98.183761 
L 1060.40509 158.902734 
L 1064.968819 81.319208 
L 1069.532547 212.224361 
L 1074.096276 168.967003 
L 1078.660005 178.073467 
L 1083.223733 197.843375 
L 1087.787462 170.371461 
L 1092.35119 201.425571 
L 1096.914919 156.639767 
L 1101.478648 165.581568 
L 1106.042376 157.804446 
L 1110.606105 165.917287 
L 1115.169834 291.042595 
L 1119.733562 181.733172 
L 1124.297291 270.879789 
L 1128.861019 169.571859 
L 1133.424748 249.666847 
L 1137.988477 159.22136 
L 1142.552205 211.921189 
L 1147.115934 167.450184 
L 1151.679663 150.166323 
L 1156.243391 176.685412 
L 1160.80712 215.82759 
L 1165.370848 137.99153 
L 1169.934577 269.97974 
L 1174.498306 241.351785 
L 1179.062034 106.264742 
L 1183.625763 64.544333 
L 1188.189492 232.570788 
L 1192.75322 198.922536 
L 1197.316949 187.520773 
L 1201.880677 191.856161 
L 1206.444406 237.922563 
L 1211.008135 271.125347 
L 1215.571863 188.017888 
L 1220.135592 240.088746 
L 1224.69932 225.893781 
L 1229.263049 278.654898 
L 1233.826778 221.931591 
L 1238.390506 204.721656 
L 1242.954235 119.329878 
L 1247.517964 155.248658 
L 1252.081692 187.569825 
L 1256.645421 92.43612 
L 1261.209149 233.666923 
L 1265.772878 120.485742 
L 1270.336607 161.331785 
L 1274.900335 232.091086 
L 1279.464064 245.413659 
L 1284.027793 192.697013 
L 1288.591521 219.73462 
L 1293.15525 203.368901 
L 1297.718978 160.736796 
L 1302.282707 233.623259 
L 1306.846436 205.214448 
L 1311.410164 198.320106 
L 1315.973893 213.775153 
L 1320.537622 199.568195 
L 1325.10135 252.67769 
L 1329.665079 126.303159 
L 1334.228807 108.130478 
L 1338.792536 140.336838 
L 1343.356265 170.37431 
L 1347.919993 197.160857 
L 1352.483722 115.255066 
L 1357.047451 67.892172 
L 1361.611179 206.937337 
L 1366.174908 190.262264 
L 1366.174908 190.262264 
" style="fill:none;stroke:#1f77b4;stroke-linecap:square;stroke-width:1.5;"/>
   </g>
   <g id="line2d_17">
    <path clip-path="url(#pd18d108226)" d="M 202.424109 186.83095 
L 206.987838 244.326744 
L 211.551567 196.24416 
L 216.115295 160.330486 
L 220.679024 474.358902 
L 225.242752 125.342256 
L 229.806481 189.43283 
L 234.37021 365.417637 
L 238.933938 170.808415 
L 243.497667 148.003418 
L 248.061396 307.764319 
L 252.625124 234.072059 
L 257.188853 208.015508 
L 261.752581 91.335982 
L 266.31631 181.953556 
L 270.880039 231.725893 
L 275.443767 194.361417 
L 280.007496 269.794643 
L 284.571225 191.61273 
L 289.134953 265.092159 
L 293.698682 201.62284 
L 298.26241 187.355729 
L 302.826139 272.52862 
L 307.389868 201.342687 
L 311.953596 178.284031 
L 316.517325 258.870606 
L 321.081054 183.621988 
L 325.644782 195.080771 
L 330.208511 168.220949 
L 334.772239 196.532654 
L 339.335968 169.770137 
L 343.899697 288.503649 
L 348.463425 297.595864 
L 353.027154 229.321952 
L 357.590882 256.764106 
L 362.154611 146.518909 
L 366.71834 224.702523 
L 371.282068 227.861625 
L 375.845797 232.166339 
L 380.409526 201.181869 
L 384.973254 185.028318 
L 389.536983 238.493336 
L 394.100711 223.467665 
L 398.66444 239.605163 
L 403.228169 200.136665 
L 407.791897 189.21606 
L 412.355626 194.62804 
L 416.919355 206.643535 
L 421.483083 162.046996 
L 426.046812 219.820772 
L 435.174269 186.196686 
L 439.737998 182.722138 
L 444.301726 281.817161 
L 448.865455 146.523416 
L 453.429184 188.084115 
L 457.992912 195.660542 
L 462.556641 229.927805 
L 467.120369 267.523529 
L 471.684098 200.380128 
L 476.247827 154.382386 
L 480.811555 248.755683 
L 485.375284 264.17491 
L 489.939012 240.668549 
L 494.502741 150.585853 
L 499.06647 182.707475 
L 503.630198 242.54744 
L 508.193927 234.931844 
L 512.757656 215.584942 
L 517.321384 284.722538 
L 521.885113 252.229853 
L 526.448841 199.855625 
L 531.01257 119.527013 
L 535.576299 360.84838 
L 540.140027 253.947229 
L 544.703756 192.456056 
L 549.267485 141.8004 
L 553.831213 206.508571 
L 558.394942 188.882155 
L 562.95867 223.022509 
L 567.522399 179.355716 
L 572.086128 246.662055 
L 576.649856 246.224595 
L 581.213585 218.164559 
L 585.777314 152.737336 
L 590.341042 173.728132 
L 594.904771 131.311317 
L 599.468499 105.404894 
L 604.032228 230.400229 
L 608.595957 235.563747 
L 613.159685 179.167879 
L 617.723414 153.001421 
L 622.287143 158.436813 
L 626.850871 155.127623 
L 631.4146 198.488119 
L 635.978328 74.06527 
L 640.542057 99.93651 
L 645.105786 229.798557 
L 649.669514 203.942654 
L 654.233243 232.160418 
L 658.796971 144.264476 
L 663.3607 172.146936 
L 667.924429 193.768237 
L 672.488157 272.669487 
L 677.051886 155.233665 
L 681.615615 246.518789 
L 686.179343 156.212414 
L 690.743072 258.823832 
L 695.3068 166.253628 
L 699.870529 68.316383 
L 704.434258 148.074422 
L 708.997986 183.435086 
L 713.561715 141.914596 
L 718.125444 197.398593 
L 722.689172 235.343551 
L 727.252901 194.471802 
L 731.816629 178.082056 
L 736.380358 244.178399 
L 740.944087 284.420958 
L 745.507815 242.86701 
L 750.071544 195.143725 
L 754.635273 134.605856 
L 759.199001 179.825277 
L 763.76273 290.506847 
L 768.326458 254.328938 
L 772.890187 188.89753 
L 777.453916 224.661771 
L 782.017644 137.62244 
L 786.581373 215.00596 
L 791.145101 275.758794 
L 795.70883 231.656448 
L 800.272559 68.673212 
L 804.836287 173.866742 
L 809.400016 265.465851 
L 813.963745 228.231895 
L 818.527473 169.513955 
L 823.091202 238.392261 
L 827.65493 259.76116 
L 832.218659 166.08099 
L 836.782388 178.965153 
L 841.346116 196.009409 
L 845.909845 113.184675 
L 850.473574 239.726078 
L 855.037302 244.9122 
L 859.601031 265.456832 
L 864.164759 276.309696 
L 868.728488 255.528199 
L 873.292217 197.820338 
L 877.855945 256.905483 
L 882.419674 154.606093 
L 886.983403 251.728662 
L 891.547131 300.857528 
L 896.11086 179.940977 
L 900.674588 244.197767 
L 905.238317 165.021934 
L 909.802046 237.58556 
L 914.365774 230.646597 
L 918.929503 190.647219 
L 923.493231 234.106637 
L 928.05696 209.362797 
L 932.620689 104.115015 
L 937.184417 186.370755 
L 941.748146 191.722906 
L 946.311875 224.155388 
L 950.875603 159.503527 
L 955.439332 163.847958 
L 960.00306 280.684323 
L 964.566789 267.579051 
L 969.130518 191.450226 
L 973.694246 154.74677 
L 978.257975 235.056991 
L 982.821704 195.02444 
L 987.385432 185.91452 
L 991.949161 180.912419 
L 996.512889 233.626727 
L 1001.076618 177.635467 
L 1005.640347 268.129708 
L 1010.204075 245.767276 
L 1014.767804 195.163858 
L 1019.331533 278.833481 
L 1023.895261 264.319892 
L 1028.45899 184.759597 
L 1033.022718 146.068252 
L 1037.586447 207.319075 
L 1042.150176 143.153367 
L 1046.713904 301.064639 
L 1051.277633 278.221055 
L 1055.841362 239.000096 
L 1060.40509 211.96859 
L 1064.968819 179.12595 
L 1069.532547 268.086574 
L 1074.096276 97.235929 
L 1078.660005 218.600982 
L 1083.223733 236.507098 
L 1087.787462 160.879753 
L 1092.35119 222.899649 
L 1096.914919 181.310066 
L 1101.478648 199.62072 
L 1106.042376 207.406347 
L 1110.606105 217.747947 
L 1115.169834 171.871592 
L 1119.733562 234.372647 
L 1124.297291 183.716922 
L 1128.861019 191.520773 
L 1133.424748 168.793369 
L 1137.988477 155.838247 
L 1142.552205 198.946654 
L 1147.115934 150.912767 
L 1151.679663 270.253538 
L 1156.243391 180.375957 
L 1160.80712 154.308456 
L 1165.370848 196.170056 
L 1169.934577 152.673554 
L 1174.498306 308.537803 
L 1179.062034 120.012502 
L 1183.625763 225.492172 
L 1188.189492 203.312828 
L 1192.75322 283.858785 
L 1197.316949 159.840452 
L 1201.880677 97.358146 
L 1206.444406 166.469776 
L 1211.008135 230.036011 
L 1215.571863 222.521334 
L 1220.135592 165.190858 
L 1224.69932 127.852589 
L 1229.263049 96.320959 
L 1233.826778 144.730182 
L 1238.390506 274.249844 
L 1242.954235 178.798741 
L 1247.517964 280.802733 
L 1252.081692 210.067029 
L 1256.645421 170.474095 
L 1261.209149 163.6841 
L 1265.772878 222.006708 
L 1270.336607 180.790333 
L 1274.900335 198.560703 
L 1279.464064 182.601204 
L 1284.027793 204.141904 
L 1288.591521 323.01153 
L 1293.15525 281.097025 
L 1297.718978 296.83415 
L 1302.282707 202.88621 
L 1306.846436 176.108519 
L 1311.410164 171.070994 
L 1315.973893 131.433794 
L 1320.537622 86.783799 
L 1325.10135 173.060831 
L 1334.228807 224.218934 
L 1338.792536 203.985425 
L 1343.356265 174.165683 
L 1347.919993 271.052054 
L 1352.483722 211.394062 
L 1357.047451 137.128115 
L 1361.611179 107.625881 
L 1366.174908 161.550958 
L 1366.174908 161.550958 
" style="fill:none;stroke:#ff7f0e;stroke-linecap:square;stroke-width:1.5;"/>
   </g>
   <g id="line2d_18">
    <path clip-path="url(#pd18d108226)" d="M 202.424109 209.906191 
L 206.987838 127.649925 
L 211.551567 134.982024 
L 216.115295 164.413304 
L 220.679024 174.940041 
L 225.242752 114.329283 
L 229.806481 149.100352 
L 234.37021 77.502596 
L 238.933938 164.122776 
L 243.497667 204.193886 
L 248.061396 130.412718 
L 252.625124 154.708719 
L 257.188853 288.062715 
L 261.752581 213.801566 
L 266.31631 206.298819 
L 270.880039 115.07032 
L 275.443767 154.633836 
L 280.007496 218.906778 
L 284.571225 178.42809 
L 289.134953 212.000899 
L 293.698682 214.542807 
L 298.26241 167.363351 
L 302.826139 144.594651 
L 307.389868 194.445214 
L 311.953596 123.879176 
L 316.517325 232.412266 
L 321.081054 137.537581 
L 325.644782 167.699433 
L 330.208511 136.711677 
L 334.772239 275.284836 
L 339.335968 139.729583 
L 343.899697 194.937281 
L 348.463425 216.902772 
L 353.027154 223.592156 
L 357.590882 135.336981 
L 362.154611 256.627482 
L 366.71834 206.007654 
L 371.282068 273.416328 
L 375.845797 195.272344 
L 380.409526 220.53576 
L 384.973254 205.617203 
L 389.536983 256.776714 
L 394.100711 290.487802 
L 398.66444 154.448619 
L 403.228169 299.875653 
L 407.791897 245.323594 
L 412.355626 252.913673 
L 416.919355 205.362467 
L 421.483083 162.64876 
L 426.046812 173.781574 
L 430.61054 182.840559 
L 435.174269 217.616369 
L 439.737998 192.552061 
L 444.301726 267.056747 
L 448.865455 197.293778 
L 453.429184 233.195297 
L 457.992912 225.416383 
L 462.556641 283.370869 
L 467.120369 167.811958 
L 471.684098 210.533051 
L 476.247827 213.991211 
L 480.811555 309.367308 
L 485.375284 218.909475 
L 489.939012 132.666821 
L 494.502741 277.528892 
L 499.06647 211.151083 
L 503.630198 114.658005 
L 508.193927 274.181426 
L 512.757656 268.651639 
L 517.321384 221.603624 
L 521.885113 237.730264 
L 526.448841 159.383481 
L 531.01257 272.212491 
L 535.576299 271.790094 
L 540.140027 190.499989 
L 544.703756 206.091544 
L 549.267485 156.612104 
L 553.831213 221.884717 
L 558.394942 331.350783 
L 562.95867 166.341716 
L 567.522399 194.729334 
L 572.086128 240.000924 
L 576.649856 166.842032 
L 581.213585 156.440767 
L 585.777314 148.430121 
L 590.341042 138.905354 
L 594.904771 184.951742 
L 599.468499 204.438695 
L 604.032228 164.820631 
L 608.595957 219.167945 
L 613.159685 186.392082 
L 617.723414 137.561142 
L 622.287143 169.953173 
L 626.850871 185.743033 
L 631.4146 113.861262 
L 635.978328 237.947833 
L 640.542057 186.437588 
L 645.105786 185.383827 
L 649.669514 131.619278 
L 654.233243 159.578642 
L 658.796971 295.879874 
L 663.3607 195.832255 
L 667.924429 222.717894 
L 672.488157 235.77738 
L 677.051886 212.271362 
L 681.615615 210.669406 
L 686.179343 220.169014 
L 690.743072 222.105547 
L 695.3068 209.739289 
L 699.870529 189.737293 
L 704.434258 191.197896 
L 708.997986 369.919257 
L 713.561715 238.941285 
L 718.125444 173.703797 
L 722.689172 225.011828 
L 727.252901 214.249458 
L 731.816629 254.585348 
L 736.380358 297.541777 
L 740.944087 136.705641 
L 745.507815 266.607124 
L 750.071544 256.424406 
L 754.635273 224.444 
L 759.199001 147.862889 
L 763.76273 237.682326 
L 768.326458 231.725819 
L 772.890187 214.789683 
L 777.453916 156.215819 
L 782.017644 243.981834 
L 786.581373 171.392368 
L 791.145101 172.087426 
L 795.70883 223.367758 
L 800.272559 223.389409 
L 804.836287 202.599679 
L 809.400016 138.514208 
L 813.963745 300.071141 
L 818.527473 141.382565 
L 823.091202 213.003252 
L 827.65493 248.360224 
L 832.218659 212.183815 
L 836.782388 160.230244 
L 841.346116 172.865877 
L 845.909845 170.946939 
L 850.473574 143.615794 
L 855.037302 200.636515 
L 859.601031 239.233966 
L 864.164759 108.414139 
L 868.728488 218.856061 
L 873.292217 193.470871 
L 877.855945 187.551983 
L 882.419674 205.510312 
L 886.983403 193.674178 
L 891.547131 197.183658 
L 896.11086 175.683252 
L 900.674588 223.268764 
L 905.238317 145.023228 
L 909.802046 206.774108 
L 914.365774 280.333813 
L 918.929503 180.073416 
L 923.493231 200.235208 
L 928.05696 230.867638 
L 932.620689 209.783367 
L 937.184417 246.613272 
L 941.748146 205.106649 
L 946.311875 216.754274 
L 950.875603 173.561182 
L 955.439332 288.172015 
L 960.00306 179.85942 
L 964.566789 217.741061 
L 969.130518 166.164991 
L 973.694246 262.479315 
L 978.257975 149.974095 
L 982.821704 186.806752 
L 987.385432 82.582085 
L 991.949161 77.973635 
L 996.512889 248.907243 
L 1001.076618 206.812589 
L 1005.640347 184.082507 
L 1010.204075 180.236133 
L 1014.767804 216.02336 
L 1019.331533 177.894754 
L 1023.895261 258.985956 
L 1028.45899 166.021429 
L 1033.022718 162.307944 
L 1037.586447 234.171492 
L 1042.150176 163.071628 
L 1046.713904 184.102204 
L 1051.277633 228.922168 
L 1055.841362 274.912326 
L 1060.40509 180.210607 
L 1064.968819 151.47704 
L 1069.532547 169.50369 
L 1074.096276 150.998221 
L 1078.660005 127.44567 
L 1083.223733 198.786386 
L 1087.787462 193.23666 
L 1092.35119 229.817387 
L 1096.914919 93.45232 
L 1101.478648 276.189232 
L 1106.042376 201.469447 
L 1110.606105 157.102159 
L 1115.169834 160.40386 
L 1119.733562 223.99383 
L 1124.297291 125.720598 
L 1128.861019 154.960128 
L 1133.424748 220.784388 
L 1137.988477 233.340357 
L 1142.552205 222.229956 
L 1147.115934 149.032739 
L 1151.679663 153.653069 
L 1156.243391 198.400352 
L 1160.80712 267.385026 
L 1165.370848 262.553565 
L 1169.934577 182.38152 
L 1174.498306 197.578674 
L 1179.062034 161.454072 
L 1183.625763 122.82037 
L 1188.189492 259.127065 
L 1192.75322 223.841541 
L 1197.316949 237.13995 
L 1201.880677 296.547724 
L 1206.444406 150.447026 
L 1211.008135 173.252345 
L 1215.571863 106.858806 
L 1220.135592 155.099222 
L 1224.69932 163.901391 
L 1229.263049 240.598327 
L 1233.826778 195.207681 
L 1238.390506 239.305173 
L 1242.954235 175.233224 
L 1247.517964 242.484053 
L 1252.081692 208.033268 
L 1256.645421 178.877289 
L 1261.209149 228.043913 
L 1265.772878 131.333197 
L 1270.336607 321.485766 
L 1274.900335 187.996496 
L 1279.464064 265.514303 
L 1284.027793 229.055001 
L 1288.591521 205.153276 
L 1293.15525 226.15613 
L 1297.718978 266.436209 
L 1302.282707 262.617241 
L 1306.846436 204.900084 
L 1311.410164 189.731839 
L 1315.973893 176.530349 
L 1320.537622 171.63616 
L 1325.10135 264.659815 
L 1329.665079 221.912156 
L 1334.228807 238.295607 
L 1338.792536 258.645404 
L 1343.356265 165.532325 
L 1347.919993 176.784584 
L 1352.483722 251.229968 
L 1357.047451 144.401562 
L 1361.611179 287.163145 
L 1366.174908 178.058203 
L 1366.174908 178.058203 
" style="fill:none;stroke:#2ca02c;stroke-linecap:square;stroke-width:1.5;"/>
   </g>
   <g id="patch_13">
    <path d="M 143.05 496.2 
L 143.05 15.695851 
" style="fill:none;stroke:#000000;stroke-linecap:square;stroke-linejoin:miter;stroke-width:0.8;"/>
   </g>
   <g id="patch_14">
    <path d="M 1429.2 496.2 
L 1429.2 15.695851 
" style="fill:none;stroke:#000000;stroke-linecap:square;stroke-linejoin:miter;stroke-width:0.8;"/>
   </g>
   <g id="patch_15">
    <path d="M 143.05 496.2 
L 1429.2 496.2 
" style="fill:none;stroke:#000000;stroke-linecap:square;stroke-linejoin:miter;stroke-width:0.8;"/>
   </g>
   <g id="patch_16">
    <path d="M 143.05 15.695851 
L 1429.2 15.695851 
" style="fill:none;stroke:#000000;stroke-linecap:square;stroke-linejoin:miter;stroke-width:0.8;"/>
   </g>
  </g>
 </g>
 <defs>
  <clipPath id="pd18d108226">
   <rect height="480.504149" width="1286.15" x="143.05" y="15.695851"/>
  </clipPath>
 </defs>
</svg>
