<?xml version="1.0" encoding="utf-8" standalone="no"?>
<!DOCTYPE svg PUBLIC "-//W3C//DTD SVG 1.1//EN"
  "http://www.w3.org/Graphics/SVG/1.1/DTD/svg11.dtd">
<!-- Created with matplotlib (https://matplotlib.org/) -->
<svg height="576pt" version="1.1" viewBox="0 0 1440 576" width="1440pt" xmlns="http://www.w3.org/2000/svg" xmlns:xlink="http://www.w3.org/1999/xlink">
 <defs>
  <style type="text/css">
*{stroke-linecap:butt;stroke-linejoin:round;white-space:pre;}
  </style>
 </defs>
 <g id="figure_1">
  <g id="patch_1">
   <path d="M 0 576 
L 1440 576 
L 1440 0 
L 0 0 
z
" style="fill:#ffffff;"/>
  </g>
  <g id="axes_1">
   <g id="patch_2">
    <path d="M 143.05 496.2 
L 1429.2 496.2 
L 1429.2 18.172242 
L 143.05 18.172242 
z
" style="fill:#ffffff;"/>
   </g>
   <g id="patch_3">
    <path clip-path="url(#pf84b4b0a59)" d="M 201.511364 496.2 
L 201.511364 18.172242 
L 202.424109 18.172242 
L 202.424109 496.2 
z
" style="fill:#0000ff;"/>
   </g>
   <g id="patch_4">
    <path clip-path="url(#pf84b4b0a59)" d="M 206.075092 496.2 
L 206.075092 18.172242 
L 206.987838 18.172242 
L 206.987838 496.2 
z
" style="fill:#0000ff;"/>
   </g>
   <g id="patch_5">
    <path clip-path="url(#pf84b4b0a59)" d="M 242.584921 496.2 
L 242.584921 18.172242 
L 243.497667 18.172242 
L 243.497667 496.2 
z
" style="fill:#0000ff;"/>
   </g>
   <g id="patch_6">
    <path clip-path="url(#pf84b4b0a59)" d="M 370.369323 496.2 
L 370.369323 18.172242 
L 371.282068 18.172242 
L 371.282068 496.2 
z
" style="fill:#0000ff;"/>
   </g>
   <g id="patch_7">
    <path clip-path="url(#pf84b4b0a59)" d="M 625.938125 496.2 
L 625.938125 18.172242 
L 626.850871 18.172242 
L 626.850871 496.2 
z
" style="fill:#0000ff;"/>
   </g>
   <g id="patch_8">
    <path clip-path="url(#pf84b4b0a59)" d="M 945.399129 496.2 
L 945.399129 18.172242 
L 946.311875 18.172242 
L 946.311875 496.2 
z
" style="fill:#0000ff;"/>
   </g>
   <g id="patch_9">
    <path clip-path="url(#pf84b4b0a59)" d="M 1200.967932 496.2 
L 1200.967932 18.172242 
L 1201.880677 18.172242 
L 1201.880677 496.2 
z
" style="fill:#0000ff;"/>
   </g>
   <g id="patch_10">
    <path clip-path="url(#pf84b4b0a59)" d="M 1328.752333 496.2 
L 1328.752333 18.172242 
L 1329.665079 18.172242 
L 1329.665079 496.2 
z
" style="fill:#0000ff;"/>
   </g>
   <g id="patch_11">
    <path clip-path="url(#pf84b4b0a59)" d="M 1365.262162 496.2 
L 1365.262162 18.172242 
L 1366.174908 18.172242 
L 1366.174908 496.2 
z
" style="fill:#0000ff;"/>
   </g>
   <g id="patch_12">
    <path clip-path="url(#pf84b4b0a59)" d="M 1369.825891 496.2 
L 1369.825891 18.172242 
L 1370.738636 18.172242 
L 1370.738636 496.2 
z
" style="fill:#0000ff;"/>
   </g>
   <g id="matplotlib.axis_1">
    <g id="xtick_1">
     <g id="line2d_1">
      <defs>
       <path d="M 0 0 
L 0 3.5 
" id="m3973cacd68" style="stroke:#000000;stroke-width:0.8;"/>
      </defs>
      <g>
       <use style="stroke:#000000;stroke-width:0.8;" x="202.424109" xlink:href="#m3973cacd68" y="496.2"/>
      </g>
     </g>
     <g id="text_1">
      <!-- 0 -->
      <defs>
       <path d="M 31.78125 66.40625 
Q 24.171875 66.40625 20.328125 58.90625 
Q 16.5 51.421875 16.5 36.375 
Q 16.5 21.390625 20.328125 13.890625 
Q 24.171875 6.390625 31.78125 6.390625 
Q 39.453125 6.390625 43.28125 13.890625 
Q 47.125 21.390625 47.125 36.375 
Q 47.125 51.421875 43.28125 58.90625 
Q 39.453125 66.40625 31.78125 66.40625 
z
M 31.78125 74.21875 
Q 44.046875 74.21875 50.515625 64.515625 
Q 56.984375 54.828125 56.984375 36.375 
Q 56.984375 17.96875 50.515625 8.265625 
Q 44.046875 -1.421875 31.78125 -1.421875 
Q 19.53125 -1.421875 13.0625 8.265625 
Q 6.59375 17.96875 6.59375 36.375 
Q 6.59375 54.828125 13.0625 64.515625 
Q 19.53125 74.21875 31.78125 74.21875 
z
" id="DejaVuSans-48"/>
      </defs>
      <g transform="translate(192.880359 525.995312)scale(0.3 -0.3)">
       <use xlink:href="#DejaVuSans-48"/>
      </g>
     </g>
    </g>
    <g id="xtick_2">
     <g id="line2d_2">
      <g>
       <use style="stroke:#000000;stroke-width:0.8;" x="430.61054" xlink:href="#m3973cacd68" y="496.2"/>
      </g>
     </g>
     <g id="text_2">
      <!-- 50 -->
      <defs>
       <path d="M 10.796875 72.90625 
L 49.515625 72.90625 
L 49.515625 64.59375 
L 19.828125 64.59375 
L 19.828125 46.734375 
Q 21.96875 47.46875 24.109375 47.828125 
Q 26.265625 48.1875 28.421875 48.1875 
Q 40.625 48.1875 47.75 41.5 
Q 54.890625 34.8125 54.890625 23.390625 
Q 54.890625 11.625 47.5625 5.09375 
Q 40.234375 -1.421875 26.90625 -1.421875 
Q 22.3125 -1.421875 17.546875 -0.640625 
Q 12.796875 0.140625 7.71875 1.703125 
L 7.71875 11.625 
Q 12.109375 9.234375 16.796875 8.0625 
Q 21.484375 6.890625 26.703125 6.890625 
Q 35.15625 6.890625 40.078125 11.328125 
Q 45.015625 15.765625 45.015625 23.390625 
Q 45.015625 31 40.078125 35.4375 
Q 35.15625 39.890625 26.703125 39.890625 
Q 22.75 39.890625 18.8125 39.015625 
Q 14.890625 38.140625 10.796875 36.28125 
z
" id="DejaVuSans-53"/>
      </defs>
      <g transform="translate(411.52304 525.995312)scale(0.3 -0.3)">
       <use xlink:href="#DejaVuSans-53"/>
       <use x="63.623047" xlink:href="#DejaVuSans-48"/>
      </g>
     </g>
    </g>
    <g id="xtick_3">
     <g id="line2d_3">
      <g>
       <use style="stroke:#000000;stroke-width:0.8;" x="658.796971" xlink:href="#m3973cacd68" y="496.2"/>
      </g>
     </g>
     <g id="text_3">
      <!-- 100 -->
      <defs>
       <path d="M 12.40625 8.296875 
L 28.515625 8.296875 
L 28.515625 63.921875 
L 10.984375 60.40625 
L 10.984375 69.390625 
L 28.421875 72.90625 
L 38.28125 72.90625 
L 38.28125 8.296875 
L 54.390625 8.296875 
L 54.390625 0 
L 12.40625 0 
z
" id="DejaVuSans-49"/>
      </defs>
      <g transform="translate(630.165721 525.995312)scale(0.3 -0.3)">
       <use xlink:href="#DejaVuSans-49"/>
       <use x="63.623047" xlink:href="#DejaVuSans-48"/>
       <use x="127.246094" xlink:href="#DejaVuSans-48"/>
      </g>
     </g>
    </g>
    <g id="xtick_4">
     <g id="line2d_4">
      <g>
       <use style="stroke:#000000;stroke-width:0.8;" x="886.983403" xlink:href="#m3973cacd68" y="496.2"/>
      </g>
     </g>
     <g id="text_4">
      <!-- 150 -->
      <g transform="translate(858.352153 525.995312)scale(0.3 -0.3)">
       <use xlink:href="#DejaVuSans-49"/>
       <use x="63.623047" xlink:href="#DejaVuSans-53"/>
       <use x="127.246094" xlink:href="#DejaVuSans-48"/>
      </g>
     </g>
    </g>
    <g id="xtick_5">
     <g id="line2d_5">
      <g>
       <use style="stroke:#000000;stroke-width:0.8;" x="1115.169834" xlink:href="#m3973cacd68" y="496.2"/>
      </g>
     </g>
     <g id="text_5">
      <!-- 200 -->
      <defs>
       <path d="M 19.1875 8.296875 
L 53.609375 8.296875 
L 53.609375 0 
L 7.328125 0 
L 7.328125 8.296875 
Q 12.9375 14.109375 22.625 23.890625 
Q 32.328125 33.6875 34.8125 36.53125 
Q 39.546875 41.84375 41.421875 45.53125 
Q 43.3125 49.21875 43.3125 52.78125 
Q 43.3125 58.59375 39.234375 62.25 
Q 35.15625 65.921875 28.609375 65.921875 
Q 23.96875 65.921875 18.8125 64.3125 
Q 13.671875 62.703125 7.8125 59.421875 
L 7.8125 69.390625 
Q 13.765625 71.78125 18.9375 73 
Q 24.125 74.21875 28.421875 74.21875 
Q 39.75 74.21875 46.484375 68.546875 
Q 53.21875 62.890625 53.21875 53.421875 
Q 53.21875 48.921875 51.53125 44.890625 
Q 49.859375 40.875 45.40625 35.40625 
Q 44.1875 33.984375 37.640625 27.21875 
Q 31.109375 20.453125 19.1875 8.296875 
z
" id="DejaVuSans-50"/>
      </defs>
      <g transform="translate(1086.538584 525.995312)scale(0.3 -0.3)">
       <use xlink:href="#DejaVuSans-50"/>
       <use x="63.623047" xlink:href="#DejaVuSans-48"/>
       <use x="127.246094" xlink:href="#DejaVuSans-48"/>
      </g>
     </g>
    </g>
    <g id="xtick_6">
     <g id="line2d_6">
      <g>
       <use style="stroke:#000000;stroke-width:0.8;" x="1343.356265" xlink:href="#m3973cacd68" y="496.2"/>
      </g>
     </g>
     <g id="text_6">
      <!-- 250 -->
      <g transform="translate(1314.725015 525.995312)scale(0.3 -0.3)">
       <use xlink:href="#DejaVuSans-50"/>
       <use x="63.623047" xlink:href="#DejaVuSans-53"/>
       <use x="127.246094" xlink:href="#DejaVuSans-48"/>
      </g>
     </g>
    </g>
    <g id="text_7">
     <!-- Bit Interaction -->
     <defs>
      <path d="M 19.671875 34.8125 
L 19.671875 8.109375 
L 35.5 8.109375 
Q 43.453125 8.109375 47.28125 11.40625 
Q 51.125 14.703125 51.125 21.484375 
Q 51.125 28.328125 47.28125 31.5625 
Q 43.453125 34.8125 35.5 34.8125 
z
M 19.671875 64.796875 
L 19.671875 42.828125 
L 34.28125 42.828125 
Q 41.5 42.828125 45.03125 45.53125 
Q 48.578125 48.25 48.578125 53.8125 
Q 48.578125 59.328125 45.03125 62.0625 
Q 41.5 64.796875 34.28125 64.796875 
z
M 9.8125 72.90625 
L 35.015625 72.90625 
Q 46.296875 72.90625 52.390625 68.21875 
Q 58.5 63.53125 58.5 54.890625 
Q 58.5 48.1875 55.375 44.234375 
Q 52.25 40.28125 46.1875 39.3125 
Q 53.46875 37.75 57.5 32.78125 
Q 61.53125 27.828125 61.53125 20.40625 
Q 61.53125 10.640625 54.890625 5.3125 
Q 48.25 0 35.984375 0 
L 9.8125 0 
z
" id="DejaVuSans-66"/>
      <path d="M 9.421875 54.6875 
L 18.40625 54.6875 
L 18.40625 0 
L 9.421875 0 
z
M 9.421875 75.984375 
L 18.40625 75.984375 
L 18.40625 64.59375 
L 9.421875 64.59375 
z
" id="DejaVuSans-105"/>
      <path d="M 18.3125 70.21875 
L 18.3125 54.6875 
L 36.8125 54.6875 
L 36.8125 47.703125 
L 18.3125 47.703125 
L 18.3125 18.015625 
Q 18.3125 11.328125 20.140625 9.421875 
Q 21.96875 7.515625 27.59375 7.515625 
L 36.8125 7.515625 
L 36.8125 0 
L 27.59375 0 
Q 17.1875 0 13.234375 3.875 
Q 9.28125 7.765625 9.28125 18.015625 
L 9.28125 47.703125 
L 2.6875 47.703125 
L 2.6875 54.6875 
L 9.28125 54.6875 
L 9.28125 70.21875 
z
" id="DejaVuSans-116"/>
      <path id="DejaVuSans-32"/>
      <path d="M 9.8125 72.90625 
L 19.671875 72.90625 
L 19.671875 0 
L 9.8125 0 
z
" id="DejaVuSans-73"/>
      <path d="M 54.890625 33.015625 
L 54.890625 0 
L 45.90625 0 
L 45.90625 32.71875 
Q 45.90625 40.484375 42.875 44.328125 
Q 39.84375 48.1875 33.796875 48.1875 
Q 26.515625 48.1875 22.3125 43.546875 
Q 18.109375 38.921875 18.109375 30.90625 
L 18.109375 0 
L 9.078125 0 
L 9.078125 54.6875 
L 18.109375 54.6875 
L 18.109375 46.1875 
Q 21.34375 51.125 25.703125 53.5625 
Q 30.078125 56 35.796875 56 
Q 45.21875 56 50.046875 50.171875 
Q 54.890625 44.34375 54.890625 33.015625 
z
" id="DejaVuSans-110"/>
      <path d="M 56.203125 29.59375 
L 56.203125 25.203125 
L 14.890625 25.203125 
Q 15.484375 15.921875 20.484375 11.0625 
Q 25.484375 6.203125 34.421875 6.203125 
Q 39.59375 6.203125 44.453125 7.46875 
Q 49.3125 8.734375 54.109375 11.28125 
L 54.109375 2.78125 
Q 49.265625 0.734375 44.1875 -0.34375 
Q 39.109375 -1.421875 33.890625 -1.421875 
Q 20.796875 -1.421875 13.15625 6.1875 
Q 5.515625 13.8125 5.515625 26.8125 
Q 5.515625 40.234375 12.765625 48.109375 
Q 20.015625 56 32.328125 56 
Q 43.359375 56 49.78125 48.890625 
Q 56.203125 41.796875 56.203125 29.59375 
z
M 47.21875 32.234375 
Q 47.125 39.59375 43.09375 43.984375 
Q 39.0625 48.390625 32.421875 48.390625 
Q 24.90625 48.390625 20.390625 44.140625 
Q 15.875 39.890625 15.1875 32.171875 
z
" id="DejaVuSans-101"/>
      <path d="M 41.109375 46.296875 
Q 39.59375 47.171875 37.8125 47.578125 
Q 36.03125 48 33.890625 48 
Q 26.265625 48 22.1875 43.046875 
Q 18.109375 38.09375 18.109375 28.8125 
L 18.109375 0 
L 9.078125 0 
L 9.078125 54.6875 
L 18.109375 54.6875 
L 18.109375 46.1875 
Q 20.953125 51.171875 25.484375 53.578125 
Q 30.03125 56 36.53125 56 
Q 37.453125 56 38.578125 55.875 
Q 39.703125 55.765625 41.0625 55.515625 
z
" id="DejaVuSans-114"/>
      <path d="M 34.28125 27.484375 
Q 23.390625 27.484375 19.1875 25 
Q 14.984375 22.515625 14.984375 16.5 
Q 14.984375 11.71875 18.140625 8.90625 
Q 21.296875 6.109375 26.703125 6.109375 
Q 34.1875 6.109375 38.703125 11.40625 
Q 43.21875 16.703125 43.21875 25.484375 
L 43.21875 27.484375 
z
M 52.203125 31.203125 
L 52.203125 0 
L 43.21875 0 
L 43.21875 8.296875 
Q 40.140625 3.328125 35.546875 0.953125 
Q 30.953125 -1.421875 24.3125 -1.421875 
Q 15.921875 -1.421875 10.953125 3.296875 
Q 6 8.015625 6 15.921875 
Q 6 25.140625 12.171875 29.828125 
Q 18.359375 34.515625 30.609375 34.515625 
L 43.21875 34.515625 
L 43.21875 35.40625 
Q 43.21875 41.609375 39.140625 45 
Q 35.0625 48.390625 27.6875 48.390625 
Q 23 48.390625 18.546875 47.265625 
Q 14.109375 46.140625 10.015625 43.890625 
L 10.015625 52.203125 
Q 14.9375 54.109375 19.578125 55.046875 
Q 24.21875 56 28.609375 56 
Q 40.484375 56 46.34375 49.84375 
Q 52.203125 43.703125 52.203125 31.203125 
z
" id="DejaVuSans-97"/>
      <path d="M 48.78125 52.59375 
L 48.78125 44.1875 
Q 44.96875 46.296875 41.140625 47.34375 
Q 37.3125 48.390625 33.40625 48.390625 
Q 24.65625 48.390625 19.8125 42.84375 
Q 14.984375 37.3125 14.984375 27.296875 
Q 14.984375 17.28125 19.8125 11.734375 
Q 24.65625 6.203125 33.40625 6.203125 
Q 37.3125 6.203125 41.140625 7.25 
Q 44.96875 8.296875 48.78125 10.40625 
L 48.78125 2.09375 
Q 45.015625 0.34375 40.984375 -0.53125 
Q 36.96875 -1.421875 32.421875 -1.421875 
Q 20.0625 -1.421875 12.78125 6.34375 
Q 5.515625 14.109375 5.515625 27.296875 
Q 5.515625 40.671875 12.859375 48.328125 
Q 20.21875 56 33.015625 56 
Q 37.15625 56 41.109375 55.140625 
Q 45.0625 54.296875 48.78125 52.59375 
z
" id="DejaVuSans-99"/>
      <path d="M 30.609375 48.390625 
Q 23.390625 48.390625 19.1875 42.75 
Q 14.984375 37.109375 14.984375 27.296875 
Q 14.984375 17.484375 19.15625 11.84375 
Q 23.34375 6.203125 30.609375 6.203125 
Q 37.796875 6.203125 41.984375 11.859375 
Q 46.1875 17.53125 46.1875 27.296875 
Q 46.1875 37.015625 41.984375 42.703125 
Q 37.796875 48.390625 30.609375 48.390625 
z
M 30.609375 56 
Q 42.328125 56 49.015625 48.375 
Q 55.71875 40.765625 55.71875 27.296875 
Q 55.71875 13.875 49.015625 6.21875 
Q 42.328125 -1.421875 30.609375 -1.421875 
Q 18.84375 -1.421875 12.171875 6.21875 
Q 5.515625 13.875 5.515625 27.296875 
Q 5.515625 40.765625 12.171875 48.375 
Q 18.84375 56 30.609375 56 
z
" id="DejaVuSans-111"/>
     </defs>
     <g transform="translate(679.639063 559.029688)scale(0.3 -0.3)">
      <use xlink:href="#DejaVuSans-66"/>
      <use x="68.603516" xlink:href="#DejaVuSans-105"/>
      <use x="96.386719" xlink:href="#DejaVuSans-116"/>
      <use x="135.595703" xlink:href="#DejaVuSans-32"/>
      <use x="167.382812" xlink:href="#DejaVuSans-73"/>
      <use x="196.875" xlink:href="#DejaVuSans-110"/>
      <use x="260.253906" xlink:href="#DejaVuSans-116"/>
      <use x="299.462891" xlink:href="#DejaVuSans-101"/>
      <use x="360.986328" xlink:href="#DejaVuSans-114"/>
      <use x="402.099609" xlink:href="#DejaVuSans-97"/>
      <use x="463.378906" xlink:href="#DejaVuSans-99"/>
      <use x="518.359375" xlink:href="#DejaVuSans-116"/>
      <use x="557.568359" xlink:href="#DejaVuSans-105"/>
      <use x="585.351562" xlink:href="#DejaVuSans-111"/>
      <use x="646.533203" xlink:href="#DejaVuSans-110"/>
     </g>
    </g>
   </g>
   <g id="matplotlib.axis_2">
    <g id="ytick_1">
     <g id="line2d_7">
      <defs>
       <path d="M 0 0 
L -3.5 0 
" id="m3cf53bcc9a" style="stroke:#000000;stroke-width:0.8;"/>
      </defs>
      <g>
       <use style="stroke:#000000;stroke-width:0.8;" x="143.05" xlink:href="#m3cf53bcc9a" y="448.778215"/>
      </g>
     </g>
     <g id="text_8">
      <!-- −1.00 -->
      <defs>
       <path d="M 10.59375 35.5 
L 73.1875 35.5 
L 73.1875 27.203125 
L 10.59375 27.203125 
z
" id="DejaVuSans-8722"/>
       <path d="M 10.6875 12.40625 
L 21 12.40625 
L 21 0 
L 10.6875 0 
z
" id="DejaVuSans-46"/>
      </defs>
      <g transform="translate(44.114063 460.175871)scale(0.3 -0.3)">
       <use xlink:href="#DejaVuSans-8722"/>
       <use x="83.789062" xlink:href="#DejaVuSans-49"/>
       <use x="147.412109" xlink:href="#DejaVuSans-46"/>
       <use x="179.199219" xlink:href="#DejaVuSans-48"/>
       <use x="242.822266" xlink:href="#DejaVuSans-48"/>
      </g>
     </g>
    </g>
    <g id="ytick_2">
     <g id="line2d_8">
      <g>
       <use style="stroke:#000000;stroke-width:0.8;" x="143.05" xlink:href="#m3cf53bcc9a" y="387.911262"/>
      </g>
     </g>
     <g id="text_9">
      <!-- −0.75 -->
      <defs>
       <path d="M 8.203125 72.90625 
L 55.078125 72.90625 
L 55.078125 68.703125 
L 28.609375 0 
L 18.3125 0 
L 43.21875 64.59375 
L 8.203125 64.59375 
z
" id="DejaVuSans-55"/>
      </defs>
      <g transform="translate(44.114063 399.308918)scale(0.3 -0.3)">
       <use xlink:href="#DejaVuSans-8722"/>
       <use x="83.789062" xlink:href="#DejaVuSans-48"/>
       <use x="147.412109" xlink:href="#DejaVuSans-46"/>
       <use x="179.199219" xlink:href="#DejaVuSans-55"/>
       <use x="242.822266" xlink:href="#DejaVuSans-53"/>
      </g>
     </g>
    </g>
    <g id="ytick_3">
     <g id="line2d_9">
      <g>
       <use style="stroke:#000000;stroke-width:0.8;" x="143.05" xlink:href="#m3cf53bcc9a" y="327.044309"/>
      </g>
     </g>
     <g id="text_10">
      <!-- −0.50 -->
      <g transform="translate(44.114063 338.441966)scale(0.3 -0.3)">
       <use xlink:href="#DejaVuSans-8722"/>
       <use x="83.789062" xlink:href="#DejaVuSans-48"/>
       <use x="147.412109" xlink:href="#DejaVuSans-46"/>
       <use x="179.199219" xlink:href="#DejaVuSans-53"/>
       <use x="242.822266" xlink:href="#DejaVuSans-48"/>
      </g>
     </g>
    </g>
    <g id="ytick_4">
     <g id="line2d_10">
      <g>
       <use style="stroke:#000000;stroke-width:0.8;" x="143.05" xlink:href="#m3cf53bcc9a" y="266.177357"/>
      </g>
     </g>
     <g id="text_11">
      <!-- −0.25 -->
      <g transform="translate(44.114063 277.575013)scale(0.3 -0.3)">
       <use xlink:href="#DejaVuSans-8722"/>
       <use x="83.789062" xlink:href="#DejaVuSans-48"/>
       <use x="147.412109" xlink:href="#DejaVuSans-46"/>
       <use x="179.199219" xlink:href="#DejaVuSans-50"/>
       <use x="242.822266" xlink:href="#DejaVuSans-53"/>
      </g>
     </g>
    </g>
    <g id="ytick_5">
     <g id="line2d_11">
      <g>
       <use style="stroke:#000000;stroke-width:0.8;" x="143.05" xlink:href="#m3cf53bcc9a" y="205.310404"/>
      </g>
     </g>
     <g id="text_12">
      <!-- 0.00 -->
      <g transform="translate(69.253125 216.70806)scale(0.3 -0.3)">
       <use xlink:href="#DejaVuSans-48"/>
       <use x="63.623047" xlink:href="#DejaVuSans-46"/>
       <use x="95.410156" xlink:href="#DejaVuSans-48"/>
       <use x="159.033203" xlink:href="#DejaVuSans-48"/>
      </g>
     </g>
    </g>
    <g id="ytick_6">
     <g id="line2d_12">
      <g>
       <use style="stroke:#000000;stroke-width:0.8;" x="143.05" xlink:href="#m3cf53bcc9a" y="144.443452"/>
      </g>
     </g>
     <g id="text_13">
      <!-- 0.25 -->
      <g transform="translate(69.253125 155.841108)scale(0.3 -0.3)">
       <use xlink:href="#DejaVuSans-48"/>
       <use x="63.623047" xlink:href="#DejaVuSans-46"/>
       <use x="95.410156" xlink:href="#DejaVuSans-50"/>
       <use x="159.033203" xlink:href="#DejaVuSans-53"/>
      </g>
     </g>
    </g>
    <g id="ytick_7">
     <g id="line2d_13">
      <g>
       <use style="stroke:#000000;stroke-width:0.8;" x="143.05" xlink:href="#m3cf53bcc9a" y="83.576499"/>
      </g>
     </g>
     <g id="text_14">
      <!-- 0.50 -->
      <g transform="translate(69.253125 94.974155)scale(0.3 -0.3)">
       <use xlink:href="#DejaVuSans-48"/>
       <use x="63.623047" xlink:href="#DejaVuSans-46"/>
       <use x="95.410156" xlink:href="#DejaVuSans-53"/>
       <use x="159.033203" xlink:href="#DejaVuSans-48"/>
      </g>
     </g>
    </g>
    <g id="ytick_8">
     <g id="line2d_14">
      <g>
       <use style="stroke:#000000;stroke-width:0.8;" x="143.05" xlink:href="#m3cf53bcc9a" y="22.709546"/>
      </g>
     </g>
     <g id="text_15">
      <!-- 0.75 -->
      <g transform="translate(69.253125 34.107203)scale(0.3 -0.3)">
       <use xlink:href="#DejaVuSans-48"/>
       <use x="63.623047" xlink:href="#DejaVuSans-46"/>
       <use x="95.410156" xlink:href="#DejaVuSans-55"/>
       <use x="159.033203" xlink:href="#DejaVuSans-53"/>
      </g>
     </g>
    </g>
    <g id="text_16">
     <!-- Weight Value -->
     <defs>
      <path d="M 3.328125 72.90625 
L 13.28125 72.90625 
L 28.609375 11.28125 
L 43.890625 72.90625 
L 54.984375 72.90625 
L 70.3125 11.28125 
L 85.59375 72.90625 
L 95.609375 72.90625 
L 77.296875 0 
L 64.890625 0 
L 49.515625 63.28125 
L 33.984375 0 
L 21.578125 0 
z
" id="DejaVuSans-87"/>
      <path d="M 45.40625 27.984375 
Q 45.40625 37.75 41.375 43.109375 
Q 37.359375 48.484375 30.078125 48.484375 
Q 22.859375 48.484375 18.828125 43.109375 
Q 14.796875 37.75 14.796875 27.984375 
Q 14.796875 18.265625 18.828125 12.890625 
Q 22.859375 7.515625 30.078125 7.515625 
Q 37.359375 7.515625 41.375 12.890625 
Q 45.40625 18.265625 45.40625 27.984375 
z
M 54.390625 6.78125 
Q 54.390625 -7.171875 48.1875 -13.984375 
Q 42 -20.796875 29.203125 -20.796875 
Q 24.46875 -20.796875 20.265625 -20.09375 
Q 16.0625 -19.390625 12.109375 -17.921875 
L 12.109375 -9.1875 
Q 16.0625 -11.328125 19.921875 -12.34375 
Q 23.78125 -13.375 27.78125 -13.375 
Q 36.625 -13.375 41.015625 -8.765625 
Q 45.40625 -4.15625 45.40625 5.171875 
L 45.40625 9.625 
Q 42.625 4.78125 38.28125 2.390625 
Q 33.9375 0 27.875 0 
Q 17.828125 0 11.671875 7.65625 
Q 5.515625 15.328125 5.515625 27.984375 
Q 5.515625 40.671875 11.671875 48.328125 
Q 17.828125 56 27.875 56 
Q 33.9375 56 38.28125 53.609375 
Q 42.625 51.21875 45.40625 46.390625 
L 45.40625 54.6875 
L 54.390625 54.6875 
z
" id="DejaVuSans-103"/>
      <path d="M 54.890625 33.015625 
L 54.890625 0 
L 45.90625 0 
L 45.90625 32.71875 
Q 45.90625 40.484375 42.875 44.328125 
Q 39.84375 48.1875 33.796875 48.1875 
Q 26.515625 48.1875 22.3125 43.546875 
Q 18.109375 38.921875 18.109375 30.90625 
L 18.109375 0 
L 9.078125 0 
L 9.078125 75.984375 
L 18.109375 75.984375 
L 18.109375 46.1875 
Q 21.34375 51.125 25.703125 53.5625 
Q 30.078125 56 35.796875 56 
Q 45.21875 56 50.046875 50.171875 
Q 54.890625 44.34375 54.890625 33.015625 
z
" id="DejaVuSans-104"/>
      <path d="M 28.609375 0 
L 0.78125 72.90625 
L 11.078125 72.90625 
L 34.1875 11.53125 
L 57.328125 72.90625 
L 67.578125 72.90625 
L 39.796875 0 
z
" id="DejaVuSans-86"/>
      <path d="M 9.421875 75.984375 
L 18.40625 75.984375 
L 18.40625 0 
L 9.421875 0 
z
" id="DejaVuSans-108"/>
      <path d="M 8.5 21.578125 
L 8.5 54.6875 
L 17.484375 54.6875 
L 17.484375 21.921875 
Q 17.484375 14.15625 20.5 10.265625 
Q 23.53125 6.390625 29.59375 6.390625 
Q 36.859375 6.390625 41.078125 11.03125 
Q 45.3125 15.671875 45.3125 23.6875 
L 45.3125 54.6875 
L 54.296875 54.6875 
L 54.296875 0 
L 45.3125 0 
L 45.3125 8.40625 
Q 42.046875 3.421875 37.71875 1 
Q 33.40625 -1.421875 27.6875 -1.421875 
Q 18.265625 -1.421875 13.375 4.4375 
Q 8.5 10.296875 8.5 21.578125 
z
M 31.109375 56 
z
" id="DejaVuSans-117"/>
     </defs>
     <g transform="translate(33.875 357.418933)rotate(-90)scale(0.3 -0.3)">
      <use xlink:href="#DejaVuSans-87"/>
      <use x="98.798828" xlink:href="#DejaVuSans-101"/>
      <use x="160.322266" xlink:href="#DejaVuSans-105"/>
      <use x="188.105469" xlink:href="#DejaVuSans-103"/>
      <use x="251.582031" xlink:href="#DejaVuSans-104"/>
      <use x="314.960938" xlink:href="#DejaVuSans-116"/>
      <use x="354.169922" xlink:href="#DejaVuSans-32"/>
      <use x="385.957031" xlink:href="#DejaVuSans-86"/>
      <use x="454.255859" xlink:href="#DejaVuSans-97"/>
      <use x="515.535156" xlink:href="#DejaVuSans-108"/>
      <use x="543.318359" xlink:href="#DejaVuSans-117"/>
      <use x="606.697266" xlink:href="#DejaVuSans-101"/>
     </g>
    </g>
   </g>
   <g id="line2d_15">
    <path clip-path="url(#pf84b4b0a59)" d="M 202.424109 205.067805 
L 206.987838 186.378629 
L 211.551567 217.679514 
L 216.115295 169.839798 
L 220.679024 201.351278 
L 225.242752 236.571206 
L 229.806481 148.311952 
L 234.37021 245.582189 
L 238.933938 247.773977 
L 243.497667 198.488603 
L 248.061396 179.980861 
L 252.625124 229.099279 
L 257.188853 251.530701 
L 261.752581 217.691424 
L 266.31631 249.102588 
L 270.880039 177.242052 
L 275.443767 192.586718 
L 280.007496 204.746117 
L 284.571225 265.496688 
L 289.134953 233.796203 
L 293.698682 153.534496 
L 298.26241 128.697838 
L 302.826139 267.815363 
L 307.389868 224.973467 
L 311.953596 180.085469 
L 316.517325 229.882928 
L 321.081054 53.737746 
L 325.644782 244.776562 
L 330.208511 235.883847 
L 334.772239 230.195608 
L 339.335968 118.116927 
L 343.899697 235.359281 
L 348.463425 213.025691 
L 353.027154 212.743355 
L 357.590882 195.787298 
L 362.154611 210.318114 
L 366.71834 170.801231 
L 371.282068 219.363004 
L 375.845797 144.294394 
L 380.409526 129.725753 
L 384.973254 169.612928 
L 389.536983 203.161959 
L 394.100711 137.016995 
L 398.66444 151.550659 
L 403.228169 235.38004 
L 407.791897 253.593014 
L 412.355626 295.203456 
L 416.919355 144.672056 
L 421.483083 154.333734 
L 426.046812 153.965678 
L 430.61054 209.605417 
L 435.174269 136.651842 
L 439.737998 239.48179 
L 444.301726 126.011425 
L 448.865455 228.563853 
L 453.429184 191.475886 
L 457.992912 220.714813 
L 462.556641 166.750005 
L 467.120369 226.808624 
L 471.684098 211.738061 
L 476.247827 241.046018 
L 480.811555 253.111995 
L 485.375284 279.589421 
L 489.939012 207.954305 
L 494.502741 169.69825 
L 499.06647 240.850965 
L 503.630198 228.275596 
L 508.193927 260.845068 
L 512.757656 127.099391 
L 517.321384 166.306164 
L 521.885113 103.782594 
L 531.01257 201.634984 
L 535.576299 188.402084 
L 540.140027 198.744015 
L 544.703756 214.585259 
L 549.267485 235.520874 
L 553.831213 184.337652 
L 558.394942 143.947975 
L 562.95867 223.264105 
L 567.522399 211.801918 
L 572.086128 182.964354 
L 576.649856 111.810485 
L 581.213585 168.237654 
L 585.777314 182.789918 
L 590.341042 204.265637 
L 594.904771 270.169339 
L 599.468499 224.159532 
L 604.032228 252.538981 
L 608.595957 197.227807 
L 613.159685 239.829728 
L 617.723414 139.624514 
L 622.287143 233.833799 
L 626.850871 168.125634 
L 631.4146 191.093837 
L 635.978328 259.402477 
L 640.542057 222.380687 
L 645.105786 189.024298 
L 649.669514 215.984168 
L 654.233243 141.85096 
L 658.796971 188.909049 
L 663.3607 174.852871 
L 667.924429 174.375733 
L 672.488157 207.104762 
L 677.051886 181.864875 
L 681.615615 188.317094 
L 686.179343 234.042989 
L 690.743072 186.462032 
L 695.3068 163.172313 
L 699.870529 173.059976 
L 704.434258 231.903874 
L 708.997986 209.716144 
L 713.561715 231.379491 
L 718.125444 179.928239 
L 722.689172 229.051653 
L 727.252901 237.325044 
L 731.816629 147.00114 
L 736.380358 255.730593 
L 740.944087 245.099559 
L 745.507815 184.885056 
L 750.071544 192.780404 
L 754.635273 239.429703 
L 759.199001 117.852645 
L 763.76273 174.544894 
L 768.326458 165.166788 
L 772.890187 211.728474 
L 777.453916 153.515718 
L 782.017644 81.717579 
L 786.581373 153.183876 
L 791.145101 152.96724 
L 795.70883 248.686785 
L 800.272559 268.203097 
L 804.836287 185.821503 
L 809.400016 217.38352 
L 813.963745 217.883747 
L 818.527473 238.07406 
L 823.091202 226.756472 
L 827.65493 178.374873 
L 832.218659 261.366992 
L 836.782388 162.220193 
L 841.346116 199.10928 
L 845.909845 160.596956 
L 850.473574 198.038063 
L 855.037302 222.660446 
L 859.601031 224.109512 
L 864.164759 166.215357 
L 868.728488 247.096119 
L 873.292217 265.7439 
L 877.855945 141.832914 
L 882.419674 205.402518 
L 886.983403 96.161781 
L 891.547131 172.296724 
L 896.11086 152.896296 
L 900.674588 178.828277 
L 905.238317 217.133532 
L 909.802046 175.39441 
L 914.365774 122.853844 
L 918.929503 140.547444 
L 923.493231 217.778323 
L 928.05696 229.398708 
L 932.620689 236.398904 
L 937.184417 249.863043 
L 941.748146 39.900776 
L 946.311875 240.350289 
L 950.875603 260.73513 
L 955.439332 154.993303 
L 960.00306 139.992505 
L 964.566789 234.685588 
L 969.130518 204.599569 
L 973.694246 152.267147 
L 978.257975 220.477825 
L 982.821704 299.204551 
L 987.385432 305.876596 
L 991.949161 203.790469 
L 996.512889 190.401396 
L 1001.076618 250.621075 
L 1005.640347 219.571687 
L 1010.204075 175.062782 
L 1014.767804 188.406002 
L 1019.331533 219.05963 
L 1023.895261 299.946308 
L 1028.45899 272.812839 
L 1033.022718 178.44726 
L 1037.586447 279.781883 
L 1042.150176 199.95471 
L 1046.713904 250.871585 
L 1051.277633 221.276141 
L 1055.841362 175.217386 
L 1060.40509 202.72882 
L 1064.968819 158.329816 
L 1069.532547 236.387541 
L 1074.096276 192.930812 
L 1078.660005 225.89268 
L 1083.223733 155.668077 
L 1087.787462 202.877166 
L 1092.35119 240.039105 
L 1096.914919 205.842719 
L 1101.478648 201.454225 
L 1106.042376 310.733119 
L 1110.606105 189.63998 
L 1115.169834 249.079881 
L 1119.733562 274.218773 
L 1124.297291 214.565569 
L 1128.861019 196.334378 
L 1133.424748 258.239958 
L 1137.988477 235.492053 
L 1142.552205 152.469507 
L 1147.115934 245.731403 
L 1151.679663 185.655094 
L 1156.243391 134.898075 
L 1160.80712 270.687541 
L 1165.370848 238.869032 
L 1169.934577 321.370365 
L 1174.498306 211.840517 
L 1179.062034 182.339938 
L 1183.625763 65.818815 
L 1188.189492 180.86898 
L 1192.75322 130.482421 
L 1197.316949 127.972472 
L 1201.880677 189.188396 
L 1206.444406 177.109908 
L 1211.008135 169.733227 
L 1215.571863 228.102265 
L 1220.135592 123.903534 
L 1224.69932 176.091251 
L 1229.263049 299.69738 
L 1233.826778 197.510281 
L 1238.390506 148.132652 
L 1242.954235 225.723978 
L 1247.517964 131.429135 
L 1252.081692 234.799174 
L 1256.645421 147.819041 
L 1261.209149 267.302617 
L 1265.772878 79.490713 
L 1270.336607 233.232185 
L 1274.900335 141.259937 
L 1279.464064 197.749167 
L 1284.027793 124.848935 
L 1288.591521 204.756769 
L 1293.15525 168.035592 
L 1297.718978 184.626477 
L 1302.282707 211.603992 
L 1306.846436 221.772171 
L 1311.410164 147.20428 
L 1315.973893 212.590305 
L 1320.537622 225.36527 
L 1325.10135 107.325885 
L 1329.665079 204.957963 
L 1334.228807 208.07065 
L 1338.792536 103.862881 
L 1343.356265 167.149137 
L 1347.919993 225.981269 
L 1352.483722 145.939202 
L 1357.047451 124.31847 
L 1361.611179 235.765503 
L 1366.174908 271.089402 
L 1366.174908 271.089402 
" style="fill:none;stroke:#1f77b4;stroke-linecap:square;stroke-width:1.5;"/>
   </g>
   <g id="line2d_16">
    <path clip-path="url(#pf84b4b0a59)" d="M 202.424109 243.525198 
L 206.987838 229.806895 
L 211.551567 168.285122 
L 216.115295 108.405898 
L 220.679024 474.471466 
L 225.242752 187.659155 
L 229.806481 183.021166 
L 234.37021 428.53132 
L 238.933938 182.916755 
L 243.497667 155.154316 
L 248.061396 218.11512 
L 252.625124 320.977138 
L 257.188853 252.370935 
L 261.752581 201.667965 
L 266.31631 88.340009 
L 270.880039 212.669785 
L 275.443767 164.462399 
L 280.007496 206.805004 
L 284.571225 204.37909 
L 289.134953 271.673459 
L 293.698682 168.656958 
L 298.26241 249.599512 
L 302.826139 197.262744 
L 307.389868 117.87508 
L 311.953596 175.354646 
L 316.517325 255.593584 
L 321.081054 259.217325 
L 325.644782 199.086876 
L 330.208511 265.643228 
L 334.772239 287.152179 
L 339.335968 232.755623 
L 343.899697 258.551414 
L 348.463425 206.717878 
L 353.027154 226.561197 
L 357.590882 156.16326 
L 362.154611 118.595113 
L 366.71834 215.236629 
L 371.282068 285.191713 
L 375.845797 241.635099 
L 380.409526 265.76172 
L 384.973254 207.15783 
L 389.536983 203.604216 
L 394.100711 193.034089 
L 398.66444 202.478876 
L 403.228169 253.872751 
L 407.791897 255.736735 
L 412.355626 178.587245 
L 416.919355 148.56608 
L 421.483083 256.591931 
L 426.046812 233.698867 
L 430.61054 267.145868 
L 435.174269 191.744483 
L 439.737998 188.716791 
L 444.301726 347.935398 
L 448.865455 148.629112 
L 453.429184 192.222359 
L 457.992912 183.049032 
L 462.556641 275.662604 
L 467.120369 188.482846 
L 471.684098 178.746811 
L 476.247827 163.59194 
L 480.811555 259.404709 
L 485.375284 169.697764 
L 489.939012 240.045403 
L 494.502741 143.399929 
L 499.06647 164.943781 
L 503.630198 216.269909 
L 508.193927 131.012733 
L 512.757656 153.790517 
L 517.321384 230.752535 
L 521.885113 214.535353 
L 526.448841 201.721916 
L 531.01257 174.605985 
L 535.576299 367.861626 
L 540.140027 239.344707 
L 544.703756 273.702479 
L 549.267485 147.69832 
L 553.831213 160.040454 
L 558.394942 253.650517 
L 562.95867 151.107642 
L 567.522399 212.334308 
L 572.086128 295.149378 
L 576.649856 207.518249 
L 581.213585 207.43516 
L 585.777314 168.587563 
L 590.341042 175.301536 
L 594.904771 164.474186 
L 599.468499 97.622605 
L 604.032228 186.514674 
L 608.595957 259.850377 
L 613.159685 192.606556 
L 617.723414 153.197677 
L 622.287143 207.207406 
L 626.850871 138.572959 
L 631.4146 278.178118 
L 635.978328 103.311533 
L 640.542057 136.305329 
L 645.105786 187.031599 
L 649.669514 136.460257 
L 654.233243 102.649998 
L 658.796971 192.882518 
L 663.3607 152.958283 
L 667.924429 204.98872 
L 672.488157 235.057991 
L 677.051886 137.66576 
L 681.615615 235.345399 
L 686.179343 199.163965 
L 690.743072 230.970726 
L 695.3068 136.61705 
L 699.870529 153.899973 
L 704.434258 189.517357 
L 708.997986 287.468203 
L 713.561715 168.080781 
L 718.125444 241.582302 
L 722.689172 223.887692 
L 727.252901 256.024922 
L 731.816629 176.496751 
L 736.380358 310.621596 
L 740.944087 305.689104 
L 745.507815 194.374751 
L 750.071544 266.334846 
L 754.635273 163.488877 
L 759.199001 218.085998 
L 763.76273 223.209803 
L 768.326458 244.481461 
L 772.890187 217.918367 
L 777.453916 262.955274 
L 782.017644 158.072888 
L 786.581373 200.839714 
L 791.145101 128.749804 
L 795.70883 150.225193 
L 800.272559 206.757323 
L 804.836287 146.184557 
L 809.400016 248.143092 
L 813.963745 220.839881 
L 818.527473 181.938399 
L 823.091202 246.987781 
L 827.65493 227.040593 
L 832.218659 143.201625 
L 836.782388 136.77393 
L 841.346116 209.127239 
L 845.909845 127.811014 
L 850.473574 169.65138 
L 855.037302 223.947107 
L 859.601031 310.152422 
L 864.164759 219.242815 
L 868.728488 267.73237 
L 873.292217 251.793459 
L 877.855945 169.447047 
L 882.419674 225.622895 
L 886.983403 202.988129 
L 891.547131 269.129843 
L 896.11086 174.873249 
L 900.674588 194.007993 
L 905.238317 163.339845 
L 909.802046 219.182475 
L 914.365774 344.494227 
L 918.929503 149.026993 
L 923.493231 152.119348 
L 928.05696 202.321604 
L 932.620689 164.798579 
L 937.184417 237.921334 
L 941.748146 157.812132 
L 946.311875 231.549843 
L 950.875603 158.164737 
L 955.439332 156.213409 
L 960.00306 171.177693 
L 964.566789 294.651426 
L 969.130518 248.112527 
L 973.694246 131.865512 
L 978.257975 235.72953 
L 982.821704 161.30325 
L 987.385432 212.75497 
L 991.949161 129.61965 
L 996.512889 273.598712 
L 1001.076618 197.685105 
L 1005.640347 314.647862 
L 1010.204075 207.53493 
L 1014.767804 135.518208 
L 1019.331533 281.302642 
L 1023.895261 210.292631 
L 1028.45899 228.648618 
L 1033.022718 233.914101 
L 1037.586447 232.19742 
L 1042.150176 84.402852 
L 1046.713904 277.094571 
L 1051.277633 226.250071 
L 1055.841362 218.8135 
L 1060.40509 126.665915 
L 1064.968819 208.741332 
L 1069.532547 241.683823 
L 1074.096276 242.818752 
L 1078.660005 219.238785 
L 1083.223733 268.620522 
L 1087.787462 147.324674 
L 1092.35119 179.867758 
L 1096.914919 264.479725 
L 1101.478648 268.338565 
L 1106.042376 210.778883 
L 1110.606105 215.569384 
L 1115.169834 109.418663 
L 1119.733562 245.297028 
L 1124.297291 146.040712 
L 1128.861019 133.853137 
L 1133.424748 224.499548 
L 1137.988477 130.65461 
L 1142.552205 178.766935 
L 1147.115934 204.657445 
L 1151.679663 247.680253 
L 1156.243391 93.295263 
L 1160.80712 170.521117 
L 1165.370848 212.283862 
L 1169.934577 149.73042 
L 1174.498306 270.247993 
L 1179.062034 218.799511 
L 1183.625763 136.953064 
L 1188.189492 146.232624 
L 1192.75322 154.105648 
L 1197.316949 189.97425 
L 1201.880677 186.965632 
L 1206.444406 185.572389 
L 1211.008135 219.973628 
L 1215.571863 180.419136 
L 1220.135592 185.076541 
L 1224.69932 212.706191 
L 1229.263049 174.581362 
L 1233.826778 82.478477 
L 1238.390506 210.287971 
L 1242.954235 180.4016 
L 1247.517964 171.713287 
L 1252.081692 216.291452 
L 1256.645421 175.776294 
L 1261.209149 181.659807 
L 1265.772878 247.316703 
L 1270.336607 144.871343 
L 1274.900335 176.632817 
L 1279.464064 182.773483 
L 1284.027793 197.363674 
L 1288.591521 207.859949 
L 1293.15525 178.125535 
L 1297.718978 209.162515 
L 1302.282707 220.969408 
L 1306.846436 208.122738 
L 1311.410164 216.52365 
L 1315.973893 145.264573 
L 1320.537622 131.515306 
L 1325.10135 172.007213 
L 1329.665079 87.258958 
L 1334.228807 232.87381 
L 1338.792536 200.626358 
L 1343.356265 159.572161 
L 1347.919993 243.124933 
L 1352.483722 281.813312 
L 1357.047451 181.300536 
L 1361.611179 157.866178 
L 1366.174908 124.67327 
L 1366.174908 124.67327 
" style="fill:none;stroke:#ff7f0e;stroke-linecap:square;stroke-width:1.5;"/>
   </g>
   <g id="line2d_17">
    <path clip-path="url(#pf84b4b0a59)" d="M 202.424109 219.331481 
L 206.987838 263.82653 
L 211.551567 183.98143 
L 216.115295 155.868757 
L 220.679024 164.223346 
L 225.242752 230.362817 
L 229.806481 192.271345 
L 234.37021 104.811721 
L 238.933938 238.325561 
L 243.497667 320.693541 
L 248.061396 125.643254 
L 252.625124 293.861578 
L 257.188853 238.240351 
L 261.752581 222.172918 
L 266.31631 243.039709 
L 270.880039 162.413516 
L 275.443767 227.901933 
L 280.007496 244.613069 
L 284.571225 227.120258 
L 289.134953 276.623061 
L 293.698682 160.900083 
L 298.26241 202.905591 
L 302.826139 95.596256 
L 307.389868 245.034401 
L 311.953596 213.375556 
L 316.517325 285.38813 
L 321.081054 124.118693 
L 325.644782 200.030337 
L 330.208511 183.931582 
L 334.772239 212.529496 
L 339.335968 260.561275 
L 343.899697 246.04558 
L 348.463425 184.540612 
L 353.027154 200.157149 
L 357.590882 137.237052 
L 362.154611 212.547842 
L 366.71834 229.883769 
L 371.282068 286.290112 
L 375.845797 193.825968 
L 380.409526 219.075356 
L 384.973254 227.094617 
L 389.536983 181.565241 
L 394.100711 208.436155 
L 398.66444 163.821296 
L 403.228169 185.096768 
L 407.791897 167.035891 
L 412.355626 135.019444 
L 416.919355 128.782826 
L 421.483083 211.641692 
L 426.046812 153.90364 
L 430.61054 221.972639 
L 435.174269 259.71102 
L 439.737998 186.876071 
L 444.301726 227.226727 
L 448.865455 201.056885 
L 453.429184 185.194251 
L 457.992912 179.320525 
L 462.556641 319.980518 
L 467.120369 170.634987 
L 471.684098 228.731972 
L 476.247827 303.325376 
L 480.811555 241.870702 
L 485.375284 277.176222 
L 489.939012 185.348443 
L 494.502741 215.251247 
L 499.06647 181.589786 
L 503.630198 130.233949 
L 508.193927 179.100217 
L 512.757656 193.476859 
L 517.321384 212.073483 
L 521.885113 173.192386 
L 526.448841 184.136085 
L 531.01257 94.233597 
L 535.576299 222.930088 
L 540.140027 162.245817 
L 544.703756 199.622332 
L 549.267485 186.711322 
L 553.831213 204.166917 
L 558.394942 225.166924 
L 562.95867 156.744277 
L 567.522399 248.373536 
L 572.086128 247.083984 
L 576.649856 248.955025 
L 581.213585 197.914287 
L 585.777314 204.982048 
L 590.341042 162.353807 
L 594.904771 222.761593 
L 599.468499 253.061214 
L 604.032228 132.831876 
L 608.595957 181.415873 
L 613.159685 147.350556 
L 617.723414 179.285575 
L 622.287143 205.971189 
L 626.850871 135.409725 
L 631.4146 286.758655 
L 635.978328 227.710827 
L 640.542057 223.712059 
L 645.105786 116.88068 
L 649.669514 108.369009 
L 654.233243 188.807506 
L 658.796971 246.43306 
L 663.3607 249.218418 
L 667.924429 183.09997 
L 672.488157 192.611977 
L 677.051886 224.942612 
L 681.615615 203.850708 
L 686.179343 301.692572 
L 690.743072 142.19058 
L 695.3068 166.133445 
L 699.870529 319.590107 
L 704.434258 252.572928 
L 708.997986 281.892648 
L 713.561715 244.512142 
L 718.125444 230.869272 
L 722.689172 240.619541 
L 727.252901 195.546295 
L 731.816629 203.874598 
L 736.380358 133.62565 
L 740.944087 171.364514 
L 745.507815 246.661679 
L 750.071544 210.126923 
L 754.635273 143.464666 
L 759.199001 275.044546 
L 763.76273 237.632252 
L 768.326458 155.739087 
L 772.890187 211.802339 
L 777.453916 196.802905 
L 782.017644 205.328054 
L 786.581373 246.918139 
L 791.145101 206.05755 
L 795.70883 128.814273 
L 800.272559 232.629118 
L 804.836287 172.963912 
L 809.400016 92.587319 
L 813.963745 208.244135 
L 818.527473 150.968372 
L 823.091202 241.547212 
L 827.65493 168.738243 
L 832.218659 218.979838 
L 836.782388 147.553329 
L 841.346116 260.227975 
L 845.909845 159.379539 
L 850.473574 242.379019 
L 855.037302 257.6263 
L 859.601031 255.655916 
L 864.164759 218.981397 
L 868.728488 155.165134 
L 873.292217 249.128923 
L 877.855945 274.112779 
L 882.419674 211.738462 
L 886.983403 321.89977 
L 891.547131 213.400799 
L 896.11086 184.797655 
L 900.674588 298.331571 
L 905.238317 248.83043 
L 909.802046 276.836268 
L 914.365774 265.724596 
L 918.929503 256.627057 
L 923.493231 163.842737 
L 928.05696 280.46597 
L 932.620689 162.857251 
L 937.184417 154.226568 
L 941.748146 144.988367 
L 946.311875 220.227882 
L 950.875603 184.46381 
L 955.439332 218.461048 
L 960.00306 103.130861 
L 964.566789 297.275982 
L 969.130518 232.518217 
L 973.694246 204.20925 
L 978.257975 193.117369 
L 982.821704 249.343041 
L 987.385432 259.599577 
L 991.949161 174.750726 
L 996.512889 278.842418 
L 1001.076618 212.1157 
L 1005.640347 138.603978 
L 1010.204075 159.788322 
L 1014.767804 238.757327 
L 1019.331533 181.061545 
L 1023.895261 306.224532 
L 1028.45899 142.817004 
L 1033.022718 173.89425 
L 1037.586447 306.076141 
L 1042.150176 199.733954 
L 1046.713904 161.156394 
L 1051.277633 115.210886 
L 1055.841362 233.428873 
L 1060.40509 180.410875 
L 1064.968819 193.346053 
L 1069.532547 181.769901 
L 1074.096276 131.633287 
L 1078.660005 189.870449 
L 1083.223733 228.872117 
L 1087.787462 227.996681 
L 1092.35119 248.703328 
L 1096.914919 87.780927 
L 1101.478648 227.818033 
L 1106.042376 231.66096 
L 1110.606105 183.97432 
L 1115.169834 216.144379 
L 1119.733562 175.698492 
L 1124.297291 147.199604 
L 1128.861019 54.728133 
L 1133.424748 230.673223 
L 1137.988477 170.962102 
L 1142.552205 43.252642 
L 1147.115934 155.133614 
L 1151.679663 202.57891 
L 1156.243391 308.83668 
L 1160.80712 180.834506 
L 1165.370848 263.288777 
L 1169.934577 120.432345 
L 1174.498306 223.280893 
L 1179.062034 191.677245 
L 1183.625763 71.221171 
L 1188.189492 187.094234 
L 1192.75322 165.110507 
L 1197.316949 186.777791 
L 1201.880677 264.010721 
L 1206.444406 210.439774 
L 1211.008135 188.270208 
L 1215.571863 217.418667 
L 1220.135592 153.066131 
L 1224.69932 159.373734 
L 1229.263049 199.819509 
L 1233.826778 232.440535 
L 1238.390506 303.267401 
L 1242.954235 154.323376 
L 1247.517964 244.497507 
L 1252.081692 232.529364 
L 1256.645421 148.86104 
L 1261.209149 161.763731 
L 1265.772878 150.846553 
L 1270.336607 201.457401 
L 1274.900335 317.174187 
L 1279.464064 208.82749 
L 1284.027793 225.853081 
L 1288.591521 172.471091 
L 1293.15525 235.287546 
L 1297.718978 188.335237 
L 1302.282707 244.815643 
L 1306.846436 170.883959 
L 1311.410164 129.764187 
L 1315.973893 263.792507 
L 1320.537622 260.037228 
L 1325.10135 290.373954 
L 1329.665079 231.640072 
L 1334.228807 200.898124 
L 1338.792536 211.749045 
L 1343.356265 124.04255 
L 1347.919993 202.218995 
L 1352.483722 286.013553 
L 1357.047451 146.453312 
L 1361.611179 246.667092 
L 1366.174908 177.435213 
L 1366.174908 177.435213 
" style="fill:none;stroke:#2ca02c;stroke-linecap:square;stroke-width:1.5;"/>
   </g>
   <g id="patch_13">
    <path d="M 143.05 496.2 
L 143.05 18.172242 
" style="fill:none;stroke:#000000;stroke-linecap:square;stroke-linejoin:miter;stroke-width:0.8;"/>
   </g>
   <g id="patch_14">
    <path d="M 1429.2 496.2 
L 1429.2 18.172242 
" style="fill:none;stroke:#000000;stroke-linecap:square;stroke-linejoin:miter;stroke-width:0.8;"/>
   </g>
   <g id="patch_15">
    <path d="M 143.05 496.2 
L 1429.2 496.2 
" style="fill:none;stroke:#000000;stroke-linecap:square;stroke-linejoin:miter;stroke-width:0.8;"/>
   </g>
   <g id="patch_16">
    <path d="M 143.05 18.172242 
L 1429.2 18.172242 
" style="fill:none;stroke:#000000;stroke-linecap:square;stroke-linejoin:miter;stroke-width:0.8;"/>
   </g>
  </g>
 </g>
 <defs>
  <clipPath id="pf84b4b0a59">
   <rect height="478.027758" width="1286.15" x="143.05" y="18.172242"/>
  </clipPath>
 </defs>
</svg>
