<?xml version="1.0" encoding="utf-8" standalone="no"?>
<!DOCTYPE svg PUBLIC "-//W3C//DTD SVG 1.1//EN"
  "http://www.w3.org/Graphics/SVG/1.1/DTD/svg11.dtd">
<!-- Created with matplotlib (https://matplotlib.org/) -->
<svg height="576pt" version="1.1" viewBox="0 0 1440 576" width="1440pt" xmlns="http://www.w3.org/2000/svg" xmlns:xlink="http://www.w3.org/1999/xlink">
 <defs>
  <style type="text/css">
*{stroke-linecap:butt;stroke-linejoin:round;white-space:pre;}
  </style>
 </defs>
 <g id="figure_1">
  <g id="patch_1">
   <path d="M 0 576 
L 1440 576 
L 1440 0 
L 0 0 
z
" style="fill:#ffffff;"/>
  </g>
  <g id="axes_1">
   <g id="patch_2">
    <path d="M 114.175 496.2 
L 1429.2 496.2 
L 1429.2 10.8 
L 114.175 10.8 
z
" style="fill:#ffffff;"/>
   </g>
   <g id="patch_3">
    <path clip-path="url(#p09548ba61f)" d="M 173.948864 496.2 
L 173.948864 10.8 
L 174.882101 10.8 
L 174.882101 496.2 
z
" style="fill:#0000ff;"/>
   </g>
   <g id="patch_4">
    <path clip-path="url(#p09548ba61f)" d="M 178.615051 496.2 
L 178.615051 10.8 
L 179.548289 10.8 
L 179.548289 496.2 
z
" style="fill:#0000ff;"/>
   </g>
   <g id="patch_5">
    <path clip-path="url(#p09548ba61f)" d="M 215.944552 496.2 
L 215.944552 10.8 
L 216.87779 10.8 
L 216.87779 496.2 
z
" style="fill:#0000ff;"/>
   </g>
   <g id="patch_6">
    <path clip-path="url(#p09548ba61f)" d="M 346.597806 496.2 
L 346.597806 10.8 
L 347.531044 10.8 
L 347.531044 496.2 
z
" style="fill:#0000ff;"/>
   </g>
   <g id="patch_7">
    <path clip-path="url(#p09548ba61f)" d="M 607.904314 496.2 
L 607.904314 10.8 
L 608.837551 10.8 
L 608.837551 496.2 
z
" style="fill:#0000ff;"/>
   </g>
   <g id="patch_8">
    <path clip-path="url(#p09548ba61f)" d="M 934.537449 496.2 
L 934.537449 10.8 
L 935.470686 10.8 
L 935.470686 496.2 
z
" style="fill:#0000ff;"/>
   </g>
   <g id="patch_9">
    <path clip-path="url(#p09548ba61f)" d="M 1195.843956 496.2 
L 1195.843956 10.8 
L 1196.777194 10.8 
L 1196.777194 496.2 
z
" style="fill:#0000ff;"/>
   </g>
   <g id="patch_10">
    <path clip-path="url(#p09548ba61f)" d="M 1326.49721 496.2 
L 1326.49721 10.8 
L 1327.430448 10.8 
L 1327.430448 496.2 
z
" style="fill:#0000ff;"/>
   </g>
   <g id="patch_11">
    <path clip-path="url(#p09548ba61f)" d="M 1363.826711 496.2 
L 1363.826711 10.8 
L 1364.759949 10.8 
L 1364.759949 496.2 
z
" style="fill:#0000ff;"/>
   </g>
   <g id="patch_12">
    <path clip-path="url(#p09548ba61f)" d="M 1368.492899 496.2 
L 1368.492899 10.8 
L 1369.426136 10.8 
L 1369.426136 496.2 
z
" style="fill:#0000ff;"/>
   </g>
   <g id="matplotlib.axis_1">
    <g id="xtick_1">
     <g id="line2d_1">
      <defs>
       <path d="M 0 0 
L 0 3.5 
" id="m3339add5f4" style="stroke:#000000;stroke-width:0.8;"/>
      </defs>
      <g>
       <use style="stroke:#000000;stroke-width:0.8;" x="174.882101" xlink:href="#m3339add5f4" y="496.2"/>
      </g>
     </g>
     <g id="text_1">
      <!-- 0 -->
      <defs>
       <path d="M 31.78125 66.40625 
Q 24.171875 66.40625 20.328125 58.90625 
Q 16.5 51.421875 16.5 36.375 
Q 16.5 21.390625 20.328125 13.890625 
Q 24.171875 6.390625 31.78125 6.390625 
Q 39.453125 6.390625 43.28125 13.890625 
Q 47.125 21.390625 47.125 36.375 
Q 47.125 51.421875 43.28125 58.90625 
Q 39.453125 66.40625 31.78125 66.40625 
z
M 31.78125 74.21875 
Q 44.046875 74.21875 50.515625 64.515625 
Q 56.984375 54.828125 56.984375 36.375 
Q 56.984375 17.96875 50.515625 8.265625 
Q 44.046875 -1.421875 31.78125 -1.421875 
Q 19.53125 -1.421875 13.0625 8.265625 
Q 6.59375 17.96875 6.59375 36.375 
Q 6.59375 54.828125 13.0625 64.515625 
Q 19.53125 74.21875 31.78125 74.21875 
z
" id="DejaVuSans-48"/>
      </defs>
      <g transform="translate(165.338351 525.995312)scale(0.3 -0.3)">
       <use xlink:href="#DejaVuSans-48"/>
      </g>
     </g>
    </g>
    <g id="xtick_2">
     <g id="line2d_2">
      <g>
       <use style="stroke:#000000;stroke-width:0.8;" x="408.191483" xlink:href="#m3339add5f4" y="496.2"/>
      </g>
     </g>
     <g id="text_2">
      <!-- 50 -->
      <defs>
       <path d="M 10.796875 72.90625 
L 49.515625 72.90625 
L 49.515625 64.59375 
L 19.828125 64.59375 
L 19.828125 46.734375 
Q 21.96875 47.46875 24.109375 47.828125 
Q 26.265625 48.1875 28.421875 48.1875 
Q 40.625 48.1875 47.75 41.5 
Q 54.890625 34.8125 54.890625 23.390625 
Q 54.890625 11.625 47.5625 5.09375 
Q 40.234375 -1.421875 26.90625 -1.421875 
Q 22.3125 -1.421875 17.546875 -0.640625 
Q 12.796875 0.140625 7.71875 1.703125 
L 7.71875 11.625 
Q 12.109375 9.234375 16.796875 8.0625 
Q 21.484375 6.890625 26.703125 6.890625 
Q 35.15625 6.890625 40.078125 11.328125 
Q 45.015625 15.765625 45.015625 23.390625 
Q 45.015625 31 40.078125 35.4375 
Q 35.15625 39.890625 26.703125 39.890625 
Q 22.75 39.890625 18.8125 39.015625 
Q 14.890625 38.140625 10.796875 36.28125 
z
" id="DejaVuSans-53"/>
      </defs>
      <g transform="translate(389.103983 525.995312)scale(0.3 -0.3)">
       <use xlink:href="#DejaVuSans-53"/>
       <use x="63.623047" xlink:href="#DejaVuSans-48"/>
      </g>
     </g>
    </g>
    <g id="xtick_3">
     <g id="line2d_3">
      <g>
       <use style="stroke:#000000;stroke-width:0.8;" x="641.500865" xlink:href="#m3339add5f4" y="496.2"/>
      </g>
     </g>
     <g id="text_3">
      <!-- 100 -->
      <defs>
       <path d="M 12.40625 8.296875 
L 28.515625 8.296875 
L 28.515625 63.921875 
L 10.984375 60.40625 
L 10.984375 69.390625 
L 28.421875 72.90625 
L 38.28125 72.90625 
L 38.28125 8.296875 
L 54.390625 8.296875 
L 54.390625 0 
L 12.40625 0 
z
" id="DejaVuSans-49"/>
      </defs>
      <g transform="translate(612.869615 525.995312)scale(0.3 -0.3)">
       <use xlink:href="#DejaVuSans-49"/>
       <use x="63.623047" xlink:href="#DejaVuSans-48"/>
       <use x="127.246094" xlink:href="#DejaVuSans-48"/>
      </g>
     </g>
    </g>
    <g id="xtick_4">
     <g id="line2d_4">
      <g>
       <use style="stroke:#000000;stroke-width:0.8;" x="874.810247" xlink:href="#m3339add5f4" y="496.2"/>
      </g>
     </g>
     <g id="text_4">
      <!-- 150 -->
      <g transform="translate(846.178997 525.995312)scale(0.3 -0.3)">
       <use xlink:href="#DejaVuSans-49"/>
       <use x="63.623047" xlink:href="#DejaVuSans-53"/>
       <use x="127.246094" xlink:href="#DejaVuSans-48"/>
      </g>
     </g>
    </g>
    <g id="xtick_5">
     <g id="line2d_5">
      <g>
       <use style="stroke:#000000;stroke-width:0.8;" x="1108.119629" xlink:href="#m3339add5f4" y="496.2"/>
      </g>
     </g>
     <g id="text_5">
      <!-- 200 -->
      <defs>
       <path d="M 19.1875 8.296875 
L 53.609375 8.296875 
L 53.609375 0 
L 7.328125 0 
L 7.328125 8.296875 
Q 12.9375 14.109375 22.625 23.890625 
Q 32.328125 33.6875 34.8125 36.53125 
Q 39.546875 41.84375 41.421875 45.53125 
Q 43.3125 49.21875 43.3125 52.78125 
Q 43.3125 58.59375 39.234375 62.25 
Q 35.15625 65.921875 28.609375 65.921875 
Q 23.96875 65.921875 18.8125 64.3125 
Q 13.671875 62.703125 7.8125 59.421875 
L 7.8125 69.390625 
Q 13.765625 71.78125 18.9375 73 
Q 24.125 74.21875 28.421875 74.21875 
Q 39.75 74.21875 46.484375 68.546875 
Q 53.21875 62.890625 53.21875 53.421875 
Q 53.21875 48.921875 51.53125 44.890625 
Q 49.859375 40.875 45.40625 35.40625 
Q 44.1875 33.984375 37.640625 27.21875 
Q 31.109375 20.453125 19.1875 8.296875 
z
" id="DejaVuSans-50"/>
      </defs>
      <g transform="translate(1079.488379 525.995312)scale(0.3 -0.3)">
       <use xlink:href="#DejaVuSans-50"/>
       <use x="63.623047" xlink:href="#DejaVuSans-48"/>
       <use x="127.246094" xlink:href="#DejaVuSans-48"/>
      </g>
     </g>
    </g>
    <g id="xtick_6">
     <g id="line2d_6">
      <g>
       <use style="stroke:#000000;stroke-width:0.8;" x="1341.429011" xlink:href="#m3339add5f4" y="496.2"/>
      </g>
     </g>
     <g id="text_6">
      <!-- 250 -->
      <g transform="translate(1312.797761 525.995312)scale(0.3 -0.3)">
       <use xlink:href="#DejaVuSans-50"/>
       <use x="63.623047" xlink:href="#DejaVuSans-53"/>
       <use x="127.246094" xlink:href="#DejaVuSans-48"/>
      </g>
     </g>
    </g>
    <g id="text_7">
     <!-- Bit Interaction -->
     <defs>
      <path d="M 19.671875 34.8125 
L 19.671875 8.109375 
L 35.5 8.109375 
Q 43.453125 8.109375 47.28125 11.40625 
Q 51.125 14.703125 51.125 21.484375 
Q 51.125 28.328125 47.28125 31.5625 
Q 43.453125 34.8125 35.5 34.8125 
z
M 19.671875 64.796875 
L 19.671875 42.828125 
L 34.28125 42.828125 
Q 41.5 42.828125 45.03125 45.53125 
Q 48.578125 48.25 48.578125 53.8125 
Q 48.578125 59.328125 45.03125 62.0625 
Q 41.5 64.796875 34.28125 64.796875 
z
M 9.8125 72.90625 
L 35.015625 72.90625 
Q 46.296875 72.90625 52.390625 68.21875 
Q 58.5 63.53125 58.5 54.890625 
Q 58.5 48.1875 55.375 44.234375 
Q 52.25 40.28125 46.1875 39.3125 
Q 53.46875 37.75 57.5 32.78125 
Q 61.53125 27.828125 61.53125 20.40625 
Q 61.53125 10.640625 54.890625 5.3125 
Q 48.25 0 35.984375 0 
L 9.8125 0 
z
" id="DejaVuSans-66"/>
      <path d="M 9.421875 54.6875 
L 18.40625 54.6875 
L 18.40625 0 
L 9.421875 0 
z
M 9.421875 75.984375 
L 18.40625 75.984375 
L 18.40625 64.59375 
L 9.421875 64.59375 
z
" id="DejaVuSans-105"/>
      <path d="M 18.3125 70.21875 
L 18.3125 54.6875 
L 36.8125 54.6875 
L 36.8125 47.703125 
L 18.3125 47.703125 
L 18.3125 18.015625 
Q 18.3125 11.328125 20.140625 9.421875 
Q 21.96875 7.515625 27.59375 7.515625 
L 36.8125 7.515625 
L 36.8125 0 
L 27.59375 0 
Q 17.1875 0 13.234375 3.875 
Q 9.28125 7.765625 9.28125 18.015625 
L 9.28125 47.703125 
L 2.6875 47.703125 
L 2.6875 54.6875 
L 9.28125 54.6875 
L 9.28125 70.21875 
z
" id="DejaVuSans-116"/>
      <path id="DejaVuSans-32"/>
      <path d="M 9.8125 72.90625 
L 19.671875 72.90625 
L 19.671875 0 
L 9.8125 0 
z
" id="DejaVuSans-73"/>
      <path d="M 54.890625 33.015625 
L 54.890625 0 
L 45.90625 0 
L 45.90625 32.71875 
Q 45.90625 40.484375 42.875 44.328125 
Q 39.84375 48.1875 33.796875 48.1875 
Q 26.515625 48.1875 22.3125 43.546875 
Q 18.109375 38.921875 18.109375 30.90625 
L 18.109375 0 
L 9.078125 0 
L 9.078125 54.6875 
L 18.109375 54.6875 
L 18.109375 46.1875 
Q 21.34375 51.125 25.703125 53.5625 
Q 30.078125 56 35.796875 56 
Q 45.21875 56 50.046875 50.171875 
Q 54.890625 44.34375 54.890625 33.015625 
z
" id="DejaVuSans-110"/>
      <path d="M 56.203125 29.59375 
L 56.203125 25.203125 
L 14.890625 25.203125 
Q 15.484375 15.921875 20.484375 11.0625 
Q 25.484375 6.203125 34.421875 6.203125 
Q 39.59375 6.203125 44.453125 7.46875 
Q 49.3125 8.734375 54.109375 11.28125 
L 54.109375 2.78125 
Q 49.265625 0.734375 44.1875 -0.34375 
Q 39.109375 -1.421875 33.890625 -1.421875 
Q 20.796875 -1.421875 13.15625 6.1875 
Q 5.515625 13.8125 5.515625 26.8125 
Q 5.515625 40.234375 12.765625 48.109375 
Q 20.015625 56 32.328125 56 
Q 43.359375 56 49.78125 48.890625 
Q 56.203125 41.796875 56.203125 29.59375 
z
M 47.21875 32.234375 
Q 47.125 39.59375 43.09375 43.984375 
Q 39.0625 48.390625 32.421875 48.390625 
Q 24.90625 48.390625 20.390625 44.140625 
Q 15.875 39.890625 15.1875 32.171875 
z
" id="DejaVuSans-101"/>
      <path d="M 41.109375 46.296875 
Q 39.59375 47.171875 37.8125 47.578125 
Q 36.03125 48 33.890625 48 
Q 26.265625 48 22.1875 43.046875 
Q 18.109375 38.09375 18.109375 28.8125 
L 18.109375 0 
L 9.078125 0 
L 9.078125 54.6875 
L 18.109375 54.6875 
L 18.109375 46.1875 
Q 20.953125 51.171875 25.484375 53.578125 
Q 30.03125 56 36.53125 56 
Q 37.453125 56 38.578125 55.875 
Q 39.703125 55.765625 41.0625 55.515625 
z
" id="DejaVuSans-114"/>
      <path d="M 34.28125 27.484375 
Q 23.390625 27.484375 19.1875 25 
Q 14.984375 22.515625 14.984375 16.5 
Q 14.984375 11.71875 18.140625 8.90625 
Q 21.296875 6.109375 26.703125 6.109375 
Q 34.1875 6.109375 38.703125 11.40625 
Q 43.21875 16.703125 43.21875 25.484375 
L 43.21875 27.484375 
z
M 52.203125 31.203125 
L 52.203125 0 
L 43.21875 0 
L 43.21875 8.296875 
Q 40.140625 3.328125 35.546875 0.953125 
Q 30.953125 -1.421875 24.3125 -1.421875 
Q 15.921875 -1.421875 10.953125 3.296875 
Q 6 8.015625 6 15.921875 
Q 6 25.140625 12.171875 29.828125 
Q 18.359375 34.515625 30.609375 34.515625 
L 43.21875 34.515625 
L 43.21875 35.40625 
Q 43.21875 41.609375 39.140625 45 
Q 35.0625 48.390625 27.6875 48.390625 
Q 23 48.390625 18.546875 47.265625 
Q 14.109375 46.140625 10.015625 43.890625 
L 10.015625 52.203125 
Q 14.9375 54.109375 19.578125 55.046875 
Q 24.21875 56 28.609375 56 
Q 40.484375 56 46.34375 49.84375 
Q 52.203125 43.703125 52.203125 31.203125 
z
" id="DejaVuSans-97"/>
      <path d="M 48.78125 52.59375 
L 48.78125 44.1875 
Q 44.96875 46.296875 41.140625 47.34375 
Q 37.3125 48.390625 33.40625 48.390625 
Q 24.65625 48.390625 19.8125 42.84375 
Q 14.984375 37.3125 14.984375 27.296875 
Q 14.984375 17.28125 19.8125 11.734375 
Q 24.65625 6.203125 33.40625 6.203125 
Q 37.3125 6.203125 41.140625 7.25 
Q 44.96875 8.296875 48.78125 10.40625 
L 48.78125 2.09375 
Q 45.015625 0.34375 40.984375 -0.53125 
Q 36.96875 -1.421875 32.421875 -1.421875 
Q 20.0625 -1.421875 12.78125 6.34375 
Q 5.515625 14.109375 5.515625 27.296875 
Q 5.515625 40.671875 12.859375 48.328125 
Q 20.21875 56 33.015625 56 
Q 37.15625 56 41.109375 55.140625 
Q 45.0625 54.296875 48.78125 52.59375 
z
" id="DejaVuSans-99"/>
      <path d="M 30.609375 48.390625 
Q 23.390625 48.390625 19.1875 42.75 
Q 14.984375 37.109375 14.984375 27.296875 
Q 14.984375 17.484375 19.15625 11.84375 
Q 23.34375 6.203125 30.609375 6.203125 
Q 37.796875 6.203125 41.984375 11.859375 
Q 46.1875 17.53125 46.1875 27.296875 
Q 46.1875 37.015625 41.984375 42.703125 
Q 37.796875 48.390625 30.609375 48.390625 
z
M 30.609375 56 
Q 42.328125 56 49.015625 48.375 
Q 55.71875 40.765625 55.71875 27.296875 
Q 55.71875 13.875 49.015625 6.21875 
Q 42.328125 -1.421875 30.609375 -1.421875 
Q 18.84375 -1.421875 12.171875 6.21875 
Q 5.515625 13.875 5.515625 27.296875 
Q 5.515625 40.765625 12.171875 48.375 
Q 18.84375 56 30.609375 56 
z
" id="DejaVuSans-111"/>
     </defs>
     <g transform="translate(665.201563 559.029688)scale(0.3 -0.3)">
      <use xlink:href="#DejaVuSans-66"/>
      <use x="68.603516" xlink:href="#DejaVuSans-105"/>
      <use x="96.386719" xlink:href="#DejaVuSans-116"/>
      <use x="135.595703" xlink:href="#DejaVuSans-32"/>
      <use x="167.382812" xlink:href="#DejaVuSans-73"/>
      <use x="196.875" xlink:href="#DejaVuSans-110"/>
      <use x="260.253906" xlink:href="#DejaVuSans-116"/>
      <use x="299.462891" xlink:href="#DejaVuSans-101"/>
      <use x="360.986328" xlink:href="#DejaVuSans-114"/>
      <use x="402.099609" xlink:href="#DejaVuSans-97"/>
      <use x="463.378906" xlink:href="#DejaVuSans-99"/>
      <use x="518.359375" xlink:href="#DejaVuSans-116"/>
      <use x="557.568359" xlink:href="#DejaVuSans-105"/>
      <use x="585.351562" xlink:href="#DejaVuSans-111"/>
      <use x="646.533203" xlink:href="#DejaVuSans-110"/>
     </g>
    </g>
   </g>
   <g id="matplotlib.axis_2">
    <g id="ytick_1">
     <g id="line2d_7">
      <defs>
       <path d="M 0 0 
L -3.5 0 
" id="m8920f0ee3b" style="stroke:#000000;stroke-width:0.8;"/>
      </defs>
      <g>
       <use style="stroke:#000000;stroke-width:0.8;" x="114.175" xlink:href="#m8920f0ee3b" y="461.68149"/>
      </g>
     </g>
     <g id="text_8">
      <!-- −14 -->
      <defs>
       <path d="M 10.59375 35.5 
L 73.1875 35.5 
L 73.1875 27.203125 
L 10.59375 27.203125 
z
" id="DejaVuSans-8722"/>
       <path d="M 37.796875 64.3125 
L 12.890625 25.390625 
L 37.796875 25.390625 
z
M 35.203125 72.90625 
L 47.609375 72.90625 
L 47.609375 25.390625 
L 58.015625 25.390625 
L 58.015625 17.1875 
L 47.609375 17.1875 
L 47.609375 0 
L 37.796875 0 
L 37.796875 17.1875 
L 4.890625 17.1875 
L 4.890625 26.703125 
z
" id="DejaVuSans-52"/>
      </defs>
      <g transform="translate(43.860937 473.079146)scale(0.3 -0.3)">
       <use xlink:href="#DejaVuSans-8722"/>
       <use x="83.789062" xlink:href="#DejaVuSans-49"/>
       <use x="147.412109" xlink:href="#DejaVuSans-52"/>
      </g>
     </g>
    </g>
    <g id="ytick_2">
     <g id="line2d_8">
      <g>
       <use style="stroke:#000000;stroke-width:0.8;" x="114.175" xlink:href="#m8920f0ee3b" y="402.816338"/>
      </g>
     </g>
     <g id="text_9">
      <!-- −12 -->
      <g transform="translate(43.860937 414.213995)scale(0.3 -0.3)">
       <use xlink:href="#DejaVuSans-8722"/>
       <use x="83.789062" xlink:href="#DejaVuSans-49"/>
       <use x="147.412109" xlink:href="#DejaVuSans-50"/>
      </g>
     </g>
    </g>
    <g id="ytick_3">
     <g id="line2d_9">
      <g>
       <use style="stroke:#000000;stroke-width:0.8;" x="114.175" xlink:href="#m8920f0ee3b" y="343.951187"/>
      </g>
     </g>
     <g id="text_10">
      <!-- −10 -->
      <g transform="translate(43.860937 355.348843)scale(0.3 -0.3)">
       <use xlink:href="#DejaVuSans-8722"/>
       <use x="83.789062" xlink:href="#DejaVuSans-49"/>
       <use x="147.412109" xlink:href="#DejaVuSans-48"/>
      </g>
     </g>
    </g>
    <g id="ytick_4">
     <g id="line2d_10">
      <g>
       <use style="stroke:#000000;stroke-width:0.8;" x="114.175" xlink:href="#m8920f0ee3b" y="285.086035"/>
      </g>
     </g>
     <g id="text_11">
      <!-- −8 -->
      <defs>
       <path d="M 31.78125 34.625 
Q 24.75 34.625 20.71875 30.859375 
Q 16.703125 27.09375 16.703125 20.515625 
Q 16.703125 13.921875 20.71875 10.15625 
Q 24.75 6.390625 31.78125 6.390625 
Q 38.8125 6.390625 42.859375 10.171875 
Q 46.921875 13.96875 46.921875 20.515625 
Q 46.921875 27.09375 42.890625 30.859375 
Q 38.875 34.625 31.78125 34.625 
z
M 21.921875 38.8125 
Q 15.578125 40.375 12.03125 44.71875 
Q 8.5 49.078125 8.5 55.328125 
Q 8.5 64.0625 14.71875 69.140625 
Q 20.953125 74.21875 31.78125 74.21875 
Q 42.671875 74.21875 48.875 69.140625 
Q 55.078125 64.0625 55.078125 55.328125 
Q 55.078125 49.078125 51.53125 44.71875 
Q 48 40.375 41.703125 38.8125 
Q 48.828125 37.15625 52.796875 32.3125 
Q 56.78125 27.484375 56.78125 20.515625 
Q 56.78125 9.90625 50.3125 4.234375 
Q 43.84375 -1.421875 31.78125 -1.421875 
Q 19.734375 -1.421875 13.25 4.234375 
Q 6.78125 9.90625 6.78125 20.515625 
Q 6.78125 27.484375 10.78125 32.3125 
Q 14.796875 37.15625 21.921875 38.8125 
z
M 18.3125 54.390625 
Q 18.3125 48.734375 21.84375 45.5625 
Q 25.390625 42.390625 31.78125 42.390625 
Q 38.140625 42.390625 41.71875 45.5625 
Q 45.3125 48.734375 45.3125 54.390625 
Q 45.3125 60.0625 41.71875 63.234375 
Q 38.140625 66.40625 31.78125 66.40625 
Q 25.390625 66.40625 21.84375 63.234375 
Q 18.3125 60.0625 18.3125 54.390625 
z
" id="DejaVuSans-56"/>
      </defs>
      <g transform="translate(62.948437 296.483691)scale(0.3 -0.3)">
       <use xlink:href="#DejaVuSans-8722"/>
       <use x="83.789062" xlink:href="#DejaVuSans-56"/>
      </g>
     </g>
    </g>
    <g id="ytick_5">
     <g id="line2d_11">
      <g>
       <use style="stroke:#000000;stroke-width:0.8;" x="114.175" xlink:href="#m8920f0ee3b" y="226.220883"/>
      </g>
     </g>
     <g id="text_12">
      <!-- −6 -->
      <defs>
       <path d="M 33.015625 40.375 
Q 26.375 40.375 22.484375 35.828125 
Q 18.609375 31.296875 18.609375 23.390625 
Q 18.609375 15.53125 22.484375 10.953125 
Q 26.375 6.390625 33.015625 6.390625 
Q 39.65625 6.390625 43.53125 10.953125 
Q 47.40625 15.53125 47.40625 23.390625 
Q 47.40625 31.296875 43.53125 35.828125 
Q 39.65625 40.375 33.015625 40.375 
z
M 52.59375 71.296875 
L 52.59375 62.3125 
Q 48.875 64.0625 45.09375 64.984375 
Q 41.3125 65.921875 37.59375 65.921875 
Q 27.828125 65.921875 22.671875 59.328125 
Q 17.53125 52.734375 16.796875 39.40625 
Q 19.671875 43.65625 24.015625 45.921875 
Q 28.375 48.1875 33.59375 48.1875 
Q 44.578125 48.1875 50.953125 41.515625 
Q 57.328125 34.859375 57.328125 23.390625 
Q 57.328125 12.15625 50.6875 5.359375 
Q 44.046875 -1.421875 33.015625 -1.421875 
Q 20.359375 -1.421875 13.671875 8.265625 
Q 6.984375 17.96875 6.984375 36.375 
Q 6.984375 53.65625 15.1875 63.9375 
Q 23.390625 74.21875 37.203125 74.21875 
Q 40.921875 74.21875 44.703125 73.484375 
Q 48.484375 72.75 52.59375 71.296875 
z
" id="DejaVuSans-54"/>
      </defs>
      <g transform="translate(62.948437 237.618539)scale(0.3 -0.3)">
       <use xlink:href="#DejaVuSans-8722"/>
       <use x="83.789062" xlink:href="#DejaVuSans-54"/>
      </g>
     </g>
    </g>
    <g id="ytick_6">
     <g id="line2d_12">
      <g>
       <use style="stroke:#000000;stroke-width:0.8;" x="114.175" xlink:href="#m8920f0ee3b" y="167.355731"/>
      </g>
     </g>
     <g id="text_13">
      <!-- −4 -->
      <g transform="translate(62.948437 178.753388)scale(0.3 -0.3)">
       <use xlink:href="#DejaVuSans-8722"/>
       <use x="83.789062" xlink:href="#DejaVuSans-52"/>
      </g>
     </g>
    </g>
    <g id="ytick_7">
     <g id="line2d_13">
      <g>
       <use style="stroke:#000000;stroke-width:0.8;" x="114.175" xlink:href="#m8920f0ee3b" y="108.49058"/>
      </g>
     </g>
     <g id="text_14">
      <!-- −2 -->
      <g transform="translate(62.948437 119.888236)scale(0.3 -0.3)">
       <use xlink:href="#DejaVuSans-8722"/>
       <use x="83.789062" xlink:href="#DejaVuSans-50"/>
      </g>
     </g>
    </g>
    <g id="ytick_8">
     <g id="line2d_14">
      <g>
       <use style="stroke:#000000;stroke-width:0.8;" x="114.175" xlink:href="#m8920f0ee3b" y="49.625428"/>
      </g>
     </g>
     <g id="text_15">
      <!-- 0 -->
      <g transform="translate(88.0875 61.023084)scale(0.3 -0.3)">
       <use xlink:href="#DejaVuSans-48"/>
      </g>
     </g>
    </g>
    <g id="text_16">
     <!-- Weight Value -->
     <defs>
      <path d="M 3.328125 72.90625 
L 13.28125 72.90625 
L 28.609375 11.28125 
L 43.890625 72.90625 
L 54.984375 72.90625 
L 70.3125 11.28125 
L 85.59375 72.90625 
L 95.609375 72.90625 
L 77.296875 0 
L 64.890625 0 
L 49.515625 63.28125 
L 33.984375 0 
L 21.578125 0 
z
" id="DejaVuSans-87"/>
      <path d="M 45.40625 27.984375 
Q 45.40625 37.75 41.375 43.109375 
Q 37.359375 48.484375 30.078125 48.484375 
Q 22.859375 48.484375 18.828125 43.109375 
Q 14.796875 37.75 14.796875 27.984375 
Q 14.796875 18.265625 18.828125 12.890625 
Q 22.859375 7.515625 30.078125 7.515625 
Q 37.359375 7.515625 41.375 12.890625 
Q 45.40625 18.265625 45.40625 27.984375 
z
M 54.390625 6.78125 
Q 54.390625 -7.171875 48.1875 -13.984375 
Q 42 -20.796875 29.203125 -20.796875 
Q 24.46875 -20.796875 20.265625 -20.09375 
Q 16.0625 -19.390625 12.109375 -17.921875 
L 12.109375 -9.1875 
Q 16.0625 -11.328125 19.921875 -12.34375 
Q 23.78125 -13.375 27.78125 -13.375 
Q 36.625 -13.375 41.015625 -8.765625 
Q 45.40625 -4.15625 45.40625 5.171875 
L 45.40625 9.625 
Q 42.625 4.78125 38.28125 2.390625 
Q 33.9375 0 27.875 0 
Q 17.828125 0 11.671875 7.65625 
Q 5.515625 15.328125 5.515625 27.984375 
Q 5.515625 40.671875 11.671875 48.328125 
Q 17.828125 56 27.875 56 
Q 33.9375 56 38.28125 53.609375 
Q 42.625 51.21875 45.40625 46.390625 
L 45.40625 54.6875 
L 54.390625 54.6875 
z
" id="DejaVuSans-103"/>
      <path d="M 54.890625 33.015625 
L 54.890625 0 
L 45.90625 0 
L 45.90625 32.71875 
Q 45.90625 40.484375 42.875 44.328125 
Q 39.84375 48.1875 33.796875 48.1875 
Q 26.515625 48.1875 22.3125 43.546875 
Q 18.109375 38.921875 18.109375 30.90625 
L 18.109375 0 
L 9.078125 0 
L 9.078125 75.984375 
L 18.109375 75.984375 
L 18.109375 46.1875 
Q 21.34375 51.125 25.703125 53.5625 
Q 30.078125 56 35.796875 56 
Q 45.21875 56 50.046875 50.171875 
Q 54.890625 44.34375 54.890625 33.015625 
z
" id="DejaVuSans-104"/>
      <path d="M 28.609375 0 
L 0.78125 72.90625 
L 11.078125 72.90625 
L 34.1875 11.53125 
L 57.328125 72.90625 
L 67.578125 72.90625 
L 39.796875 0 
z
" id="DejaVuSans-86"/>
      <path d="M 9.421875 75.984375 
L 18.40625 75.984375 
L 18.40625 0 
L 9.421875 0 
z
" id="DejaVuSans-108"/>
      <path d="M 8.5 21.578125 
L 8.5 54.6875 
L 17.484375 54.6875 
L 17.484375 21.921875 
Q 17.484375 14.15625 20.5 10.265625 
Q 23.53125 6.390625 29.59375 6.390625 
Q 36.859375 6.390625 41.078125 11.03125 
Q 45.3125 15.671875 45.3125 23.6875 
L 45.3125 54.6875 
L 54.296875 54.6875 
L 54.296875 0 
L 45.3125 0 
L 45.3125 8.40625 
Q 42.046875 3.421875 37.71875 1 
Q 33.40625 -1.421875 27.6875 -1.421875 
Q 18.265625 -1.421875 13.375 4.4375 
Q 8.5 10.296875 8.5 21.578125 
z
M 31.109375 56 
z
" id="DejaVuSans-117"/>
     </defs>
     <g transform="translate(33.621875 353.732813)rotate(-90)scale(0.3 -0.3)">
      <use xlink:href="#DejaVuSans-87"/>
      <use x="98.798828" xlink:href="#DejaVuSans-101"/>
      <use x="160.322266" xlink:href="#DejaVuSans-105"/>
      <use x="188.105469" xlink:href="#DejaVuSans-103"/>
      <use x="251.582031" xlink:href="#DejaVuSans-104"/>
      <use x="314.960938" xlink:href="#DejaVuSans-116"/>
      <use x="354.169922" xlink:href="#DejaVuSans-32"/>
      <use x="385.957031" xlink:href="#DejaVuSans-86"/>
      <use x="454.255859" xlink:href="#DejaVuSans-97"/>
      <use x="515.535156" xlink:href="#DejaVuSans-108"/>
      <use x="543.318359" xlink:href="#DejaVuSans-117"/>
      <use x="606.697266" xlink:href="#DejaVuSans-101"/>
     </g>
    </g>
   </g>
   <g id="line2d_15">
    <path clip-path="url(#p09548ba61f)" d="M 174.882101 53.004851 
L 179.548289 65.482982 
L 184.214476 38.669081 
L 188.880664 57.988456 
L 193.546852 44.228089 
L 198.213039 56.563642 
L 202.879227 56.191016 
L 207.545415 51.685291 
L 212.211602 60.649022 
L 216.87779 45.152832 
L 221.543978 48.299959 
L 226.210165 44.46229 
L 230.876353 52.424506 
L 235.54254 44.713924 
L 240.208728 55.978234 
L 244.874916 56.90733 
L 249.541103 42.121829 
L 254.207291 47.510659 
L 258.873479 57.035073 
L 263.539666 52.36366 
L 268.205854 54.21587 
L 272.872042 52.896752 
L 277.538229 50.8603 
L 282.204417 44.146344 
L 286.870604 37.640498 
L 291.536792 50.583701 
L 296.20298 45.592375 
L 300.869167 43.923316 
L 305.535355 39.688222 
L 310.201543 45.027566 
L 314.86773 52.987389 
L 319.533918 37.14176 
L 324.200106 45.192454 
L 328.866293 55.862754 
L 333.532481 52.4223 
L 338.198668 66.370216 
L 342.864856 51.241392 
L 347.531044 62.476204 
L 352.197231 59.573198 
L 356.863419 57.747726 
L 361.529607 47.266382 
L 366.195794 49.980092 
L 370.861982 41.699527 
L 375.52817 38.901134 
L 380.194357 48.444395 
L 384.860545 45.656535 
L 389.526732 43.204106 
L 394.19292 57.777145 
L 398.859108 55.705029 
L 403.525295 56.589983 
L 408.191483 44.921534 
L 412.857671 44.439352 
L 417.523858 55.297963 
L 422.190046 46.531291 
L 426.856234 49.892278 
L 431.522421 55.50186 
L 436.188609 53.631831 
L 440.854797 46.982557 
L 445.520984 53.280597 
L 450.187172 43.400974 
L 454.853359 64.264043 
L 459.519547 46.046497 
L 464.185735 47.678051 
L 468.851922 52.766532 
L 473.51811 70.359415 
L 478.184298 63.544729 
L 482.850485 47.541827 
L 487.516673 46.608738 
L 492.182861 52.92552 
L 496.849048 44.884814 
L 501.515236 56.006337 
L 506.181423 49.822616 
L 510.847611 44.578116 
L 515.513799 63.875578 
L 520.179986 48.830395 
L 524.846174 46.876505 
L 529.512362 57.3557 
L 534.178549 40.13685 
L 538.844737 46.803945 
L 543.510925 60.319531 
L 548.177112 44.78051 
L 552.8433 59.428304 
L 557.509487 51.255659 
L 562.175675 42.605001 
L 566.841863 56.0343 
L 571.50805 46.213509 
L 576.174238 52.205383 
L 580.840426 58.656492 
L 585.506613 42.217595 
L 590.172801 41.539674 
L 594.838989 44.396399 
L 599.505176 50.071559 
L 604.171364 53.634264 
L 608.837551 54.951152 
L 613.503739 51.521191 
L 618.169927 43.14964 
L 622.836114 44.761438 
L 627.502302 38.6759 
L 632.16849 53.657288 
L 636.834677 56.637077 
L 641.500865 49.542753 
L 646.167053 36.910098 
L 650.83324 58.154472 
L 655.499428 45.912736 
L 660.165615 49.103592 
L 664.831803 45.512119 
L 669.497991 57.593521 
L 674.164178 43.10245 
L 678.830366 57.066978 
L 683.496554 50.332441 
L 688.162741 46.841659 
L 692.828929 47.1215 
L 697.495117 61.658198 
L 702.161304 45.473848 
L 706.827492 40.810254 
L 711.493679 58.371944 
L 716.159867 38.986943 
L 720.826055 48.318665 
L 725.492242 41.596651 
L 730.15843 54.230002 
L 734.824618 53.106406 
L 739.490805 62.635933 
L 744.156993 53.931934 
L 748.823181 49.317008 
L 753.489368 38.350937 
L 758.155556 46.709285 
L 762.821743 59.482697 
L 767.487931 46.808606 
L 772.154119 58.162507 
L 776.820306 56.020204 
L 781.486494 45.255416 
L 786.152682 53.72937 
L 790.818869 42.983936 
L 795.485057 34.103611 
L 800.151245 49.721356 
L 804.817432 40.781706 
L 809.48362 46.522517 
L 814.149808 48.440957 
L 818.815995 47.51351 
L 823.482183 65.536343 
L 828.14837 44.528836 
L 832.814558 52.127423 
L 837.480746 42.762814 
L 842.146933 37.499016 
L 846.813121 45.624131 
L 851.479309 40.746266 
L 856.145496 48.944268 
L 860.811684 50.41553 
L 865.477872 56.7328 
L 870.144059 49.928409 
L 874.810247 60.789875 
L 879.476434 55.257848 
L 884.142622 50.369545 
L 888.80881 61.7706 
L 893.474997 39.963275 
L 898.141185 48.097959 
L 902.807373 53.861443 
L 907.47356 38.291928 
L 912.139748 49.833514 
L 916.805936 56.076666 
L 921.472123 47.619009 
L 926.138311 38.371127 
L 930.804498 52.448736 
L 935.470686 58.720535 
L 940.136874 46.215009 
L 944.803061 48.546706 
L 949.469249 51.528274 
L 954.135437 38.232832 
L 958.801624 49.503058 
L 963.467812 48.347939 
L 968.134 55.369824 
L 972.800187 55.09595 
L 977.466375 43.768265 
L 982.132562 46.312474 
L 986.79875 44.128194 
L 991.464938 50.890028 
L 996.131125 52.111636 
L 1000.797313 50.77485 
L 1005.463501 48.586902 
L 1010.129688 43.490285 
L 1014.795876 55.742849 
L 1019.462064 40.427846 
L 1024.128251 47.552303 
L 1028.794439 50.950865 
L 1033.460626 41.174625 
L 1038.126814 50.640954 
L 1042.793002 48.535191 
L 1047.459189 50.72602 
L 1052.125377 51.48075 
L 1056.791565 47.240758 
L 1061.457752 60.887723 
L 1066.12394 53.666838 
L 1070.790128 47.169238 
L 1075.456315 47.190362 
L 1080.122503 51.17074 
L 1084.78869 51.791548 
L 1089.454878 61.100201 
L 1094.121066 43.57169 
L 1098.787253 45.817988 
L 1103.453441 43.4923 
L 1112.785816 54.064763 
L 1117.452004 58.776831 
L 1122.118192 40.952202 
L 1126.784379 37.632616 
L 1131.450567 47.333926 
L 1136.116754 58.572017 
L 1140.782942 41.72456 
L 1145.44913 58.2266 
L 1150.115317 61.844976 
L 1154.781505 47.879202 
L 1159.447693 51.10138 
L 1164.11388 47.728753 
L 1168.780068 51.007444 
L 1173.446256 58.88763 
L 1178.112443 47.646304 
L 1182.778631 62.568296 
L 1187.444819 43.291893 
L 1192.111006 49.644416 
L 1196.777194 38.445479 
L 1201.443381 55.021838 
L 1206.109569 48.963171 
L 1210.775757 44.367683 
L 1215.441944 47.51151 
L 1220.108132 45.931612 
L 1224.77432 42.634139 
L 1229.440507 50.227437 
L 1234.106695 48.528584 
L 1238.772883 65.509316 
L 1243.43907 51.086794 
L 1248.105258 44.519582 
L 1252.771445 58.801237 
L 1257.437633 58.851259 
L 1262.103821 53.2584 
L 1266.770008 51.862103 
L 1271.436196 55.102905 
L 1276.102384 53.972697 
L 1280.768571 51.629784 
L 1285.434759 61.057722 
L 1290.100947 50.497843 
L 1294.767134 33.439039 
L 1299.433322 59.546558 
L 1304.099509 55.548029 
L 1313.431885 44.039103 
L 1318.098072 46.95739 
L 1322.76426 44.079153 
L 1327.430448 54.051306 
L 1332.096635 58.387639 
L 1336.762823 49.309888 
L 1341.429011 62.542417 
L 1346.095198 47.150579 
L 1350.761386 36.007946 
L 1355.427573 47.792136 
L 1360.093761 55.822248 
L 1364.759949 54.295789 
L 1364.759949 54.295789 
" style="fill:none;stroke:#1f77b4;stroke-linecap:square;stroke-width:1.5;"/>
   </g>
   <g id="line2d_16">
    <path clip-path="url(#p09548ba61f)" d="M 174.882101 51.723624 
L 179.548289 46.002003 
L 184.214476 47.251335 
L 188.880664 50.315045 
L 193.546852 474.136364 
L 198.213039 46.425766 
L 202.879227 51.899307 
L 207.545415 257.926326 
L 212.211602 47.429228 
L 216.87779 50.763784 
L 221.543978 52.294261 
L 226.210165 43.06598 
L 230.876353 55.023464 
L 235.54254 50.006743 
L 240.208728 48.988524 
L 244.874916 50.789191 
L 249.541103 49.628882 
L 254.207291 52.40933 
L 258.873479 45.458231 
L 263.539666 53.56554 
L 268.205854 51.251266 
L 272.872042 52.900002 
L 277.538229 48.709481 
L 282.204417 49.627484 
L 286.870604 58.272424 
L 291.536792 51.128799 
L 296.20298 49.712153 
L 300.869167 54.258376 
L 305.535355 47.345255 
L 310.201543 54.631955 
L 314.86773 46.27442 
L 319.533918 45.31254 
L 324.200106 43.334821 
L 328.866293 53.635403 
L 333.532481 55.666572 
L 338.198668 49.736869 
L 342.864856 42.801822 
L 347.531044 46.940066 
L 356.863419 49.872628 
L 361.529607 53.171533 
L 366.195794 51.469523 
L 370.861982 51.512138 
L 375.52817 51.971463 
L 380.194357 50.127952 
L 384.860545 50.113001 
L 389.526732 48.072432 
L 394.19292 42.012651 
L 398.859108 44.925226 
L 403.525295 48.146764 
L 408.191483 48.689057 
L 412.857671 58.615483 
L 417.523858 48.809219 
L 422.190046 50.615832 
L 426.856234 50.373571 
L 431.522421 49.022951 
L 436.188609 54.127811 
L 440.854797 56.617615 
L 445.520984 57.849649 
L 450.187172 51.267677 
L 454.853359 49.288742 
L 459.519547 47.806797 
L 464.185735 59.655594 
L 468.851922 47.06599 
L 473.51811 45.085344 
L 478.184298 50.166472 
L 482.850485 51.577531 
L 487.516673 51.414408 
L 492.182861 47.223417 
L 496.849048 50.139885 
L 501.515236 47.760152 
L 506.181423 48.329477 
L 510.847611 47.300535 
L 515.513799 50.906231 
L 520.179986 55.016481 
L 524.846174 50.832824 
L 529.512362 47.479416 
L 534.178549 46.648795 
L 538.844737 53.255854 
L 543.510925 47.615762 
L 548.177112 56.563926 
L 552.8433 54.875372 
L 557.509487 48.106126 
L 562.175675 45.28452 
L 566.841863 52.406688 
L 571.50805 51.521194 
L 576.174238 45.655325 
L 580.840426 44.595464 
L 585.506613 47.957872 
L 590.172801 55.790595 
L 594.838989 49.758128 
L 599.505176 50.676319 
L 604.171364 51.405248 
L 608.837551 40.364234 
L 613.503739 45.420136 
L 618.169927 48.954766 
L 622.836114 55.895562 
L 627.502302 41.461298 
L 632.16849 50.830615 
L 636.834677 49.265288 
L 641.500865 51.917508 
L 646.167053 55.687035 
L 650.83324 48.213197 
L 655.499428 59.007498 
L 660.165615 49.46647 
L 664.831803 50.328734 
L 669.497991 44.153243 
L 674.164178 49.086552 
L 678.830366 52.540569 
L 683.496554 51.110122 
L 688.162741 46.029208 
L 692.828929 55.843589 
L 697.495117 48.342123 
L 702.161304 55.093859 
L 706.827492 50.148741 
L 711.493679 49.044308 
L 716.159867 46.394546 
L 720.826055 53.122122 
L 725.492242 44.799647 
L 730.15843 47.942836 
L 734.824618 48.238296 
L 739.490805 45.769386 
L 744.156993 48.560125 
L 748.823181 44.863125 
L 753.489368 50.274606 
L 758.155556 42.439293 
L 762.821743 48.843226 
L 767.487931 46.628014 
L 772.154119 46.221091 
L 776.820306 53.02253 
L 781.486494 45.313688 
L 786.152682 49.06584 
L 790.818869 43.887502 
L 795.485057 49.546208 
L 800.151245 52.720825 
L 804.817432 48.157647 
L 809.48362 41.145948 
L 814.149808 54.092335 
L 818.815995 47.983876 
L 823.482183 51.58401 
L 828.14837 50.249726 
L 832.814558 48.504236 
L 837.480746 46.98299 
L 842.146933 56.71526 
L 846.813121 47.049533 
L 851.479309 46.503982 
L 856.145496 47.271122 
L 860.811684 42.297945 
L 865.477872 56.375808 
L 870.144059 42.691816 
L 874.810247 48.349629 
L 879.476434 54.745955 
L 884.142622 53.732219 
L 888.80881 48.478806 
L 893.474997 48.51173 
L 898.141185 42.950779 
L 902.807373 42.840724 
L 907.47356 45.917518 
L 912.139748 48.417418 
L 916.805936 54.330548 
L 921.472123 48.729108 
L 926.138311 45.198544 
L 930.804498 52.01912 
L 935.470686 52.52314 
L 940.136874 49.376366 
L 944.803061 45.599745 
L 949.469249 52.215626 
L 954.135437 51.45551 
L 958.801624 62.722826 
L 963.467812 44.483372 
L 968.134 51.942527 
L 977.466375 47.292865 
L 982.132562 48.663287 
L 986.79875 45.4022 
L 991.464938 41.651437 
L 996.131125 51.970498 
L 1000.797313 45.198537 
L 1005.463501 40.115263 
L 1010.129688 53.340083 
L 1014.795876 43.255595 
L 1019.462064 51.511076 
L 1024.128251 50.284075 
L 1028.794439 43.759507 
L 1033.460626 36.424069 
L 1038.126814 55.370414 
L 1042.793002 46.588066 
L 1047.459189 44.360469 
L 1052.125377 46.110352 
L 1056.791565 44.931936 
L 1061.457752 48.706294 
L 1066.12394 43.729355 
L 1070.790128 50.260748 
L 1075.456315 49.837987 
L 1080.122503 48.413873 
L 1084.78869 50.42615 
L 1089.454878 52.04834 
L 1094.121066 54.521714 
L 1098.787253 47.800436 
L 1103.453441 52.340827 
L 1108.119629 46.358295 
L 1112.785816 50.261196 
L 1117.452004 44.962261 
L 1122.118192 52.372835 
L 1126.784379 47.483058 
L 1131.450567 47.679047 
L 1136.116754 49.96936 
L 1140.782942 46.374745 
L 1145.44913 53.864671 
L 1150.115317 46.184365 
L 1154.781505 49.491533 
L 1159.447693 46.946608 
L 1164.11388 47.686402 
L 1168.780068 47.989103 
L 1173.446256 46.814632 
L 1178.112443 52.797749 
L 1182.778631 55.181313 
L 1187.444819 47.087746 
L 1192.111006 47.507455 
L 1196.777194 42.030589 
L 1201.443381 52.665688 
L 1206.109569 50.124213 
L 1210.775757 55.074852 
L 1215.441944 47.556862 
L 1220.108132 50.091523 
L 1224.77432 46.598024 
L 1229.440507 54.330335 
L 1234.106695 43.331119 
L 1238.772883 46.804317 
L 1243.43907 47.585115 
L 1248.105258 49.202889 
L 1252.771445 51.111634 
L 1257.437633 51.224397 
L 1262.103821 44.150366 
L 1266.770008 43.841856 
L 1271.436196 52.551105 
L 1276.102384 49.388218 
L 1280.768571 47.80606 
L 1285.434759 53.045407 
L 1290.100947 39.427372 
L 1294.767134 48.658015 
L 1299.433322 51.878201 
L 1304.099509 45.754526 
L 1308.765697 48.294963 
L 1313.431885 56.83006 
L 1318.098072 53.447766 
L 1322.76426 52.889839 
L 1327.430448 54.717147 
L 1332.096635 53.90378 
L 1336.762823 47.137783 
L 1341.429011 50.182641 
L 1346.095198 49.068769 
L 1350.761386 49.751034 
L 1355.427573 46.176766 
L 1360.093761 44.748387 
L 1364.759949 51.211589 
L 1364.759949 51.211589 
" style="fill:none;stroke:#ff7f0e;stroke-linecap:square;stroke-width:1.5;"/>
   </g>
   <g id="line2d_17">
    <path clip-path="url(#p09548ba61f)" d="M 174.882101 48.154941 
L 179.548289 57.232901 
L 184.214476 43.605372 
L 188.880664 38.444983 
L 193.546852 43.277656 
L 198.213039 54.637446 
L 202.879227 49.537762 
L 207.545415 47.893092 
L 212.211602 41.334217 
L 216.87779 55.10708 
L 221.543978 59.471617 
L 226.210165 41.985652 
L 230.876353 47.958878 
L 235.54254 47.447218 
L 240.208728 54.230571 
L 244.874916 54.111209 
L 249.541103 46.626062 
L 254.207291 53.163583 
L 258.873479 48.271769 
L 263.539666 44.581196 
L 268.205854 41.624681 
L 272.872042 65.535954 
L 277.538229 60.468864 
L 282.204417 54.830761 
L 286.870604 43.070923 
L 291.536792 45.004236 
L 296.20298 51.953633 
L 300.869167 50.688782 
L 305.535355 55.02024 
L 310.201543 44.489141 
L 314.86773 54.092137 
L 319.533918 42.748946 
L 324.200106 38.629549 
L 328.866293 53.296022 
L 333.532481 40.695488 
L 338.198668 44.357546 
L 342.864856 52.977666 
L 347.531044 54.176744 
L 352.197231 48.540519 
L 356.863419 50.887786 
L 361.529607 42.845434 
L 366.195794 49.493927 
L 370.861982 46.595798 
L 375.52817 47.911961 
L 380.194357 50.24291 
L 384.860545 36.912362 
L 389.526732 61.528892 
L 394.19292 59.64941 
L 398.859108 42.042984 
L 403.525295 43.544284 
L 408.191483 46.622269 
L 412.857671 57.082692 
L 417.523858 46.156075 
L 422.190046 61.589542 
L 426.856234 62.864582 
L 431.522421 50.71343 
L 436.188609 61.264387 
L 440.854797 48.095198 
L 445.520984 52.434238 
L 450.187172 58.117962 
L 454.853359 46.234709 
L 459.519547 48.538565 
L 464.185735 53.491582 
L 468.851922 35.959167 
L 473.51811 54.330211 
L 478.184298 48.410227 
L 482.850485 47.122545 
L 487.516673 53.224575 
L 492.182861 57.276763 
L 496.849048 53.499731 
L 501.515236 38.993522 
L 506.181423 66.262261 
L 510.847611 52.879571 
L 515.513799 57.698814 
L 520.179986 41.869946 
L 524.846174 50.714746 
L 529.512362 47.426292 
L 534.178549 44.931684 
L 538.844737 51.535207 
L 543.510925 42.227059 
L 548.177112 63.402558 
L 552.8433 54.077417 
L 557.509487 48.752505 
L 562.175675 37.563523 
L 566.841863 53.187413 
L 571.50805 55.853248 
L 576.174238 52.375503 
L 580.840426 50.055833 
L 585.506613 42.067717 
L 590.172801 39.763447 
L 594.838989 38.274806 
L 599.505176 55.44091 
L 604.171364 36.510575 
L 608.837551 35.367682 
L 613.503739 53.371325 
L 618.169927 47.619518 
L 622.836114 57.588893 
L 627.502302 52.499668 
L 632.16849 41.89697 
L 636.834677 49.490929 
L 641.500865 53.453507 
L 646.167053 42.843783 
L 650.83324 60.410863 
L 655.499428 61.409089 
L 660.165615 50.40719 
L 664.831803 43.19228 
L 669.497991 49.010092 
L 674.164178 51.283804 
L 678.830366 56.404117 
L 683.496554 46.624488 
L 688.162741 50.013208 
L 692.828929 52.682416 
L 697.495117 47.831292 
L 702.161304 48.614585 
L 706.827492 50.490834 
L 711.493679 53.161628 
L 716.159867 52.876418 
L 720.826055 47.958449 
L 725.492242 49.172116 
L 730.15843 57.135918 
L 734.824618 49.471459 
L 739.490805 51.017886 
L 744.156993 37.123403 
L 748.823181 47.532836 
L 753.489368 49.040782 
L 758.155556 56.716208 
L 762.821743 54.754577 
L 767.487931 46.840859 
L 772.154119 59.359405 
L 776.820306 46.040745 
L 781.486494 47.737545 
L 786.152682 37.492576 
L 790.818869 63.46651 
L 795.485057 51.564661 
L 800.151245 56.599159 
L 804.817432 44.621549 
L 809.48362 52.137282 
L 814.149808 54.687795 
L 818.815995 32.863636 
L 823.482183 55.548225 
L 828.14837 45.604045 
L 832.814558 54.921961 
L 837.480746 43.1896 
L 842.146933 44.925396 
L 846.813121 61.929135 
L 851.479309 47.777632 
L 856.145496 52.15903 
L 860.811684 53.538542 
L 865.477872 40.087214 
L 870.144059 45.58724 
L 874.810247 47.739291 
L 879.476434 44.317825 
L 884.142622 39.665707 
L 888.80881 53.858267 
L 893.474997 48.709792 
L 898.141185 50.12775 
L 902.807373 40.474493 
L 907.47356 40.998889 
L 912.139748 56.561868 
L 916.805936 55.612979 
L 921.472123 46.374398 
L 926.138311 42.992957 
L 930.804498 38.378652 
L 935.470686 52.921143 
L 940.136874 52.809039 
L 944.803061 58.429526 
L 949.469249 54.487281 
L 954.135437 51.71436 
L 958.801624 52.151138 
L 963.467812 42.919958 
L 968.134 51.35242 
L 972.800187 55.841996 
L 977.466375 55.904552 
L 982.132562 40.321554 
L 986.79875 47.689795 
L 991.464938 45.078597 
L 996.131125 43.141874 
L 1000.797313 51.72232 
L 1005.463501 46.303985 
L 1010.129688 56.259541 
L 1014.795876 58.092713 
L 1019.462064 56.592216 
L 1024.128251 51.085048 
L 1028.794439 49.84037 
L 1033.460626 53.432633 
L 1038.126814 34.469929 
L 1042.793002 51.340838 
L 1047.459189 47.030362 
L 1052.125377 39.124721 
L 1056.791565 50.160711 
L 1061.457752 47.323386 
L 1066.12394 49.509407 
L 1070.790128 44.2686 
L 1075.456315 50.256157 
L 1080.122503 45.77599 
L 1084.78869 46.01146 
L 1089.454878 64.143278 
L 1094.121066 51.681529 
L 1098.787253 44.380109 
L 1103.453441 55.812057 
L 1108.119629 53.945669 
L 1112.785816 56.47469 
L 1117.452004 44.298327 
L 1122.118192 51.12892 
L 1126.784379 48.514014 
L 1131.450567 61.187329 
L 1136.116754 57.567662 
L 1140.782942 53.229086 
L 1145.44913 52.382763 
L 1150.115317 45.996085 
L 1154.781505 49.064402 
L 1159.447693 42.707675 
L 1164.11388 52.986418 
L 1168.780068 46.057812 
L 1173.446256 49.330236 
L 1178.112443 34.240515 
L 1182.778631 50.507705 
L 1187.444819 38.572887 
L 1192.111006 50.475423 
L 1196.777194 55.908623 
L 1201.443381 49.03403 
L 1206.109569 47.635345 
L 1210.775757 54.826053 
L 1215.441944 47.422218 
L 1220.108132 42.045192 
L 1224.77432 55.863354 
L 1229.440507 50.339918 
L 1234.106695 56.351855 
L 1238.772883 54.395166 
L 1243.43907 49.477741 
L 1248.105258 46.004549 
L 1252.771445 51.343705 
L 1257.437633 43.33285 
L 1262.103821 44.708377 
L 1266.770008 55.925582 
L 1271.436196 47.566389 
L 1276.102384 51.888353 
L 1280.768571 53.773426 
L 1285.434759 46.25279 
L 1290.100947 44.273341 
L 1294.767134 57.606581 
L 1299.433322 61.933136 
L 1304.099509 38.837814 
L 1308.765697 46.27995 
L 1313.431885 60.090111 
L 1318.098072 42.921706 
L 1322.76426 34.735057 
L 1327.430448 59.254391 
L 1332.096635 50.458053 
L 1336.762823 42.250033 
L 1341.429011 54.079025 
L 1346.095198 35.882133 
L 1350.761386 50.49648 
L 1355.427573 48.747923 
L 1360.093761 49.620748 
L 1364.759949 46.459225 
L 1364.759949 46.459225 
" style="fill:none;stroke:#2ca02c;stroke-linecap:square;stroke-width:1.5;"/>
   </g>
   <g id="patch_13">
    <path d="M 114.175 496.2 
L 114.175 10.8 
" style="fill:none;stroke:#000000;stroke-linecap:square;stroke-linejoin:miter;stroke-width:0.8;"/>
   </g>
   <g id="patch_14">
    <path d="M 1429.2 496.2 
L 1429.2 10.8 
" style="fill:none;stroke:#000000;stroke-linecap:square;stroke-linejoin:miter;stroke-width:0.8;"/>
   </g>
   <g id="patch_15">
    <path d="M 114.175 496.2 
L 1429.2 496.2 
" style="fill:none;stroke:#000000;stroke-linecap:square;stroke-linejoin:miter;stroke-width:0.8;"/>
   </g>
   <g id="patch_16">
    <path d="M 114.175 10.8 
L 1429.2 10.8 
" style="fill:none;stroke:#000000;stroke-linecap:square;stroke-linejoin:miter;stroke-width:0.8;"/>
   </g>
  </g>
 </g>
 <defs>
  <clipPath id="p09548ba61f">
   <rect height="485.4" width="1315.025" x="114.175" y="10.8"/>
  </clipPath>
 </defs>
</svg>
