<?xml version="1.0" encoding="utf-8" standalone="no"?>
<!DOCTYPE svg PUBLIC "-//W3C//DTD SVG 1.1//EN"
  "http://www.w3.org/Graphics/SVG/1.1/DTD/svg11.dtd">
<!-- Created with matplotlib (https://matplotlib.org/) -->
<svg height="576pt" version="1.1" viewBox="0 0 1440 576" width="1440pt" xmlns="http://www.w3.org/2000/svg" xmlns:xlink="http://www.w3.org/1999/xlink">
 <defs>
  <style type="text/css">
*{stroke-linecap:butt;stroke-linejoin:round;white-space:pre;}
  </style>
 </defs>
 <g id="figure_1">
  <g id="patch_1">
   <path d="M 0 576 
L 1440 576 
L 1440 0 
L 0 0 
z
" style="fill:#ffffff;"/>
  </g>
  <g id="axes_1">
   <g id="patch_2">
    <path d="M 114.175 496.2 
L 1429.2 496.2 
L 1429.2 10.8 
L 114.175 10.8 
z
" style="fill:#ffffff;"/>
   </g>
   <g id="patch_3">
    <path clip-path="url(#pb189b8cae1)" d="M 173.948864 496.2 
L 173.948864 10.8 
L 174.882101 10.8 
L 174.882101 496.2 
z
" style="fill:#0000ff;"/>
   </g>
   <g id="patch_4">
    <path clip-path="url(#pb189b8cae1)" d="M 178.615051 496.2 
L 178.615051 10.8 
L 179.548289 10.8 
L 179.548289 496.2 
z
" style="fill:#0000ff;"/>
   </g>
   <g id="patch_5">
    <path clip-path="url(#pb189b8cae1)" d="M 215.944552 496.2 
L 215.944552 10.8 
L 216.87779 10.8 
L 216.87779 496.2 
z
" style="fill:#0000ff;"/>
   </g>
   <g id="patch_6">
    <path clip-path="url(#pb189b8cae1)" d="M 346.597806 496.2 
L 346.597806 10.8 
L 347.531044 10.8 
L 347.531044 496.2 
z
" style="fill:#0000ff;"/>
   </g>
   <g id="patch_7">
    <path clip-path="url(#pb189b8cae1)" d="M 607.904314 496.2 
L 607.904314 10.8 
L 608.837551 10.8 
L 608.837551 496.2 
z
" style="fill:#0000ff;"/>
   </g>
   <g id="patch_8">
    <path clip-path="url(#pb189b8cae1)" d="M 934.537449 496.2 
L 934.537449 10.8 
L 935.470686 10.8 
L 935.470686 496.2 
z
" style="fill:#0000ff;"/>
   </g>
   <g id="patch_9">
    <path clip-path="url(#pb189b8cae1)" d="M 1195.843956 496.2 
L 1195.843956 10.8 
L 1196.777194 10.8 
L 1196.777194 496.2 
z
" style="fill:#0000ff;"/>
   </g>
   <g id="patch_10">
    <path clip-path="url(#pb189b8cae1)" d="M 1326.49721 496.2 
L 1326.49721 10.8 
L 1327.430448 10.8 
L 1327.430448 496.2 
z
" style="fill:#0000ff;"/>
   </g>
   <g id="patch_11">
    <path clip-path="url(#pb189b8cae1)" d="M 1363.826711 496.2 
L 1363.826711 10.8 
L 1364.759949 10.8 
L 1364.759949 496.2 
z
" style="fill:#0000ff;"/>
   </g>
   <g id="patch_12">
    <path clip-path="url(#pb189b8cae1)" d="M 1368.492899 496.2 
L 1368.492899 10.8 
L 1369.426136 10.8 
L 1369.426136 496.2 
z
" style="fill:#0000ff;"/>
   </g>
   <g id="matplotlib.axis_1">
    <g id="xtick_1">
     <g id="line2d_1">
      <defs>
       <path d="M 0 0 
L 0 3.5 
" id="m7edf953c6f" style="stroke:#000000;stroke-width:0.8;"/>
      </defs>
      <g>
       <use style="stroke:#000000;stroke-width:0.8;" x="174.882101" xlink:href="#m7edf953c6f" y="496.2"/>
      </g>
     </g>
     <g id="text_1">
      <!-- 0 -->
      <defs>
       <path d="M 31.78125 66.40625 
Q 24.171875 66.40625 20.328125 58.90625 
Q 16.5 51.421875 16.5 36.375 
Q 16.5 21.390625 20.328125 13.890625 
Q 24.171875 6.390625 31.78125 6.390625 
Q 39.453125 6.390625 43.28125 13.890625 
Q 47.125 21.390625 47.125 36.375 
Q 47.125 51.421875 43.28125 58.90625 
Q 39.453125 66.40625 31.78125 66.40625 
z
M 31.78125 74.21875 
Q 44.046875 74.21875 50.515625 64.515625 
Q 56.984375 54.828125 56.984375 36.375 
Q 56.984375 17.96875 50.515625 8.265625 
Q 44.046875 -1.421875 31.78125 -1.421875 
Q 19.53125 -1.421875 13.0625 8.265625 
Q 6.59375 17.96875 6.59375 36.375 
Q 6.59375 54.828125 13.0625 64.515625 
Q 19.53125 74.21875 31.78125 74.21875 
z
" id="DejaVuSans-48"/>
      </defs>
      <g transform="translate(165.338351 525.995312)scale(0.3 -0.3)">
       <use xlink:href="#DejaVuSans-48"/>
      </g>
     </g>
    </g>
    <g id="xtick_2">
     <g id="line2d_2">
      <g>
       <use style="stroke:#000000;stroke-width:0.8;" x="408.191483" xlink:href="#m7edf953c6f" y="496.2"/>
      </g>
     </g>
     <g id="text_2">
      <!-- 50 -->
      <defs>
       <path d="M 10.796875 72.90625 
L 49.515625 72.90625 
L 49.515625 64.59375 
L 19.828125 64.59375 
L 19.828125 46.734375 
Q 21.96875 47.46875 24.109375 47.828125 
Q 26.265625 48.1875 28.421875 48.1875 
Q 40.625 48.1875 47.75 41.5 
Q 54.890625 34.8125 54.890625 23.390625 
Q 54.890625 11.625 47.5625 5.09375 
Q 40.234375 -1.421875 26.90625 -1.421875 
Q 22.3125 -1.421875 17.546875 -0.640625 
Q 12.796875 0.140625 7.71875 1.703125 
L 7.71875 11.625 
Q 12.109375 9.234375 16.796875 8.0625 
Q 21.484375 6.890625 26.703125 6.890625 
Q 35.15625 6.890625 40.078125 11.328125 
Q 45.015625 15.765625 45.015625 23.390625 
Q 45.015625 31 40.078125 35.4375 
Q 35.15625 39.890625 26.703125 39.890625 
Q 22.75 39.890625 18.8125 39.015625 
Q 14.890625 38.140625 10.796875 36.28125 
z
" id="DejaVuSans-53"/>
      </defs>
      <g transform="translate(389.103983 525.995312)scale(0.3 -0.3)">
       <use xlink:href="#DejaVuSans-53"/>
       <use x="63.623047" xlink:href="#DejaVuSans-48"/>
      </g>
     </g>
    </g>
    <g id="xtick_3">
     <g id="line2d_3">
      <g>
       <use style="stroke:#000000;stroke-width:0.8;" x="641.500865" xlink:href="#m7edf953c6f" y="496.2"/>
      </g>
     </g>
     <g id="text_3">
      <!-- 100 -->
      <defs>
       <path d="M 12.40625 8.296875 
L 28.515625 8.296875 
L 28.515625 63.921875 
L 10.984375 60.40625 
L 10.984375 69.390625 
L 28.421875 72.90625 
L 38.28125 72.90625 
L 38.28125 8.296875 
L 54.390625 8.296875 
L 54.390625 0 
L 12.40625 0 
z
" id="DejaVuSans-49"/>
      </defs>
      <g transform="translate(612.869615 525.995312)scale(0.3 -0.3)">
       <use xlink:href="#DejaVuSans-49"/>
       <use x="63.623047" xlink:href="#DejaVuSans-48"/>
       <use x="127.246094" xlink:href="#DejaVuSans-48"/>
      </g>
     </g>
    </g>
    <g id="xtick_4">
     <g id="line2d_4">
      <g>
       <use style="stroke:#000000;stroke-width:0.8;" x="874.810247" xlink:href="#m7edf953c6f" y="496.2"/>
      </g>
     </g>
     <g id="text_4">
      <!-- 150 -->
      <g transform="translate(846.178997 525.995312)scale(0.3 -0.3)">
       <use xlink:href="#DejaVuSans-49"/>
       <use x="63.623047" xlink:href="#DejaVuSans-53"/>
       <use x="127.246094" xlink:href="#DejaVuSans-48"/>
      </g>
     </g>
    </g>
    <g id="xtick_5">
     <g id="line2d_5">
      <g>
       <use style="stroke:#000000;stroke-width:0.8;" x="1108.119629" xlink:href="#m7edf953c6f" y="496.2"/>
      </g>
     </g>
     <g id="text_5">
      <!-- 200 -->
      <defs>
       <path d="M 19.1875 8.296875 
L 53.609375 8.296875 
L 53.609375 0 
L 7.328125 0 
L 7.328125 8.296875 
Q 12.9375 14.109375 22.625 23.890625 
Q 32.328125 33.6875 34.8125 36.53125 
Q 39.546875 41.84375 41.421875 45.53125 
Q 43.3125 49.21875 43.3125 52.78125 
Q 43.3125 58.59375 39.234375 62.25 
Q 35.15625 65.921875 28.609375 65.921875 
Q 23.96875 65.921875 18.8125 64.3125 
Q 13.671875 62.703125 7.8125 59.421875 
L 7.8125 69.390625 
Q 13.765625 71.78125 18.9375 73 
Q 24.125 74.21875 28.421875 74.21875 
Q 39.75 74.21875 46.484375 68.546875 
Q 53.21875 62.890625 53.21875 53.421875 
Q 53.21875 48.921875 51.53125 44.890625 
Q 49.859375 40.875 45.40625 35.40625 
Q 44.1875 33.984375 37.640625 27.21875 
Q 31.109375 20.453125 19.1875 8.296875 
z
" id="DejaVuSans-50"/>
      </defs>
      <g transform="translate(1079.488379 525.995312)scale(0.3 -0.3)">
       <use xlink:href="#DejaVuSans-50"/>
       <use x="63.623047" xlink:href="#DejaVuSans-48"/>
       <use x="127.246094" xlink:href="#DejaVuSans-48"/>
      </g>
     </g>
    </g>
    <g id="xtick_6">
     <g id="line2d_6">
      <g>
       <use style="stroke:#000000;stroke-width:0.8;" x="1341.429011" xlink:href="#m7edf953c6f" y="496.2"/>
      </g>
     </g>
     <g id="text_6">
      <!-- 250 -->
      <g transform="translate(1312.797761 525.995312)scale(0.3 -0.3)">
       <use xlink:href="#DejaVuSans-50"/>
       <use x="63.623047" xlink:href="#DejaVuSans-53"/>
       <use x="127.246094" xlink:href="#DejaVuSans-48"/>
      </g>
     </g>
    </g>
    <g id="text_7">
     <!-- Bit Interaction -->
     <defs>
      <path d="M 19.671875 34.8125 
L 19.671875 8.109375 
L 35.5 8.109375 
Q 43.453125 8.109375 47.28125 11.40625 
Q 51.125 14.703125 51.125 21.484375 
Q 51.125 28.328125 47.28125 31.5625 
Q 43.453125 34.8125 35.5 34.8125 
z
M 19.671875 64.796875 
L 19.671875 42.828125 
L 34.28125 42.828125 
Q 41.5 42.828125 45.03125 45.53125 
Q 48.578125 48.25 48.578125 53.8125 
Q 48.578125 59.328125 45.03125 62.0625 
Q 41.5 64.796875 34.28125 64.796875 
z
M 9.8125 72.90625 
L 35.015625 72.90625 
Q 46.296875 72.90625 52.390625 68.21875 
Q 58.5 63.53125 58.5 54.890625 
Q 58.5 48.1875 55.375 44.234375 
Q 52.25 40.28125 46.1875 39.3125 
Q 53.46875 37.75 57.5 32.78125 
Q 61.53125 27.828125 61.53125 20.40625 
Q 61.53125 10.640625 54.890625 5.3125 
Q 48.25 0 35.984375 0 
L 9.8125 0 
z
" id="DejaVuSans-66"/>
      <path d="M 9.421875 54.6875 
L 18.40625 54.6875 
L 18.40625 0 
L 9.421875 0 
z
M 9.421875 75.984375 
L 18.40625 75.984375 
L 18.40625 64.59375 
L 9.421875 64.59375 
z
" id="DejaVuSans-105"/>
      <path d="M 18.3125 70.21875 
L 18.3125 54.6875 
L 36.8125 54.6875 
L 36.8125 47.703125 
L 18.3125 47.703125 
L 18.3125 18.015625 
Q 18.3125 11.328125 20.140625 9.421875 
Q 21.96875 7.515625 27.59375 7.515625 
L 36.8125 7.515625 
L 36.8125 0 
L 27.59375 0 
Q 17.1875 0 13.234375 3.875 
Q 9.28125 7.765625 9.28125 18.015625 
L 9.28125 47.703125 
L 2.6875 47.703125 
L 2.6875 54.6875 
L 9.28125 54.6875 
L 9.28125 70.21875 
z
" id="DejaVuSans-116"/>
      <path id="DejaVuSans-32"/>
      <path d="M 9.8125 72.90625 
L 19.671875 72.90625 
L 19.671875 0 
L 9.8125 0 
z
" id="DejaVuSans-73"/>
      <path d="M 54.890625 33.015625 
L 54.890625 0 
L 45.90625 0 
L 45.90625 32.71875 
Q 45.90625 40.484375 42.875 44.328125 
Q 39.84375 48.1875 33.796875 48.1875 
Q 26.515625 48.1875 22.3125 43.546875 
Q 18.109375 38.921875 18.109375 30.90625 
L 18.109375 0 
L 9.078125 0 
L 9.078125 54.6875 
L 18.109375 54.6875 
L 18.109375 46.1875 
Q 21.34375 51.125 25.703125 53.5625 
Q 30.078125 56 35.796875 56 
Q 45.21875 56 50.046875 50.171875 
Q 54.890625 44.34375 54.890625 33.015625 
z
" id="DejaVuSans-110"/>
      <path d="M 56.203125 29.59375 
L 56.203125 25.203125 
L 14.890625 25.203125 
Q 15.484375 15.921875 20.484375 11.0625 
Q 25.484375 6.203125 34.421875 6.203125 
Q 39.59375 6.203125 44.453125 7.46875 
Q 49.3125 8.734375 54.109375 11.28125 
L 54.109375 2.78125 
Q 49.265625 0.734375 44.1875 -0.34375 
Q 39.109375 -1.421875 33.890625 -1.421875 
Q 20.796875 -1.421875 13.15625 6.1875 
Q 5.515625 13.8125 5.515625 26.8125 
Q 5.515625 40.234375 12.765625 48.109375 
Q 20.015625 56 32.328125 56 
Q 43.359375 56 49.78125 48.890625 
Q 56.203125 41.796875 56.203125 29.59375 
z
M 47.21875 32.234375 
Q 47.125 39.59375 43.09375 43.984375 
Q 39.0625 48.390625 32.421875 48.390625 
Q 24.90625 48.390625 20.390625 44.140625 
Q 15.875 39.890625 15.1875 32.171875 
z
" id="DejaVuSans-101"/>
      <path d="M 41.109375 46.296875 
Q 39.59375 47.171875 37.8125 47.578125 
Q 36.03125 48 33.890625 48 
Q 26.265625 48 22.1875 43.046875 
Q 18.109375 38.09375 18.109375 28.8125 
L 18.109375 0 
L 9.078125 0 
L 9.078125 54.6875 
L 18.109375 54.6875 
L 18.109375 46.1875 
Q 20.953125 51.171875 25.484375 53.578125 
Q 30.03125 56 36.53125 56 
Q 37.453125 56 38.578125 55.875 
Q 39.703125 55.765625 41.0625 55.515625 
z
" id="DejaVuSans-114"/>
      <path d="M 34.28125 27.484375 
Q 23.390625 27.484375 19.1875 25 
Q 14.984375 22.515625 14.984375 16.5 
Q 14.984375 11.71875 18.140625 8.90625 
Q 21.296875 6.109375 26.703125 6.109375 
Q 34.1875 6.109375 38.703125 11.40625 
Q 43.21875 16.703125 43.21875 25.484375 
L 43.21875 27.484375 
z
M 52.203125 31.203125 
L 52.203125 0 
L 43.21875 0 
L 43.21875 8.296875 
Q 40.140625 3.328125 35.546875 0.953125 
Q 30.953125 -1.421875 24.3125 -1.421875 
Q 15.921875 -1.421875 10.953125 3.296875 
Q 6 8.015625 6 15.921875 
Q 6 25.140625 12.171875 29.828125 
Q 18.359375 34.515625 30.609375 34.515625 
L 43.21875 34.515625 
L 43.21875 35.40625 
Q 43.21875 41.609375 39.140625 45 
Q 35.0625 48.390625 27.6875 48.390625 
Q 23 48.390625 18.546875 47.265625 
Q 14.109375 46.140625 10.015625 43.890625 
L 10.015625 52.203125 
Q 14.9375 54.109375 19.578125 55.046875 
Q 24.21875 56 28.609375 56 
Q 40.484375 56 46.34375 49.84375 
Q 52.203125 43.703125 52.203125 31.203125 
z
" id="DejaVuSans-97"/>
      <path d="M 48.78125 52.59375 
L 48.78125 44.1875 
Q 44.96875 46.296875 41.140625 47.34375 
Q 37.3125 48.390625 33.40625 48.390625 
Q 24.65625 48.390625 19.8125 42.84375 
Q 14.984375 37.3125 14.984375 27.296875 
Q 14.984375 17.28125 19.8125 11.734375 
Q 24.65625 6.203125 33.40625 6.203125 
Q 37.3125 6.203125 41.140625 7.25 
Q 44.96875 8.296875 48.78125 10.40625 
L 48.78125 2.09375 
Q 45.015625 0.34375 40.984375 -0.53125 
Q 36.96875 -1.421875 32.421875 -1.421875 
Q 20.0625 -1.421875 12.78125 6.34375 
Q 5.515625 14.109375 5.515625 27.296875 
Q 5.515625 40.671875 12.859375 48.328125 
Q 20.21875 56 33.015625 56 
Q 37.15625 56 41.109375 55.140625 
Q 45.0625 54.296875 48.78125 52.59375 
z
" id="DejaVuSans-99"/>
      <path d="M 30.609375 48.390625 
Q 23.390625 48.390625 19.1875 42.75 
Q 14.984375 37.109375 14.984375 27.296875 
Q 14.984375 17.484375 19.15625 11.84375 
Q 23.34375 6.203125 30.609375 6.203125 
Q 37.796875 6.203125 41.984375 11.859375 
Q 46.1875 17.53125 46.1875 27.296875 
Q 46.1875 37.015625 41.984375 42.703125 
Q 37.796875 48.390625 30.609375 48.390625 
z
M 30.609375 56 
Q 42.328125 56 49.015625 48.375 
Q 55.71875 40.765625 55.71875 27.296875 
Q 55.71875 13.875 49.015625 6.21875 
Q 42.328125 -1.421875 30.609375 -1.421875 
Q 18.84375 -1.421875 12.171875 6.21875 
Q 5.515625 13.875 5.515625 27.296875 
Q 5.515625 40.765625 12.171875 48.375 
Q 18.84375 56 30.609375 56 
z
" id="DejaVuSans-111"/>
     </defs>
     <g transform="translate(665.201563 559.029688)scale(0.3 -0.3)">
      <use xlink:href="#DejaVuSans-66"/>
      <use x="68.603516" xlink:href="#DejaVuSans-105"/>
      <use x="96.386719" xlink:href="#DejaVuSans-116"/>
      <use x="135.595703" xlink:href="#DejaVuSans-32"/>
      <use x="167.382812" xlink:href="#DejaVuSans-73"/>
      <use x="196.875" xlink:href="#DejaVuSans-110"/>
      <use x="260.253906" xlink:href="#DejaVuSans-116"/>
      <use x="299.462891" xlink:href="#DejaVuSans-101"/>
      <use x="360.986328" xlink:href="#DejaVuSans-114"/>
      <use x="402.099609" xlink:href="#DejaVuSans-97"/>
      <use x="463.378906" xlink:href="#DejaVuSans-99"/>
      <use x="518.359375" xlink:href="#DejaVuSans-116"/>
      <use x="557.568359" xlink:href="#DejaVuSans-105"/>
      <use x="585.351562" xlink:href="#DejaVuSans-111"/>
      <use x="646.533203" xlink:href="#DejaVuSans-110"/>
     </g>
    </g>
   </g>
   <g id="matplotlib.axis_2">
    <g id="ytick_1">
     <g id="line2d_7">
      <defs>
       <path d="M 0 0 
L -3.5 0 
" id="md7002208ac" style="stroke:#000000;stroke-width:0.8;"/>
      </defs>
      <g>
       <use style="stroke:#000000;stroke-width:0.8;" x="114.175" xlink:href="#md7002208ac" y="485.86351"/>
      </g>
     </g>
     <g id="text_8">
      <!-- −14 -->
      <defs>
       <path d="M 10.59375 35.5 
L 73.1875 35.5 
L 73.1875 27.203125 
L 10.59375 27.203125 
z
" id="DejaVuSans-8722"/>
       <path d="M 37.796875 64.3125 
L 12.890625 25.390625 
L 37.796875 25.390625 
z
M 35.203125 72.90625 
L 47.609375 72.90625 
L 47.609375 25.390625 
L 58.015625 25.390625 
L 58.015625 17.1875 
L 47.609375 17.1875 
L 47.609375 0 
L 37.796875 0 
L 37.796875 17.1875 
L 4.890625 17.1875 
L 4.890625 26.703125 
z
" id="DejaVuSans-52"/>
      </defs>
      <g transform="translate(43.860937 497.261166)scale(0.3 -0.3)">
       <use xlink:href="#DejaVuSans-8722"/>
       <use x="83.789062" xlink:href="#DejaVuSans-49"/>
       <use x="147.412109" xlink:href="#DejaVuSans-52"/>
      </g>
     </g>
    </g>
    <g id="ytick_2">
     <g id="line2d_8">
      <g>
       <use style="stroke:#000000;stroke-width:0.8;" x="114.175" xlink:href="#md7002208ac" y="424.623682"/>
      </g>
     </g>
     <g id="text_9">
      <!-- −12 -->
      <g transform="translate(43.860937 436.021338)scale(0.3 -0.3)">
       <use xlink:href="#DejaVuSans-8722"/>
       <use x="83.789062" xlink:href="#DejaVuSans-49"/>
       <use x="147.412109" xlink:href="#DejaVuSans-50"/>
      </g>
     </g>
    </g>
    <g id="ytick_3">
     <g id="line2d_9">
      <g>
       <use style="stroke:#000000;stroke-width:0.8;" x="114.175" xlink:href="#md7002208ac" y="363.383853"/>
      </g>
     </g>
     <g id="text_10">
      <!-- −10 -->
      <g transform="translate(43.860937 374.781509)scale(0.3 -0.3)">
       <use xlink:href="#DejaVuSans-8722"/>
       <use x="83.789062" xlink:href="#DejaVuSans-49"/>
       <use x="147.412109" xlink:href="#DejaVuSans-48"/>
      </g>
     </g>
    </g>
    <g id="ytick_4">
     <g id="line2d_10">
      <g>
       <use style="stroke:#000000;stroke-width:0.8;" x="114.175" xlink:href="#md7002208ac" y="302.144024"/>
      </g>
     </g>
     <g id="text_11">
      <!-- −8 -->
      <defs>
       <path d="M 31.78125 34.625 
Q 24.75 34.625 20.71875 30.859375 
Q 16.703125 27.09375 16.703125 20.515625 
Q 16.703125 13.921875 20.71875 10.15625 
Q 24.75 6.390625 31.78125 6.390625 
Q 38.8125 6.390625 42.859375 10.171875 
Q 46.921875 13.96875 46.921875 20.515625 
Q 46.921875 27.09375 42.890625 30.859375 
Q 38.875 34.625 31.78125 34.625 
z
M 21.921875 38.8125 
Q 15.578125 40.375 12.03125 44.71875 
Q 8.5 49.078125 8.5 55.328125 
Q 8.5 64.0625 14.71875 69.140625 
Q 20.953125 74.21875 31.78125 74.21875 
Q 42.671875 74.21875 48.875 69.140625 
Q 55.078125 64.0625 55.078125 55.328125 
Q 55.078125 49.078125 51.53125 44.71875 
Q 48 40.375 41.703125 38.8125 
Q 48.828125 37.15625 52.796875 32.3125 
Q 56.78125 27.484375 56.78125 20.515625 
Q 56.78125 9.90625 50.3125 4.234375 
Q 43.84375 -1.421875 31.78125 -1.421875 
Q 19.734375 -1.421875 13.25 4.234375 
Q 6.78125 9.90625 6.78125 20.515625 
Q 6.78125 27.484375 10.78125 32.3125 
Q 14.796875 37.15625 21.921875 38.8125 
z
M 18.3125 54.390625 
Q 18.3125 48.734375 21.84375 45.5625 
Q 25.390625 42.390625 31.78125 42.390625 
Q 38.140625 42.390625 41.71875 45.5625 
Q 45.3125 48.734375 45.3125 54.390625 
Q 45.3125 60.0625 41.71875 63.234375 
Q 38.140625 66.40625 31.78125 66.40625 
Q 25.390625 66.40625 21.84375 63.234375 
Q 18.3125 60.0625 18.3125 54.390625 
z
" id="DejaVuSans-56"/>
      </defs>
      <g transform="translate(62.948437 313.541681)scale(0.3 -0.3)">
       <use xlink:href="#DejaVuSans-8722"/>
       <use x="83.789062" xlink:href="#DejaVuSans-56"/>
      </g>
     </g>
    </g>
    <g id="ytick_5">
     <g id="line2d_11">
      <g>
       <use style="stroke:#000000;stroke-width:0.8;" x="114.175" xlink:href="#md7002208ac" y="240.904196"/>
      </g>
     </g>
     <g id="text_12">
      <!-- −6 -->
      <defs>
       <path d="M 33.015625 40.375 
Q 26.375 40.375 22.484375 35.828125 
Q 18.609375 31.296875 18.609375 23.390625 
Q 18.609375 15.53125 22.484375 10.953125 
Q 26.375 6.390625 33.015625 6.390625 
Q 39.65625 6.390625 43.53125 10.953125 
Q 47.40625 15.53125 47.40625 23.390625 
Q 47.40625 31.296875 43.53125 35.828125 
Q 39.65625 40.375 33.015625 40.375 
z
M 52.59375 71.296875 
L 52.59375 62.3125 
Q 48.875 64.0625 45.09375 64.984375 
Q 41.3125 65.921875 37.59375 65.921875 
Q 27.828125 65.921875 22.671875 59.328125 
Q 17.53125 52.734375 16.796875 39.40625 
Q 19.671875 43.65625 24.015625 45.921875 
Q 28.375 48.1875 33.59375 48.1875 
Q 44.578125 48.1875 50.953125 41.515625 
Q 57.328125 34.859375 57.328125 23.390625 
Q 57.328125 12.15625 50.6875 5.359375 
Q 44.046875 -1.421875 33.015625 -1.421875 
Q 20.359375 -1.421875 13.671875 8.265625 
Q 6.984375 17.96875 6.984375 36.375 
Q 6.984375 53.65625 15.1875 63.9375 
Q 23.390625 74.21875 37.203125 74.21875 
Q 40.921875 74.21875 44.703125 73.484375 
Q 48.484375 72.75 52.59375 71.296875 
z
" id="DejaVuSans-54"/>
      </defs>
      <g transform="translate(62.948437 252.301852)scale(0.3 -0.3)">
       <use xlink:href="#DejaVuSans-8722"/>
       <use x="83.789062" xlink:href="#DejaVuSans-54"/>
      </g>
     </g>
    </g>
    <g id="ytick_6">
     <g id="line2d_12">
      <g>
       <use style="stroke:#000000;stroke-width:0.8;" x="114.175" xlink:href="#md7002208ac" y="179.664367"/>
      </g>
     </g>
     <g id="text_13">
      <!-- −4 -->
      <g transform="translate(62.948437 191.062023)scale(0.3 -0.3)">
       <use xlink:href="#DejaVuSans-8722"/>
       <use x="83.789062" xlink:href="#DejaVuSans-52"/>
      </g>
     </g>
    </g>
    <g id="ytick_7">
     <g id="line2d_13">
      <g>
       <use style="stroke:#000000;stroke-width:0.8;" x="114.175" xlink:href="#md7002208ac" y="118.424539"/>
      </g>
     </g>
     <g id="text_14">
      <!-- −2 -->
      <g transform="translate(62.948437 129.822195)scale(0.3 -0.3)">
       <use xlink:href="#DejaVuSans-8722"/>
       <use x="83.789062" xlink:href="#DejaVuSans-50"/>
      </g>
     </g>
    </g>
    <g id="ytick_8">
     <g id="line2d_14">
      <g>
       <use style="stroke:#000000;stroke-width:0.8;" x="114.175" xlink:href="#md7002208ac" y="57.18471"/>
      </g>
     </g>
     <g id="text_15">
      <!-- 0 -->
      <g transform="translate(88.0875 68.582366)scale(0.3 -0.3)">
       <use xlink:href="#DejaVuSans-48"/>
      </g>
     </g>
    </g>
    <g id="text_16">
     <!-- Weight Value -->
     <defs>
      <path d="M 3.328125 72.90625 
L 13.28125 72.90625 
L 28.609375 11.28125 
L 43.890625 72.90625 
L 54.984375 72.90625 
L 70.3125 11.28125 
L 85.59375 72.90625 
L 95.609375 72.90625 
L 77.296875 0 
L 64.890625 0 
L 49.515625 63.28125 
L 33.984375 0 
L 21.578125 0 
z
" id="DejaVuSans-87"/>
      <path d="M 45.40625 27.984375 
Q 45.40625 37.75 41.375 43.109375 
Q 37.359375 48.484375 30.078125 48.484375 
Q 22.859375 48.484375 18.828125 43.109375 
Q 14.796875 37.75 14.796875 27.984375 
Q 14.796875 18.265625 18.828125 12.890625 
Q 22.859375 7.515625 30.078125 7.515625 
Q 37.359375 7.515625 41.375 12.890625 
Q 45.40625 18.265625 45.40625 27.984375 
z
M 54.390625 6.78125 
Q 54.390625 -7.171875 48.1875 -13.984375 
Q 42 -20.796875 29.203125 -20.796875 
Q 24.46875 -20.796875 20.265625 -20.09375 
Q 16.0625 -19.390625 12.109375 -17.921875 
L 12.109375 -9.1875 
Q 16.0625 -11.328125 19.921875 -12.34375 
Q 23.78125 -13.375 27.78125 -13.375 
Q 36.625 -13.375 41.015625 -8.765625 
Q 45.40625 -4.15625 45.40625 5.171875 
L 45.40625 9.625 
Q 42.625 4.78125 38.28125 2.390625 
Q 33.9375 0 27.875 0 
Q 17.828125 0 11.671875 7.65625 
Q 5.515625 15.328125 5.515625 27.984375 
Q 5.515625 40.671875 11.671875 48.328125 
Q 17.828125 56 27.875 56 
Q 33.9375 56 38.28125 53.609375 
Q 42.625 51.21875 45.40625 46.390625 
L 45.40625 54.6875 
L 54.390625 54.6875 
z
" id="DejaVuSans-103"/>
      <path d="M 54.890625 33.015625 
L 54.890625 0 
L 45.90625 0 
L 45.90625 32.71875 
Q 45.90625 40.484375 42.875 44.328125 
Q 39.84375 48.1875 33.796875 48.1875 
Q 26.515625 48.1875 22.3125 43.546875 
Q 18.109375 38.921875 18.109375 30.90625 
L 18.109375 0 
L 9.078125 0 
L 9.078125 75.984375 
L 18.109375 75.984375 
L 18.109375 46.1875 
Q 21.34375 51.125 25.703125 53.5625 
Q 30.078125 56 35.796875 56 
Q 45.21875 56 50.046875 50.171875 
Q 54.890625 44.34375 54.890625 33.015625 
z
" id="DejaVuSans-104"/>
      <path d="M 28.609375 0 
L 0.78125 72.90625 
L 11.078125 72.90625 
L 34.1875 11.53125 
L 57.328125 72.90625 
L 67.578125 72.90625 
L 39.796875 0 
z
" id="DejaVuSans-86"/>
      <path d="M 9.421875 75.984375 
L 18.40625 75.984375 
L 18.40625 0 
L 9.421875 0 
z
" id="DejaVuSans-108"/>
      <path d="M 8.5 21.578125 
L 8.5 54.6875 
L 17.484375 54.6875 
L 17.484375 21.921875 
Q 17.484375 14.15625 20.5 10.265625 
Q 23.53125 6.390625 29.59375 6.390625 
Q 36.859375 6.390625 41.078125 11.03125 
Q 45.3125 15.671875 45.3125 23.6875 
L 45.3125 54.6875 
L 54.296875 54.6875 
L 54.296875 0 
L 45.3125 0 
L 45.3125 8.40625 
Q 42.046875 3.421875 37.71875 1 
Q 33.40625 -1.421875 27.6875 -1.421875 
Q 18.265625 -1.421875 13.375 4.4375 
Q 8.5 10.296875 8.5 21.578125 
z
M 31.109375 56 
z
" id="DejaVuSans-117"/>
     </defs>
     <g transform="translate(33.621875 353.732813)rotate(-90)scale(0.3 -0.3)">
      <use xlink:href="#DejaVuSans-87"/>
      <use x="98.798828" xlink:href="#DejaVuSans-101"/>
      <use x="160.322266" xlink:href="#DejaVuSans-105"/>
      <use x="188.105469" xlink:href="#DejaVuSans-103"/>
      <use x="251.582031" xlink:href="#DejaVuSans-104"/>
      <use x="314.960938" xlink:href="#DejaVuSans-116"/>
      <use x="354.169922" xlink:href="#DejaVuSans-32"/>
      <use x="385.957031" xlink:href="#DejaVuSans-86"/>
      <use x="454.255859" xlink:href="#DejaVuSans-97"/>
      <use x="515.535156" xlink:href="#DejaVuSans-108"/>
      <use x="543.318359" xlink:href="#DejaVuSans-117"/>
      <use x="606.697266" xlink:href="#DejaVuSans-101"/>
     </g>
    </g>
   </g>
   <g id="line2d_15">
    <path clip-path="url(#pb189b8cae1)" d="M 174.882101 57.865461 
L 179.548289 75.264406 
L 184.214476 47.625277 
L 188.880664 66.337755 
L 193.546852 50.266513 
L 198.213039 60.467622 
L 202.879227 63.63975 
L 207.545415 50.742631 
L 212.211602 61.091106 
L 216.87779 52.748722 
L 221.543978 58.330445 
L 226.210165 62.23972 
L 230.876353 53.13277 
L 235.54254 58.71772 
L 240.208728 50.923651 
L 244.874916 49.412853 
L 249.541103 52.51444 
L 254.207291 60.525802 
L 258.873479 61.533876 
L 263.539666 65.96747 
L 268.205854 54.877436 
L 272.872042 61.605356 
L 277.538229 57.922188 
L 282.204417 58.07467 
L 286.870604 49.359212 
L 291.536792 63.945406 
L 296.20298 61.193247 
L 300.869167 50.240146 
L 305.535355 65.88911 
L 310.201543 50.515877 
L 314.86773 54.545532 
L 319.533918 52.566241 
L 324.200106 51.876273 
L 328.866293 55.6118 
L 333.532481 57.969272 
L 338.198668 55.543411 
L 342.864856 62.805369 
L 347.531044 61.067389 
L 352.197231 56.675961 
L 356.863419 66.420431 
L 361.529607 59.987141 
L 366.195794 50.785831 
L 370.861982 58.543375 
L 375.52817 52.649862 
L 380.194357 68.99934 
L 384.860545 57.369015 
L 389.526732 50.601888 
L 394.19292 63.719865 
L 398.859108 55.173237 
L 403.525295 57.637495 
L 408.191483 61.831558 
L 412.857671 58.68478 
L 417.523858 57.089679 
L 422.190046 60.254433 
L 426.856234 62.439814 
L 431.522421 58.977623 
L 436.188609 49.23633 
L 440.854797 61.031562 
L 445.520984 60.805393 
L 450.187172 44.828359 
L 454.853359 58.317167 
L 459.519547 48.990929 
L 464.185735 58.084019 
L 468.851922 63.720257 
L 473.51811 65.748402 
L 478.184298 57.94607 
L 482.850485 58.396513 
L 487.516673 44.850467 
L 492.182861 57.653913 
L 496.849048 59.00754 
L 501.515236 67.341359 
L 506.181423 58.995548 
L 510.847611 68.295674 
L 515.513799 63.913649 
L 520.179986 55.292319 
L 524.846174 60.493227 
L 529.512362 61.630552 
L 534.178549 56.405884 
L 538.844737 47.831871 
L 543.510925 65.207976 
L 548.177112 50.097446 
L 552.8433 60.663466 
L 557.509487 56.159196 
L 562.175675 43.356491 
L 566.841863 75.925017 
L 571.50805 56.695015 
L 576.174238 50.99443 
L 580.840426 67.017258 
L 585.506613 54.702716 
L 590.172801 41.878902 
L 594.838989 45.407237 
L 599.505176 42.059272 
L 604.171364 52.168722 
L 608.837551 57.255798 
L 613.503739 63.318551 
L 618.169927 56.412739 
L 622.836114 57.230454 
L 627.502302 41.811298 
L 632.16849 50.127039 
L 636.834677 71.174235 
L 641.500865 59.077023 
L 646.167053 39.812952 
L 650.83324 62.707234 
L 655.499428 56.66478 
L 660.165615 51.032814 
L 664.831803 55.003875 
L 669.497991 54.230184 
L 674.164178 45.29412 
L 678.830366 54.535877 
L 683.496554 54.401991 
L 688.162741 48.311045 
L 692.828929 50.041448 
L 697.495117 52.588358 
L 702.161304 57.236072 
L 706.827492 53.148016 
L 711.493679 66.410648 
L 716.159867 56.981972 
L 720.826055 53.769656 
L 725.492242 53.672358 
L 730.15843 61.762172 
L 734.824618 52.576488 
L 739.490805 56.135808 
L 744.156993 48.039688 
L 748.823181 58.574943 
L 753.489368 54.273997 
L 758.155556 72.423486 
L 762.821743 55.988734 
L 767.487931 59.155844 
L 772.154119 60.505396 
L 776.820306 68.288307 
L 781.486494 56.053925 
L 786.152682 57.989547 
L 790.818869 45.21261 
L 795.485057 55.532453 
L 800.151245 56.931895 
L 804.817432 53.97909 
L 809.48362 62.825402 
L 814.149808 51.658769 
L 818.815995 61.417701 
L 823.482183 59.822648 
L 828.14837 53.905982 
L 832.814558 56.687633 
L 837.480746 52.401642 
L 842.146933 59.453842 
L 846.813121 50.717071 
L 851.479309 57.885948 
L 856.145496 56.329825 
L 860.811684 51.144053 
L 865.477872 59.476739 
L 870.144059 55.75188 
L 874.810247 66.574147 
L 879.476434 52.679953 
L 884.142622 64.825434 
L 888.80881 63.431675 
L 893.474997 49.855059 
L 898.141185 57.354128 
L 902.807373 65.24657 
L 907.47356 49.88701 
L 912.139748 48.31347 
L 916.805936 49.528814 
L 921.472123 54.568179 
L 926.138311 59.925242 
L 930.804498 57.382822 
L 935.470686 56.93794 
L 940.136874 57.655518 
L 944.803061 58.656372 
L 949.469249 57.853498 
L 954.135437 39.019217 
L 958.801624 60.721382 
L 963.467812 48.198523 
L 968.134 58.910264 
L 972.800187 57.980436 
L 977.466375 51.533563 
L 982.132562 60.55272 
L 986.79875 54.681924 
L 991.464938 57.907229 
L 996.131125 59.700681 
L 1000.797313 57.224929 
L 1005.463501 59.231541 
L 1010.129688 59.59804 
L 1014.795876 61.972289 
L 1019.462064 59.10282 
L 1024.128251 53.780643 
L 1028.794439 61.377579 
L 1033.460626 53.565206 
L 1038.126814 60.495992 
L 1042.793002 46.573658 
L 1047.459189 56.606368 
L 1052.125377 69.486898 
L 1056.791565 50.690742 
L 1061.457752 65.971709 
L 1066.12394 58.5092 
L 1070.790128 63.502102 
L 1075.456315 58.213928 
L 1080.122503 61.700305 
L 1084.78869 68.49633 
L 1089.454878 59.630525 
L 1094.121066 53.630723 
L 1103.453441 59.828384 
L 1108.119629 48.629194 
L 1112.785816 61.605618 
L 1117.452004 63.28883 
L 1122.118192 57.780754 
L 1126.784379 60.6929 
L 1131.450567 37.806273 
L 1136.116754 62.026657 
L 1140.782942 48.215704 
L 1145.44913 63.78268 
L 1150.115317 58.225776 
L 1154.781505 51.249586 
L 1159.447693 61.579401 
L 1164.11388 58.664842 
L 1168.780068 61.328986 
L 1173.446256 58.07415 
L 1178.112443 58.846413 
L 1182.778631 67.849915 
L 1187.444819 63.053195 
L 1192.111006 56.689148 
L 1196.777194 56.879597 
L 1201.443381 63.538383 
L 1206.109569 55.028951 
L 1210.775757 58.066358 
L 1215.441944 51.461943 
L 1220.108132 56.247975 
L 1224.77432 46.406568 
L 1229.440507 59.727457 
L 1238.772883 64.200421 
L 1243.43907 51.226134 
L 1248.105258 61.485304 
L 1252.771445 53.425607 
L 1257.437633 62.280386 
L 1262.103821 43.758022 
L 1266.770008 62.783238 
L 1271.436196 57.765134 
L 1276.102384 63.91188 
L 1280.768571 64.353356 
L 1285.434759 66.364098 
L 1290.100947 63.352042 
L 1294.767134 55.961174 
L 1299.433322 53.159873 
L 1304.099509 63.36559 
L 1308.765697 65.263416 
L 1313.431885 64.612232 
L 1318.098072 60.326203 
L 1322.76426 59.728317 
L 1327.430448 59.003481 
L 1332.096635 66.333538 
L 1336.762823 54.311238 
L 1341.429011 59.57495 
L 1346.095198 60.639414 
L 1350.761386 47.904547 
L 1355.427573 62.925401 
L 1360.093761 67.802248 
L 1364.759949 59.293128 
L 1364.759949 59.293128 
" style="fill:none;stroke:#1f77b4;stroke-linecap:square;stroke-width:1.5;"/>
   </g>
   <g id="line2d_16">
    <path clip-path="url(#pb189b8cae1)" d="M 174.882101 60.237625 
L 179.548289 48.676733 
L 184.214476 56.572487 
L 188.880664 66.634116 
L 193.546852 474.136364 
L 198.213039 58.989172 
L 202.879227 45.81144 
L 207.545415 270.714559 
L 212.211602 52.047875 
L 216.87779 55.783769 
L 221.543978 54.086905 
L 226.210165 59.577694 
L 230.876353 55.369318 
L 235.54254 52.661565 
L 240.208728 64.105435 
L 244.874916 46.390674 
L 249.541103 63.183675 
L 254.207291 52.560155 
L 258.873479 78.077722 
L 263.539666 68.956322 
L 268.205854 61.511086 
L 272.872042 55.016933 
L 277.538229 65.141527 
L 282.204417 57.931624 
L 286.870604 57.506289 
L 291.536792 54.76514 
L 296.20298 59.280844 
L 300.869167 47.645115 
L 305.535355 68.300551 
L 310.201543 60.855269 
L 314.86773 70.191395 
L 319.533918 59.349736 
L 324.200106 52.184892 
L 328.866293 61.338269 
L 333.532481 51.625807 
L 338.198668 48.503449 
L 342.864856 71.047242 
L 347.531044 47.4883 
L 352.197231 64.346879 
L 356.863419 58.652763 
L 361.529607 55.167055 
L 366.195794 70.586055 
L 370.861982 44.544063 
L 375.52817 54.358009 
L 380.194357 70.908615 
L 384.860545 64.149262 
L 389.526732 65.126419 
L 394.19292 54.786123 
L 398.859108 58.704089 
L 403.525295 49.266409 
L 408.191483 60.882589 
L 412.857671 54.577314 
L 417.523858 53.723512 
L 422.190046 59.9902 
L 426.856234 57.384807 
L 431.522421 53.998138 
L 436.188609 50.299807 
L 440.854797 57.447317 
L 445.520984 55.164512 
L 450.187172 47.889047 
L 454.853359 62.092574 
L 459.519547 60.370568 
L 464.185735 49.41105 
L 468.851922 56.710455 
L 473.51811 57.937169 
L 478.184298 56.442688 
L 482.850485 61.849527 
L 487.516673 65.759072 
L 492.182861 49.757832 
L 496.849048 55.077528 
L 501.515236 54.76913 
L 506.181423 55.44867 
L 510.847611 57.034083 
L 515.513799 57.940587 
L 520.179986 50.668496 
L 524.846174 59.571682 
L 529.512362 67.265119 
L 534.178549 54.172861 
L 538.844737 55.279785 
L 543.510925 62.571538 
L 548.177112 49.489292 
L 552.8433 49.901066 
L 557.509487 65.638914 
L 562.175675 64.020611 
L 566.841863 53.994377 
L 571.50805 59.073657 
L 576.174238 51.358865 
L 580.840426 69.932248 
L 585.506613 46.307485 
L 590.172801 51.704216 
L 594.838989 50.497728 
L 599.505176 63.120263 
L 604.171364 66.669182 
L 608.837551 62.458764 
L 613.503739 63.182607 
L 618.169927 54.57823 
L 622.836114 64.356312 
L 627.502302 75.676022 
L 632.16849 60.858936 
L 636.834677 52.63273 
L 641.500865 56.542413 
L 646.167053 47.388168 
L 650.83324 59.099429 
L 655.499428 51.07876 
L 660.165615 60.626501 
L 664.831803 57.034501 
L 669.497991 67.546343 
L 674.164178 67.634412 
L 678.830366 59.258793 
L 683.496554 48.763767 
L 688.162741 43.498831 
L 692.828929 63.131349 
L 697.495117 48.041962 
L 702.161304 63.756816 
L 706.827492 51.145878 
L 711.493679 48.131738 
L 716.159867 54.674137 
L 720.826055 57.759891 
L 725.492242 50.468293 
L 730.15843 53.239768 
L 734.824618 61.421753 
L 739.490805 57.510325 
L 744.156993 70.069241 
L 748.823181 60.771971 
L 753.489368 57.180781 
L 758.155556 61.431413 
L 762.821743 49.756746 
L 767.487931 56.154077 
L 772.154119 63.31429 
L 776.820306 62.017801 
L 781.486494 62.558514 
L 786.152682 50.210164 
L 790.818869 62.116159 
L 795.485057 57.022416 
L 800.151245 53.08282 
L 804.817432 67.351056 
L 809.48362 63.238237 
L 814.149808 49.238376 
L 818.815995 58.139083 
L 823.482183 52.843704 
L 828.14837 58.537132 
L 832.814558 60.37019 
L 837.480746 60.040824 
L 842.146933 57.606551 
L 846.813121 57.61039 
L 851.479309 57.08634 
L 856.145496 54.29162 
L 860.811684 59.402235 
L 865.477872 48.436429 
L 870.144059 69.640819 
L 874.810247 56.667811 
L 879.476434 55.087446 
L 884.142622 65.491235 
L 888.80881 52.964526 
L 893.474997 65.45966 
L 898.141185 54.529584 
L 902.807373 60.339551 
L 907.47356 63.855262 
L 912.139748 53.669562 
L 916.805936 46.909865 
L 921.472123 70.284142 
L 926.138311 56.196531 
L 930.804498 52.281623 
L 935.470686 54.119533 
L 940.136874 69.299193 
L 944.803061 63.975189 
L 949.469249 43.204174 
L 954.135437 52.933965 
L 958.801624 43.957376 
L 963.467812 56.792695 
L 968.134 61.390909 
L 972.800187 50.289533 
L 977.466375 50.727124 
L 982.132562 63.195611 
L 986.79875 63.60324 
L 991.464938 50.999218 
L 996.131125 46.942363 
L 1000.797313 53.017518 
L 1005.463501 65.897719 
L 1010.129688 59.228307 
L 1014.795876 57.344081 
L 1019.462064 56.471268 
L 1024.128251 66.216715 
L 1028.794439 53.367099 
L 1033.460626 63.082454 
L 1038.126814 57.909592 
L 1042.793002 56.318058 
L 1047.459189 66.260206 
L 1052.125377 56.305361 
L 1056.791565 62.24519 
L 1061.457752 62.736675 
L 1066.12394 53.871357 
L 1070.790128 32.863636 
L 1075.456315 55.447069 
L 1080.122503 49.556944 
L 1084.78869 58.290442 
L 1089.454878 71.116212 
L 1094.121066 53.950286 
L 1098.787253 62.392174 
L 1103.453441 57.959065 
L 1108.119629 60.917878 
L 1112.785816 54.368859 
L 1117.452004 68.269439 
L 1122.118192 56.904002 
L 1126.784379 54.468932 
L 1131.450567 56.083112 
L 1136.116754 60.127808 
L 1140.782942 61.650034 
L 1145.44913 57.545773 
L 1150.115317 51.309103 
L 1154.781505 58.738682 
L 1159.447693 52.821556 
L 1164.11388 66.934844 
L 1168.780068 62.95236 
L 1173.446256 52.315086 
L 1178.112443 59.396112 
L 1182.778631 53.733826 
L 1187.444819 68.076141 
L 1192.111006 57.714872 
L 1196.777194 53.164762 
L 1201.443381 46.708684 
L 1206.109569 56.753149 
L 1210.775757 51.730806 
L 1215.441944 64.267696 
L 1220.108132 56.709493 
L 1224.77432 60.831829 
L 1229.440507 58.393779 
L 1234.106695 60.496003 
L 1238.772883 66.16507 
L 1243.43907 54.024255 
L 1248.105258 66.502095 
L 1252.771445 61.482869 
L 1257.437633 60.443209 
L 1262.103821 53.383049 
L 1266.770008 66.963914 
L 1271.436196 46.407248 
L 1276.102384 61.417658 
L 1280.768571 60.977152 
L 1285.434759 44.031745 
L 1290.100947 59.546031 
L 1294.767134 62.005936 
L 1299.433322 47.028596 
L 1304.099509 63.542225 
L 1308.765697 45.979513 
L 1313.431885 50.310633 
L 1318.098072 58.764813 
L 1322.76426 57.251724 
L 1327.430448 52.819738 
L 1332.096635 46.4247 
L 1336.762823 57.338157 
L 1341.429011 61.623985 
L 1346.095198 57.049828 
L 1350.761386 50.846508 
L 1355.427573 54.107601 
L 1360.093761 66.048805 
L 1364.759949 62.33555 
L 1364.759949 62.33555 
" style="fill:none;stroke:#ff7f0e;stroke-linecap:square;stroke-width:1.5;"/>
   </g>
   <g id="line2d_17">
    <path clip-path="url(#pb189b8cae1)" d="M 174.882101 59.630394 
L 179.548289 57.003345 
L 184.214476 54.102995 
L 188.880664 53.462257 
L 193.546852 55.585102 
L 198.213039 61.92871 
L 202.879227 58.769066 
L 207.545415 53.267642 
L 212.211602 54.957744 
L 216.87779 60.375849 
L 221.543978 60.486545 
L 226.210165 54.33558 
L 230.876353 59.554947 
L 235.54254 62.546438 
L 240.208728 60.581083 
L 244.874916 51.237648 
L 249.541103 51.049763 
L 254.207291 53.559129 
L 258.873479 64.492326 
L 263.539666 47.317024 
L 268.205854 53.765154 
L 272.872042 81.653649 
L 277.538229 58.375984 
L 282.204417 62.413892 
L 286.870604 56.852284 
L 291.536792 54.728757 
L 300.869167 66.279448 
L 305.535355 57.660853 
L 310.201543 65.11505 
L 314.86773 62.285157 
L 319.533918 52.458161 
L 324.200106 52.277282 
L 328.866293 63.03879 
L 333.532481 45.57126 
L 338.198668 55.124564 
L 342.864856 56.342143 
L 347.531044 56.885931 
L 352.197231 51.929532 
L 356.863419 43.078221 
L 361.529607 58.544834 
L 366.195794 60.030259 
L 370.861982 59.960914 
L 375.52817 58.20684 
L 380.194357 62.889731 
L 384.860545 56.980658 
L 389.526732 63.757238 
L 394.19292 47.96982 
L 398.859108 52.235714 
L 403.525295 51.814002 
L 408.191483 53.013613 
L 412.857671 68.724544 
L 417.523858 56.634129 
L 422.190046 56.376254 
L 426.856234 68.33569 
L 431.522421 50.073677 
L 436.188609 52.081958 
L 440.854797 53.596403 
L 445.520984 57.7687 
L 450.187172 49.089146 
L 454.853359 62.21922 
L 459.519547 52.629951 
L 464.185735 70.054494 
L 468.851922 50.747408 
L 473.51811 54.913555 
L 478.184298 62.298592 
L 482.850485 53.428696 
L 487.516673 63.715243 
L 492.182861 61.405384 
L 496.849048 58.843416 
L 501.515236 46.404421 
L 506.181423 65.908715 
L 510.847611 62.056785 
L 515.513799 56.551314 
L 520.179986 54.781655 
L 524.846174 56.267313 
L 529.512362 47.368354 
L 534.178549 62.086847 
L 538.844737 66.312214 
L 543.510925 58.135333 
L 548.177112 60.650104 
L 552.8433 65.453667 
L 557.509487 46.903208 
L 562.175675 58.229948 
L 566.841863 56.050117 
L 571.50805 53.349 
L 576.174238 64.500113 
L 580.840426 61.504531 
L 585.506613 60.386105 
L 590.172801 61.207654 
L 594.838989 53.147145 
L 599.505176 58.376629 
L 604.171364 56.343838 
L 608.837551 52.391139 
L 613.503739 59.380506 
L 618.169927 50.233574 
L 622.836114 53.922484 
L 627.502302 55.480733 
L 632.16849 52.794121 
L 636.834677 56.537079 
L 641.500865 48.414958 
L 646.167053 45.187387 
L 650.83324 61.525296 
L 655.499428 56.293271 
L 660.165615 54.93821 
L 664.831803 54.29122 
L 669.497991 52.268721 
L 674.164178 56.028346 
L 678.830366 68.705057 
L 683.496554 50.040378 
L 688.162741 48.23422 
L 692.828929 63.490709 
L 697.495117 64.492363 
L 702.161304 54.733908 
L 706.827492 62.123831 
L 711.493679 58.0766 
L 716.159867 59.622302 
L 720.826055 54.888266 
L 725.492242 63.325451 
L 730.15843 63.633081 
L 734.824618 60.757846 
L 739.490805 50.121126 
L 744.156993 56.702441 
L 748.823181 45.972026 
L 753.489368 58.139639 
L 758.155556 63.753128 
L 767.487931 51.325387 
L 772.154119 60.668699 
L 776.820306 54.313003 
L 781.486494 47.637596 
L 786.152682 52.019876 
L 790.818869 72.364921 
L 795.485057 53.551135 
L 800.151245 69.425585 
L 804.817432 54.32321 
L 809.48362 67.093503 
L 814.149808 60.169436 
L 818.815995 52.173147 
L 823.482183 69.930361 
L 828.14837 57.958416 
L 832.814558 50.640358 
L 837.480746 49.771567 
L 842.146933 52.769368 
L 846.813121 59.970758 
L 851.479309 61.706199 
L 856.145496 59.588491 
L 860.811684 54.119244 
L 865.477872 57.109136 
L 870.144059 51.610819 
L 874.810247 57.672528 
L 879.476434 56.053669 
L 884.142622 50.667743 
L 888.80881 65.878927 
L 893.474997 51.913894 
L 898.141185 61.378546 
L 902.807373 42.428182 
L 907.47356 54.482302 
L 912.139748 56.146502 
L 916.805936 55.494444 
L 921.472123 51.403906 
L 926.138311 47.820423 
L 930.804498 57.194912 
L 935.470686 61.903741 
L 940.136874 54.489973 
L 944.803061 59.17401 
L 949.469249 64.878602 
L 954.135437 56.808769 
L 958.801624 62.089631 
L 963.467812 53.283677 
L 968.134 57.155242 
L 972.800187 56.727738 
L 977.466375 66.415698 
L 982.132562 44.416319 
L 986.79875 50.016112 
L 991.464938 61.549727 
L 996.131125 56.782898 
L 1000.797313 56.008688 
L 1005.463501 46.17344 
L 1010.129688 58.371814 
L 1014.795876 58.578775 
L 1019.462064 59.1464 
L 1024.128251 66.67935 
L 1028.794439 51.898705 
L 1033.460626 58.093206 
L 1038.126814 54.693571 
L 1042.793002 58.891431 
L 1047.459189 56.010129 
L 1052.125377 50.977677 
L 1056.791565 47.417582 
L 1061.457752 56.043275 
L 1066.12394 65.449559 
L 1070.790128 56.400952 
L 1075.456315 62.742888 
L 1080.122503 47.441986 
L 1084.78869 48.426121 
L 1089.454878 62.3022 
L 1094.121066 54.157438 
L 1098.787253 59.727114 
L 1103.453441 56.759033 
L 1108.119629 62.764889 
L 1112.785816 55.05651 
L 1117.452004 54.469696 
L 1122.118192 62.475196 
L 1126.784379 69.144647 
L 1131.450567 57.307825 
L 1136.116754 72.133219 
L 1140.782942 61.531229 
L 1145.44913 52.876872 
L 1150.115317 62.489166 
L 1154.781505 60.002454 
L 1159.447693 56.526279 
L 1164.11388 50.837469 
L 1168.780068 47.708827 
L 1173.446256 63.193148 
L 1178.112443 42.303918 
L 1182.778631 61.173466 
L 1187.444819 43.385608 
L 1192.111006 63.292208 
L 1196.777194 49.750446 
L 1201.443381 65.48702 
L 1206.109569 46.177118 
L 1210.775757 61.192171 
L 1215.441944 64.159194 
L 1220.108132 40.243857 
L 1224.77432 61.505387 
L 1229.440507 54.191304 
L 1234.106695 45.592269 
L 1238.772883 63.484238 
L 1243.43907 67.309965 
L 1248.105258 53.817991 
L 1252.771445 65.541082 
L 1257.437633 56.876974 
L 1262.103821 64.574978 
L 1266.770008 61.600237 
L 1271.436196 60.865485 
L 1276.102384 60.341664 
L 1280.768571 56.481542 
L 1285.434759 57.004652 
L 1290.100947 51.234595 
L 1294.767134 64.244135 
L 1299.433322 73.512758 
L 1304.099509 52.806465 
L 1308.765697 51.21627 
L 1313.431885 53.1097 
L 1318.098072 56.722561 
L 1322.76426 51.998342 
L 1327.430448 69.046547 
L 1332.096635 63.945333 
L 1336.762823 57.939858 
L 1341.429011 65.497601 
L 1346.095198 52.968753 
L 1350.761386 48.728601 
L 1355.427573 57.596393 
L 1360.093761 57.565627 
L 1364.759949 67.316133 
L 1364.759949 67.316133 
" style="fill:none;stroke:#2ca02c;stroke-linecap:square;stroke-width:1.5;"/>
   </g>
   <g id="patch_13">
    <path d="M 114.175 496.2 
L 114.175 10.8 
" style="fill:none;stroke:#000000;stroke-linecap:square;stroke-linejoin:miter;stroke-width:0.8;"/>
   </g>
   <g id="patch_14">
    <path d="M 1429.2 496.2 
L 1429.2 10.8 
" style="fill:none;stroke:#000000;stroke-linecap:square;stroke-linejoin:miter;stroke-width:0.8;"/>
   </g>
   <g id="patch_15">
    <path d="M 114.175 496.2 
L 1429.2 496.2 
" style="fill:none;stroke:#000000;stroke-linecap:square;stroke-linejoin:miter;stroke-width:0.8;"/>
   </g>
   <g id="patch_16">
    <path d="M 114.175 10.8 
L 1429.2 10.8 
" style="fill:none;stroke:#000000;stroke-linecap:square;stroke-linejoin:miter;stroke-width:0.8;"/>
   </g>
  </g>
 </g>
 <defs>
  <clipPath id="pb189b8cae1">
   <rect height="485.4" width="1315.025" x="114.175" y="10.8"/>
  </clipPath>
 </defs>
</svg>
