<?xml version="1.0" encoding="utf-8" standalone="no"?>
<!DOCTYPE svg PUBLIC "-//W3C//DTD SVG 1.1//EN"
  "http://www.w3.org/Graphics/SVG/1.1/DTD/svg11.dtd">
<!-- Created with matplotlib (https://matplotlib.org/) -->
<svg height="576pt" version="1.1" viewBox="0 0 1440 576" width="1440pt" xmlns="http://www.w3.org/2000/svg" xmlns:xlink="http://www.w3.org/1999/xlink">
 <defs>
  <style type="text/css">
*{stroke-linecap:butt;stroke-linejoin:round;white-space:pre;}
  </style>
 </defs>
 <g id="figure_1">
  <g id="patch_1">
   <path d="M 0 576 
L 1440 576 
L 1440 0 
L 0 0 
z
" style="fill:#ffffff;"/>
  </g>
  <g id="axes_1">
   <g id="patch_2">
    <path d="M 143.05 496.2 
L 1429.2 496.2 
L 1429.2 10.8 
L 143.05 10.8 
z
" style="fill:#ffffff;"/>
   </g>
   <g id="patch_3">
    <path clip-path="url(#pd1835d7b86)" d="M 201.511364 496.2 
L 201.511364 10.8 
L 202.424109 10.8 
L 202.424109 496.2 
z
" style="fill:#0000ff;"/>
   </g>
   <g id="patch_4">
    <path clip-path="url(#pd1835d7b86)" d="M 206.075092 496.2 
L 206.075092 10.8 
L 206.987838 10.8 
L 206.987838 496.2 
z
" style="fill:#0000ff;"/>
   </g>
   <g id="patch_5">
    <path clip-path="url(#pd1835d7b86)" d="M 242.584921 496.2 
L 242.584921 10.8 
L 243.497667 10.8 
L 243.497667 496.2 
z
" style="fill:#0000ff;"/>
   </g>
   <g id="patch_6">
    <path clip-path="url(#pd1835d7b86)" d="M 370.369323 496.2 
L 370.369323 10.8 
L 371.282068 10.8 
L 371.282068 496.2 
z
" style="fill:#0000ff;"/>
   </g>
   <g id="patch_7">
    <path clip-path="url(#pd1835d7b86)" d="M 625.938125 496.2 
L 625.938125 10.8 
L 626.850871 10.8 
L 626.850871 496.2 
z
" style="fill:#0000ff;"/>
   </g>
   <g id="patch_8">
    <path clip-path="url(#pd1835d7b86)" d="M 945.399129 496.2 
L 945.399129 10.8 
L 946.311875 10.8 
L 946.311875 496.2 
z
" style="fill:#0000ff;"/>
   </g>
   <g id="patch_9">
    <path clip-path="url(#pd1835d7b86)" d="M 1200.967932 496.2 
L 1200.967932 10.8 
L 1201.880677 10.8 
L 1201.880677 496.2 
z
" style="fill:#0000ff;"/>
   </g>
   <g id="patch_10">
    <path clip-path="url(#pd1835d7b86)" d="M 1328.752333 496.2 
L 1328.752333 10.8 
L 1329.665079 10.8 
L 1329.665079 496.2 
z
" style="fill:#0000ff;"/>
   </g>
   <g id="patch_11">
    <path clip-path="url(#pd1835d7b86)" d="M 1365.262162 496.2 
L 1365.262162 10.8 
L 1366.174908 10.8 
L 1366.174908 496.2 
z
" style="fill:#0000ff;"/>
   </g>
   <g id="patch_12">
    <path clip-path="url(#pd1835d7b86)" d="M 1369.825891 496.2 
L 1369.825891 10.8 
L 1370.738636 10.8 
L 1370.738636 496.2 
z
" style="fill:#0000ff;"/>
   </g>
   <g id="matplotlib.axis_1">
    <g id="xtick_1">
     <g id="line2d_1">
      <defs>
       <path d="M 0 0 
L 0 3.5 
" id="m2da806990c" style="stroke:#000000;stroke-width:0.8;"/>
      </defs>
      <g>
       <use style="stroke:#000000;stroke-width:0.8;" x="202.424109" xlink:href="#m2da806990c" y="496.2"/>
      </g>
     </g>
     <g id="text_1">
      <!-- 0 -->
      <defs>
       <path d="M 31.78125 66.40625 
Q 24.171875 66.40625 20.328125 58.90625 
Q 16.5 51.421875 16.5 36.375 
Q 16.5 21.390625 20.328125 13.890625 
Q 24.171875 6.390625 31.78125 6.390625 
Q 39.453125 6.390625 43.28125 13.890625 
Q 47.125 21.390625 47.125 36.375 
Q 47.125 51.421875 43.28125 58.90625 
Q 39.453125 66.40625 31.78125 66.40625 
z
M 31.78125 74.21875 
Q 44.046875 74.21875 50.515625 64.515625 
Q 56.984375 54.828125 56.984375 36.375 
Q 56.984375 17.96875 50.515625 8.265625 
Q 44.046875 -1.421875 31.78125 -1.421875 
Q 19.53125 -1.421875 13.0625 8.265625 
Q 6.59375 17.96875 6.59375 36.375 
Q 6.59375 54.828125 13.0625 64.515625 
Q 19.53125 74.21875 31.78125 74.21875 
z
" id="DejaVuSans-48"/>
      </defs>
      <g transform="translate(192.880359 525.995312)scale(0.3 -0.3)">
       <use xlink:href="#DejaVuSans-48"/>
      </g>
     </g>
    </g>
    <g id="xtick_2">
     <g id="line2d_2">
      <g>
       <use style="stroke:#000000;stroke-width:0.8;" x="430.61054" xlink:href="#m2da806990c" y="496.2"/>
      </g>
     </g>
     <g id="text_2">
      <!-- 50 -->
      <defs>
       <path d="M 10.796875 72.90625 
L 49.515625 72.90625 
L 49.515625 64.59375 
L 19.828125 64.59375 
L 19.828125 46.734375 
Q 21.96875 47.46875 24.109375 47.828125 
Q 26.265625 48.1875 28.421875 48.1875 
Q 40.625 48.1875 47.75 41.5 
Q 54.890625 34.8125 54.890625 23.390625 
Q 54.890625 11.625 47.5625 5.09375 
Q 40.234375 -1.421875 26.90625 -1.421875 
Q 22.3125 -1.421875 17.546875 -0.640625 
Q 12.796875 0.140625 7.71875 1.703125 
L 7.71875 11.625 
Q 12.109375 9.234375 16.796875 8.0625 
Q 21.484375 6.890625 26.703125 6.890625 
Q 35.15625 6.890625 40.078125 11.328125 
Q 45.015625 15.765625 45.015625 23.390625 
Q 45.015625 31 40.078125 35.4375 
Q 35.15625 39.890625 26.703125 39.890625 
Q 22.75 39.890625 18.8125 39.015625 
Q 14.890625 38.140625 10.796875 36.28125 
z
" id="DejaVuSans-53"/>
      </defs>
      <g transform="translate(411.52304 525.995312)scale(0.3 -0.3)">
       <use xlink:href="#DejaVuSans-53"/>
       <use x="63.623047" xlink:href="#DejaVuSans-48"/>
      </g>
     </g>
    </g>
    <g id="xtick_3">
     <g id="line2d_3">
      <g>
       <use style="stroke:#000000;stroke-width:0.8;" x="658.796971" xlink:href="#m2da806990c" y="496.2"/>
      </g>
     </g>
     <g id="text_3">
      <!-- 100 -->
      <defs>
       <path d="M 12.40625 8.296875 
L 28.515625 8.296875 
L 28.515625 63.921875 
L 10.984375 60.40625 
L 10.984375 69.390625 
L 28.421875 72.90625 
L 38.28125 72.90625 
L 38.28125 8.296875 
L 54.390625 8.296875 
L 54.390625 0 
L 12.40625 0 
z
" id="DejaVuSans-49"/>
      </defs>
      <g transform="translate(630.165721 525.995312)scale(0.3 -0.3)">
       <use xlink:href="#DejaVuSans-49"/>
       <use x="63.623047" xlink:href="#DejaVuSans-48"/>
       <use x="127.246094" xlink:href="#DejaVuSans-48"/>
      </g>
     </g>
    </g>
    <g id="xtick_4">
     <g id="line2d_4">
      <g>
       <use style="stroke:#000000;stroke-width:0.8;" x="886.983403" xlink:href="#m2da806990c" y="496.2"/>
      </g>
     </g>
     <g id="text_4">
      <!-- 150 -->
      <g transform="translate(858.352153 525.995312)scale(0.3 -0.3)">
       <use xlink:href="#DejaVuSans-49"/>
       <use x="63.623047" xlink:href="#DejaVuSans-53"/>
       <use x="127.246094" xlink:href="#DejaVuSans-48"/>
      </g>
     </g>
    </g>
    <g id="xtick_5">
     <g id="line2d_5">
      <g>
       <use style="stroke:#000000;stroke-width:0.8;" x="1115.169834" xlink:href="#m2da806990c" y="496.2"/>
      </g>
     </g>
     <g id="text_5">
      <!-- 200 -->
      <defs>
       <path d="M 19.1875 8.296875 
L 53.609375 8.296875 
L 53.609375 0 
L 7.328125 0 
L 7.328125 8.296875 
Q 12.9375 14.109375 22.625 23.890625 
Q 32.328125 33.6875 34.8125 36.53125 
Q 39.546875 41.84375 41.421875 45.53125 
Q 43.3125 49.21875 43.3125 52.78125 
Q 43.3125 58.59375 39.234375 62.25 
Q 35.15625 65.921875 28.609375 65.921875 
Q 23.96875 65.921875 18.8125 64.3125 
Q 13.671875 62.703125 7.8125 59.421875 
L 7.8125 69.390625 
Q 13.765625 71.78125 18.9375 73 
Q 24.125 74.21875 28.421875 74.21875 
Q 39.75 74.21875 46.484375 68.546875 
Q 53.21875 62.890625 53.21875 53.421875 
Q 53.21875 48.921875 51.53125 44.890625 
Q 49.859375 40.875 45.40625 35.40625 
Q 44.1875 33.984375 37.640625 27.21875 
Q 31.109375 20.453125 19.1875 8.296875 
z
" id="DejaVuSans-50"/>
      </defs>
      <g transform="translate(1086.538584 525.995312)scale(0.3 -0.3)">
       <use xlink:href="#DejaVuSans-50"/>
       <use x="63.623047" xlink:href="#DejaVuSans-48"/>
       <use x="127.246094" xlink:href="#DejaVuSans-48"/>
      </g>
     </g>
    </g>
    <g id="xtick_6">
     <g id="line2d_6">
      <g>
       <use style="stroke:#000000;stroke-width:0.8;" x="1343.356265" xlink:href="#m2da806990c" y="496.2"/>
      </g>
     </g>
     <g id="text_6">
      <!-- 250 -->
      <g transform="translate(1314.725015 525.995312)scale(0.3 -0.3)">
       <use xlink:href="#DejaVuSans-50"/>
       <use x="63.623047" xlink:href="#DejaVuSans-53"/>
       <use x="127.246094" xlink:href="#DejaVuSans-48"/>
      </g>
     </g>
    </g>
    <g id="text_7">
     <!-- Bit Interaction -->
     <defs>
      <path d="M 19.671875 34.8125 
L 19.671875 8.109375 
L 35.5 8.109375 
Q 43.453125 8.109375 47.28125 11.40625 
Q 51.125 14.703125 51.125 21.484375 
Q 51.125 28.328125 47.28125 31.5625 
Q 43.453125 34.8125 35.5 34.8125 
z
M 19.671875 64.796875 
L 19.671875 42.828125 
L 34.28125 42.828125 
Q 41.5 42.828125 45.03125 45.53125 
Q 48.578125 48.25 48.578125 53.8125 
Q 48.578125 59.328125 45.03125 62.0625 
Q 41.5 64.796875 34.28125 64.796875 
z
M 9.8125 72.90625 
L 35.015625 72.90625 
Q 46.296875 72.90625 52.390625 68.21875 
Q 58.5 63.53125 58.5 54.890625 
Q 58.5 48.1875 55.375 44.234375 
Q 52.25 40.28125 46.1875 39.3125 
Q 53.46875 37.75 57.5 32.78125 
Q 61.53125 27.828125 61.53125 20.40625 
Q 61.53125 10.640625 54.890625 5.3125 
Q 48.25 0 35.984375 0 
L 9.8125 0 
z
" id="DejaVuSans-66"/>
      <path d="M 9.421875 54.6875 
L 18.40625 54.6875 
L 18.40625 0 
L 9.421875 0 
z
M 9.421875 75.984375 
L 18.40625 75.984375 
L 18.40625 64.59375 
L 9.421875 64.59375 
z
" id="DejaVuSans-105"/>
      <path d="M 18.3125 70.21875 
L 18.3125 54.6875 
L 36.8125 54.6875 
L 36.8125 47.703125 
L 18.3125 47.703125 
L 18.3125 18.015625 
Q 18.3125 11.328125 20.140625 9.421875 
Q 21.96875 7.515625 27.59375 7.515625 
L 36.8125 7.515625 
L 36.8125 0 
L 27.59375 0 
Q 17.1875 0 13.234375 3.875 
Q 9.28125 7.765625 9.28125 18.015625 
L 9.28125 47.703125 
L 2.6875 47.703125 
L 2.6875 54.6875 
L 9.28125 54.6875 
L 9.28125 70.21875 
z
" id="DejaVuSans-116"/>
      <path id="DejaVuSans-32"/>
      <path d="M 9.8125 72.90625 
L 19.671875 72.90625 
L 19.671875 0 
L 9.8125 0 
z
" id="DejaVuSans-73"/>
      <path d="M 54.890625 33.015625 
L 54.890625 0 
L 45.90625 0 
L 45.90625 32.71875 
Q 45.90625 40.484375 42.875 44.328125 
Q 39.84375 48.1875 33.796875 48.1875 
Q 26.515625 48.1875 22.3125 43.546875 
Q 18.109375 38.921875 18.109375 30.90625 
L 18.109375 0 
L 9.078125 0 
L 9.078125 54.6875 
L 18.109375 54.6875 
L 18.109375 46.1875 
Q 21.34375 51.125 25.703125 53.5625 
Q 30.078125 56 35.796875 56 
Q 45.21875 56 50.046875 50.171875 
Q 54.890625 44.34375 54.890625 33.015625 
z
" id="DejaVuSans-110"/>
      <path d="M 56.203125 29.59375 
L 56.203125 25.203125 
L 14.890625 25.203125 
Q 15.484375 15.921875 20.484375 11.0625 
Q 25.484375 6.203125 34.421875 6.203125 
Q 39.59375 6.203125 44.453125 7.46875 
Q 49.3125 8.734375 54.109375 11.28125 
L 54.109375 2.78125 
Q 49.265625 0.734375 44.1875 -0.34375 
Q 39.109375 -1.421875 33.890625 -1.421875 
Q 20.796875 -1.421875 13.15625 6.1875 
Q 5.515625 13.8125 5.515625 26.8125 
Q 5.515625 40.234375 12.765625 48.109375 
Q 20.015625 56 32.328125 56 
Q 43.359375 56 49.78125 48.890625 
Q 56.203125 41.796875 56.203125 29.59375 
z
M 47.21875 32.234375 
Q 47.125 39.59375 43.09375 43.984375 
Q 39.0625 48.390625 32.421875 48.390625 
Q 24.90625 48.390625 20.390625 44.140625 
Q 15.875 39.890625 15.1875 32.171875 
z
" id="DejaVuSans-101"/>
      <path d="M 41.109375 46.296875 
Q 39.59375 47.171875 37.8125 47.578125 
Q 36.03125 48 33.890625 48 
Q 26.265625 48 22.1875 43.046875 
Q 18.109375 38.09375 18.109375 28.8125 
L 18.109375 0 
L 9.078125 0 
L 9.078125 54.6875 
L 18.109375 54.6875 
L 18.109375 46.1875 
Q 20.953125 51.171875 25.484375 53.578125 
Q 30.03125 56 36.53125 56 
Q 37.453125 56 38.578125 55.875 
Q 39.703125 55.765625 41.0625 55.515625 
z
" id="DejaVuSans-114"/>
      <path d="M 34.28125 27.484375 
Q 23.390625 27.484375 19.1875 25 
Q 14.984375 22.515625 14.984375 16.5 
Q 14.984375 11.71875 18.140625 8.90625 
Q 21.296875 6.109375 26.703125 6.109375 
Q 34.1875 6.109375 38.703125 11.40625 
Q 43.21875 16.703125 43.21875 25.484375 
L 43.21875 27.484375 
z
M 52.203125 31.203125 
L 52.203125 0 
L 43.21875 0 
L 43.21875 8.296875 
Q 40.140625 3.328125 35.546875 0.953125 
Q 30.953125 -1.421875 24.3125 -1.421875 
Q 15.921875 -1.421875 10.953125 3.296875 
Q 6 8.015625 6 15.921875 
Q 6 25.140625 12.171875 29.828125 
Q 18.359375 34.515625 30.609375 34.515625 
L 43.21875 34.515625 
L 43.21875 35.40625 
Q 43.21875 41.609375 39.140625 45 
Q 35.0625 48.390625 27.6875 48.390625 
Q 23 48.390625 18.546875 47.265625 
Q 14.109375 46.140625 10.015625 43.890625 
L 10.015625 52.203125 
Q 14.9375 54.109375 19.578125 55.046875 
Q 24.21875 56 28.609375 56 
Q 40.484375 56 46.34375 49.84375 
Q 52.203125 43.703125 52.203125 31.203125 
z
" id="DejaVuSans-97"/>
      <path d="M 48.78125 52.59375 
L 48.78125 44.1875 
Q 44.96875 46.296875 41.140625 47.34375 
Q 37.3125 48.390625 33.40625 48.390625 
Q 24.65625 48.390625 19.8125 42.84375 
Q 14.984375 37.3125 14.984375 27.296875 
Q 14.984375 17.28125 19.8125 11.734375 
Q 24.65625 6.203125 33.40625 6.203125 
Q 37.3125 6.203125 41.140625 7.25 
Q 44.96875 8.296875 48.78125 10.40625 
L 48.78125 2.09375 
Q 45.015625 0.34375 40.984375 -0.53125 
Q 36.96875 -1.421875 32.421875 -1.421875 
Q 20.0625 -1.421875 12.78125 6.34375 
Q 5.515625 14.109375 5.515625 27.296875 
Q 5.515625 40.671875 12.859375 48.328125 
Q 20.21875 56 33.015625 56 
Q 37.15625 56 41.109375 55.140625 
Q 45.0625 54.296875 48.78125 52.59375 
z
" id="DejaVuSans-99"/>
      <path d="M 30.609375 48.390625 
Q 23.390625 48.390625 19.1875 42.75 
Q 14.984375 37.109375 14.984375 27.296875 
Q 14.984375 17.484375 19.15625 11.84375 
Q 23.34375 6.203125 30.609375 6.203125 
Q 37.796875 6.203125 41.984375 11.859375 
Q 46.1875 17.53125 46.1875 27.296875 
Q 46.1875 37.015625 41.984375 42.703125 
Q 37.796875 48.390625 30.609375 48.390625 
z
M 30.609375 56 
Q 42.328125 56 49.015625 48.375 
Q 55.71875 40.765625 55.71875 27.296875 
Q 55.71875 13.875 49.015625 6.21875 
Q 42.328125 -1.421875 30.609375 -1.421875 
Q 18.84375 -1.421875 12.171875 6.21875 
Q 5.515625 13.875 5.515625 27.296875 
Q 5.515625 40.765625 12.171875 48.375 
Q 18.84375 56 30.609375 56 
z
" id="DejaVuSans-111"/>
     </defs>
     <g transform="translate(679.639063 559.029688)scale(0.3 -0.3)">
      <use xlink:href="#DejaVuSans-66"/>
      <use x="68.603516" xlink:href="#DejaVuSans-105"/>
      <use x="96.386719" xlink:href="#DejaVuSans-116"/>
      <use x="135.595703" xlink:href="#DejaVuSans-32"/>
      <use x="167.382812" xlink:href="#DejaVuSans-73"/>
      <use x="196.875" xlink:href="#DejaVuSans-110"/>
      <use x="260.253906" xlink:href="#DejaVuSans-116"/>
      <use x="299.462891" xlink:href="#DejaVuSans-101"/>
      <use x="360.986328" xlink:href="#DejaVuSans-114"/>
      <use x="402.099609" xlink:href="#DejaVuSans-97"/>
      <use x="463.378906" xlink:href="#DejaVuSans-99"/>
      <use x="518.359375" xlink:href="#DejaVuSans-116"/>
      <use x="557.568359" xlink:href="#DejaVuSans-105"/>
      <use x="585.351562" xlink:href="#DejaVuSans-111"/>
      <use x="646.533203" xlink:href="#DejaVuSans-110"/>
     </g>
    </g>
   </g>
   <g id="matplotlib.axis_2">
    <g id="ytick_1">
     <g id="line2d_7">
      <defs>
       <path d="M 0 0 
L -3.5 0 
" id="m950668eac2" style="stroke:#000000;stroke-width:0.8;"/>
      </defs>
      <g>
       <use style="stroke:#000000;stroke-width:0.8;" x="143.05" xlink:href="#m950668eac2" y="470.715239"/>
      </g>
     </g>
     <g id="text_8">
      <!-- −1.25 -->
      <defs>
       <path d="M 10.59375 35.5 
L 73.1875 35.5 
L 73.1875 27.203125 
L 10.59375 27.203125 
z
" id="DejaVuSans-8722"/>
       <path d="M 10.6875 12.40625 
L 21 12.40625 
L 21 0 
L 10.6875 0 
z
" id="DejaVuSans-46"/>
      </defs>
      <g transform="translate(44.114063 482.112896)scale(0.3 -0.3)">
       <use xlink:href="#DejaVuSans-8722"/>
       <use x="83.789062" xlink:href="#DejaVuSans-49"/>
       <use x="147.412109" xlink:href="#DejaVuSans-46"/>
       <use x="179.199219" xlink:href="#DejaVuSans-50"/>
       <use x="242.822266" xlink:href="#DejaVuSans-53"/>
      </g>
     </g>
    </g>
    <g id="ytick_2">
     <g id="line2d_8">
      <g>
       <use style="stroke:#000000;stroke-width:0.8;" x="143.05" xlink:href="#m950668eac2" y="408.900793"/>
      </g>
     </g>
     <g id="text_9">
      <!-- −1.00 -->
      <g transform="translate(44.114063 420.298449)scale(0.3 -0.3)">
       <use xlink:href="#DejaVuSans-8722"/>
       <use x="83.789062" xlink:href="#DejaVuSans-49"/>
       <use x="147.412109" xlink:href="#DejaVuSans-46"/>
       <use x="179.199219" xlink:href="#DejaVuSans-48"/>
       <use x="242.822266" xlink:href="#DejaVuSans-48"/>
      </g>
     </g>
    </g>
    <g id="ytick_3">
     <g id="line2d_9">
      <g>
       <use style="stroke:#000000;stroke-width:0.8;" x="143.05" xlink:href="#m950668eac2" y="347.086346"/>
      </g>
     </g>
     <g id="text_10">
      <!-- −0.75 -->
      <defs>
       <path d="M 8.203125 72.90625 
L 55.078125 72.90625 
L 55.078125 68.703125 
L 28.609375 0 
L 18.3125 0 
L 43.21875 64.59375 
L 8.203125 64.59375 
z
" id="DejaVuSans-55"/>
      </defs>
      <g transform="translate(44.114063 358.484003)scale(0.3 -0.3)">
       <use xlink:href="#DejaVuSans-8722"/>
       <use x="83.789062" xlink:href="#DejaVuSans-48"/>
       <use x="147.412109" xlink:href="#DejaVuSans-46"/>
       <use x="179.199219" xlink:href="#DejaVuSans-55"/>
       <use x="242.822266" xlink:href="#DejaVuSans-53"/>
      </g>
     </g>
    </g>
    <g id="ytick_4">
     <g id="line2d_10">
      <g>
       <use style="stroke:#000000;stroke-width:0.8;" x="143.05" xlink:href="#m950668eac2" y="285.2719"/>
      </g>
     </g>
     <g id="text_11">
      <!-- −0.50 -->
      <g transform="translate(44.114063 296.669556)scale(0.3 -0.3)">
       <use xlink:href="#DejaVuSans-8722"/>
       <use x="83.789062" xlink:href="#DejaVuSans-48"/>
       <use x="147.412109" xlink:href="#DejaVuSans-46"/>
       <use x="179.199219" xlink:href="#DejaVuSans-53"/>
       <use x="242.822266" xlink:href="#DejaVuSans-48"/>
      </g>
     </g>
    </g>
    <g id="ytick_5">
     <g id="line2d_11">
      <g>
       <use style="stroke:#000000;stroke-width:0.8;" x="143.05" xlink:href="#m950668eac2" y="223.457453"/>
      </g>
     </g>
     <g id="text_12">
      <!-- −0.25 -->
      <g transform="translate(44.114063 234.855109)scale(0.3 -0.3)">
       <use xlink:href="#DejaVuSans-8722"/>
       <use x="83.789062" xlink:href="#DejaVuSans-48"/>
       <use x="147.412109" xlink:href="#DejaVuSans-46"/>
       <use x="179.199219" xlink:href="#DejaVuSans-50"/>
       <use x="242.822266" xlink:href="#DejaVuSans-53"/>
      </g>
     </g>
    </g>
    <g id="ytick_6">
     <g id="line2d_12">
      <g>
       <use style="stroke:#000000;stroke-width:0.8;" x="143.05" xlink:href="#m950668eac2" y="161.643006"/>
      </g>
     </g>
     <g id="text_13">
      <!-- 0.00 -->
      <g transform="translate(69.253125 173.040663)scale(0.3 -0.3)">
       <use xlink:href="#DejaVuSans-48"/>
       <use x="63.623047" xlink:href="#DejaVuSans-46"/>
       <use x="95.410156" xlink:href="#DejaVuSans-48"/>
       <use x="159.033203" xlink:href="#DejaVuSans-48"/>
      </g>
     </g>
    </g>
    <g id="ytick_7">
     <g id="line2d_13">
      <g>
       <use style="stroke:#000000;stroke-width:0.8;" x="143.05" xlink:href="#m950668eac2" y="99.82856"/>
      </g>
     </g>
     <g id="text_14">
      <!-- 0.25 -->
      <g transform="translate(69.253125 111.226216)scale(0.3 -0.3)">
       <use xlink:href="#DejaVuSans-48"/>
       <use x="63.623047" xlink:href="#DejaVuSans-46"/>
       <use x="95.410156" xlink:href="#DejaVuSans-50"/>
       <use x="159.033203" xlink:href="#DejaVuSans-53"/>
      </g>
     </g>
    </g>
    <g id="ytick_8">
     <g id="line2d_14">
      <g>
       <use style="stroke:#000000;stroke-width:0.8;" x="143.05" xlink:href="#m950668eac2" y="38.014113"/>
      </g>
     </g>
     <g id="text_15">
      <!-- 0.50 -->
      <g transform="translate(69.253125 49.411769)scale(0.3 -0.3)">
       <use xlink:href="#DejaVuSans-48"/>
       <use x="63.623047" xlink:href="#DejaVuSans-46"/>
       <use x="95.410156" xlink:href="#DejaVuSans-53"/>
       <use x="159.033203" xlink:href="#DejaVuSans-48"/>
      </g>
     </g>
    </g>
    <g id="text_16">
     <!-- Weight Value -->
     <defs>
      <path d="M 3.328125 72.90625 
L 13.28125 72.90625 
L 28.609375 11.28125 
L 43.890625 72.90625 
L 54.984375 72.90625 
L 70.3125 11.28125 
L 85.59375 72.90625 
L 95.609375 72.90625 
L 77.296875 0 
L 64.890625 0 
L 49.515625 63.28125 
L 33.984375 0 
L 21.578125 0 
z
" id="DejaVuSans-87"/>
      <path d="M 45.40625 27.984375 
Q 45.40625 37.75 41.375 43.109375 
Q 37.359375 48.484375 30.078125 48.484375 
Q 22.859375 48.484375 18.828125 43.109375 
Q 14.796875 37.75 14.796875 27.984375 
Q 14.796875 18.265625 18.828125 12.890625 
Q 22.859375 7.515625 30.078125 7.515625 
Q 37.359375 7.515625 41.375 12.890625 
Q 45.40625 18.265625 45.40625 27.984375 
z
M 54.390625 6.78125 
Q 54.390625 -7.171875 48.1875 -13.984375 
Q 42 -20.796875 29.203125 -20.796875 
Q 24.46875 -20.796875 20.265625 -20.09375 
Q 16.0625 -19.390625 12.109375 -17.921875 
L 12.109375 -9.1875 
Q 16.0625 -11.328125 19.921875 -12.34375 
Q 23.78125 -13.375 27.78125 -13.375 
Q 36.625 -13.375 41.015625 -8.765625 
Q 45.40625 -4.15625 45.40625 5.171875 
L 45.40625 9.625 
Q 42.625 4.78125 38.28125 2.390625 
Q 33.9375 0 27.875 0 
Q 17.828125 0 11.671875 7.65625 
Q 5.515625 15.328125 5.515625 27.984375 
Q 5.515625 40.671875 11.671875 48.328125 
Q 17.828125 56 27.875 56 
Q 33.9375 56 38.28125 53.609375 
Q 42.625 51.21875 45.40625 46.390625 
L 45.40625 54.6875 
L 54.390625 54.6875 
z
" id="DejaVuSans-103"/>
      <path d="M 54.890625 33.015625 
L 54.890625 0 
L 45.90625 0 
L 45.90625 32.71875 
Q 45.90625 40.484375 42.875 44.328125 
Q 39.84375 48.1875 33.796875 48.1875 
Q 26.515625 48.1875 22.3125 43.546875 
Q 18.109375 38.921875 18.109375 30.90625 
L 18.109375 0 
L 9.078125 0 
L 9.078125 75.984375 
L 18.109375 75.984375 
L 18.109375 46.1875 
Q 21.34375 51.125 25.703125 53.5625 
Q 30.078125 56 35.796875 56 
Q 45.21875 56 50.046875 50.171875 
Q 54.890625 44.34375 54.890625 33.015625 
z
" id="DejaVuSans-104"/>
      <path d="M 28.609375 0 
L 0.78125 72.90625 
L 11.078125 72.90625 
L 34.1875 11.53125 
L 57.328125 72.90625 
L 67.578125 72.90625 
L 39.796875 0 
z
" id="DejaVuSans-86"/>
      <path d="M 9.421875 75.984375 
L 18.40625 75.984375 
L 18.40625 0 
L 9.421875 0 
z
" id="DejaVuSans-108"/>
      <path d="M 8.5 21.578125 
L 8.5 54.6875 
L 17.484375 54.6875 
L 17.484375 21.921875 
Q 17.484375 14.15625 20.5 10.265625 
Q 23.53125 6.390625 29.59375 6.390625 
Q 36.859375 6.390625 41.078125 11.03125 
Q 45.3125 15.671875 45.3125 23.6875 
L 45.3125 54.6875 
L 54.296875 54.6875 
L 54.296875 0 
L 45.3125 0 
L 45.3125 8.40625 
Q 42.046875 3.421875 37.71875 1 
Q 33.40625 -1.421875 27.6875 -1.421875 
Q 18.265625 -1.421875 13.375 4.4375 
Q 8.5 10.296875 8.5 21.578125 
z
M 31.109375 56 
z
" id="DejaVuSans-117"/>
     </defs>
     <g transform="translate(33.875 353.732813)rotate(-90)scale(0.3 -0.3)">
      <use xlink:href="#DejaVuSans-87"/>
      <use x="98.798828" xlink:href="#DejaVuSans-101"/>
      <use x="160.322266" xlink:href="#DejaVuSans-105"/>
      <use x="188.105469" xlink:href="#DejaVuSans-103"/>
      <use x="251.582031" xlink:href="#DejaVuSans-104"/>
      <use x="314.960938" xlink:href="#DejaVuSans-116"/>
      <use x="354.169922" xlink:href="#DejaVuSans-32"/>
      <use x="385.957031" xlink:href="#DejaVuSans-86"/>
      <use x="454.255859" xlink:href="#DejaVuSans-97"/>
      <use x="515.535156" xlink:href="#DejaVuSans-108"/>
      <use x="543.318359" xlink:href="#DejaVuSans-117"/>
      <use x="606.697266" xlink:href="#DejaVuSans-101"/>
     </g>
    </g>
   </g>
   <g id="line2d_15">
    <path clip-path="url(#pd1835d7b86)" d="M 202.424109 118.564809 
L 206.987838 229.783314 
L 211.551567 142.307984 
L 216.115295 211.704698 
L 220.679024 229.50598 
L 225.242752 61.739421 
L 229.806481 187.38445 
L 234.37021 207.927968 
L 238.933938 108.451706 
L 243.497667 118.10707 
L 248.061396 151.7017 
L 252.625124 167.08941 
L 257.188853 127.313996 
L 261.752581 138.871185 
L 266.31631 236.264024 
L 270.880039 170.783541 
L 275.443767 121.479085 
L 280.007496 39.29754 
L 284.571225 94.703056 
L 289.134953 183.468927 
L 293.698682 159.316483 
L 298.26241 223.11962 
L 302.826139 158.972712 
L 307.389868 126.046486 
L 311.953596 161.347235 
L 316.517325 214.720097 
L 321.081054 157.472819 
L 325.644782 106.178178 
L 330.208511 112.893306 
L 334.772239 98.75393 
L 339.335968 158.642169 
L 343.899697 156.879273 
L 348.463425 185.575281 
L 353.027154 218.428297 
L 357.590882 137.444272 
L 362.154611 150.057584 
L 366.71834 259.021042 
L 371.282068 157.334448 
L 375.845797 260.631933 
L 380.409526 144.005063 
L 384.973254 175.413726 
L 389.536983 121.07879 
L 394.100711 134.916308 
L 398.66444 186.870326 
L 403.228169 87.329093 
L 407.791897 130.398698 
L 412.355626 177.403643 
L 416.919355 168.687763 
L 421.483083 106.981719 
L 426.046812 167.932518 
L 430.61054 174.149251 
L 435.174269 98.764681 
L 439.737998 180.733305 
L 444.301726 213.212731 
L 448.865455 173.547553 
L 453.429184 183.936249 
L 457.992912 150.543943 
L 462.556641 111.962513 
L 467.120369 119.528169 
L 471.684098 195.230345 
L 476.247827 95.627494 
L 480.811555 84.825804 
L 485.375284 111.192198 
L 489.939012 154.326037 
L 494.502741 101.031503 
L 499.06647 77.502163 
L 503.630198 176.340182 
L 508.193927 124.376084 
L 512.757656 105.010365 
L 517.321384 130.57764 
L 521.885113 152.613398 
L 526.448841 187.607571 
L 531.01257 117.599301 
L 535.576299 189.207549 
L 540.140027 195.068341 
L 544.703756 131.873763 
L 549.267485 201.389265 
L 553.831213 156.839843 
L 558.394942 300.417773 
L 562.95867 95.500175 
L 567.522399 183.998554 
L 572.086128 81.118606 
L 576.649856 129.295783 
L 581.213585 102.53926 
L 585.777314 188.085278 
L 590.341042 156.356953 
L 594.904771 210.046658 
L 599.468499 223.717588 
L 604.032228 215.813182 
L 608.595957 182.786639 
L 613.159685 215.767223 
L 617.723414 105.118069 
L 622.287143 115.600045 
L 626.850871 219.850534 
L 631.4146 208.965098 
L 635.978328 216.985129 
L 640.542057 198.403706 
L 645.105786 210.793587 
L 649.669514 186.877815 
L 654.233243 110.971788 
L 658.796971 135.521575 
L 663.3607 265.759913 
L 667.924429 116.77568 
L 672.488157 66.195648 
L 677.051886 171.608373 
L 681.615615 92.440338 
L 686.179343 195.345237 
L 690.743072 189.821017 
L 695.3068 135.152055 
L 699.870529 108.73887 
L 704.434258 228.073585 
L 708.997986 197.521058 
L 713.561715 208.289576 
L 718.125444 239.610937 
L 722.689172 201.322905 
L 727.252901 184.328441 
L 731.816629 82.391584 
L 736.380358 136.316352 
L 740.944087 177.229784 
L 745.507815 120.295451 
L 750.071544 175.882236 
L 754.635273 130.078949 
L 759.199001 103.03952 
L 763.76273 196.424763 
L 768.326458 156.303591 
L 772.890187 184.948497 
L 777.453916 164.156367 
L 782.017644 139.319235 
L 786.581373 192.922106 
L 791.145101 105.634832 
L 795.70883 149.66471 
L 800.272559 182.223509 
L 804.836287 161.769965 
L 809.400016 180.939727 
L 813.963745 109.264612 
L 818.527473 102.144639 
L 823.091202 129.068141 
L 827.65493 196.312193 
L 832.218659 192.674808 
L 836.782388 282.57579 
L 841.346116 198.032522 
L 845.909845 272.873489 
L 850.473574 144.122792 
L 855.037302 123.848515 
L 859.601031 191.930454 
L 864.164759 196.851405 
L 868.728488 193.507396 
L 873.292217 212.318837 
L 877.855945 130.868222 
L 882.419674 173.266591 
L 886.983403 180.727705 
L 891.547131 170.30185 
L 896.11086 161.968454 
L 900.674588 218.348813 
L 905.238317 182.056978 
L 909.802046 184.636935 
L 914.365774 148.824089 
L 918.929503 227.706461 
L 923.493231 199.635905 
L 928.05696 205.691148 
L 932.620689 177.149803 
L 937.184417 145.764365 
L 941.748146 136.941731 
L 946.311875 207.580711 
L 950.875603 118.347372 
L 955.439332 135.119864 
L 960.00306 156.817761 
L 964.566789 187.82435 
L 969.130518 144.806017 
L 973.694246 163.776101 
L 978.257975 186.326486 
L 982.821704 120.42637 
L 987.385432 123.01226 
L 991.949161 214.730837 
L 996.512889 169.862589 
L 1001.076618 183.911644 
L 1005.640347 88.419367 
L 1010.204075 192.762364 
L 1019.331533 135.810031 
L 1023.895261 126.544779 
L 1028.45899 141.582592 
L 1033.022718 124.534485 
L 1037.586447 164.793046 
L 1042.150176 235.000545 
L 1046.713904 255.764206 
L 1051.277633 86.260137 
L 1055.841362 227.944784 
L 1060.40509 69.383865 
L 1064.968819 206.817072 
L 1069.532547 180.978366 
L 1074.096276 89.997916 
L 1078.660005 151.665 
L 1083.223733 138.747646 
L 1087.787462 181.557272 
L 1092.35119 173.999348 
L 1096.914919 214.800193 
L 1101.478648 177.879808 
L 1106.042376 224.268882 
L 1110.606105 215.030105 
L 1115.169834 141.844712 
L 1119.733562 165.678761 
L 1124.297291 178.130642 
L 1128.861019 159.705628 
L 1133.424748 199.102764 
L 1137.988477 187.882573 
L 1142.552205 166.258798 
L 1147.115934 200.446387 
L 1151.679663 150.398892 
L 1156.243391 257.717012 
L 1160.80712 182.080608 
L 1165.370848 173.867437 
L 1169.934577 84.612387 
L 1174.498306 212.50916 
L 1179.062034 185.568924 
L 1183.625763 162.386936 
L 1188.189492 204.589526 
L 1192.75322 224.025643 
L 1197.316949 165.557442 
L 1201.880677 129.066748 
L 1206.444406 142.04233 
L 1211.008135 164.896227 
L 1215.571863 283.326662 
L 1220.135592 132.58913 
L 1224.69932 81.53334 
L 1229.263049 197.528213 
L 1233.826778 94.343345 
L 1238.390506 146.773214 
L 1242.954235 208.786016 
L 1247.517964 135.948029 
L 1252.081692 142.849534 
L 1261.209149 209.113823 
L 1265.772878 153.646243 
L 1270.336607 188.254393 
L 1274.900335 247.030572 
L 1279.464064 144.779762 
L 1284.027793 159.92106 
L 1288.591521 195.185045 
L 1293.15525 144.716889 
L 1297.718978 149.963733 
L 1302.282707 195.289293 
L 1306.846436 53.569629 
L 1311.410164 191.000136 
L 1315.973893 174.686098 
L 1320.537622 232.631591 
L 1325.10135 192.325001 
L 1329.665079 130.712719 
L 1334.228807 148.414502 
L 1338.792536 208.41086 
L 1343.356265 263.767064 
L 1347.919993 182.652784 
L 1352.483722 161.98214 
L 1357.047451 272.863107 
L 1361.611179 212.689483 
L 1366.174908 144.577935 
L 1366.174908 144.577935 
" style="fill:none;stroke:#1f77b4;stroke-linecap:square;stroke-width:1.5;"/>
   </g>
   <g id="line2d_16">
    <path clip-path="url(#pd1835d7b86)" d="M 202.424109 153.678533 
L 206.987838 49.180642 
L 211.551567 359.196074 
L 216.115295 188.820393 
L 220.679024 360.469707 
L 225.242752 134.345054 
L 229.806481 117.292068 
L 234.37021 358.342451 
L 238.933938 168.703787 
L 243.497667 474.136364 
L 248.061396 155.758663 
L 252.625124 188.236383 
L 257.188853 183.691757 
L 261.752581 174.556065 
L 266.31631 174.357306 
L 270.880039 179.843193 
L 275.443767 164.878459 
L 280.007496 281.945325 
L 284.571225 129.296148 
L 289.134953 229.056715 
L 293.698682 196.103028 
L 298.26241 108.591825 
L 302.826139 188.385337 
L 307.389868 244.706375 
L 311.953596 140.203437 
L 316.517325 211.133048 
L 321.081054 150.750136 
L 325.644782 205.51515 
L 330.208511 267.997267 
L 334.772239 49.629332 
L 339.335968 175.618826 
L 343.899697 113.730489 
L 348.463425 260.586297 
L 353.027154 81.098497 
L 357.590882 145.387503 
L 362.154611 65.084366 
L 366.71834 104.870431 
L 371.282068 368.256053 
L 375.845797 76.7122 
L 380.409526 182.166264 
L 384.973254 180.608626 
L 389.536983 97.516802 
L 394.100711 84.256987 
L 398.66444 279.981754 
L 403.228169 227.050515 
L 407.791897 98.6358 
L 412.355626 131.230769 
L 416.919355 102.401179 
L 421.483083 86.028785 
L 426.046812 109.459095 
L 430.61054 109.151987 
L 435.174269 143.912963 
L 439.737998 125.124484 
L 444.301726 74.952517 
L 448.865455 159.855228 
L 453.429184 120.86506 
L 457.992912 173.427481 
L 462.556641 75.19101 
L 467.120369 91.869215 
L 471.684098 153.367311 
L 476.247827 170.893645 
L 480.811555 132.092285 
L 485.375284 289.278082 
L 489.939012 186.090147 
L 494.502741 90.382239 
L 499.06647 220.80804 
L 503.630198 172.610309 
L 508.193927 88.051838 
L 512.757656 186.675286 
L 517.321384 34.105672 
L 521.885113 165.085436 
L 526.448841 192.662207 
L 531.01257 48.305841 
L 535.576299 167.654559 
L 540.140027 223.341125 
L 544.703756 218.983253 
L 549.267485 119.228625 
L 553.831213 190.910937 
L 558.394942 208.060419 
L 562.95867 157.695727 
L 567.522399 207.991108 
L 572.086128 184.818356 
L 576.649856 160.391004 
L 581.213585 75.828615 
L 585.777314 155.594765 
L 590.341042 108.967717 
L 594.904771 115.860759 
L 599.468499 182.967986 
L 604.032228 141.445517 
L 608.595957 208.855165 
L 613.159685 134.703582 
L 617.723414 64.882953 
L 622.287143 95.350277 
L 626.850871 371.010591 
L 631.4146 125.189558 
L 635.978328 87.967818 
L 640.542057 115.281814 
L 645.105786 206.165389 
L 649.669514 134.80364 
L 654.233243 124.266255 
L 658.796971 192.935319 
L 663.3607 147.241277 
L 667.924429 72.640818 
L 672.488157 208.95613 
L 677.051886 63.635265 
L 681.615615 132.596314 
L 686.179343 185.670024 
L 690.743072 130.291489 
L 695.3068 187.315276 
L 699.870529 165.90741 
L 704.434258 164.854099 
L 708.997986 164.996081 
L 713.561715 123.470566 
L 718.125444 170.992495 
L 722.689172 148.649118 
L 727.252901 228.508296 
L 731.816629 129.911694 
L 736.380358 145.546862 
L 740.944087 136.015031 
L 745.507815 201.754716 
L 750.071544 230.380265 
L 754.635273 105.162204 
L 759.199001 171.844505 
L 763.76273 137.577315 
L 768.326458 151.384692 
L 772.890187 169.266804 
L 777.453916 125.065643 
L 782.017644 177.313775 
L 786.581373 162.115284 
L 791.145101 148.351681 
L 795.70883 75.565149 
L 800.272559 190.978992 
L 804.836287 154.143621 
L 809.400016 225.17685 
L 813.963745 98.288366 
L 818.527473 87.194059 
L 823.091202 234.828409 
L 827.65493 181.81026 
L 832.218659 160.268927 
L 836.782388 152.183701 
L 841.346116 150.730785 
L 845.909845 93.859293 
L 850.473574 155.634922 
L 855.037302 108.977249 
L 859.601031 157.508402 
L 864.164759 187.457062 
L 868.728488 124.913384 
L 873.292217 89.748775 
L 877.855945 241.923232 
L 882.419674 68.788542 
L 886.983403 187.085718 
L 891.547131 172.48868 
L 896.11086 164.319179 
L 900.674588 163.155753 
L 905.238317 121.177209 
L 909.802046 161.667544 
L 914.365774 130.741818 
L 918.929503 168.69961 
L 923.493231 151.991443 
L 928.05696 157.833703 
L 932.620689 147.763087 
L 937.184417 202.127492 
L 941.748146 267.192706 
L 946.311875 338.628653 
L 950.875603 125.559313 
L 955.439332 157.08231 
L 960.00306 287.028237 
L 964.566789 214.151365 
L 969.130518 92.022052 
L 973.694246 170.968252 
L 978.257975 123.982952 
L 982.821704 186.519742 
L 987.385432 119.375004 
L 991.949161 136.714956 
L 996.512889 176.101936 
L 1001.076618 204.278229 
L 1005.640347 66.957102 
L 1010.204075 205.551302 
L 1014.767804 223.380857 
L 1019.331533 112.523692 
L 1023.895261 239.488555 
L 1028.45899 172.101333 
L 1033.022718 176.335103 
L 1037.586447 235.01518 
L 1042.150176 167.747339 
L 1046.713904 189.98292 
L 1051.277633 213.974498 
L 1055.841362 123.986939 
L 1060.40509 142.921362 
L 1064.968819 209.323965 
L 1069.532547 70.033334 
L 1074.096276 250.332947 
L 1078.660005 76.520646 
L 1083.223733 283.88343 
L 1087.787462 153.644077 
L 1092.35119 195.513166 
L 1096.914919 130.137262 
L 1101.478648 235.259708 
L 1106.042376 191.351425 
L 1110.606105 142.283752 
L 1115.169834 173.626079 
L 1119.733562 245.037156 
L 1124.297291 104.969811 
L 1128.861019 166.246126 
L 1133.424748 197.496434 
L 1137.988477 126.24808 
L 1142.552205 141.61619 
L 1147.115934 186.631905 
L 1156.243391 117.747433 
L 1160.80712 117.148596 
L 1165.370848 187.53795 
L 1169.934577 218.979311 
L 1174.498306 128.325957 
L 1179.062034 189.549506 
L 1183.625763 186.173572 
L 1188.189492 32.863636 
L 1192.75322 108.196305 
L 1197.316949 222.043277 
L 1201.880677 379.421507 
L 1206.444406 224.264166 
L 1211.008135 143.480828 
L 1215.571863 220.770016 
L 1220.135592 122.485111 
L 1224.69932 94.605544 
L 1229.263049 47.204853 
L 1233.826778 152.905664 
L 1238.390506 199.961129 
L 1242.954235 277.621361 
L 1247.517964 205.437954 
L 1252.081692 195.385806 
L 1256.645421 159.975999 
L 1261.209149 235.065332 
L 1265.772878 186.852315 
L 1270.336607 180.817395 
L 1274.900335 113.722781 
L 1279.464064 172.300772 
L 1284.027793 185.303343 
L 1288.591521 177.024361 
L 1293.15525 175.117346 
L 1297.718978 205.1397 
L 1302.282707 84.070821 
L 1306.846436 205.573224 
L 1311.410164 127.994731 
L 1315.973893 83.566769 
L 1320.537622 164.745113 
L 1325.10135 186.361604 
L 1329.665079 372.436214 
L 1334.228807 176.817593 
L 1338.792536 252.260035 
L 1343.356265 137.127371 
L 1347.919993 175.35362 
L 1352.483722 199.44791 
L 1357.047451 148.917061 
L 1361.611179 164.572139 
L 1366.174908 332.018052 
L 1366.174908 332.018052 
" style="fill:none;stroke:#ff7f0e;stroke-linecap:square;stroke-width:1.5;"/>
   </g>
   <g id="line2d_17">
    <path clip-path="url(#pd1835d7b86)" d="M 202.424109 193.800157 
L 206.987838 141.248949 
L 211.551567 104.693232 
L 216.115295 184.207809 
L 220.679024 213.404764 
L 225.242752 204.243577 
L 229.806481 116.603569 
L 234.37021 279.352335 
L 238.933938 166.169566 
L 243.497667 96.092233 
L 248.061396 135.628407 
L 252.625124 245.019242 
L 257.188853 199.230628 
L 261.752581 179.249048 
L 266.31631 155.191251 
L 270.880039 155.762854 
L 275.443767 145.313604 
L 280.007496 146.41997 
L 284.571225 188.510742 
L 289.134953 213.022733 
L 293.698682 139.001825 
L 298.26241 114.387924 
L 302.826139 96.106204 
L 307.389868 42.211171 
L 311.953596 129.984473 
L 316.517325 54.971635 
L 321.081054 92.490196 
L 325.644782 107.826915 
L 330.208511 176.253159 
L 334.772239 179.577686 
L 339.335968 125.802032 
L 343.899697 210.921253 
L 348.463425 236.745498 
L 353.027154 216.264797 
L 357.590882 107.511488 
L 362.154611 70.031344 
L 366.71834 203.475138 
L 371.282068 157.862707 
L 375.845797 136.183822 
L 380.409526 220.905471 
L 384.973254 171.537429 
L 389.536983 209.026307 
L 394.100711 169.453308 
L 398.66444 90.118161 
L 403.228169 102.406142 
L 407.791897 158.732019 
L 412.355626 51.908666 
L 416.919355 179.092211 
L 421.483083 146.604379 
L 426.046812 189.661728 
L 430.61054 158.615186 
L 435.174269 92.566965 
L 439.737998 143.787857 
L 444.301726 150.313604 
L 448.865455 239.339903 
L 453.429184 118.264989 
L 457.992912 138.635645 
L 462.556641 145.98814 
L 467.120369 107.242005 
L 471.684098 130.628544 
L 476.247827 110.57096 
L 480.811555 146.755583 
L 485.375284 229.862352 
L 489.939012 218.588474 
L 494.502741 254.070349 
L 499.06647 212.766621 
L 503.630198 68.36235 
L 508.193927 140.273207 
L 512.757656 132.352171 
L 517.321384 147.586915 
L 521.885113 154.730884 
L 526.448841 106.282989 
L 531.01257 135.158348 
L 535.576299 167.123465 
L 540.140027 263.645316 
L 544.703756 148.243623 
L 549.267485 175.935409 
L 553.831213 80.975437 
L 558.394942 166.016603 
L 562.95867 165.095129 
L 567.522399 141.396939 
L 572.086128 250.842466 
L 576.649856 246.635291 
L 581.213585 143.676331 
L 585.777314 224.541861 
L 590.341042 253.031606 
L 594.904771 91.483883 
L 599.468499 212.367077 
L 604.032228 199.007901 
L 608.595957 208.9816 
L 613.159685 177.30825 
L 617.723414 133.213215 
L 622.287143 85.430419 
L 626.850871 222.519891 
L 631.4146 223.383672 
L 635.978328 108.651605 
L 640.542057 157.583144 
L 645.105786 134.551029 
L 649.669514 224.61664 
L 654.233243 168.915865 
L 658.796971 120.811032 
L 663.3607 175.850834 
L 667.924429 178.82906 
L 672.488157 157.965939 
L 677.051886 132.440951 
L 681.615615 216.95506 
L 686.179343 60.126754 
L 690.743072 122.922747 
L 695.3068 163.178723 
L 699.870529 179.69939 
L 704.434258 195.096958 
L 708.997986 197.846057 
L 713.561715 176.654135 
L 718.125444 158.902899 
L 722.689172 249.723137 
L 727.252901 143.439699 
L 731.816629 171.053947 
L 736.380358 105.584373 
L 740.944087 105.457331 
L 745.507815 138.174959 
L 750.071544 173.119967 
L 754.635273 176.433986 
L 759.199001 70.62086 
L 763.76273 137.773897 
L 768.326458 252.815175 
L 772.890187 71.567515 
L 777.453916 148.633556 
L 782.017644 174.047016 
L 786.581373 186.493037 
L 791.145101 207.744133 
L 795.70883 210.472158 
L 800.272559 118.434314 
L 804.836287 184.737214 
L 809.400016 186.847413 
L 813.963745 144.433546 
L 818.527473 142.837173 
L 823.091202 190.666737 
L 827.65493 108.714428 
L 832.218659 161.139213 
L 836.782388 167.19007 
L 841.346116 69.752588 
L 845.909845 207.517361 
L 850.473574 91.74267 
L 855.037302 123.468304 
L 859.601031 187.172123 
L 864.164759 197.50377 
L 868.728488 209.008025 
L 873.292217 177.182598 
L 877.855945 174.548364 
L 882.419674 147.210903 
L 886.983403 157.049834 
L 891.547131 174.912892 
L 896.11086 189.576751 
L 900.674588 181.170195 
L 905.238317 162.947107 
L 909.802046 140.511601 
L 914.365774 110.40176 
L 918.929503 148.299847 
L 923.493231 108.670391 
L 928.05696 63.215742 
L 932.620689 138.394029 
L 937.184417 225.986828 
L 941.748146 173.339519 
L 946.311875 182.949025 
L 950.875603 193.519603 
L 955.439332 202.609367 
L 960.00306 204.748959 
L 964.566789 133.806763 
L 969.130518 218.825497 
L 973.694246 159.629613 
L 978.257975 140.340105 
L 982.821704 152.756474 
L 987.385432 218.500622 
L 991.949161 219.904776 
L 996.512889 224.877933 
L 1001.076618 180.468476 
L 1005.640347 106.025562 
L 1010.204075 237.87437 
L 1014.767804 188.09358 
L 1019.331533 166.803251 
L 1023.895261 152.802176 
L 1028.45899 123.355944 
L 1033.022718 146.403694 
L 1037.586447 70.327403 
L 1042.150176 274.866279 
L 1046.713904 152.188207 
L 1051.277633 135.787431 
L 1055.841362 168.99803 
L 1060.40509 151.836344 
L 1064.968819 160.804112 
L 1069.532547 113.295362 
L 1074.096276 110.56411 
L 1078.660005 123.677992 
L 1083.223733 71.821623 
L 1087.787462 268.932102 
L 1092.35119 226.815795 
L 1096.914919 220.355393 
L 1101.478648 195.742466 
L 1106.042376 211.938479 
L 1110.606105 295.924981 
L 1115.169834 166.39368 
L 1119.733562 72.781674 
L 1124.297291 127.599285 
L 1128.861019 81.310757 
L 1133.424748 160.265087 
L 1137.988477 125.46512 
L 1142.552205 203.891073 
L 1147.115934 198.474009 
L 1151.679663 212.495259 
L 1156.243391 242.807104 
L 1160.80712 210.347362 
L 1165.370848 156.878656 
L 1169.934577 84.617126 
L 1174.498306 204.317505 
L 1179.062034 142.256579 
L 1183.625763 203.496894 
L 1188.189492 195.002736 
L 1192.75322 229.959349 
L 1197.316949 168.226249 
L 1201.880677 130.444312 
L 1206.444406 159.385383 
L 1211.008135 190.359946 
L 1215.571863 148.860161 
L 1220.135592 179.645264 
L 1224.69932 197.209753 
L 1229.263049 108.809497 
L 1233.826778 191.657718 
L 1238.390506 167.689545 
L 1242.954235 106.512013 
L 1247.517964 145.846338 
L 1252.081692 182.233709 
L 1256.645421 172.715888 
L 1261.209149 193.879015 
L 1265.772878 249.293415 
L 1270.336607 169.43107 
L 1274.900335 122.406713 
L 1279.464064 217.005422 
L 1284.027793 214.345155 
L 1288.591521 260.055917 
L 1293.15525 180.247401 
L 1297.718978 171.29214 
L 1302.282707 225.825398 
L 1306.846436 176.477442 
L 1311.410164 121.535247 
L 1315.973893 140.578228 
L 1320.537622 166.064164 
L 1325.10135 114.715514 
L 1329.665079 118.622286 
L 1334.228807 122.67963 
L 1338.792536 204.394918 
L 1343.356265 233.023481 
L 1347.919993 222.809797 
L 1352.483722 177.528579 
L 1357.047451 220.285359 
L 1361.611179 149.948269 
L 1366.174908 206.218367 
L 1366.174908 206.218367 
" style="fill:none;stroke:#2ca02c;stroke-linecap:square;stroke-width:1.5;"/>
   </g>
   <g id="patch_13">
    <path d="M 143.05 496.2 
L 143.05 10.8 
" style="fill:none;stroke:#000000;stroke-linecap:square;stroke-linejoin:miter;stroke-width:0.8;"/>
   </g>
   <g id="patch_14">
    <path d="M 1429.2 496.2 
L 1429.2 10.8 
" style="fill:none;stroke:#000000;stroke-linecap:square;stroke-linejoin:miter;stroke-width:0.8;"/>
   </g>
   <g id="patch_15">
    <path d="M 143.05 496.2 
L 1429.2 496.2 
" style="fill:none;stroke:#000000;stroke-linecap:square;stroke-linejoin:miter;stroke-width:0.8;"/>
   </g>
   <g id="patch_16">
    <path d="M 143.05 10.8 
L 1429.2 10.8 
" style="fill:none;stroke:#000000;stroke-linecap:square;stroke-linejoin:miter;stroke-width:0.8;"/>
   </g>
  </g>
 </g>
 <defs>
  <clipPath id="pd1835d7b86">
   <rect height="485.4" width="1286.15" x="143.05" y="10.8"/>
  </clipPath>
 </defs>
</svg>
