<?xml version="1.0" encoding="utf-8" standalone="no"?>
<!DOCTYPE svg PUBLIC "-//W3C//DTD SVG 1.1//EN"
  "http://www.w3.org/Graphics/SVG/1.1/DTD/svg11.dtd">
<!-- Created with matplotlib (https://matplotlib.org/) -->
<svg height="576pt" version="1.1" viewBox="0 0 1440 576" width="1440pt" xmlns="http://www.w3.org/2000/svg" xmlns:xlink="http://www.w3.org/1999/xlink">
 <defs>
  <style type="text/css">
*{stroke-linecap:butt;stroke-linejoin:round;white-space:pre;}
  </style>
 </defs>
 <g id="figure_1">
  <g id="patch_1">
   <path d="M 0 576 
L 1440 576 
L 1440 0 
L 0 0 
z
" style="fill:#ffffff;"/>
  </g>
  <g id="axes_1">
   <g id="patch_2">
    <path d="M 143.05 496.2 
L 1429.2 496.2 
L 1429.2 10.8 
L 143.05 10.8 
z
" style="fill:#ffffff;"/>
   </g>
   <g id="patch_3">
    <path clip-path="url(#pdb7c6b6a28)" d="M 201.511364 496.2 
L 201.511364 10.8 
L 202.424109 10.8 
L 202.424109 496.2 
z
" style="fill:#0000ff;"/>
   </g>
   <g id="patch_4">
    <path clip-path="url(#pdb7c6b6a28)" d="M 206.075092 496.2 
L 206.075092 10.8 
L 206.987838 10.8 
L 206.987838 496.2 
z
" style="fill:#0000ff;"/>
   </g>
   <g id="patch_5">
    <path clip-path="url(#pdb7c6b6a28)" d="M 242.584921 496.2 
L 242.584921 10.8 
L 243.497667 10.8 
L 243.497667 496.2 
z
" style="fill:#0000ff;"/>
   </g>
   <g id="patch_6">
    <path clip-path="url(#pdb7c6b6a28)" d="M 370.369323 496.2 
L 370.369323 10.8 
L 371.282068 10.8 
L 371.282068 496.2 
z
" style="fill:#0000ff;"/>
   </g>
   <g id="patch_7">
    <path clip-path="url(#pdb7c6b6a28)" d="M 625.938125 496.2 
L 625.938125 10.8 
L 626.850871 10.8 
L 626.850871 496.2 
z
" style="fill:#0000ff;"/>
   </g>
   <g id="patch_8">
    <path clip-path="url(#pdb7c6b6a28)" d="M 945.399129 496.2 
L 945.399129 10.8 
L 946.311875 10.8 
L 946.311875 496.2 
z
" style="fill:#0000ff;"/>
   </g>
   <g id="patch_9">
    <path clip-path="url(#pdb7c6b6a28)" d="M 1200.967932 496.2 
L 1200.967932 10.8 
L 1201.880677 10.8 
L 1201.880677 496.2 
z
" style="fill:#0000ff;"/>
   </g>
   <g id="patch_10">
    <path clip-path="url(#pdb7c6b6a28)" d="M 1328.752333 496.2 
L 1328.752333 10.8 
L 1329.665079 10.8 
L 1329.665079 496.2 
z
" style="fill:#0000ff;"/>
   </g>
   <g id="patch_11">
    <path clip-path="url(#pdb7c6b6a28)" d="M 1365.262162 496.2 
L 1365.262162 10.8 
L 1366.174908 10.8 
L 1366.174908 496.2 
z
" style="fill:#0000ff;"/>
   </g>
   <g id="patch_12">
    <path clip-path="url(#pdb7c6b6a28)" d="M 1369.825891 496.2 
L 1369.825891 10.8 
L 1370.738636 10.8 
L 1370.738636 496.2 
z
" style="fill:#0000ff;"/>
   </g>
   <g id="matplotlib.axis_1">
    <g id="xtick_1">
     <g id="line2d_1">
      <defs>
       <path d="M 0 0 
L 0 3.5 
" id="m485c420706" style="stroke:#000000;stroke-width:0.8;"/>
      </defs>
      <g>
       <use style="stroke:#000000;stroke-width:0.8;" x="202.424109" xlink:href="#m485c420706" y="496.2"/>
      </g>
     </g>
     <g id="text_1">
      <!-- 0 -->
      <defs>
       <path d="M 31.78125 66.40625 
Q 24.171875 66.40625 20.328125 58.90625 
Q 16.5 51.421875 16.5 36.375 
Q 16.5 21.390625 20.328125 13.890625 
Q 24.171875 6.390625 31.78125 6.390625 
Q 39.453125 6.390625 43.28125 13.890625 
Q 47.125 21.390625 47.125 36.375 
Q 47.125 51.421875 43.28125 58.90625 
Q 39.453125 66.40625 31.78125 66.40625 
z
M 31.78125 74.21875 
Q 44.046875 74.21875 50.515625 64.515625 
Q 56.984375 54.828125 56.984375 36.375 
Q 56.984375 17.96875 50.515625 8.265625 
Q 44.046875 -1.421875 31.78125 -1.421875 
Q 19.53125 -1.421875 13.0625 8.265625 
Q 6.59375 17.96875 6.59375 36.375 
Q 6.59375 54.828125 13.0625 64.515625 
Q 19.53125 74.21875 31.78125 74.21875 
z
" id="DejaVuSans-48"/>
      </defs>
      <g transform="translate(192.880359 525.995312)scale(0.3 -0.3)">
       <use xlink:href="#DejaVuSans-48"/>
      </g>
     </g>
    </g>
    <g id="xtick_2">
     <g id="line2d_2">
      <g>
       <use style="stroke:#000000;stroke-width:0.8;" x="430.61054" xlink:href="#m485c420706" y="496.2"/>
      </g>
     </g>
     <g id="text_2">
      <!-- 50 -->
      <defs>
       <path d="M 10.796875 72.90625 
L 49.515625 72.90625 
L 49.515625 64.59375 
L 19.828125 64.59375 
L 19.828125 46.734375 
Q 21.96875 47.46875 24.109375 47.828125 
Q 26.265625 48.1875 28.421875 48.1875 
Q 40.625 48.1875 47.75 41.5 
Q 54.890625 34.8125 54.890625 23.390625 
Q 54.890625 11.625 47.5625 5.09375 
Q 40.234375 -1.421875 26.90625 -1.421875 
Q 22.3125 -1.421875 17.546875 -0.640625 
Q 12.796875 0.140625 7.71875 1.703125 
L 7.71875 11.625 
Q 12.109375 9.234375 16.796875 8.0625 
Q 21.484375 6.890625 26.703125 6.890625 
Q 35.15625 6.890625 40.078125 11.328125 
Q 45.015625 15.765625 45.015625 23.390625 
Q 45.015625 31 40.078125 35.4375 
Q 35.15625 39.890625 26.703125 39.890625 
Q 22.75 39.890625 18.8125 39.015625 
Q 14.890625 38.140625 10.796875 36.28125 
z
" id="DejaVuSans-53"/>
      </defs>
      <g transform="translate(411.52304 525.995312)scale(0.3 -0.3)">
       <use xlink:href="#DejaVuSans-53"/>
       <use x="63.623047" xlink:href="#DejaVuSans-48"/>
      </g>
     </g>
    </g>
    <g id="xtick_3">
     <g id="line2d_3">
      <g>
       <use style="stroke:#000000;stroke-width:0.8;" x="658.796971" xlink:href="#m485c420706" y="496.2"/>
      </g>
     </g>
     <g id="text_3">
      <!-- 100 -->
      <defs>
       <path d="M 12.40625 8.296875 
L 28.515625 8.296875 
L 28.515625 63.921875 
L 10.984375 60.40625 
L 10.984375 69.390625 
L 28.421875 72.90625 
L 38.28125 72.90625 
L 38.28125 8.296875 
L 54.390625 8.296875 
L 54.390625 0 
L 12.40625 0 
z
" id="DejaVuSans-49"/>
      </defs>
      <g transform="translate(630.165721 525.995312)scale(0.3 -0.3)">
       <use xlink:href="#DejaVuSans-49"/>
       <use x="63.623047" xlink:href="#DejaVuSans-48"/>
       <use x="127.246094" xlink:href="#DejaVuSans-48"/>
      </g>
     </g>
    </g>
    <g id="xtick_4">
     <g id="line2d_4">
      <g>
       <use style="stroke:#000000;stroke-width:0.8;" x="886.983403" xlink:href="#m485c420706" y="496.2"/>
      </g>
     </g>
     <g id="text_4">
      <!-- 150 -->
      <g transform="translate(858.352153 525.995312)scale(0.3 -0.3)">
       <use xlink:href="#DejaVuSans-49"/>
       <use x="63.623047" xlink:href="#DejaVuSans-53"/>
       <use x="127.246094" xlink:href="#DejaVuSans-48"/>
      </g>
     </g>
    </g>
    <g id="xtick_5">
     <g id="line2d_5">
      <g>
       <use style="stroke:#000000;stroke-width:0.8;" x="1115.169834" xlink:href="#m485c420706" y="496.2"/>
      </g>
     </g>
     <g id="text_5">
      <!-- 200 -->
      <defs>
       <path d="M 19.1875 8.296875 
L 53.609375 8.296875 
L 53.609375 0 
L 7.328125 0 
L 7.328125 8.296875 
Q 12.9375 14.109375 22.625 23.890625 
Q 32.328125 33.6875 34.8125 36.53125 
Q 39.546875 41.84375 41.421875 45.53125 
Q 43.3125 49.21875 43.3125 52.78125 
Q 43.3125 58.59375 39.234375 62.25 
Q 35.15625 65.921875 28.609375 65.921875 
Q 23.96875 65.921875 18.8125 64.3125 
Q 13.671875 62.703125 7.8125 59.421875 
L 7.8125 69.390625 
Q 13.765625 71.78125 18.9375 73 
Q 24.125 74.21875 28.421875 74.21875 
Q 39.75 74.21875 46.484375 68.546875 
Q 53.21875 62.890625 53.21875 53.421875 
Q 53.21875 48.921875 51.53125 44.890625 
Q 49.859375 40.875 45.40625 35.40625 
Q 44.1875 33.984375 37.640625 27.21875 
Q 31.109375 20.453125 19.1875 8.296875 
z
" id="DejaVuSans-50"/>
      </defs>
      <g transform="translate(1086.538584 525.995312)scale(0.3 -0.3)">
       <use xlink:href="#DejaVuSans-50"/>
       <use x="63.623047" xlink:href="#DejaVuSans-48"/>
       <use x="127.246094" xlink:href="#DejaVuSans-48"/>
      </g>
     </g>
    </g>
    <g id="xtick_6">
     <g id="line2d_6">
      <g>
       <use style="stroke:#000000;stroke-width:0.8;" x="1343.356265" xlink:href="#m485c420706" y="496.2"/>
      </g>
     </g>
     <g id="text_6">
      <!-- 250 -->
      <g transform="translate(1314.725015 525.995312)scale(0.3 -0.3)">
       <use xlink:href="#DejaVuSans-50"/>
       <use x="63.623047" xlink:href="#DejaVuSans-53"/>
       <use x="127.246094" xlink:href="#DejaVuSans-48"/>
      </g>
     </g>
    </g>
    <g id="text_7">
     <!-- Bit Interaction -->
     <defs>
      <path d="M 19.671875 34.8125 
L 19.671875 8.109375 
L 35.5 8.109375 
Q 43.453125 8.109375 47.28125 11.40625 
Q 51.125 14.703125 51.125 21.484375 
Q 51.125 28.328125 47.28125 31.5625 
Q 43.453125 34.8125 35.5 34.8125 
z
M 19.671875 64.796875 
L 19.671875 42.828125 
L 34.28125 42.828125 
Q 41.5 42.828125 45.03125 45.53125 
Q 48.578125 48.25 48.578125 53.8125 
Q 48.578125 59.328125 45.03125 62.0625 
Q 41.5 64.796875 34.28125 64.796875 
z
M 9.8125 72.90625 
L 35.015625 72.90625 
Q 46.296875 72.90625 52.390625 68.21875 
Q 58.5 63.53125 58.5 54.890625 
Q 58.5 48.1875 55.375 44.234375 
Q 52.25 40.28125 46.1875 39.3125 
Q 53.46875 37.75 57.5 32.78125 
Q 61.53125 27.828125 61.53125 20.40625 
Q 61.53125 10.640625 54.890625 5.3125 
Q 48.25 0 35.984375 0 
L 9.8125 0 
z
" id="DejaVuSans-66"/>
      <path d="M 9.421875 54.6875 
L 18.40625 54.6875 
L 18.40625 0 
L 9.421875 0 
z
M 9.421875 75.984375 
L 18.40625 75.984375 
L 18.40625 64.59375 
L 9.421875 64.59375 
z
" id="DejaVuSans-105"/>
      <path d="M 18.3125 70.21875 
L 18.3125 54.6875 
L 36.8125 54.6875 
L 36.8125 47.703125 
L 18.3125 47.703125 
L 18.3125 18.015625 
Q 18.3125 11.328125 20.140625 9.421875 
Q 21.96875 7.515625 27.59375 7.515625 
L 36.8125 7.515625 
L 36.8125 0 
L 27.59375 0 
Q 17.1875 0 13.234375 3.875 
Q 9.28125 7.765625 9.28125 18.015625 
L 9.28125 47.703125 
L 2.6875 47.703125 
L 2.6875 54.6875 
L 9.28125 54.6875 
L 9.28125 70.21875 
z
" id="DejaVuSans-116"/>
      <path id="DejaVuSans-32"/>
      <path d="M 9.8125 72.90625 
L 19.671875 72.90625 
L 19.671875 0 
L 9.8125 0 
z
" id="DejaVuSans-73"/>
      <path d="M 54.890625 33.015625 
L 54.890625 0 
L 45.90625 0 
L 45.90625 32.71875 
Q 45.90625 40.484375 42.875 44.328125 
Q 39.84375 48.1875 33.796875 48.1875 
Q 26.515625 48.1875 22.3125 43.546875 
Q 18.109375 38.921875 18.109375 30.90625 
L 18.109375 0 
L 9.078125 0 
L 9.078125 54.6875 
L 18.109375 54.6875 
L 18.109375 46.1875 
Q 21.34375 51.125 25.703125 53.5625 
Q 30.078125 56 35.796875 56 
Q 45.21875 56 50.046875 50.171875 
Q 54.890625 44.34375 54.890625 33.015625 
z
" id="DejaVuSans-110"/>
      <path d="M 56.203125 29.59375 
L 56.203125 25.203125 
L 14.890625 25.203125 
Q 15.484375 15.921875 20.484375 11.0625 
Q 25.484375 6.203125 34.421875 6.203125 
Q 39.59375 6.203125 44.453125 7.46875 
Q 49.3125 8.734375 54.109375 11.28125 
L 54.109375 2.78125 
Q 49.265625 0.734375 44.1875 -0.34375 
Q 39.109375 -1.421875 33.890625 -1.421875 
Q 20.796875 -1.421875 13.15625 6.1875 
Q 5.515625 13.8125 5.515625 26.8125 
Q 5.515625 40.234375 12.765625 48.109375 
Q 20.015625 56 32.328125 56 
Q 43.359375 56 49.78125 48.890625 
Q 56.203125 41.796875 56.203125 29.59375 
z
M 47.21875 32.234375 
Q 47.125 39.59375 43.09375 43.984375 
Q 39.0625 48.390625 32.421875 48.390625 
Q 24.90625 48.390625 20.390625 44.140625 
Q 15.875 39.890625 15.1875 32.171875 
z
" id="DejaVuSans-101"/>
      <path d="M 41.109375 46.296875 
Q 39.59375 47.171875 37.8125 47.578125 
Q 36.03125 48 33.890625 48 
Q 26.265625 48 22.1875 43.046875 
Q 18.109375 38.09375 18.109375 28.8125 
L 18.109375 0 
L 9.078125 0 
L 9.078125 54.6875 
L 18.109375 54.6875 
L 18.109375 46.1875 
Q 20.953125 51.171875 25.484375 53.578125 
Q 30.03125 56 36.53125 56 
Q 37.453125 56 38.578125 55.875 
Q 39.703125 55.765625 41.0625 55.515625 
z
" id="DejaVuSans-114"/>
      <path d="M 34.28125 27.484375 
Q 23.390625 27.484375 19.1875 25 
Q 14.984375 22.515625 14.984375 16.5 
Q 14.984375 11.71875 18.140625 8.90625 
Q 21.296875 6.109375 26.703125 6.109375 
Q 34.1875 6.109375 38.703125 11.40625 
Q 43.21875 16.703125 43.21875 25.484375 
L 43.21875 27.484375 
z
M 52.203125 31.203125 
L 52.203125 0 
L 43.21875 0 
L 43.21875 8.296875 
Q 40.140625 3.328125 35.546875 0.953125 
Q 30.953125 -1.421875 24.3125 -1.421875 
Q 15.921875 -1.421875 10.953125 3.296875 
Q 6 8.015625 6 15.921875 
Q 6 25.140625 12.171875 29.828125 
Q 18.359375 34.515625 30.609375 34.515625 
L 43.21875 34.515625 
L 43.21875 35.40625 
Q 43.21875 41.609375 39.140625 45 
Q 35.0625 48.390625 27.6875 48.390625 
Q 23 48.390625 18.546875 47.265625 
Q 14.109375 46.140625 10.015625 43.890625 
L 10.015625 52.203125 
Q 14.9375 54.109375 19.578125 55.046875 
Q 24.21875 56 28.609375 56 
Q 40.484375 56 46.34375 49.84375 
Q 52.203125 43.703125 52.203125 31.203125 
z
" id="DejaVuSans-97"/>
      <path d="M 48.78125 52.59375 
L 48.78125 44.1875 
Q 44.96875 46.296875 41.140625 47.34375 
Q 37.3125 48.390625 33.40625 48.390625 
Q 24.65625 48.390625 19.8125 42.84375 
Q 14.984375 37.3125 14.984375 27.296875 
Q 14.984375 17.28125 19.8125 11.734375 
Q 24.65625 6.203125 33.40625 6.203125 
Q 37.3125 6.203125 41.140625 7.25 
Q 44.96875 8.296875 48.78125 10.40625 
L 48.78125 2.09375 
Q 45.015625 0.34375 40.984375 -0.53125 
Q 36.96875 -1.421875 32.421875 -1.421875 
Q 20.0625 -1.421875 12.78125 6.34375 
Q 5.515625 14.109375 5.515625 27.296875 
Q 5.515625 40.671875 12.859375 48.328125 
Q 20.21875 56 33.015625 56 
Q 37.15625 56 41.109375 55.140625 
Q 45.0625 54.296875 48.78125 52.59375 
z
" id="DejaVuSans-99"/>
      <path d="M 30.609375 48.390625 
Q 23.390625 48.390625 19.1875 42.75 
Q 14.984375 37.109375 14.984375 27.296875 
Q 14.984375 17.484375 19.15625 11.84375 
Q 23.34375 6.203125 30.609375 6.203125 
Q 37.796875 6.203125 41.984375 11.859375 
Q 46.1875 17.53125 46.1875 27.296875 
Q 46.1875 37.015625 41.984375 42.703125 
Q 37.796875 48.390625 30.609375 48.390625 
z
M 30.609375 56 
Q 42.328125 56 49.015625 48.375 
Q 55.71875 40.765625 55.71875 27.296875 
Q 55.71875 13.875 49.015625 6.21875 
Q 42.328125 -1.421875 30.609375 -1.421875 
Q 18.84375 -1.421875 12.171875 6.21875 
Q 5.515625 13.875 5.515625 27.296875 
Q 5.515625 40.765625 12.171875 48.375 
Q 18.84375 56 30.609375 56 
z
" id="DejaVuSans-111"/>
     </defs>
     <g transform="translate(679.639063 559.029688)scale(0.3 -0.3)">
      <use xlink:href="#DejaVuSans-66"/>
      <use x="68.603516" xlink:href="#DejaVuSans-105"/>
      <use x="96.386719" xlink:href="#DejaVuSans-116"/>
      <use x="135.595703" xlink:href="#DejaVuSans-32"/>
      <use x="167.382812" xlink:href="#DejaVuSans-73"/>
      <use x="196.875" xlink:href="#DejaVuSans-110"/>
      <use x="260.253906" xlink:href="#DejaVuSans-116"/>
      <use x="299.462891" xlink:href="#DejaVuSans-101"/>
      <use x="360.986328" xlink:href="#DejaVuSans-114"/>
      <use x="402.099609" xlink:href="#DejaVuSans-97"/>
      <use x="463.378906" xlink:href="#DejaVuSans-99"/>
      <use x="518.359375" xlink:href="#DejaVuSans-116"/>
      <use x="557.568359" xlink:href="#DejaVuSans-105"/>
      <use x="585.351562" xlink:href="#DejaVuSans-111"/>
      <use x="646.533203" xlink:href="#DejaVuSans-110"/>
     </g>
    </g>
   </g>
   <g id="matplotlib.axis_2">
    <g id="ytick_1">
     <g id="line2d_7">
      <defs>
       <path d="M 0 0 
L -3.5 0 
" id="m5194352d49" style="stroke:#000000;stroke-width:0.8;"/>
      </defs>
      <g>
       <use style="stroke:#000000;stroke-width:0.8;" x="143.05" xlink:href="#m5194352d49" y="473.600163"/>
      </g>
     </g>
     <g id="text_8">
      <!-- −1.25 -->
      <defs>
       <path d="M 10.59375 35.5 
L 73.1875 35.5 
L 73.1875 27.203125 
L 10.59375 27.203125 
z
" id="DejaVuSans-8722"/>
       <path d="M 10.6875 12.40625 
L 21 12.40625 
L 21 0 
L 10.6875 0 
z
" id="DejaVuSans-46"/>
      </defs>
      <g transform="translate(44.114063 484.99782)scale(0.3 -0.3)">
       <use xlink:href="#DejaVuSans-8722"/>
       <use x="83.789062" xlink:href="#DejaVuSans-49"/>
       <use x="147.412109" xlink:href="#DejaVuSans-46"/>
       <use x="179.199219" xlink:href="#DejaVuSans-50"/>
       <use x="242.822266" xlink:href="#DejaVuSans-53"/>
      </g>
     </g>
    </g>
    <g id="ytick_2">
     <g id="line2d_8">
      <g>
       <use style="stroke:#000000;stroke-width:0.8;" x="143.05" xlink:href="#m5194352d49" y="414.450552"/>
      </g>
     </g>
     <g id="text_9">
      <!-- −1.00 -->
      <g transform="translate(44.114063 425.848209)scale(0.3 -0.3)">
       <use xlink:href="#DejaVuSans-8722"/>
       <use x="83.789062" xlink:href="#DejaVuSans-49"/>
       <use x="147.412109" xlink:href="#DejaVuSans-46"/>
       <use x="179.199219" xlink:href="#DejaVuSans-48"/>
       <use x="242.822266" xlink:href="#DejaVuSans-48"/>
      </g>
     </g>
    </g>
    <g id="ytick_3">
     <g id="line2d_9">
      <g>
       <use style="stroke:#000000;stroke-width:0.8;" x="143.05" xlink:href="#m5194352d49" y="355.300941"/>
      </g>
     </g>
     <g id="text_10">
      <!-- −0.75 -->
      <defs>
       <path d="M 8.203125 72.90625 
L 55.078125 72.90625 
L 55.078125 68.703125 
L 28.609375 0 
L 18.3125 0 
L 43.21875 64.59375 
L 8.203125 64.59375 
z
" id="DejaVuSans-55"/>
      </defs>
      <g transform="translate(44.114063 366.698598)scale(0.3 -0.3)">
       <use xlink:href="#DejaVuSans-8722"/>
       <use x="83.789062" xlink:href="#DejaVuSans-48"/>
       <use x="147.412109" xlink:href="#DejaVuSans-46"/>
       <use x="179.199219" xlink:href="#DejaVuSans-55"/>
       <use x="242.822266" xlink:href="#DejaVuSans-53"/>
      </g>
     </g>
    </g>
    <g id="ytick_4">
     <g id="line2d_10">
      <g>
       <use style="stroke:#000000;stroke-width:0.8;" x="143.05" xlink:href="#m5194352d49" y="296.15133"/>
      </g>
     </g>
     <g id="text_11">
      <!-- −0.50 -->
      <g transform="translate(44.114063 307.548987)scale(0.3 -0.3)">
       <use xlink:href="#DejaVuSans-8722"/>
       <use x="83.789062" xlink:href="#DejaVuSans-48"/>
       <use x="147.412109" xlink:href="#DejaVuSans-46"/>
       <use x="179.199219" xlink:href="#DejaVuSans-53"/>
       <use x="242.822266" xlink:href="#DejaVuSans-48"/>
      </g>
     </g>
    </g>
    <g id="ytick_5">
     <g id="line2d_11">
      <g>
       <use style="stroke:#000000;stroke-width:0.8;" x="143.05" xlink:href="#m5194352d49" y="237.001719"/>
      </g>
     </g>
     <g id="text_12">
      <!-- −0.25 -->
      <g transform="translate(44.114063 248.399376)scale(0.3 -0.3)">
       <use xlink:href="#DejaVuSans-8722"/>
       <use x="83.789062" xlink:href="#DejaVuSans-48"/>
       <use x="147.412109" xlink:href="#DejaVuSans-46"/>
       <use x="179.199219" xlink:href="#DejaVuSans-50"/>
       <use x="242.822266" xlink:href="#DejaVuSans-53"/>
      </g>
     </g>
    </g>
    <g id="ytick_6">
     <g id="line2d_12">
      <g>
       <use style="stroke:#000000;stroke-width:0.8;" x="143.05" xlink:href="#m5194352d49" y="177.852108"/>
      </g>
     </g>
     <g id="text_13">
      <!-- 0.00 -->
      <g transform="translate(69.253125 189.249765)scale(0.3 -0.3)">
       <use xlink:href="#DejaVuSans-48"/>
       <use x="63.623047" xlink:href="#DejaVuSans-46"/>
       <use x="95.410156" xlink:href="#DejaVuSans-48"/>
       <use x="159.033203" xlink:href="#DejaVuSans-48"/>
      </g>
     </g>
    </g>
    <g id="ytick_7">
     <g id="line2d_13">
      <g>
       <use style="stroke:#000000;stroke-width:0.8;" x="143.05" xlink:href="#m5194352d49" y="118.702497"/>
      </g>
     </g>
     <g id="text_14">
      <!-- 0.25 -->
      <g transform="translate(69.253125 130.100154)scale(0.3 -0.3)">
       <use xlink:href="#DejaVuSans-48"/>
       <use x="63.623047" xlink:href="#DejaVuSans-46"/>
       <use x="95.410156" xlink:href="#DejaVuSans-50"/>
       <use x="159.033203" xlink:href="#DejaVuSans-53"/>
      </g>
     </g>
    </g>
    <g id="ytick_8">
     <g id="line2d_14">
      <g>
       <use style="stroke:#000000;stroke-width:0.8;" x="143.05" xlink:href="#m5194352d49" y="59.552886"/>
      </g>
     </g>
     <g id="text_15">
      <!-- 0.50 -->
      <g transform="translate(69.253125 70.950542)scale(0.3 -0.3)">
       <use xlink:href="#DejaVuSans-48"/>
       <use x="63.623047" xlink:href="#DejaVuSans-46"/>
       <use x="95.410156" xlink:href="#DejaVuSans-53"/>
       <use x="159.033203" xlink:href="#DejaVuSans-48"/>
      </g>
     </g>
    </g>
    <g id="text_16">
     <!-- Weight Value -->
     <defs>
      <path d="M 3.328125 72.90625 
L 13.28125 72.90625 
L 28.609375 11.28125 
L 43.890625 72.90625 
L 54.984375 72.90625 
L 70.3125 11.28125 
L 85.59375 72.90625 
L 95.609375 72.90625 
L 77.296875 0 
L 64.890625 0 
L 49.515625 63.28125 
L 33.984375 0 
L 21.578125 0 
z
" id="DejaVuSans-87"/>
      <path d="M 45.40625 27.984375 
Q 45.40625 37.75 41.375 43.109375 
Q 37.359375 48.484375 30.078125 48.484375 
Q 22.859375 48.484375 18.828125 43.109375 
Q 14.796875 37.75 14.796875 27.984375 
Q 14.796875 18.265625 18.828125 12.890625 
Q 22.859375 7.515625 30.078125 7.515625 
Q 37.359375 7.515625 41.375 12.890625 
Q 45.40625 18.265625 45.40625 27.984375 
z
M 54.390625 6.78125 
Q 54.390625 -7.171875 48.1875 -13.984375 
Q 42 -20.796875 29.203125 -20.796875 
Q 24.46875 -20.796875 20.265625 -20.09375 
Q 16.0625 -19.390625 12.109375 -17.921875 
L 12.109375 -9.1875 
Q 16.0625 -11.328125 19.921875 -12.34375 
Q 23.78125 -13.375 27.78125 -13.375 
Q 36.625 -13.375 41.015625 -8.765625 
Q 45.40625 -4.15625 45.40625 5.171875 
L 45.40625 9.625 
Q 42.625 4.78125 38.28125 2.390625 
Q 33.9375 0 27.875 0 
Q 17.828125 0 11.671875 7.65625 
Q 5.515625 15.328125 5.515625 27.984375 
Q 5.515625 40.671875 11.671875 48.328125 
Q 17.828125 56 27.875 56 
Q 33.9375 56 38.28125 53.609375 
Q 42.625 51.21875 45.40625 46.390625 
L 45.40625 54.6875 
L 54.390625 54.6875 
z
" id="DejaVuSans-103"/>
      <path d="M 54.890625 33.015625 
L 54.890625 0 
L 45.90625 0 
L 45.90625 32.71875 
Q 45.90625 40.484375 42.875 44.328125 
Q 39.84375 48.1875 33.796875 48.1875 
Q 26.515625 48.1875 22.3125 43.546875 
Q 18.109375 38.921875 18.109375 30.90625 
L 18.109375 0 
L 9.078125 0 
L 9.078125 75.984375 
L 18.109375 75.984375 
L 18.109375 46.1875 
Q 21.34375 51.125 25.703125 53.5625 
Q 30.078125 56 35.796875 56 
Q 45.21875 56 50.046875 50.171875 
Q 54.890625 44.34375 54.890625 33.015625 
z
" id="DejaVuSans-104"/>
      <path d="M 28.609375 0 
L 0.78125 72.90625 
L 11.078125 72.90625 
L 34.1875 11.53125 
L 57.328125 72.90625 
L 67.578125 72.90625 
L 39.796875 0 
z
" id="DejaVuSans-86"/>
      <path d="M 9.421875 75.984375 
L 18.40625 75.984375 
L 18.40625 0 
L 9.421875 0 
z
" id="DejaVuSans-108"/>
      <path d="M 8.5 21.578125 
L 8.5 54.6875 
L 17.484375 54.6875 
L 17.484375 21.921875 
Q 17.484375 14.15625 20.5 10.265625 
Q 23.53125 6.390625 29.59375 6.390625 
Q 36.859375 6.390625 41.078125 11.03125 
Q 45.3125 15.671875 45.3125 23.6875 
L 45.3125 54.6875 
L 54.296875 54.6875 
L 54.296875 0 
L 45.3125 0 
L 45.3125 8.40625 
Q 42.046875 3.421875 37.71875 1 
Q 33.40625 -1.421875 27.6875 -1.421875 
Q 18.265625 -1.421875 13.375 4.4375 
Q 8.5 10.296875 8.5 21.578125 
z
M 31.109375 56 
z
" id="DejaVuSans-117"/>
     </defs>
     <g transform="translate(33.875 353.732813)rotate(-90)scale(0.3 -0.3)">
      <use xlink:href="#DejaVuSans-87"/>
      <use x="98.798828" xlink:href="#DejaVuSans-101"/>
      <use x="160.322266" xlink:href="#DejaVuSans-105"/>
      <use x="188.105469" xlink:href="#DejaVuSans-103"/>
      <use x="251.582031" xlink:href="#DejaVuSans-104"/>
      <use x="314.960938" xlink:href="#DejaVuSans-116"/>
      <use x="354.169922" xlink:href="#DejaVuSans-32"/>
      <use x="385.957031" xlink:href="#DejaVuSans-86"/>
      <use x="454.255859" xlink:href="#DejaVuSans-97"/>
      <use x="515.535156" xlink:href="#DejaVuSans-108"/>
      <use x="543.318359" xlink:href="#DejaVuSans-117"/>
      <use x="606.697266" xlink:href="#DejaVuSans-101"/>
     </g>
    </g>
   </g>
   <g id="line2d_15">
    <path clip-path="url(#pdb7c6b6a28)" d="M 202.424109 162.593695 
L 206.987838 166.01738 
L 211.551567 141.794674 
L 216.115295 250.761306 
L 220.679024 160.376668 
L 225.242752 83.482881 
L 229.806481 209.932534 
L 234.37021 231.697287 
L 238.933938 141.869371 
L 243.497667 209.610461 
L 248.061396 287.18097 
L 252.625124 144.783776 
L 257.188853 134.649908 
L 261.752581 202.072381 
L 266.31631 276.560937 
L 270.880039 79.996431 
L 275.443767 164.775058 
L 280.007496 177.240871 
L 284.571225 99.320713 
L 289.134953 152.193332 
L 293.698682 275.966402 
L 298.26241 246.416727 
L 302.826139 160.131422 
L 307.389868 220.209743 
L 311.953596 164.182775 
L 316.517325 172.702794 
L 321.081054 127.645009 
L 325.644782 185.935143 
L 330.208511 105.906377 
L 334.772239 142.182436 
L 339.335968 202.022841 
L 343.899697 233.381184 
L 348.463425 188.595858 
L 353.027154 193.893227 
L 357.590882 203.770399 
L 362.154611 78.11246 
L 366.71834 236.003519 
L 371.282068 193.66504 
L 375.845797 233.007002 
L 380.409526 129.585212 
L 384.973254 263.137959 
L 389.536983 266.61257 
L 394.100711 174.951467 
L 398.66444 164.028628 
L 403.228169 92.833427 
L 407.791897 163.353187 
L 412.355626 151.976842 
L 416.919355 81.326658 
L 421.483083 80.32472 
L 426.046812 236.298649 
L 430.61054 212.366141 
L 435.174269 123.750792 
L 439.737998 184.906463 
L 444.301726 235.089192 
L 448.865455 120.644887 
L 453.429184 287.757553 
L 457.992912 136.233152 
L 462.556641 153.527138 
L 467.120369 116.982495 
L 471.684098 192.66828 
L 476.247827 99.770402 
L 480.811555 209.701752 
L 485.375284 94.46775 
L 489.939012 209.270005 
L 494.502741 143.289204 
L 499.06647 45.228986 
L 503.630198 108.156818 
L 508.193927 276.854752 
L 512.757656 90.393689 
L 517.321384 202.124345 
L 521.885113 251.2991 
L 526.448841 193.395209 
L 531.01257 160.473563 
L 535.576299 193.703385 
L 540.140027 262.168506 
L 544.703756 65.72937 
L 549.267485 266.098835 
L 553.831213 165.929336 
L 558.394942 243.246254 
L 562.95867 169.329423 
L 567.522399 248.795958 
L 572.086128 137.406145 
L 576.649856 197.934102 
L 581.213585 156.714955 
L 585.777314 166.530132 
L 590.341042 132.570264 
L 599.468499 245.894065 
L 604.032228 149.238183 
L 608.595957 197.614223 
L 613.159685 244.374542 
L 617.723414 132.427008 
L 622.287143 58.659995 
L 626.850871 111.298297 
L 631.4146 147.627279 
L 635.978328 237.814968 
L 640.542057 125.240703 
L 645.105786 287.541575 
L 649.669514 149.227175 
L 654.233243 216.758506 
L 658.796971 139.444053 
L 663.3607 247.032775 
L 667.924429 157.178323 
L 672.488157 165.02442 
L 677.051886 212.384163 
L 681.615615 143.585287 
L 686.179343 243.273302 
L 690.743072 190.784188 
L 695.3068 107.877852 
L 699.870529 112.690214 
L 704.434258 283.393448 
L 708.997986 226.50714 
L 713.561715 199.928844 
L 718.125444 267.717766 
L 722.689172 173.734073 
L 727.252901 268.154051 
L 731.816629 69.439378 
L 736.380358 148.81164 
L 740.944087 163.738551 
L 745.507815 96.348547 
L 750.071544 204.342806 
L 754.635273 116.568224 
L 759.199001 213.799748 
L 763.76273 206.561013 
L 768.326458 255.979704 
L 772.890187 231.742813 
L 777.453916 119.748167 
L 782.017644 151.388322 
L 786.581373 249.123733 
L 791.145101 223.79387 
L 795.70883 113.317784 
L 800.272559 85.246481 
L 804.836287 171.442657 
L 809.400016 176.490815 
L 813.963745 118.53647 
L 818.527473 146.925249 
L 823.091202 186.673925 
L 827.65493 231.034634 
L 832.218659 291.714416 
L 836.782388 155.638667 
L 841.346116 126.682141 
L 845.909845 236.973345 
L 850.473574 228.896261 
L 855.037302 192.41194 
L 859.601031 162.627121 
L 864.164759 237.029868 
L 868.728488 211.733935 
L 873.292217 285.941513 
L 877.855945 84.461148 
L 882.419674 205.581572 
L 886.983403 266.676983 
L 891.547131 187.777079 
L 896.11086 174.597198 
L 900.674588 114.55387 
L 905.238317 86.452029 
L 909.802046 141.050439 
L 914.365774 240.937852 
L 918.929503 290.069269 
L 923.493231 307.534972 
L 928.05696 196.296084 
L 932.620689 209.655814 
L 937.184417 184.587457 
L 941.748146 92.620051 
L 946.311875 141.800699 
L 950.875603 127.550509 
L 955.439332 221.124521 
L 960.00306 180.080315 
L 964.566789 203.266534 
L 969.130518 263.99142 
L 973.694246 188.176757 
L 978.257975 200.056666 
L 982.821704 88.244376 
L 987.385432 153.977162 
L 991.949161 258.331816 
L 996.512889 103.826285 
L 1001.076618 209.596016 
L 1005.640347 126.063203 
L 1010.204075 160.499949 
L 1014.767804 169.280351 
L 1019.331533 141.492358 
L 1023.895261 136.875949 
L 1028.45899 164.408508 
L 1033.022718 222.635776 
L 1037.586447 243.972484 
L 1042.150176 177.432445 
L 1046.713904 191.983414 
L 1051.277633 220.16721 
L 1055.841362 211.547484 
L 1060.40509 239.886119 
L 1064.968819 174.570021 
L 1069.532547 179.461133 
L 1074.096276 112.560663 
L 1078.660005 222.105806 
L 1083.223733 121.117587 
L 1087.787462 199.84151 
L 1092.35119 168.890439 
L 1096.914919 175.006264 
L 1101.478648 134.303677 
L 1106.042376 247.809047 
L 1110.606105 220.969275 
L 1115.169834 89.923326 
L 1119.733562 175.812319 
L 1124.297291 183.783119 
L 1128.861019 278.677737 
L 1133.424748 178.284821 
L 1137.988477 208.55767 
L 1142.552205 121.446469 
L 1147.115934 79.37886 
L 1151.679663 160.686565 
L 1156.243391 201.589082 
L 1160.80712 259.088056 
L 1165.370848 144.855314 
L 1169.934577 137.351978 
L 1174.498306 251.926303 
L 1179.062034 181.681332 
L 1183.625763 194.22153 
L 1188.189492 211.020384 
L 1192.75322 144.048888 
L 1197.316949 195.669782 
L 1201.880677 161.779804 
L 1206.444406 160.456677 
L 1211.008135 169.651809 
L 1215.571863 337.223104 
L 1220.135592 234.862644 
L 1224.69932 121.759344 
L 1229.263049 236.929053 
L 1233.826778 56.482999 
L 1238.390506 207.061248 
L 1242.954235 121.207973 
L 1247.517964 193.166719 
L 1252.081692 166.923681 
L 1256.645421 237.447227 
L 1261.209149 108.542208 
L 1265.772878 139.162295 
L 1270.336607 136.641388 
L 1274.900335 178.756828 
L 1279.464064 228.199932 
L 1288.591521 192.752369 
L 1293.15525 115.603072 
L 1297.718978 164.755273 
L 1302.282707 191.015346 
L 1306.846436 143.572055 
L 1311.410164 184.774324 
L 1315.973893 197.62869 
L 1320.537622 273.256238 
L 1325.10135 163.782527 
L 1329.665079 223.874567 
L 1334.228807 240.030604 
L 1338.792536 273.088158 
L 1343.356265 98.759925 
L 1347.919993 236.355196 
L 1352.483722 199.425804 
L 1357.047451 163.547953 
L 1361.611179 162.076348 
L 1366.174908 196.567272 
L 1366.174908 196.567272 
" style="fill:none;stroke:#1f77b4;stroke-linecap:square;stroke-width:1.5;"/>
   </g>
   <g id="line2d_16">
    <path clip-path="url(#pdb7c6b6a28)" d="M 202.424109 208.758678 
L 206.987838 163.52174 
L 211.551567 405.737194 
L 216.115295 180.889317 
L 220.679024 307.841614 
L 225.242752 161.356923 
L 229.806481 168.937341 
L 234.37021 397.310635 
L 238.933938 173.269075 
L 243.497667 474.136364 
L 248.061396 183.545499 
L 252.625124 230.724446 
L 257.188853 108.433782 
L 261.752581 176.723548 
L 266.31631 214.949814 
L 270.880039 184.589662 
L 275.443767 200.262071 
L 280.007496 202.656875 
L 284.571225 243.112923 
L 289.134953 187.704002 
L 293.698682 222.413911 
L 298.26241 237.339901 
L 302.826139 165.19577 
L 307.389868 205.727083 
L 311.953596 200.930477 
L 316.517325 254.04598 
L 321.081054 114.84244 
L 325.644782 151.007443 
L 330.208511 251.285555 
L 334.772239 180.11083 
L 339.335968 174.755408 
L 343.899697 198.634337 
L 348.463425 190.669433 
L 353.027154 147.807271 
L 357.590882 236.403324 
L 362.154611 52.635281 
L 366.71834 138.087088 
L 371.282068 322.524983 
L 375.845797 110.507358 
L 380.409526 214.197721 
L 384.973254 152.375368 
L 389.536983 136.878293 
L 394.100711 122.470875 
L 398.66444 201.105237 
L 403.228169 161.9552 
L 407.791897 110.818076 
L 412.355626 91.842341 
L 416.919355 249.667788 
L 421.483083 170.992266 
L 426.046812 84.863461 
L 430.61054 117.668744 
L 435.174269 214.631703 
L 439.737998 122.072818 
L 444.301726 118.85347 
L 448.865455 210.229921 
L 453.429184 203.342174 
L 457.992912 181.070482 
L 462.556641 165.183463 
L 467.120369 78.4308 
L 471.684098 187.113681 
L 476.247827 180.166014 
L 480.811555 275.554825 
L 485.375284 269.555015 
L 489.939012 214.42118 
L 494.502741 130.802821 
L 499.06647 224.35507 
L 503.630198 230.222409 
L 508.193927 143.980262 
L 512.757656 245.462892 
L 517.321384 152.284432 
L 521.885113 248.207304 
L 526.448841 140.101188 
L 531.01257 103.476194 
L 535.576299 159.765693 
L 540.140027 161.372601 
L 544.703756 181.590696 
L 549.267485 189.300016 
L 553.831213 234.699497 
L 558.394942 208.884083 
L 562.95867 184.148819 
L 567.522399 306.715709 
L 572.086128 198.461624 
L 576.649856 142.573354 
L 581.213585 214.935066 
L 585.777314 196.484546 
L 590.341042 137.612692 
L 594.904771 59.315487 
L 599.468499 203.526016 
L 604.032228 149.499174 
L 608.595957 211.817143 
L 613.159685 187.293966 
L 617.723414 206.49804 
L 622.287143 96.95961 
L 626.850871 456.053887 
L 631.4146 161.803092 
L 635.978328 128.209343 
L 640.542057 215.74188 
L 645.105786 220.666469 
L 649.669514 116.081523 
L 654.233243 162.744178 
L 658.796971 276.963059 
L 663.3607 55.542075 
L 667.924429 201.464165 
L 672.488157 156.456116 
L 677.051886 118.741917 
L 681.615615 135.163678 
L 686.179343 210.042025 
L 690.743072 185.29626 
L 695.3068 210.590593 
L 699.870529 239.18925 
L 704.434258 214.973587 
L 708.997986 116.300455 
L 713.561715 123.915247 
L 718.125444 175.214263 
L 722.689172 152.183567 
L 731.816629 206.788627 
L 736.380358 156.66508 
L 740.944087 196.618654 
L 745.507815 198.589809 
L 750.071544 126.840923 
L 754.635273 224.534632 
L 759.199001 167.946234 
L 763.76273 126.006335 
L 768.326458 154.107491 
L 772.890187 226.520883 
L 777.453916 176.46764 
L 782.017644 198.211225 
L 786.581373 255.486205 
L 791.145101 95.017235 
L 795.70883 159.657057 
L 800.272559 256.543065 
L 804.836287 145.66234 
L 809.400016 245.091965 
L 813.963745 305.227106 
L 818.527473 85.192567 
L 823.091202 224.148759 
L 827.65493 204.334288 
L 832.218659 203.586612 
L 836.782388 216.778665 
L 841.346116 187.772426 
L 845.909845 48.828206 
L 850.473574 109.92223 
L 855.037302 65.135823 
L 859.601031 90.704125 
L 864.164759 203.08776 
L 868.728488 184.404917 
L 873.292217 107.405219 
L 877.855945 217.034729 
L 882.419674 143.50539 
L 886.983403 231.666184 
L 891.547131 195.314104 
L 896.11086 239.258902 
L 900.674588 172.474738 
L 905.238317 99.410834 
L 909.802046 173.574396 
L 914.365774 133.430518 
L 918.929503 200.445691 
L 923.493231 183.795994 
L 928.05696 213.065738 
L 932.620689 84.710972 
L 937.184417 94.988783 
L 941.748146 248.11413 
L 946.311875 338.995842 
L 950.875603 77.414069 
L 955.439332 202.52253 
L 960.00306 202.97708 
L 964.566789 182.208489 
L 969.130518 132.633932 
L 973.694246 230.923356 
L 978.257975 278.571885 
L 982.821704 208.783822 
L 987.385432 189.834505 
L 991.949161 96.339247 
L 996.512889 227.127461 
L 1001.076618 251.809042 
L 1005.640347 79.464539 
L 1010.204075 280.245702 
L 1014.767804 194.992084 
L 1019.331533 173.53514 
L 1023.895261 204.749678 
L 1028.45899 255.228449 
L 1033.022718 111.246661 
L 1037.586447 94.833904 
L 1042.150176 185.224071 
L 1046.713904 259.122 
L 1051.277633 198.953958 
L 1060.40509 88.772474 
L 1064.968819 202.814405 
L 1069.532547 142.391215 
L 1074.096276 172.127556 
L 1078.660005 147.162733 
L 1083.223733 201.292101 
L 1087.787462 209.124063 
L 1092.35119 170.509484 
L 1096.914919 135.348585 
L 1101.478648 114.378923 
L 1106.042376 209.640492 
L 1110.606105 241.631385 
L 1115.169834 152.608894 
L 1119.733562 229.292044 
L 1128.861019 137.257742 
L 1133.424748 155.20876 
L 1137.988477 184.647091 
L 1142.552205 120.019937 
L 1147.115934 275.83482 
L 1151.679663 205.49484 
L 1156.243391 182.235665 
L 1160.80712 144.040656 
L 1165.370848 136.122561 
L 1169.934577 286.166474 
L 1174.498306 110.355864 
L 1179.062034 136.940284 
L 1183.625763 150.608137 
L 1188.189492 151.145937 
L 1192.75322 83.333044 
L 1197.316949 244.644468 
L 1201.880677 285.747697 
L 1206.444406 189.45126 
L 1211.008135 112.477537 
L 1215.571863 112.049008 
L 1220.135592 221.3904 
L 1224.69932 173.378915 
L 1229.263049 100.30864 
L 1233.826778 153.483516 
L 1238.390506 218.921848 
L 1242.954235 245.438361 
L 1247.517964 172.982986 
L 1252.081692 157.628123 
L 1256.645421 235.286441 
L 1261.209149 252.190363 
L 1265.772878 301.306521 
L 1270.336607 180.574271 
L 1274.900335 193.044036 
L 1279.464064 164.899235 
L 1284.027793 150.40805 
L 1288.591521 304.715514 
L 1293.15525 100.536266 
L 1297.718978 236.177038 
L 1302.282707 138.874106 
L 1306.846436 262.91804 
L 1311.410164 121.245246 
L 1315.973893 163.052006 
L 1320.537622 127.970794 
L 1325.10135 296.125995 
L 1329.665079 407.125191 
L 1334.228807 239.511933 
L 1338.792536 227.622891 
L 1343.356265 239.039384 
L 1347.919993 139.419818 
L 1352.483722 215.368764 
L 1357.047451 147.931619 
L 1361.611179 150.2659 
L 1366.174908 320.76223 
L 1366.174908 320.76223 
" style="fill:none;stroke:#ff7f0e;stroke-linecap:square;stroke-width:1.5;"/>
   </g>
   <g id="line2d_17">
    <path clip-path="url(#pdb7c6b6a28)" d="M 202.424109 137.573737 
L 206.987838 140.950514 
L 211.551567 98.944433 
L 216.115295 379.504268 
L 220.679024 189.686267 
L 225.242752 204.86575 
L 229.806481 162.507089 
L 234.37021 219.188714 
L 238.933938 150.238441 
L 243.497667 175.973094 
L 248.061396 215.880006 
L 252.625124 248.081723 
L 257.188853 200.463689 
L 261.752581 184.405009 
L 266.31631 167.620077 
L 270.880039 226.209707 
L 275.443767 210.604604 
L 280.007496 95.662989 
L 284.571225 204.714546 
L 289.134953 196.404125 
L 293.698682 172.341184 
L 298.26241 202.970025 
L 302.826139 135.31904 
L 307.389868 85.41004 
L 311.953596 115.012775 
L 316.517325 81.227116 
L 321.081054 169.995518 
L 325.644782 157.50291 
L 330.208511 130.82781 
L 334.772239 84.406995 
L 339.335968 254.030841 
L 343.899697 289.079889 
L 348.463425 179.89416 
L 353.027154 292.452872 
L 357.590882 190.748053 
L 362.154611 198.361883 
L 366.71834 221.102179 
L 371.282068 144.468991 
L 375.845797 184.061454 
L 380.409526 251.052111 
L 384.973254 133.41367 
L 389.536983 250.178872 
L 394.100711 264.887766 
L 398.66444 157.818354 
L 403.228169 134.465114 
L 407.791897 101.11428 
L 412.355626 80.533738 
L 416.919355 118.911769 
L 421.483083 225.616311 
L 426.046812 168.204309 
L 430.61054 177.195739 
L 435.174269 199.023663 
L 439.737998 215.404739 
L 444.301726 194.646001 
L 448.865455 222.932159 
L 453.429184 76.999833 
L 457.992912 258.217954 
L 462.556641 158.977119 
L 467.120369 211.594424 
L 471.684098 225.402174 
L 476.247827 127.961215 
L 480.811555 159.714191 
L 485.375284 291.251111 
L 489.939012 248.335869 
L 494.502741 226.631075 
L 499.06647 170.832782 
L 503.630198 130.0331 
L 508.193927 195.72051 
L 512.757656 32.863636 
L 517.321384 213.114197 
L 521.885113 205.031292 
L 526.448841 369.689036 
L 531.01257 198.354074 
L 535.576299 180.382266 
L 540.140027 218.495184 
L 544.703756 213.69385 
L 549.267485 97.028874 
L 553.831213 84.034389 
L 558.394942 133.598985 
L 562.95867 251.508548 
L 567.522399 230.084107 
L 572.086128 147.754394 
L 576.649856 288.794796 
L 581.213585 250.825035 
L 585.777314 245.022102 
L 590.341042 191.749291 
L 594.904771 164.077303 
L 599.468499 181.313605 
L 604.032228 225.629578 
L 608.595957 221.875634 
L 613.159685 238.787375 
L 617.723414 192.492079 
L 622.287143 254.758467 
L 626.850871 232.900462 
L 631.4146 163.320474 
L 635.978328 140.130634 
L 640.542057 194.463647 
L 645.105786 167.805636 
L 649.669514 233.615593 
L 654.233243 210.935047 
L 658.796971 247.3594 
L 663.3607 111.997344 
L 667.924429 183.111441 
L 672.488157 146.923257 
L 677.051886 178.061472 
L 681.615615 313.519452 
L 686.179343 46.210172 
L 690.743072 114.987278 
L 695.3068 206.626456 
L 699.870529 146.604575 
L 704.434258 244.959276 
L 708.997986 183.566116 
L 713.561715 164.625104 
L 718.125444 222.447446 
L 722.689172 311.608722 
L 727.252901 225.778951 
L 731.816629 240.926457 
L 736.380358 214.24863 
L 740.944087 194.450555 
L 745.507815 109.472238 
L 750.071544 218.392008 
L 754.635273 180.950202 
L 759.199001 171.141979 
L 763.76273 163.756804 
L 768.326458 209.142812 
L 772.890187 90.228931 
L 777.453916 237.463043 
L 782.017644 206.71552 
L 786.581373 138.534119 
L 791.145101 155.689334 
L 795.70883 192.157566 
L 800.272559 169.245516 
L 804.836287 157.948328 
L 809.400016 151.077964 
L 813.963745 114.850161 
L 818.527473 149.430229 
L 823.091202 199.716584 
L 827.65493 208.082371 
L 832.218659 115.877109 
L 836.782388 236.811013 
L 841.346116 133.81705 
L 845.909845 156.911572 
L 850.473574 175.417184 
L 855.037302 162.571849 
L 859.601031 110.970445 
L 864.164759 154.219786 
L 868.728488 224.644708 
L 873.292217 244.826579 
L 877.855945 180.739046 
L 882.419674 120.975806 
L 886.983403 163.8491 
L 891.547131 223.192249 
L 896.11086 144.32344 
L 900.674588 159.836915 
L 905.238317 137.141475 
L 909.802046 127.146416 
L 914.365774 266.025094 
L 918.929503 164.010616 
L 923.493231 133.169875 
L 928.05696 119.072452 
L 932.620689 191.250497 
L 937.184417 256.52287 
L 941.748146 179.180895 
L 946.311875 171.612002 
L 950.875603 183.852969 
L 955.439332 203.265579 
L 960.00306 132.5279 
L 964.566789 178.63761 
L 969.130518 162.110249 
L 973.694246 184.350696 
L 978.257975 83.912503 
L 982.821704 297.756716 
L 987.385432 114.163827 
L 991.949161 227.26168 
L 996.512889 230.443982 
L 1001.076618 156.109729 
L 1005.640347 210.521925 
L 1010.204075 191.412816 
L 1014.767804 226.475308 
L 1019.331533 244.491007 
L 1023.895261 127.14442 
L 1028.45899 169.071635 
L 1033.022718 202.226992 
L 1037.586447 114.369383 
L 1042.150176 197.16221 
L 1046.713904 165.087267 
L 1051.277633 201.928576 
L 1055.841362 103.871173 
L 1060.40509 186.321538 
L 1064.968819 222.040523 
L 1069.532547 224.766256 
L 1074.096276 176.973882 
L 1078.660005 108.4912 
L 1083.223733 81.152458 
L 1087.787462 202.886111 
L 1092.35119 165.682533 
L 1096.914919 220.348591 
L 1101.478648 158.240693 
L 1106.042376 235.254902 
L 1110.606105 232.196578 
L 1115.169834 181.227887 
L 1119.733562 184.664354 
L 1124.297291 224.22616 
L 1128.861019 111.489038 
L 1133.424748 163.954411 
L 1137.988477 147.441022 
L 1142.552205 234.466808 
L 1147.115934 202.031661 
L 1151.679663 255.815171 
L 1156.243391 108.303264 
L 1160.80712 141.607254 
L 1165.370848 247.540453 
L 1169.934577 153.305135 
L 1174.498306 135.500668 
L 1179.062034 159.281712 
L 1183.625763 153.976587 
L 1188.189492 180.609609 
L 1192.75322 210.516263 
L 1197.316949 223.862538 
L 1201.880677 195.540641 
L 1206.444406 201.858385 
L 1211.008135 191.02246 
L 1215.571863 229.074159 
L 1220.135592 162.017578 
L 1224.69932 260.059405 
L 1229.263049 52.378124 
L 1233.826778 272.441269 
L 1238.390506 183.645076 
L 1242.954235 263.913794 
L 1247.517964 147.620168 
L 1252.081692 155.963027 
L 1256.645421 123.258214 
L 1261.209149 216.359776 
L 1265.772878 158.210144 
L 1270.336607 184.19071 
L 1274.900335 214.167446 
L 1279.464064 187.088055 
L 1284.027793 215.492135 
L 1288.591521 199.338458 
L 1293.15525 217.22717 
L 1297.718978 192.173335 
L 1302.282707 283.824769 
L 1306.846436 208.052142 
L 1311.410164 91.872062 
L 1315.973893 191.373723 
L 1320.537622 222.167007 
L 1325.10135 181.659276 
L 1329.665079 127.444498 
L 1334.228807 163.660432 
L 1338.792536 138.002389 
L 1343.356265 245.664345 
L 1347.919993 164.052612 
L 1352.483722 177.029327 
L 1357.047451 215.382591 
L 1361.611179 130.988239 
L 1366.174908 106.186365 
L 1366.174908 106.186365 
" style="fill:none;stroke:#2ca02c;stroke-linecap:square;stroke-width:1.5;"/>
   </g>
   <g id="patch_13">
    <path d="M 143.05 496.2 
L 143.05 10.8 
" style="fill:none;stroke:#000000;stroke-linecap:square;stroke-linejoin:miter;stroke-width:0.8;"/>
   </g>
   <g id="patch_14">
    <path d="M 1429.2 496.2 
L 1429.2 10.8 
" style="fill:none;stroke:#000000;stroke-linecap:square;stroke-linejoin:miter;stroke-width:0.8;"/>
   </g>
   <g id="patch_15">
    <path d="M 143.05 496.2 
L 1429.2 496.2 
" style="fill:none;stroke:#000000;stroke-linecap:square;stroke-linejoin:miter;stroke-width:0.8;"/>
   </g>
   <g id="patch_16">
    <path d="M 143.05 10.8 
L 1429.2 10.8 
" style="fill:none;stroke:#000000;stroke-linecap:square;stroke-linejoin:miter;stroke-width:0.8;"/>
   </g>
  </g>
 </g>
 <defs>
  <clipPath id="pdb7c6b6a28">
   <rect height="485.4" width="1286.15" x="143.05" y="10.8"/>
  </clipPath>
 </defs>
</svg>
