<?xml version="1.0" encoding="utf-8" standalone="no"?>
<!DOCTYPE svg PUBLIC "-//W3C//DTD SVG 1.1//EN"
  "http://www.w3.org/Graphics/SVG/1.1/DTD/svg11.dtd">
<!-- Created with matplotlib (https://matplotlib.org/) -->
<svg height="576pt" version="1.1" viewBox="0 0 1440 576" width="1440pt" xmlns="http://www.w3.org/2000/svg" xmlns:xlink="http://www.w3.org/1999/xlink">
 <defs>
  <style type="text/css">
*{stroke-linecap:butt;stroke-linejoin:round;white-space:pre;}
  </style>
 </defs>
 <g id="figure_1">
  <g id="patch_1">
   <path d="M 0 576 
L 1440 576 
L 1440 0 
L 0 0 
z
" style="fill:#ffffff;"/>
  </g>
  <g id="axes_1">
   <g id="patch_2">
    <path d="M 95.175 496.2 
L 1429.2 496.2 
L 1429.2 12.864126 
L 95.175 12.864126 
z
" style="fill:#ffffff;"/>
   </g>
   <g id="patch_3">
    <path clip-path="url(#p43e3e1ae05)" d="M 155.8125 496.2 
L 155.8125 12.864126 
L 156.759221 12.864126 
L 156.759221 496.2 
z
" style="fill:#0000ff;"/>
   </g>
   <g id="patch_4">
    <path clip-path="url(#p43e3e1ae05)" d="M 160.546107 496.2 
L 160.546107 12.864126 
L 161.492828 12.864126 
L 161.492828 496.2 
z
" style="fill:#0000ff;"/>
   </g>
   <g id="patch_5">
    <path clip-path="url(#p43e3e1ae05)" d="M 198.414959 496.2 
L 198.414959 12.864126 
L 199.36168 12.864126 
L 199.36168 496.2 
z
" style="fill:#0000ff;"/>
   </g>
   <g id="patch_6">
    <path clip-path="url(#p43e3e1ae05)" d="M 330.955943 496.2 
L 330.955943 12.864126 
L 331.902664 12.864126 
L 331.902664 496.2 
z
" style="fill:#0000ff;"/>
   </g>
   <g id="patch_7">
    <path clip-path="url(#p43e3e1ae05)" d="M 596.03791 496.2 
L 596.03791 12.864126 
L 596.984631 12.864126 
L 596.984631 496.2 
z
" style="fill:#0000ff;"/>
   </g>
   <g id="patch_8">
    <path clip-path="url(#p43e3e1ae05)" d="M 927.390369 496.2 
L 927.390369 12.864126 
L 928.33709 12.864126 
L 928.33709 496.2 
z
" style="fill:#0000ff;"/>
   </g>
   <g id="patch_9">
    <path clip-path="url(#p43e3e1ae05)" d="M 1192.472336 496.2 
L 1192.472336 12.864126 
L 1193.419057 12.864126 
L 1193.419057 496.2 
z
" style="fill:#0000ff;"/>
   </g>
   <g id="patch_10">
    <path clip-path="url(#p43e3e1ae05)" d="M 1325.01332 496.2 
L 1325.01332 12.864126 
L 1325.960041 12.864126 
L 1325.960041 496.2 
z
" style="fill:#0000ff;"/>
   </g>
   <g id="patch_11">
    <path clip-path="url(#p43e3e1ae05)" d="M 1362.882172 496.2 
L 1362.882172 12.864126 
L 1363.828893 12.864126 
L 1363.828893 496.2 
z
" style="fill:#0000ff;"/>
   </g>
   <g id="patch_12">
    <path clip-path="url(#p43e3e1ae05)" d="M 1367.615779 496.2 
L 1367.615779 12.864126 
L 1368.5625 12.864126 
L 1368.5625 496.2 
z
" style="fill:#0000ff;"/>
   </g>
   <g id="matplotlib.axis_1">
    <g id="xtick_1">
     <g id="line2d_1">
      <defs>
       <path d="M 0 0 
L 0 3.5 
" id="m992735c35f" style="stroke:#000000;stroke-width:0.8;"/>
      </defs>
      <g>
       <use style="stroke:#000000;stroke-width:0.8;" x="156.759221" xlink:href="#m992735c35f" y="496.2"/>
      </g>
     </g>
     <g id="text_1">
      <!-- 0 -->
      <defs>
       <path d="M 31.78125 66.40625 
Q 24.171875 66.40625 20.328125 58.90625 
Q 16.5 51.421875 16.5 36.375 
Q 16.5 21.390625 20.328125 13.890625 
Q 24.171875 6.390625 31.78125 6.390625 
Q 39.453125 6.390625 43.28125 13.890625 
Q 47.125 21.390625 47.125 36.375 
Q 47.125 51.421875 43.28125 58.90625 
Q 39.453125 66.40625 31.78125 66.40625 
z
M 31.78125 74.21875 
Q 44.046875 74.21875 50.515625 64.515625 
Q 56.984375 54.828125 56.984375 36.375 
Q 56.984375 17.96875 50.515625 8.265625 
Q 44.046875 -1.421875 31.78125 -1.421875 
Q 19.53125 -1.421875 13.0625 8.265625 
Q 6.59375 17.96875 6.59375 36.375 
Q 6.59375 54.828125 13.0625 64.515625 
Q 19.53125 74.21875 31.78125 74.21875 
z
" id="DejaVuSans-48"/>
      </defs>
      <g transform="translate(147.215471 525.995312)scale(0.3 -0.3)">
       <use xlink:href="#DejaVuSans-48"/>
      </g>
     </g>
    </g>
    <g id="xtick_2">
     <g id="line2d_2">
      <g>
       <use style="stroke:#000000;stroke-width:0.8;" x="393.439549" xlink:href="#m992735c35f" y="496.2"/>
      </g>
     </g>
     <g id="text_2">
      <!-- 50 -->
      <defs>
       <path d="M 10.796875 72.90625 
L 49.515625 72.90625 
L 49.515625 64.59375 
L 19.828125 64.59375 
L 19.828125 46.734375 
Q 21.96875 47.46875 24.109375 47.828125 
Q 26.265625 48.1875 28.421875 48.1875 
Q 40.625 48.1875 47.75 41.5 
Q 54.890625 34.8125 54.890625 23.390625 
Q 54.890625 11.625 47.5625 5.09375 
Q 40.234375 -1.421875 26.90625 -1.421875 
Q 22.3125 -1.421875 17.546875 -0.640625 
Q 12.796875 0.140625 7.71875 1.703125 
L 7.71875 11.625 
Q 12.109375 9.234375 16.796875 8.0625 
Q 21.484375 6.890625 26.703125 6.890625 
Q 35.15625 6.890625 40.078125 11.328125 
Q 45.015625 15.765625 45.015625 23.390625 
Q 45.015625 31 40.078125 35.4375 
Q 35.15625 39.890625 26.703125 39.890625 
Q 22.75 39.890625 18.8125 39.015625 
Q 14.890625 38.140625 10.796875 36.28125 
z
" id="DejaVuSans-53"/>
      </defs>
      <g transform="translate(374.352049 525.995312)scale(0.3 -0.3)">
       <use xlink:href="#DejaVuSans-53"/>
       <use x="63.623047" xlink:href="#DejaVuSans-48"/>
      </g>
     </g>
    </g>
    <g id="xtick_3">
     <g id="line2d_3">
      <g>
       <use style="stroke:#000000;stroke-width:0.8;" x="630.119877" xlink:href="#m992735c35f" y="496.2"/>
      </g>
     </g>
     <g id="text_3">
      <!-- 100 -->
      <defs>
       <path d="M 12.40625 8.296875 
L 28.515625 8.296875 
L 28.515625 63.921875 
L 10.984375 60.40625 
L 10.984375 69.390625 
L 28.421875 72.90625 
L 38.28125 72.90625 
L 38.28125 8.296875 
L 54.390625 8.296875 
L 54.390625 0 
L 12.40625 0 
z
" id="DejaVuSans-49"/>
      </defs>
      <g transform="translate(601.488627 525.995312)scale(0.3 -0.3)">
       <use xlink:href="#DejaVuSans-49"/>
       <use x="63.623047" xlink:href="#DejaVuSans-48"/>
       <use x="127.246094" xlink:href="#DejaVuSans-48"/>
      </g>
     </g>
    </g>
    <g id="xtick_4">
     <g id="line2d_4">
      <g>
       <use style="stroke:#000000;stroke-width:0.8;" x="866.800205" xlink:href="#m992735c35f" y="496.2"/>
      </g>
     </g>
     <g id="text_4">
      <!-- 150 -->
      <g transform="translate(838.168955 525.995312)scale(0.3 -0.3)">
       <use xlink:href="#DejaVuSans-49"/>
       <use x="63.623047" xlink:href="#DejaVuSans-53"/>
       <use x="127.246094" xlink:href="#DejaVuSans-48"/>
      </g>
     </g>
    </g>
    <g id="xtick_5">
     <g id="line2d_5">
      <g>
       <use style="stroke:#000000;stroke-width:0.8;" x="1103.480533" xlink:href="#m992735c35f" y="496.2"/>
      </g>
     </g>
     <g id="text_5">
      <!-- 200 -->
      <defs>
       <path d="M 19.1875 8.296875 
L 53.609375 8.296875 
L 53.609375 0 
L 7.328125 0 
L 7.328125 8.296875 
Q 12.9375 14.109375 22.625 23.890625 
Q 32.328125 33.6875 34.8125 36.53125 
Q 39.546875 41.84375 41.421875 45.53125 
Q 43.3125 49.21875 43.3125 52.78125 
Q 43.3125 58.59375 39.234375 62.25 
Q 35.15625 65.921875 28.609375 65.921875 
Q 23.96875 65.921875 18.8125 64.3125 
Q 13.671875 62.703125 7.8125 59.421875 
L 7.8125 69.390625 
Q 13.765625 71.78125 18.9375 73 
Q 24.125 74.21875 28.421875 74.21875 
Q 39.75 74.21875 46.484375 68.546875 
Q 53.21875 62.890625 53.21875 53.421875 
Q 53.21875 48.921875 51.53125 44.890625 
Q 49.859375 40.875 45.40625 35.40625 
Q 44.1875 33.984375 37.640625 27.21875 
Q 31.109375 20.453125 19.1875 8.296875 
z
" id="DejaVuSans-50"/>
      </defs>
      <g transform="translate(1074.849283 525.995312)scale(0.3 -0.3)">
       <use xlink:href="#DejaVuSans-50"/>
       <use x="63.623047" xlink:href="#DejaVuSans-48"/>
       <use x="127.246094" xlink:href="#DejaVuSans-48"/>
      </g>
     </g>
    </g>
    <g id="xtick_6">
     <g id="line2d_6">
      <g>
       <use style="stroke:#000000;stroke-width:0.8;" x="1340.160861" xlink:href="#m992735c35f" y="496.2"/>
      </g>
     </g>
     <g id="text_6">
      <!-- 250 -->
      <g transform="translate(1311.529611 525.995312)scale(0.3 -0.3)">
       <use xlink:href="#DejaVuSans-50"/>
       <use x="63.623047" xlink:href="#DejaVuSans-53"/>
       <use x="127.246094" xlink:href="#DejaVuSans-48"/>
      </g>
     </g>
    </g>
    <g id="text_7">
     <!-- Bit Interaction -->
     <defs>
      <path d="M 19.671875 34.8125 
L 19.671875 8.109375 
L 35.5 8.109375 
Q 43.453125 8.109375 47.28125 11.40625 
Q 51.125 14.703125 51.125 21.484375 
Q 51.125 28.328125 47.28125 31.5625 
Q 43.453125 34.8125 35.5 34.8125 
z
M 19.671875 64.796875 
L 19.671875 42.828125 
L 34.28125 42.828125 
Q 41.5 42.828125 45.03125 45.53125 
Q 48.578125 48.25 48.578125 53.8125 
Q 48.578125 59.328125 45.03125 62.0625 
Q 41.5 64.796875 34.28125 64.796875 
z
M 9.8125 72.90625 
L 35.015625 72.90625 
Q 46.296875 72.90625 52.390625 68.21875 
Q 58.5 63.53125 58.5 54.890625 
Q 58.5 48.1875 55.375 44.234375 
Q 52.25 40.28125 46.1875 39.3125 
Q 53.46875 37.75 57.5 32.78125 
Q 61.53125 27.828125 61.53125 20.40625 
Q 61.53125 10.640625 54.890625 5.3125 
Q 48.25 0 35.984375 0 
L 9.8125 0 
z
" id="DejaVuSans-66"/>
      <path d="M 9.421875 54.6875 
L 18.40625 54.6875 
L 18.40625 0 
L 9.421875 0 
z
M 9.421875 75.984375 
L 18.40625 75.984375 
L 18.40625 64.59375 
L 9.421875 64.59375 
z
" id="DejaVuSans-105"/>
      <path d="M 18.3125 70.21875 
L 18.3125 54.6875 
L 36.8125 54.6875 
L 36.8125 47.703125 
L 18.3125 47.703125 
L 18.3125 18.015625 
Q 18.3125 11.328125 20.140625 9.421875 
Q 21.96875 7.515625 27.59375 7.515625 
L 36.8125 7.515625 
L 36.8125 0 
L 27.59375 0 
Q 17.1875 0 13.234375 3.875 
Q 9.28125 7.765625 9.28125 18.015625 
L 9.28125 47.703125 
L 2.6875 47.703125 
L 2.6875 54.6875 
L 9.28125 54.6875 
L 9.28125 70.21875 
z
" id="DejaVuSans-116"/>
      <path id="DejaVuSans-32"/>
      <path d="M 9.8125 72.90625 
L 19.671875 72.90625 
L 19.671875 0 
L 9.8125 0 
z
" id="DejaVuSans-73"/>
      <path d="M 54.890625 33.015625 
L 54.890625 0 
L 45.90625 0 
L 45.90625 32.71875 
Q 45.90625 40.484375 42.875 44.328125 
Q 39.84375 48.1875 33.796875 48.1875 
Q 26.515625 48.1875 22.3125 43.546875 
Q 18.109375 38.921875 18.109375 30.90625 
L 18.109375 0 
L 9.078125 0 
L 9.078125 54.6875 
L 18.109375 54.6875 
L 18.109375 46.1875 
Q 21.34375 51.125 25.703125 53.5625 
Q 30.078125 56 35.796875 56 
Q 45.21875 56 50.046875 50.171875 
Q 54.890625 44.34375 54.890625 33.015625 
z
" id="DejaVuSans-110"/>
      <path d="M 56.203125 29.59375 
L 56.203125 25.203125 
L 14.890625 25.203125 
Q 15.484375 15.921875 20.484375 11.0625 
Q 25.484375 6.203125 34.421875 6.203125 
Q 39.59375 6.203125 44.453125 7.46875 
Q 49.3125 8.734375 54.109375 11.28125 
L 54.109375 2.78125 
Q 49.265625 0.734375 44.1875 -0.34375 
Q 39.109375 -1.421875 33.890625 -1.421875 
Q 20.796875 -1.421875 13.15625 6.1875 
Q 5.515625 13.8125 5.515625 26.8125 
Q 5.515625 40.234375 12.765625 48.109375 
Q 20.015625 56 32.328125 56 
Q 43.359375 56 49.78125 48.890625 
Q 56.203125 41.796875 56.203125 29.59375 
z
M 47.21875 32.234375 
Q 47.125 39.59375 43.09375 43.984375 
Q 39.0625 48.390625 32.421875 48.390625 
Q 24.90625 48.390625 20.390625 44.140625 
Q 15.875 39.890625 15.1875 32.171875 
z
" id="DejaVuSans-101"/>
      <path d="M 41.109375 46.296875 
Q 39.59375 47.171875 37.8125 47.578125 
Q 36.03125 48 33.890625 48 
Q 26.265625 48 22.1875 43.046875 
Q 18.109375 38.09375 18.109375 28.8125 
L 18.109375 0 
L 9.078125 0 
L 9.078125 54.6875 
L 18.109375 54.6875 
L 18.109375 46.1875 
Q 20.953125 51.171875 25.484375 53.578125 
Q 30.03125 56 36.53125 56 
Q 37.453125 56 38.578125 55.875 
Q 39.703125 55.765625 41.0625 55.515625 
z
" id="DejaVuSans-114"/>
      <path d="M 34.28125 27.484375 
Q 23.390625 27.484375 19.1875 25 
Q 14.984375 22.515625 14.984375 16.5 
Q 14.984375 11.71875 18.140625 8.90625 
Q 21.296875 6.109375 26.703125 6.109375 
Q 34.1875 6.109375 38.703125 11.40625 
Q 43.21875 16.703125 43.21875 25.484375 
L 43.21875 27.484375 
z
M 52.203125 31.203125 
L 52.203125 0 
L 43.21875 0 
L 43.21875 8.296875 
Q 40.140625 3.328125 35.546875 0.953125 
Q 30.953125 -1.421875 24.3125 -1.421875 
Q 15.921875 -1.421875 10.953125 3.296875 
Q 6 8.015625 6 15.921875 
Q 6 25.140625 12.171875 29.828125 
Q 18.359375 34.515625 30.609375 34.515625 
L 43.21875 34.515625 
L 43.21875 35.40625 
Q 43.21875 41.609375 39.140625 45 
Q 35.0625 48.390625 27.6875 48.390625 
Q 23 48.390625 18.546875 47.265625 
Q 14.109375 46.140625 10.015625 43.890625 
L 10.015625 52.203125 
Q 14.9375 54.109375 19.578125 55.046875 
Q 24.21875 56 28.609375 56 
Q 40.484375 56 46.34375 49.84375 
Q 52.203125 43.703125 52.203125 31.203125 
z
" id="DejaVuSans-97"/>
      <path d="M 48.78125 52.59375 
L 48.78125 44.1875 
Q 44.96875 46.296875 41.140625 47.34375 
Q 37.3125 48.390625 33.40625 48.390625 
Q 24.65625 48.390625 19.8125 42.84375 
Q 14.984375 37.3125 14.984375 27.296875 
Q 14.984375 17.28125 19.8125 11.734375 
Q 24.65625 6.203125 33.40625 6.203125 
Q 37.3125 6.203125 41.140625 7.25 
Q 44.96875 8.296875 48.78125 10.40625 
L 48.78125 2.09375 
Q 45.015625 0.34375 40.984375 -0.53125 
Q 36.96875 -1.421875 32.421875 -1.421875 
Q 20.0625 -1.421875 12.78125 6.34375 
Q 5.515625 14.109375 5.515625 27.296875 
Q 5.515625 40.671875 12.859375 48.328125 
Q 20.21875 56 33.015625 56 
Q 37.15625 56 41.109375 55.140625 
Q 45.0625 54.296875 48.78125 52.59375 
z
" id="DejaVuSans-99"/>
      <path d="M 30.609375 48.390625 
Q 23.390625 48.390625 19.1875 42.75 
Q 14.984375 37.109375 14.984375 27.296875 
Q 14.984375 17.484375 19.15625 11.84375 
Q 23.34375 6.203125 30.609375 6.203125 
Q 37.796875 6.203125 41.984375 11.859375 
Q 46.1875 17.53125 46.1875 27.296875 
Q 46.1875 37.015625 41.984375 42.703125 
Q 37.796875 48.390625 30.609375 48.390625 
z
M 30.609375 56 
Q 42.328125 56 49.015625 48.375 
Q 55.71875 40.765625 55.71875 27.296875 
Q 55.71875 13.875 49.015625 6.21875 
Q 42.328125 -1.421875 30.609375 -1.421875 
Q 18.84375 -1.421875 12.171875 6.21875 
Q 5.515625 13.875 5.515625 27.296875 
Q 5.515625 40.765625 12.171875 48.375 
Q 18.84375 56 30.609375 56 
z
" id="DejaVuSans-111"/>
     </defs>
     <g transform="translate(655.701563 559.029688)scale(0.3 -0.3)">
      <use xlink:href="#DejaVuSans-66"/>
      <use x="68.603516" xlink:href="#DejaVuSans-105"/>
      <use x="96.386719" xlink:href="#DejaVuSans-116"/>
      <use x="135.595703" xlink:href="#DejaVuSans-32"/>
      <use x="167.382812" xlink:href="#DejaVuSans-73"/>
      <use x="196.875" xlink:href="#DejaVuSans-110"/>
      <use x="260.253906" xlink:href="#DejaVuSans-116"/>
      <use x="299.462891" xlink:href="#DejaVuSans-101"/>
      <use x="360.986328" xlink:href="#DejaVuSans-114"/>
      <use x="402.099609" xlink:href="#DejaVuSans-97"/>
      <use x="463.378906" xlink:href="#DejaVuSans-99"/>
      <use x="518.359375" xlink:href="#DejaVuSans-116"/>
      <use x="557.568359" xlink:href="#DejaVuSans-105"/>
      <use x="585.351562" xlink:href="#DejaVuSans-111"/>
      <use x="646.533203" xlink:href="#DejaVuSans-110"/>
     </g>
    </g>
   </g>
   <g id="matplotlib.axis_2">
    <g id="ytick_1">
     <g id="line2d_7">
      <defs>
       <path d="M 0 0 
L -3.5 0 
" id="m6a38b5b97a" style="stroke:#000000;stroke-width:0.8;"/>
      </defs>
      <g>
       <use style="stroke:#000000;stroke-width:0.8;" x="95.175" xlink:href="#m6a38b5b97a" y="481.380227"/>
      </g>
     </g>
     <g id="text_8">
      <!-- −7 -->
      <defs>
       <path d="M 10.59375 35.5 
L 73.1875 35.5 
L 73.1875 27.203125 
L 10.59375 27.203125 
z
" id="DejaVuSans-8722"/>
       <path d="M 8.203125 72.90625 
L 55.078125 72.90625 
L 55.078125 68.703125 
L 28.609375 0 
L 18.3125 0 
L 43.21875 64.59375 
L 8.203125 64.59375 
z
" id="DejaVuSans-55"/>
      </defs>
      <g transform="translate(43.948438 492.777883)scale(0.3 -0.3)">
       <use xlink:href="#DejaVuSans-8722"/>
       <use x="83.789062" xlink:href="#DejaVuSans-55"/>
      </g>
     </g>
    </g>
    <g id="ytick_2">
     <g id="line2d_8">
      <g>
       <use style="stroke:#000000;stroke-width:0.8;" x="95.175" xlink:href="#m6a38b5b97a" y="424.126621"/>
      </g>
     </g>
     <g id="text_9">
      <!-- −6 -->
      <defs>
       <path d="M 33.015625 40.375 
Q 26.375 40.375 22.484375 35.828125 
Q 18.609375 31.296875 18.609375 23.390625 
Q 18.609375 15.53125 22.484375 10.953125 
Q 26.375 6.390625 33.015625 6.390625 
Q 39.65625 6.390625 43.53125 10.953125 
Q 47.40625 15.53125 47.40625 23.390625 
Q 47.40625 31.296875 43.53125 35.828125 
Q 39.65625 40.375 33.015625 40.375 
z
M 52.59375 71.296875 
L 52.59375 62.3125 
Q 48.875 64.0625 45.09375 64.984375 
Q 41.3125 65.921875 37.59375 65.921875 
Q 27.828125 65.921875 22.671875 59.328125 
Q 17.53125 52.734375 16.796875 39.40625 
Q 19.671875 43.65625 24.015625 45.921875 
Q 28.375 48.1875 33.59375 48.1875 
Q 44.578125 48.1875 50.953125 41.515625 
Q 57.328125 34.859375 57.328125 23.390625 
Q 57.328125 12.15625 50.6875 5.359375 
Q 44.046875 -1.421875 33.015625 -1.421875 
Q 20.359375 -1.421875 13.671875 8.265625 
Q 6.984375 17.96875 6.984375 36.375 
Q 6.984375 53.65625 15.1875 63.9375 
Q 23.390625 74.21875 37.203125 74.21875 
Q 40.921875 74.21875 44.703125 73.484375 
Q 48.484375 72.75 52.59375 71.296875 
z
" id="DejaVuSans-54"/>
      </defs>
      <g transform="translate(43.948438 435.524277)scale(0.3 -0.3)">
       <use xlink:href="#DejaVuSans-8722"/>
       <use x="83.789062" xlink:href="#DejaVuSans-54"/>
      </g>
     </g>
    </g>
    <g id="ytick_3">
     <g id="line2d_9">
      <g>
       <use style="stroke:#000000;stroke-width:0.8;" x="95.175" xlink:href="#m6a38b5b97a" y="366.873015"/>
      </g>
     </g>
     <g id="text_10">
      <!-- −5 -->
      <g transform="translate(43.948438 378.270671)scale(0.3 -0.3)">
       <use xlink:href="#DejaVuSans-8722"/>
       <use x="83.789062" xlink:href="#DejaVuSans-53"/>
      </g>
     </g>
    </g>
    <g id="ytick_4">
     <g id="line2d_10">
      <g>
       <use style="stroke:#000000;stroke-width:0.8;" x="95.175" xlink:href="#m6a38b5b97a" y="309.619409"/>
      </g>
     </g>
     <g id="text_11">
      <!-- −4 -->
      <defs>
       <path d="M 37.796875 64.3125 
L 12.890625 25.390625 
L 37.796875 25.390625 
z
M 35.203125 72.90625 
L 47.609375 72.90625 
L 47.609375 25.390625 
L 58.015625 25.390625 
L 58.015625 17.1875 
L 47.609375 17.1875 
L 47.609375 0 
L 37.796875 0 
L 37.796875 17.1875 
L 4.890625 17.1875 
L 4.890625 26.703125 
z
" id="DejaVuSans-52"/>
      </defs>
      <g transform="translate(43.948438 321.017065)scale(0.3 -0.3)">
       <use xlink:href="#DejaVuSans-8722"/>
       <use x="83.789062" xlink:href="#DejaVuSans-52"/>
      </g>
     </g>
    </g>
    <g id="ytick_5">
     <g id="line2d_11">
      <g>
       <use style="stroke:#000000;stroke-width:0.8;" x="95.175" xlink:href="#m6a38b5b97a" y="252.365803"/>
      </g>
     </g>
     <g id="text_12">
      <!-- −3 -->
      <defs>
       <path d="M 40.578125 39.3125 
Q 47.65625 37.796875 51.625 33 
Q 55.609375 28.21875 55.609375 21.1875 
Q 55.609375 10.40625 48.1875 4.484375 
Q 40.765625 -1.421875 27.09375 -1.421875 
Q 22.515625 -1.421875 17.65625 -0.515625 
Q 12.796875 0.390625 7.625 2.203125 
L 7.625 11.71875 
Q 11.71875 9.328125 16.59375 8.109375 
Q 21.484375 6.890625 26.8125 6.890625 
Q 36.078125 6.890625 40.9375 10.546875 
Q 45.796875 14.203125 45.796875 21.1875 
Q 45.796875 27.640625 41.28125 31.265625 
Q 36.765625 34.90625 28.71875 34.90625 
L 20.21875 34.90625 
L 20.21875 43.015625 
L 29.109375 43.015625 
Q 36.375 43.015625 40.234375 45.921875 
Q 44.09375 48.828125 44.09375 54.296875 
Q 44.09375 59.90625 40.109375 62.90625 
Q 36.140625 65.921875 28.71875 65.921875 
Q 24.65625 65.921875 20.015625 65.03125 
Q 15.375 64.15625 9.8125 62.3125 
L 9.8125 71.09375 
Q 15.4375 72.65625 20.34375 73.4375 
Q 25.25 74.21875 29.59375 74.21875 
Q 40.828125 74.21875 47.359375 69.109375 
Q 53.90625 64.015625 53.90625 55.328125 
Q 53.90625 49.265625 50.4375 45.09375 
Q 46.96875 40.921875 40.578125 39.3125 
z
" id="DejaVuSans-51"/>
      </defs>
      <g transform="translate(43.948438 263.763459)scale(0.3 -0.3)">
       <use xlink:href="#DejaVuSans-8722"/>
       <use x="83.789062" xlink:href="#DejaVuSans-51"/>
      </g>
     </g>
    </g>
    <g id="ytick_6">
     <g id="line2d_12">
      <g>
       <use style="stroke:#000000;stroke-width:0.8;" x="95.175" xlink:href="#m6a38b5b97a" y="195.112197"/>
      </g>
     </g>
     <g id="text_13">
      <!-- −2 -->
      <g transform="translate(43.948438 206.509853)scale(0.3 -0.3)">
       <use xlink:href="#DejaVuSans-8722"/>
       <use x="83.789062" xlink:href="#DejaVuSans-50"/>
      </g>
     </g>
    </g>
    <g id="ytick_7">
     <g id="line2d_13">
      <g>
       <use style="stroke:#000000;stroke-width:0.8;" x="95.175" xlink:href="#m6a38b5b97a" y="137.858591"/>
      </g>
     </g>
     <g id="text_14">
      <!-- −1 -->
      <g transform="translate(43.948438 149.256247)scale(0.3 -0.3)">
       <use xlink:href="#DejaVuSans-8722"/>
       <use x="83.789062" xlink:href="#DejaVuSans-49"/>
      </g>
     </g>
    </g>
    <g id="ytick_8">
     <g id="line2d_14">
      <g>
       <use style="stroke:#000000;stroke-width:0.8;" x="95.175" xlink:href="#m6a38b5b97a" y="80.604985"/>
      </g>
     </g>
     <g id="text_15">
      <!-- 0 -->
      <g transform="translate(69.0875 92.002641)scale(0.3 -0.3)">
       <use xlink:href="#DejaVuSans-48"/>
      </g>
     </g>
    </g>
    <g id="ytick_9">
     <g id="line2d_15">
      <g>
       <use style="stroke:#000000;stroke-width:0.8;" x="95.175" xlink:href="#m6a38b5b97a" y="23.351379"/>
      </g>
     </g>
     <g id="text_16">
      <!-- 1 -->
      <g transform="translate(69.0875 34.749035)scale(0.3 -0.3)">
       <use xlink:href="#DejaVuSans-49"/>
      </g>
     </g>
    </g>
    <g id="text_17">
     <!-- Weight Value -->
     <defs>
      <path d="M 3.328125 72.90625 
L 13.28125 72.90625 
L 28.609375 11.28125 
L 43.890625 72.90625 
L 54.984375 72.90625 
L 70.3125 11.28125 
L 85.59375 72.90625 
L 95.609375 72.90625 
L 77.296875 0 
L 64.890625 0 
L 49.515625 63.28125 
L 33.984375 0 
L 21.578125 0 
z
" id="DejaVuSans-87"/>
      <path d="M 45.40625 27.984375 
Q 45.40625 37.75 41.375 43.109375 
Q 37.359375 48.484375 30.078125 48.484375 
Q 22.859375 48.484375 18.828125 43.109375 
Q 14.796875 37.75 14.796875 27.984375 
Q 14.796875 18.265625 18.828125 12.890625 
Q 22.859375 7.515625 30.078125 7.515625 
Q 37.359375 7.515625 41.375 12.890625 
Q 45.40625 18.265625 45.40625 27.984375 
z
M 54.390625 6.78125 
Q 54.390625 -7.171875 48.1875 -13.984375 
Q 42 -20.796875 29.203125 -20.796875 
Q 24.46875 -20.796875 20.265625 -20.09375 
Q 16.0625 -19.390625 12.109375 -17.921875 
L 12.109375 -9.1875 
Q 16.0625 -11.328125 19.921875 -12.34375 
Q 23.78125 -13.375 27.78125 -13.375 
Q 36.625 -13.375 41.015625 -8.765625 
Q 45.40625 -4.15625 45.40625 5.171875 
L 45.40625 9.625 
Q 42.625 4.78125 38.28125 2.390625 
Q 33.9375 0 27.875 0 
Q 17.828125 0 11.671875 7.65625 
Q 5.515625 15.328125 5.515625 27.984375 
Q 5.515625 40.671875 11.671875 48.328125 
Q 17.828125 56 27.875 56 
Q 33.9375 56 38.28125 53.609375 
Q 42.625 51.21875 45.40625 46.390625 
L 45.40625 54.6875 
L 54.390625 54.6875 
z
" id="DejaVuSans-103"/>
      <path d="M 54.890625 33.015625 
L 54.890625 0 
L 45.90625 0 
L 45.90625 32.71875 
Q 45.90625 40.484375 42.875 44.328125 
Q 39.84375 48.1875 33.796875 48.1875 
Q 26.515625 48.1875 22.3125 43.546875 
Q 18.109375 38.921875 18.109375 30.90625 
L 18.109375 0 
L 9.078125 0 
L 9.078125 75.984375 
L 18.109375 75.984375 
L 18.109375 46.1875 
Q 21.34375 51.125 25.703125 53.5625 
Q 30.078125 56 35.796875 56 
Q 45.21875 56 50.046875 50.171875 
Q 54.890625 44.34375 54.890625 33.015625 
z
" id="DejaVuSans-104"/>
      <path d="M 28.609375 0 
L 0.78125 72.90625 
L 11.078125 72.90625 
L 34.1875 11.53125 
L 57.328125 72.90625 
L 67.578125 72.90625 
L 39.796875 0 
z
" id="DejaVuSans-86"/>
      <path d="M 9.421875 75.984375 
L 18.40625 75.984375 
L 18.40625 0 
L 9.421875 0 
z
" id="DejaVuSans-108"/>
      <path d="M 8.5 21.578125 
L 8.5 54.6875 
L 17.484375 54.6875 
L 17.484375 21.921875 
Q 17.484375 14.15625 20.5 10.265625 
Q 23.53125 6.390625 29.59375 6.390625 
Q 36.859375 6.390625 41.078125 11.03125 
Q 45.3125 15.671875 45.3125 23.6875 
L 45.3125 54.6875 
L 54.296875 54.6875 
L 54.296875 0 
L 45.3125 0 
L 45.3125 8.40625 
Q 42.046875 3.421875 37.71875 1 
Q 33.40625 -1.421875 27.6875 -1.421875 
Q 18.265625 -1.421875 13.375 4.4375 
Q 8.5 10.296875 8.5 21.578125 
z
M 31.109375 56 
z
" id="DejaVuSans-117"/>
     </defs>
     <g transform="translate(33.709375 354.764876)rotate(-90)scale(0.3 -0.3)">
      <use xlink:href="#DejaVuSans-87"/>
      <use x="98.798828" xlink:href="#DejaVuSans-101"/>
      <use x="160.322266" xlink:href="#DejaVuSans-105"/>
      <use x="188.105469" xlink:href="#DejaVuSans-103"/>
      <use x="251.582031" xlink:href="#DejaVuSans-104"/>
      <use x="314.960938" xlink:href="#DejaVuSans-116"/>
      <use x="354.169922" xlink:href="#DejaVuSans-32"/>
      <use x="385.957031" xlink:href="#DejaVuSans-86"/>
      <use x="454.255859" xlink:href="#DejaVuSans-97"/>
      <use x="515.535156" xlink:href="#DejaVuSans-108"/>
      <use x="543.318359" xlink:href="#DejaVuSans-117"/>
      <use x="606.697266" xlink:href="#DejaVuSans-101"/>
     </g>
    </g>
   </g>
   <g id="line2d_16">
    <path clip-path="url(#p43e3e1ae05)" d="M 156.759221 75.980026 
L 161.492828 87.892078 
L 166.226434 73.420247 
L 170.960041 72.500368 
L 175.693648 87.286529 
L 180.427254 79.275226 
L 185.160861 82.123912 
L 189.894467 88.963223 
L 194.628074 76.270952 
L 199.36168 84.808555 
L 204.095287 76.390132 
L 208.828893 72.333439 
L 213.5625 80.275319 
L 218.296107 88.598015 
L 223.029713 68.25162 
L 227.76332 78.434259 
L 232.496926 56.273153 
L 237.230533 64.356887 
L 241.964139 99.94908 
L 246.697746 71.858287 
L 251.431352 81.217547 
L 256.164959 85.721766 
L 260.898566 70.767745 
L 265.632172 86.739771 
L 270.365779 80.664825 
L 275.099385 54.551092 
L 279.832992 95.107518 
L 284.566598 88.588428 
L 289.300205 71.998855 
L 294.033811 51.465605 
L 298.767418 79.388018 
L 303.501025 66.038651 
L 308.234631 93.081142 
L 312.968238 89.348215 
L 317.701844 91.059162 
L 322.435451 75.509234 
L 327.169057 100.639931 
L 331.902664 80.355982 
L 336.63627 77.047134 
L 341.369877 100.473279 
L 346.103484 86.774268 
L 350.83709 84.231568 
L 355.570697 82.492556 
L 360.304303 81.692633 
L 365.03791 99.8646 
L 369.771516 86.497585 
L 374.505123 83.050838 
L 379.23873 82.494825 
L 383.972336 77.813554 
L 388.705943 102.4681 
L 393.439549 95.787059 
L 398.173156 86.008247 
L 402.906762 81.732703 
L 407.640369 79.899119 
L 412.373975 70.423449 
L 417.107582 72.526705 
L 421.841189 80.620521 
L 426.574795 61.320657 
L 431.308402 84.0708 
L 440.775615 77.936227 
L 445.509221 66.283715 
L 450.242828 87.739646 
L 454.976434 86.62633 
L 459.710041 76.325414 
L 464.443648 66.578034 
L 469.177254 98.423979 
L 473.910861 80.24638 
L 478.644467 101.855929 
L 483.378074 70.907791 
L 488.11168 82.117826 
L 492.845287 103.379022 
L 497.578893 83.318819 
L 502.3125 81.901014 
L 507.046107 90.943953 
L 511.779713 78.819521 
L 516.51332 81.45082 
L 521.246926 83.187372 
L 525.980533 74.091859 
L 530.714139 82.106687 
L 535.447746 82.929759 
L 540.181352 77.295425 
L 544.914959 71.84095 
L 549.648566 73.128311 
L 554.382172 92.761702 
L 559.115779 73.855611 
L 563.849385 73.178758 
L 568.582992 80.393956 
L 573.316598 80.990467 
L 578.050205 72.920832 
L 582.783811 76.564953 
L 587.517418 79.070711 
L 592.251025 78.436871 
L 596.984631 82.701285 
L 601.718238 81.185413 
L 606.451844 83.08385 
L 611.185451 84.386872 
L 615.919057 98.334794 
L 620.652664 86.328169 
L 625.38627 73.359967 
L 630.119877 98.484364 
L 634.853484 96.521112 
L 639.58709 93.250767 
L 644.320697 71.396049 
L 649.054303 71.110442 
L 653.78791 51.598856 
L 658.521516 47.05809 
L 663.255123 73.088797 
L 667.98873 93.338166 
L 672.722336 87.018566 
L 677.455943 72.934807 
L 682.189549 103.156839 
L 686.923156 82.931234 
L 691.656762 75.313907 
L 696.390369 98.982159 
L 701.123975 86.255948 
L 705.857582 77.542772 
L 710.591189 83.078642 
L 715.324795 87.981505 
L 720.058402 101.189957 
L 724.792008 69.169359 
L 729.525615 72.849455 
L 734.259221 79.666011 
L 738.992828 79.384127 
L 743.726434 96.762325 
L 748.460041 97.524982 
L 753.193648 81.648605 
L 757.927254 84.681033 
L 762.660861 65.758359 
L 767.394467 77.759002 
L 772.128074 86.578688 
L 776.86168 74.190937 
L 781.595287 72.377648 
L 786.328893 75.924072 
L 791.0625 80.192889 
L 795.796107 88.456474 
L 800.529713 78.468197 
L 805.26332 87.477342 
L 809.996926 90.658117 
L 814.730533 72.055014 
L 819.464139 74.240076 
L 824.197746 78.264193 
L 828.931352 88.143792 
L 833.664959 65.069726 
L 838.398566 54.284789 
L 843.132172 82.298367 
L 847.865779 81.652692 
L 852.599385 90.045948 
L 857.332992 92.168415 
L 862.066598 66.651782 
L 866.800205 79.489166 
L 871.533811 90.057486 
L 876.267418 90.052877 
L 881.001025 78.925937 
L 885.734631 69.529778 
L 890.468238 94.400611 
L 895.201844 57.677378 
L 899.935451 79.405358 
L 904.669057 97.563355 
L 909.402664 79.961793 
L 914.13627 94.321492 
L 918.869877 97.729546 
L 923.603484 93.237332 
L 928.33709 92.932975 
L 933.070697 81.992179 
L 937.804303 85.533708 
L 942.53791 88.242386 
L 947.271516 61.389871 
L 952.005123 78.264583 
L 956.73873 98.78467 
L 961.472336 75.581843 
L 966.205943 72.166667 
L 970.939549 103.408799 
L 975.673156 86.362067 
L 980.406762 66.006988 
L 985.140369 90.059564 
L 989.873975 68.157936 
L 994.607582 65.581126 
L 999.341189 76.004349 
L 1004.074795 91.431805 
L 1008.808402 73.786721 
L 1013.542008 84.600263 
L 1018.275615 78.868807 
L 1023.009221 77.41893 
L 1027.742828 97.520426 
L 1032.476434 97.347601 
L 1037.210041 111.637138 
L 1041.943648 66.628976 
L 1046.677254 92.981929 
L 1051.410861 90.069277 
L 1056.144467 73.775186 
L 1060.878074 58.427371 
L 1065.61168 70.354194 
L 1070.345287 76.118069 
L 1075.078893 90.819232 
L 1079.8125 89.447745 
L 1084.546107 90.999234 
L 1089.279713 89.284939 
L 1094.01332 101.378335 
L 1098.746926 82.238414 
L 1103.480533 66.846096 
L 1108.214139 93.404983 
L 1112.947746 89.882829 
L 1117.681352 76.426849 
L 1122.414959 72.23315 
L 1127.148566 85.115168 
L 1131.882172 81.474562 
L 1136.615779 81.937925 
L 1141.349385 87.643876 
L 1146.082992 105.634503 
L 1150.816598 82.027495 
L 1155.550205 77.23434 
L 1160.283811 94.024486 
L 1165.017418 106.783201 
L 1169.751025 67.026911 
L 1174.484631 67.512309 
L 1179.218238 82.125567 
L 1183.951844 72.900321 
L 1188.685451 61.056316 
L 1193.419057 82.248919 
L 1198.152664 89.100554 
L 1202.88627 46.865665 
L 1207.619877 90.192915 
L 1212.353484 39.718413 
L 1217.08709 66.293625 
L 1221.820697 63.656856 
L 1226.554303 84.175977 
L 1231.28791 75.565071 
L 1236.021516 102.316367 
L 1240.755123 77.127321 
L 1245.48873 93.229857 
L 1250.222336 74.302316 
L 1254.955943 74.379125 
L 1259.689549 82.864527 
L 1264.423156 98.808157 
L 1269.156762 76.074882 
L 1273.890369 84.490356 
L 1278.623975 91.049634 
L 1283.357582 87.789559 
L 1288.091189 97.632922 
L 1297.558402 57.232577 
L 1302.292008 65.383825 
L 1307.025615 93.987426 
L 1311.759221 73.664338 
L 1316.492828 96.397496 
L 1321.226434 92.267129 
L 1325.960041 58.692629 
L 1330.693648 86.098429 
L 1335.427254 118.837759 
L 1340.160861 86.411354 
L 1344.894467 100.382648 
L 1349.628074 86.963255 
L 1354.36168 84.573653 
L 1359.095287 85.465058 
L 1363.828893 64.818399 
L 1363.828893 64.818399 
" style="fill:none;stroke:#1f77b4;stroke-linecap:square;stroke-width:1.5;"/>
   </g>
   <g id="line2d_17">
    <path clip-path="url(#p43e3e1ae05)" d="M 156.759221 80.501683 
L 161.492828 65.620834 
L 166.226434 68.187124 
L 170.960041 72.591026 
L 175.693648 474.230188 
L 180.427254 100.895803 
L 185.160861 50.439527 
L 189.894467 285.353925 
L 194.628074 54.638468 
L 199.36168 89.935044 
L 204.095287 81.214562 
L 208.828893 87.351765 
L 218.296107 73.12695 
L 223.029713 92.483877 
L 227.76332 80.517566 
L 232.496926 84.382535 
L 237.230533 71.322562 
L 241.964139 83.519338 
L 246.697746 75.357751 
L 251.431352 71.643122 
L 256.164959 82.553303 
L 260.898566 98.27159 
L 265.632172 62.590513 
L 270.365779 71.493264 
L 275.099385 95.689481 
L 279.832992 68.659119 
L 284.566598 78.417074 
L 289.300205 85.329214 
L 294.033811 87.23027 
L 298.767418 85.978094 
L 303.501025 76.623777 
L 312.968238 80.485126 
L 317.701844 63.342308 
L 322.435451 77.480255 
L 327.169057 66.915966 
L 331.902664 75.775938 
L 336.63627 92.390478 
L 341.369877 91.284791 
L 346.103484 94.021124 
L 350.83709 94.88016 
L 355.570697 63.375703 
L 360.304303 74.649616 
L 365.03791 89.510623 
L 369.771516 57.883523 
L 374.505123 98.955278 
L 379.23873 88.237199 
L 383.972336 94.018052 
L 388.705943 102.14224 
L 393.439549 82.868983 
L 398.173156 88.296677 
L 402.906762 59.991341 
L 407.640369 88.16258 
L 412.373975 88.040124 
L 417.107582 82.905453 
L 421.841189 71.582787 
L 426.574795 56.40199 
L 431.308402 88.115023 
L 436.042008 66.749156 
L 440.775615 82.820138 
L 445.509221 77.818736 
L 450.242828 55.92456 
L 454.976434 84.815027 
L 459.710041 69.946934 
L 464.443648 85.792256 
L 469.177254 76.702375 
L 473.910861 74.566714 
L 478.644467 82.176668 
L 483.378074 75.484081 
L 488.11168 90.096327 
L 492.845287 53.694186 
L 497.578893 69.783427 
L 502.3125 85.210413 
L 507.046107 85.684166 
L 511.779713 89.226687 
L 516.51332 69.609671 
L 521.246926 79.148529 
L 525.980533 93.06117 
L 535.447746 76.947895 
L 540.181352 85.281611 
L 544.914959 81.947825 
L 549.648566 82.562924 
L 554.382172 88.60474 
L 559.115779 78.263966 
L 563.849385 90.81843 
L 568.582992 75.556522 
L 573.316598 71.908563 
L 578.050205 73.9218 
L 582.783811 87.712392 
L 587.517418 75.531815 
L 592.251025 104.561652 
L 596.984631 64.767542 
L 601.718238 78.71294 
L 606.451844 94.731311 
L 611.185451 69.703254 
L 615.919057 85.904314 
L 620.652664 89.700678 
L 625.38627 78.208984 
L 630.119877 76.622458 
L 634.853484 73.928315 
L 639.58709 69.127507 
L 644.320697 78.744871 
L 649.054303 80.795025 
L 653.78791 81.832299 
L 658.521516 74.748537 
L 663.255123 76.235484 
L 667.98873 69.009238 
L 672.722336 80.718391 
L 677.455943 98.219423 
L 682.189549 84.516928 
L 686.923156 74.663703 
L 691.656762 84.243091 
L 696.390369 83.106998 
L 701.123975 85.347439 
L 705.857582 90.092012 
L 710.591189 64.496035 
L 715.324795 87.366108 
L 720.058402 68.56461 
L 724.792008 99.772586 
L 729.525615 63.415081 
L 734.259221 85.795215 
L 738.992828 88.72352 
L 743.726434 82.622727 
L 748.460041 91.65437 
L 753.193648 79.860187 
L 757.927254 81.920343 
L 762.660861 97.495509 
L 767.394467 76.060132 
L 772.128074 88.334616 
L 776.86168 93.339667 
L 781.595287 62.365349 
L 786.328893 59.246493 
L 791.0625 90.71904 
L 795.796107 85.258032 
L 800.529713 92.987631 
L 805.26332 88.193519 
L 809.996926 78.722097 
L 814.730533 67.908769 
L 819.464139 83.108031 
L 824.197746 79.633302 
L 828.931352 59.983699 
L 833.664959 80.656412 
L 838.398566 79.88359 
L 843.132172 74.098908 
L 847.865779 77.148359 
L 852.599385 88.759505 
L 857.332992 76.557764 
L 862.066598 55.061837 
L 866.800205 65.940758 
L 871.533811 78.183025 
L 876.267418 73.387608 
L 881.001025 87.877994 
L 885.734631 68.705868 
L 890.468238 81.794458 
L 895.201844 54.242535 
L 899.935451 89.988491 
L 904.669057 72.082231 
L 909.402664 90.418277 
L 914.13627 82.61042 
L 918.869877 81.270316 
L 923.603484 95.796056 
L 928.33709 81.01491 
L 933.070697 83.48885 
L 937.804303 86.427664 
L 942.53791 88.633768 
L 947.271516 80.254831 
L 952.005123 73.854511 
L 956.73873 84.101543 
L 961.472336 67.506449 
L 966.205943 92.920785 
L 970.939549 87.645715 
L 975.673156 64.464854 
L 980.406762 79.596291 
L 985.140369 90.376666 
L 989.873975 82.672096 
L 994.607582 79.483814 
L 999.341189 85.482121 
L 1004.074795 88.147865 
L 1008.808402 77.705359 
L 1013.542008 79.037903 
L 1018.275615 63.211649 
L 1023.009221 73.738801 
L 1027.742828 101.900718 
L 1032.476434 78.12989 
L 1037.210041 72.792944 
L 1041.943648 83.185904 
L 1046.677254 77.259385 
L 1051.410861 74.03497 
L 1056.144467 68.884871 
L 1060.878074 90.110136 
L 1065.61168 69.698955 
L 1070.345287 67.231265 
L 1075.078893 74.089815 
L 1079.8125 78.566486 
L 1084.546107 81.457289 
L 1089.279713 71.551671 
L 1094.01332 67.030717 
L 1098.746926 64.751857 
L 1103.480533 81.373801 
L 1108.214139 54.693869 
L 1112.947746 71.101141 
L 1117.681352 94.363156 
L 1122.414959 61.474044 
L 1127.148566 73.331652 
L 1131.882172 88.842811 
L 1136.615779 93.773111 
L 1141.349385 81.417375 
L 1146.082992 71.925066 
L 1150.816598 90.833596 
L 1155.550205 75.021772 
L 1160.283811 73.621031 
L 1165.017418 83.122227 
L 1169.751025 86.894325 
L 1174.484631 75.3573 
L 1179.218238 83.139049 
L 1183.951844 83.012838 
L 1188.685451 74.825456 
L 1193.419057 94.562402 
L 1198.152664 67.751629 
L 1202.88627 70.257782 
L 1207.619877 95.5975 
L 1212.353484 84.473028 
L 1217.08709 51.454258 
L 1221.820697 100.753022 
L 1226.554303 80.224061 
L 1231.28791 62.185605 
L 1236.021516 90.306523 
L 1240.755123 79.470788 
L 1245.48873 78.796039 
L 1250.222336 78.899143 
L 1254.955943 77.706914 
L 1259.689549 73.870589 
L 1264.423156 102.651975 
L 1269.156762 93.828282 
L 1273.890369 63.958635 
L 1278.623975 76.09792 
L 1283.357582 76.839432 
L 1288.091189 97.091057 
L 1292.824795 86.890405 
L 1297.558402 67.880324 
L 1302.292008 88.633985 
L 1307.025615 77.661487 
L 1311.759221 108.699297 
L 1316.492828 86.034205 
L 1321.226434 91.857044 
L 1325.960041 73.115885 
L 1330.693648 92.687188 
L 1335.427254 89.630956 
L 1340.160861 88.688468 
L 1344.894467 70.769058 
L 1349.628074 90.060948 
L 1354.36168 69.132475 
L 1359.095287 77.469723 
L 1363.828893 68.902372 
L 1363.828893 68.902372 
" style="fill:none;stroke:#ff7f0e;stroke-linecap:square;stroke-width:1.5;"/>
   </g>
   <g id="line2d_18">
    <path clip-path="url(#p43e3e1ae05)" d="M 156.759221 83.723042 
L 161.492828 105.292632 
L 166.226434 83.348873 
L 170.960041 92.775774 
L 175.693648 92.379505 
L 180.427254 58.908563 
L 185.160861 89.787255 
L 189.894467 90.215196 
L 194.628074 86.295256 
L 199.36168 70.888099 
L 204.095287 98.904264 
L 208.828893 72.349752 
L 213.5625 88.837757 
L 218.296107 94.495967 
L 223.029713 75.594244 
L 227.76332 68.57289 
L 232.496926 75.604929 
L 237.230533 67.871127 
L 241.964139 75.24142 
L 246.697746 85.112699 
L 251.431352 92.687468 
L 256.164959 91.584911 
L 260.898566 71.63286 
L 265.632172 90.492349 
L 270.365779 86.364249 
L 275.099385 97.465176 
L 279.832992 88.20894 
L 284.566598 65.677278 
L 289.300205 75.593997 
L 294.033811 71.400364 
L 298.767418 81.567455 
L 303.501025 68.424998 
L 308.234631 67.442403 
L 312.968238 78.133478 
L 317.701844 83.329884 
L 322.435451 98.113504 
L 327.169057 80.99078 
L 331.902664 70.016129 
L 336.63627 71.571167 
L 341.369877 75.854556 
L 346.103484 60.305389 
L 350.83709 62.091756 
L 355.570697 97.617338 
L 360.304303 67.724055 
L 365.03791 67.011991 
L 369.771516 63.923261 
L 374.505123 86.246229 
L 379.23873 63.094145 
L 383.972336 54.381449 
L 388.705943 99.930328 
L 393.439549 99.677479 
L 398.173156 78.598116 
L 402.906762 81.749819 
L 407.640369 86.769815 
L 412.373975 82.773285 
L 417.107582 88.17072 
L 421.841189 69.494109 
L 426.574795 67.786287 
L 431.308402 85.075378 
L 436.042008 79.743999 
L 440.775615 89.637469 
L 445.509221 84.638661 
L 450.242828 88.790249 
L 454.976434 74.31756 
L 459.710041 75.801978 
L 464.443648 45.787071 
L 469.177254 83.448488 
L 473.910861 91.785043 
L 478.644467 89.4354 
L 483.378074 89.024632 
L 488.11168 65.67386 
L 492.845287 84.019979 
L 497.578893 78.154927 
L 502.3125 91.164731 
L 507.046107 86.194228 
L 511.779713 94.963122 
L 516.51332 70.489204 
L 525.980533 91.619078 
L 530.714139 111.537112 
L 535.447746 67.6138 
L 540.181352 79.540839 
L 544.914959 96.833726 
L 549.648566 71.240101 
L 554.382172 34.833938 
L 559.115779 55.933011 
L 563.849385 68.495105 
L 568.582992 66.601535 
L 573.316598 68.53241 
L 578.050205 72.867667 
L 582.783811 89.560728 
L 587.517418 66.774418 
L 592.251025 84.836749 
L 596.984631 93.029494 
L 601.718238 69.639081 
L 606.451844 87.771762 
L 611.185451 100.169265 
L 615.919057 105.855919 
L 620.652664 82.804776 
L 625.38627 81.807093 
L 630.119877 59.676524 
L 634.853484 86.43349 
L 639.58709 97.64653 
L 644.320697 80.782427 
L 649.054303 76.941998 
L 653.78791 57.985882 
L 658.521516 73.793062 
L 663.255123 85.243043 
L 667.98873 75.533595 
L 672.722336 79.667584 
L 677.455943 95.801618 
L 682.189549 67.443564 
L 686.923156 76.02947 
L 691.656762 70.710647 
L 696.390369 69.726979 
L 701.123975 93.591133 
L 705.857582 68.066516 
L 710.591189 74.284841 
L 715.324795 103.017819 
L 720.058402 70.454507 
L 724.792008 75.582392 
L 729.525615 76.694553 
L 734.259221 97.080596 
L 738.992828 70.099773 
L 743.726434 82.19394 
L 748.460041 82.000096 
L 753.193648 72.533384 
L 757.927254 90.386766 
L 762.660861 89.662978 
L 767.394467 97.506619 
L 772.128074 81.561502 
L 776.86168 73.703504 
L 781.595287 77.583208 
L 786.328893 76.138707 
L 791.0625 86.787835 
L 795.796107 81.255335 
L 800.529713 77.91894 
L 805.26332 64.552651 
L 809.996926 73.633344 
L 814.730533 99.234555 
L 819.464139 66.265885 
L 824.197746 99.348232 
L 828.931352 79.451951 
L 833.664959 103.99098 
L 838.398566 83.55021 
L 843.132172 96.753406 
L 847.865779 75.889235 
L 852.599385 89.713046 
L 857.332992 69.888505 
L 862.066598 87.638806 
L 866.800205 86.763814 
L 871.533811 72.028497 
L 876.267418 97.995353 
L 881.001025 70.82021 
L 885.734631 66.22141 
L 890.468238 100.408736 
L 895.201844 94.850621 
L 899.935451 80.771083 
L 904.669057 85.64172 
L 909.402664 70.643946 
L 914.13627 91.34961 
L 918.869877 74.689572 
L 923.603484 82.757842 
L 928.33709 58.253611 
L 933.070697 75.854538 
L 937.804303 64.673894 
L 942.53791 82.115437 
L 947.271516 94.109482 
L 952.005123 69.343305 
L 956.73873 86.664915 
L 961.472336 63.35955 
L 966.205943 91.400142 
L 970.939549 104.889219 
L 980.406762 84.043025 
L 985.140369 78.431817 
L 989.873975 66.734302 
L 994.607582 72.920504 
L 999.341189 101.920488 
L 1004.074795 103.81588 
L 1008.808402 74.360201 
L 1013.542008 83.61029 
L 1018.275615 65.820626 
L 1023.009221 83.332474 
L 1027.742828 60.536521 
L 1032.476434 86.412032 
L 1037.210041 98.95528 
L 1041.943648 75.05871 
L 1046.677254 103.126484 
L 1051.410861 93.13427 
L 1056.144467 79.120697 
L 1060.878074 56.49749 
L 1065.61168 62.342647 
L 1070.345287 83.032624 
L 1075.078893 75.491762 
L 1079.8125 85.988292 
L 1084.546107 84.646745 
L 1089.279713 77.214405 
L 1094.01332 77.592529 
L 1098.746926 80.547699 
L 1103.480533 63.524715 
L 1108.214139 87.217943 
L 1112.947746 63.188351 
L 1117.681352 89.276898 
L 1122.414959 71.270949 
L 1127.148566 86.597288 
L 1131.882172 64.819575 
L 1136.615779 79.831041 
L 1141.349385 73.938382 
L 1146.082992 80.177916 
L 1150.816598 71.51565 
L 1155.550205 68.356851 
L 1160.283811 79.62058 
L 1165.017418 69.12256 
L 1169.751025 53.597347 
L 1174.484631 98.956227 
L 1179.218238 99.739266 
L 1183.951844 89.883683 
L 1188.685451 82.039501 
L 1193.419057 73.326122 
L 1198.152664 68.284766 
L 1202.88627 96.012163 
L 1207.619877 71.921 
L 1212.353484 78.594142 
L 1217.08709 78.906737 
L 1221.820697 61.43999 
L 1226.554303 89.328075 
L 1231.28791 81.498054 
L 1236.021516 71.722646 
L 1240.755123 59.283266 
L 1245.48873 75.418149 
L 1250.222336 84.840825 
L 1254.955943 79.613213 
L 1259.689549 71.058856 
L 1264.423156 58.570612 
L 1269.156762 83.918128 
L 1273.890369 81.994853 
L 1278.623975 72.585125 
L 1283.357582 90.80024 
L 1288.091189 66.65033 
L 1292.824795 82.614276 
L 1297.558402 61.89078 
L 1302.292008 83.277388 
L 1307.025615 63.59713 
L 1311.759221 92.392388 
L 1316.492828 87.253105 
L 1321.226434 80.616273 
L 1325.960041 81.59284 
L 1330.693648 85.847534 
L 1335.427254 79.33672 
L 1340.160861 101.629759 
L 1344.894467 86.140432 
L 1349.628074 71.60069 
L 1354.36168 72.211242 
L 1359.095287 112.743982 
L 1363.828893 69.052431 
L 1363.828893 69.052431 
" style="fill:none;stroke:#2ca02c;stroke-linecap:square;stroke-width:1.5;"/>
   </g>
   <g id="patch_13">
    <path d="M 95.175 496.2 
L 95.175 12.864126 
" style="fill:none;stroke:#000000;stroke-linecap:square;stroke-linejoin:miter;stroke-width:0.8;"/>
   </g>
   <g id="patch_14">
    <path d="M 1429.2 496.2 
L 1429.2 12.864126 
" style="fill:none;stroke:#000000;stroke-linecap:square;stroke-linejoin:miter;stroke-width:0.8;"/>
   </g>
   <g id="patch_15">
    <path d="M 95.175 496.2 
L 1429.2 496.2 
" style="fill:none;stroke:#000000;stroke-linecap:square;stroke-linejoin:miter;stroke-width:0.8;"/>
   </g>
   <g id="patch_16">
    <path d="M 95.175 12.864126 
L 1429.2 12.864126 
" style="fill:none;stroke:#000000;stroke-linecap:square;stroke-linejoin:miter;stroke-width:0.8;"/>
   </g>
  </g>
 </g>
 <defs>
  <clipPath id="p43e3e1ae05">
   <rect height="483.335874" width="1334.025" x="95.175" y="12.864126"/>
  </clipPath>
 </defs>
</svg>
