<?xml version="1.0" encoding="utf-8" standalone="no"?>
<!DOCTYPE svg PUBLIC "-//W3C//DTD SVG 1.1//EN"
  "http://www.w3.org/Graphics/SVG/1.1/DTD/svg11.dtd">
<!-- Created with matplotlib (https://matplotlib.org/) -->
<svg height="576pt" version="1.1" viewBox="0 0 1440 576" width="1440pt" xmlns="http://www.w3.org/2000/svg" xmlns:xlink="http://www.w3.org/1999/xlink">
 <defs>
  <style type="text/css">
*{stroke-linecap:butt;stroke-linejoin:round;white-space:pre;}
  </style>
 </defs>
 <g id="figure_1">
  <g id="patch_1">
   <path d="M 0 576 
L 1440 576 
L 1440 0 
L 0 0 
z
" style="fill:#ffffff;"/>
  </g>
  <g id="axes_1">
   <g id="patch_2">
    <path d="M 95.175 496.2 
L 1429.2 496.2 
L 1429.2 22.247689 
L 95.175 22.247689 
z
" style="fill:#ffffff;"/>
   </g>
   <g id="patch_3">
    <path clip-path="url(#p80526d9cc9)" d="M 155.8125 496.2 
L 155.8125 22.247689 
L 156.759221 22.247689 
L 156.759221 496.2 
z
" style="fill:#0000ff;"/>
   </g>
   <g id="patch_4">
    <path clip-path="url(#p80526d9cc9)" d="M 160.546107 496.2 
L 160.546107 22.247689 
L 161.492828 22.247689 
L 161.492828 496.2 
z
" style="fill:#0000ff;"/>
   </g>
   <g id="patch_5">
    <path clip-path="url(#p80526d9cc9)" d="M 198.414959 496.2 
L 198.414959 22.247689 
L 199.36168 22.247689 
L 199.36168 496.2 
z
" style="fill:#0000ff;"/>
   </g>
   <g id="patch_6">
    <path clip-path="url(#p80526d9cc9)" d="M 330.955943 496.2 
L 330.955943 22.247689 
L 331.902664 22.247689 
L 331.902664 496.2 
z
" style="fill:#0000ff;"/>
   </g>
   <g id="patch_7">
    <path clip-path="url(#p80526d9cc9)" d="M 596.03791 496.2 
L 596.03791 22.247689 
L 596.984631 22.247689 
L 596.984631 496.2 
z
" style="fill:#0000ff;"/>
   </g>
   <g id="patch_8">
    <path clip-path="url(#p80526d9cc9)" d="M 927.390369 496.2 
L 927.390369 22.247689 
L 928.33709 22.247689 
L 928.33709 496.2 
z
" style="fill:#0000ff;"/>
   </g>
   <g id="patch_9">
    <path clip-path="url(#p80526d9cc9)" d="M 1192.472336 496.2 
L 1192.472336 22.247689 
L 1193.419057 22.247689 
L 1193.419057 496.2 
z
" style="fill:#0000ff;"/>
   </g>
   <g id="patch_10">
    <path clip-path="url(#p80526d9cc9)" d="M 1325.01332 496.2 
L 1325.01332 22.247689 
L 1325.960041 22.247689 
L 1325.960041 496.2 
z
" style="fill:#0000ff;"/>
   </g>
   <g id="patch_11">
    <path clip-path="url(#p80526d9cc9)" d="M 1362.882172 496.2 
L 1362.882172 22.247689 
L 1363.828893 22.247689 
L 1363.828893 496.2 
z
" style="fill:#0000ff;"/>
   </g>
   <g id="patch_12">
    <path clip-path="url(#p80526d9cc9)" d="M 1367.615779 496.2 
L 1367.615779 22.247689 
L 1368.5625 22.247689 
L 1368.5625 496.2 
z
" style="fill:#0000ff;"/>
   </g>
   <g id="matplotlib.axis_1">
    <g id="xtick_1">
     <g id="line2d_1">
      <defs>
       <path d="M 0 0 
L 0 3.5 
" id="m9776cd225c" style="stroke:#000000;stroke-width:0.8;"/>
      </defs>
      <g>
       <use style="stroke:#000000;stroke-width:0.8;" x="156.759221" xlink:href="#m9776cd225c" y="496.2"/>
      </g>
     </g>
     <g id="text_1">
      <!-- 0 -->
      <defs>
       <path d="M 31.78125 66.40625 
Q 24.171875 66.40625 20.328125 58.90625 
Q 16.5 51.421875 16.5 36.375 
Q 16.5 21.390625 20.328125 13.890625 
Q 24.171875 6.390625 31.78125 6.390625 
Q 39.453125 6.390625 43.28125 13.890625 
Q 47.125 21.390625 47.125 36.375 
Q 47.125 51.421875 43.28125 58.90625 
Q 39.453125 66.40625 31.78125 66.40625 
z
M 31.78125 74.21875 
Q 44.046875 74.21875 50.515625 64.515625 
Q 56.984375 54.828125 56.984375 36.375 
Q 56.984375 17.96875 50.515625 8.265625 
Q 44.046875 -1.421875 31.78125 -1.421875 
Q 19.53125 -1.421875 13.0625 8.265625 
Q 6.59375 17.96875 6.59375 36.375 
Q 6.59375 54.828125 13.0625 64.515625 
Q 19.53125 74.21875 31.78125 74.21875 
z
" id="DejaVuSans-48"/>
      </defs>
      <g transform="translate(147.215471 525.995312)scale(0.3 -0.3)">
       <use xlink:href="#DejaVuSans-48"/>
      </g>
     </g>
    </g>
    <g id="xtick_2">
     <g id="line2d_2">
      <g>
       <use style="stroke:#000000;stroke-width:0.8;" x="393.439549" xlink:href="#m9776cd225c" y="496.2"/>
      </g>
     </g>
     <g id="text_2">
      <!-- 50 -->
      <defs>
       <path d="M 10.796875 72.90625 
L 49.515625 72.90625 
L 49.515625 64.59375 
L 19.828125 64.59375 
L 19.828125 46.734375 
Q 21.96875 47.46875 24.109375 47.828125 
Q 26.265625 48.1875 28.421875 48.1875 
Q 40.625 48.1875 47.75 41.5 
Q 54.890625 34.8125 54.890625 23.390625 
Q 54.890625 11.625 47.5625 5.09375 
Q 40.234375 -1.421875 26.90625 -1.421875 
Q 22.3125 -1.421875 17.546875 -0.640625 
Q 12.796875 0.140625 7.71875 1.703125 
L 7.71875 11.625 
Q 12.109375 9.234375 16.796875 8.0625 
Q 21.484375 6.890625 26.703125 6.890625 
Q 35.15625 6.890625 40.078125 11.328125 
Q 45.015625 15.765625 45.015625 23.390625 
Q 45.015625 31 40.078125 35.4375 
Q 35.15625 39.890625 26.703125 39.890625 
Q 22.75 39.890625 18.8125 39.015625 
Q 14.890625 38.140625 10.796875 36.28125 
z
" id="DejaVuSans-53"/>
      </defs>
      <g transform="translate(374.352049 525.995312)scale(0.3 -0.3)">
       <use xlink:href="#DejaVuSans-53"/>
       <use x="63.623047" xlink:href="#DejaVuSans-48"/>
      </g>
     </g>
    </g>
    <g id="xtick_3">
     <g id="line2d_3">
      <g>
       <use style="stroke:#000000;stroke-width:0.8;" x="630.119877" xlink:href="#m9776cd225c" y="496.2"/>
      </g>
     </g>
     <g id="text_3">
      <!-- 100 -->
      <defs>
       <path d="M 12.40625 8.296875 
L 28.515625 8.296875 
L 28.515625 63.921875 
L 10.984375 60.40625 
L 10.984375 69.390625 
L 28.421875 72.90625 
L 38.28125 72.90625 
L 38.28125 8.296875 
L 54.390625 8.296875 
L 54.390625 0 
L 12.40625 0 
z
" id="DejaVuSans-49"/>
      </defs>
      <g transform="translate(601.488627 525.995312)scale(0.3 -0.3)">
       <use xlink:href="#DejaVuSans-49"/>
       <use x="63.623047" xlink:href="#DejaVuSans-48"/>
       <use x="127.246094" xlink:href="#DejaVuSans-48"/>
      </g>
     </g>
    </g>
    <g id="xtick_4">
     <g id="line2d_4">
      <g>
       <use style="stroke:#000000;stroke-width:0.8;" x="866.800205" xlink:href="#m9776cd225c" y="496.2"/>
      </g>
     </g>
     <g id="text_4">
      <!-- 150 -->
      <g transform="translate(838.168955 525.995312)scale(0.3 -0.3)">
       <use xlink:href="#DejaVuSans-49"/>
       <use x="63.623047" xlink:href="#DejaVuSans-53"/>
       <use x="127.246094" xlink:href="#DejaVuSans-48"/>
      </g>
     </g>
    </g>
    <g id="xtick_5">
     <g id="line2d_5">
      <g>
       <use style="stroke:#000000;stroke-width:0.8;" x="1103.480533" xlink:href="#m9776cd225c" y="496.2"/>
      </g>
     </g>
     <g id="text_5">
      <!-- 200 -->
      <defs>
       <path d="M 19.1875 8.296875 
L 53.609375 8.296875 
L 53.609375 0 
L 7.328125 0 
L 7.328125 8.296875 
Q 12.9375 14.109375 22.625 23.890625 
Q 32.328125 33.6875 34.8125 36.53125 
Q 39.546875 41.84375 41.421875 45.53125 
Q 43.3125 49.21875 43.3125 52.78125 
Q 43.3125 58.59375 39.234375 62.25 
Q 35.15625 65.921875 28.609375 65.921875 
Q 23.96875 65.921875 18.8125 64.3125 
Q 13.671875 62.703125 7.8125 59.421875 
L 7.8125 69.390625 
Q 13.765625 71.78125 18.9375 73 
Q 24.125 74.21875 28.421875 74.21875 
Q 39.75 74.21875 46.484375 68.546875 
Q 53.21875 62.890625 53.21875 53.421875 
Q 53.21875 48.921875 51.53125 44.890625 
Q 49.859375 40.875 45.40625 35.40625 
Q 44.1875 33.984375 37.640625 27.21875 
Q 31.109375 20.453125 19.1875 8.296875 
z
" id="DejaVuSans-50"/>
      </defs>
      <g transform="translate(1074.849283 525.995312)scale(0.3 -0.3)">
       <use xlink:href="#DejaVuSans-50"/>
       <use x="63.623047" xlink:href="#DejaVuSans-48"/>
       <use x="127.246094" xlink:href="#DejaVuSans-48"/>
      </g>
     </g>
    </g>
    <g id="xtick_6">
     <g id="line2d_6">
      <g>
       <use style="stroke:#000000;stroke-width:0.8;" x="1340.160861" xlink:href="#m9776cd225c" y="496.2"/>
      </g>
     </g>
     <g id="text_6">
      <!-- 250 -->
      <g transform="translate(1311.529611 525.995312)scale(0.3 -0.3)">
       <use xlink:href="#DejaVuSans-50"/>
       <use x="63.623047" xlink:href="#DejaVuSans-53"/>
       <use x="127.246094" xlink:href="#DejaVuSans-48"/>
      </g>
     </g>
    </g>
    <g id="text_7">
     <!-- Bit Interaction -->
     <defs>
      <path d="M 19.671875 34.8125 
L 19.671875 8.109375 
L 35.5 8.109375 
Q 43.453125 8.109375 47.28125 11.40625 
Q 51.125 14.703125 51.125 21.484375 
Q 51.125 28.328125 47.28125 31.5625 
Q 43.453125 34.8125 35.5 34.8125 
z
M 19.671875 64.796875 
L 19.671875 42.828125 
L 34.28125 42.828125 
Q 41.5 42.828125 45.03125 45.53125 
Q 48.578125 48.25 48.578125 53.8125 
Q 48.578125 59.328125 45.03125 62.0625 
Q 41.5 64.796875 34.28125 64.796875 
z
M 9.8125 72.90625 
L 35.015625 72.90625 
Q 46.296875 72.90625 52.390625 68.21875 
Q 58.5 63.53125 58.5 54.890625 
Q 58.5 48.1875 55.375 44.234375 
Q 52.25 40.28125 46.1875 39.3125 
Q 53.46875 37.75 57.5 32.78125 
Q 61.53125 27.828125 61.53125 20.40625 
Q 61.53125 10.640625 54.890625 5.3125 
Q 48.25 0 35.984375 0 
L 9.8125 0 
z
" id="DejaVuSans-66"/>
      <path d="M 9.421875 54.6875 
L 18.40625 54.6875 
L 18.40625 0 
L 9.421875 0 
z
M 9.421875 75.984375 
L 18.40625 75.984375 
L 18.40625 64.59375 
L 9.421875 64.59375 
z
" id="DejaVuSans-105"/>
      <path d="M 18.3125 70.21875 
L 18.3125 54.6875 
L 36.8125 54.6875 
L 36.8125 47.703125 
L 18.3125 47.703125 
L 18.3125 18.015625 
Q 18.3125 11.328125 20.140625 9.421875 
Q 21.96875 7.515625 27.59375 7.515625 
L 36.8125 7.515625 
L 36.8125 0 
L 27.59375 0 
Q 17.1875 0 13.234375 3.875 
Q 9.28125 7.765625 9.28125 18.015625 
L 9.28125 47.703125 
L 2.6875 47.703125 
L 2.6875 54.6875 
L 9.28125 54.6875 
L 9.28125 70.21875 
z
" id="DejaVuSans-116"/>
      <path id="DejaVuSans-32"/>
      <path d="M 9.8125 72.90625 
L 19.671875 72.90625 
L 19.671875 0 
L 9.8125 0 
z
" id="DejaVuSans-73"/>
      <path d="M 54.890625 33.015625 
L 54.890625 0 
L 45.90625 0 
L 45.90625 32.71875 
Q 45.90625 40.484375 42.875 44.328125 
Q 39.84375 48.1875 33.796875 48.1875 
Q 26.515625 48.1875 22.3125 43.546875 
Q 18.109375 38.921875 18.109375 30.90625 
L 18.109375 0 
L 9.078125 0 
L 9.078125 54.6875 
L 18.109375 54.6875 
L 18.109375 46.1875 
Q 21.34375 51.125 25.703125 53.5625 
Q 30.078125 56 35.796875 56 
Q 45.21875 56 50.046875 50.171875 
Q 54.890625 44.34375 54.890625 33.015625 
z
" id="DejaVuSans-110"/>
      <path d="M 56.203125 29.59375 
L 56.203125 25.203125 
L 14.890625 25.203125 
Q 15.484375 15.921875 20.484375 11.0625 
Q 25.484375 6.203125 34.421875 6.203125 
Q 39.59375 6.203125 44.453125 7.46875 
Q 49.3125 8.734375 54.109375 11.28125 
L 54.109375 2.78125 
Q 49.265625 0.734375 44.1875 -0.34375 
Q 39.109375 -1.421875 33.890625 -1.421875 
Q 20.796875 -1.421875 13.15625 6.1875 
Q 5.515625 13.8125 5.515625 26.8125 
Q 5.515625 40.234375 12.765625 48.109375 
Q 20.015625 56 32.328125 56 
Q 43.359375 56 49.78125 48.890625 
Q 56.203125 41.796875 56.203125 29.59375 
z
M 47.21875 32.234375 
Q 47.125 39.59375 43.09375 43.984375 
Q 39.0625 48.390625 32.421875 48.390625 
Q 24.90625 48.390625 20.390625 44.140625 
Q 15.875 39.890625 15.1875 32.171875 
z
" id="DejaVuSans-101"/>
      <path d="M 41.109375 46.296875 
Q 39.59375 47.171875 37.8125 47.578125 
Q 36.03125 48 33.890625 48 
Q 26.265625 48 22.1875 43.046875 
Q 18.109375 38.09375 18.109375 28.8125 
L 18.109375 0 
L 9.078125 0 
L 9.078125 54.6875 
L 18.109375 54.6875 
L 18.109375 46.1875 
Q 20.953125 51.171875 25.484375 53.578125 
Q 30.03125 56 36.53125 56 
Q 37.453125 56 38.578125 55.875 
Q 39.703125 55.765625 41.0625 55.515625 
z
" id="DejaVuSans-114"/>
      <path d="M 34.28125 27.484375 
Q 23.390625 27.484375 19.1875 25 
Q 14.984375 22.515625 14.984375 16.5 
Q 14.984375 11.71875 18.140625 8.90625 
Q 21.296875 6.109375 26.703125 6.109375 
Q 34.1875 6.109375 38.703125 11.40625 
Q 43.21875 16.703125 43.21875 25.484375 
L 43.21875 27.484375 
z
M 52.203125 31.203125 
L 52.203125 0 
L 43.21875 0 
L 43.21875 8.296875 
Q 40.140625 3.328125 35.546875 0.953125 
Q 30.953125 -1.421875 24.3125 -1.421875 
Q 15.921875 -1.421875 10.953125 3.296875 
Q 6 8.015625 6 15.921875 
Q 6 25.140625 12.171875 29.828125 
Q 18.359375 34.515625 30.609375 34.515625 
L 43.21875 34.515625 
L 43.21875 35.40625 
Q 43.21875 41.609375 39.140625 45 
Q 35.0625 48.390625 27.6875 48.390625 
Q 23 48.390625 18.546875 47.265625 
Q 14.109375 46.140625 10.015625 43.890625 
L 10.015625 52.203125 
Q 14.9375 54.109375 19.578125 55.046875 
Q 24.21875 56 28.609375 56 
Q 40.484375 56 46.34375 49.84375 
Q 52.203125 43.703125 52.203125 31.203125 
z
" id="DejaVuSans-97"/>
      <path d="M 48.78125 52.59375 
L 48.78125 44.1875 
Q 44.96875 46.296875 41.140625 47.34375 
Q 37.3125 48.390625 33.40625 48.390625 
Q 24.65625 48.390625 19.8125 42.84375 
Q 14.984375 37.3125 14.984375 27.296875 
Q 14.984375 17.28125 19.8125 11.734375 
Q 24.65625 6.203125 33.40625 6.203125 
Q 37.3125 6.203125 41.140625 7.25 
Q 44.96875 8.296875 48.78125 10.40625 
L 48.78125 2.09375 
Q 45.015625 0.34375 40.984375 -0.53125 
Q 36.96875 -1.421875 32.421875 -1.421875 
Q 20.0625 -1.421875 12.78125 6.34375 
Q 5.515625 14.109375 5.515625 27.296875 
Q 5.515625 40.671875 12.859375 48.328125 
Q 20.21875 56 33.015625 56 
Q 37.15625 56 41.109375 55.140625 
Q 45.0625 54.296875 48.78125 52.59375 
z
" id="DejaVuSans-99"/>
      <path d="M 30.609375 48.390625 
Q 23.390625 48.390625 19.1875 42.75 
Q 14.984375 37.109375 14.984375 27.296875 
Q 14.984375 17.484375 19.15625 11.84375 
Q 23.34375 6.203125 30.609375 6.203125 
Q 37.796875 6.203125 41.984375 11.859375 
Q 46.1875 17.53125 46.1875 27.296875 
Q 46.1875 37.015625 41.984375 42.703125 
Q 37.796875 48.390625 30.609375 48.390625 
z
M 30.609375 56 
Q 42.328125 56 49.015625 48.375 
Q 55.71875 40.765625 55.71875 27.296875 
Q 55.71875 13.875 49.015625 6.21875 
Q 42.328125 -1.421875 30.609375 -1.421875 
Q 18.84375 -1.421875 12.171875 6.21875 
Q 5.515625 13.875 5.515625 27.296875 
Q 5.515625 40.765625 12.171875 48.375 
Q 18.84375 56 30.609375 56 
z
" id="DejaVuSans-111"/>
     </defs>
     <g transform="translate(655.701563 559.029688)scale(0.3 -0.3)">
      <use xlink:href="#DejaVuSans-66"/>
      <use x="68.603516" xlink:href="#DejaVuSans-105"/>
      <use x="96.386719" xlink:href="#DejaVuSans-116"/>
      <use x="135.595703" xlink:href="#DejaVuSans-32"/>
      <use x="167.382812" xlink:href="#DejaVuSans-73"/>
      <use x="196.875" xlink:href="#DejaVuSans-110"/>
      <use x="260.253906" xlink:href="#DejaVuSans-116"/>
      <use x="299.462891" xlink:href="#DejaVuSans-101"/>
      <use x="360.986328" xlink:href="#DejaVuSans-114"/>
      <use x="402.099609" xlink:href="#DejaVuSans-97"/>
      <use x="463.378906" xlink:href="#DejaVuSans-99"/>
      <use x="518.359375" xlink:href="#DejaVuSans-116"/>
      <use x="557.568359" xlink:href="#DejaVuSans-105"/>
      <use x="585.351562" xlink:href="#DejaVuSans-111"/>
      <use x="646.533203" xlink:href="#DejaVuSans-110"/>
     </g>
    </g>
   </g>
   <g id="matplotlib.axis_2">
    <g id="ytick_1">
     <g id="line2d_7">
      <defs>
       <path d="M 0 0 
L -3.5 0 
" id="m1c14ffec5b" style="stroke:#000000;stroke-width:0.8;"/>
      </defs>
      <g>
       <use style="stroke:#000000;stroke-width:0.8;" x="95.175" xlink:href="#m1c14ffec5b" y="481.516444"/>
      </g>
     </g>
     <g id="text_8">
      <!-- −7 -->
      <defs>
       <path d="M 10.59375 35.5 
L 73.1875 35.5 
L 73.1875 27.203125 
L 10.59375 27.203125 
z
" id="DejaVuSans-8722"/>
       <path d="M 8.203125 72.90625 
L 55.078125 72.90625 
L 55.078125 68.703125 
L 28.609375 0 
L 18.3125 0 
L 43.21875 64.59375 
L 8.203125 64.59375 
z
" id="DejaVuSans-55"/>
      </defs>
      <g transform="translate(43.948438 492.9141)scale(0.3 -0.3)">
       <use xlink:href="#DejaVuSans-8722"/>
       <use x="83.789062" xlink:href="#DejaVuSans-55"/>
      </g>
     </g>
    </g>
    <g id="ytick_2">
     <g id="line2d_8">
      <g>
       <use style="stroke:#000000;stroke-width:0.8;" x="95.175" xlink:href="#m1c14ffec5b" y="424.114976"/>
      </g>
     </g>
     <g id="text_9">
      <!-- −6 -->
      <defs>
       <path d="M 33.015625 40.375 
Q 26.375 40.375 22.484375 35.828125 
Q 18.609375 31.296875 18.609375 23.390625 
Q 18.609375 15.53125 22.484375 10.953125 
Q 26.375 6.390625 33.015625 6.390625 
Q 39.65625 6.390625 43.53125 10.953125 
Q 47.40625 15.53125 47.40625 23.390625 
Q 47.40625 31.296875 43.53125 35.828125 
Q 39.65625 40.375 33.015625 40.375 
z
M 52.59375 71.296875 
L 52.59375 62.3125 
Q 48.875 64.0625 45.09375 64.984375 
Q 41.3125 65.921875 37.59375 65.921875 
Q 27.828125 65.921875 22.671875 59.328125 
Q 17.53125 52.734375 16.796875 39.40625 
Q 19.671875 43.65625 24.015625 45.921875 
Q 28.375 48.1875 33.59375 48.1875 
Q 44.578125 48.1875 50.953125 41.515625 
Q 57.328125 34.859375 57.328125 23.390625 
Q 57.328125 12.15625 50.6875 5.359375 
Q 44.046875 -1.421875 33.015625 -1.421875 
Q 20.359375 -1.421875 13.671875 8.265625 
Q 6.984375 17.96875 6.984375 36.375 
Q 6.984375 53.65625 15.1875 63.9375 
Q 23.390625 74.21875 37.203125 74.21875 
Q 40.921875 74.21875 44.703125 73.484375 
Q 48.484375 72.75 52.59375 71.296875 
z
" id="DejaVuSans-54"/>
      </defs>
      <g transform="translate(43.948438 435.512632)scale(0.3 -0.3)">
       <use xlink:href="#DejaVuSans-8722"/>
       <use x="83.789062" xlink:href="#DejaVuSans-54"/>
      </g>
     </g>
    </g>
    <g id="ytick_3">
     <g id="line2d_9">
      <g>
       <use style="stroke:#000000;stroke-width:0.8;" x="95.175" xlink:href="#m1c14ffec5b" y="366.713508"/>
      </g>
     </g>
     <g id="text_10">
      <!-- −5 -->
      <g transform="translate(43.948438 378.111164)scale(0.3 -0.3)">
       <use xlink:href="#DejaVuSans-8722"/>
       <use x="83.789062" xlink:href="#DejaVuSans-53"/>
      </g>
     </g>
    </g>
    <g id="ytick_4">
     <g id="line2d_10">
      <g>
       <use style="stroke:#000000;stroke-width:0.8;" x="95.175" xlink:href="#m1c14ffec5b" y="309.31204"/>
      </g>
     </g>
     <g id="text_11">
      <!-- −4 -->
      <defs>
       <path d="M 37.796875 64.3125 
L 12.890625 25.390625 
L 37.796875 25.390625 
z
M 35.203125 72.90625 
L 47.609375 72.90625 
L 47.609375 25.390625 
L 58.015625 25.390625 
L 58.015625 17.1875 
L 47.609375 17.1875 
L 47.609375 0 
L 37.796875 0 
L 37.796875 17.1875 
L 4.890625 17.1875 
L 4.890625 26.703125 
z
" id="DejaVuSans-52"/>
      </defs>
      <g transform="translate(43.948438 320.709696)scale(0.3 -0.3)">
       <use xlink:href="#DejaVuSans-8722"/>
       <use x="83.789062" xlink:href="#DejaVuSans-52"/>
      </g>
     </g>
    </g>
    <g id="ytick_5">
     <g id="line2d_11">
      <g>
       <use style="stroke:#000000;stroke-width:0.8;" x="95.175" xlink:href="#m1c14ffec5b" y="251.910572"/>
      </g>
     </g>
     <g id="text_12">
      <!-- −3 -->
      <defs>
       <path d="M 40.578125 39.3125 
Q 47.65625 37.796875 51.625 33 
Q 55.609375 28.21875 55.609375 21.1875 
Q 55.609375 10.40625 48.1875 4.484375 
Q 40.765625 -1.421875 27.09375 -1.421875 
Q 22.515625 -1.421875 17.65625 -0.515625 
Q 12.796875 0.390625 7.625 2.203125 
L 7.625 11.71875 
Q 11.71875 9.328125 16.59375 8.109375 
Q 21.484375 6.890625 26.8125 6.890625 
Q 36.078125 6.890625 40.9375 10.546875 
Q 45.796875 14.203125 45.796875 21.1875 
Q 45.796875 27.640625 41.28125 31.265625 
Q 36.765625 34.90625 28.71875 34.90625 
L 20.21875 34.90625 
L 20.21875 43.015625 
L 29.109375 43.015625 
Q 36.375 43.015625 40.234375 45.921875 
Q 44.09375 48.828125 44.09375 54.296875 
Q 44.09375 59.90625 40.109375 62.90625 
Q 36.140625 65.921875 28.71875 65.921875 
Q 24.65625 65.921875 20.015625 65.03125 
Q 15.375 64.15625 9.8125 62.3125 
L 9.8125 71.09375 
Q 15.4375 72.65625 20.34375 73.4375 
Q 25.25 74.21875 29.59375 74.21875 
Q 40.828125 74.21875 47.359375 69.109375 
Q 53.90625 64.015625 53.90625 55.328125 
Q 53.90625 49.265625 50.4375 45.09375 
Q 46.96875 40.921875 40.578125 39.3125 
z
" id="DejaVuSans-51"/>
      </defs>
      <g transform="translate(43.948438 263.308228)scale(0.3 -0.3)">
       <use xlink:href="#DejaVuSans-8722"/>
       <use x="83.789062" xlink:href="#DejaVuSans-51"/>
      </g>
     </g>
    </g>
    <g id="ytick_6">
     <g id="line2d_12">
      <g>
       <use style="stroke:#000000;stroke-width:0.8;" x="95.175" xlink:href="#m1c14ffec5b" y="194.509104"/>
      </g>
     </g>
     <g id="text_13">
      <!-- −2 -->
      <g transform="translate(43.948438 205.90676)scale(0.3 -0.3)">
       <use xlink:href="#DejaVuSans-8722"/>
       <use x="83.789062" xlink:href="#DejaVuSans-50"/>
      </g>
     </g>
    </g>
    <g id="ytick_7">
     <g id="line2d_13">
      <g>
       <use style="stroke:#000000;stroke-width:0.8;" x="95.175" xlink:href="#m1c14ffec5b" y="137.107636"/>
      </g>
     </g>
     <g id="text_14">
      <!-- −1 -->
      <g transform="translate(43.948438 148.505292)scale(0.3 -0.3)">
       <use xlink:href="#DejaVuSans-8722"/>
       <use x="83.789062" xlink:href="#DejaVuSans-49"/>
      </g>
     </g>
    </g>
    <g id="ytick_8">
     <g id="line2d_14">
      <g>
       <use style="stroke:#000000;stroke-width:0.8;" x="95.175" xlink:href="#m1c14ffec5b" y="79.706168"/>
      </g>
     </g>
     <g id="text_15">
      <!-- 0 -->
      <g transform="translate(69.0875 91.103824)scale(0.3 -0.3)">
       <use xlink:href="#DejaVuSans-48"/>
      </g>
     </g>
    </g>
    <g id="ytick_9">
     <g id="line2d_15">
      <g>
       <use style="stroke:#000000;stroke-width:0.8;" x="95.175" xlink:href="#m1c14ffec5b" y="22.3047"/>
      </g>
     </g>
     <g id="text_16">
      <!-- 1 -->
      <g transform="translate(69.0875 33.702356)scale(0.3 -0.3)">
       <use xlink:href="#DejaVuSans-49"/>
      </g>
     </g>
    </g>
    <g id="text_17">
     <!-- Weight Value -->
     <defs>
      <path d="M 3.328125 72.90625 
L 13.28125 72.90625 
L 28.609375 11.28125 
L 43.890625 72.90625 
L 54.984375 72.90625 
L 70.3125 11.28125 
L 85.59375 72.90625 
L 95.609375 72.90625 
L 77.296875 0 
L 64.890625 0 
L 49.515625 63.28125 
L 33.984375 0 
L 21.578125 0 
z
" id="DejaVuSans-87"/>
      <path d="M 45.40625 27.984375 
Q 45.40625 37.75 41.375 43.109375 
Q 37.359375 48.484375 30.078125 48.484375 
Q 22.859375 48.484375 18.828125 43.109375 
Q 14.796875 37.75 14.796875 27.984375 
Q 14.796875 18.265625 18.828125 12.890625 
Q 22.859375 7.515625 30.078125 7.515625 
Q 37.359375 7.515625 41.375 12.890625 
Q 45.40625 18.265625 45.40625 27.984375 
z
M 54.390625 6.78125 
Q 54.390625 -7.171875 48.1875 -13.984375 
Q 42 -20.796875 29.203125 -20.796875 
Q 24.46875 -20.796875 20.265625 -20.09375 
Q 16.0625 -19.390625 12.109375 -17.921875 
L 12.109375 -9.1875 
Q 16.0625 -11.328125 19.921875 -12.34375 
Q 23.78125 -13.375 27.78125 -13.375 
Q 36.625 -13.375 41.015625 -8.765625 
Q 45.40625 -4.15625 45.40625 5.171875 
L 45.40625 9.625 
Q 42.625 4.78125 38.28125 2.390625 
Q 33.9375 0 27.875 0 
Q 17.828125 0 11.671875 7.65625 
Q 5.515625 15.328125 5.515625 27.984375 
Q 5.515625 40.671875 11.671875 48.328125 
Q 17.828125 56 27.875 56 
Q 33.9375 56 38.28125 53.609375 
Q 42.625 51.21875 45.40625 46.390625 
L 45.40625 54.6875 
L 54.390625 54.6875 
z
" id="DejaVuSans-103"/>
      <path d="M 54.890625 33.015625 
L 54.890625 0 
L 45.90625 0 
L 45.90625 32.71875 
Q 45.90625 40.484375 42.875 44.328125 
Q 39.84375 48.1875 33.796875 48.1875 
Q 26.515625 48.1875 22.3125 43.546875 
Q 18.109375 38.921875 18.109375 30.90625 
L 18.109375 0 
L 9.078125 0 
L 9.078125 75.984375 
L 18.109375 75.984375 
L 18.109375 46.1875 
Q 21.34375 51.125 25.703125 53.5625 
Q 30.078125 56 35.796875 56 
Q 45.21875 56 50.046875 50.171875 
Q 54.890625 44.34375 54.890625 33.015625 
z
" id="DejaVuSans-104"/>
      <path d="M 28.609375 0 
L 0.78125 72.90625 
L 11.078125 72.90625 
L 34.1875 11.53125 
L 57.328125 72.90625 
L 67.578125 72.90625 
L 39.796875 0 
z
" id="DejaVuSans-86"/>
      <path d="M 9.421875 75.984375 
L 18.40625 75.984375 
L 18.40625 0 
L 9.421875 0 
z
" id="DejaVuSans-108"/>
      <path d="M 8.5 21.578125 
L 8.5 54.6875 
L 17.484375 54.6875 
L 17.484375 21.921875 
Q 17.484375 14.15625 20.5 10.265625 
Q 23.53125 6.390625 29.59375 6.390625 
Q 36.859375 6.390625 41.078125 11.03125 
Q 45.3125 15.671875 45.3125 23.6875 
L 45.3125 54.6875 
L 54.296875 54.6875 
L 54.296875 0 
L 45.3125 0 
L 45.3125 8.40625 
Q 42.046875 3.421875 37.71875 1 
Q 33.40625 -1.421875 27.6875 -1.421875 
Q 18.265625 -1.421875 13.375 4.4375 
Q 8.5 10.296875 8.5 21.578125 
z
M 31.109375 56 
z
" id="DejaVuSans-117"/>
     </defs>
     <g transform="translate(33.709375 359.456657)rotate(-90)scale(0.3 -0.3)">
      <use xlink:href="#DejaVuSans-87"/>
      <use x="98.798828" xlink:href="#DejaVuSans-101"/>
      <use x="160.322266" xlink:href="#DejaVuSans-105"/>
      <use x="188.105469" xlink:href="#DejaVuSans-103"/>
      <use x="251.582031" xlink:href="#DejaVuSans-104"/>
      <use x="314.960938" xlink:href="#DejaVuSans-116"/>
      <use x="354.169922" xlink:href="#DejaVuSans-32"/>
      <use x="385.957031" xlink:href="#DejaVuSans-86"/>
      <use x="454.255859" xlink:href="#DejaVuSans-97"/>
      <use x="515.535156" xlink:href="#DejaVuSans-108"/>
      <use x="543.318359" xlink:href="#DejaVuSans-117"/>
      <use x="606.697266" xlink:href="#DejaVuSans-101"/>
     </g>
    </g>
   </g>
   <g id="line2d_16">
    <path clip-path="url(#p80526d9cc9)" d="M 156.759221 83.967643 
L 161.492828 85.838636 
L 166.226434 102.31966 
L 170.960041 58.433424 
L 175.693648 90.820865 
L 180.427254 71.735881 
L 185.160861 60.353928 
L 189.894467 94.139649 
L 194.628074 91.716791 
L 199.36168 70.586085 
L 204.095287 90.092357 
L 208.828893 59.47238 
L 213.5625 94.503535 
L 218.296107 67.838532 
L 223.029713 53.313999 
L 227.76332 97.69683 
L 232.496926 61.843581 
L 237.230533 57.63835 
L 241.964139 88.211273 
L 246.697746 72.865625 
L 251.431352 80.705864 
L 256.164959 79.915162 
L 260.898566 82.502393 
L 265.632172 72.718665 
L 270.365779 75.009165 
L 275.099385 66.293902 
L 279.832992 76.591993 
L 284.566598 71.217267 
L 289.300205 50.795275 
L 294.033811 64.506166 
L 298.767418 83.590163 
L 303.501025 68.035505 
L 308.234631 103.504275 
L 312.968238 75.702972 
L 317.701844 68.084116 
L 322.435451 81.838486 
L 327.169057 84.606354 
L 331.902664 75.22468 
L 336.63627 72.005598 
L 341.369877 88.698582 
L 346.103484 73.370387 
L 350.83709 89.872249 
L 355.570697 84.108807 
L 360.304303 100.746233 
L 365.03791 95.077602 
L 369.771516 89.702767 
L 374.505123 78.362005 
L 379.23873 97.043173 
L 383.972336 78.406081 
L 388.705943 86.259876 
L 393.439549 86.360893 
L 398.173156 76.02975 
L 402.906762 71.700079 
L 407.640369 105.041839 
L 412.373975 98.776336 
L 417.107582 80.091017 
L 421.841189 96.851819 
L 426.574795 83.99651 
L 431.308402 112.159121 
L 436.042008 70.745976 
L 440.775615 101.542665 
L 445.509221 73.799524 
L 450.242828 73.835797 
L 454.976434 76.161916 
L 459.710041 88.379378 
L 464.443648 76.235203 
L 469.177254 84.87976 
L 473.910861 63.879204 
L 478.644467 108.262103 
L 483.378074 98.547696 
L 488.11168 84.247016 
L 492.845287 83.082123 
L 497.578893 75.19209 
L 502.3125 63.587089 
L 507.046107 70.264132 
L 511.779713 71.942214 
L 516.51332 74.62608 
L 521.246926 72.624688 
L 525.980533 88.846123 
L 530.714139 85.964048 
L 535.447746 74.143182 
L 540.181352 80.183703 
L 544.914959 69.606834 
L 549.648566 62.097936 
L 554.382172 81.05666 
L 559.115779 73.123026 
L 563.849385 67.430375 
L 568.582992 59.867459 
L 573.316598 80.464336 
L 578.050205 63.812571 
L 582.783811 56.843027 
L 587.517418 50.873046 
L 592.251025 98.363499 
L 596.984631 102.007985 
L 601.718238 79.823224 
L 606.451844 81.79058 
L 611.185451 76.73734 
L 615.919057 66.813871 
L 620.652664 67.989252 
L 630.119877 88.846191 
L 634.853484 79.406899 
L 639.58709 81.125935 
L 644.320697 88.375541 
L 649.054303 68.394565 
L 653.78791 72.719732 
L 658.521516 55.765991 
L 663.255123 65.235958 
L 667.98873 87.382784 
L 672.722336 55.322416 
L 677.455943 84.584233 
L 682.189549 93.561647 
L 686.923156 101.533715 
L 691.656762 84.440821 
L 696.390369 85.325842 
L 701.123975 90.125321 
L 705.857582 77.329169 
L 710.591189 75.874455 
L 715.324795 76.777826 
L 720.058402 91.912923 
L 724.792008 82.080536 
L 729.525615 69.359563 
L 734.259221 95.573922 
L 738.992828 79.164474 
L 743.726434 96.264848 
L 748.460041 84.154068 
L 753.193648 78.101272 
L 757.927254 81.276553 
L 762.660861 92.194504 
L 767.394467 81.085304 
L 772.128074 77.278138 
L 776.86168 74.094076 
L 781.595287 43.790976 
L 786.328893 56.424387 
L 791.0625 96.973982 
L 795.796107 103.788694 
L 800.529713 71.531393 
L 805.26332 90.805915 
L 809.996926 88.651297 
L 814.730533 72.23846 
L 819.464139 62.783274 
L 824.197746 58.274894 
L 828.931352 84.317633 
L 833.664959 81.805995 
L 838.398566 72.786148 
L 843.132172 95.822549 
L 847.865779 73.951559 
L 852.599385 90.486217 
L 857.332992 102.00689 
L 862.066598 80.433655 
L 866.800205 60.543516 
L 871.533811 75.077998 
L 876.267418 66.972795 
L 881.001025 97.931592 
L 885.734631 51.12755 
L 890.468238 81.047302 
L 895.201844 64.526002 
L 899.935451 72.851303 
L 904.669057 95.953956 
L 909.402664 91.151433 
L 914.13627 90.647234 
L 918.869877 100.696286 
L 923.603484 76.926945 
L 928.33709 104.50316 
L 933.070697 78.134694 
L 937.804303 73.699755 
L 942.53791 102.23147 
L 947.271516 67.212276 
L 952.005123 59.331485 
L 956.73873 98.640864 
L 961.472336 66.495278 
L 966.205943 91.88689 
L 970.939549 95.449966 
L 975.673156 67.469462 
L 980.406762 83.398554 
L 985.140369 72.780813 
L 989.873975 67.242193 
L 994.607582 77.467945 
L 999.341189 59.349532 
L 1004.074795 75.040869 
L 1008.808402 95.791575 
L 1013.542008 80.65736 
L 1018.275615 72.139423 
L 1023.009221 94.649507 
L 1027.742828 94.059789 
L 1032.476434 95.110326 
L 1037.210041 100.770427 
L 1041.943648 73.354242 
L 1046.677254 84.12534 
L 1051.410861 77.272449 
L 1056.144467 46.135415 
L 1060.878074 79.715605 
L 1065.61168 85.332567 
L 1070.345287 88.908343 
L 1075.078893 83.347891 
L 1079.8125 102.08646 
L 1084.546107 89.279963 
L 1089.279713 86.497644 
L 1094.01332 87.262262 
L 1098.746926 99.995694 
L 1103.480533 78.262286 
L 1108.214139 83.120434 
L 1112.947746 106.275599 
L 1117.681352 87.609704 
L 1122.414959 68.446209 
L 1127.148566 74.038014 
L 1131.882172 91.568538 
L 1136.615779 76.540757 
L 1141.349385 88.397468 
L 1146.082992 98.546396 
L 1150.816598 72.39373 
L 1155.550205 93.748206 
L 1160.283811 69.152701 
L 1165.017418 96.619056 
L 1169.751025 78.418001 
L 1174.484631 67.592012 
L 1179.218238 86.690683 
L 1183.951844 79.124707 
L 1188.685451 75.736967 
L 1193.419057 96.141043 
L 1198.152664 91.725009 
L 1202.88627 59.069422 
L 1207.619877 64.300152 
L 1212.353484 68.769425 
L 1217.08709 79.323658 
L 1221.820697 60.703482 
L 1226.554303 108.669525 
L 1231.28791 64.54771 
L 1236.021516 99.389222 
L 1240.755123 64.008211 
L 1245.48873 81.224174 
L 1250.222336 69.646444 
L 1254.955943 86.457988 
L 1259.689549 64.02226 
L 1264.423156 108.514313 
L 1269.156762 96.562053 
L 1273.890369 78.872356 
L 1278.623975 74.751263 
L 1283.357582 83.331302 
L 1288.091189 70.404895 
L 1292.824795 68.650615 
L 1297.558402 66.039963 
L 1302.292008 76.114457 
L 1307.025615 84.972628 
L 1311.759221 77.252749 
L 1316.492828 86.807857 
L 1321.226434 84.527752 
L 1325.960041 64.274449 
L 1330.693648 80.097052 
L 1335.427254 87.052204 
L 1340.160861 79.012438 
L 1344.894467 98.794292 
L 1349.628074 76.392165 
L 1354.36168 80.121147 
L 1359.095287 77.583944 
L 1363.828893 56.197088 
L 1363.828893 56.197088 
" style="fill:none;stroke:#1f77b4;stroke-linecap:square;stroke-width:1.5;"/>
   </g>
   <g id="line2d_17">
    <path clip-path="url(#p80526d9cc9)" d="M 156.759221 87.234304 
L 161.492828 60.959118 
L 166.226434 95.526135 
L 170.960041 97.346613 
L 175.693648 474.656713 
L 180.427254 62.051413 
L 185.160861 95.805021 
L 189.894467 284.870545 
L 194.628074 57.489172 
L 199.36168 98.053919 
L 204.095287 100.474379 
L 208.828893 82.852965 
L 213.5625 89.535335 
L 218.296107 83.319704 
L 223.029713 103.991398 
L 227.76332 93.256842 
L 232.496926 113.552107 
L 237.230533 61.276849 
L 241.964139 76.204664 
L 246.697746 95.008714 
L 251.431352 63.018517 
L 256.164959 59.391018 
L 260.898566 78.050469 
L 265.632172 80.025405 
L 270.365779 85.173964 
L 275.099385 79.5535 
L 279.832992 68.702872 
L 284.566598 74.139947 
L 289.300205 92.75528 
L 294.033811 72.778266 
L 298.767418 72.528786 
L 303.501025 77.609864 
L 308.234631 73.437611 
L 312.968238 59.837848 
L 317.701844 77.000215 
L 322.435451 90.033588 
L 327.169057 77.755039 
L 331.902664 100.509479 
L 336.63627 93.805371 
L 341.369877 97.298202 
L 346.103484 91.131849 
L 350.83709 84.562225 
L 355.570697 84.556326 
L 360.304303 89.283672 
L 365.03791 91.92611 
L 369.771516 67.869415 
L 374.505123 80.427422 
L 379.23873 75.750092 
L 383.972336 80.390351 
L 388.705943 84.808928 
L 393.439549 83.905451 
L 398.173156 79.657896 
L 402.906762 68.715624 
L 407.640369 82.559998 
L 412.373975 95.972866 
L 417.107582 76.379028 
L 421.841189 77.680586 
L 426.574795 62.919664 
L 431.308402 69.492204 
L 436.042008 66.584383 
L 440.775615 90.792077 
L 445.509221 75.43631 
L 450.242828 62.89146 
L 454.976434 62.121147 
L 459.710041 88.776915 
L 464.443648 72.754307 
L 469.177254 92.876298 
L 473.910861 85.843007 
L 478.644467 82.393793 
L 483.378074 71.639708 
L 488.11168 83.882212 
L 492.845287 51.025305 
L 497.578893 95.168748 
L 502.3125 77.722634 
L 507.046107 94.8823 
L 511.779713 80.60013 
L 516.51332 83.143747 
L 521.246926 95.273588 
L 525.980533 88.066729 
L 530.714139 75.094186 
L 535.447746 74.815781 
L 540.181352 90.416527 
L 544.914959 78.972408 
L 549.648566 99.505073 
L 554.382172 73.875951 
L 559.115779 57.537022 
L 563.849385 60.832916 
L 568.582992 74.538732 
L 573.316598 89.07532 
L 578.050205 75.127158 
L 582.783811 77.872171 
L 587.517418 60.745741 
L 592.251025 92.522375 
L 596.984631 81.477442 
L 601.718238 68.465407 
L 606.451844 93.111548 
L 611.185451 70.267098 
L 620.652664 82.868757 
L 625.38627 85.980684 
L 630.119877 69.517149 
L 634.853484 82.178511 
L 639.58709 84.223228 
L 644.320697 82.370907 
L 649.054303 80.397049 
L 653.78791 79.400644 
L 658.521516 61.815236 
L 663.255123 71.931969 
L 667.98873 87.685173 
L 672.722336 102.967987 
L 677.455943 77.096537 
L 682.189549 88.22721 
L 686.923156 74.513888 
L 691.656762 101.971479 
L 696.390369 89.281124 
L 701.123975 81.013791 
L 705.857582 80.863021 
L 710.591189 90.429958 
L 715.324795 87.973521 
L 720.058402 70.259698 
L 724.792008 66.345804 
L 729.525615 79.536539 
L 734.259221 75.511462 
L 738.992828 81.400763 
L 743.726434 62.427399 
L 748.460041 73.299657 
L 753.193648 108.798248 
L 757.927254 77.024834 
L 762.660861 99.641078 
L 767.394467 96.856021 
L 772.128074 71.044805 
L 776.86168 77.581357 
L 781.595287 74.875475 
L 786.328893 76.593135 
L 791.0625 78.016981 
L 795.796107 92.587466 
L 800.529713 95.781686 
L 805.26332 80.273799 
L 809.996926 71.335225 
L 814.730533 75.954173 
L 819.464139 74.298298 
L 824.197746 87.533537 
L 828.931352 65.760604 
L 833.664959 69.783732 
L 838.398566 103.986427 
L 843.132172 88.247284 
L 847.865779 90.228365 
L 852.599385 75.729868 
L 857.332992 83.102726 
L 862.066598 61.848655 
L 866.800205 76.101631 
L 871.533811 61.822813 
L 876.267418 83.179897 
L 881.001025 98.130779 
L 885.734631 66.650726 
L 890.468238 78.815406 
L 895.201844 65.368156 
L 899.935451 71.514078 
L 904.669057 75.301603 
L 909.402664 77.842916 
L 914.13627 88.223788 
L 918.869877 72.795002 
L 923.603484 100.010346 
L 928.33709 73.559068 
L 933.070697 82.822535 
L 937.804303 87.234237 
L 942.53791 81.839522 
L 947.271516 95.507606 
L 952.005123 82.929232 
L 956.73873 80.147264 
L 961.472336 94.525572 
L 966.205943 90.968658 
L 970.939549 74.581153 
L 975.673156 79.669751 
L 980.406762 70.908923 
L 985.140369 75.402104 
L 989.873975 81.277267 
L 994.607582 84.532243 
L 999.341189 69.622088 
L 1004.074795 71.951689 
L 1008.808402 63.186126 
L 1013.542008 96.547115 
L 1018.275615 79.006614 
L 1023.009221 89.214959 
L 1027.742828 88.690706 
L 1032.476434 70.183674 
L 1037.210041 81.974456 
L 1041.943648 82.29231 
L 1046.677254 81.510667 
L 1051.410861 78.260852 
L 1056.144467 79.833209 
L 1060.878074 66.738744 
L 1065.61168 45.035765 
L 1070.345287 74.767098 
L 1075.078893 67.854998 
L 1079.8125 89.764832 
L 1084.546107 74.474237 
L 1089.279713 72.686931 
L 1094.01332 78.21204 
L 1098.746926 61.936542 
L 1103.480533 88.17645 
L 1108.214139 69.091229 
L 1112.947746 72.036321 
L 1117.681352 70.524795 
L 1122.414959 80.770659 
L 1127.148566 78.459643 
L 1131.882172 85.723157 
L 1136.615779 103.127785 
L 1141.349385 68.349922 
L 1146.082992 72.738839 
L 1150.816598 84.107481 
L 1155.550205 64.682171 
L 1160.283811 70.633703 
L 1165.017418 103.629322 
L 1169.751025 84.805356 
L 1174.484631 76.197094 
L 1179.218238 87.717462 
L 1183.951844 76.520508 
L 1188.685451 73.733873 
L 1193.419057 64.34529 
L 1198.152664 63.093264 
L 1202.88627 79.225641 
L 1207.619877 101.154075 
L 1212.353484 90.992802 
L 1217.08709 86.16762 
L 1221.820697 100.507469 
L 1226.554303 81.174472 
L 1231.28791 71.804341 
L 1236.021516 62.069121 
L 1240.755123 90.823341 
L 1245.48873 66.673887 
L 1250.222336 65.160829 
L 1254.955943 73.986385 
L 1259.689549 59.736413 
L 1264.423156 84.94361 
L 1269.156762 96.068198 
L 1273.890369 80.026167 
L 1278.623975 88.281737 
L 1283.357582 79.982567 
L 1288.091189 95.574525 
L 1292.824795 74.613579 
L 1297.558402 75.504118 
L 1302.292008 107.804102 
L 1307.025615 89.350431 
L 1311.759221 92.887251 
L 1316.492828 66.204649 
L 1321.226434 91.484684 
L 1325.960041 82.9989 
L 1330.693648 61.43076 
L 1335.427254 71.82011 
L 1340.160861 78.203537 
L 1344.894467 75.685163 
L 1349.628074 91.728881 
L 1354.36168 65.825801 
L 1359.095287 88.513066 
L 1363.828893 85.970495 
L 1363.828893 85.970495 
" style="fill:none;stroke:#ff7f0e;stroke-linecap:square;stroke-width:1.5;"/>
   </g>
   <g id="line2d_18">
    <path clip-path="url(#p80526d9cc9)" d="M 156.759221 78.15211 
L 161.492828 98.466149 
L 166.226434 87.603553 
L 170.960041 71.809166 
L 175.693648 67.208529 
L 180.427254 67.600805 
L 185.160861 72.075558 
L 189.894467 72.443048 
L 194.628074 86.29827 
L 199.36168 69.06689 
L 204.095287 102.249402 
L 208.828893 92.88985 
L 213.5625 96.140648 
L 218.296107 74.727247 
L 223.029713 49.600712 
L 227.76332 83.414293 
L 232.496926 91.511187 
L 237.230533 63.054717 
L 241.964139 83.676007 
L 246.697746 87.83682 
L 251.431352 65.759771 
L 256.164959 74.982407 
L 260.898566 94.76897 
L 265.632172 81.40381 
L 270.365779 64.746599 
L 275.099385 89.242041 
L 279.832992 97.104835 
L 284.566598 98.288081 
L 289.300205 68.713182 
L 294.033811 67.830334 
L 298.767418 93.379613 
L 303.501025 76.968144 
L 308.234631 83.18601 
L 312.968238 83.748429 
L 317.701844 61.997862 
L 322.435451 91.804064 
L 327.169057 88.302675 
L 331.902664 77.153625 
L 336.63627 100.486241 
L 341.369877 66.873981 
L 346.103484 72.038231 
L 350.83709 83.782156 
L 355.570697 99.385941 
L 360.304303 89.702929 
L 365.03791 65.888086 
L 369.771516 59.255269 
L 374.505123 76.036984 
L 379.23873 65.009511 
L 383.972336 60.129808 
L 388.705943 87.093168 
L 393.439549 89.343506 
L 398.173156 86.56458 
L 402.906762 80.111704 
L 407.640369 74.788518 
L 412.373975 67.904377 
L 417.107582 82.800111 
L 421.841189 65.47997 
L 426.574795 76.487268 
L 431.308402 94.259087 
L 436.042008 87.868401 
L 440.775615 94.368315 
L 445.509221 60.825646 
L 450.242828 61.388027 
L 454.976434 87.467473 
L 459.710041 80.038443 
L 464.443648 70.41833 
L 469.177254 91.859138 
L 473.910861 107.400155 
L 478.644467 80.215528 
L 483.378074 86.5177 
L 488.11168 73.276343 
L 492.845287 94.761722 
L 497.578893 45.33213 
L 502.3125 77.196856 
L 507.046107 73.984831 
L 511.779713 79.161715 
L 516.51332 72.958607 
L 521.246926 82.630534 
L 525.980533 91.407951 
L 530.714139 103.723935 
L 535.447746 65.129241 
L 540.181352 79.821438 
L 544.914959 95.537819 
L 549.648566 69.604999 
L 554.382172 61.278669 
L 559.115779 62.407849 
L 563.849385 67.655855 
L 568.582992 55.312718 
L 573.316598 84.575072 
L 578.050205 71.098068 
L 582.783811 85.672995 
L 587.517418 68.929716 
L 592.251025 79.248281 
L 596.984631 60.300991 
L 601.718238 84.652425 
L 606.451844 75.772341 
L 611.185451 87.620159 
L 615.919057 96.464114 
L 620.652664 78.628592 
L 625.38627 87.963677 
L 630.119877 64.221576 
L 634.853484 69.09109 
L 639.58709 106.200931 
L 644.320697 83.333502 
L 649.054303 68.548688 
L 653.78791 75.973244 
L 658.521516 81.280381 
L 663.255123 79.981486 
L 667.98873 70.781062 
L 672.722336 68.998667 
L 677.455943 104.688905 
L 682.189549 67.003216 
L 686.923156 64.965851 
L 691.656762 81.984944 
L 696.390369 69.510938 
L 701.123975 90.015031 
L 705.857582 70.080573 
L 710.591189 59.632216 
L 715.324795 84.193841 
L 720.058402 65.119528 
L 724.792008 89.446194 
L 729.525615 94.502401 
L 734.259221 94.758307 
L 738.992828 78.412415 
L 743.726434 91.183398 
L 748.460041 75.840234 
L 753.193648 69.320683 
L 757.927254 81.475274 
L 762.660861 94.143928 
L 767.394467 103.405007 
L 772.128074 81.65923 
L 776.86168 87.187151 
L 781.595287 84.403888 
L 786.328893 80.756578 
L 791.0625 79.886188 
L 795.796107 86.471295 
L 800.529713 78.431245 
L 805.26332 83.349737 
L 809.996926 89.42642 
L 814.730533 94.65688 
L 819.464139 67.144206 
L 824.197746 64.288352 
L 828.931352 71.747987 
L 833.664959 104.116633 
L 838.398566 79.257664 
L 843.132172 74.624484 
L 847.865779 73.170473 
L 852.599385 67.11509 
L 857.332992 59.148631 
L 862.066598 71.715353 
L 866.800205 81.038192 
L 871.533811 83.893433 
L 876.267418 101.248849 
L 881.001025 57.855162 
L 885.734631 59.895774 
L 890.468238 77.218589 
L 895.201844 87.529208 
L 899.935451 84.908306 
L 904.669057 74.937193 
L 909.402664 77.488804 
L 914.13627 82.048269 
L 918.869877 76.45021 
L 923.603484 60.771102 
L 928.33709 94.273778 
L 933.070697 77.533254 
L 937.804303 74.575176 
L 942.53791 67.595189 
L 947.271516 75.185713 
L 952.005123 65.663783 
L 956.73873 71.469365 
L 961.472336 90.344109 
L 966.205943 79.441364 
L 970.939549 96.325379 
L 975.673156 96.885508 
L 980.406762 71.934198 
L 985.140369 75.053049 
L 989.873975 62.793923 
L 994.607582 94.267036 
L 999.341189 82.389447 
L 1004.074795 87.855753 
L 1008.808402 60.579942 
L 1013.542008 78.87025 
L 1018.275615 81.399194 
L 1023.009221 60.457873 
L 1027.742828 97.276818 
L 1032.476434 95.072785 
L 1037.210041 75.559961 
L 1041.943648 87.918651 
L 1046.677254 90.247458 
L 1051.410861 96.94026 
L 1056.144467 69.854646 
L 1060.878074 68.392768 
L 1065.61168 63.738414 
L 1070.345287 88.036652 
L 1075.078893 65.119803 
L 1079.8125 83.655716 
L 1084.546107 61.296886 
L 1089.279713 77.968411 
L 1094.01332 84.434375 
L 1098.746926 74.639693 
L 1103.480533 73.477169 
L 1108.214139 112.669408 
L 1112.947746 60.801239 
L 1117.681352 82.771562 
L 1122.414959 84.543152 
L 1127.148566 93.927974 
L 1131.882172 62.942519 
L 1136.615779 78.199478 
L 1141.349385 63.286567 
L 1146.082992 80.36843 
L 1150.816598 80.224857 
L 1155.550205 75.121186 
L 1160.283811 74.968301 
L 1165.017418 79.441055 
L 1169.751025 46.039116 
L 1174.484631 94.865802 
L 1179.218238 97.062739 
L 1183.951844 102.717543 
L 1188.685451 70.389421 
L 1193.419057 62.846301 
L 1198.152664 67.684947 
L 1202.88627 71.431963 
L 1207.619877 79.124708 
L 1212.353484 63.450916 
L 1217.08709 75.509035 
L 1221.820697 97.0616 
L 1226.554303 64.708959 
L 1231.28791 58.410781 
L 1236.021516 79.893789 
L 1240.755123 62.8493 
L 1245.48873 82.651247 
L 1250.222336 77.617012 
L 1254.955943 76.587864 
L 1259.689549 68.865848 
L 1264.423156 88.090274 
L 1269.156762 86.840312 
L 1273.890369 68.303647 
L 1278.623975 86.485724 
L 1283.357582 76.163544 
L 1288.091189 63.121954 
L 1292.824795 62.044603 
L 1297.558402 64.067995 
L 1302.292008 80.942685 
L 1307.025615 78.73164 
L 1311.759221 103.124543 
L 1316.492828 84.030584 
L 1321.226434 71.237835 
L 1325.960041 83.100118 
L 1330.693648 75.946511 
L 1335.427254 80.33019 
L 1340.160861 79.849954 
L 1344.894467 77.194356 
L 1349.628074 69.222812 
L 1354.36168 71.799844 
L 1359.095287 84.535692 
L 1363.828893 86.006318 
L 1363.828893 86.006318 
" style="fill:none;stroke:#2ca02c;stroke-linecap:square;stroke-width:1.5;"/>
   </g>
   <g id="patch_13">
    <path d="M 95.175 496.2 
L 95.175 22.247689 
" style="fill:none;stroke:#000000;stroke-linecap:square;stroke-linejoin:miter;stroke-width:0.8;"/>
   </g>
   <g id="patch_14">
    <path d="M 1429.2 496.2 
L 1429.2 22.247689 
" style="fill:none;stroke:#000000;stroke-linecap:square;stroke-linejoin:miter;stroke-width:0.8;"/>
   </g>
   <g id="patch_15">
    <path d="M 95.175 496.2 
L 1429.2 496.2 
" style="fill:none;stroke:#000000;stroke-linecap:square;stroke-linejoin:miter;stroke-width:0.8;"/>
   </g>
   <g id="patch_16">
    <path d="M 95.175 22.247689 
L 1429.2 22.247689 
" style="fill:none;stroke:#000000;stroke-linecap:square;stroke-linejoin:miter;stroke-width:0.8;"/>
   </g>
  </g>
 </g>
 <defs>
  <clipPath id="p80526d9cc9">
   <rect height="473.952311" width="1334.025" x="95.175" y="22.247689"/>
  </clipPath>
 </defs>
</svg>
